<?xml version="1.0" standalone="no"?>
<!DOCTYPE svg PUBLIC "-//W3C//DTD SVG 1.1//EN" "http://www.w3.org/Graphics/SVG/1.1/DTD/svg11.dtd" >
<svg xmlns="http://www.w3.org/2000/svg">
<metadata>
This is a custom SVG webfont generated by Font Squirrel.
Copyright   : Copyright c SIL International 20032008
Designer    : J Victor Gaultney and Annie Olsen
Foundry     : SIL International
Foundry URL : httpscriptssilorg
</metadata>
<defs>
<font id="webfontM7hlTBZl" horiz-adv-x="985" >
<font-face units-per-em="2048" ascent="1638" descent="-410" />
<missing-glyph horiz-adv-x="489" />
<glyph unicode=" "  horiz-adv-x="489" />
<glyph unicode="&#x09;" horiz-adv-x="489" />
<glyph unicode="&#xa0;" horiz-adv-x="489" />
<glyph unicode="!" horiz-adv-x="477" d="M43 84q0 27 14 66q12 34 37 61q25 29 59.5 47t77.5 18q59 0 91 -30q29 -29 28 -78q0 -39 -10 -70q-12 -35 -36.5 -63.5t-59.5 -47t-78 -18.5q-65 0 -92 31q-31 35 -31 84zM172 385l55 936q47 27 52 29l67 32q14 6 31.5 15.5t36.5 17.5q31 14 53 21l43 -31l-211 -993 q-23 -16 -49 -27l-53 -20z" />
<glyph unicode="&#x22;" horiz-adv-x="888" d="M223 1352q12 6 43 18l68 25q45 16 65 22l41 13l45 -27l-151 -549q-6 -4 -23 -8q-4 -2 -14 -3t-14 -1q-20 -4 -29 -4q-6 0 -13.5 -1t-11.5 -1zM598 1352q12 6 43 18l66 25q45 16 65 22q31 9 43 13l43 -27l-151 -549q-8 -4 -21 -8q-4 -2 -14 -3t-15 -1q-20 -4 -28 -4 q-6 0 -14.5 -1t-12.5 -1z" />
<glyph unicode="#" horiz-adv-x="931" d="M43 485q2 6 10 27l17 33l16 33q4 4 8 14t6 12h170l88 227h-151l-21 23q2 4 6.5 14.5t6.5 14.5q4 10 16 35q4 10 9 17t9 15q8 16 13 27h170l108 274q4 4 27 13q18 8 33 10q16 4 30 8q6 2 25 10l25 -22l-115 -293h160l108 274q4 4 27 13q18 8 33 10q16 4 30 8q10 2 27 10 l22 -22l-116 -293h143l21 -27q0 -4 -13 -26q-8 -16 -16 -35t-17 -35q-4 -10 -8 -14t-6 -9h-162l-90 -227h148l16 -26q-2 -6 -10 -27l-17 -33l-16 -33q-9 -15 -12 -24h-164l-115 -291q-9 -6 -24 -12q-4 -2 -9.5 -4t-10.5 -4.5t-11 -4.5l-35 -10q-16 -4 -29 -8l-20 20l123 314 h-164l-113 -291q-9 -6 -24 -12l-33 -13l-33 -10q-16 -4 -28 -8l-21 20l123 314h-154zM401 604h162l88 227h-162z" />
<glyph unicode="$" horiz-adv-x="931" d="M-8 131q0 10 6 29q10 31 16 43q16 33 27 49q4 6 9 15t9 15.5t9 12.5q10 12 28 31q14 14 22.5 14t18.5 -14.5l23 -34.5l28 -47q20 -31 37 -51q14 -16 51 -46q23 -18 66 -28l64 454l-35 17q-55 20 -113 53q-37 20 -80 64q-31 31 -51 77q-16 39 -16 95q0 53 22 110 q20 53 69.5 102.5t121.5 82.5q74 35 174 49l16 114q10 6 24.5 16.5t18.5 14.5q12 8 45 21l31 -29l-19 -129h2q31 0 84 -8q41 -6 78 -19q25 -8 70 -28q41 -18 57 -31q3 -3 0 -19q-2 -10 -14 -39l-11.5 -24l-11.5 -25q-12 -28 -24 -49q-16 -29 -25 -39q-14 -18 -18 -20l-58 8 q-16 57 -51 98q-41 47 -96 64l-51 -361q59 -25 127 -63q55 -31 94 -70q35 -35 57 -84q20 -43 21 -104q0 -74 -27 -150q-25 -72 -76 -129q-53 -59 -127 -100q-72 -41 -176 -59l-14 -111q-14 -12 -43 -27q-25 -12 -49 -18l-29 29l16 116h-6h-6q-49 0 -100 14.5t-105 41.5 q-51 27 -79 51q-31 26 -31 55zM309 950q0 -29 4 -43q6 -25 21 -41q23 -27 39 -39q23 -16 63 -39l45 322q-43 -8 -69 -20q-37 -18 -56 -37q-23 -23 -34 -49q-13 -29 -13 -54zM459 119q88 14 137 74q47 55 47 149q0 57 -29 98q-25 35 -100 80z" />
<glyph unicode="%" horiz-adv-x="1386" d="M80 807q0 70 26 154q25 76 74 137t119 100t160 39q55 0 94 -16q45 -18 74 -52q33 -35 49 -77q18 -46 18 -105q0 -74 -24 -151q-25 -76 -72 -140q-43 -57 -117 -100q-70 -41 -157 -41q-57 0 -101 20q-45 20 -76 56q-31 34 -49 80q-18 47 -18 96zM106 0l1014 1198 q8 6 29 12q6 2 20.5 5.5t20.5 5.5q14 4 39 8q8 2 18 5t13 3l20 -31l-1012 -1200q-12 -6 -30 -12q-25 -8 -39 -10l-41 -9q-25 -4 -33 -6zM276 784q0 -82 20.5 -116.5t63.5 -34.5q27 0 46 16q22 18 36 49q20 41 29 68q4 14 18 80q10 43 13 82q4 53 4 76q0 43 -6 73.5t-19 48.5 q-16 23 -24 29q-14 8 -33 8q-33 0 -53 -20q-25 -25 -39 -56q-14 -29 -27 -75q-12 -45 -18 -84q-4 -27 -8 -80q-3 -25 -3 -64zM692 219q0 77 25 154q25 78 74 139q47 59 120 100q70 39 160 39q51 0 94 -18q47 -20 74 -49q31 -34 49.5 -80t18.5 -105q0 -76 -25 -151.5 t-72 -139t-116.5 -102.5t-157.5 -39q-59 0 -100 20.5t-76 55.5q-33 33 -51 80q-17 41 -17 96zM889 197q0 -82 20 -117q20 -37 64 -37q23 0 45 18t37 50q14 31 26 67q16 55 21 80q8 57 10 84q4 53 4 74q0 84 -22 123q-20 37 -58 36q-33 0 -53 -20q-25 -25 -39 -55 q-14 -29 -26 -76q-12 -45 -19 -84q-4 -23 -8 -82q-2 -24 -2 -61z" />
<glyph unicode="&#x26;" horiz-adv-x="1292" d="M68 354q14 106 92 211t225 211q-20 72 -26.5 152t1.5 145q12 82 50 150q39 72 94 120q57 51 127 78q74 29 143 29q76 0 119 -20q49 -23 75.5 -56t37.5 -78q8 -41 2 -94q-6 -51 -39 -106q-31 -52 -80 -105q-45 -47 -107 -96q-74 -57 -116 -84l-31 -18q47 -119 115 -230 q63 -102 143 -207q41 63 55 142q6 43 0 77q-4 25 -24 58q-14 25 -41 37q-25 12 -49 12l-23 37l16 16q4 4 12.5 11.5t12.5 11.5q2 2 27 20q16 12 22 15h447l20 -45l-29 -33l-32 -37q-25 -27 -31 -33q-4 -4 -29 -22q-10 6 -69 30q-31 12 -68 17q16 -29 16 -62q0 -43 -4 -69 q-10 -66 -47 -142q-39 -78 -96 -143l14 -18.5t17 -18.5l30 -31q43 -43 90 -55q45 -12 99 2l6 -74q-57 -25 -88 -34l-88 -29q-41 -12 -70 -19q-8 -2 -17 -4t-15.5 -3t-8.5 -1q-20 0 -63 31q-47 33 -97 86q-82 -53 -170 -84q-94 -33 -186 -33t-172 27q-78 27 -121 72 q-47 51 -65 120q-18 71 -6 166zM309 377q-10 -72 6 -121q16 -53 43 -82t68 -45q37 -14 82 -14q49 0 102 16q41 12 99 45q-37 46 -74 98.5l-74 110.5q-25 39 -69 121q-29 53 -58 127q-59 -66 -86 -125q-31 -68 -39 -131zM573 1022q6 -51 23 -115q43 25 80 62q39 39 57 67 q25 37 35 68q8 20 16 65q12 68 -14 111q-25 41 -70 41q-27 0 -47 -14q-16 -12 -34.5 -41t-26.5 -62q-12 -43 -17 -74q-8 -49 -2 -108z" />
<glyph unicode="'" horiz-adv-x="477" d="M223 1352q12 6 43 18l68 25q45 16 65 22l41 13l45 -27l-151 -549q-6 -4 -23 -8q-4 -2 -14 -3t-14 -1q-20 -4 -29 -4q-6 0 -13.5 -1t-11.5 -1z" />
<glyph unicode="(" horiz-adv-x="630" d="M96 342q-10 133 13 307q20 156 75 312q51 145 131 272q78 125 179 219q98 92 217 152l37 -74q-61 -51 -127 -135q-68 -86 -113 -185q-45 -96 -88 -237q-39 -131 -62 -293q-23 -147 -24 -281q-2 -121 14 -249q14 -113 53 -215.5t99 -174.5l-60 -75q-98 61 -171.5 159.5 t-117 223t-55.5 274.5z" />
<glyph unicode=")" horiz-adv-x="630" d="M-96 -240q66 53 127 133t112 183q47 92 90 237q41 133 62 291q18 127 22 281q3 135 -12 252q-14 106 -55 216.5t-96 176.5l59 74q98 -61 172 -160q70 -92 115 -225q43 -126 55 -277q12 -143 -10 -307q-18 -145 -78 -311q-49 -139 -131 -271q-76 -121 -178 -217 q-100 -94 -215 -151z" />
<glyph unicode="*" horiz-adv-x="739" d="M-6 971l16 55l287 107l-238 96l11 35l12 51l8 27.5t6 21.5q8 29 10 33l52 20l192 -198l-8 278l33 16q14 6 47 19q39 16 45 18l33 11l37 -35l-93 -305l228 184l22 -23q20 -20 33 -30q8 -8 17.5 -16.5t15.5 -14.5q16 -16 20 -23l-14 -57l-287 -104l236 -97q0 -4 -3 -16 l-5 -20.5t-4.5 -16.5l-4.5 -14t-4 -19q-2 -10 -8 -28.5t-6 -20.5q-2 -8 -7 -19.5t-5 -15.5l-52 -18l-192 197l8 -279l-33 -16q-12 -6 -24.5 -10.5t-22.5 -8.5l-45 -16q-6 -2 -13 -4t-12.5 -4t-7.5 -2l-34 34l92 306l-228 -185q-12 8 -24 21q-33 29 -35 30l-31 31 q-12 13 -20 25z" />
<glyph unicode="+" horiz-adv-x="817" d="M59 522q0 2 5.5 10.5t7.5 14.5q4 8 7 16t7 17l18 30q4 6 7.5 14.5t5.5 10.5h250l36 266l23 8q6 2 29 11q6 2 11 5t9 4l12 3q6 2 9.5 3t5.5 1t4 1t6 1l25 -31l-39 -272h245l25 -31q0 -2 -10 -26q-6 -16 -17 -33l-16 -33q-10 -18 -12 -23h-236l-35 -264q-9 -6 -24 -12 q-4 -2 -14.5 -5t-16.5 -5q-20 -8 -31 -10q-15 -3 -24 -7l-25 29l39 274h-262z" />
<glyph unicode="," horiz-adv-x="477" d="M-12 -324q70 74 114 162q39 78 39 139q0 18 -6 37q-4 12 -20 33q-12 16 -35 23q-25 6 -51 4l-4 78q10 8 32 20q14 8 47 25q8 4 28 11t28 11q18 8 55 21q10 4 29.5 9t21.5 5q14 4 37 4q25 -12 33 -20.5t20 -28.5q12 -18 15 -39q4 -29 4 -53q0 -45 -15 -88q-16 -51 -38 -92 q-27 -49 -60 -95q-45 -61 -69 -88q-37 -40 -74 -73q-23 -20 -74 -54z" />
<glyph unicode="-" horiz-adv-x="677" d="M29 471q0 2 10 27q2 4 16 28l17 29l14 25h520l27 -31q-2 -4 -6 -13.5t-6 -13.5l-7.5 -15l-7.5 -15l-16 -29q-10 -18 -12 -23h-525z" />
<glyph unicode="." horiz-adv-x="477" d="M43 84q0 27 14 66q12 34 37 61q25 29 59.5 47t77.5 18q59 0 91 -30q29 -29 28 -78q0 -39 -10 -70q-12 -35 -36.5 -63.5t-59.5 -47t-78 -18.5q-65 0 -92 31q-31 35 -31 84z" />
<glyph unicode="/" horiz-adv-x="886" d="M-111 -303l897 1839q8 6 37 18q14 6 47 19q16 6 50 14q8 2 21 7t17 5l39 -28l-895 -1841q-12 -8 -34 -17q-12 -6 -25.5 -10l-26.5 -8q-37 -12 -53 -19l-24.5 -7t-14.5 -5z" />
<glyph unicode="0" horiz-adv-x="931" d="M33 422q0 77 6 147q6 63 22 136q12 51 41 126q23 57 60 130q29 55 74 106q49 57 94 88q57 41 110 59q59 20 129 21q63 0 129 -33q59 -31 105 -90q47 -63 69 -141q25 -82 25 -187q0 -150 -31 -284q-33 -143 -104 -264q-37 -59 -76 -105q-37 -43 -92 -84q-45 -35 -109 -57 q-55 -20 -125 -21q-76 0 -137 37q-57 35 -102 98.5t-66 145.5q-22 86 -22 172zM270 395q0 -150 35 -223q35 -72 109 -72q43 0 82 35q35 33 63 92q31 63 47 131q14 55 29 152q8 53 16 156q6 76 6 143q0 74 -10 135q-8 47 -31 92q-18 35 -43 51q-29 18 -55 19q-51 0 -92 -41 q-37 -37 -66 -102q-27 -61 -45 -144q-16 -74 -26 -157q-12 -109 -15 -150q-4 -94 -4 -117z" />
<glyph unicode="1" horiz-adv-x="931" d="M70 0l10 84q82 10 123 20q63 16 80 23q37 14 45 23q12 12 14 22l100 737q6 41 7 64q0 20 -9 35q-8 8 -18 10q-20 4 -43 4q-12 0 -70 -8q-51 -8 -106 -21l-15 82q20 4 66 19l86 26q45 14 94 33l92 35l82 31q49 20 62 26l35 -43l-140 -1030q-2 -8 6 -20q10 -12 33 -25 q14 -8 68 -23q37 -10 110 -20l-12 -84h-700z" />
<glyph unicode="2" horiz-adv-x="931" d="M-8 74l303 321q129 145 203 248q78 111 112 191q35 82 35 143q0 72 -30.5 106.5t-94.5 34.5q-39 0 -63 -16q-27 -18 -43.5 -47t-24.5 -64q-6 -25 -6 -71q-23 -14 -43 -21l-57 -18q-41 -12 -60 -17q-37 -8 -51 -10l-22 70q6 53 45 106q37 51 102 100q59 43 141 76 q74 29 164 29q63 0 107 -10q52 -12 92 -37q37 -23 63 -66q23 -37 23 -100q0 -51 -10 -86q-14 -49 -39 -96q-28 -52 -74 -117q-43 -59 -117 -143l-166 -181l-225 -229h360q12 0 29 10t27 23q10 14 20 33q4 6 8.5 18t8.5 18q14 37 28 103l74 -21l-63 -354h-740z" />
<glyph unicode="3" horiz-adv-x="931" d="M2 133l55 98q74 -68 139.5 -94t137.5 -26q53 0 94 20q45 23 76 59q33 39 51 93q16 47 16 118q0 53 -12 90t-36.5 62t-55.5 37q-25 10 -68 10h-18h-16q-2 0 -7.5 -1t-9.5 -1q-2 0 -22 -4l-7 90q135 35 207 107q74 74 74 194q0 68 -22 98q-25 35 -78 35q-31 0 -49 -10 q-27 -14 -39 -33q-16 -23 -25 -51q-8 -31 -6 -66q-12 -8 -47 -22q-37 -16 -58 -23q-41 -12 -59 -16q-37 -8 -49 -8l-25 61q4 31 21 60q20 33 47 63q25 27 65 62q31 25 82 51q45 23 95 35q57 14 102 14q80 0 135 -18q49 -16 86 -54q31 -31 47 -76q14 -41 15 -86 q0 -59 -17 -100q-18 -46 -49 -86q-25 -33 -74 -67q-35 -25 -90 -50q49 -6 90 -30q39 -23 64 -62q29 -43 39 -82q12 -45 12 -96q0 -95 -37 -178q-35 -80 -104 -146q-65 -61 -154 -98q-88 -37 -188 -37q-43 0 -78 11q-47 14 -86 32q-47 25 -86 51q-47 35 -78 70z" />
<glyph unicode="4" horiz-adv-x="931" d="M23 377l552 790l52 19l57 20l57 21l47 18l35 -43l-98 -727h127l20 -31q-25 -31 -55 -61q-10 -10 -53 -47h-59l-27 -203q-2 -8 4 -14t18 -13q20 -10 37 -16q8 -4 62 -16l-11 -74h-534l8 74q86 16 100 20q55 12 64 17q25 10 31 16q10 10 10 18l27 191h-439zM231 475h281 l70 506z" />
<glyph unicode="5" horiz-adv-x="931" d="M6 129l57 90q61 -45 84 -57q61 -33 72 -37q33 -12 66 -19q20 -4 61 -4q57 0 103 27q43 27 77 70q31 39 51.5 104.5t20.5 124.5q0 43 -14 90q-12 39 -39 70q-29 33 -60 45q-35 14 -79 14q-78 0 -132 -22q-47 -20 -110 -66l-41 35l27 84q10 33 30 106l15.5 59.5t15.5 55.5 q18 68 29 117l26 104q4 16 17 84h487q31 0 45 2t35 6q14 2 31 11l30 -35q-16 -23 -32 -43l-41 -49l-43 -43q-23 -23 -31 -29h-397q-2 -4 -6.5 -28.5t-8.5 -39.5l-20 -75l-8.5 -34t-10.5 -36l-16 -57q37 18 92 30q45 10 113 11q84 0 143 -27q63 -29 102 -74t59.5 -100 t20.5 -117q0 -49 -14 -121q-12 -57 -41 -116q-33 -68 -65 -107q-37 -45 -95 -86q-49 -35 -120 -57q-63 -20 -146 -21q-37 0 -88 11q-47 10 -90 30q-49 25 -84 51q-60 45 -78 68z" />
<glyph unicode="6" horiz-adv-x="931" d="M57 360q0 115 23 211q25 109 70 197q47 94 114.5 174t157.5 145q78 57 201 105q106 41 239 57l12 -90q-113 -20 -204 -65q-84 -41 -154 -107q-66 -61 -108 -139q-47 -84 -70 -166q70 57 123 78q61 25 114 24q70 0 119 -20q53 -23 92 -64q35 -39 58 -94q18 -47 18 -123 q0 -68 -12 -114q-16 -63 -41 -115q-25 -53 -68 -109q-41 -55 -88 -92q-47 -39 -112 -61q-63 -23 -131 -23q-70 0 -138 29q-63 27 -112 80q-47 51 -76 123q-27 67 -27 159zM297 373q0 -74 12 -127q12 -51 33 -84q20 -31 49 -47.5t61.5 -16.5t59.5 16.5t45 45.5q16 25 33 63 q8 23 22 76q10 37 13 76q4 53 4 69q0 59 -13 101q-10 37 -32 61q-18 22 -43 31q-16 6 -49 6q-43 0 -89 -27q-49 -29 -96 -79q-4 -25 -8 -82q-2 -27 -2 -82z" />
<glyph unicode="7" horiz-adv-x="931" d="M121 889l6 24.5l10 40.5l12.5 39t14.5 54q18 72 24 92q10 39 23 65h733l27 -37l-115 -217l-108 -217l-103 -205l-90 -188l-78 -162l-55 -127q-20 -14 -45 -24q-37 -16 -58 -23l-61 -18l-24.5 -8.5t-28.5 -8.5l-39 41l123 193l108 176l97 164l88 157l86 158l88 166h-420 q-8 0 -29 -4q-16 -4 -35 -19q-23 -20 -41 -47q-29 -47 -51 -92z" />
<glyph unicode="8" horiz-adv-x="931" d="M33 250q0 61 26 121q25 55 68 104q41 47 98 88q53 39 113 70q-18 10 -66 43q-35 25 -53 51q-23 33 -37 70t-14 92q0 72 35 137q33 61 92 109q58 46 135 73q74 27 164 27q77 0 135 -18q61 -18 94 -47t54 -74q18 -43 18 -94.5t-23 -96.5q-22 -43 -55 -80q-35 -39 -76 -67 l-84 -58q37 -20 76 -49q37 -27 64 -63q29 -37 43 -82q16 -49 16 -109q0 -86 -39 -161q-41 -80 -104 -138q-68 -61 -152 -94q-88 -35 -176 -35q-86 0 -158 23q-63 20 -108 61q-43 41 -66 90q-20 48 -20 107zM276 274q0 -45 13 -77q12 -35 30 -56q23 -27 48 -37q27 -12 59 -12 q43 0 78 23q33 20 59 57q29 39 39 80q12 47 12 90q0 51 -14 86q-16 41 -39 66q-27 29 -57 49q-45 29 -70 41q-39 -35 -63 -66q-33 -41 -52 -72q-20 -33 -32 -79q-11 -36 -11 -93zM385 940q0 -37 14 -63q18 -33 37 -50q29 -25 56 -41l34.5 -18l30.5 -16q49 43 78 94 q31 55 31 129q0 68 -35 106q-33 37 -96 37q-33 0 -60 -14q-23 -12 -47 -41q-14 -16 -31 -57q-12 -31 -12 -66z" />
<glyph unicode="9" horiz-adv-x="931" d="M82 45q117 27 213 72q88 41 158 104q66 59 110 139q43 76 68 175q-57 -53 -117 -82q-63 -31 -135 -31t-125 24q-55 27 -86 66q-37 49 -51 96q-16 59 -17 117q0 55 17 121q14 55 47 119q27 51 74 104q41 47 96 86q53 39 115 59q59 20 126 21q72 0 136 -23 q61 -22 104 -67.5t67.5 -116.5t24.5 -166q0 -170 -53 -325q-51 -150 -154 -275q-100 -121 -254 -203q-152 -80 -352 -102zM334 770q0 -63 10 -94q12 -37 30.5 -61.5t43 -35t43.5 -10.5q55 0 104 31q53 33 90 76q8 74 9 176q0 68 -11 123q-10 51 -26.5 79.5t-42.5 41.5 q-25 12 -54 12q-55 0 -94 -33q-41 -35 -61 -80q-25 -55 -33 -110.5t-8 -114.5z" />
<glyph unicode=":" horiz-adv-x="477" d="M43 84q0 27 14 66q12 34 37 61q25 29 59.5 47t77.5 18q59 0 91 -30q29 -29 28 -78q0 -39 -10 -70q-12 -35 -36.5 -63.5t-59.5 -47t-78 -18.5q-65 0 -92 31q-31 35 -31 84zM139 768q0 31 13 66q12 33 38 63q25 27 58 45q35 18 78 19q59 0 90 -31q29 -29 28 -78 q0 -34 -12 -68q-14 -41 -35 -63q-27 -31 -57 -47q-34 -18 -80 -19q-65 0 -92 31q-29 33 -29 82z" />
<glyph unicode=";" horiz-adv-x="477" d="M-12 -324q70 74 114 162q39 78 39 139q0 18 -6 37q-4 12 -20 33q-12 16 -35 23q-25 6 -51 4l-4 78q10 8 32 20q14 8 47 25q8 4 28 11t28 11q18 8 55 21q10 4 29.5 9t21.5 5q14 4 37 4q25 -12 33 -20.5t20 -28.5q12 -18 15 -39q4 -29 4 -53q0 -45 -15 -88q-16 -51 -38 -92 q-27 -49 -60 -95q-45 -61 -69 -88q-37 -40 -74 -73q-23 -20 -74 -54zM139 768q0 27 15 66q14 37 36 63q23 25 60 45q33 18 78 19q59 0 90 -31q29 -29 28 -78q0 -34 -12 -68q-14 -41 -35 -63q-27 -31 -57 -47q-34 -18 -80 -19q-61 0 -92 31t-31 82z" />
<glyph unicode="&#x3c;" horiz-adv-x="884" d="M57 526q2 8 11 29q2 8 6 16.5l8 16.5l8 16t6 17q4 8 7 15t6 11l716 273l27 -31l-49 -129l-504 -193l459 -192l16 -43l-51 -47q-31 -27 -57 -43l-584 243z" />
<glyph unicode="=" horiz-adv-x="884" d="M43 373q2 4 5 12t5 12q4 10 17 31l16 33q2 4 7 12t7 12h672l27 -30q-2 -4 -6.5 -14.5t-6.5 -14.5q-4 -10 -16 -31l-16 -33q-10 -18 -13 -22h-673zM84 672q2 6 10 26l8 15.5t9 15.5l16 31q2 4 7 12t7 12h672l27 -30l-6.5 -13.5l-6.5 -13.5q-6 -16 -16 -33q-8 -16 -16 -30 q-9 -15 -13 -25h-673z" />
<glyph unicode="&#x3e;" horiz-adv-x="884" d="M27 274q0 2 4 11.5t6 15.5q6 18 14 39q12 31 14.5 37l6.5 15t4 11l504 191l-461 192l-15 43l50 45q37 33 57 46l584 -244l24 -41q-2 -4 -5 -14.5t-5 -16.5q-2 -8 -6 -15t-8 -16q-2 -4 -6.5 -16t-6.5 -16l-8 -15.5l-6 -11.5l-717 -272z" />
<glyph unicode="?" horiz-adv-x="876" d="M147 1067q0 66 33 129q35 66 94 117q61 51 144 84q84 33 188 33q70 0 123 -19q55 -20 90 -51q37 -33 55 -78q18 -43 19 -96q0 -82 -29 -150q-23 -53 -73 -118q-47 -61 -94.5 -102.5t-98.5 -96.5q-55 -59 -82 -101q-33 -51 -43 -118l-10 -88q-16 -14 -49 -27 q-8 -4 -26.5 -11t-29.5 -12l-22 23l4 123q4 70 25 117q27 59 57 104q45 66 72 96q16 18 71 95q34 46 56 98q20 49 20 110q0 51 -6 76q-9 37 -25 62q-14 23 -40.5 39t-57.5 16q-33 0 -57 -18q-23 -16 -39 -50q-15 -31 -19 -73q-2 -41 6 -88l-53 -21l-61 -18q-20 -6 -62 -15 q-47 -10 -53 -10zM211 84q0 31 12 66q10 31 39 61q27 31 57 47q33 18 78 18q59 0 90 -30.5t31 -77.5q0 -33 -12 -70q-12 -35 -37 -63q-27 -31 -57 -47q-34 -18 -80 -19q-61 0 -92 31q-29 29 -29 84z" />
<glyph unicode="@" horiz-adv-x="1693" d="M63 225q-16 115 3 240q16 111 59 221q47 117 106 205q59 86 152 176q90 88 184 141q101 58 215 92q111 33 238 33q137 0 262 -53q127 -53 207 -152q86 -104 121 -245q37 -150 10 -334q-12 -90 -45 -164t-82 -143q-43 -61 -102 -117q-53 -51 -113 -90q-53 -37 -109 -55 q-57 -20 -92 -21q-10 0 -35 10q-20 8 -38 33q-23 31 -37 70q-16 47 -23 114q-25 -43 -59.5 -84t-71.5 -71q-43 -35 -74 -51q-41 -20 -73 -21q-34 0 -74 18.5t-74 61.5q-39 49 -57 106q-23 68 -23 160q0 76 18.5 154t55.5 145q41 74 90 129q51 57 125 109q18 12 64 35 q37 18 73 30q18 6 76 21q33 8 72 8q37 0 78 -18q49 -23 71 -37q10 4 33 14t33 14l33.5 15.5l23.5 11.5l33 -66q-25 -20 -29 -24q-14 -14 -20 -25q-10 -18 -17 -37q-12 -41 -14 -55q-8 -37 -27 -139l-20 -123q-8 -53 -12 -100q-4 -57 -4 -66q0 -72 18 -106q18 -33 40.5 -33 t51.5 22q18 14 49 68q20 37 45 108q20 59 33 150q25 172 -2 295q-29 127 -96 211q-70 86 -162 127q-90 41 -209 41q-82 0 -158 -25q-72 -23 -143.5 -72t-122.5 -108q-63 -76 -100 -139q-41 -72 -72 -160q-31 -86 -43 -176q-16 -113 -4 -221q12 -100 49 -180t92 -142 q53 -59 123 -100q57 -35 148 -60q74 -20 157.5 -20t159.5 20q72 18 150 54q66 29 122 63q59 35 89 59l30 -92q-35 -35 -100 -84q-49 -37 -143 -84q-70 -35 -179 -65q-94 -27 -206 -27q-117 0 -218 27q-111 29 -190 78q-92 55 -154 123q-66 72 -110 167q-40 82 -56 205z M666 379q0 -59 8 -98q10 -45 20 -70q12 -27 26.5 -41t31.5 -14q31 0 82 51q47 47 112 147q12 80 15 97l16 106q4 29 9 55.5l9 46.5q4 31 15 80q-29 25 -54 39q-29 16 -55 17q-41 0 -74 -21q-39 -25 -59 -53q-31 -43 -45 -76q-25 -57 -33 -88q-12 -46 -18 -92t-6 -86z" />
<glyph unicode="A" horiz-adv-x="1193" d="M-49 0l8 74q61 12 100 24q37 12 50 43l466 1063q16 14 54 39q6 4 59 31q29 14 60 24q37 12 53 19l227 -1176q2 -14 8 -24q6 -12 17 -21q4 -4 30 -12q23 -8 50 -10l-9 -74h-460l10 74q80 6 100 18q29 16 23 49l-56 287h-370l-127 -287q-12 -33 16.5 -45t104.5 -22l-11 -74 h-403zM424 551h295l-90 471z" />
<glyph unicode="B" horiz-adv-x="1087" d="M-8 0l6 74q65 15 98 30q33 14 35 29l145 1034q-12 -2 -37.5 -5t-38 -5t-36 -7t-31.5 -7v84q106 29 215 45q119 18 260 18q206 0 307 -67q102 -68 103 -183q0 -106 -64 -188q-66 -84 -186 -129q59 -10 102 -35q51 -31 82 -70q35 -45 53.5 -96t18.5 -112q0 -102 -41 -179 q-45 -84 -115 -139q-72 -55 -170 -90q-96 -33 -206 -33h-50q-20 0 -65 4q-23 2 -72 7q-12 0 -36.5 2t-37.5 2q-41 2 -180 16h-59zM365 133q-2 -8 14 -20q35 -18 72 -25q27 -4 82 -4t104 22q47 23 78 62q33 43 47 92q16 55 16 115q0 51 -12 96q-12 49 -39 84q-27 37 -70 57 q-45 23 -108 23q-35 0 -68 -4q-16 -2 -49 -10zM449 739h32q43 0 105 15q43 10 94 43q41 27 68 75q25 45 24 115q0 51 -20.5 92t-49.5 62q-37 25 -65 33q-41 10 -72 10h-28h-27z" />
<glyph unicode="C" horiz-adv-x="1038" d="M61 459q0 98 21 192q23 104 59 189q39 92 103 176q61 84 145 151q41 31 82 52q49 25 92 38q45 14 96 25q43 8 97 8q55 0 98 -8q33 -6 90 -22q41 -12 76 -31q56 -31 56 -42q0 -4 -5 -16q-10 -27 -16 -36q-2 -4 -10.5 -19.5t-14.5 -25.5q-20 -33 -31 -48q-14 -23 -28 -41 q-14 -20 -23 -26l-59 14q-20 41 -33 62q-18 31 -47 53q-37 29 -59 37q-34 12 -74 12q-47 0 -78 -10q-39 -12 -78 -43q-59 -45 -104 -123q-43 -76 -68 -156q-27 -90 -35 -162q-12 -106 -12 -143q0 -106 28.5 -182t71.5 -119t93 -61q55 -20 94 -21q23 0 57 6q29 6 74 23 q31 12 90 45q68 39 113 72q4 -2 10 -13l10 -20l8 -23q3 -9 6 -12q-61 -61 -133 -113q-66 -47 -125 -73q-57 -27 -116 -39q-55 -12 -103 -13q-88 0 -162 33q-76 33 -133 94q-55 57 -90 152q-33 86 -33 207z" />
<glyph unicode="D" horiz-adv-x="1206" d="M-8 0l10 74q59 14 96 30q35 16 37 29l141 1026l-141 -20v94q61 16 121 24l127 17q10 0 54 5t69 7q82 4 110 4q144 0 252 -37q102 -35 176 -108q72 -72 105 -168t33 -223q0 -94 -21 -179q-23 -94 -61 -174q-41 -86 -99 -157q-55 -70 -131 -127q-72 -53 -165 -86 q-90 -31 -193 -31h-520zM375 162q-4 -29 22 -41q33 -14 103 -15q72 0 127 27q61 29 106 72q51 47 86 106q37 61 62 129q25 66 37 144q12 74 12 143q0 109 -21 191q-23 90 -63 145q-45 59 -111 90q-68 31 -164 31q-6 0 -14 -1t-14 -1t-16.5 -1t-14.5 -1z" />
<glyph unicode="E" horiz-adv-x="1007" d="M-8 0l10 74q70 16 100 30q33 14 35 29l137 991q2 10 -26 31q-25 16 -92 33l10 72h815l33 -31l-7.5 -30.5t-7.5 -35.5l-18 -80q-4 -10 -11 -36.5t-12 -40.5q-14 -43 -20 -56h-70q4 36 4 66q0 45 -8 76q-12 49 -47 49h-309l-57 -406h368l29 -35q-4 -6 -12.5 -17t-10.5 -15 l-14 -18.5t-14 -20.5q-2 -2 -12.5 -15.5t-16.5 -19.5l-9 -9t-8 -9.5t-8 -6.5q-14 18 -28 27q-18 10 -37 16q-27 8 -51 11q-20 2 -74 2h-117l-59 -441q-4 -16 2 -26.5t24 -20.5q18 -9 56 -12q49 -4 98 -4h92q47 0 74 10q37 14 57 35q23 23 49 65q29 47 54 99l63 -27 q-4 -16 -9 -39.5l-11 -50.5l-23 -90l-11 -44t-9 -32q-6 -18 -17 -47h-874z" />
<glyph unicode="F" horiz-adv-x="952" d="M-8 0l10 74q70 16 100 30q33 14 35 29l137 991q2 10 -26 31q-25 16 -92 33l10 72h825l31 -31q0 -8 -14 -66l-19 -80q-8 -33 -22 -77l-19 -56h-71q4 44 4 77q0 39 -7 65q-12 49 -49 49h-317l-57 -406h335l29 -35q-10 -16 -24 -36q-16 -25 -27 -37q-4 -6 -14.5 -16.5 t-14.5 -16.5q-12 -15 -24 -25q-14 18 -29 27q-18 10 -37 16q-29 8 -47 10.5t-66 2.5h-96l-67 -492q0 -6 6 -12q10 -10 22 -15l47 -16q8 -2 72 -16l-8 -74h-516z" />
<glyph unicode="G" horiz-adv-x="1118" d="M61 487q0 100 21 189q23 94 61 176q41 84 94.5 155.5t120.5 129.5q37 31 91 63q45 27 102 49.5t115 30.5q68 10 135 10q23 0 80 -8q43 -6 86 -18q35 -10 84 -33q39 -18 63 -43q6 -6 0 -19q-10 -27 -16 -36q-16 -29 -27 -46q-6 -10 -14 -22l-17 -25q-10 -14 -30 -39 q-10 -12 -25 -26l-57 12q-18 39 -41 70q-23 33 -51 55q-35 29 -70 39q-41 12 -88 12q-49 0 -94 -22q-53 -27 -101 -74q-35 -33 -71 -98q-35 -63 -60 -138q-23 -70 -39 -151q-14 -74 -14 -150q0 -102 29 -182q27 -74 71 -125q43 -49 97 -71q59 -25 106 -25q29 0 74 10t76 33 l41 295q0 14 -2 20q-4 12 -25 20.5t-66 18.5q-66 14 -116 23l6 74h534l-6 -74q-53 -14 -78 -37q-23 -20 -26 -45q-2 -10 -5 -34.5t-5 -35.5q-2 -14 -5.5 -42.5t-5.5 -43t-5 -41t-5 -41t-4 -34t-2 -23.5q-72 -57 -141 -100q-63 -39 -121 -62q-53 -20 -103 -31q-41 -8 -88 -8 q-96 0 -174 35q-86 39 -149 105q-66 70 -103 163q-37 95 -37 215z" />
<glyph unicode="H" horiz-adv-x="1304" d="M-8 0l10 74q70 16 100 30q33 14 35 29l137 991q2 10 -26 31q-25 16 -92 33l10 72h485l-10 -72q-68 -16 -98 -33q-35 -18 -37 -31l-55 -403h479l55 403q3 12 -24 31q-25 16 -93 33l9 72h487l-10 -72q-68 -16 -99 -33q-35 -18 -36 -31l-138 -991q-2 -10 27 -29 q20 -14 92 -30l-8 -74h-487l10 74q65 15 98 30q35 16 37 29l63 467h-481l-61 -467q-2 -10 24 -29q18 -12 94 -30l-10 -74h-487z" />
<glyph unicode="I" horiz-adv-x="630" d="M12 0l11 74q65 15 98 30q35 16 37 29l135 991q3 12 -25 31q-25 16 -94 33l10 72h488l-10 -72q-72 -16 -101 -33q-35 -18 -37 -31l-135 -991q-2 -10 25 -29q18 -12 94 -30l-10 -74h-486z" />
<glyph unicode="J" horiz-adv-x="636" d="M-340 -301q0 2 12 22q4 6 13.5 16.5t13.5 14.5q15 18 37 37q6 6 19.5 17.5t19.5 17.5q16 12 35 24q16 10 24 11q9 0 25 -13q4 -2 15 -13t20 -17q33 -25 47 -31q25 -12 57 -12q25 0 49 12q27 14 51 49q20 31 45 111q25 82 39 188l135 991q0 10 -4 14.5t-24 14.5 q-10 6 -51 16q-39 10 -86 19l10 72h534l-12 -72q-63 -14 -98 -33q-35 -16 -37 -31l-123 -919q-14 -106 -47 -191q-29 -78 -72 -135q-41 -55 -84 -96q-35 -33 -86 -72q-33 -25 -61 -41l-74 -35q-25 -10 -74 -22q-33 -8 -67 -8q-33 0 -74 10q-35 8 -63 25q-25 14 -46 30 q-18 15 -18 29z" />
<glyph unicode="K" horiz-adv-x="1204" d="M-8 0l10 74q70 16 100 30q33 14 35 29l137 991q2 10 -26 31q-25 16 -92 33l10 72h485l-10 -72q-68 -16 -98 -33q-35 -18 -37 -31l-64 -465l410 439q4 4 35 43q12 14 8 24.5t-25 14.5q-43 8 -55 8l10 72h416l-8 -72q-12 -2 -31.5 -5t-21.5 -3q-20 -2 -39 -11l-31 -18 q-10 -6 -31 -27l-461 -448l353 -473q12 -18 33 -25q29 -8 47 -8q16 0 53 8q28 6 55 19l29 -70q-35 -29 -76 -51q-14 -8 -88 -45q-37 -18 -84 -33q-39 -12 -59 -12q-29 0 -50 10q-16 8 -36 39l-359 590l-65 -492q-2 -10 24 -29q18 -12 94 -30l-10 -74h-487z" />
<glyph unicode="L" horiz-adv-x="991" d="M-8 0l10 74q70 16 100 30q33 14 35 29l137 991q2 10 -26 31q-25 16 -92 33l10 72h485l-10 -72q-68 -16 -98 -33q-35 -18 -37 -31l-129 -931q-4 -18 4 -33q6 -14 25 -23q18 -10 51 -12q45 -4 84 -4h102q49 0 74 10q37 14 57 35q23 23 49 65q20 33 51 99l64 -27 q-14 -68 -20 -90l-23 -90l-11 -44t-10 -32l-16 -47h-866z" />
<glyph unicode="M" horiz-adv-x="1605" d="M6 0l8 74q70 16 101 30q35 16 37 29l147 1020q-31 20 -61 27q-45 8 -60 8l10 72h322q10 0 14 -3q8 -4 15 -12q4 -6 12 -26q2 -6 6 -20.5t6 -22.5l230 -832l456 832q20 39 27 45q2 4 9 13t11 13q6 6 15 10q4 2 16 3h313l-8 -72q-10 0 -55 -8q-37 -6 -68 -21l-127 -1026 q-2 -10 29 -29q20 -12 98 -30l-10 -74h-481l10 74q59 14 102 30q39 14 41 29l103 821l-524 -954h-86l-261 954l-120 -821q-2 -10 26 -29q20 -14 92 -30l-8 -74h-387z" />
<glyph unicode="N" horiz-adv-x="1263" d="M-2 0l10 74q72 10 101 26q31 18 32 33l135 981q-53 61 -118 74l10 72h256q18 0 25 -3q12 -4 18 -10q8 -6 16 -22l23 -43l452 -852l109 794q0 10 -2 15q-6 9 -18 18q-6 6 -37 17q-20 8 -60 14l8 72h392l-9 -72q-72 -10 -102 -29q-29 -18 -33 -35l-159 -1155 q-88 10 -138 37q-53 31 -73 74l-447 842l-108 -789q0 -8 4 -14q6 -8 18 -17l10 -5t14.5 -6l14.5 -5q8 -4 57 -12l-10 -74h-391z" />
<glyph unicode="O" horiz-adv-x="1171" d="M76 485q0 76 12 146q12 66 35 139q23 72 55 131q34 61 74 117q57 74 92 106q57 53 111 86q59 35 131 58q74 23 149 22q104 0 187 -41q76 -39 131 -112.5t77 -163.5q25 -96 25 -199q0 -70 -12 -143q-10 -63 -39 -146q-25 -68 -62 -137q-33 -61 -81 -123q-43 -55 -95 -100 q-59 -51 -110 -82q-49 -29 -123 -53q-61 -20 -131 -21q-100 0 -183 41q-76 39 -133 111q-53 68 -81.5 166t-28.5 198zM317 532q0 -90 17 -172q14 -76 47 -133q33 -59 76 -88q46 -31 104 -30q61 0 115 30q49 29 90 80q40 49 68 117q31 72 47 139q20 78 28 146q8 66 9 135 q0 80 -17 157q-14 72 -47 129q-29 51 -78 84q-47 31 -106.5 31t-110.5 -29q-49 -29 -90 -77q-43 -53 -68 -111q-31 -74 -47 -133q-20 -78 -28.5 -141.5t-8.5 -133.5z" />
<glyph unicode="P" horiz-adv-x="1062" d="M-8 0l10 74q59 14 96 30q35 16 37 29l141 1028l-69 -12q-49 -8 -74 -14v90q41 12 107 26q43 10 118 21q84 12 121 14q82 4 119 4q111 0 207 -22q86 -20 153 -66q61 -41 97 -108q33 -63 32 -152q0 -86 -36 -162q-39 -82 -99 -135q-59 -55 -147 -90q-86 -35 -176 -35 q-33 0 -78 10q-37 8 -66 25l-16 102q16 -8 61 -22q31 -10 62 -10q55 0 106 20q46 18 80 55q33 35 51 88q16 47 17 117q0 82 -25 137q-25 53 -65 86q-39 31 -97 43q-55 12 -110 13h-17h-16l-145 -1051q-2 -6 4 -12t22 -15q12 -6 47 -16q8 -2 78 -16l-10 -74h-520z" />
<glyph unicode="Q" horiz-adv-x="1198" d="M76 485q0 76 12 146q12 66 35 139q23 72 55 131q34 61 74 117q57 74 92 106q57 53 111 86q59 35 131 58q74 23 149 22q104 0 187 -41q76 -39 131 -112.5t77 -163.5q25 -96 25 -199q0 -70 -12 -143q-10 -63 -39 -146q-25 -68 -62 -137q-33 -61 -81 -123q-43 -53 -107 -110 q-57 -51 -127 -86q53 -23 96 -49l88 -52q29 -16 82 -41q35 -16 82 -16q16 0 25 2q2 0 26 10q18 8 37 21l51 37l39 -66q-25 -37 -59 -80q-20 -25 -59 -63q-27 -27 -54 -43q-23 -14 -37 -15q-43 0 -83 15q-37 12 -82 41q-45 27 -80 57l-80 66l-78 65q-31 25 -82 55 q-10 -2 -29 -2q-6 0 -14 -1t-14 -1q-100 0 -183 41q-76 39 -133 111q-53 68 -81.5 166t-28.5 198zM317 532q0 -90 17 -172q14 -76 47 -133q33 -59 76 -88q46 -31 104 -30q61 0 115 30q49 29 90 80q40 49 68 117q31 72 47 139q20 78 28 146q8 66 9 135q0 80 -17 157 q-14 72 -47 129q-29 51 -78 84q-47 31 -106.5 31t-110.5 -29q-49 -29 -90 -77q-43 -53 -68 -111q-31 -74 -47 -133q-20 -78 -28.5 -141.5t-8.5 -133.5z" />
<glyph unicode="R" horiz-adv-x="1144" d="M-8 0l10 74q65 15 98 30q33 14 35 29l139 1028l-73 -12q-37 -6 -68 -12v90q51 14 100 24q41 8 117 21q12 2 127 12q68 6 135 6q106 0 187 -20q84 -23 139 -62q53 -39 86 -100q29 -55 29 -137q0 -49 -21 -103q-18 -47 -63 -106q-37 -47 -100.5 -92t-139.5 -66l221 -391 q15 -25 31 -37q14 -12 35 -14q18 -2 49 4q35 8 70 18l24 -67q-53 -33 -84 -49q-51 -27 -88 -43q-51 -23 -76 -29q-37 -10 -47 -10q-12 0 -32.5 4t-34.5 18q-18 18 -33 41q-20 33 -33 68l-178 465q-41 0 -61.5 2t-57.5 10l-61 -461q-2 -10 28 -29q23 -14 95 -30l-11 -74h-493 zM449 705q14 -6 47 -11q14 -2 49 -2q47 0 100 17q43 14 86 49q37 31 60 78q23 49 22 106q0 74 -25 121q-27 49 -59 74q-37 27 -82 37q-47 10 -86 10h-22h-25z" />
<glyph unicode="S" horiz-adv-x="974" d="M25 123q0 4 8 29q2 8 20 38q8 14 29 43q10 14 31 39q15 18 30 31q12 10 27 10q10 0 23 -14q4 -6 15 -18.5t17 -18.5l17.5 -22.5t21.5 -26.5q18 -25 51 -49q28 -22 62 -37q37 -16 78 -16q45 0 90 16q39 14 73 45q33 31 52 72q18 43 18 94q0 45 -14 80q-18 43 -47 71 q-34 34 -86 68q-51 33 -127 70q-70 33 -111 65.5t-67 71.5q-23 35 -33 78q-10 45 -10 86q0 68 32.5 131t96.5 117q57 49 149 81.5t197 32.5q90 0 170 -28q126 -45 125 -67q0 -1 -2 -15q-2 -12 -13 -35l-12 -23.5t-12 -21.5q-4 -10 -14.5 -25.5t-12.5 -19.5 q-12 -22 -24.5 -37.5t-18.5 -18.5l-59 7q-12 43 -33 71q-23 31 -47 53q-25 22 -56 31q-35 10 -59 10q-49 0 -88 -16q-43 -18 -63.5 -38.5t-34.5 -57.5q-12 -31 -13 -64q0 -23 7 -47q6 -23 28 -49q16 -20 64 -55q39 -29 106 -64q51 -27 137 -80q53 -35 95 -77q33 -35 53 -88 q18 -47 18 -103q0 -90 -41 -176q-41 -84 -112 -150q-68 -61 -168 -100q-96 -37 -207 -37q-34 0 -74 6q-27 4 -80 17q-37 8 -75 24q-43 18 -66 33q-18 12 -43 37q-18 19 -18 37z" />
<glyph unicode="T" horiz-adv-x="1107" d="M94 958q2 8 5 27t10 43q4 20 22 84l23 82q4 12 9 34.5t9 31.5h991l31 -31q-2 -12 -14 -64l-19 -78l-20 -77l-11.5 -38l-9.5 -32h-69q-4 61 -4 84q0 14 -7 63q-2 25 -14 39q-10 14 -31 15h-227l-135 -996q0 -8 4 -14q6 -10 20 -18q23 -14 43 -21q28 -9 68 -18l-10 -74 h-520l8 74q51 10 73 18q31 10 48 19q12 6 24 18q10 10 10 16l136 996h-234q-12 0 -26.5 -10.5t-30.5 -36.5q-12 -18 -37 -66q-8 -18 -22.5 -41.5t-28.5 -54.5z" />
<glyph unicode="U" horiz-adv-x="1267" d="M162 1188l8 72h481l-10 -72q-63 -14 -96 -33q-35 -18 -37 -31l-88 -614q-2 -10 -4 -28.5t-4 -28.5q-2 -18 -2 -56q0 -139 61 -211q61 -70 186 -69q66 0 113 26q51 29 84 74q37 49 57.5 112.5t30.5 139.5l92 655q0 8 -4 15q-4 4 -18 16q-4 4 -35 16q-25 10 -53 17l10 72 h401l-10 -72q-66 -16 -94 -33q-31 -18 -33 -31l-88 -612q-18 -137 -66 -233q-53 -109 -116 -170q-72 -70 -158 -105q-84 -35 -186 -35q-84 0 -158 24.5t-129 74t-88 118.5q-35 74 -35 162q0 47 10 115l95 661q3 12 -25 31q-24 17 -92 33z" />
<glyph unicode="V" horiz-adv-x="1245" d="M125 1188l8 72h473l-8 -72q-74 -6 -102 -23q-25 -14 -19 -43l185 -837l391 835q14 31 -13 43q-33 16 -98 25l10 72h400l-11 -72q-53 -10 -102 -27q-37 -12 -49 -41l-492 -1038q-8 -20 -32 -39q-23 -16 -52 -33q-27 -14 -59 -24l-24.5 -8.5t-28.5 -8.5l-262 1151 q-6 27 -33 43q-25 17 -82 25z" />
<glyph unicode="W" horiz-adv-x="1593" d="M115 1188l10 72h450l-8 -72q-31 -4 -71 -14q-25 -6 -39.5 -16.5t-16.5 -18.5q-2 -6 -2 -23l58 -731l391 875h94l188 -875l250 739q4 12 -6 23q-8 8 -27 14q-4 2 -12 5l-15 5.5t-16 4.5q-16 4 -57 12l8 72h414l-8 -72q-78 -18 -113 -31q-33 -12 -39 -33l-356 -1065 q-10 -23 -27 -36q-23 -18 -41 -27q-25 -10 -45 -16q-33 -10 -37 -11l-192 908l-377 -818q-8 -20 -29 -36q-14 -12 -43 -25q-39 -16 -45 -18q-29 -8 -41 -11l-84 1147q-4 27 -26 41q-31 21 -90 31z" />
<glyph unicode="X" horiz-adv-x="1210" d="M-35 0l10 74q61 6 105 24q41 18 74 60l352 473l-236 473q-12 23 -22 35q-12 14 -25 22q-14 8 -35 15l-51 12l10 72h500l-8 -72q-78 -8 -107 -25q-16 -9 -15 -26q0 -14 9 -33l152 -305l219 305q18 25 21 37q3 15 -7 24q-8 8 -32 15q-18 4 -66 8l10 72h420l-10 -72 q-27 -2 -62 -10q-18 -4 -47 -17q-25 -10 -39 -22q-20 -16 -32 -35l-314 -428l260 -518q8 -18 23 -37q10 -12 27 -23q20 -12 32.5 -16t46.5 -8l-10 -74h-493l10 74q37 2 67 10q27 6 39 16q10 8 11 23q0 10 -11 35l-172 346l-260 -346q-10 -12 -20 -37q-6 -14 4 -25 q8 -8 33 -14q20 -4 65 -8l-10 -74h-416z" />
<glyph unicode="Y" horiz-adv-x="1169" d="M119 1165l4 72q14 2 29.5 6t33.5 6q12 2 36 5t36 6l70 8q41 4 51 4q23 0 47.5 -12.5t36.5 -34.5q23 -39 57 -117l62 -139q33 -78 55 -150l45 -141l279 442q18 27 -5 43q-22 15 -92 25l10 72h388l-11 -72q-12 -2 -31.5 -8t-23.5 -6q-16 -4 -41 -13q-8 -2 -29 -18 q-8 -6 -20 -23l-379 -598l-51 -377q0 -8 4 -14q6 -10 20 -18q23 -14 43 -21q33 -10 68 -18l-8 -74h-524l10 74q45 10 71 18q31 10 47.5 18.5t26.5 18.5q8 8 8 16l54 387q-33 119 -50 162l-61 164q-27 72 -66 148q-34 68 -61 116q-6 12 -14 20.5t-25 14.5q-4 2 -39 6 q-16 2 -61 2z" />
<glyph unicode="Z" horiz-adv-x="1062" d="M16 53l768 1080h-362q-15 0 -37 -19q-25 -20 -43 -47q-29 -41 -45 -74q-25 -47 -41 -96l-78 18l84 365q6 -2 21.5 -6l23.5 -6q4 0 18.5 -3t20.5 -3t19.5 -1t21.5 -1h49h623l22 -52l-762 -1079h424q16 0 37 16.5t37 44.5q12 18 39 78l47 109l78 -21q-6 -33 -14 -82 l-17 -100l-16 -98q-8 -43 -12 -76h-879z" />
<glyph unicode="[" horiz-adv-x="722" d="M49 -336l273 1935h469l32 -32q-2 -8 -10 -29q-10 -27 -14 -33l-15 -28q-2 -4 -7 -11.5t-5 -9.5h-260l-227 -1646h256l34 -37l-8 -25q-6 -14 -14 -30.5t-14 -30.5q-4 -10 -13 -23h-477z" />
<glyph unicode="\" horiz-adv-x="856" d="M137 1571l45 28l17.5 -6l17.5 -6q37 -10 47 -14q16 -6 45 -19q18 -8 33 -18l385 -1839l-43 -33q-10 4 -33 12l-49 19q-33 12 -47 18q-25 10 -31 17z" />
<glyph unicode="]" horiz-adv-x="675" d="M-86 -299q0 2 10 27q2 6 7.5 16t7.5 16l14 29l10 21h262l234 1646h-254l-37 35q4 16 8 27q2 6 7 16l7 14l13 29q4 10 12 22h473l-270 -1935h-467z" />
<glyph unicode="^" horiz-adv-x="937" d="M94 592l422 870q12 12 31 25l37 24q25 16 37 23l32 16l201 -915q-37 -29 -53 -39q-27 -16 -58 -31l-30 27l-160 723l-330 -680q-2 0 -11 -8.5t-15 -12.5q-4 -4 -14.5 -10t-16.5 -10q-25 -14 -29 -16q-14 -8 -24 -13z" />
<glyph unicode="_" horiz-adv-x="919" d="M-31 -242q2 4 5 12.5t6 12.5q6 14 14 31q2 6 8 16t8 14l17 25h739l25 -33q0 -2 -11 -26q-6 -14 -14 -31t-16 -31l-13 -24h-743z" />
<glyph unicode="`" horiz-adv-x="604" d="M205 1382l41 52q4 0 17 2t24 4q29 6 61 12l62 10q41 4 43 4l125 -411q-29 -16 -43 -23q-20 -8 -41 -12z" />
<glyph unicode="a" d="M39 305q0 88 18 154q20 76 60 145q37 68 92 129q49 53 127 109q20 14 59 35q35 18 70 30q25 8 78 21q35 8 82 8q43 0 82 -18q41 -18 75 -41q12 8 39 18t31 12q43 18 59 29l31 -66q-12 -10 -26.5 -24.5t-20.5 -24.5q-8 -12 -14 -37q-6 -22 -13 -55q-8 -37 -26 -139 l-21 -123q-8 -53 -12 -100q-4 -57 -4 -66q0 -72 14 -113q16 -45 37 -45t45 7q33 8 64 22l16 -66l-84 -57l-78 -47l-65 -31q-29 -12 -45 -12q-20 0 -39 10q-25 14 -41 39q-20 31 -35 74q-14 41 -21 117q-29 -41 -69 -88q-37 -43 -76 -76q-45 -37 -80 -55q-41 -20 -82 -21 q-37 0 -76 18q-40 18 -73 62q-35 43 -56 106q-22 68 -22 160zM264 379q0 -59 8 -98q8 -37 23 -70q10 -25 31 -41q16 -14 36 -14q33 0 91 57q55 55 131 166q8 57 12 90l16 94q10 57 15 88q6 43 12 74q-14 14 -61 47q-33 23 -64 23q-41 0 -76 -23q-45 -29 -63 -51 q-25 -29 -47.5 -76t-34.5 -90q-16 -63 -21 -90q-8 -61 -8 -86z" />
<glyph unicode="b" horiz-adv-x="1019" d="M90 1395q68 31 103 45l106 39q57 20 94 30.5t62 10.5q33 0 45 -18.5t12 -63.5q0 -35 -10 -121q-10 -82 -25 -176q-4 -23 -14 -93.5t-17 -111.5l-34 -215q49 66 96 108q43 39 88 66q43 25 76 33t63 8q49 0 90 -20.5t72 -63.5q33 -45 49 -102q18 -61 19 -140 q-4 -111 -45 -215t-119 -207q-23 -31 -78 -86q-41 -41 -96 -73q-59 -35 -111 -52q-57 -18 -121 -18q-37 0 -82 23q-51 27 -92 63q-49 47 -76 90q-31 53 -30 105q0 27 6 79q14 115 14 121l23 150l24 164q6 43 13.5 85t13.5 81l22 153q14 119 17 127q6 55 6 86q0 25 -6 37 q-10 18 -12 20q-6 4 -19 9q-6 2 -16 2q-4 0 -12.5 -3t-12.5 -3q-20 -4 -31 -9q-6 -2 -18 -7t-18 -7zM358 301q0 -25 17 -53q15 -28 37 -49q16 -16 49 -37q27 -16 47 -17h10q43 0 76 25q35 27 63 68q14 18 33 65q12 27 23 76q10 41 12 78q4 53 4 73q0 51 -6 95q-6 37 -23 71 q-14 27 -34 45q-20 16 -43 17q-16 0 -39 -15q-33 -20 -56 -43q-45 -45 -69 -77q-47 -63 -78 -115q-14 -102 -16 -123q-7 -53 -7 -84z" />
<glyph unicode="c" horiz-adv-x="872" d="M72 322q0 74 14 137q16 74 45 133q29 61 82 127q43 53 125 108q31 20 63 37q45 23 80 35q57 20 86 27q47 10 86 10q47 0 78 -14q45 -20 66 -33q16 -10 30.5 -21.5t24.5 -17.5q27 -18 53 -27l-49 -47q-18 -18 -59 -51q-37 -31 -58 -41q-27 -14 -43 -14t-32 18 q-31 39 -35 43q-18 25 -43 43q-27 20 -54 21q-53 0 -96 -37t-71.5 -96.5t-42.5 -131.5q-14 -70 -15 -143q0 -59 10 -115q8 -39 31 -86q16 -31 45 -53q25 -18 58 -18q53 0 129 39q84 43 184 127q2 -2 5 -7.5t5 -7.5q4 -8 17 -22q8 -10 14 -21l8 -12q-74 -68 -143 -121 q-66 -51 -121 -78q-61 -31 -103 -41q-49 -12 -94 -12q-47 0 -90 16q-53 20 -92 60q-45 45 -71.5 113t-26.5 174z" />
<glyph unicode="d" horiz-adv-x="1017" d="M39 315q0 80 18 154q16 68 58 141q39 70 92 127q57 59 125 105q33 23 61 35q57 25 72 30q29 10 76 21q35 8 73 8q12 0 29 -6q20 -8 31 -15l16 115q6 31 15 105q4 33 8 86t4 65q0 20 -4 36.5t-8.5 21t-16.5 8.5q-6 2 -16 2q-4 0 -12.5 -3t-12.5 -3q-8 -2 -17 -4.5 t-18 -4.5q-6 -2 -17 -6t-24 -8l-16 70l107 47l100 41q41 16 86 26q41 10 55 11q33 0 51.5 -18.5t18.5 -63.5q0 -39 -6 -101q-6 -59 -19 -137l-26 -162q-14 -86 -31 -172q-10 -49 -17.5 -95t-11.5 -77q-6 -29 -26 -157q-12 -76 -19 -131q-6 -58 -6 -93q0 -84 14 -125 q15 -43 37 -43q27 0 51 7q27 6 58 20l16 -68l-82 -55q-16 -8 -41.5 -24.5t-36.5 -22.5q-25 -14 -65 -31q-31 -12 -51 -12q-14 0 -37 12.5t-41 40.5q-20 31 -35 74q-10 33 -18 115q-80 -117 -162 -181q-80 -61 -150 -61q-41 0 -80 21q-41 23 -73 63q-34 43 -56 111 q-20 63 -20 161zM264 379q0 -109 33 -168q31 -55 72 -55q12 0 34 12q25 14 50 39q31 31 61 69q45 57 76 105q18 127 22 151q12 70 29 185q-18 20 -59 53q-31 25 -70 25q-43 0 -76 -21q-41 -27 -63 -53q-25 -29 -47 -76q-25 -49 -35 -88q-12 -46 -19 -92q-8 -61 -8 -86z" />
<glyph unicode="e" horiz-adv-x="864" d="M47 303q0 72 21 150q20 82 53 137q37 65 86 123q51 61 112 110q29 25 56 39l71 37q47 18 78 27q45 10 80 10q55 0 101 -16q39 -14 67 -39q25 -23 39 -58q14 -37 14 -63q0 -29 -6 -60q-4 -23 -26 -63q-20 -37 -56 -72q-39 -39 -98 -78q-61 -41 -145 -81q-63 -33 -209 -84 q6 -49 20 -86q12 -31 35 -66q12 -20 43 -41q20 -14 47 -14q47 0 125 39q92 45 201 135q6 -3 12 -13q12 -18 14 -22q4 -8 13 -21l8 -16q-80 -70 -150 -119q-80 -57 -123 -82q-55 -31 -102 -43q-53 -14 -92 -14q-43 0 -92 18q-51 18 -94 60q-37 35 -72 106q-31 65 -31 160z M281 434q102 45 157 80q49 31 88 70q29 29 39 61q10 35 10 64q0 47 -20 69.5t-49 22.5q-4 0 -21 -4q-14 -4 -28 -13q-20 -12 -31 -20q-14 -12 -27 -27q-53 -63 -82 -131q-30 -74 -36 -172z" />
<glyph unicode="f" horiz-adv-x="655" d="M-100 -399q53 31 90 84q43 63 71 131q27 66 52 157q18 70 28 166l74 645h-139l-23 39l131 82h45q8 72 29 154q20 84 47 139q35 74 76 125q49 61 108 104q53 39 111 66q55 27 119 27q55 0 96 -17q39 -16 86 -41q49 -27 70 -41q23 -14 45 -24q-22 -15 -55 -43l-66 -54 q-10 -8 -64 -43q-31 -20 -40 -20q-16 0 -33 20l-16.5 20.5l-16.5 20.5q-31 35 -37 41q-20 18 -47 19q-43 0 -72 -41q-31 -45 -47 -98q-18 -63 -30 -132q-12 -71 -19 -135l-6 -47h250l26 -35q-2 -4 -6 -8l-7 -7t-8 -9t-9 -10q-12 -14 -41 -39q-39 -33 -41 -35 q-8 -4 -18.5 -12.5t-12.5 -10.5q-12 29 -41 37q-27 8 -96 8h-10l-68 -591q-12 -104 -57 -213q-43 -101 -105 -191q-57 -84 -135 -158q-74 -71 -147 -116z" />
<glyph unicode="g" horiz-adv-x="960" d="M-20 -387q0 8 10 29q10 18 22 34l31 37q20 25 31 35q4 4 28 23q14 10 17 10q12 0 28 -17q16 -18 46 -38q20 -16 69 -37q43 -18 100 -19q31 0 68 15q31 12 57 45q23 29 45 86q18 47 35 137q12 72 21 151q4 41 8 136q-35 -53 -82 -111q-45 -55 -84 -88q-51 -45 -86 -61 q-41 -20 -86 -21q-33 0 -72 18q-43 20 -75.5 61.5t-57.5 106.5t-24 160q0 162 75 299q80 141 226 238q59 39 129 65q76 29 166 29q39 0 80 -21q37 -18 79 -47q37 25 68 39l57 29l35 -66q-35 -29 -53 -67q-18 -41 -29 -115q-14 -104 -20 -211l-11 -174q-2 -57 -10 -153 q-8 -98 -18 -150q-12 -66 -43 -131q-35 -74 -72 -121q-45 -59 -92 -102q-43 -41 -104 -78q-41 -25 -113 -49q-55 -18 -109 -19q-57 0 -100 11q-61 14 -94 28q-41 16 -70 37q-26 19 -26 37zM258 379q0 -117 29 -168q31 -55 73 -55q10 0 35 14q18 10 54 45q23 23 69 84 q40 52 86 129q2 33 10 113q10 94 17 131q3 22 12 43q-23 23 -68 55q-35 25 -65 25q-45 0 -78 -21q-37 -25 -61 -53q-29 -35 -49 -76q-16 -33 -35 -88q-16 -51 -23 -92q-6 -46 -6 -86z" />
<glyph unicode="h" horiz-adv-x="1075" d="M72 -2l20 129q6 39 13.5 80l15.5 88l31 190l32 201q10 57 16.5 107.5t12.5 85.5q2 23 7 58.5l9 63t6.5 52t9.5 73t9 68.5q4 41 4 92q0 29 -2 37q-4 14 -10 20q-4 4 -13 9q-4 2 -16 2q-4 0 -12 -3t-15 -3q-10 -2 -18 -4.5t-16.5 -4.5t-19.5 -6t-25 -8l-17 70q88 39 96 41 l48 19l57 22q57 20 94 30q43 12 62 13q29 0 47 -18.5t18 -63.5q0 -41 -4 -76q-2 -20 -8 -64.5t-8 -54.5l-21 -143q-4 -20 -11 -70.5l-11 -77.5l-11.5 -71.5t-9.5 -61.5q-6 -33 -9 -57.5t-5 -38.5q115 115 219 164t192 49q31 0 55.5 -6t41.5 -27q15 -18 24 -49q8 -27 8 -80 q0 -33 -6 -82q-8 -66 -14 -102l-20 -111q-10 -57 -21 -108q-4 -18 -14 -97q-6 -43 -6 -71q0 -37 8 -47q8 -12 26 -13q33 0 52 9l59 24l27 -65l-97 -56q-12 -8 -98 -47q-49 -23 -88 -35q-47 -14 -68 -14q-31 0 -53 31q-23 33 -22 86q0 18 6 61q10 72 14 96q4 31 10 61l11 56 q10 61 18 119q4 20 14 102q6 46 6 68q0 39 -2 53q-2 16 -10 33q-6 14 -14 16q-12 4 -23 4q-14 0 -37 -8q-25 -8 -53 -26q-29 -16 -63 -49q-29 -27 -59.5 -80.5t-47.5 -118.5q-14 -55 -33 -162q-4 -20 -8 -51t-6 -41q-2 -14 -4 -38t-2 -28q-4 -37 -4 -45q0 -6 1 -18t1 -17 l-45 -22l-70 -31l-67 -30q-12 -6 -26.5 -12.5t-16.5 -8.5z" />
<glyph unicode="i" horiz-adv-x="567" d="M55 811l95 41l104 41l90 31q41 12 62 12q28 0 43 -18q16 -20 16 -66q0 -10 -8 -80q-6 -55 -19 -115l-22 -129q-4 -27 -11.5 -61.5t-13.5 -69.5t-16 -114q-8 -70 -8 -80q0 -31 6 -45.5t24 -14.5q20 0 29 2l26.5 6.5t30.5 10.5l35 14l21 -65q-47 -29 -97 -56 q-53 -31 -94 -49q-53 -25 -86 -35q-40 -12 -67 -12q-33 0 -58 31q-23 29 -22 86q0 31 6 82q0 6 16 110q6 41 23 127q8 43 22 127l17 107q8 61 8 71q0 20 -4 37q-4 14 -8 19q-10 10 -13 10q-6 2 -16 2q-4 0 -24.5 -4t-30.5 -8l-37 -13zM283 1176q0 27 12 57q12 33 33 55 q22 25 55 43q31 16 76 17q53 0 77.5 -25t24.5 -61q0 -27 -12 -58q-12 -33 -33 -55q-23 -27 -55 -41q-37 -16 -76 -16q-53 0 -77.5 24.5t-24.5 59.5z" />
<glyph unicode="j" horiz-adv-x="563" d="M-395 -401q0 16 16 41q18 28 43 55q16 18 47 49q23 23 33 23q8 0 29 -17l43 -33q25 -18 53 -32q33 -16 65 -17q40 0 68 19q29 18 47 59q20 43 35 107q10 43 29 157q18 109 22 142q6 37 9 68.5t8 55.5q6 55 12 101l8 74q3 25 6 61l6 72q3 37 6 67q2 20 3 49q0 20 -5 37 q-4 14 -8 19q-8 8 -12 10t-16 2q-4 0 -25 -4t-31 -8l-37 -13l-18 68q8 4 41 18.5t53 22.5q53 23 105 41l92 31q41 12 57 12q29 0 47.5 -12.5t18.5 -53.5q0 -2 -4 -39q-4 -31 -7 -63q-4 -37 -8 -80l-8 -84q-2 -27 -8 -74q-4 -39 -6 -57l-19 -164q-8 -74 -28 -221 q-14 -98 -50 -176q-35 -80 -73 -139q-43 -66 -84 -105q-72 -66 -86 -78q-51 -39 -123 -65q-68 -25 -125 -25q-49 0 -82 11q-37 12 -72 28q-25 12 -49 33q-18 15 -18 27zM256 1176q0 27 12 57q12 29 35 55q22 25 55 43q31 16 74 17q53 0 78 -25t25 -61q0 -33 -11 -58 q-12 -29 -34.5 -55.5t-55.5 -40.5q-37 -16 -76 -16q-53 0 -77.5 24.5t-24.5 59.5z" />
<glyph unicode="k" horiz-adv-x="1003" d="M72 -2q2 10 7 41t7 49q4 25 9 62.5t14 85.5l30 184l33 203l33 206q6 47 26 189q18 131 21 158q6 68 6 106q0 31 -2 41q-2 16 -8 20q-8 8 -17 9q-2 0 -9 1t-11 1q-2 0 -10 -3t-15 -3q-20 -4 -34 -9q-10 -2 -19.5 -6t-21.5 -8l-19 70l98 41q23 8 50.5 19t58.5 22 q47 16 96 30q43 12 62 13q16 0 24 -2q10 -2 19 -15q10 -14 12 -30q2 -14 2 -56q0 -57 -4 -96q-2 -18 -16 -129q-2 -12 -23 -154q-8 -61 -27 -166l-28 -174q-6 -37 -14.5 -81t-14.5 -89l170 127l111 86q45 37 53 54q10 23 -14 28q-17 5 -52 5q-13 0 -28 -1l-9 70 q106 16 160 23q88 10 144 10q61 0 77 -17q20 -20 21 -53q0 -14 -23 -41q-27 -31 -63 -59l-100 -76q-43 -33 -134 -88l-125 -78q29 -33 50 -65q39 -61 47 -80l45 -84q14 -27 43 -72q23 -33 41 -53q20 -20 41 -21q22 0 55 7q41 8 74 26l30 -63l-69 -56q-18 -12 -76 -47 q-43 -25 -70 -35q-39 -14 -55 -14q-35 0 -65 31q-33 33 -62 76q-31 47 -59 106l-58 115q-41 84 -55 108q-31 53 -51 80q-4 -35 -10 -70.5t-11 -70.5q-4 -37 -14 -121q-6 -55 -6 -92q0 -45 4 -57l-18.5 -9.5l-26.5 -13.5l-72 -31l-35.5 -16l-33.5 -16q-23 -10 -43 -21z" />
<glyph unicode="l" horiz-adv-x="546" d="M88 1395q88 39 96 41q23 8 50.5 19t58.5 22q57 20 94 30q43 12 64 13q28 0 43 -19q18 -23 18 -63q0 -18 -8 -105q-6 -70 -19 -149l-26 -180l-31 -193l-31 -193l-26 -174q-12 -78 -19 -145q-8 -86 -8 -96q0 -33 10 -47q10 -12 27 -13q25 0 49 9q66 20 72 24l14 -65 l-98 -60q-23 -12 -96 -47q-35 -16 -89 -33q-41 -12 -71.5 -12t-50.5 31q-23 33 -23 88q0 4 8 82q6 55 19 137l26 172l31 193l31 194q4 29 9 59.5t10 66.5t7 54q12 80 19 150q6 63 6 100q0 20 -4 37q-2 10 -12 20q-4 4 -17 9q-6 2 -18 2q-4 0 -12.5 -3t-12.5 -3 q-25 -4 -33 -9q-8 -2 -18 -6t-21 -8z" />
<glyph unicode="m" horiz-adv-x="1562" d="M27 811l94 41l104 41l92 31q39 12 60 12q18 0 24 -4q10 -6 17 -19q4 -8 8 -34q2 -14 2 -58q0 -27 -2 -45q0 -8 -1 -26.5t-3 -26.5q68 72 108 102q57 43 99 66q51 27 86 35q47 10 84 10q39 0 61 -14q31 -18 43 -37q18 -27 25 -54q6 -31 6 -63v-14q0 -2 -1 -9.5t-1 -11.5 q63 63 106 98q53 43 90 62q51 25 80 33q41 10 76 10q29 0 55 -10q31 -12 45.5 -28.5t28.5 -55.5q12 -35 12 -82q0 -37 -6 -86q-8 -66 -14 -101q-2 -16 -9 -51t-12 -55q-8 -41 -18 -105q-14 -78 -16 -90q-6 -43 -7 -69q0 -31 11 -45q10 -12 26 -13q23 0 56 9q20 4 65 22 l12 -65l-94 -56q-23 -12 -96 -47q-53 -25 -86 -35q-47 -14 -68 -14q-18 0 -28 8q-16 12 -25 23q-8 12 -16 37q-6 22 -6 49q0 18 6 59l14 94q12 74 21 115q6 33 20 121q12 84 16 110q6 51 7 84q0 41 -11 66q-8 18 -28 18q-10 0 -28.5 -6t-45.5 -22q-23 -14 -53 -45 q-29 -29 -56 -70q-18 -29 -30 -57q-16 -41 -25 -66q-12 -35 -20 -80q0 -4 -17 -102q-14 -104 -16 -148q-3 -52 -3 -65q0 -11 1 -19q-6 -2 -20.5 -10t-26.5 -12l-68 -31l-69 -30q-6 -4 -14.5 -7.5l-13.5 -5.5t-10.5 -4t-7.5 -4l-41 39l43 203q6 31 11.5 63.5l11.5 69.5t10 57 q4 29 23 158q8 59 8 106q0 49 -10 68q-12 20 -33 20q-6 0 -25 -6q-14 -4 -43 -22q-27 -16 -53 -43q-35 -35 -57 -70q-14 -20 -33 -55q-6 -12 -25 -68q-10 -29 -20 -84q-10 -51 -18 -100q-12 -74 -21 -148q-3 -31 -3 -55q0 -16 1 -29l-47 -22l-68 -31l-67 -30 q-12 -6 -27.5 -12.5t-17.5 -8.5l-39 39l39 213l16 93.5t19 107.5q8 51 22 170q8 68 8 118q0 20 -4 37t-8 21q-8 8 -12 10h-15q-16 0 -26 -2q-4 0 -33 -10l-39 -13z" />
<glyph unicode="n" horiz-adv-x="1079" d="M33 811l96 41q74 29 109 41q66 23 92 31q43 12 57 12q10 0 23 -4q8 -2 14 -17q4 -8 8 -34q2 -14 2 -58q0 -31 -2 -49t-6 -51q111 111 215 162t197 51q33 0 57 -6q27 -6 41 -25q15 -18 25 -49q10 -35 10 -80q0 -16 -8.5 -81.5t-14.5 -102.5q-12 -74 -20 -113t-21 -108 q-14 -78 -16 -97q-6 -43 -6 -71q0 -33 10 -47q10 -12 27 -13q27 0 45 9q4 2 25.5 10l37.5 14l27 -65l-96 -56q-23 -12 -97 -47q-53 -25 -86 -35q-47 -14 -63 -14q-39 0 -60 31q-23 33 -22 86q0 18 6 61q10 72 14 96q4 31 10.5 61t10.5 56q4 20 20 119q4 20 15 102q6 46 6 68 q0 57 -10 84q-8 23 -43 22q-14 0 -37 -8t-53.5 -28.5t-59.5 -49.5q-33 -33 -61 -79q-31 -47 -45 -115q-23 -102 -35 -164q-4 -16 -7.5 -43t-5.5 -35q-4 -18 -8 -61q-2 -18 -2 -51v-48l-45 -22l-70 -31l-67 -30q-12 -6 -26.5 -12.5t-16.5 -8.5l-41 39q12 51 27 137l24 141 q18 102 23 138q14 109 16 123t6 47.5l6 50.5q4 57 4 67q0 29 -2 37q-4 14 -8 19q-8 8 -12 10h-16q-14 0 -25 -2q-6 0 -33 -10q-18 -6 -41 -13z" />
<glyph unicode="o" horiz-adv-x="907" d="M39 344q0 86 12 139q16 72 45 129q31 61 76 119q41 51 115 109q8 8 57 37q29 18 66 30q45 16 69 21q49 8 70 8q74 0 137 -29q61 -29 102 -78q39 -47 62 -118q20 -63 20 -152q0 -76 -16 -135q-18 -70 -49 -133q-29 -61 -78 -123q-47 -61 -100 -105q-25 -20 -58 -40 q-20 -12 -65 -33q-23 -10 -68 -23q-31 -8 -63 -8q-84 0 -142 29q-63 31 -104 82q-45 53 -66 123q-22 73 -22 151zM272 422q0 -72 15 -127q18 -70 37 -102q29 -51 55 -72q33 -27 61 -27q39 0 66 19q37 25 51 45q23 33 37 69q16 43 24 80q12 57 15 88l6 86q0 68 -14 135 q-12 55 -35 99q-22 40 -49 61q-27 20 -62 21q-57 0 -98 -35q-37 -33 -64 -90q-27 -59 -34 -121q-11 -76 -11 -129z" />
<glyph unicode="p" horiz-adv-x="1024" d="M-20 -465q0 8 3 21.5t6 33l5 33.5l9 58.5t13 76.5l31 168q6 37 16.5 86t18.5 101q8 45 15 91t16 93q4 20 10 56t10 63.5l8 52.5q12 84 19 139q8 82 8 92q0 20 -4 37q-2 10 -10 19q-6 6 -17 10q-6 2 -16 2q-4 0 -24.5 -4t-30.5 -8l-37 -13l-19 68q43 22 99 43 q94 37 106 41q27 10 94 29q43 12 60 12q23 0 41 -14q14 -12 14 -52q0 -33 -16 -141q53 61 102 105q53 45 86 63q41 23 76 31q33 8 69 8q45 0 84 -21q41 -23 70 -59.5t47.5 -96t18.5 -132.5q0 -53 -11 -121q-8 -55 -28 -123q-18 -61 -43 -117q-20 -45 -54 -100 q-20 -35 -51 -76q-27 -35 -63 -65q-35 -29 -72 -47.5t-80 -18.5q-18 0 -55 14q-35 14 -64 37q-20 16 -63 60q-33 33 -64 75l-22 -139q-23 -129 -29 -176q-14 -109 -14 -121q-2 -33 -2 -78q0 -25 6 -41q-8 -2 -49 -16l-70 -27q-37 -14 -70 -28q-31 -10 -45 -19zM338 289 q18 -25 43 -49q16 -16 53 -41q18 -12 60 -29q27 -10 55 -10q41 0 75.5 24.5t53.5 65.5q23 49 35 127q12 74 12 147q0 49 -10 97q-12 53 -23 75q-16 33 -30 47q-16 16 -37 17q-14 0 -47 -17q-27 -12 -64 -47q-27 -25 -70 -78t-69 -104q-4 -18 -7 -46t-10 -58 q-10 -55 -20 -121z" />
<glyph unicode="q" horiz-adv-x="958" d="M39 305q0 82 20 156q23 80 60 145.5t94 128.5q51 57 127 107q18 12 63 35q39 18 76 30q33 10 78 21q35 8 70 8q43 0 84 -21q29 -14 77 -43q45 25 68 35l31.5 15.5t30.5 13.5l32 -66l-28 -24q-20 -18 -23 -25q-10 -18 -16 -37q-6 -22 -13 -55l-43 -262l-20 -124.5 t-21 -125.5l-32 -223q-18 -119 -23 -187q-6 -82 -6 -139q0 -59 10 -78q-4 0 -11 -4t-17 -6l-41 -14q-39 -14 -49.5 -18.5t-49.5 -18.5q-8 -2 -13 -5t-8 -4t-8.5 -4t-11.5 -5.5t-14 -6.5t-10 -4l-43 35q4 41 12 98l23 144q14 102 28 182l35 207q-88 -111 -154 -158 q-68 -49 -135 -49q-35 0 -75 18q-43 20 -76 62q-35 43 -56 106q-22 68 -22 160zM256 379q0 -51 10 -98q8 -35 27 -70q14 -25 37 -41q20 -14 41 -14q31 0 86 55q57 57 135 168l29 174l28 170q-33 31 -63 49q-35 23 -66 23q-43 0 -78 -21q-37 -20 -65.5 -53t-50.5 -76 q-23 -45 -37 -88q-15 -46 -25 -92q-8 -41 -8 -86z" />
<glyph unicode="r" horiz-adv-x="835" d="M27 811q88 39 96 41t46 17.5l58 23.5q66 23 92 31q43 12 62 12q10 0 22 -4q8 -2 15 -17q4 -10 8 -30v-49v-29q0 -12 -4 -41q0 -12 -2 -22.5t-4 -22.5q0 -4 -2 -13.5t-3 -16.5t-1 -13q53 88 90 129q55 63 78 80q41 31 71 39q37 10 66 10q14 0 39 -10q18 -8 45 -25 q12 -8 24.5 -14t22.5 -13q23 -14 47 -24l-21 -31l-26 -43l-29 -47l-14 -21.5l-15 -23.5q-10 -18 -22 -31q-14 -14 -18 -14q-16 0 -35 12.5t-33 26.5q-10 10 -31 27q-15 12 -31 12q-27 0 -57 -25q-37 -29 -63 -69q-41 -61 -62 -107q-33 -74 -51 -133q-18 -66 -33 -158 q-11 -73 -11 -134q0 -14 1 -28q-8 -2 -20.5 -8l-28.5 -14l-70 -31l-65 -30q-12 -6 -26.5 -12.5t-16.5 -8.5l-39 39q31 156 41 213l33 199q8 51 22 170q8 68 8 120q0 20 -4 37q-4 14 -8 19q-6 6 -14 10q-4 2 -15 2q-6 0 -26.5 -4t-30.5 -8q-25 -8 -39 -13z" />
<glyph unicode="s" horiz-adv-x="784" d="M-18 113q0 16 14 45q20 41 33 61q10 16 39 55q18 25 30 25q8 0 19 -16q4 -6 10 -17.5t14 -23.5q6 -12 31 -49q16 -25 43 -51.5t57.5 -41t73.5 -14.5q70 0 105 35q39 39 38 94q0 35 -18 64q-25 37 -45 55q-33 29 -64 47q-49 29 -73 41q-66 35 -88 53q-29 25 -56 57 q-18 25 -28 58q-8 27 -8 63q0 63 36 115q39 53 93 90q51 33 124 57q63 20 132 21q55 0 94 -12.5t76 -28.5q23 -10 63 -31q27 -14 61 -20q-8 -12 -19 -24.5t-19 -24.5q-29 -37 -43 -52l-12.5 -13l-14.5 -15t-12 -10q-20 -16 -29 -17q-16 0 -35 23l-45 45q-27 27 -53 45 q-29 20 -66 20q-57 0 -85.5 -28.5t-28.5 -75.5t41 -82t122 -76q27 -14 80 -47q43 -27 72 -55.5t49.5 -73.5t20.5 -94q0 -41 -21 -88q-18 -45 -51 -80q-27 -29 -78 -66q-37 -27 -90 -51q-41 -18 -96 -33q-49 -12 -92 -12q-59 0 -119 16.5t-96 38.5q-45 29 -64 52 q-22 29 -22 47z" />
<glyph unicode="t" horiz-adv-x="692" d="M43 823l121 82h57l6 35q6 37 12.5 63.5t14.5 38.5q6 10 18 23q4 4 11.5 7t13.5 9l190 95l27 -25l-14 -33q-6 -14 -17 -55q-8 -35 -18 -100l-10 -58h241l29 -35q-2 -4 -6 -8l-7 -7t-8.5 -9l-9.5 -10q-12 -14 -41 -39q-6 -6 -19 -17.5l-20 -17.5q-20 -16 -28 -23 q-12 27 -47 37q-31 8 -99 8h-4l-57 -360q-2 -12 -6 -41t-4 -41q0 -6 -1 -18.5t-1 -18.5v-26q0 -63 18 -88t47 -25q39 0 82 14q57 18 123 49l27 -73q-55 -43 -110.5 -80t-104.5 -62q-55 -29 -93 -41q-41 -14 -69 -14q-33 0 -62 14q-31 15 -55 43q-23 27 -39 64q-14 35 -14 80 v39q0 6 1 18t1 21q0 14 4 43q0 4 2 22.5t4 28.5l74 452h-135z" />
<glyph unicode="u" horiz-adv-x="1099" d="M25 811q88 39 96 41q74 29 108 41q57 20 95 31q43 12 61 12q29 0 39 -18q8 -16 8 -66q0 -29 -6 -76l-14 -100q-8 -55 -18.5 -114.5t-18.5 -115.5q-14 -90 -17 -100q-6 -47 -6 -76q0 -57 16.5 -85.5t37 -28.5t43.5 14q39 25 59 43q29 27 74 78q27 31 84 115q2 12 7 38.5 t7 42.5l12 82q2 10 6 35t7 37q4 45 4 59q0 20 -4.5 37t-6.5 19q-8 8 -12 10t-14 2q-4 0 -25 -4q-16 -4 -29 -8q-6 -2 -17 -6.5t-17 -6.5l-19 68l97 41q53 23 104 41q49 18 92 30.5t60 12.5q28 0 36 -18q8 -16 9 -66q0 -43 -5 -72l-14 -92l-16 -104q-4 -29 -9.5 -53.5 t-9.5 -49.5q-4 -18 -8 -55t-4 -41q-6 -45 -6 -78q0 -92 14 -127q16 -37 39 -37q27 0 49 7q10 2 58 22l18 -66l-80 -53l-78 -47q-39 -23 -71.5 -35t-55.5 -12q-25 0 -45 14q-23 16 -41 47q-23 37 -33 78t-14 111q-29 -45 -82 -100q-31 -33 -92 -78q-47 -35 -96 -53.5 t-94 -18.5q-27 0 -60 16q-35 18 -57 45q-25 29 -43 78q-16 41 -16 107q0 43 4 71l12 89q4 31 16 96q12 70 17 94q2 10 5 39t5 43q6 37 6 63q0 20 -4 37q-4 14 -8 19q-8 8 -12.5 10t-16.5 2q-4 0 -24.5 -4t-30.5 -8q-25 -8 -39 -13z" />
<glyph unicode="v" horiz-adv-x="976" d="M0 803q18 8 42 20.5t50 24.5l92 43q70 29 78 33q33 12 51 12q29 0 47 -29q16 -25 39 -98q6 -16 21 -74q4 -16 22 -108q6 -31 11.5 -64t11.5 -61l22 -119q4 -25 6.5 -39t4.5 -28.5l4 -28.5l8 -54q66 104 111 195q47 94 67 145q23 57 33 97q6 25 6 53q0 47 -53 47 q-25 0 -35 -2q-18 -4 -39 -12l-20 65l39.5 19.5l35.5 17.5q16 8 88 39q23 10 84 29q33 10 64 10q33 0 57.5 -18.5t24.5 -65.5q0 -20 -25 -88q-22 -58 -74 -154l-137 -233l-207 -336q-9 -6 -30 -18q-10 -6 -16.5 -8.5t-14.5 -6.5t-18 -8l-52 -25l-32 -16l-41 39 q-25 178 -27 184l-37 195l-35 176q-20 86 -32 125q-12 35 -17 43q-9 15 -18 24.5t-19 12.5q-6 2 -18 2q-6 0 -26.5 -4t-30.5 -8q-12 -4 -41 -13z" />
<glyph unicode="w" horiz-adv-x="1386" d="M-10 803l92 47q49 25 92 43l80 31q34 12 49 12q29 0 43 -33q15 -34 31 -104q6 -25 12 -62l12 -94q2 -23 6.5 -50.5t8.5 -57.5l12 -111q8 -74 10 -96l6 -70q27 51 76 158q16 35 62 155q27 72 43 140q16 66 18 108q29 25 47 39l58 39l53 27q25 12 41 12q4 0 10 -16l14 -43 q2 -6 17 -64q2 -12 8 -35.5t8 -36.5l16 -73q6 -37 13 -68q8 -61 14 -94l16 -94q2 -16 7.5 -46t7.5 -42q4 -29 8 -78q106 193 160 309q53 119 53 184q0 20 -14 33q-16 12 -39 12q-6 0 -39 -4q-4 0 -45 -12l-27 68q41 25 78 41q53 25 78 32l67 21q31 6 53.5 6t32.5 -2 q18 -4 27 -10q12 -9 18 -25q6 -14 7 -39q0 -29 -7 -59q-4 -16 -24 -76q-15 -43 -43 -104q-10 -23 -72 -142l-98 -188l-135 -248l-31 -16q-10 -6 -22.5 -11.5t-26.5 -13.5l-51 -27l-33 -16l-41 39q-8 76 -23 166q-2 18 -10 73.5l-12 84.5q-14 82 -25 139q-6 31 -26 108 q-2 -12 -29 -88q-14 -41 -47 -123q-27 -63 -68 -143l-86 -160q-8 -4 -32 -18q-12 -8 -26.5 -15.5l-29.5 -15.5l-30.5 -15t-26.5 -14q-28 -15 -37 -18l-39 39q-8 70 -12 123q-6 68 -14.5 135.5t-14.5 134.5q-2 27 -8 73t-6 52q-6 55 -12 98q-6 41 -13 64q-6 31 -14 43 q-12 20 -16 24q-8 8 -21 13q-6 2 -18 2q-4 0 -25 -4q-25 -6 -35 -8q-12 -4 -41 -13z" />
<glyph unicode="x" horiz-adv-x="944" d="M-43 2l96 86l109 105l108 108l101 107q-35 92 -54 135q-37 86 -51 114q-20 43 -51 80q-25 31 -45 31q-2 0 -31 -4q-14 -2 -43 -10q-39 -8 -55 -13l-21 70l89 43q45 23 86 41q16 8 75 29q34 12 49 12q25 0 54 -31q23 -25 53 -80q35 -61 57 -114l19.5 -46.5l16.5 -40 l20 -49.5l61 80l28.5 40t18.5 28l33 51q10 18 10 27q0 23 -22 30q-13 5 -39 5q-20 0 -49 -2l-7 69q8 2 33 7l39 8q27 4 76 8q12 2 35.5 5t34.5 3q23 2 55 2q55 0 82 -16q25 -15 24 -37q0 -39 -92 -143.5t-270 -288.5q16 -43 49 -119q23 -55 49 -101q31 -53 45 -69 q23 -27 43 -27q12 0 58 8q29 6 71 27l25 -68l-84 -57q-53 -33 -78 -45q-29 -14 -70 -31q-27 -10 -57 -10q-28 0 -55 25q-25 23 -56 69q-23 33 -53 101q-37 78 -53 120q-41 -53 -88 -120l-100 -150q-4 0 -22.5 -2t-31.5 -4l-71 -12q-14 -2 -38 -7.5t-34 -7.5q-37 -6 -53 -12z " />
<glyph unicode="y" horiz-adv-x="978" d="M-197 -412q0 14 16.5 43t39.5 62q18 27 47 55q31 31 37 33q47 -43 96 -66q51 -23 86 -22q53 0 117 59q57 55 127 168q-4 14 -12.5 59.5t-14.5 71.5l-33 146q-6 29 -12 53l-11 43.5l-14 52.5l-39 139q-18 65 -36 117q-25 70 -31 82q-20 49 -39 68q-16 16 -35 16 q-4 0 -24 -4q-25 -4 -33 -8q-25 -8 -39 -13l-21 68l48.5 22.5l44.5 20.5q16 6 45.5 20.5t44.5 20.5q6 2 78 29q35 12 51 12q27 0 49 -29q18 -23 45 -98q6 -16 39 -115q8 -25 21.5 -77t17.5 -64q0 -4 41 -158q14 -55 39 -166l77 162q29 59 64 148q25 61 43 118q16 53 16 74 q0 49 -53 53q-14 2 -35 -4q-31 -10 -49 -18l-24 65q49 29 75 41q43 20 82 35q41 16 76 25q33 8 59 8q23 0 33 -2q23 -4 31 -10q14 -12 20 -25q6 -14 7 -39q0 -37 -27 -104q-28 -71 -74 -172l-112 -228l-144 -274q-53 -102 -137 -236q-70 -111 -137 -184q-70 -74 -148 -119 q-77 -43 -166 -43q-43 0 -75 8q-37 9 -68 25q-37 18 -49 29q-21 16 -21 26z" />
<glyph unicode="z" horiz-adv-x="782" d="M-18 18l100 127l96 134l94 133l86 125l76 106l66 84h-232q-31 0 -43 -4q-18 -6 -32.5 -20.5t-26.5 -43.5q-23 -51 -29 -67l-65 14q12 61 20 94q6 20 12.5 45l12.5 50l18 82q8 35 12 59q6 -2 23.5 -6t30.5 -6q31 -8 67 -9h488l28 -41q-43 -45 -98 -112l-82 -105 q-66 -92 -72 -102l-73 -104q-14 -20 -33.5 -51t-44.5 -64l-96 -125q6 2 13 3t13 3q16 4 26.5 6t29.5 2q25 0 51 -8q31 -8 63 -18l66 -19q31 -8 57 -8q6 0 23 4q10 2 24 14q16 14 31 33q27 39 37 58l57 -35l-51 -111q-20 -43 -55 -84q-31 -37 -64 -53q-37 -18 -84 -18 q-39 0 -86 10q-6 2 -82 24l-73 23q-37 10 -62 10q-35 0 -78 -20l-123 -58z" />
<glyph unicode="{" horiz-adv-x="686" d="M102 647q109 31 164.5 86t67.5 129q6 55 6 96q0 53 -2 78t-2 78q0 59 6 96q8 66 45 123q35 55 92 107q43 39 127 86q66 37 156 73l26 -75q-35 -20 -73 -54q-41 -35 -62 -61q-27 -37 -43 -69.5t-22 -71.5q-6 -51 -6 -94q0 -14 1 -40t1 -38.5t1 -39t1 -40.5q0 -40 -6 -92 q-6 -45 -25 -84q-12 -27 -49 -76q-25 -33 -66 -63.5t-80 -47.5q92 -18 125 -87.5t19 -180.5q-6 -53 -19 -100l-24 -88l-25 -84q-12 -39 -18 -84q-4 -27 -4 -76q0 -33 12 -63.5t39 -57.5q31 -31 72 -55l-48 -92q-63 27 -141 69q-61 35 -102 78q-40 43 -56 98t-6 127 q6 51 19 95l24 84l25 86q10 37 20 100q12 80 -16.5 114.5t-87.5 34.5h-18h-13q-2 0 -5 -1t-5 -1q-4 0 -21 -4z" />
<glyph unicode="|" horiz-adv-x="438" d="M29 -303l260 1841q2 2 63 35q27 14 64 26l37 -28l-260 -1845q-6 -4 -27 -17q-6 -4 -18.5 -9t-16.5 -7q-25 -12 -37 -17q-6 -2 -15 -7t-13 -5z" />
<glyph unicode="}" horiz-adv-x="686" d="M-82 -238q74 45 133 115q57 66 66 141q6 52 6 93q0 12 -1 38.5t-1 41t-1 39t-1 38.5q0 25 8 94q6 41 25 82q20 43 47 76q29 35 67 64q43 33 78 47q-90 18 -125 88q-35 68 -18 180q4 41 20 100l25 88l24 84q8 27 17 84q6 39 6 76q0 29 -14 64q-12 31 -39 57q-31 31 -72 55 l47 92q92 -39 143 -69q63 -39 101 -78q40 -43 55 -98q14 -55 6 -125q-14 -84 -18 -96l-25 -84l-24 -86q-12 -41 -19 -101q-12 -80 17 -114q27 -33 86 -33h18h12l4 1q4 1 7 1l20 4l4 -84q-109 -31 -164 -86q-53 -53 -65 -129q-8 -49 -8 -96q0 -51 2 -76q4 -49 4 -78 q0 -23 -9 -96q-10 -72 -45 -125q-37 -55 -92 -105q-51 -45 -127 -88q-71 -40 -153 -73z" />
<glyph unicode="~" horiz-adv-x="983" d="M76 502q35 61 63 102q39 55 80 96q43 41 88 70q47 29 90 29q41 0 84 -25q39 -23 82 -55q40 -31 80 -55q41 -25 76 -25q45 0 90 39q47 41 94 121l47 -25q-20 -43 -63 -102q-39 -55 -80 -97q-41 -43 -88 -69q-47 -29 -90 -29q-40 0 -80 25q-49 31 -82 55.5t-82 54.5 q-40 25 -80 25q-49 0 -90 -39q-47 -45 -94 -123z" />
<glyph unicode="&#xa1;" horiz-adv-x="477" d="M-59 -506l209 993q20 14 51 27q8 4 26.5 10t26.5 11l25 -23l-56 -934q-39 -23 -53 -29l-68 -32q-14 -6 -31.5 -15.5t-35.5 -17.5q-27 -14 -51 -21zM98 735q0 35 12.5 68t39.5 63q25 27 57 45q35 18 78 19q59 0 90 -31t31 -80q0 -34 -13 -67q-14 -37 -37 -64 q-27 -31 -57 -47q-33 -18 -80 -18q-59 0 -92 32q-29 29 -29 80z" />
<glyph unicode="&#xa2;" horiz-adv-x="931" d="M88 471q0 68 18 135q16 63 58 133q39 70 92 125q57 61 129 109q29 18 64 35q31 14 71 26l19 129l47 33q16 10 49 21l20 -23l-18 -139h16h19q43 0 88 -17q37 -14 78 -37l35.5 -21t29.5 -19q31 -18 51 -25q-8 -6 -28 -27l-18.5 -18t-18.5 -21l-39 -39l-12.5 -13l-14.5 -15 t-12 -10q-25 -20 -35 -27q-16 -10 -24 -10q-12 0 -25 18q-2 4 -8 12.5t-11.5 15.5t-9.5 15q-20 31 -36 51q-25 29 -46 41l-90 -643q28 6 56 19q27 12 59 34q68 47 70 50l82 67q4 -6 12 -16q4 -6 7 -10t7 -11l14.5 -20t10.5 -14l-105 -93q-46 -40 -86 -67q-59 -41 -75 -49 q-25 -12 -70 -29l-16 -123q-10 -10 -48 -31q-4 -2 -51 -22l-18 22l18 138q-16 0 -61 8q-34 6 -68 24q-45 25 -65 43q-31 28 -56 68q-20 35 -39 94q-16 55 -16 123zM317 510q0 -90 29 -148q27 -51 72 -79l86 624q-45 -23 -78 -63q-39 -49 -59 -96q-25 -55 -37.5 -117 t-12.5 -121z" />
<glyph unicode="&#xa3;" horiz-adv-x="931" d="M-57 43q49 39 55 45q25 20 45 49q16 23 33 58q10 20 24 77q10 39 21 107q8 51 14 141h-106l-23 35q0 2 3 8t5 10.5t7.5 12.5t7.5 12l12 25q2 4 5 9t5 9h94q14 131 59.5 241.5t110.5 186.5q74 84 156 123q90 43 193 43q33 0 53 -2q16 -2 63 -10q23 -4 72 -21 q39 -12 78 -37q-2 -6 -5 -20.5t-5 -22.5l-13 -57q-8 -41 -14 -66q-8 -33 -16 -61q-2 -12 -7.5 -30.5t-7.5 -22.5q-6 -25 -12 -37h-72q4 123 -37 194.5t-123 71.5q-12 0 -40 -4q-16 -2 -46 -20q-25 -14 -45 -46q-29 -41 -43 -81q-16 -47 -32 -132q-14 -72 -21 -190h260 l27 -29l-51 -92h-244q-12 -123 -51 -211q-43 -96 -101 -170q57 4 74 4q10 0 27.5 1t26 1t22.5 -1t20.5 -1t19.5 -1t21 -1q6 0 21.5 -1t23.5 -1h60q39 0 74 11q41 12 59 28q27 23 49 58q27 39 53 96l64 -25q-2 -14 -23 -92q-8 -33 -24 -90q-6 -25 -13.5 -44.5t-11.5 -31.5 q-4 -10 -14 -49q-47 -27 -109 -29q-55 -2 -133 4q-71 6 -147 19q-51 8 -150 16q-63 6 -139 -2q-61 -6 -115 -39z" />
<glyph unicode="&#xa4;" horiz-adv-x="931" d="M49 266l146 140q-18 37 -29 92q-8 39 0 100q6 51 29 104q23 51 53 95l-109 141l11 45q4 2 17 9t21 12q20 10 41 18l105 -139q35 25 90 47q41 16 96 16q49 0 92 -18q45 -18 74 -45l143 137h39l23 -84l-143 -139q20 -45 30 -97q8 -47 2 -102q-10 -57 -28 -100 q-23 -53 -56 -95l109 -139l-6 -45l-84 -37l-105 137q-40 -28 -86 -43q-49 -16 -98 -16t-94 16q-43 14 -76 46l-143 -140l-39 4q-4 8 -13 39zM276 600q-6 -37 5 -78q8 -39 30 -69q23 -33 54 -50q33 -18 77 -18q47 0 82 16q39 18 70 49t49 70q18 41 24.5 82t-1.5 78 q-8 39 -31 70q-22 31 -55 49q-33 16 -76 20q-47 0 -82 -16q-39 -18 -70 -49q-29 -29 -51 -70q-17 -33 -25 -84z" />
<glyph unicode="&#xa5;" horiz-adv-x="931" d="M18 1114l5 74q43 4 63 8l72 12q25 4 69.5 8.5t48.5 4.5q27 0 48 -13q23 -12 34 -34q31 -55 56 -107q23 -47 51 -123l16.5 -40.5l18.5 -48t14 -40.5q25 -74 41 -131l236 385q18 25 -5 41q-25 18 -88 27l11 71h374l-10 -71q-68 -14 -94 -27q-31 -16 -47 -41l-338 -557 l-2 -8h237l19 -23l-45 -96h-228l-30 -242q0 -8 4 -14q6 -10 20.5 -18.5t40.5 -18.5q23 -8 66 -18l-8 -74h-510l10 74q41 8 70 18q25 8 45 18.5t26 18.5q8 12 8 14l31 242h-258l-14 25q0 2 3 8l5 10l12 29q8 20 12.5 28.5t7.5 12.5t3 6h246l2 14l-45 154q-6 23 -56 151 q-10 27 -57 138q-28 65 -55 110q-4 8 -17 21q-8 8 -22 14q-4 2 -37 6q-15 2 -60 2z" />
<glyph unicode="&#xa6;" horiz-adv-x="438" d="M35 -303l110 784q12 9 31 19q25 12 37 16q6 2 17.5 7t17.5 7q4 2 15 5.5t18 5.5l41 -31l-115 -789q-6 -4 -27 -14q-6 -2 -12 -5t-13.5 -6t-13.5 -5q-8 -2 -17 -7.5t-22 -9.5q-20 -6 -30 -10zM180 745l113 797q20 12 32.5 18.5t36.5 14.5q6 2 17.5 7t17.5 7q29 8 33 10 l39 -28l-113 -797q-4 -4 -28 -16q-6 -2 -12.5 -5l-13.5 -6.5t-13 -5.5q-37 -16 -39 -16l-33 -10z" />
<glyph unicode="&#xa7;" horiz-adv-x="921" d="M113 63q0 25 2 41q4 33 6 54q0 4 12 63q8 41 14 62q2 4 7.5 24.5t9.5 30.5l72 -10q4 -59 16 -97q18 -49 39 -75q23 -29 57 -47t74 -19q65 0 98.5 24.5t42.5 86.5q6 41 -12 71q-20 33 -47 58q-23 20 -70 49l-78 47q-29 16 -77 59q-45 37 -68 74q-33 51 -45 96 q-14 51 -4 123q8 49 18 70q20 45 35 65q18 27 49 57.5t58 49.5q-25 31 -41 72q-14 39 -9 86q9 61 43 110q37 53 82 84q47 33 111 51q55 16 121 17q39 0 78 -6q49 -8 73 -15q27 -8 62 -26q37 -20 47 -31q2 -2 -4 -35l-21 -63q-8 -25 -28 -70q-16 -35 -29 -51l-62 8 q-14 98 -45 137q-37 47 -96 47q-51 0 -86 -24.5t-41 -71.5q-6 -31 8 -57q14 -29 41 -49q31 -25 66 -48l84 -53q37 -23 82 -57q39 -31 71 -76q29 -41 45 -98q14 -55 7 -131q-12 -88 -50 -152q-39 -68 -86 -108q18 -29 25 -60q6 -39 2 -71q-8 -63 -37 -121q-27 -55 -61.5 -86 t-77.5 -54q-35 -16 -82 -30q-39 -10 -78 -15q-49 -4 -63 -4q-28 0 -62 6q-45 8 -67 15q-39 10 -66 22q-33 14 -59 33q-6 6 -6 18zM358 827q-6 -39 4 -75q8 -27 37 -64q27 -35 66 -61l48.5 -32.5t49.5 -35.5l76 -47q18 25 25 43q16 41 16 49q6 47 -4 88q-8 37 -35 72 q-23 31 -68 63q-59 43 -104 72q-20 12 -53 37q-16 -16 -37 -53q-19 -33 -21 -56z" />
<glyph unicode="&#xa8;" horiz-adv-x="1040" d="M285 1184q0 28 12 61q14 41 31 62q20 25 49 45q29 18 65 18q27 0 43 -8q18 -8 29 -23q12 -16 18 -32q6 -18 7 -37q0 -29 -13 -64q-14 -37 -30 -59q-20 -27 -51 -45.5t-66 -18.5q-51 0 -72 31q-22 33 -22 70zM672 1184q0 33 10 61q12 37 32.5 61.5t49.5 45.5q27 18 65 18 q27 0 43 -8q18 -8 29 -23q12 -16 19 -32q6 -18 6 -37q0 -29 -13 -64q-14 -37 -30 -59q-20 -27 -51 -45.5t-66 -18.5q-49 0 -72 31q-22 33 -22 70z" />
<glyph unicode="&#xa9;" horiz-adv-x="1359" d="M80 526q0 98 22 187q25 92 68 180q45 90 104 162q61 74 142 131q82 59 170 88q92 31 194 31q120 0 215 -43q94 -43 162 -117q63 -70 103 -176q35 -96 34 -217q0 -90 -22 -191q-23 -102 -64 -186t-104 -164q-59 -76 -139 -135q-70 -53 -172 -90q-84 -31 -199 -31 q-125 0 -217 45q-98 47 -162 123q-61 74 -100 182q-35 98 -35 221zM186 545q0 -102 31 -189q31 -84 86 -149q53 -61 133 -101q77 -37 172 -36q78 0 158 26q74 25 137 70q68 47 117 106q45 53 88 136q35 66 57 151q20 76 21 160q0 100 -31 186q-31 84 -86 150q-51 59 -131 98 q-78 37 -170 37q-78 0 -158 -27q-70 -23 -139 -69q-61 -41 -117 -107q-53 -63 -90 -133q-35 -68 -57 -149q-21 -76 -21 -160zM313 526q0 41 11 103q8 51 34 110q25 57 66 108.5t106 102.5q6 6 56 35q33 20 65 31q29 10 76 20q35 8 82 8t82 -14q43 -18 65 -33q39 -27 50 -34 q20 -16 38 -21l-40 -31q-41 -31 -48 -34q-16 -12 -45 -29q-23 -12 -32 -12q-14 0 -29 16q-14 18 -33 39q-12 14 -41 39q-23 18 -51 18q-37 0 -68 -18q-35 -20 -55 -47q-29 -35 -45 -72q-25 -53 -33 -82q-12 -41 -18 -88q-6 -43 -6 -82q0 -57 14 -94q14 -39 41 -66 q20 -20 61 -34q35 -12 70 -13q45 0 107 31q63 33 147 106q2 -2 5 -7t5 -7q2 -4 7.5 -8t7.5 -8q8 -12 12 -17q2 -2 4 -7l2 -5q-39 -39 -119 -98q-57 -43 -98 -66q-43 -23 -88 -33q-47 -10 -82 -10q-47 0 -92 15q-49 15 -92 49q-41 33 -70 92q-29 61 -29 147z" />
<glyph unicode="&#xaa;" horiz-adv-x="614" d="M43 614q4 10 16 31q14 25 17 29h491l27 -31q-8 -20 -14 -29q-10 -14 -17 -28h-493zM94 911q0 90 45 162q47 76 123 127q25 18 68 37q35 14 86 14q29 0 47 -10l43 -24l69 34l19 -34q-4 -4 -9 -6.5t-10 -6.5q-2 -2 -6 -7t-6 -7q-4 -4 -8 -19q0 -2 -3 -11t-5 -17 q-12 -57 -17 -78q-4 -27 -8 -72q-2 -31 -6 -57q-2 -16 -2 -39q0 -34 6 -55q6 -23 19 -23q16 0 22 2q18 6 33 13l14 -35q-72 -43 -88 -51q-41 -20 -63 -21q-8 0 -21 6q-10 4 -22 21q-10 12 -21 37q-4 8 -8 53q-29 -41 -76 -84q-35 -33 -73 -33q-20 0 -48 10q-20 8 -45 33 q-23 23 -34 57q-15 39 -15 84zM221 952q0 -63 15 -92q14 -31 34.5 -31t51.5 31q25 25 71 92l8 60q2 10 5.5 29.5t3.5 27.5q2 10 6 26.5t4 22.5q2 12 4 20.5t2 12.5q-4 4 -33 20q-14 8 -33 9q-39 0 -63 -23q-20 -18 -43 -59q-12 -25 -25 -74q-8 -35 -8 -72z" />
<glyph unicode="&#xab;" horiz-adv-x="968" d="M51 426q0 6 1 17.5t3 17.5q2 14 4 24q0 10 4 15l422 422l47 -45l-12 -19l-26 -47q-6 -12 -16.5 -28.5t-22.5 -37.5l-43 -75l-45 -76q-4 -8 -39 -68q-8 -14 -15.5 -25.5t-11.5 -19.5l-10 -18l129 -420l-62 -43zM426 426q0 6 1 17.5t3 17.5q0 4 1 12t3 12q2 8 2 15l424 422 l45 -45l-8 -19q-4 -8 -12 -20.5l-17 -26.5l-39 -66l-23 -39.5l-20 -35.5l-22 -36l-23 -40l-39 -68l-15 -25.5t-11 -19.5l-8 -18l127 -420l-62 -43z" />
<glyph unicode="&#xac;" horiz-adv-x="931" d="M45 516q0 2 3 9l5 12l13 26l12 29q2 4 6 10t4 8q39 0 117 1t110 3q123 4 156 4q49 0 98 5q8 0 28.5 1t27.5 3q12 2 24 2q6 0 6 4q57 0 107 -4q39 -4 53 -8q22 -6 25 -13l-33 -284q-12 -12 -21 -25l-26 -39q-4 -8 -14.5 -20.5t-12.5 -16.5q-12 -18 -20 -20q-4 -4 -11 0 l-12 6q-2 0 -7 2t-7 4h-8l24 223l-485 54z" />
<glyph unicode="&#xad;" horiz-adv-x="677" d="M29 471q0 2 10 27q2 4 16 28l17 29l14 25h520l27 -31q-2 -4 -6 -13.5t-6 -13.5l-7.5 -15l-7.5 -15l-16 -29q-10 -18 -12 -23h-525z" />
<glyph unicode="&#xae;" horiz-adv-x="702" d="M123 1083q10 84 41 144q37 70 82 114q49 49 108 76q63 29 133 29q68 0 125 -29q53 -27 90 -76q33 -43 50 -114q14 -59 4 -144q-12 -80 -43 -143t-80 -113q-51 -51 -110.5 -77.5t-133.5 -26.5q-72 0 -125 27q-55 29 -90 78t-49 112t-2 143zM195 1083q-8 -61 0 -112 q9 -52 36 -92q31 -45 68 -64q45 -23 102 -22q55 0 107 22q45 20 86 64q35 39 57.5 92t30.5 112q10 59 0 113q-8 45 -37 92q-23 37 -70 64q-39 23 -102 22q-61 0 -106 -22q-47 -25 -84 -64q-35 -39 -58 -92q-20 -52 -30 -113zM268 883l2 26q35 8 39 19l43 317q-12 -4 -16 -4 t-8 -1t-9 -1l3 39q37 8 59 12t70 4q41 0 65 -8q29 -8 45 -26q16 -16 23 -35q6 -16 2 -39q-6 -45 -35 -74q-27 -27 -72 -39l76 -131q6 -12 16 -12q14 0 29 6l4 -18l-4 -3l-20 -10l-25 -12q-6 -2 -11 -6t-12 -6q-12 -4 -16 -4q-10 0 -16 6q-4 4 -8 12l-70 172h-14h-11 l-18 -139q-2 -4 7 -9.5t28 -9.5l-2 -26h-144zM403 1112q2 0 6 -1l3 -1h8q35 0 63 14q23 10 29 54q4 33 -12 51q-18 23 -64 22h-12z" />
<glyph unicode="&#xaf;" horiz-adv-x="903" d="M168 1190q6 18 10 27q2 6 8.5 17t10.5 17q10 18 18 35q4 8 16 27h705l27 -33q0 -4 -13 -27q-8 -18 -18 -36.5t-21 -34.5q-2 -4 -7 -12.5t-7 -12.5h-707z" />
<glyph unicode="&#xb0;" horiz-adv-x="667" d="M186 918q0 74 29 131q33 66 76 108q47 47 100 73.5t107 26.5q43 0 71 -14q31 -16 54 -41q18 -23 32 -59q12 -33 13 -70q0 -74 -31 -135q-29 -57 -78 -107q-45 -45 -100.5 -69.5t-104.5 -24.5q-45 0 -78 17q-27 14 -51 41q-23 25 -30 57q-9 31 -9 66zM330 975 q0 -45 22 -74q20 -27 56 -27q27 0 47 12.5t37 35.5q14 20 24 47q8 23 8 53q0 16 -6 35q-6 20 -14 33q-8 14 -22.5 22t-35 8t-40.5 -12q-18 -10 -39 -31q-16 -16 -26.5 -46.5t-10.5 -55.5z" />
<glyph unicode="&#xb1;" horiz-adv-x="817" d="M4 143q0 2 5 10.5t7 14.5l17 33q4 4 8 14t8 16.5t7 14.5t5 10h623l25 -31q0 -2 -11 -26q-6 -16 -16 -33l-16 -33q-8 -14 -13 -22h-624zM74 651q0 4 5 12.5t7 14.5q4 8 8 15t8 16q8 16 17 30q4 6 7 15.5t5 11.5h242l37 266q4 0 9 3t13 5q14 4 31 11q20 8 31 10q8 2 15 5 t11 3l25 -31l-39 -272h250l22 -33q0 -2 -10 -26q-6 -16 -16 -33q-8 -16 -16.5 -30.5t-12.5 -22.5h-238l-36 -267q-4 -2 -23 -10l-31 -12q-20 -8 -30 -10q-15 -3 -25 -7l-25 31l37 275h-254z" />
<glyph unicode="&#xb2;" horiz-adv-x="661" d="M72 664l215 204q74 74 131 146q49 61 67 104q20 47 21 86q0 31 -16.5 53.5t-57.5 22.5q-47 0 -70 -35q-20 -33 -18 -78q-14 -6 -33 -12q-8 -2 -23.5 -5t-23.5 -5q-12 -2 -25.5 -5t-23.5 -5q-29 -4 -37 -5l-16 41q2 29 31 64q20 25 73 59q37 25 101 45q55 18 118 19 q104 0 154 -35q51 -37 51 -90q0 -45 -18 -88q-18 -45 -66 -101q-49 -59 -127 -131l-203 -182h236q20 0 35 19q10 12 26 41q10 18 21 59l51 -12l-41 -222h-520z" />
<glyph unicode="&#xb3;" horiz-adv-x="659" d="M76 696l35 78q59 -43 100 -59q47 -18 90 -19q37 0 59 11q29 12 50 32q25 25 34 49q10 27 11 68q0 37 -9 55q-10 23 -24 35q-10 8 -35 17q-18 6 -39 6h-26q-2 0 -6.5 -1t-9.5 -2t-11 -1l-4 63q52 12 86 31q31 16 55 41q18 18 29 47q8 23 8 55q0 12 -4 28.5t-8 25 t-20.5 16.5t-30.5 8q-10 0 -31 -8q-14 -6 -27 -19q-8 -8 -16 -30q-4 -14 -2 -37q-12 -8 -33 -15q-4 -2 -18.5 -7t-22.5 -7q-16 -4 -41 -8q-4 0 -17.5 -3t-21.5 -3l-16 37q4 29 26 57q25 31 64 57q37 25 92 45q52 18 111 19q58 0 98 -12q39 -12 61.5 -35t30.5 -45 q10 -27 10 -49q0 -33 -12 -60q-16 -37 -31 -53q-16 -20 -49 -41q-25 -16 -59 -27q35 -2 63 -18q27 -14 45 -37q14 -16 25 -49q8 -25 8 -53q0 -57 -27 -109q-29 -53 -71 -88q-53 -43 -107 -61q-63 -23 -129 -23q-25 0 -55.5 6t-61 18.5t-61 30.5t-55.5 43z" />
<glyph unicode="&#xb4;" horiz-adv-x="604" d="M162 1069l233 397l39 -6q10 -2 29.5 -5t28.5 -5q10 -2 29.5 -7l27.5 -7q31 -6 35 -9l22 -61l-377 -346q-16 4 -34 18q-23 21 -33 31z" />
<glyph unicode="&#xb5;" horiz-adv-x="1110" d="M-8 -465q6 63 18 129q6 31 11.5 70t13.5 82l28 168q8 45 16.5 88t14.5 82q6 37 14.5 77.5t14.5 83.5l22 146l19 125q10 68 10 114q0 20 -4 37q-4 14 -8 19q-8 8 -12.5 10t-14.5 2q-6 0 -26.5 -4t-30.5 -8l-37 -13l-14 68q6 2 63 27q18 8 36.5 14l35.5 12l74 29l67 22 q12 4 30.5 8.5t22.5 6.5q20 6 29 6q29 0 39 -18q8 -16 8 -66q0 -12 -4 -70q-2 -16 -7 -51t-5 -39q-4 -25 -7 -48t-8 -48q-12 -74 -16 -96q-2 -8 -6 -39l-6 -47q-4 -53 -4 -68q0 -82 24.5 -125t59.5 -43q16 0 40.5 12.5t53.5 40.5q33 33 63 78q35 51 76 121q2 8 16 88 q4 18 5.5 29.5t3.5 25t4 29.5q8 55 10 74q4 45 4 53q0 43 -2 66q-2 31 -14 53l53 18l76 27l78 27l57 16q2 -4 8 -12.5t8 -12.5q10 -12 13 -20l-17 -78l-22 -102l-11.5 -62t-11.5 -57q-8 -41 -20 -119q-14 -94 -17 -106q-6 -49 -6 -82q0 -63 12.5 -88t24.5 -25q23 0 51 21 q33 23 74 81l35 -59q-47 -78 -88 -125q-51 -59 -82 -80q-37 -25 -74 -39q-35 -12 -63 -12q-25 0 -50 21q-23 18 -36 51q-18 41 -27 78q-8 41 -12 96q-68 -117 -140 -182q-70 -63 -145 -64q-51 0 -98 35q-41 31 -78 96q-12 -109 -2 -182q12 -82 30 -144q18 -63 37 -102 l25 -51l-11.5 -6t-19.5 -8l-47 -19q-27 -10 -55 -22q-16 -6 -30.5 -12.5t-25.5 -10.5q-12 -4 -23 -10t-22 -10l-28 -13z" />
<glyph unicode="&#xb6;" horiz-adv-x="1107" d="M78 903q12 88 53 156q45 74 109 123q68 53 155 80q92 29 193 28q6 0 23.5 -1t27.5 -1q33 -2 72 -4q14 -2 40.5 -3t41.5 -1q14 -2 41.5 -2t42.5 -2l210 -16h58l-10 -72q-68 -16 -99 -33q-33 -18 -35 -31l-172 -1239q-3 -12 25 -30q20 -14 92 -31l-10 -74h-612l10 74 q74 18 98 31q35 18 37 30l88 639q-25 -4 -35 -4q-6 0 -21.5 -1t-23.5 -1q-90 0 -176 27q-76 25 -133 73q-55 49 -80 119q-22 66 -10 166zM319 829q6 -51 33 -98q23 -39 70 -69q45 -29 110 -29h39l76 541q-12 2 -33 2h-26q-43 0 -88 -16.5t-82 -47.5q-35 -29 -63.5 -74 t-35.5 -100q-8 -43 0 -109zM614 -115q0 -8 2 -12q2 -6 9 -8q2 0 5 -2t5 -4q8 -4 10 -4q12 4 25 10q12 8 16 20l174 1258q-14 4 -35 8l-37 6z" />
<glyph unicode="&#xb7;" horiz-adv-x="477" d="M90 596q0 31 12.5 63.5t38.5 63.5q25 27 58 45q35 18 77 18q59 0 90 -30.5t31 -77.5q0 -34 -12 -68q-14 -41 -35 -63q-25 -29 -59 -47q-33 -18 -78 -19q-63 0 -94 31q-29 29 -29 84z" />
<glyph unicode="&#xb8;" horiz-adv-x="323" d="M-166 -305q39 -16 78 -21q35 -4 59 7q27 10 39 22q14 14 15 37q0 20 -21 33q-27 14 -51 12l29 59q4 10 12 32t8 24q16 45 18 51l13 53l98 -2q-2 -23 -10 -57q-6 -28 -12 -43q66 -4 94 -37q31 -37 30 -86q0 -55 -32 -96q-35 -45 -90.5 -70t-126.5 -25q-74 0 -148 37z" />
<glyph unicode="&#xb9;" horiz-adv-x="669" d="M115 616l8 62q47 6 84 12t53 12q18 6 26.5 14.5t8.5 14.5l59 422q0 8 3 20.5t3 16.5q0 14 -8 22q-3 3 -12 7h-25q-29 0 -47 -2q-10 -2 -71 -15l-11 60q18 4 76 18l35 9t28.5 8.5t36.5 11.5q52 15 99 30q37 12 69 25l25 -25l-86 -608q0 -4 4 -12t19 -14q25 -10 45 -15 q27 -6 77 -12l-10 -62h-489z" />
<glyph unicode="&#xba;" horiz-adv-x="507" d="M23 614l12 31q2 6 6 14.5t6 14.5h438l25 -31q-10 -27 -12 -29q-6 -8 -15 -28h-438zM82 936q0 76 30.5 139.5t100.5 118.5q45 33 72 43q37 14 77 14q53 0 84 -14q37 -16 57.5 -43t33 -63.5t12.5 -81.5q0 -66 -37 -140q-37 -72 -94 -118q-33 -27 -70 -45.5t-80 -18.5 q-41 0 -78 16q-35 16 -59.5 43t-36.5 66q-12 37 -12 84zM215 971q0 -37 8 -62q10 -29 23 -51q14 -25 28 -35q18 -12 37 -12q29 0 47.5 18.5t30.5 49.5q14 35 17 65q4 49 4 70q0 76 -27 114q-29 41 -64 41q-29 0 -51 -18q-18 -16 -32 -47q-10 -25 -15 -64q0 -4 -3 -30.5 t-3 -38.5z" />
<glyph unicode="&#xbb;" horiz-adv-x="968" d="M45 43l10 18q4 8 12.5 20.5t16.5 27.5q35 59 39 67l23.5 40t19.5 36l22.5 35.5t22.5 40.5l39 67l13 25.5t13 21.5l11 19l-11 28q-8 31 -22 78l-31 101l-30 100q-14 47 -25 78l-8 31l57 45l309 -426q-4 -25 -6 -35v-12.5t-2 -12.5l-2 -12l-424 -424zM420 43l121 209l45 76 q4 8 39 67l26 47l11 19l-7 16q-2 6 -14 47q-12 43 -20 68l-11.5 38.5l-11.5 37.5l-66 209l62 45l307 -426l-2 -11q0 -16 -2 -24q0 -4 -2 -12.5t-2 -12.5l-2 -12l-424 -424z" />
<glyph unicode="&#xbc;" horiz-adv-x="1183" d="M72 0l985 1202q2 0 10 4t14 6q4 0 16.5 3.5t18.5 5.5l35 8q10 2 27 6l18 -29l-981 -1204q-14 -8 -29 -10q-4 0 -15 -3t-17 -5q-6 0 -17.5 -2t-17.5 -5q-8 -2 -18.5 -5t-12.5 -3zM127 637l6 43q51 4 72 8q28 6 43 12l24 11q8 8 9 12l55 348q2 12 2 31q0 12 -4 16 q-6 6 -35 6q-28 0 -98 -12l-8 41q6 0 15 2t22.5 6t23.5 6q18 4 78 23q41 12 78 24q43 14 57 21l20 -21l-77 -491q0 -4 4 -12q0 -2 18 -11q12 -6 37 -12q18 -4 63 -8l-6 -43h-399zM598 178l311 381l31 10q8 2 16.5 5.5t16.5 5.5t16 5t17 5q6 2 28 8l21 -20l-56 -349h72 l10 -14q-12 -15 -30 -31q-6 -4 -15.5 -12t-13.5 -12h-33l-14 -94q0 -6 12 -13q16 -8 55 -16l-6 -37h-305l6 37q53 10 57.5 10t34.5 8q10 2 16.5 8.5t6.5 8.5l14 88h-250zM719 229h158l36 240z" />
<glyph unicode="&#xbd;" horiz-adv-x="1183" d="M72 0l985 1202q2 0 10 4t14 6q4 0 16.5 3.5t18.5 5.5l35 8q10 2 27 6l18 -29l-981 -1204q-14 -8 -29 -10q-4 0 -15 -3t-17 -5q-6 0 -17.5 -2t-17.5 -5q-8 -2 -18.5 -5t-12.5 -3zM127 637l6 43q51 4 72 8q28 6 43 12l24 11q8 8 9 12l55 348q2 12 2 31q0 12 -4 16 q-6 6 -35 6q-28 0 -98 -12l-8 41q6 0 15 2t22.5 6t23.5 6q18 4 78 23q41 12 78 24q43 14 57 21l20 -21l-77 -491q0 -4 4 -12q0 -2 18 -11q12 -6 37 -12q18 -4 63 -8l-6 -43h-399zM635 37l172 156q63 61 113 116q41 47 61 88t20 66q4 72 -67 72q-20 0 -35 -9q-16 -10 -25 -20 q-12 -16 -14 -31q-4 -25 -4 -35q-6 -4 -25 -8q-8 -2 -16 -5t-18 -5q-6 0 -16.5 -2t-16.5 -4q-25 -4 -31 -4l-14 30q2 20 26 52q20 27 60 49q41 25 80 37q43 14 96 14q33 0 63 -6q25 -4 52 -21q25 -14 34 -32q12 -23 12.5 -51.5t-16.5 -61.5q-16 -35 -57 -78 q-57 -61 -106 -106q-45 -43 -175 -152h201q20 0 33 14q14 16 20 31q6 16 15 49l45 -10l-35 -170h-424z" />
<glyph unicode="&#xbe;" horiz-adv-x="1183" d="M72 0l985 1202q2 0 10 4t14 6q4 0 16.5 3.5t18.5 5.5l35 8q10 2 27 6l18 -29l-981 -1204q-14 -8 -29 -10q-4 0 -15 -3t-17 -5q-6 0 -17.5 -2t-17.5 -5q-8 -2 -18.5 -5t-12.5 -3zM109 705l30 47q47 -37 80 -47q40 -12 80 -13q51 0 90 35q35 33 39 96q3 55 -25 80 q-25 23 -69 23h-21q-2 0 -22 -4l-2 45q82 18 118.5 55t36.5 86q0 29 -12 47.5t-43 18.5t-49 -21q-18 -23 -16 -55q-4 -2 -13.5 -5t-13.5 -6q-18 -8 -35 -10q-6 0 -17.5 -4t-17.5 -4q-25 -4 -28 -4l-15 31q2 18 25 43q20 23 51 43q31 18 74 35q41 14 90 14q43 0 78 -10 q27 -8 49 -27q18 -15 24 -37q8 -29 9 -45q0 -45 -39 -84q-33 -33 -90 -55q31 -4 51 -15q22 -12 37 -30q16 -20 22 -41q6 -23 6 -49q-2 -41 -24 -82q-23 -43 -60 -70q-35 -27 -86 -45q-43 -16 -104 -16q-29 0 -45 4q-23 6 -51 16q-25 9 -49 25q-29 19 -43 35zM598 178 l311 381l31 10q8 2 16.5 5.5t16.5 5.5t16 5t17 5q6 2 28 8l21 -20l-56 -349h72l10 -14q-12 -15 -30 -31q-6 -4 -15.5 -12t-13.5 -12h-33l-14 -94q0 -6 12 -13q16 -8 55 -16l-6 -37h-305l6 37q53 10 57.5 10t34.5 8q10 2 16.5 8.5t6.5 8.5l14 88h-250zM719 229h158l36 240z " />
<glyph unicode="&#xbf;" horiz-adv-x="876" d="M-31 -287q0 82 29 150q27 63 72 121q43 55 96 102q57 51 98 94q49 51 80 101q33 51 43 118l10 88q18 16 52 29q12 4 31.5 11.5t23.5 9.5l20 -23l-4 -123q-2 -61 -24 -117q-18 -49 -58 -104q-45 -66 -71 -96l-72 -94q-34 -46 -55 -99q-20 -49 -21 -110q0 -45 8 -76 q10 -39 24.5 -61.5t41 -39t55.5 -16.5q33 0 58 19q23 16 38 49q15 31 19 73q4 49 -4 88l51 21l61 18q16 4 64 15l51 10l29 -39q0 -66 -33 -129q-35 -66 -94 -117q-59 -49 -146 -84q-84 -33 -188 -32q-70 0 -123 18t-88 51q-37 33 -55 78q-19 43 -19 96zM342 733q0 34 12 68 q14 37 37 63q27 31 58 47q34 18 79 19q65 0 93 -31q29 -33 28 -84q0 -33 -12 -65q-12 -34 -37 -62q-25 -29 -59 -47q-31 -16 -78 -16q-59 0 -90 30.5t-31 77.5z" />
<glyph unicode="&#xc0;" horiz-adv-x="1193" d="M-49 0l8 74q61 12 100 24q37 12 50 43l466 1063q16 14 54 39q6 4 59 31q29 14 60 24q37 12 53 19l227 -1176q2 -14 8 -24q6 -12 17 -21q4 -4 30 -12q23 -8 50 -10l-9 -74h-460l10 74q80 6 100 18q29 16 23 49l-56 287h-370l-127 -287q-12 -33 16.5 -45t104.5 -22l-11 -74 h-403zM424 551h295l-90 471zM391 1574l16 62q6 4 20.5 12t22.5 12l54 29q20 10 53 25l39 16l282 -324q-6 -6 -16 -18t-14 -20q-12 -18 -31 -29z" />
<glyph unicode="&#xc1;" horiz-adv-x="1193" d="M-49 0l8 74q61 12 100 24q37 12 50 43l466 1063q16 14 54 39q6 4 59 31q29 14 60 24q37 12 53 19l227 -1176q2 -14 8 -24q6 -12 17 -21q4 -4 30 -12q23 -8 50 -10l-9 -74h-460l10 74q80 6 100 18q29 16 23 49l-56 287h-370l-127 -287q-12 -33 16.5 -45t104.5 -22l-11 -74 h-403zM424 551h295l-90 471zM553 1406l354 324q10 -6 20.5 -11l22.5 -11l45 -25q12 -6 23.5 -14.5t19.5 -12.5q23 -12 33 -20v-62l-471 -235q-16 10 -27 29q-14 26 -20 38z" />
<glyph unicode="&#xc2;" horiz-adv-x="1193" d="M-49 0l8 74q61 12 100 24q37 12 50 43l466 1063q16 14 54 39q6 4 59 31q29 14 60 24q37 12 53 19l227 -1176q2 -14 8 -24q6 -12 17 -21q4 -4 30 -12q23 -8 50 -10l-9 -74h-460l10 74q80 6 100 18q29 16 23 49l-56 287h-370l-127 -287q-12 -33 16.5 -45t104.5 -22l-11 -74 h-403zM424 551h295l-90 471zM418 1398l291 307h120l207 -307q-20 -29 -28 -37q-10 -10 -31 -22l-234 174l-276 -174q-12 8 -25 22q-18 23 -24 37z" />
<glyph unicode="&#xc3;" horiz-adv-x="1193" d="M-49 0l8 74q61 12 100 24q37 12 50 43l466 1063q16 14 54 39q6 4 59 31q29 14 60 24q37 12 53 19l227 -1176q2 -14 8 -24q6 -12 17 -21q4 -4 30 -12q23 -8 50 -10l-9 -74h-460l10 74q80 6 100 18q29 16 23 49l-56 287h-370l-127 -287q-12 -33 16.5 -45t104.5 -22l-11 -74 h-403zM424 551h295l-90 471zM354 1370q18 35 54 90q31 51 65 90q37 43 78 71.5t84 28.5q39 0 78 -16q20 -8 67 -37l22.5 -13l18.5 -10.5l21 -11.5q29 -16 57 -16q43 0 78 28q34 28 74 86l65 -30q-4 -6 -14 -25.5l-17 -32.5q-12 -20 -41 -61q-35 -51 -45 -62q-27 -31 -51 -49 q-33 -27 -53 -34q-33 -14 -57 -15q-37 0 -74 17q-16 8 -66 36q-31 18 -63.5 35t-65.5 17q-20 0 -39 -7q-12 -4 -34 -22q-18 -15 -37 -37q-25 -29 -39 -47z" />
<glyph unicode="&#xc4;" horiz-adv-x="1193" d="M-49 0l8 74q61 12 100 24q37 12 50 43l466 1063q16 14 54 39q6 4 59 31q29 14 60 24q37 12 53 19l227 -1176q2 -14 8 -24q6 -12 17 -21q4 -4 30 -12q23 -8 50 -10l-9 -74h-460l10 74q80 6 100 18q29 16 23 49l-56 287h-370l-127 -287q-12 -33 16.5 -45t104.5 -22l-11 -74 h-403zM424 551h295l-90 471zM419 1464q0 31 13 63q14 37 31 60q23 31 49 47q25 16 65 16q47 0 71.5 -30.5t24.5 -69.5q0 -31 -12 -64q-14 -37 -31 -59q-20 -27 -50.5 -45.5t-65.5 -18.5q-51 0 -72 31q-23 33 -23 70zM807 1464q0 31 12 63q14 37 31 60q23 31 49 47 q25 16 65 16q47 0 72 -30.5t25 -69.5q0 -31 -13 -64q-14 -37 -30 -59q-20 -27 -51 -45.5t-66 -18.5q-49 0 -72 31q-22 33 -22 70z" />
<glyph unicode="&#xc5;" horiz-adv-x="1193" d="M-49 0l8 74q61 12 100 24q37 12 50 43l466 1063q16 14 54 39q6 4 59 31q29 14 60 24q37 12 53 19l227 -1176q2 -14 8 -24q6 -12 17 -21q4 -4 30 -12q23 -8 50 -10l-9 -74h-460l10 74q80 6 100 18q29 16 23 49l-56 287h-370l-127 -287q-12 -33 16.5 -45t104.5 -22l-11 -74 h-403zM424 551h295l-90 471zM549 1488q0 49 18 99q20 53 54 92q37 43 77.5 67.5t98.5 24.5q39 0 61 -10q31 -14 47 -33q20 -23 29 -49q10 -31 10 -60q0 -37 -20 -92q-16 -45 -54 -88q-34 -40 -79 -67q-47 -29 -101 -29q-29 0 -61 14q-27 12 -43 31q-20 25 -29 47 q-8 24 -8 53zM674 1531q0 -33 14 -49q14 -18 39 -18q18 0 33 8q10 6 26 27q12 14 19 39q6 23 6 45q0 33 -14 49q-16 18 -35 18q-23 0 -37 -8q-10 -6 -27 -27q-12 -15 -18 -36q-6 -23 -6 -48z" />
<glyph unicode="&#xc6;" horiz-adv-x="1533" d="M-39 0l10 74q66 10 92 22q35 16 52 45l489 963q8 16 6 26q-4 14 -18 23q-8 4 -43 16q-23 8 -74 19l8 72h1041l28 -31q-2 -8 -7 -30.5t-7 -35.5l-18 -80q-8 -33 -23 -77l-18 -56h-70q8 90 -4 142q-12 47 -47 47h-309l-56 -404h367l26 -35q-4 -4 -9 -13t-13 -19 q-8 -8 -14.5 -18.5t-14.5 -20.5q-2 -4 -11 -15.5t-15 -17.5t-14.5 -15.5t-10.5 -11.5q-25 31 -59 43q-37 12 -84 13h-162l-61 -441q-2 -12 4 -26q6 -10 24 -21q18 -9 55 -12q49 -4 99 -4h86q51 0 76 10q33 12 57 35q25 20 51 65q29 47 53 99l64 -27q-4 -16 -9 -39.5 t-12 -50.5q-12 -47 -22 -90q-6 -25 -11.5 -43.5l-9.5 -32.5q-10 -35 -14 -47h-872l10 74q59 14 96 30q35 16 37 29l68 492h-236l-248 -484q-16 -31 4 -45q18 -12 86 -22l-10 -74h-383zM565 735h197l51 381q0 12 -4 16.5t-14 4.5q-8 0 -23 -11q-8 -6 -18 -26z" />
<glyph unicode="&#xc7;" horiz-adv-x="1038" d="M61 459q0 98 21 192q23 104 59 189q39 92 103 176q61 84 145 151q41 31 82 52q49 25 92 38q45 14 96 25q43 8 97 8q55 0 98 -8q33 -6 90 -22q41 -12 76 -31q37 -20 55 -39q2 -2 -4 -19q-10 -27 -16 -36q-2 -4 -10.5 -19.5t-14.5 -25.5q-20 -33 -31 -48q-14 -23 -28 -41 q-14 -20 -23 -26l-59 14q-20 41 -33 62q-18 31 -47 53q-37 29 -59 37q-34 12 -74 12q-47 0 -78 -10q-39 -12 -78 -43q-59 -45 -104 -123q-43 -76 -68 -156q-27 -90 -35 -162q-12 -106 -12 -143q0 -106 28.5 -182t71.5 -119t93 -61q55 -20 94 -21q23 0 57 6q29 6 74 23 q31 12 90 45q68 39 113 72q4 -2 10 -13l10 -20l8 -23q3 -9 6 -12q-61 -61 -133 -113q-66 -47 -125 -73q-57 -27 -116 -39q-37 -8 -54 -11l-6 -30q-8 -39 -10 -43q66 -4 94 -37q31 -37 31 -86q0 -51 -35 -96q-37 -47 -88 -70q-55 -25 -127 -25q-74 0 -147 37l-2 70 q39 -16 77 -21q35 -4 60 7q27 10 39 22t12 37q0 20 -20 33q-27 14 -50 12l29 59l12.5 32t8.5 24q10 29 16 51l6 24q-55 6 -111 29q-72 31 -133 96q-55 57 -90 152q-33 86 -33 207z" />
<glyph unicode="&#xc8;" horiz-adv-x="1007" d="M-8 0l10 74q70 16 100 30q33 14 35 29l137 991q2 10 -26 31q-25 16 -92 33l10 72h815l33 -31l-7.5 -30.5t-7.5 -35.5l-18 -80q-4 -10 -11 -36.5t-12 -40.5q-14 -43 -20 -56h-70q4 36 4 66q0 45 -8 76q-12 49 -47 49h-309l-57 -406h368l29 -35q-4 -6 -12.5 -17t-10.5 -15 l-14 -18.5t-14 -20.5q-2 -2 -12.5 -15.5t-16.5 -19.5l-9 -9t-8 -9.5t-8 -6.5q-14 18 -28 27q-18 10 -37 16q-27 8 -51 11q-20 2 -74 2h-117l-59 -441q-4 -16 2 -26.5t24 -20.5q18 -9 56 -12q49 -4 98 -4h92q47 0 74 10q37 14 57 35q23 23 49 65q29 47 54 99l63 -27 q-4 -16 -9 -39.5l-11 -50.5l-23 -90l-11 -44t-9 -32q-6 -18 -17 -47h-874zM299 1574l16 62q6 4 20.5 12t22.5 12l54 29q20 10 53 25l39 16l282 -324q-6 -6 -16 -18t-14 -20q-12 -18 -31 -29z" />
<glyph unicode="&#xc9;" horiz-adv-x="1007" d="M-8 0l10 74q70 16 100 30q33 14 35 29l137 991q2 10 -26 31q-25 16 -92 33l10 72h815l33 -31l-7.5 -30.5t-7.5 -35.5l-18 -80q-4 -10 -11 -36.5t-12 -40.5q-14 -43 -20 -56h-70q4 36 4 66q0 45 -8 76q-12 49 -47 49h-309l-57 -406h368l29 -35q-4 -6 -12.5 -17t-10.5 -15 l-14 -18.5t-14 -20.5q-2 -2 -12.5 -15.5t-16.5 -19.5l-9 -9t-8 -9.5t-8 -6.5q-14 18 -28 27q-18 10 -37 16q-27 8 -51 11q-20 2 -74 2h-117l-59 -441q-4 -16 2 -26.5t24 -20.5q18 -9 56 -12q49 -4 98 -4h92q47 0 74 10q37 14 57 35q23 23 49 65q29 47 54 99l63 -27 q-4 -16 -9 -39.5l-11 -50.5l-23 -90l-11 -44t-9 -32q-6 -18 -17 -47h-874zM461 1406l354 324q10 -6 20.5 -11l22.5 -11l45 -25q12 -6 23.5 -14.5t19.5 -12.5q23 -12 33 -20v-62l-471 -235q-16 10 -27 29q-14 26 -20 38z" />
<glyph unicode="&#xca;" horiz-adv-x="1007" d="M-8 0l10 74q70 16 100 30q33 14 35 29l137 991q2 10 -26 31q-25 16 -92 33l10 72h815l33 -31l-7.5 -30.5t-7.5 -35.5l-18 -80q-4 -10 -11 -36.5t-12 -40.5q-14 -43 -20 -56h-70q4 36 4 66q0 45 -8 76q-12 49 -47 49h-309l-57 -406h368l29 -35q-4 -6 -12.5 -17t-10.5 -15 l-14 -18.5t-14 -20.5q-2 -2 -12.5 -15.5t-16.5 -19.5l-9 -9t-8 -9.5t-8 -6.5q-14 18 -28 27q-18 10 -37 16q-27 8 -51 11q-20 2 -74 2h-117l-59 -441q-4 -16 2 -26.5t24 -20.5q18 -9 56 -12q49 -4 98 -4h92q47 0 74 10q37 14 57 35q23 23 49 65q29 47 54 99l63 -27 q-4 -16 -9 -39.5l-11 -50.5l-23 -90l-11 -44t-9 -32q-6 -18 -17 -47h-874zM326 1398l291 307h120l207 -307q-20 -29 -28 -37q-10 -10 -31 -22l-234 174l-276 -174q-12 8 -25 22q-18 23 -24 37z" />
<glyph unicode="&#xcb;" horiz-adv-x="1007" d="M-8 0l10 74q70 16 100 30q33 14 35 29l137 991q2 10 -26 31q-25 16 -92 33l10 72h815l33 -31l-7.5 -30.5t-7.5 -35.5l-18 -80q-4 -10 -11 -36.5t-12 -40.5q-14 -43 -20 -56h-70q4 36 4 66q0 45 -8 76q-12 49 -47 49h-309l-57 -406h368l29 -35q-4 -6 -12.5 -17t-10.5 -15 l-14 -18.5t-14 -20.5q-2 -2 -12.5 -15.5t-16.5 -19.5l-9 -9t-8 -9.5t-8 -6.5q-14 18 -28 27q-18 10 -37 16q-27 8 -51 11q-20 2 -74 2h-117l-59 -441q-4 -16 2 -26.5t24 -20.5q18 -9 56 -12q49 -4 98 -4h92q47 0 74 10q37 14 57 35q23 23 49 65q29 47 54 99l63 -27 q-4 -16 -9 -39.5l-11 -50.5l-23 -90l-11 -44t-9 -32q-6 -18 -17 -47h-874zM327 1464q0 31 13 63q14 37 31 60q23 31 49 47q25 16 65 16q47 0 71.5 -30.5t24.5 -69.5q0 -31 -12 -64q-14 -37 -31 -59q-20 -27 -50.5 -45.5t-65.5 -18.5q-51 0 -72 31q-23 33 -23 70zM715 1464 q0 31 12 63q14 37 31 60q23 31 49 47q25 16 65 16q47 0 72 -30.5t25 -69.5q0 -31 -13 -64q-14 -37 -30 -59q-20 -27 -51 -45.5t-66 -18.5q-49 0 -72 31q-22 33 -22 70z" />
<glyph unicode="&#xcc;" horiz-adv-x="630" d="M12 0l11 74q65 15 98 30q35 16 37 29l135 991q3 12 -25 31q-25 16 -94 33l10 72h488l-10 -72q-72 -16 -101 -33q-35 -18 -37 -31l-135 -991q-2 -10 25 -29q18 -12 94 -30l-10 -74h-486zM106 1574l16 62q6 4 20.5 12t22.5 12l54 29q20 10 53 25l39 16l282 -324 q-6 -6 -16 -18t-14 -20q-12 -18 -31 -29z" />
<glyph unicode="&#xcd;" horiz-adv-x="630" d="M12 0l11 74q65 15 98 30q35 16 37 29l135 991q3 12 -25 31q-25 16 -94 33l10 72h488l-10 -72q-72 -16 -101 -33q-35 -18 -37 -31l-135 -991q-2 -10 25 -29q18 -12 94 -30l-10 -74h-486zM268 1406l354 324q10 -6 20.5 -11l22.5 -11l45 -25q12 -6 23.5 -14.5t19.5 -12.5 q23 -12 33 -20v-62l-471 -235q-16 10 -27 29q-14 26 -20 38z" />
<glyph unicode="&#xce;" horiz-adv-x="630" d="M12 0l11 74q65 15 98 30q35 16 37 29l135 991q3 12 -25 31q-25 16 -94 33l10 72h488l-10 -72q-72 -16 -101 -33q-35 -18 -37 -31l-135 -991q-2 -10 25 -29q18 -12 94 -30l-10 -74h-486zM135 1398l291 307h120l207 -307q-20 -29 -28 -37q-10 -10 -31 -22l-234 174 l-276 -174q-12 8 -25 22q-18 23 -24 37z" />
<glyph unicode="&#xcf;" horiz-adv-x="630" d="M12 0l11 74q65 15 98 30q35 16 37 29l135 991q3 12 -25 31q-25 16 -94 33l10 72h488l-10 -72q-72 -16 -101 -33q-35 -18 -37 -31l-135 -991q-2 -10 25 -29q18 -12 94 -30l-10 -74h-486zM137 1464q0 31 13 63q14 37 31 60q23 31 49 47q25 16 65 16q47 0 71.5 -30.5 t24.5 -69.5q0 -31 -12 -64q-14 -37 -31 -59q-20 -27 -50.5 -45.5t-65.5 -18.5q-51 0 -72 31q-23 33 -23 70zM525 1464q0 31 12 63q14 37 31 60q23 31 49 47q25 16 65 16q47 0 72 -30.5t25 -69.5q0 -31 -13 -64q-14 -37 -30 -59q-20 -27 -51 -45.5t-66 -18.5q-49 0 -72 31 q-22 33 -22 70z" />
<glyph unicode="&#xd0;" horiz-adv-x="1206" d="M-8 0l10 74q59 14 96 30q35 16 37 29l64 467h-115l-27 31q2 4 5.5 9t5.5 9q10 20 14 27q8 12 14 24l10 21h109l61 438l-141 -20v94q61 16 121 24l127 17q10 0 54 5t69 7q82 4 110 4q144 0 252 -37q102 -35 176 -108q72 -72 105 -168t33 -223q0 -94 -21 -179 q-23 -94 -61 -174q-41 -86 -99 -157q-55 -70 -131 -127q-72 -53 -165 -86q-90 -31 -193 -31h-520zM375 162q-4 -29 22 -41q33 -14 103 -15q72 0 127 27q61 29 106 72q51 47 86 106q37 61 62 129q25 66 37 144q12 74 12 143q0 109 -21 191q-23 90 -63 145q-45 59 -111 90 q-68 31 -164 31q-6 0 -14 -1t-14 -1t-16.5 -1t-14.5 -1l-63 -459h237l27 -33l-49 -88h-232z" />
<glyph unicode="&#xd1;" horiz-adv-x="1263" d="M-2 0l10 74q72 10 101 26q31 18 32 33l135 981q-53 61 -118 74l10 72h256q18 0 25 -3q12 -4 18 -10q8 -6 16 -22l23 -43l452 -852l109 794q0 10 -2 15q-6 9 -18 18q-6 6 -37 17q-20 8 -60 14l8 72h392l-9 -72q-72 -10 -102 -29q-29 -18 -33 -35l-159 -1155 q-88 10 -138 37q-53 31 -73 74l-447 842l-108 -789q0 -8 4 -14q6 -8 18 -17l10 -5t14.5 -6l14.5 -5q8 -4 57 -12l-10 -74h-391zM399 1370q18 35 54 90q31 51 65 90q37 43 78 71.5t84 28.5q39 0 78 -16q20 -8 67 -37l22.5 -13l18.5 -10.5l21 -11.5q29 -16 57 -16q43 0 78 28 q34 28 74 86l65 -30q-4 -6 -14 -25.5l-17 -32.5q-12 -20 -41 -61q-35 -51 -45 -62q-27 -31 -51 -49q-33 -27 -53 -34q-33 -14 -57 -15q-37 0 -74 17q-16 8 -66 36q-31 18 -63.5 35t-65.5 17q-20 0 -39 -7q-12 -4 -34 -22q-18 -15 -37 -37q-25 -29 -39 -47z" />
<glyph unicode="&#xd2;" horiz-adv-x="1171" d="M76 485q0 76 12 146q12 66 35 139q23 72 55 131q34 61 74 117q57 74 92 106q57 53 111 86q59 35 131 58q74 23 149 22q104 0 187 -41q76 -39 131 -112.5t77 -163.5q25 -96 25 -199q0 -70 -12 -143q-10 -63 -39 -146q-25 -68 -62 -137q-33 -61 -81 -123q-43 -55 -95 -100 q-59 -51 -110 -82q-49 -29 -123 -53q-61 -20 -131 -21q-100 0 -183 41q-76 39 -133 111q-53 68 -81.5 166t-28.5 198zM317 532q0 -90 17 -172q14 -76 47 -133q33 -59 76 -88q46 -31 104 -30q61 0 115 30q49 29 90 80q40 49 68 117q31 72 47 139q20 78 28 146q8 66 9 135 q0 80 -17 157q-14 72 -47 129q-29 51 -78 84q-47 31 -106.5 31t-110.5 -29q-49 -29 -90 -77q-43 -53 -68 -111q-31 -74 -47 -133q-20 -78 -28.5 -141.5t-8.5 -133.5zM401 1574l16 62q6 4 20.5 12t22.5 12l54 29q20 10 53 25l39 16l282 -324q-6 -6 -16 -18t-14 -20 q-12 -18 -31 -29z" />
<glyph unicode="&#xd3;" horiz-adv-x="1171" d="M76 485q0 76 12 146q12 66 35 139q23 72 55 131q34 61 74 117q57 74 92 106q57 53 111 86q59 35 131 58q74 23 149 22q104 0 187 -41q76 -39 131 -112.5t77 -163.5q25 -96 25 -199q0 -70 -12 -143q-10 -63 -39 -146q-25 -68 -62 -137q-33 -61 -81 -123q-43 -55 -95 -100 q-59 -51 -110 -82q-49 -29 -123 -53q-61 -20 -131 -21q-100 0 -183 41q-76 39 -133 111q-53 68 -81.5 166t-28.5 198zM317 532q0 -90 17 -172q14 -76 47 -133q33 -59 76 -88q46 -31 104 -30q61 0 115 30q49 29 90 80q40 49 68 117q31 72 47 139q20 78 28 146q8 66 9 135 q0 80 -17 157q-14 72 -47 129q-29 51 -78 84q-47 31 -106.5 31t-110.5 -29q-49 -29 -90 -77q-43 -53 -68 -111q-31 -74 -47 -133q-20 -78 -28.5 -141.5t-8.5 -133.5zM563 1406l354 324q10 -6 20.5 -11l22.5 -11l45 -25q12 -6 23.5 -14.5t19.5 -12.5q23 -12 33 -20v-62 l-471 -235q-16 10 -27 29q-14 26 -20 38z" />
<glyph unicode="&#xd4;" horiz-adv-x="1171" d="M76 485q0 76 12 146q12 66 35 139q23 72 55 131q34 61 74 117q57 74 92 106q57 53 111 86q59 35 131 58q74 23 149 22q104 0 187 -41q76 -39 131 -112.5t77 -163.5q25 -96 25 -199q0 -70 -12 -143q-10 -63 -39 -146q-25 -68 -62 -137q-33 -61 -81 -123q-43 -55 -95 -100 q-59 -51 -110 -82q-49 -29 -123 -53q-61 -20 -131 -21q-100 0 -183 41q-76 39 -133 111q-53 68 -81.5 166t-28.5 198zM317 532q0 -90 17 -172q14 -76 47 -133q33 -59 76 -88q46 -31 104 -30q61 0 115 30q49 29 90 80q40 49 68 117q31 72 47 139q20 78 28 146q8 66 9 135 q0 80 -17 157q-14 72 -47 129q-29 51 -78 84q-47 31 -106.5 31t-110.5 -29q-49 -29 -90 -77q-43 -53 -68 -111q-31 -74 -47 -133q-20 -78 -28.5 -141.5t-8.5 -133.5zM428 1398l291 307h120l207 -307q-20 -29 -28 -37q-10 -10 -31 -22l-234 174l-276 -174q-12 8 -25 22 q-18 23 -24 37z" />
<glyph unicode="&#xd5;" horiz-adv-x="1171" d="M76 485q0 76 12 146q12 66 35 139q23 72 55 131q34 61 74 117q57 74 92 106q57 53 111 86q59 35 131 58q74 23 149 22q104 0 187 -41q76 -39 131 -112.5t77 -163.5q25 -96 25 -199q0 -70 -12 -143q-10 -63 -39 -146q-25 -68 -62 -137q-33 -61 -81 -123q-43 -55 -95 -100 q-59 -51 -110 -82q-49 -29 -123 -53q-61 -20 -131 -21q-100 0 -183 41q-76 39 -133 111q-53 68 -81.5 166t-28.5 198zM317 532q0 -90 17 -172q14 -76 47 -133q33 -59 76 -88q46 -31 104 -30q61 0 115 30q49 29 90 80q40 49 68 117q31 72 47 139q20 78 28 146q8 66 9 135 q0 80 -17 157q-14 72 -47 129q-29 51 -78 84q-47 31 -106.5 31t-110.5 -29q-49 -29 -90 -77q-43 -53 -68 -111q-31 -74 -47 -133q-20 -78 -28.5 -141.5t-8.5 -133.5zM364 1370q18 35 54 90q31 51 65 90q37 43 78 71.5t84 28.5q39 0 78 -16q20 -8 67 -37l22.5 -13l18.5 -10.5 l21 -11.5q29 -16 57 -16q43 0 78 28q34 28 74 86l65 -30q-4 -6 -14 -25.5l-17 -32.5q-12 -20 -41 -61q-35 -51 -45 -62q-27 -31 -51 -49q-33 -27 -53 -34q-33 -14 -57 -15q-37 0 -74 17q-16 8 -66 36q-31 18 -63.5 35t-65.5 17q-20 0 -39 -7q-12 -4 -34 -22q-18 -15 -37 -37 q-25 -29 -39 -47z" />
<glyph unicode="&#xd6;" horiz-adv-x="1171" d="M76 485q0 76 12 146q12 66 35 139q23 72 55 131q34 61 74 117q57 74 92 106q57 53 111 86q59 35 131 58q74 23 149 22q104 0 187 -41q76 -39 131 -112.5t77 -163.5q25 -96 25 -199q0 -70 -12 -143q-10 -63 -39 -146q-25 -68 -62 -137q-33 -61 -81 -123q-43 -55 -95 -100 q-59 -51 -110 -82q-49 -29 -123 -53q-61 -20 -131 -21q-100 0 -183 41q-76 39 -133 111q-53 68 -81.5 166t-28.5 198zM317 532q0 -90 17 -172q14 -76 47 -133q33 -59 76 -88q46 -31 104 -30q61 0 115 30q49 29 90 80q40 49 68 117q31 72 47 139q20 78 28 146q8 66 9 135 q0 80 -17 157q-14 72 -47 129q-29 51 -78 84q-47 31 -106.5 31t-110.5 -29q-49 -29 -90 -77q-43 -53 -68 -111q-31 -74 -47 -133q-20 -78 -28.5 -141.5t-8.5 -133.5zM430 1464q0 31 13 63q14 37 31 60q23 31 49 47q25 16 65 16q47 0 71.5 -30.5t24.5 -69.5q0 -31 -12 -64 q-14 -37 -31 -59q-20 -27 -50.5 -45.5t-65.5 -18.5q-51 0 -72 31q-23 33 -23 70zM818 1464q0 31 12 63q14 37 31 60q23 31 49 47q25 16 65 16q47 0 72 -30.5t25 -69.5q0 -31 -13 -64q-14 -37 -30 -59q-20 -27 -51 -45.5t-66 -18.5q-49 0 -72 31q-22 33 -22 70z" />
<glyph unicode="&#xd7;" horiz-adv-x="817" d="M45 281l4 34l262 248l-192 248l4 33q8 4 24 10q8 2 16.5 6l16.5 8q4 2 16.5 6.5t16.5 6.5t12 5l13 5l180 -229l241 229q4 -2 10.5 -5t12.5 -5l31 -13l28 -14l23 -10l-6 -33l-262 -248l194 -248l-4 -34q-6 -2 -27 -11l-16 -8t-16 -6l-31 -12l-25 -8l-182 229l-242 -229 l-20 8q-14 6 -31 12q-6 2 -14 7t-14 7z" />
<glyph unicode="&#xd8;" horiz-adv-x="1169" d="M14 -16l144 178q-41 68 -62 149q-20 80 -20 174q0 76 12 146q12 66 35 139q23 72 55 131q34 61 74 117q57 74 92 106q57 53 111 86q59 35 131 58q74 23 149 22q83 0 148 -24q66 -25 114 -68l54 66q8 6 34 16q10 4 45 14l44 13q14 2 34 6l25 -37l-150 -186q37 -63 56 -146 q16 -72 16 -170q0 -70 -12 -143q-10 -63 -39 -146q-25 -68 -62 -137q-33 -61 -81 -123q-43 -55 -95 -100q-59 -51 -110 -82q-49 -29 -123 -53q-61 -20 -131 -21q-72 0 -140 23q-59 20 -114 65l-47 -59q-4 -4 -33 -16q-14 -6 -47 -14.5t-47 -12.5l-20.5 -5t-14.5 -3zM317 532 q0 -55 2.5 -81.5t10.5 -75.5l530 653q-31 61 -78 96q-45 33 -112 33q-59 0 -111 -29q-49 -29 -90 -77q-43 -53 -68 -111q-31 -74 -47 -133q-20 -78 -28.5 -141.5t-8.5 -133.5zM383 223q31 -57 76 -86q43 -29 102 -28q61 0 115 30q49 29 90 80q40 49 68 117q31 72 47 139 q20 78 28 146q8 66 9 135q0 57 -11 118z" />
<glyph unicode="&#xd9;" horiz-adv-x="1267" d="M162 1188l8 72h481l-10 -72q-63 -14 -96 -33q-35 -18 -37 -31l-88 -614q-2 -10 -4 -28.5t-4 -28.5q-2 -18 -2 -56q0 -139 61 -211q61 -70 186 -69q66 0 113 26q51 29 84 74q37 49 57.5 112.5t30.5 139.5l92 655q0 8 -4 15q-4 4 -18 16q-4 4 -35 16q-25 10 -53 17l10 72 h401l-10 -72q-66 -16 -94 -33q-31 -18 -33 -31l-88 -612q-18 -137 -66 -233q-53 -109 -116 -170q-72 -70 -158 -105q-84 -35 -186 -35q-84 0 -158 24.5t-129 74t-88 118.5q-35 74 -35 162q0 47 10 115l95 661q3 12 -25 31q-24 17 -92 33zM448 1574l16 62q6 4 20.5 12 t22.5 12l54 29q20 10 53 25l39 16l282 -324q-6 -6 -16 -18t-14 -20q-12 -18 -31 -29z" />
<glyph unicode="&#xda;" horiz-adv-x="1267" d="M162 1188l8 72h481l-10 -72q-63 -14 -96 -33q-35 -18 -37 -31l-88 -614q-2 -10 -4 -28.5t-4 -28.5q-2 -18 -2 -56q0 -139 61 -211q61 -70 186 -69q66 0 113 26q51 29 84 74q37 49 57.5 112.5t30.5 139.5l92 655q0 8 -4 15q-4 4 -18 16q-4 4 -35 16q-25 10 -53 17l10 72 h401l-10 -72q-66 -16 -94 -33q-31 -18 -33 -31l-88 -612q-18 -137 -66 -233q-53 -109 -116 -170q-72 -70 -158 -105q-84 -35 -186 -35q-84 0 -158 24.5t-129 74t-88 118.5q-35 74 -35 162q0 47 10 115l95 661q3 12 -25 31q-24 17 -92 33zM610 1406l354 324q10 -6 20.5 -11 l22.5 -11l45 -25q12 -6 23.5 -14.5t19.5 -12.5q23 -12 33 -20v-62l-471 -235q-16 10 -27 29q-14 26 -20 38z" />
<glyph unicode="&#xdb;" horiz-adv-x="1267" d="M162 1188l8 72h481l-10 -72q-63 -14 -96 -33q-35 -18 -37 -31l-88 -614q-2 -10 -4 -28.5t-4 -28.5q-2 -18 -2 -56q0 -139 61 -211q61 -70 186 -69q66 0 113 26q51 29 84 74q37 49 57.5 112.5t30.5 139.5l92 655q0 8 -4 15q-4 4 -18 16q-4 4 -35 16q-25 10 -53 17l10 72 h401l-10 -72q-66 -16 -94 -33q-31 -18 -33 -31l-88 -612q-18 -137 -66 -233q-53 -109 -116 -170q-72 -70 -158 -105q-84 -35 -186 -35q-84 0 -158 24.5t-129 74t-88 118.5q-35 74 -35 162q0 47 10 115l95 661q3 12 -25 31q-24 17 -92 33zM477 1398l291 307h120l207 -307 q-20 -29 -28 -37q-10 -10 -31 -22l-234 174l-276 -174q-12 8 -25 22q-18 23 -24 37z" />
<glyph unicode="&#xdc;" horiz-adv-x="1267" d="M162 1188l8 72h481l-10 -72q-63 -14 -96 -33q-35 -18 -37 -31l-88 -614q-2 -10 -4 -28.5t-4 -28.5q-2 -18 -2 -56q0 -139 61 -211q61 -70 186 -69q66 0 113 26q51 29 84 74q37 49 57.5 112.5t30.5 139.5l92 655q0 8 -4 15q-4 4 -18 16q-4 4 -35 16q-25 10 -53 17l10 72 h401l-10 -72q-66 -16 -94 -33q-31 -18 -33 -31l-88 -612q-18 -137 -66 -233q-53 -109 -116 -170q-72 -70 -158 -105q-84 -35 -186 -35q-84 0 -158 24.5t-129 74t-88 118.5q-35 74 -35 162q0 47 10 115l95 661q3 12 -25 31q-24 17 -92 33zM479 1464q0 31 13 63q14 37 31 60 q23 31 49 47q25 16 65 16q47 0 71.5 -30.5t24.5 -69.5q0 -31 -12 -64q-14 -37 -31 -59q-20 -27 -50.5 -45.5t-65.5 -18.5q-51 0 -72 31q-23 33 -23 70zM867 1464q0 31 12 63q14 37 31 60q23 31 49 47q25 16 65 16q47 0 72 -30.5t25 -69.5q0 -31 -13 -64q-14 -37 -30 -59 q-20 -27 -51 -45.5t-66 -18.5q-49 0 -72 31q-22 33 -22 70z" />
<glyph unicode="&#xdd;" horiz-adv-x="1169" d="M119 1165l4 72q14 2 29.5 6t33.5 6q12 2 36 5t36 6l70 8q41 4 51 4q23 0 47.5 -12.5t36.5 -34.5q23 -39 57 -117l62 -139q33 -78 55 -150l45 -141l279 442q18 27 -5 43q-22 15 -92 25l10 72h388l-11 -72q-12 -2 -31.5 -8t-23.5 -6q-16 -4 -41 -13q-8 -2 -29 -18 q-8 -6 -20 -23l-379 -598l-51 -377q0 -8 4 -14q6 -10 20 -18q23 -14 43 -21q33 -10 68 -18l-8 -74h-524l10 74q45 10 71 18q31 10 47.5 18.5t26.5 18.5q8 8 8 16l54 387q-33 119 -50 162l-61 164q-27 72 -66 148q-34 68 -61 116q-6 12 -14 20.5t-25 14.5q-4 2 -39 6 q-16 2 -61 2zM557 1406l354 324q10 -6 20.5 -11l22.5 -11l45 -25q12 -6 23.5 -14.5t19.5 -12.5q23 -12 33 -20v-62l-471 -235q-16 10 -27 29q-14 26 -20 38z" />
<glyph unicode="&#xde;" horiz-adv-x="1064" d="M-6 0l8 74q65 15 98 30q33 14 35 29l135 991q3 12 -24 31q-27 18 -90 33l10 72h514l-10 -72q-49 -10 -78 -19q-10 -2 -27.5 -7t-23.5 -7q-4 -2 -27 -16q-10 -6 -10 -15l-15 -106q2 0 66 6q45 4 74 4q96 0 174 -24q70 -23 131 -70q51 -39 84 -107q31 -61 31 -137 q0 -84 -35 -166q-35 -80 -96 -139q-63 -59 -146 -92q-94 -37 -188 -37q-45 0 -78 8q-37 10 -64 27l-10 102q31 -16 70 -22q35 -6 65 -6q55 0 97 20q43 20 75 57q31 35 52 90q18 53 18 119q0 63 -21 119q-20 57 -51 84q-37 33 -75 47q-41 14 -95 14q-31 0 -47 -2 q-33 -4 -47 -8l-102 -772q-2 -6 4 -12t22 -15q8 -4 45 -16q12 -4 74 -16l-8 -74h-514z" />
<glyph unicode="&#xdf;" horiz-adv-x="1120" d="M-166 -399q57 31 92 84q43 63 72 131q23 53 49 157q22 83 31 166l88 760q23 168 96 299q76 133 207 227q61 45 129 68q74 25 147 25q78 0 140 -25q57 -23 104 -70q43 -43 64 -94q23 -55 22 -104q0 -84 -24 -140q-27 -61 -60 -96q-45 -49 -78 -69q-16 -10 -77 -56 q-39 -29 -61.5 -57.5t-22.5 -75.5q0 -41 22 -65q25 -28 62 -56q49 -37 77 -55q23 -14 76 -63q35 -33 62 -78q23 -39 22 -103q0 -70 -31 -125q-35 -63 -90 -112q-57 -51 -131 -82q-78 -33 -157 -33q-39 0 -89 16q-47 16 -81 39q-39 27 -60 49q-25 28 -24 50q0 6 6 22 q2 6 8 18.5t8 18.5l25 43q16 29 24 41q12 18 24.5 30.5t18.5 12.5t17 -16q6 -10 20 -39q6 -10 11.5 -23.5t13.5 -27.5q16 -29 32 -52q12 -18 44 -39q23 -16 49 -16q18 0 51 8q25 6 43 24.5t31 45.5q12 29 12 69q0 59 -23 97q-29 45 -59 71q-35 29 -78 56q-37 23 -76 55 q-35 29 -59 66q-23 33 -23 90q0 49 13 86q10 29 37 63q25 33 49 51l57 45l59 43q28 22 50 50q27 35 36 63q12 37 12.5 84t-14.5 84q-16 45 -38 72q-25 31 -56 49q-27 16 -63 16q-59 0 -106.5 -34.5t-78.5 -92.5q-35 -66 -51 -135.5t-26 -159.5l-88 -759q-12 -104 -58 -213 q-43 -101 -104.5 -190.5t-134.5 -160.5q-68 -66 -148 -114z" />
<glyph unicode="&#xe0;" d="M39 305q0 88 18 154q20 76 60 145q37 68 92 129q49 53 127 109q20 14 59 35q35 18 70 30q25 8 78 21q35 8 82 8q43 0 82 -18q41 -18 75 -41q12 8 39 18t31 12q43 18 59 29l31 -66q-12 -10 -26.5 -24.5t-20.5 -24.5q-8 -12 -14 -37q-6 -22 -13 -55q-8 -37 -26 -139 l-21 -123q-8 -53 -12 -100q-4 -57 -4 -66q0 -72 14 -113q16 -45 37 -45t45 7q33 8 64 22l16 -66l-84 -57l-78 -47l-65 -31q-29 -12 -45 -12q-20 0 -39 10q-25 14 -41 39q-20 31 -35 74q-14 41 -21 117q-29 -41 -69 -88q-37 -43 -76 -76q-45 -37 -80 -55q-41 -20 -82 -21 q-37 0 -76 18q-40 18 -73 62q-35 43 -56 106q-22 68 -22 160zM264 379q0 -59 8 -98q8 -37 23 -70q10 -25 31 -41q16 -14 36 -14q33 0 91 57q55 55 131 166q8 57 12 90l16 94q10 57 15 88q6 43 12 74q-14 14 -61 47q-33 23 -64 23q-41 0 -76 -23q-45 -29 -63 -51 q-25 -29 -47.5 -76t-34.5 -90q-16 -63 -21 -90q-8 -61 -8 -86zM315 1382l41 52q4 0 17.5 2t23.5 4q29 6 62 12q47 8 63 10q8 0 17.5 1t14.5 2t9 1l125 -411q-29 -16 -43 -23q-20 -8 -41 -12z" />
<glyph unicode="&#xe1;" d="M39 305q0 88 18 154q20 76 60 145q37 68 92 129q49 53 127 109q20 14 59 35q35 18 70 30q25 8 78 21q35 8 82 8q43 0 82 -18q41 -18 75 -41q12 8 39 18t31 12q43 18 59 29l31 -66q-12 -10 -26.5 -24.5t-20.5 -24.5q-8 -12 -14 -37q-6 -22 -13 -55q-8 -37 -26 -139 l-21 -123q-8 -53 -12 -100q-4 -57 -4 -66q0 -72 14 -113q16 -45 37 -45t45 7q33 8 64 22l16 -66l-84 -57l-78 -47l-65 -31q-29 -12 -45 -12q-20 0 -39 10q-25 14 -41 39q-20 31 -35 74q-14 41 -21 117q-29 -41 -69 -88q-37 -43 -76 -76q-45 -37 -80 -55q-41 -20 -82 -21 q-37 0 -76 18q-40 18 -73 62q-35 43 -56 106q-22 68 -22 160zM264 379q0 -59 8 -98q8 -37 23 -70q10 -25 31 -41q16 -14 36 -14q33 0 91 57q55 55 131 166q8 57 12 90l16 94q10 57 15 88q6 43 12 74q-14 14 -61 47q-33 23 -64 23q-41 0 -76 -23q-45 -29 -63 -51 q-25 -29 -47.5 -76t-34.5 -90q-16 -63 -21 -90q-8 -61 -8 -86zM512 1069l236 397l38 -6q27 -4 58 -10q10 -2 28.5 -7t26.5 -7l37 -9l23 -61l-379 -346q-16 4 -35 18q-23 21 -33 31z" />
<glyph unicode="&#xe2;" d="M39 305q0 88 18 154q20 76 60 145q37 68 92 129q49 53 127 109q20 14 59 35q35 18 70 30q25 8 78 21q35 8 82 8q43 0 82 -18q41 -18 75 -41q12 8 39 18t31 12q43 18 59 29l31 -66q-12 -10 -26.5 -24.5t-20.5 -24.5q-8 -12 -14 -37q-6 -22 -13 -55q-8 -37 -26 -139 l-21 -123q-8 -53 -12 -100q-4 -57 -4 -66q0 -72 14 -113q16 -45 37 -45t45 7q33 8 64 22l16 -66l-84 -57l-78 -47l-65 -31q-29 -12 -45 -12q-20 0 -39 10q-25 14 -41 39q-20 31 -35 74q-14 41 -21 117q-29 -41 -69 -88q-37 -43 -76 -76q-45 -37 -80 -55q-41 -20 -82 -21 q-37 0 -76 18q-40 18 -73 62q-35 43 -56 106q-22 68 -22 160zM264 379q0 -59 8 -98q8 -37 23 -70q10 -25 31 -41q16 -14 36 -14q33 0 91 57q55 55 131 166q8 57 12 90l16 94q10 57 15 88q6 43 12 74q-14 14 -61 47q-33 23 -64 23q-41 0 -76 -23q-45 -29 -63 -51 q-25 -29 -47.5 -76t-34.5 -90q-16 -63 -21 -90q-8 -61 -8 -86zM282 1079l299 377h138l198 -377q-16 -25 -32 -37q-6 -6 -35 -22l-226 225l-286 -225q-12 8 -27 22q-23 23 -29 37z" />
<glyph unicode="&#xe3;" d="M39 305q0 88 18 154q20 76 60 145q37 68 92 129q49 53 127 109q20 14 59 35q35 18 70 30q25 8 78 21q35 8 82 8q43 0 82 -18q41 -18 75 -41q12 8 39 18t31 12q43 18 59 29l31 -66q-12 -10 -26.5 -24.5t-20.5 -24.5q-8 -12 -14 -37q-6 -22 -13 -55q-8 -37 -26 -139 l-21 -123q-8 -53 -12 -100q-4 -57 -4 -66q0 -72 14 -113q16 -45 37 -45t45 7q33 8 64 22l16 -66l-84 -57l-78 -47l-65 -31q-29 -12 -45 -12q-20 0 -39 10q-25 14 -41 39q-20 31 -35 74q-14 41 -21 117q-29 -41 -69 -88q-37 -43 -76 -76q-45 -37 -80 -55q-41 -20 -82 -21 q-37 0 -76 18q-40 18 -73 62q-35 43 -56 106q-22 68 -22 160zM264 379q0 -59 8 -98q8 -37 23 -70q10 -25 31 -41q16 -14 36 -14q33 0 91 57q55 55 131 166q8 57 12 90l16 94q10 57 15 88q6 43 12 74q-14 14 -61 47q-33 23 -64 23q-41 0 -76 -23q-45 -29 -63 -51 q-25 -29 -47.5 -76t-34.5 -90q-16 -63 -21 -90q-8 -61 -8 -86zM227 1081q33 59 52 90q27 41 67 91q37 43 78 71.5t84 28.5q39 0 78 -16q20 -8 67 -37q14 -8 22.5 -13.5t19 -10.5t20.5 -11q29 -16 57 -17q41 0 76 29q39 31 76 86l65 -31l-33 -57l-38 -61q-20 -31 -48 -60 q-37 -43 -49 -51q-31 -25 -55 -35q-29 -12 -57 -12q-43 0 -74 14q-8 4 -64 37q-31 18 -63.5 34.5t-67.5 16.5q-18 0 -37 -6q-16 -6 -36 -22q-18 -14 -35 -35q-8 -8 -39 -49z" />
<glyph unicode="&#xe4;" d="M39 305q0 88 18 154q20 76 60 145q37 68 92 129q49 53 127 109q20 14 59 35q35 18 70 30q25 8 78 21q35 8 82 8q43 0 82 -18q41 -18 75 -41q12 8 39 18t31 12q43 18 59 29l31 -66q-12 -10 -26.5 -24.5t-20.5 -24.5q-8 -12 -14 -37q-6 -22 -13 -55q-8 -37 -26 -139 l-21 -123q-8 -53 -12 -100q-4 -57 -4 -66q0 -72 14 -113q16 -45 37 -45t45 7q33 8 64 22l16 -66l-84 -57l-78 -47l-65 -31q-29 -12 -45 -12q-20 0 -39 10q-25 14 -41 39q-20 31 -35 74q-14 41 -21 117q-29 -41 -69 -88q-37 -43 -76 -76q-45 -37 -80 -55q-41 -20 -82 -21 q-37 0 -76 18q-40 18 -73 62q-35 43 -56 106q-22 68 -22 160zM264 379q0 -59 8 -98q8 -37 23 -70q10 -25 31 -41q16 -14 36 -14q33 0 91 57q55 55 131 166q8 57 12 90l16 94q10 57 15 88q6 43 12 74q-14 14 -61 47q-33 23 -64 23q-41 0 -76 -23q-45 -29 -63 -51 q-25 -29 -47.5 -76t-34.5 -90q-16 -63 -21 -90q-8 -61 -8 -86zM302 1184q0 33 10 61q14 41 31 62q20 27 50.5 45t65.5 18q27 0 43 -8q18 -8 29 -23q10 -12 16 -32q6 -18 6 -37q0 -35 -10 -64q-14 -37 -31 -59q-20 -27 -50.5 -45.5t-65.5 -18.5q-49 0 -72 31q-22 33 -22 70z M689 1184q0 33 10 61q14 41 31 62q18 23 51 45q29 18 65 18q25 0 41 -8q20 -10 30.5 -22.5t16.5 -32.5q6 -18 7 -37q0 -35 -11 -64q-12 -33 -32 -59q-23 -29 -50 -45q-31 -18 -67 -19q-49 0 -70 31q-22 33 -22 70z" />
<glyph unicode="&#xe5;" d="M39 305q0 88 18 154q20 76 60 145q37 68 92 129q49 53 127 109q20 14 59 35q35 18 70 30q25 8 78 21q35 8 82 8q43 0 82 -18q41 -18 75 -41q12 8 39 18t31 12q43 18 59 29l31 -66q-12 -10 -26.5 -24.5t-20.5 -24.5q-8 -12 -14 -37q-6 -22 -13 -55q-8 -37 -26 -139 l-21 -123q-8 -53 -12 -100q-4 -57 -4 -66q0 -72 14 -113q16 -45 37 -45t45 7q33 8 64 22l16 -66l-84 -57l-78 -47l-65 -31q-29 -12 -45 -12q-20 0 -39 10q-25 14 -41 39q-20 31 -35 74q-14 41 -21 117q-29 -41 -69 -88q-37 -43 -76 -76q-45 -37 -80 -55q-41 -20 -82 -21 q-37 0 -76 18q-40 18 -73 62q-35 43 -56 106q-22 68 -22 160zM264 379q0 -59 8 -98q8 -37 23 -70q10 -25 31 -41q16 -14 36 -14q33 0 91 57q55 55 131 166q8 57 12 90l16 94q10 57 15 88q6 43 12 74q-14 14 -61 47q-33 23 -64 23q-41 0 -76 -23q-45 -29 -63 -51 q-25 -29 -47.5 -76t-34.5 -90q-16 -63 -21 -90q-8 -61 -8 -86zM418 1169q0 49 18 99q20 53 54 92q37 43 77.5 67.5t98.5 24.5q39 0 61 -10q31 -14 47 -33q20 -23 29 -49q10 -31 10 -60q0 -37 -20 -92q-16 -45 -54 -88q-34 -40 -79 -67q-47 -29 -101 -29q-29 0 -61 14 q-27 12 -43 31q-20 25 -29 47q-8 24 -8 53zM543 1212q0 -33 14 -49q14 -18 39 -18q18 0 33 8q10 6 26 27q12 14 19 39q6 23 6 45q0 33 -14 49q-16 18 -35 18q-23 0 -37 -8q-10 -6 -27 -27q-12 -15 -18 -36q-6 -23 -6 -48z" />
<glyph unicode="&#xe6;" horiz-adv-x="1323" d="M8 305q0 76 19 154q16 72 57 145q37 68 92 129q49 53 127 109q20 14 59 35q35 18 70 30q25 8 78 21q35 8 82 8q43 0 74 -14q41 -18 59 -31l45 22q8 4 17.5 7.5t20.5 8.5t19 7l43 -41q-8 -6 -14 -12t-10 -9l-19 -18q-12 -12 -16 -20q-10 -20 -12 -27l6 6t4 3t5 3t7 6 q12 10 25 19q29 23 55 35q35 18 66 28q43 16 69 21q33 6 66 6q49 0 92 -16q39 -14 66 -39q23 -20 40 -58q14 -29 15 -63q0 -29 -6 -60q-6 -33 -25 -65q-16 -31 -57 -72q-37 -37 -97 -76q-63 -41 -147 -81.5t-211 -88.5q6 -47 22.5 -88t36.5 -63q23 -27 46 -39q22 -12 43 -12 q47 0 124 39q90 45 203 135q6 -3 13 -13q4 -6 12 -22l12 -21l8 -16q-70 -59 -151 -119q-80 -59 -125 -82q-58 -31 -105 -43q-53 -14 -86 -14q-35 0 -71 14q-39 14 -78 45q-41 31 -70 78q-33 53 -45 117q-33 -47 -76 -96t-84 -82q-43 -34 -86 -55q-41 -20 -84 -21 q-31 0 -71 18t-74 62q-35 43 -55 106q-23 68 -23 160zM227 379q0 -53 10.5 -100.5t22.5 -69.5q14 -25 34.5 -39t35.5 -14q31 0 90 57q70 66 139 164q0 4 1 8t1 8q0 10 2 17l12 82q2 20 6.5 40.5t8.5 42.5q6 43 12 80q2 6 5 30t5 34q-37 33 -65 51q-39 25 -66 25 q-43 0 -75 -21q-41 -27 -64 -53q-29 -35 -49 -76q-23 -45 -37 -88q-14 -41 -20 -92q-9 -61 -9 -86zM772 434q102 45 158 80q68 43 92 70q33 37 41 63q10 35 10 68q0 41 -22.5 63.5t-51.5 22.5q-23 0 -49 -17q-25 -14 -57 -47q-57 -63 -84 -137q-31 -88 -37 -166z" />
<glyph unicode="&#xe7;" horiz-adv-x="872" d="M72 322q0 74 14 137q16 74 45 133q29 61 82 127q43 53 125 108q31 20 63 37q45 23 80 35q57 20 86 27q47 10 86 10q47 0 78 -14q45 -20 66 -33q16 -10 30.5 -21.5t24.5 -17.5q27 -18 53 -27l-49 -47q-18 -18 -59 -51q-37 -31 -58 -41q-27 -14 -43 -14t-32 18 q-31 39 -35 43q-18 25 -43 43q-27 20 -54 21q-53 0 -96 -37t-71.5 -96.5t-42.5 -131.5q-14 -70 -15 -143q0 -59 10 -115q8 -39 31 -86q16 -31 45 -53q25 -18 58 -18q53 0 129 39q84 43 184 127q2 -2 5 -7.5t5 -7.5q4 -8 17 -22q8 -10 14 -21l8 -12q-74 -68 -143 -121 q-66 -51 -121 -78q-49 -25 -98 -39l-7 -28q-6 -28 -12 -43q66 -4 94 -37q31 -37 31 -86q0 -55 -33 -96q-35 -45 -90 -70t-126.5 -25t-145.5 37l-2 70q41 -16 75.5 -20.5t59.5 6.5q27 10 39 22q14 14 14 37q0 20 -20 33q-27 14 -49 12q2 4 26 59l12.5 32t8.5 24q10 29 16 51 q0 4 4 8q-47 4 -86 16q-49 18 -90 60q-45 45 -71.5 113t-26.5 174z" />
<glyph unicode="&#xe8;" horiz-adv-x="864" d="M47 303q0 72 21 150q20 82 53 137q37 65 86 123q51 61 112 110q29 25 56 39l71 37q47 18 78 27q45 10 80 10q55 0 101 -16q39 -14 67 -39q25 -23 39 -58q14 -37 14 -63q0 -29 -6 -60q-4 -23 -26 -63q-20 -37 -56 -72q-39 -39 -98 -78q-61 -41 -145 -81q-63 -33 -209 -84 q6 -49 20 -86q12 -31 35 -66q12 -20 43 -41q20 -14 47 -14q47 0 125 39q92 45 201 135q6 -3 12 -13q12 -18 14 -22q4 -8 13 -21l8 -16q-80 -70 -150 -119q-80 -57 -123 -82q-55 -31 -102 -43q-53 -14 -92 -14q-43 0 -92 18q-51 18 -94 60q-37 35 -72 106q-31 65 -31 160z M281 434q102 45 157 80q49 31 88 70q29 29 39 61q10 35 10 64q0 47 -20 69.5t-49 22.5q-4 0 -21 -4q-14 -4 -28 -13q-20 -12 -31 -20q-14 -12 -27 -27q-53 -63 -82 -131q-30 -74 -36 -172zM274 1382l41 52q4 0 17.5 2t23.5 4q29 6 62 12q47 8 63 10q8 0 17.5 1t14.5 2t9 1 l125 -411q-29 -16 -43 -23q-20 -8 -41 -12z" />
<glyph unicode="&#xe9;" horiz-adv-x="864" d="M47 303q0 72 21 150q20 82 53 137q37 65 86 123q51 61 112 110q29 25 56 39l71 37q47 18 78 27q45 10 80 10q55 0 101 -16q39 -14 67 -39q25 -23 39 -58q14 -37 14 -63q0 -29 -6 -60q-4 -23 -26 -63q-20 -37 -56 -72q-39 -39 -98 -78q-61 -41 -145 -81q-63 -33 -209 -84 q6 -49 20 -86q12 -31 35 -66q12 -20 43 -41q20 -14 47 -14q47 0 125 39q92 45 201 135q6 -3 12 -13q12 -18 14 -22q4 -8 13 -21l8 -16q-80 -70 -150 -119q-80 -57 -123 -82q-55 -31 -102 -43q-53 -14 -92 -14q-43 0 -92 18q-51 18 -94 60q-37 35 -72 106q-31 65 -31 160z M281 434q102 45 157 80q49 31 88 70q29 29 39 61q10 35 10 64q0 47 -20 69.5t-49 22.5q-4 0 -21 -4q-14 -4 -28 -13q-20 -12 -31 -20q-14 -12 -27 -27q-53 -63 -82 -131q-30 -74 -36 -172zM469 1069l236 397l38 -6q27 -4 58 -10q10 -2 28.5 -7t26.5 -7l37 -9l23 -61 l-379 -346q-16 4 -35 18q-23 21 -33 31z" />
<glyph unicode="&#xea;" horiz-adv-x="864" d="M47 303q0 72 21 150q20 82 53 137q37 65 86 123q51 61 112 110q29 25 56 39l71 37q47 18 78 27q45 10 80 10q55 0 101 -16q39 -14 67 -39q25 -23 39 -58q14 -37 14 -63q0 -29 -6 -60q-4 -23 -26 -63q-20 -37 -56 -72q-39 -39 -98 -78q-61 -41 -145 -81q-63 -33 -209 -84 q6 -49 20 -86q12 -31 35 -66q12 -20 43 -41q20 -14 47 -14q47 0 125 39q92 45 201 135q6 -3 12 -13q12 -18 14 -22q4 -8 13 -21l8 -16q-80 -70 -150 -119q-80 -57 -123 -82q-55 -31 -102 -43q-53 -14 -92 -14q-43 0 -92 18q-51 18 -94 60q-37 35 -72 106q-31 65 -31 160z M281 434q102 45 157 80q49 31 88 70q29 29 39 61q10 35 10 64q0 47 -20 69.5t-49 22.5q-4 0 -21 -4q-14 -4 -28 -13q-20 -12 -31 -20q-14 -12 -27 -27q-53 -63 -82 -131q-30 -74 -36 -172zM241 1079l299 377h138l198 -377q-16 -25 -32 -37q-6 -6 -35 -22l-226 225l-286 -225 q-12 8 -27 22q-23 23 -29 37z" />
<glyph unicode="&#xeb;" horiz-adv-x="864" d="M47 303q0 72 21 150q20 82 53 137q37 65 86 123q51 61 112 110q29 25 56 39l71 37q47 18 78 27q45 10 80 10q55 0 101 -16q39 -14 67 -39q25 -23 39 -58q14 -37 14 -63q0 -29 -6 -60q-4 -23 -26 -63q-20 -37 -56 -72q-39 -39 -98 -78q-61 -41 -145 -81q-63 -33 -209 -84 q6 -49 20 -86q12 -31 35 -66q12 -20 43 -41q20 -14 47 -14q47 0 125 39q92 45 201 135q6 -3 12 -13q12 -18 14 -22q4 -8 13 -21l8 -16q-80 -70 -150 -119q-80 -57 -123 -82q-55 -31 -102 -43q-53 -14 -92 -14q-43 0 -92 18q-51 18 -94 60q-37 35 -72 106q-31 65 -31 160z M281 434q102 45 157 80q49 31 88 70q29 29 39 61q10 35 10 64q0 47 -20 69.5t-49 22.5q-4 0 -21 -4q-14 -4 -28 -13q-20 -12 -31 -20q-14 -12 -27 -27q-53 -63 -82 -131q-30 -74 -36 -172zM259 1184q0 33 10 61q14 41 31 62q20 27 50.5 45t65.5 18q27 0 43 -8q18 -8 29 -23 q10 -12 16 -32q6 -18 6 -37q0 -35 -10 -64q-14 -37 -31 -59q-20 -27 -50.5 -45.5t-65.5 -18.5q-49 0 -72 31q-22 33 -22 70zM646 1184q0 33 10 61q14 41 31 62q18 23 51 45q29 18 65 18q25 0 41 -8q20 -10 30.5 -22.5t16.5 -32.5q6 -18 7 -37q0 -35 -11 -64q-12 -33 -32 -59 q-23 -29 -50 -45q-31 -18 -67 -19q-49 0 -70 31q-22 33 -22 70z" />
<glyph unicode="&#xec;" horiz-adv-x="567" d="M55 811l95 41l104 41l90 31q41 12 62 12q28 0 43 -18q16 -20 16 -66q0 -10 -8 -80q-6 -55 -19 -115l-22 -129q-4 -27 -11.5 -61.5t-13.5 -69.5t-16 -114q-8 -70 -8 -80q0 -31 6 -45.5t24 -14.5q20 0 29 2l26.5 6.5t30.5 10.5l35 14l21 -65q-47 -29 -97 -56 q-53 -31 -94 -49q-53 -25 -86 -35q-40 -12 -67 -12q-33 0 -58 31q-23 29 -22 86q0 31 6 82q0 6 16 110q6 41 23 127q8 43 22 127l17 107q8 61 8 71q0 20 -4 37q-4 14 -8 19q-10 10 -13 10q-6 2 -16 2q-4 0 -24.5 -4t-30.5 -8l-37 -13zM123 1382l41 52q4 0 17.5 2t23.5 4 q29 6 62 12q47 8 63 10q8 0 17.5 1t14.5 2t9 1l125 -411q-29 -16 -43 -23q-20 -8 -41 -12z" />
<glyph unicode="&#xed;" horiz-adv-x="567" d="M55 811l95 41l104 41l90 31q41 12 62 12q28 0 43 -18q16 -20 16 -66q0 -10 -8 -80q-6 -55 -19 -115l-22 -129q-4 -27 -11.5 -61.5t-13.5 -69.5t-16 -114q-8 -70 -8 -80q0 -31 6 -45.5t24 -14.5q20 0 29 2l26.5 6.5t30.5 10.5l35 14l21 -65q-47 -29 -97 -56 q-53 -31 -94 -49q-53 -25 -86 -35q-40 -12 -67 -12q-33 0 -58 31q-23 29 -22 86q0 31 6 82q0 6 16 110q6 41 23 127q8 43 22 127l17 107q8 61 8 71q0 20 -4 37q-4 14 -8 19q-10 10 -13 10q-6 2 -16 2q-4 0 -24.5 -4t-30.5 -8l-37 -13zM317 1069l236 397l38 -6q27 -4 58 -10 q10 -2 28.5 -7t26.5 -7l37 -9l23 -61l-379 -346q-16 4 -35 18q-23 21 -33 31z" />
<glyph unicode="&#xee;" horiz-adv-x="567" d="M55 811l95 41l104 41l90 31q41 12 62 12q28 0 43 -18q16 -20 16 -66q0 -10 -8 -80q-6 -55 -19 -115l-22 -129q-4 -27 -11.5 -61.5t-13.5 -69.5t-16 -114q-8 -70 -8 -80q0 -31 6 -45.5t24 -14.5q20 0 29 2l26.5 6.5t30.5 10.5l35 14l21 -65q-47 -29 -97 -56 q-53 -31 -94 -49q-53 -25 -86 -35q-40 -12 -67 -12q-33 0 -58 31q-23 29 -22 86q0 31 6 82q0 6 16 110q6 41 23 127q8 43 22 127l17 107q8 61 8 71q0 20 -4 37q-4 14 -8 19q-10 10 -13 10q-6 2 -16 2q-4 0 -24.5 -4t-30.5 -8l-37 -13zM90 1079l299 377h138l198 -377 q-16 -25 -32 -37q-6 -6 -35 -22l-226 225l-286 -225q-12 8 -27 22q-23 23 -29 37z" />
<glyph unicode="&#xef;" horiz-adv-x="567" d="M55 811l95 41l104 41l90 31q41 12 62 12q28 0 43 -18q16 -20 16 -66q0 -10 -8 -80q-6 -55 -19 -115l-22 -129q-4 -27 -11.5 -61.5t-13.5 -69.5t-16 -114q-8 -70 -8 -80q0 -31 6 -45.5t24 -14.5q20 0 29 2l26.5 6.5t30.5 10.5l35 14l21 -65q-47 -29 -97 -56 q-53 -31 -94 -49q-53 -25 -86 -35q-40 -12 -67 -12q-33 0 -58 31q-23 29 -22 86q0 31 6 82q0 6 16 110q6 41 23 127q8 43 22 127l17 107q8 61 8 71q0 20 -4 37q-4 14 -8 19q-10 10 -13 10q-6 2 -16 2q-4 0 -24.5 -4t-30.5 -8l-37 -13zM109 1184q0 33 10 61q14 41 31 62 q20 27 50.5 45t65.5 18q27 0 43 -8q18 -8 29 -23q10 -12 16 -32q6 -18 6 -37q0 -35 -10 -64q-14 -37 -31 -59q-20 -27 -50.5 -45.5t-65.5 -18.5q-49 0 -72 31q-22 33 -22 70zM496 1184q0 33 10 61q14 41 31 62q18 23 51 45q29 18 65 18q25 0 41 -8q20 -10 30.5 -22.5 t16.5 -32.5q6 -18 7 -37q0 -35 -11 -64q-12 -33 -32 -59q-23 -29 -50 -45q-31 -18 -67 -19q-49 0 -70 31q-22 33 -22 70z" />
<glyph unicode="&#xf0;" horiz-adv-x="958" d="M39 332q0 125 37 235q35 102 104 193q63 82 151.5 129t186.5 47q45 0 88 -27q41 -25 72 -65q-16 76 -43 135q-25 55 -66 113l-211 -97q-25 2 -59 11q-28 6 -55 18l-4 41l243 113q-43 33 -98 45q-49 12 -129 -2v79l270 109q43 -31 88 -67.5t74 -69.5l199 90q40 -6 67 -12 q18 -4 47 -17l3 -43l-240 -110q80 -117 110 -236q29 -113 29 -237q0 -157 -43 -295q-43 -139 -114.5 -237.5t-172.5 -158.5q-96 -57 -202 -57q-82 0 -146 29q-59 27 -104 78q-37 43 -62 118q-20 64 -20 148zM268 406q0 -72 14.5 -127.5t39.5 -98.5q23 -39 55 -65 q31 -25 63 -25q61 0 104.5 43t73.5 109q27 55 48 145q18 80 24 154q-6 53 -28 106q-23 49 -52 82q-35 39 -65 55q-34 18 -68 19q-43 0 -69.5 -16.5t-53.5 -49.5q-23 -29 -39 -69q-20 -51 -26 -84q-12 -53 -17 -90q-4 -31 -4 -88z" />
<glyph unicode="&#xf1;" horiz-adv-x="1079" d="M33 811l96 41q74 29 109 41q66 23 92 31q43 12 57 12q10 0 23 -4q8 -2 14 -17q4 -8 8 -34q2 -14 2 -58q0 -31 -2 -49t-6 -51q111 111 215 162t197 51q33 0 57 -6q27 -6 41 -25q15 -18 25 -49q10 -35 10 -80q0 -16 -8.5 -81.5t-14.5 -102.5q-12 -74 -20 -113t-21 -108 q-14 -78 -16 -97q-6 -43 -6 -71q0 -33 10 -47q10 -12 27 -13q27 0 45 9q4 2 25.5 10l37.5 14l27 -65l-96 -56q-23 -12 -97 -47q-53 -25 -86 -35q-47 -14 -63 -14q-39 0 -60 31q-23 33 -22 86q0 18 6 61q10 72 14 96q4 31 10.5 61t10.5 56q4 20 20 119q4 20 15 102q6 46 6 68 q0 57 -10 84q-8 23 -43 22q-14 0 -37 -8t-53.5 -28.5t-59.5 -49.5q-33 -33 -61 -79q-31 -47 -45 -115q-23 -102 -35 -164q-4 -16 -7.5 -43t-5.5 -35q-4 -18 -8 -61q-2 -18 -2 -51v-48l-45 -22l-70 -31l-67 -30q-12 -6 -26.5 -12.5t-16.5 -8.5l-41 39q12 51 27 137l24 141 q18 102 23 138q14 109 16 123t6 47.5l6 50.5q4 57 4 67q0 29 -2 37q-4 14 -8 19q-8 8 -12 10h-16q-14 0 -25 -2q-6 0 -33 -10q-18 -6 -41 -13zM262 1081q33 59 52 90q27 41 67 91q37 43 78 71.5t84 28.5q39 0 78 -16q20 -8 67 -37q14 -8 22.5 -13.5t19 -10.5t20.5 -11 q29 -16 57 -17q41 0 76 29q39 31 76 86l65 -31l-33 -57l-38 -61q-20 -31 -48 -60q-37 -43 -49 -51q-31 -25 -55 -35q-29 -12 -57 -12q-43 0 -74 14q-8 4 -64 37q-31 18 -63.5 34.5t-67.5 16.5q-18 0 -37 -6q-16 -6 -36 -22q-18 -14 -35 -35q-8 -8 -39 -49z" />
<glyph unicode="&#xf2;" horiz-adv-x="907" d="M39 344q0 86 12 139q16 72 45 129q31 61 76 119q41 51 115 109q8 8 57 37q29 18 66 30q45 16 69 21q49 8 70 8q74 0 137 -29q61 -29 102 -78q39 -47 62 -118q20 -63 20 -152q0 -76 -16 -135q-18 -70 -49 -133q-29 -61 -78 -123q-47 -61 -100 -105q-25 -20 -58 -40 q-20 -12 -65 -33q-23 -10 -68 -23q-31 -8 -63 -8q-84 0 -142 29q-63 31 -104 82q-45 53 -66 123q-22 73 -22 151zM272 422q0 -72 15 -127q18 -70 37 -102q29 -51 55 -72q33 -27 61 -27q39 0 66 19q37 25 51 45q23 33 37 69q16 43 24 80q12 57 15 88l6 86q0 68 -14 135 q-12 55 -35 99q-22 40 -49 61q-27 20 -62 21q-57 0 -98 -35q-37 -33 -64 -90q-27 -59 -34 -121q-11 -76 -11 -129zM262 1382l41 52q4 0 17.5 2t23.5 4q29 6 62 12q47 8 63 10q8 0 17.5 1t14.5 2t9 1l125 -411q-29 -16 -43 -23q-20 -8 -41 -12z" />
<glyph unicode="&#xf3;" horiz-adv-x="907" d="M39 344q0 86 12 139q16 72 45 129q31 61 76 119q41 51 115 109q8 8 57 37q29 18 66 30q45 16 69 21q49 8 70 8q74 0 137 -29q61 -29 102 -78q39 -47 62 -118q20 -63 20 -152q0 -76 -16 -135q-18 -70 -49 -133q-29 -61 -78 -123q-47 -61 -100 -105q-25 -20 -58 -40 q-20 -12 -65 -33q-23 -10 -68 -23q-31 -8 -63 -8q-84 0 -142 29q-63 31 -104 82q-45 53 -66 123q-22 73 -22 151zM272 422q0 -72 15 -127q18 -70 37 -102q29 -51 55 -72q33 -27 61 -27q39 0 66 19q37 25 51 45q23 33 37 69q16 43 24 80q12 57 15 88l6 86q0 68 -14 135 q-12 55 -35 99q-22 40 -49 61q-27 20 -62 21q-57 0 -98 -35q-37 -33 -64 -90q-27 -59 -34 -121q-11 -76 -11 -129zM457 1069l236 397l38 -6q27 -4 58 -10q10 -2 28.5 -7t26.5 -7l37 -9l23 -61l-379 -346q-16 4 -35 18q-23 21 -33 31z" />
<glyph unicode="&#xf4;" horiz-adv-x="907" d="M39 344q0 86 12 139q16 72 45 129q31 61 76 119q41 51 115 109q8 8 57 37q29 18 66 30q45 16 69 21q49 8 70 8q74 0 137 -29q61 -29 102 -78q39 -47 62 -118q20 -63 20 -152q0 -76 -16 -135q-18 -70 -49 -133q-29 -61 -78 -123q-47 -61 -100 -105q-25 -20 -58 -40 q-20 -12 -65 -33q-23 -10 -68 -23q-31 -8 -63 -8q-84 0 -142 29q-63 31 -104 82q-45 53 -66 123q-22 73 -22 151zM272 422q0 -72 15 -127q18 -70 37 -102q29 -51 55 -72q33 -27 61 -27q39 0 66 19q37 25 51 45q23 33 37 69q16 43 24 80q12 57 15 88l6 86q0 68 -14 135 q-12 55 -35 99q-22 40 -49 61q-27 20 -62 21q-57 0 -98 -35q-37 -33 -64 -90q-27 -59 -34 -121q-11 -76 -11 -129zM229 1079l299 377h138l198 -377q-16 -25 -32 -37q-6 -6 -35 -22l-226 225l-286 -225q-12 8 -27 22q-23 23 -29 37z" />
<glyph unicode="&#xf5;" horiz-adv-x="907" d="M39 344q0 86 12 139q16 72 45 129q31 61 76 119q41 51 115 109q8 8 57 37q29 18 66 30q45 16 69 21q49 8 70 8q74 0 137 -29q61 -29 102 -78q39 -47 62 -118q20 -63 20 -152q0 -76 -16 -135q-18 -70 -49 -133q-29 -61 -78 -123q-47 -61 -100 -105q-25 -20 -58 -40 q-20 -12 -65 -33q-23 -10 -68 -23q-31 -8 -63 -8q-84 0 -142 29q-63 31 -104 82q-45 53 -66 123q-22 73 -22 151zM272 422q0 -72 15 -127q18 -70 37 -102q29 -51 55 -72q33 -27 61 -27q39 0 66 19q37 25 51 45q23 33 37 69q16 43 24 80q12 57 15 88l6 86q0 68 -14 135 q-12 55 -35 99q-22 40 -49 61q-27 20 -62 21q-57 0 -98 -35q-37 -33 -64 -90q-27 -59 -34 -121q-11 -76 -11 -129zM172 1081q33 59 52 90q27 41 67 91q37 43 78 71.5t84 28.5q39 0 78 -16q20 -8 67 -37q14 -8 22.5 -13.5t19 -10.5t20.5 -11q29 -16 57 -17q41 0 76 29 q39 31 76 86l65 -31l-33 -57l-38 -61q-20 -31 -48 -60q-37 -43 -49 -51q-31 -25 -55 -35q-29 -12 -57 -12q-43 0 -74 14q-8 4 -64 37q-31 18 -63.5 34.5t-67.5 16.5q-18 0 -37 -6q-16 -6 -36 -22q-18 -14 -35 -35q-8 -8 -39 -49z" />
<glyph unicode="&#xf6;" horiz-adv-x="907" d="M39 344q0 86 12 139q16 72 45 129q31 61 76 119q41 51 115 109q8 8 57 37q29 18 66 30q45 16 69 21q49 8 70 8q74 0 137 -29q61 -29 102 -78q39 -47 62 -118q20 -63 20 -152q0 -76 -16 -135q-18 -70 -49 -133q-29 -61 -78 -123q-47 -61 -100 -105q-25 -20 -58 -40 q-20 -12 -65 -33q-23 -10 -68 -23q-31 -8 -63 -8q-84 0 -142 29q-63 31 -104 82q-45 53 -66 123q-22 73 -22 151zM272 422q0 -72 15 -127q18 -70 37 -102q29 -51 55 -72q33 -27 61 -27q39 0 66 19q37 25 51 45q23 33 37 69q16 43 24 80q12 57 15 88l6 86q0 68 -14 135 q-12 55 -35 99q-22 40 -49 61q-27 20 -62 21q-57 0 -98 -35q-37 -33 -64 -90q-27 -59 -34 -121q-11 -76 -11 -129zM246 1184q0 33 10 61q14 41 31 62q20 27 50.5 45t65.5 18q27 0 43 -8q18 -8 29 -23q10 -12 16 -32q6 -18 6 -37q0 -35 -10 -64q-14 -37 -31 -59 q-20 -27 -50.5 -45.5t-65.5 -18.5q-49 0 -72 31q-22 33 -22 70zM633 1184q0 33 10 61q14 41 31 62q18 23 51 45q29 18 65 18q25 0 41 -8q20 -10 30.5 -22.5t16.5 -32.5q6 -18 7 -37q0 -35 -11 -64q-12 -33 -32 -59q-23 -29 -50 -45q-31 -18 -67 -19q-49 0 -70 31 q-22 33 -22 70z" />
<glyph unicode="&#xf7;" horiz-adv-x="817" d="M55 522q2 4 5 12.5t6 12.5l16 33q4 6 8 16t8 14q2 4 7.5 12.5t7.5 12.5h624l27 -31q-2 -4 -6 -13t-6 -13q-10 -27 -15 -33q-2 -4 -18 -33q-10 -18 -12 -23h-627zM279 283q4 29 16 55q16 33 29 45q14 14 38 29q22 12 44 12q82 0 65 -100q-2 -27 -16 -54q-16 -33 -29 -45 q-25 -25 -39 -32q-18 -10 -43 -11q-41 0 -57 27q-14 23 -8 74zM350 803q4 29 17 55q14 29 28 43q20 20 39 30.5t43 10.5q80 0 66 -96q-4 -29 -17 -55q-16 -33 -28 -46q-20 -20 -39 -30q-22 -12 -43 -13q-41 0 -58 27q-14 23 -8 74z" />
<glyph unicode="&#xf8;" horiz-adv-x="907" d="M-14 -25l110 136q-57 96 -57 233q0 86 12 139q16 72 45 129q31 61 76 119q41 51 115 109q8 8 57 37q29 18 66 30q45 16 69 21q49 8 70 8q57 0 100 -14q47 -16 82 -39l12 14q16 8 31 14l43 19l41 16q8 2 19.5 7t15.5 5l29 -38l-107 -129q55 -94 55 -232q0 -76 -16 -135 q-18 -70 -49 -133q-29 -61 -78 -123q-47 -61 -100 -105q-25 -20 -58 -40q-20 -12 -65 -33q-23 -10 -68 -23q-31 -8 -63 -8q-53 0 -107 16q-43 14 -86 43l-14 -18q-4 -4 -31 -14q-20 -8 -43 -19q-6 -4 -22.5 -8t-22.5 -8q-23 -10 -33 -12zM272 422q0 -8 1 -24.5t1 -22.5 q0 -14 5 -43l313 381q-18 39 -51 63q-27 20 -62 21q-57 0 -98 -35q-37 -33 -64 -90q-27 -59 -34 -121q-11 -76 -11 -129zM324 193q25 -45 53.5 -72t62.5 -27q39 0 66 19q37 25 51 45q23 33 37 69q16 43 24 80q12 57 15 88l6 86q0 6 -1 22.5t-1 22.5q0 12 -4 41z" />
<glyph unicode="&#xf9;" horiz-adv-x="1099" d="M25 811q88 39 96 41q74 29 108 41q57 20 95 31q43 12 61 12q29 0 39 -18q8 -16 8 -66q0 -29 -6 -76l-14 -100q-8 -55 -18.5 -114.5t-18.5 -115.5q-14 -90 -17 -100q-6 -47 -6 -76q0 -57 16.5 -85.5t37 -28.5t43.5 14q39 25 59 43q29 27 74 78q27 31 84 115q2 12 7 38.5 t7 42.5l12 82q2 10 6 35t7 37q4 45 4 59q0 20 -4.5 37t-6.5 19q-8 8 -12 10t-14 2q-4 0 -25 -4q-16 -4 -29 -8q-6 -2 -17 -6.5t-17 -6.5l-19 68l97 41q53 23 104 41q49 18 92 30.5t60 12.5q28 0 36 -18q8 -16 9 -66q0 -43 -5 -72l-14 -92l-16 -104q-4 -29 -9.5 -53.5 t-9.5 -49.5q-4 -18 -8 -55t-4 -41q-6 -45 -6 -78q0 -92 14 -127q16 -37 39 -37q27 0 49 7q10 2 58 22l18 -66l-80 -53l-78 -47q-39 -23 -71.5 -35t-55.5 -12q-25 0 -45 14q-23 16 -41 47q-23 37 -33 78t-14 111q-29 -45 -82 -100q-31 -33 -92 -78q-47 -35 -96 -53.5 t-94 -18.5q-27 0 -60 16q-35 18 -57 45q-25 29 -43 78q-16 41 -16 107q0 43 4 71l12 89q4 31 16 96q12 70 17 94q2 10 5 39t5 43q6 37 6 63q0 20 -4 37q-4 14 -8 19q-8 8 -12.5 10t-16.5 2q-4 0 -24.5 -4t-30.5 -8q-25 -8 -39 -13zM354 1382l41 52q4 0 17.5 2t23.5 4 q29 6 62 12q47 8 63 10q8 0 17.5 1t14.5 2t9 1l125 -411q-29 -16 -43 -23q-20 -8 -41 -12z" />
<glyph unicode="&#xfa;" horiz-adv-x="1099" d="M25 811q88 39 96 41q74 29 108 41q57 20 95 31q43 12 61 12q29 0 39 -18q8 -16 8 -66q0 -29 -6 -76l-14 -100q-8 -55 -18.5 -114.5t-18.5 -115.5q-14 -90 -17 -100q-6 -47 -6 -76q0 -57 16.5 -85.5t37 -28.5t43.5 14q39 25 59 43q29 27 74 78q27 31 84 115q2 12 7 38.5 t7 42.5l12 82q2 10 6 35t7 37q4 45 4 59q0 20 -4.5 37t-6.5 19q-8 8 -12 10t-14 2q-4 0 -25 -4q-16 -4 -29 -8q-6 -2 -17 -6.5t-17 -6.5l-19 68l97 41q53 23 104 41q49 18 92 30.5t60 12.5q28 0 36 -18q8 -16 9 -66q0 -43 -5 -72l-14 -92l-16 -104q-4 -29 -9.5 -53.5 t-9.5 -49.5q-4 -18 -8 -55t-4 -41q-6 -45 -6 -78q0 -92 14 -127q16 -37 39 -37q27 0 49 7q10 2 58 22l18 -66l-80 -53l-78 -47q-39 -23 -71.5 -35t-55.5 -12q-25 0 -45 14q-23 16 -41 47q-23 37 -33 78t-14 111q-29 -45 -82 -100q-31 -33 -92 -78q-47 -35 -96 -53.5 t-94 -18.5q-27 0 -60 16q-35 18 -57 45q-25 29 -43 78q-16 41 -16 107q0 43 4 71l12 89q4 31 16 96q12 70 17 94q2 10 5 39t5 43q6 37 6 63q0 20 -4 37q-4 14 -8 19q-8 8 -12.5 10t-16.5 2q-4 0 -24.5 -4t-30.5 -8q-25 -8 -39 -13zM549 1069l236 397l38 -6q27 -4 58 -10 q10 -2 28.5 -7t26.5 -7l37 -9l23 -61l-379 -346q-16 4 -35 18q-23 21 -33 31z" />
<glyph unicode="&#xfb;" horiz-adv-x="1099" d="M25 811q88 39 96 41q74 29 108 41q57 20 95 31q43 12 61 12q29 0 39 -18q8 -16 8 -66q0 -29 -6 -76l-14 -100q-8 -55 -18.5 -114.5t-18.5 -115.5q-14 -90 -17 -100q-6 -47 -6 -76q0 -57 16.5 -85.5t37 -28.5t43.5 14q39 25 59 43q29 27 74 78q27 31 84 115q2 12 7 38.5 t7 42.5l12 82q2 10 6 35t7 37q4 45 4 59q0 20 -4.5 37t-6.5 19q-8 8 -12 10t-14 2q-4 0 -25 -4q-16 -4 -29 -8q-6 -2 -17 -6.5t-17 -6.5l-19 68l97 41q53 23 104 41q49 18 92 30.5t60 12.5q28 0 36 -18q8 -16 9 -66q0 -43 -5 -72l-14 -92l-16 -104q-4 -29 -9.5 -53.5 t-9.5 -49.5q-4 -18 -8 -55t-4 -41q-6 -45 -6 -78q0 -92 14 -127q16 -37 39 -37q27 0 49 7q10 2 58 22l18 -66l-80 -53l-78 -47q-39 -23 -71.5 -35t-55.5 -12q-25 0 -45 14q-23 16 -41 47q-23 37 -33 78t-14 111q-29 -45 -82 -100q-31 -33 -92 -78q-47 -35 -96 -53.5 t-94 -18.5q-27 0 -60 16q-35 18 -57 45q-25 29 -43 78q-16 41 -16 107q0 43 4 71l12 89q4 31 16 96q12 70 17 94q2 10 5 39t5 43q6 37 6 63q0 20 -4 37q-4 14 -8 19q-8 8 -12.5 10t-16.5 2q-4 0 -24.5 -4t-30.5 -8q-25 -8 -39 -13zM321 1079l299 377h138l198 -377 q-16 -25 -32 -37q-6 -6 -35 -22l-226 225l-286 -225q-12 8 -27 22q-23 23 -29 37z" />
<glyph unicode="&#xfc;" horiz-adv-x="1099" d="M25 811q88 39 96 41q74 29 108 41q57 20 95 31q43 12 61 12q29 0 39 -18q8 -16 8 -66q0 -29 -6 -76l-14 -100q-8 -55 -18.5 -114.5t-18.5 -115.5q-14 -90 -17 -100q-6 -47 -6 -76q0 -57 16.5 -85.5t37 -28.5t43.5 14q39 25 59 43q29 27 74 78q27 31 84 115q2 12 7 38.5 t7 42.5l12 82q2 10 6 35t7 37q4 45 4 59q0 20 -4.5 37t-6.5 19q-8 8 -12 10t-14 2q-4 0 -25 -4q-16 -4 -29 -8q-6 -2 -17 -6.5t-17 -6.5l-19 68l97 41q53 23 104 41q49 18 92 30.5t60 12.5q28 0 36 -18q8 -16 9 -66q0 -43 -5 -72l-14 -92l-16 -104q-4 -29 -9.5 -53.5 t-9.5 -49.5q-4 -18 -8 -55t-4 -41q-6 -45 -6 -78q0 -92 14 -127q16 -37 39 -37q27 0 49 7q10 2 58 22l18 -66l-80 -53l-78 -47q-39 -23 -71.5 -35t-55.5 -12q-25 0 -45 14q-23 16 -41 47q-23 37 -33 78t-14 111q-29 -45 -82 -100q-31 -33 -92 -78q-47 -35 -96 -53.5 t-94 -18.5q-27 0 -60 16q-35 18 -57 45q-25 29 -43 78q-16 41 -16 107q0 43 4 71l12 89q4 31 16 96q12 70 17 94q2 10 5 39t5 43q6 37 6 63q0 20 -4 37q-4 14 -8 19q-8 8 -12.5 10t-16.5 2q-4 0 -24.5 -4t-30.5 -8q-25 -8 -39 -13zM338 1184q0 33 10 61q14 41 31 62 q20 27 50.5 45t65.5 18q27 0 43 -8q18 -8 29 -23q10 -12 16 -32q6 -18 6 -37q0 -35 -10 -64q-14 -37 -31 -59q-20 -27 -50.5 -45.5t-65.5 -18.5q-49 0 -72 31q-22 33 -22 70zM725 1184q0 33 10 61q14 41 31 62q18 23 51 45q29 18 65 18q25 0 41 -8q20 -10 30.5 -22.5 t16.5 -32.5q6 -18 7 -37q0 -35 -11 -64q-12 -33 -32 -59q-23 -29 -50 -45q-31 -18 -67 -19q-49 0 -70 31q-22 33 -22 70z" />
<glyph unicode="&#xfd;" horiz-adv-x="978" d="M-197 -412q0 14 16.5 43t39.5 62q18 27 47 55q31 31 37 33q47 -43 96 -66q51 -23 86 -22q53 0 117 59q57 55 127 168q-4 14 -12.5 59.5t-14.5 71.5l-33 146q-6 29 -12 53l-11 43.5l-14 52.5l-39 139q-18 65 -36 117q-25 70 -31 82q-20 49 -39 68q-16 16 -35 16 q-4 0 -24 -4q-25 -4 -33 -8q-25 -8 -39 -13l-21 68l48.5 22.5l44.5 20.5q16 6 45.5 20.5t44.5 20.5q6 2 78 29q35 12 51 12q27 0 49 -29q18 -23 45 -98q6 -16 39 -115q8 -25 21.5 -77t17.5 -64q0 -4 41 -158q14 -55 39 -166l77 162q29 59 64 148q25 61 43 118q16 53 16 74 q0 49 -53 53q-14 2 -35 -4q-31 -10 -49 -18l-24 65q49 29 75 41q43 20 82 35q41 16 76 25q33 8 59 8q23 0 33 -2q23 -4 31 -10q14 -12 20 -25q6 -14 7 -39q0 -37 -27 -104q-28 -71 -74 -172l-112 -228l-144 -274q-53 -102 -137 -236q-70 -111 -137 -184q-70 -74 -148 -119 q-77 -43 -166 -43q-43 0 -75 8q-37 9 -68 25q-37 18 -49 29q-21 16 -21 26zM520 1069l236 397l38 -6q27 -4 58 -10q10 -2 28.5 -7t26.5 -7l37 -9l23 -61l-379 -346q-16 4 -35 18q-23 21 -33 31z" />
<glyph unicode="&#xfe;" horiz-adv-x="1028" d="M-18 -465l36 207l43 244l45 264q8 51 20.5 123.5l25.5 146.5l20 128t21 128l32 225q2 18 23 177q8 66 8 108q0 20 -4 37q-2 10 -12 20q-4 4 -17 9q-6 2 -20 2q-4 0 -13.5 -3t-13.5 -3q-20 -4 -31 -9q-6 -2 -18 -7t-18 -7l-17 70q88 39 96 41q23 8 50.5 19t58.5 22 q57 20 94 30q43 12 64 13q37 0 47 -23q10 -25 10 -70q0 -20 -6 -75q-6 -49 -19 -144q-25 -184 -28 -204l-17.5 -122t-21.5 -141q57 68 100 105q33 29 86 57q37 20 74 27q33 6 65 6q45 0 84 -21q41 -23 70 -59.5t47.5 -96t18.5 -132.5q0 -55 -9 -107q-9 -58 -24 -117 q-10 -39 -43 -120q-18 -45 -60 -117q-29 -45 -53 -76q-37 -43 -65 -67q-31 -25 -74 -46q-40 -18 -80 -18q-23 0 -53.5 12.5t-61.5 36.5q-49 39 -63 55q-35 39 -60 74l-22 -131q-23 -129 -29 -176q-14 -109 -14 -121q-4 -66 -4 -78q0 -25 6 -41q-8 -2 -49 -16 q-45 -16 -70 -27q-37 -14 -69 -28q-31 -10 -45 -19zM344 283q14 -20 43 -45q37 -31 53 -43q18 -12 60 -29q31 -12 55 -12q31 0 70 22q33 20 57 74q16 37 25 67q6 29 14 72q6 37 6 72v63q0 68 -8 107q-10 47 -25 74q-18 33 -32 43q-18 12 -33 12q-18 0 -45 -15 q-31 -16 -59.5 -42.5t-69.5 -73.5q-35 -39 -70 -105z" />
<glyph unicode="&#xff;" horiz-adv-x="978" d="M-197 -412q0 14 16.5 43t39.5 62q18 27 47 55q31 31 37 33q47 -43 96 -66q51 -23 86 -22q53 0 117 59q57 55 127 168q-4 14 -12.5 59.5t-14.5 71.5l-33 146q-6 29 -12 53l-11 43.5l-14 52.5l-39 139q-18 65 -36 117q-25 70 -31 82q-20 49 -39 68q-16 16 -35 16 q-4 0 -24 -4q-25 -4 -33 -8q-25 -8 -39 -13l-21 68l48.5 22.5l44.5 20.5q16 6 45.5 20.5t44.5 20.5q6 2 78 29q35 12 51 12q27 0 49 -29q18 -23 45 -98q6 -16 39 -115q8 -25 21.5 -77t17.5 -64q0 -4 41 -158q14 -55 39 -166l77 162q29 59 64 148q25 61 43 118q16 53 16 74 q0 49 -53 53q-14 2 -35 -4q-31 -10 -49 -18l-24 65q49 29 75 41q43 20 82 35q41 16 76 25q33 8 59 8q23 0 33 -2q23 -4 31 -10q14 -12 20 -25q6 -14 7 -39q0 -37 -27 -104q-28 -71 -74 -172l-112 -228l-144 -274q-53 -102 -137 -236q-70 -111 -137 -184q-70 -74 -148 -119 q-77 -43 -166 -43q-43 0 -75 8q-37 9 -68 25q-37 18 -49 29q-21 16 -21 26zM310 1184q0 33 10 61q14 41 31 62q20 27 50.5 45t65.5 18q27 0 43 -8q18 -8 29 -23q10 -12 16 -32q6 -18 6 -37q0 -35 -10 -64q-14 -37 -31 -59q-20 -27 -50.5 -45.5t-65.5 -18.5q-49 0 -72 31 q-22 33 -22 70zM697 1184q0 33 10 61q14 41 31 62q18 23 51 45q29 18 65 18q25 0 41 -8q20 -10 30.5 -22.5t16.5 -32.5q6 -18 7 -37q0 -35 -11 -64q-12 -33 -32 -59q-23 -29 -50 -45q-31 -18 -67 -19q-49 0 -70 31q-22 33 -22 70z" />
<glyph unicode="&#x100;" horiz-adv-x="1193" d="M-49 0l8 74q61 12 100 24q37 12 50 43l466 1063q16 14 54 39q6 4 59 31q29 14 60 24q37 12 53 19l227 -1176q2 -14 8 -24q6 -12 17 -21q4 -4 30 -12q23 -8 50 -10l-9 -74h-460l10 74q80 6 100 18q29 16 23 49l-56 287h-370l-127 -287q-12 -33 16.5 -45t104.5 -22l-11 -74 h-403zM424 551h295l-90 471zM358 1474q4 12 12 29q2 6 8.5 17l10.5 18q10 18 18 34q4 8 17 27h704l27 -33q-2 -8 -12 -28q-4 -8 -19 -35l-20 -35q-2 -4 -7.5 -12.5t-7.5 -12.5h-706z" />
<glyph unicode="&#x101;" d="M39 305q0 88 18 154q20 76 60 145q37 68 92 129q49 53 127 109q20 14 59 35q35 18 70 30q25 8 78 21q35 8 82 8q43 0 82 -18q41 -18 75 -41q12 8 39 18t31 12q43 18 59 29l31 -66q-12 -10 -26.5 -24.5t-20.5 -24.5q-8 -12 -14 -37q-6 -22 -13 -55q-8 -37 -26 -139 l-21 -123q-8 -53 -12 -100q-4 -57 -4 -66q0 -72 14 -113q16 -45 37 -45t45 7q33 8 64 22l16 -66l-84 -57l-78 -47l-65 -31q-29 -12 -45 -12q-20 0 -39 10q-25 14 -41 39q-20 31 -35 74q-14 41 -21 117q-29 -41 -69 -88q-37 -43 -76 -76q-45 -37 -80 -55q-41 -20 -82 -21 q-37 0 -76 18q-40 18 -73 62q-35 43 -56 106q-22 68 -22 160zM264 379q0 -59 8 -98q8 -37 23 -70q10 -25 31 -41q16 -14 36 -14q33 0 91 57q55 55 131 166q8 57 12 90l16 94q10 57 15 88q6 43 12 74q-14 14 -61 47q-33 23 -64 23q-41 0 -76 -23q-45 -29 -63 -51 q-25 -29 -47.5 -76t-34.5 -90q-16 -63 -21 -90q-8 -61 -8 -86zM231 1190q2 6 13 27q2 6 8 17t10 17q10 18 18 35q4 8 17 27h704l27 -33q0 -4 -12 -27l-21 -36q-4 -8 -8 -17.5t-10 -17.5q-2 -4 -7.5 -12.5t-7.5 -12.5h-706z" />
<glyph unicode="&#x102;" horiz-adv-x="1193" d="M-49 0l8 74q61 12 100 24q37 12 50 43l466 1063q16 14 54 39q6 4 59 31q29 14 60 24q37 12 53 19l227 -1176q2 -14 8 -24q6 -12 17 -21q4 -4 30 -12q23 -8 50 -10l-9 -74h-460l10 74q80 6 100 18q29 16 23 49l-56 287h-370l-127 -287q-12 -33 16.5 -45t104.5 -22l-11 -74 h-403zM424 551h295l-90 471zM439 1654q4 6 16 19q2 2 9 10t12 12q8 6 20 19q6 6 18 14q14 -49 41 -84q23 -31 58 -55q27 -18 63 -29q31 -8 64 -8q35 0 69 8q39 8 76 28.5t76 55.5q33 31 63 84q2 -2 7.5 -6t9.5 -8l18 -19q12 -12 18.5 -20t14.5 -21q-37 -82 -84 -137t-96 -90 q-51 -35 -96 -49q-53 -16 -89 -17q-43 0 -88 17q-41 14 -84 51q-37 31 -69 90q-27 49 -47 135z" />
<glyph unicode="&#x103;" d="M39 305q0 88 18 154q20 76 60 145q37 68 92 129q49 53 127 109q20 14 59 35q35 18 70 30q25 8 78 21q35 8 82 8q43 0 82 -18q41 -18 75 -41q12 8 39 18t31 12q43 18 59 29l31 -66q-12 -10 -26.5 -24.5t-20.5 -24.5q-8 -12 -14 -37q-6 -22 -13 -55q-8 -37 -26 -139 l-21 -123q-8 -53 -12 -100q-4 -57 -4 -66q0 -72 14 -113q16 -45 37 -45t45 7q33 8 64 22l16 -66l-84 -57l-78 -47l-65 -31q-29 -12 -45 -12q-20 0 -39 10q-25 14 -41 39q-20 31 -35 74q-14 41 -21 117q-29 -41 -69 -88q-37 -43 -76 -76q-45 -37 -80 -55q-41 -20 -82 -21 q-37 0 -76 18q-40 18 -73 62q-35 43 -56 106q-22 68 -22 160zM264 379q0 -59 8 -98q8 -37 23 -70q10 -25 31 -41q16 -14 36 -14q33 0 91 57q55 55 131 166q8 57 12 90l16 94q10 57 15 88q6 43 12 74q-14 14 -61 47q-33 23 -64 23q-41 0 -76 -23q-45 -29 -63 -51 q-25 -29 -47.5 -76t-34.5 -90q-16 -63 -21 -90q-8 -61 -8 -86zM310 1335q4 6 16 19q2 2 9 10t12 12q8 6 20 19q6 6 18 14q14 -49 41 -84q23 -31 58 -55q27 -18 63 -29q31 -8 64 -8q35 0 69 8q39 8 76 28.5t76 55.5q33 31 63 84q2 -2 7.5 -6t9.5 -8l18 -19q12 -12 18.5 -20 t14.5 -21q-37 -82 -84 -137t-96 -90q-51 -35 -96 -49q-53 -16 -89 -17q-43 0 -88 17q-41 14 -84 51q-37 31 -69 90q-27 49 -47 135z" />
<glyph unicode="&#x106;" horiz-adv-x="1038" d="M61 459q0 98 21 192q23 104 59 189q39 92 103 176q61 84 145 151q41 31 82 52q49 25 92 38q45 14 96 25q43 8 97 8q55 0 98 -8q33 -6 90 -22q41 -12 76 -31q56 -31 56 -42q0 -4 -5 -16q-10 -27 -16 -36q-2 -4 -10.5 -19.5t-14.5 -25.5q-20 -33 -31 -48q-14 -23 -28 -41 q-14 -20 -23 -26l-59 14q-20 41 -33 62q-18 31 -47 53q-37 29 -59 37q-34 12 -74 12q-47 0 -78 -10q-39 -12 -78 -43q-59 -45 -104 -123q-43 -76 -68 -156q-27 -90 -35 -162q-12 -106 -12 -143q0 -106 28.5 -182t71.5 -119t93 -61q55 -20 94 -21q23 0 57 6q29 6 74 23 q31 12 90 45q68 39 113 72q4 -2 10 -13l10 -20l8 -23q3 -9 6 -12q-61 -61 -133 -113q-66 -47 -125 -73q-57 -27 -116 -39q-55 -12 -103 -13q-88 0 -162 33q-76 33 -133 94q-55 57 -90 152q-33 86 -33 207zM543 1406l354 324q10 -6 20.5 -11l22.5 -11l45 -25 q12 -6 23.5 -14.5t19.5 -12.5q23 -12 33 -20v-62l-471 -235q-16 10 -27 29q-14 26 -20 38z" />
<glyph unicode="&#x107;" horiz-adv-x="872" d="M72 322q0 74 14 137q16 74 45 133q29 61 82 127q43 53 125 108q31 20 63 37q45 23 80 35q57 20 86 27q47 10 86 10q47 0 78 -14q45 -20 66 -33q16 -10 30.5 -21.5t24.5 -17.5q27 -18 53 -27l-49 -47q-18 -18 -59 -51q-37 -31 -58 -41q-27 -14 -43 -14t-32 18 q-31 39 -35 43q-18 25 -43 43q-27 20 -54 21q-53 0 -96 -37t-71.5 -96.5t-42.5 -131.5q-14 -70 -15 -143q0 -59 10 -115q8 -39 31 -86q16 -31 45 -53q25 -18 58 -18q53 0 129 39q84 43 184 127q2 -2 5 -7.5t5 -7.5q4 -8 17 -22q8 -10 14 -21l8 -12q-74 -68 -143 -121 q-66 -51 -121 -78q-61 -31 -103 -41q-49 -12 -94 -12q-47 0 -90 16q-53 20 -92 60q-45 45 -71.5 113t-26.5 174zM514 1069l236 397l38 -6q27 -4 58 -10q10 -2 28.5 -7t26.5 -7l37 -9l23 -61l-379 -346q-16 4 -35 18q-23 21 -33 31z" />
<glyph unicode="&#x108;" horiz-adv-x="1038" d="M61 459q0 98 21 192q23 104 59 189q39 92 103 176q61 84 145 151q41 31 82 52q49 25 92 38q45 14 96 25q43 8 97 8q55 0 98 -8q33 -6 90 -22q41 -12 76 -31q56 -31 56 -42q0 -4 -5 -16q-10 -27 -16 -36q-2 -4 -10.5 -19.5t-14.5 -25.5q-20 -33 -31 -48q-14 -23 -28 -41 q-14 -20 -23 -26l-59 14q-20 41 -33 62q-18 31 -47 53q-37 29 -59 37q-34 12 -74 12q-47 0 -78 -10q-39 -12 -78 -43q-59 -45 -104 -123q-43 -76 -68 -156q-27 -90 -35 -162q-12 -106 -12 -143q0 -106 28.5 -182t71.5 -119t93 -61q55 -20 94 -21q23 0 57 6q29 6 74 23 q31 12 90 45q68 39 113 72q4 -2 10 -13l10 -20l8 -23q3 -9 6 -12q-61 -61 -133 -113q-66 -47 -125 -73q-57 -27 -116 -39q-55 -12 -103 -13q-88 0 -162 33q-76 33 -133 94q-55 57 -90 152q-33 86 -33 207zM408 1398l291 307h120l207 -307q-20 -29 -28 -37q-10 -10 -31 -22 l-234 174l-276 -174q-12 8 -25 22q-18 23 -24 37z" />
<glyph unicode="&#x109;" horiz-adv-x="872" d="M72 322q0 74 14 137q16 74 45 133q29 61 82 127q43 53 125 108q31 20 63 37q45 23 80 35q57 20 86 27q47 10 86 10q47 0 78 -14q45 -20 66 -33q16 -10 30.5 -21.5t24.5 -17.5q27 -18 53 -27l-49 -47q-18 -18 -59 -51q-37 -31 -58 -41q-27 -14 -43 -14t-32 18 q-31 39 -35 43q-18 25 -43 43q-27 20 -54 21q-53 0 -96 -37t-71.5 -96.5t-42.5 -131.5q-14 -70 -15 -143q0 -59 10 -115q8 -39 31 -86q16 -31 45 -53q25 -18 58 -18q53 0 129 39q84 43 184 127q2 -2 5 -7.5t5 -7.5q4 -8 17 -22q8 -10 14 -21l8 -12q-74 -68 -143 -121 q-66 -51 -121 -78q-61 -31 -103 -41q-49 -12 -94 -12q-47 0 -90 16q-53 20 -92 60q-45 45 -71.5 113t-26.5 174zM286 1079l299 377h138l198 -377q-16 -25 -32 -37q-6 -6 -35 -22l-226 225l-286 -225q-12 8 -27 22q-23 23 -29 37z" />
<glyph unicode="&#x10a;" horiz-adv-x="1038" d="M61 459q0 98 21 192q23 104 59 189q39 92 103 176q61 84 145 151q41 31 82 52q49 25 92 38q45 14 96 25q43 8 97 8q55 0 98 -8q33 -6 90 -22q41 -12 76 -31q56 -31 56 -42q0 -4 -5 -16q-10 -27 -16 -36q-2 -4 -10.5 -19.5t-14.5 -25.5q-20 -33 -31 -48q-14 -23 -28 -41 q-14 -20 -23 -26l-59 14q-20 41 -33 62q-18 31 -47 53q-37 29 -59 37q-34 12 -74 12q-47 0 -78 -10q-39 -12 -78 -43q-59 -45 -104 -123q-43 -76 -68 -156q-27 -90 -35 -162q-12 -106 -12 -143q0 -106 28.5 -182t71.5 -119t93 -61q55 -20 94 -21q23 0 57 6q29 6 74 23 q31 12 90 45q68 39 113 72q4 -2 10 -13l10 -20l8 -23q3 -9 6 -12q-61 -61 -133 -113q-66 -47 -125 -73q-57 -27 -116 -39q-55 -12 -103 -13q-88 0 -162 33q-76 33 -133 94q-55 57 -90 152q-33 86 -33 207zM600 1464q0 31 13 63q14 37 30 60q23 31 49 47q25 16 66 16 q27 0 43 -8q18 -8 29 -23q10 -12 16 -30.5t6 -38.5q0 -35 -10 -64q-14 -37 -31 -59q-20 -27 -51 -45.5t-65 -18.5q-51 0 -72 31q-23 33 -23 70z" />
<glyph unicode="&#x10b;" horiz-adv-x="872" d="M72 322q0 74 14 137q16 74 45 133q29 61 82 127q43 53 125 108q31 20 63 37q45 23 80 35q57 20 86 27q47 10 86 10q47 0 78 -14q45 -20 66 -33q16 -10 30.5 -21.5t24.5 -17.5q27 -18 53 -27l-49 -47q-18 -18 -59 -51q-37 -31 -58 -41q-27 -14 -43 -14t-32 18 q-31 39 -35 43q-18 25 -43 43q-27 20 -54 21q-53 0 -96 -37t-71.5 -96.5t-42.5 -131.5q-14 -70 -15 -143q0 -59 10 -115q8 -39 31 -86q16 -31 45 -53q25 -18 58 -18q53 0 129 39q84 43 184 127q2 -2 5 -7.5t5 -7.5q4 -8 17 -22q8 -10 14 -21l8 -12q-74 -68 -143 -121 q-66 -51 -121 -78q-61 -31 -103 -41q-49 -12 -94 -12q-47 0 -90 16q-53 20 -92 60q-45 45 -71.5 113t-26.5 174zM489 1184q0 28 13 61q14 41 30 62q20 25 50 45q29 18 65 18q27 0 43 -8q18 -8 29 -23q10 -12 16 -32q6 -18 6 -37q0 -35 -10 -64q-14 -37 -31 -59 q-20 -27 -51 -45.5t-65 -18.5q-47 0 -70 31q-25 35 -25 70z" />
<glyph unicode="&#x10c;" horiz-adv-x="1038" d="M61 459q0 98 21 192q23 104 59 189q39 92 103 176q61 84 145 151q41 31 82 52q49 25 92 38q45 14 96 25q43 8 97 8q55 0 98 -8q33 -6 90 -22q41 -12 76 -31q56 -31 56 -42q0 -4 -5 -16q-10 -27 -16 -36q-2 -4 -10.5 -19.5t-14.5 -25.5q-20 -33 -31 -48q-14 -23 -28 -41 q-14 -20 -23 -26l-59 14q-20 41 -33 62q-18 31 -47 53q-37 29 -59 37q-34 12 -74 12q-47 0 -78 -10q-39 -12 -78 -43q-59 -45 -104 -123q-43 -76 -68 -156q-27 -90 -35 -162q-12 -106 -12 -143q0 -106 28.5 -182t71.5 -119t93 -61q55 -20 94 -21q23 0 57 6q29 6 74 23 q31 12 90 45q68 39 113 72q4 -2 10 -13l10 -20l8 -23q3 -9 6 -12q-61 -61 -133 -113q-66 -47 -125 -73q-57 -27 -116 -39q-55 -12 -103 -13q-88 0 -162 33q-76 33 -133 94q-55 57 -90 152q-33 86 -33 207zM440 1679q20 25 33 37q4 4 35 28l233 -188l279 188q2 -2 8 -7 t11 -10t10 -11q20 -25 26 -37l-291 -318h-137z" />
<glyph unicode="&#x10d;" horiz-adv-x="872" d="M72 322q0 74 14 137q16 74 45 133q29 61 82 127q43 53 125 108q31 20 63 37q45 23 80 35q57 20 86 27q47 10 86 10q47 0 78 -14q45 -20 66 -33q16 -10 30.5 -21.5t24.5 -17.5q27 -18 53 -27l-49 -47q-18 -18 -59 -51q-37 -31 -58 -41q-27 -14 -43 -14t-32 18 q-31 39 -35 43q-18 25 -43 43q-27 20 -54 21q-53 0 -96 -37t-71.5 -96.5t-42.5 -131.5q-14 -70 -15 -143q0 -59 10 -115q8 -39 31 -86q16 -31 45 -53q25 -18 58 -18q53 0 129 39q84 43 184 127q2 -2 5 -7.5t5 -7.5q4 -8 17 -22q8 -10 14 -21l8 -12q-74 -68 -143 -121 q-66 -51 -121 -78q-61 -31 -103 -41q-49 -12 -94 -12q-47 0 -90 16q-53 20 -92 60q-45 45 -71.5 113t-26.5 174zM332 1415q16 18 35 35l35 27l223 -222l289 222l26 -27q10 -10 27 -35l-295 -373h-137z" />
<glyph unicode="&#x10e;" horiz-adv-x="1206" d="M-8 0l10 74q59 14 96 30q35 16 37 29l141 1026l-141 -20v94q61 16 121 24l127 17q10 0 54 5t69 7q82 4 110 4q144 0 252 -37q102 -35 176 -108q72 -72 105 -168t33 -223q0 -94 -21 -179q-23 -94 -61 -174q-41 -86 -99 -157q-55 -70 -131 -127q-72 -53 -165 -86 q-90 -31 -193 -31h-520zM375 162q-4 -29 22 -41q33 -14 103 -15q72 0 127 27q61 29 106 72q51 47 86 106q37 61 62 129q25 66 37 144q12 74 12 143q0 109 -21 191q-23 90 -63 145q-45 59 -111 90q-68 31 -164 31q-6 0 -14 -1t-14 -1t-16.5 -1t-14.5 -1zM438 1679 q20 25 33 37q4 4 35 28l233 -188l279 188q2 -2 8 -7t11 -10t10 -11q20 -25 26 -37l-291 -318h-137z" />
<glyph unicode="&#x110;" horiz-adv-x="1206" d="M-8 0l10 74q59 14 96 30q35 16 37 29l64 467h-115l-27 31q2 4 5.5 9t5.5 9q10 20 14 27q8 12 14 24l10 21h109l61 438l-141 -20v94q61 16 121 24l127 17q10 0 54 5t69 7q82 4 110 4q144 0 252 -37q102 -35 176 -108q72 -72 105 -168t33 -223q0 -94 -21 -179 q-23 -94 -61 -174q-41 -86 -99 -157q-55 -70 -131 -127q-72 -53 -165 -86q-90 -31 -193 -31h-520zM375 162q-4 -29 22 -41q33 -14 103 -15q72 0 127 27q61 29 106 72q51 47 86 106q37 61 62 129q25 66 37 144q12 74 12 143q0 109 -21 191q-23 90 -63 145q-45 59 -111 90 q-68 31 -164 31q-6 0 -14 -1t-14 -1t-16.5 -1t-14.5 -1l-63 -459h237l27 -33l-49 -88h-232z" />
<glyph unicode="&#x111;" horiz-adv-x="1017" d="M39 315q0 80 18 154q16 68 58 141q39 70 92 127q57 59 125 105q33 23 61 35q57 25 72 30q29 10 76 21q35 8 73 8q12 0 29 -6q20 -8 31 -15l12 86q2 12 5 39t5 41h-268l-27 29l11 20q2 6 6 12.5l8 12.5t6 13.5t6 13.5l13 18h260q6 52 6 86q0 20 -4 36.5t-8.5 21t-16.5 8.5 q-6 2 -16 2q-4 0 -12.5 -3t-12.5 -3q-8 -2 -17 -4.5t-18 -4.5q-6 -2 -17 -6t-24 -8l-16 70l107 47l100 41q41 16 86 26q41 10 55 11q33 0 51.5 -18.5t18.5 -63.5q0 -18 -8 -101q-6 -68 -19 -137h135l27 -31l-49 -88h-131l-10.5 -64.5l-14.5 -84.5q-14 -78 -26 -154l-25 -145 q-20 -121 -23 -131q-2 -20 -14 -111q-4 -33 -4 -78q0 -84 14 -125q15 -43 37 -43q27 0 51 7q27 6 58 20l16 -68l-82 -55q-16 -8 -41.5 -24.5t-36.5 -22.5q-25 -14 -65 -31q-31 -12 -51 -12q-14 0 -37 12.5t-41 40.5q-20 31 -35 74q-10 33 -18 115q-80 -117 -162 -181 q-80 -61 -150 -61q-41 0 -80 21q-41 23 -73 63q-34 43 -56 111q-20 63 -20 161zM264 379q0 -109 33 -168q31 -55 72 -55q12 0 34 12q25 14 50 39q31 31 61 69q45 57 76 105q18 127 22 151q12 70 29 185q-18 20 -59 53q-31 25 -70 25q-43 0 -76 -21q-41 -27 -63 -53 q-25 -29 -47 -76q-25 -49 -35 -88q-12 -46 -19 -92q-8 -61 -8 -86z" />
<glyph unicode="&#x112;" horiz-adv-x="1007" d="M-8 0l10 74q70 16 100 30q33 14 35 29l137 991q2 10 -26 31q-25 16 -92 33l10 72h815l33 -31l-7.5 -30.5t-7.5 -35.5l-18 -80q-4 -10 -11 -36.5t-12 -40.5q-14 -43 -20 -56h-70q4 36 4 66q0 45 -8 76q-12 49 -47 49h-309l-57 -406h368l29 -35q-4 -6 -12.5 -17t-10.5 -15 l-14 -18.5t-14 -20.5q-2 -2 -12.5 -15.5t-16.5 -19.5l-9 -9t-8 -9.5t-8 -6.5q-14 18 -28 27q-18 10 -37 16q-27 8 -51 11q-20 2 -74 2h-117l-59 -441q-4 -16 2 -26.5t24 -20.5q18 -9 56 -12q49 -4 98 -4h92q47 0 74 10q37 14 57 35q23 23 49 65q29 47 54 99l63 -27 q-4 -16 -9 -39.5l-11 -50.5l-23 -90l-11 -44t-9 -32q-6 -18 -17 -47h-874zM264 1474q4 12 12 29q2 6 8.5 17l10.5 18q10 18 18 34q4 8 17 27h704l27 -33q-2 -8 -12 -28q-4 -8 -19 -35l-20 -35q-2 -4 -7.5 -12.5t-7.5 -12.5h-706z" />
<glyph unicode="&#x113;" horiz-adv-x="864" d="M47 303q0 72 21 150q20 82 53 137q37 65 86 123q51 61 112 110q29 25 56 39l71 37q47 18 78 27q45 10 80 10q55 0 101 -16q39 -14 67 -39q25 -23 39 -58q14 -37 14 -63q0 -29 -6 -60q-4 -23 -26 -63q-20 -37 -56 -72q-39 -39 -98 -78q-61 -41 -145 -81q-63 -33 -209 -84 q6 -49 20 -86q12 -31 35 -66q12 -20 43 -41q20 -14 47 -14q47 0 125 39q92 45 201 135q6 -3 12 -13q12 -18 14 -22q4 -8 13 -21l8 -16q-80 -70 -150 -119q-80 -57 -123 -82q-55 -31 -102 -43q-53 -14 -92 -14q-43 0 -92 18q-51 18 -94 60q-37 35 -72 106q-31 65 -31 160z M281 434q102 45 157 80q49 31 88 70q29 29 39 61q10 35 10 64q0 47 -20 69.5t-49 22.5q-4 0 -21 -4q-14 -4 -28 -13q-20 -12 -31 -20q-14 -12 -27 -27q-53 -63 -82 -131q-30 -74 -36 -172zM190 1190q2 6 13 27q2 6 8 17t10 17q10 18 18 35q4 8 17 27h704l27 -33 q0 -4 -12 -27l-21 -36q-4 -8 -8 -17.5t-10 -17.5q-2 -4 -7.5 -12.5t-7.5 -12.5h-706z" />
<glyph unicode="&#x114;" horiz-adv-x="1007" d="M-8 0l10 74q70 16 100 30q33 14 35 29l137 991q2 10 -26 31q-25 16 -92 33l10 72h815l33 -31l-7.5 -30.5t-7.5 -35.5l-18 -80q-4 -10 -11 -36.5t-12 -40.5q-14 -43 -20 -56h-70q4 36 4 66q0 45 -8 76q-12 49 -47 49h-309l-57 -406h368l29 -35q-4 -6 -12.5 -17t-10.5 -15 l-14 -18.5t-14 -20.5q-2 -2 -12.5 -15.5t-16.5 -19.5l-9 -9t-8 -9.5t-8 -6.5q-14 18 -28 27q-18 10 -37 16q-27 8 -51 11q-20 2 -74 2h-117l-59 -441q-4 -16 2 -26.5t24 -20.5q18 -9 56 -12q49 -4 98 -4h92q47 0 74 10q37 14 57 35q23 23 49 65q29 47 54 99l63 -27 q-4 -16 -9 -39.5l-11 -50.5l-23 -90l-11 -44t-9 -32q-6 -18 -17 -47h-874zM346 1654q4 6 16 19q2 2 9 10t12 12q8 6 20 19q6 6 18 14q14 -49 41 -84q23 -31 58 -55q27 -18 63 -29q31 -8 64 -8q35 0 69 8q39 8 76 28.5t76 55.5q33 31 63 84q2 -2 7.5 -6t9.5 -8l18 -19 q12 -12 18.5 -20t14.5 -21q-37 -82 -84 -137t-96 -90q-51 -35 -96 -49q-53 -16 -89 -17q-43 0 -88 17q-41 14 -84 51q-37 31 -69 90q-27 49 -47 135z" />
<glyph unicode="&#x115;" horiz-adv-x="864" d="M47 303q0 72 21 150q20 82 53 137q37 65 86 123q51 61 112 110q29 25 56 39l71 37q47 18 78 27q45 10 80 10q55 0 101 -16q39 -14 67 -39q25 -23 39 -58q14 -37 14 -63q0 -29 -6 -60q-4 -23 -26 -63q-20 -37 -56 -72q-39 -39 -98 -78q-61 -41 -145 -81q-63 -33 -209 -84 q6 -49 20 -86q12 -31 35 -66q12 -20 43 -41q20 -14 47 -14q47 0 125 39q92 45 201 135q6 -3 12 -13q12 -18 14 -22q4 -8 13 -21l8 -16q-80 -70 -150 -119q-80 -57 -123 -82q-55 -31 -102 -43q-53 -14 -92 -14q-43 0 -92 18q-51 18 -94 60q-37 35 -72 106q-31 65 -31 160z M281 434q102 45 157 80q49 31 88 70q29 29 39 61q10 35 10 64q0 47 -20 69.5t-49 22.5q-4 0 -21 -4q-14 -4 -28 -13q-20 -12 -31 -20q-14 -12 -27 -27q-53 -63 -82 -131q-30 -74 -36 -172zM267 1335q4 6 16 19q2 2 9 10t12 12q8 6 20 19q6 6 18 14q14 -49 41 -84 q23 -31 58 -55q27 -18 63 -29q31 -8 64 -8q35 0 69 8q39 8 76 28.5t76 55.5q33 31 63 84q2 -2 7.5 -6t9.5 -8l18 -19q12 -12 18.5 -20t14.5 -21q-37 -82 -84 -137t-96 -90q-51 -35 -96 -49q-53 -16 -89 -17q-43 0 -88 17q-41 14 -84 51q-37 31 -69 90q-27 49 -47 135z" />
<glyph unicode="&#x116;" horiz-adv-x="1007" d="M-8 0l10 74q70 16 100 30q33 14 35 29l137 991q2 10 -26 31q-25 16 -92 33l10 72h815l33 -31l-7.5 -30.5t-7.5 -35.5l-18 -80q-4 -10 -11 -36.5t-12 -40.5q-14 -43 -20 -56h-70q4 36 4 66q0 45 -8 76q-12 49 -47 49h-309l-57 -406h368l29 -35q-4 -6 -12.5 -17t-10.5 -15 l-14 -18.5t-14 -20.5q-2 -2 -12.5 -15.5t-16.5 -19.5l-9 -9t-8 -9.5t-8 -6.5q-14 18 -28 27q-18 10 -37 16q-27 8 -51 11q-20 2 -74 2h-117l-59 -441q-4 -16 2 -26.5t24 -20.5q18 -9 56 -12q49 -4 98 -4h92q47 0 74 10q37 14 57 35q23 23 49 65q29 47 54 99l63 -27 q-4 -16 -9 -39.5l-11 -50.5l-23 -90l-11 -44t-9 -32q-6 -18 -17 -47h-874zM518 1464q0 31 13 63q14 37 30 60q23 31 49 47q25 16 66 16q27 0 43 -8q18 -8 29 -23q10 -12 16 -30.5t6 -38.5q0 -35 -10 -64q-14 -37 -31 -59q-20 -27 -51 -45.5t-65 -18.5q-51 0 -72 31 q-23 33 -23 70z" />
<glyph unicode="&#x117;" horiz-adv-x="864" d="M47 303q0 72 21 150q20 82 53 137q37 65 86 123q51 61 112 110q29 25 56 39l71 37q47 18 78 27q45 10 80 10q55 0 101 -16q39 -14 67 -39q25 -23 39 -58q14 -37 14 -63q0 -29 -6 -60q-4 -23 -26 -63q-20 -37 -56 -72q-39 -39 -98 -78q-61 -41 -145 -81q-63 -33 -209 -84 q6 -49 20 -86q12 -31 35 -66q12 -20 43 -41q20 -14 47 -14q47 0 125 39q92 45 201 135q6 -3 12 -13q12 -18 14 -22q4 -8 13 -21l8 -16q-80 -70 -150 -119q-80 -57 -123 -82q-55 -31 -102 -43q-53 -14 -92 -14q-43 0 -92 18q-51 18 -94 60q-37 35 -72 106q-31 65 -31 160z M281 434q102 45 157 80q49 31 88 70q29 29 39 61q10 35 10 64q0 47 -20 69.5t-49 22.5q-4 0 -21 -4q-14 -4 -28 -13q-20 -12 -31 -20q-14 -12 -27 -27q-53 -63 -82 -131q-30 -74 -36 -172zM444 1184q0 28 13 61q14 41 30 62q20 25 50 45q29 18 65 18q27 0 43 -8 q18 -8 29 -23q10 -12 16 -32q6 -18 6 -37q0 -35 -10 -64q-14 -37 -31 -59q-20 -27 -51 -45.5t-65 -18.5q-47 0 -70 31q-25 35 -25 70z" />
<glyph unicode="&#x11a;" horiz-adv-x="1007" d="M-8 0l10 74q70 16 100 30q33 14 35 29l137 991q2 10 -26 31q-25 16 -92 33l10 72h815l33 -31l-7.5 -30.5t-7.5 -35.5l-18 -80q-4 -10 -11 -36.5t-12 -40.5q-14 -43 -20 -56h-70q4 36 4 66q0 45 -8 76q-12 49 -47 49h-309l-57 -406h368l29 -35q-4 -6 -12.5 -17t-10.5 -15 l-14 -18.5t-14 -20.5q-2 -2 -12.5 -15.5t-16.5 -19.5l-9 -9t-8 -9.5t-8 -6.5q-14 18 -28 27q-18 10 -37 16q-27 8 -51 11q-20 2 -74 2h-117l-59 -441q-4 -16 2 -26.5t24 -20.5q18 -9 56 -12q49 -4 98 -4h92q47 0 74 10q37 14 57 35q23 23 49 65q29 47 54 99l63 -27 q-4 -16 -9 -39.5l-11 -50.5l-23 -90l-11 -44t-9 -32q-6 -18 -17 -47h-874zM356 1679q20 25 33 37q4 4 35 28l233 -188l279 188q2 -2 8 -7t11 -10t10 -11q20 -25 26 -37l-291 -318h-137z" />
<glyph unicode="&#x11b;" horiz-adv-x="864" d="M47 303q0 72 21 150q20 82 53 137q37 65 86 123q51 61 112 110q29 25 56 39l71 37q47 18 78 27q45 10 80 10q55 0 101 -16q39 -14 67 -39q25 -23 39 -58q14 -37 14 -63q0 -29 -6 -60q-4 -23 -26 -63q-20 -37 -56 -72q-39 -39 -98 -78q-61 -41 -145 -81q-63 -33 -209 -84 q6 -49 20 -86q12 -31 35 -66q12 -20 43 -41q20 -14 47 -14q47 0 125 39q92 45 201 135q6 -3 12 -13q12 -18 14 -22q4 -8 13 -21l8 -16q-80 -70 -150 -119q-80 -57 -123 -82q-55 -31 -102 -43q-53 -14 -92 -14q-43 0 -92 18q-51 18 -94 60q-37 35 -72 106q-31 65 -31 160z M281 434q102 45 157 80q49 31 88 70q29 29 39 61q10 35 10 64q0 47 -20 69.5t-49 22.5q-4 0 -21 -4q-14 -4 -28 -13q-20 -12 -31 -20q-14 -12 -27 -27q-53 -63 -82 -131q-30 -74 -36 -172zM285 1415q16 18 35 35l35 27l223 -222l289 222l26 -27q10 -10 27 -35l-295 -373 h-137z" />
<glyph unicode="&#x11c;" horiz-adv-x="1118" d="M61 487q0 100 21 189q23 94 61 176q41 84 94.5 155.5t120.5 129.5q37 31 91 63q45 27 102 49.5t115 30.5q68 10 135 10q23 0 80 -8q43 -6 86 -18q35 -10 84 -33q39 -18 63 -43q6 -6 0 -19q-10 -27 -16 -36q-16 -29 -27 -46q-6 -10 -14 -22l-17 -25q-10 -14 -30 -39 q-10 -12 -25 -26l-57 12q-18 39 -41 70q-23 33 -51 55q-35 29 -70 39q-41 12 -88 12q-49 0 -94 -22q-53 -27 -101 -74q-35 -33 -71 -98q-35 -63 -60 -138q-23 -70 -39 -151q-14 -74 -14 -150q0 -102 29 -182q27 -74 71 -125q43 -49 97 -71q59 -25 106 -25q29 0 74 10t76 33 l41 295q0 14 -2 20q-4 12 -25 20.5t-66 18.5q-66 14 -116 23l6 74h534l-6 -74q-53 -14 -78 -37q-23 -20 -26 -45q-2 -10 -5 -34.5t-5 -35.5q-2 -14 -5.5 -42.5t-5.5 -43t-5 -41t-5 -41t-4 -34t-2 -23.5q-72 -57 -141 -100q-63 -39 -121 -62q-53 -20 -103 -31q-41 -8 -88 -8 q-96 0 -174 35q-86 39 -149 105q-66 70 -103 163q-37 95 -37 215zM445 1398l291 307h120l207 -307q-20 -29 -28 -37q-10 -10 -31 -22l-234 174l-276 -174q-12 8 -25 22q-18 23 -24 37z" />
<glyph unicode="&#x11d;" horiz-adv-x="960" d="M-20 -387q0 8 10 29q10 18 22 34l31 37q20 25 31 35q4 4 28 23q14 10 17 10q12 0 28 -17q16 -18 46 -38q20 -16 69 -37q43 -18 100 -19q31 0 68 15q31 12 57 45q23 29 45 86q18 47 35 137q12 72 21 151q4 41 8 136q-35 -53 -82 -111q-45 -55 -84 -88q-51 -45 -86 -61 q-41 -20 -86 -21q-33 0 -72 18q-43 20 -75.5 61.5t-57.5 106.5t-24 160q0 162 75 299q80 141 226 238q59 39 129 65q76 29 166 29q39 0 80 -21q37 -18 79 -47q37 25 68 39l57 29l35 -66q-35 -29 -53 -67q-18 -41 -29 -115q-14 -104 -20 -211l-11 -174q-2 -57 -10 -153 q-8 -98 -18 -150q-12 -66 -43 -131q-35 -74 -72 -121q-45 -59 -92 -102q-43 -41 -104 -78q-41 -25 -113 -49q-55 -18 -109 -19q-57 0 -100 11q-61 14 -94 28q-41 16 -70 37q-26 19 -26 37zM258 379q0 -117 29 -168q31 -55 73 -55q10 0 35 14q18 10 54 45q23 23 69 84 q40 52 86 129q2 33 10 113q10 94 17 131q3 22 12 43q-23 23 -68 55q-35 25 -65 25q-45 0 -78 -21q-37 -25 -61 -53q-29 -35 -49 -76q-16 -33 -35 -88q-16 -51 -23 -92q-6 -46 -6 -86zM241 1079l299 377h138l198 -377q-16 -25 -32 -37q-6 -6 -35 -22l-226 225l-286 -225 q-12 8 -27 22q-23 23 -29 37z" />
<glyph unicode="&#x11e;" horiz-adv-x="1118" d="M61 487q0 100 21 189q23 94 61 176q41 84 94.5 155.5t120.5 129.5q37 31 91 63q45 27 102 49.5t115 30.5q68 10 135 10q23 0 80 -8q43 -6 86 -18q35 -10 84 -33q39 -18 63 -43q6 -6 0 -19q-10 -27 -16 -36q-16 -29 -27 -46q-6 -10 -14 -22l-17 -25q-10 -14 -30 -39 q-10 -12 -25 -26l-57 12q-18 39 -41 70q-23 33 -51 55q-35 29 -70 39q-41 12 -88 12q-49 0 -94 -22q-53 -27 -101 -74q-35 -33 -71 -98q-35 -63 -60 -138q-23 -70 -39 -151q-14 -74 -14 -150q0 -102 29 -182q27 -74 71 -125q43 -49 97 -71q59 -25 106 -25q29 0 74 10t76 33 l41 295q0 14 -2 20q-4 12 -25 20.5t-66 18.5q-66 14 -116 23l6 74h534l-6 -74q-53 -14 -78 -37q-23 -20 -26 -45q-2 -10 -5 -34.5t-5 -35.5q-2 -14 -5.5 -42.5t-5.5 -43t-5 -41t-5 -41t-4 -34t-2 -23.5q-72 -57 -141 -100q-63 -39 -121 -62q-53 -20 -103 -31q-41 -8 -88 -8 q-96 0 -174 35q-86 39 -149 105q-66 70 -103 163q-37 95 -37 215zM463 1654q4 6 16 19q2 2 9 10t12 12q8 6 20 19q6 6 18 14q14 -49 41 -84q23 -31 58 -55q27 -18 63 -29q31 -8 64 -8q35 0 69 8q39 8 76 28.5t76 55.5q33 31 63 84q2 -2 7.5 -6t9.5 -8l18 -19 q12 -12 18.5 -20t14.5 -21q-37 -82 -84 -137t-96 -90q-51 -35 -96 -49q-53 -16 -89 -17q-43 0 -88 17q-41 14 -84 51q-37 31 -69 90q-27 49 -47 135z" />
<glyph unicode="&#x11f;" horiz-adv-x="960" d="M-20 -387q0 8 10 29q10 18 22 34l31 37q20 25 31 35q4 4 28 23q14 10 17 10q12 0 28 -17q16 -18 46 -38q20 -16 69 -37q43 -18 100 -19q31 0 68 15q31 12 57 45q23 29 45 86q18 47 35 137q12 72 21 151q4 41 8 136q-35 -53 -82 -111q-45 -55 -84 -88q-51 -45 -86 -61 q-41 -20 -86 -21q-33 0 -72 18q-43 20 -75.5 61.5t-57.5 106.5t-24 160q0 162 75 299q80 141 226 238q59 39 129 65q76 29 166 29q39 0 80 -21q37 -18 79 -47q37 25 68 39l57 29l35 -66q-35 -29 -53 -67q-18 -41 -29 -115q-14 -104 -20 -211l-11 -174q-2 -57 -10 -153 q-8 -98 -18 -150q-12 -66 -43 -131q-35 -74 -72 -121q-45 -59 -92 -102q-43 -41 -104 -78q-41 -25 -113 -49q-55 -18 -109 -19q-57 0 -100 11q-61 14 -94 28q-41 16 -70 37q-26 19 -26 37zM258 379q0 -117 29 -168q31 -55 73 -55q10 0 35 14q18 10 54 45q23 23 69 84 q40 52 86 129q2 33 10 113q10 94 17 131q3 22 12 43q-23 23 -68 55q-35 25 -65 25q-45 0 -78 -21q-37 -25 -61 -53q-29 -35 -49 -76q-16 -33 -35 -88q-16 -51 -23 -92q-6 -46 -6 -86zM267 1335q4 6 16 19q2 2 9 10t12 12q8 6 20 19q6 6 18 14q14 -49 41 -84q23 -31 58 -55 q27 -18 63 -29q31 -8 64 -8q35 0 69 8q39 8 76 28.5t76 55.5q33 31 63 84q2 -2 7.5 -6t9.5 -8l18 -19q12 -12 18.5 -20t14.5 -21q-37 -82 -84 -137t-96 -90q-51 -35 -96 -49q-53 -16 -89 -17q-43 0 -88 17q-41 14 -84 51q-37 31 -69 90q-27 49 -47 135z" />
<glyph unicode="&#x120;" horiz-adv-x="1118" d="M61 487q0 100 21 189q23 94 61 176q41 84 94.5 155.5t120.5 129.5q37 31 91 63q45 27 102 49.5t115 30.5q68 10 135 10q23 0 80 -8q43 -6 86 -18q35 -10 84 -33q39 -18 63 -43q6 -6 0 -19q-10 -27 -16 -36q-16 -29 -27 -46q-6 -10 -14 -22l-17 -25q-10 -14 -30 -39 q-10 -12 -25 -26l-57 12q-18 39 -41 70q-23 33 -51 55q-35 29 -70 39q-41 12 -88 12q-49 0 -94 -22q-53 -27 -101 -74q-35 -33 -71 -98q-35 -63 -60 -138q-23 -70 -39 -151q-14 -74 -14 -150q0 -102 29 -182q27 -74 71 -125q43 -49 97 -71q59 -25 106 -25q29 0 74 10t76 33 l41 295q0 14 -2 20q-4 12 -25 20.5t-66 18.5q-66 14 -116 23l6 74h534l-6 -74q-53 -14 -78 -37q-23 -20 -26 -45q-2 -10 -5 -34.5t-5 -35.5q-2 -14 -5.5 -42.5t-5.5 -43t-5 -41t-5 -41t-4 -34t-2 -23.5q-72 -57 -141 -100q-63 -39 -121 -62q-53 -20 -103 -31q-41 -8 -88 -8 q-96 0 -174 35q-86 39 -149 105q-66 70 -103 163q-37 95 -37 215zM637 1464q0 31 13 63q14 37 30 60q23 31 49 47q25 16 66 16q27 0 43 -8q18 -8 29 -23q10 -12 16 -30.5t6 -38.5q0 -35 -10 -64q-14 -37 -31 -59q-20 -27 -51 -45.5t-65 -18.5q-51 0 -72 31q-23 33 -23 70z " />
<glyph unicode="&#x121;" horiz-adv-x="960" d="M-20 -387q0 8 10 29q10 18 22 34l31 37q20 25 31 35q4 4 28 23q14 10 17 10q12 0 28 -17q16 -18 46 -38q20 -16 69 -37q43 -18 100 -19q31 0 68 15q31 12 57 45q23 29 45 86q18 47 35 137q12 72 21 151q4 41 8 136q-35 -53 -82 -111q-45 -55 -84 -88q-51 -45 -86 -61 q-41 -20 -86 -21q-33 0 -72 18q-43 20 -75.5 61.5t-57.5 106.5t-24 160q0 162 75 299q80 141 226 238q59 39 129 65q76 29 166 29q39 0 80 -21q37 -18 79 -47q37 25 68 39l57 29l35 -66q-35 -29 -53 -67q-18 -41 -29 -115q-14 -104 -20 -211l-11 -174q-2 -57 -10 -153 q-8 -98 -18 -150q-12 -66 -43 -131q-35 -74 -72 -121q-45 -59 -92 -102q-43 -41 -104 -78q-41 -25 -113 -49q-55 -18 -109 -19q-57 0 -100 11q-61 14 -94 28q-41 16 -70 37q-26 19 -26 37zM258 379q0 -117 29 -168q31 -55 73 -55q10 0 35 14q18 10 54 45q23 23 69 84 q40 52 86 129q2 33 10 113q10 94 17 131q3 22 12 43q-23 23 -68 55q-35 25 -65 25q-45 0 -78 -21q-37 -25 -61 -53q-29 -35 -49 -76q-16 -33 -35 -88q-16 -51 -23 -92q-6 -46 -6 -86zM444 1184q0 28 13 61q14 41 30 62q20 25 50 45q29 18 65 18q27 0 43 -8q18 -8 29 -23 q10 -12 16 -32q6 -18 6 -37q0 -35 -10 -64q-14 -37 -31 -59q-20 -27 -51 -45.5t-65 -18.5q-47 0 -70 31q-25 35 -25 70z" />
<glyph unicode="&#x124;" horiz-adv-x="1304" d="M-8 0l10 74q70 16 100 30q33 14 35 29l137 991q2 10 -26 31q-25 16 -92 33l10 72h485l-10 -72q-68 -16 -98 -33q-35 -18 -37 -31l-55 -403h479l55 403q3 12 -24 31q-25 16 -93 33l9 72h487l-10 -72q-68 -16 -99 -33q-35 -18 -36 -31l-138 -991q-2 -10 27 -29 q20 -14 92 -30l-8 -74h-487l10 74q65 15 98 30q35 16 37 29l63 467h-481l-61 -467q-2 -10 24 -29q18 -12 94 -30l-10 -74h-487zM484 1398l291 307h120l207 -307q-20 -29 -28 -37q-10 -10 -31 -22l-234 174l-276 -174q-12 8 -25 22q-18 23 -24 37z" />
<glyph unicode="&#x125;" horiz-adv-x="1075" d="M72 -2l20 129q6 39 13.5 80l15.5 88l31 190l32 201q10 57 16.5 107.5t12.5 85.5q2 23 7 58.5l9 63t6.5 52t9.5 73t9 68.5q4 41 4 92q0 29 -2 37q-4 14 -10 20q-4 4 -13 9q-4 2 -16 2q-4 0 -12 -3t-15 -3q-10 -2 -18 -4.5t-16.5 -4.5t-19.5 -6t-25 -8l-17 70q88 39 96 41 l48 19l57 22q57 20 94 30q43 12 62 13q29 0 47 -18.5t18 -63.5q0 -41 -4 -76q-2 -20 -8 -64.5t-8 -54.5l-21 -143q-4 -20 -11 -70.5l-11 -77.5l-11.5 -71.5t-9.5 -61.5q-6 -33 -9 -57.5t-5 -38.5q115 115 219 164t192 49q31 0 55.5 -6t41.5 -27q15 -18 24 -49q8 -27 8 -80 q0 -33 -6 -82q-8 -66 -14 -102l-20 -111q-10 -57 -21 -108q-4 -18 -14 -97q-6 -43 -6 -71q0 -37 8 -47q8 -12 26 -13q33 0 52 9l59 24l27 -65l-97 -56q-12 -8 -98 -47q-49 -23 -88 -35q-47 -14 -68 -14q-31 0 -53 31q-23 33 -22 86q0 18 6 61q10 72 14 96q4 31 10 61l11 56 q10 61 18 119q4 20 14 102q6 46 6 68q0 39 -2 53q-2 16 -10 33q-6 14 -14 16q-12 4 -23 4q-14 0 -37 -8q-25 -8 -53 -26q-29 -16 -63 -49q-29 -27 -59.5 -80.5t-47.5 -118.5q-14 -55 -33 -162q-4 -20 -8 -51t-6 -41q-2 -14 -4 -38t-2 -28q-4 -37 -4 -45q0 -6 1 -18t1 -17 l-45 -22l-70 -31l-67 -30q-12 -6 -26.5 -12.5t-16.5 -8.5zM396 1659l291 307h120l207 -307q-20 -29 -28 -37q-10 -10 -31 -22l-234 174l-276 -174q-12 8 -25 22q-18 23 -24 37z" />
<glyph unicode="&#x128;" horiz-adv-x="630" d="M12 0l11 74q65 15 98 30q35 16 37 29l135 991q3 12 -25 31q-25 16 -94 33l10 72h488l-10 -72q-72 -16 -101 -33q-35 -18 -37 -31l-135 -991q-2 -10 25 -29q18 -12 94 -30l-10 -74h-486zM69 1370q18 35 54 90q31 51 65 90q37 43 78 71.5t84 28.5q39 0 78 -16q20 -8 67 -37 l22.5 -13l18.5 -10.5l21 -11.5q29 -16 57 -16q43 0 78 28q34 28 74 86l65 -30q-4 -6 -14 -25.5l-17 -32.5q-12 -20 -41 -61q-35 -51 -45 -62q-27 -31 -51 -49q-33 -27 -53 -34q-33 -14 -57 -15q-37 0 -74 17q-16 8 -66 36q-31 18 -63.5 35t-65.5 17q-20 0 -39 -7 q-12 -4 -34 -22q-18 -15 -37 -37q-25 -29 -39 -47z" />
<glyph unicode="&#x129;" horiz-adv-x="567" d="M55 811l95 41l104 41l90 31q41 12 62 12q28 0 43 -18q16 -20 16 -66q0 -10 -8 -80q-6 -55 -19 -115l-22 -129q-4 -27 -11.5 -61.5t-13.5 -69.5t-16 -114q-8 -70 -8 -80q0 -31 6 -45.5t24 -14.5q20 0 29 2l26.5 6.5t30.5 10.5l35 14l21 -65q-47 -29 -97 -56 q-53 -31 -94 -49q-53 -25 -86 -35q-40 -12 -67 -12q-33 0 -58 31q-23 29 -22 86q0 31 6 82q0 6 16 110q6 41 23 127q8 43 22 127l17 107q8 61 8 71q0 20 -4 37q-4 14 -8 19q-10 10 -13 10q-6 2 -16 2q-4 0 -24.5 -4t-30.5 -8l-37 -13zM32 1081q33 59 52 90q27 41 67 91 q37 43 78 71.5t84 28.5q39 0 78 -16q20 -8 67 -37q14 -8 22.5 -13.5t19 -10.5t20.5 -11q29 -16 57 -17q41 0 76 29q39 31 76 86l65 -31l-33 -57l-38 -61q-20 -31 -48 -60q-37 -43 -49 -51q-31 -25 -55 -35q-29 -12 -57 -12q-43 0 -74 14q-8 4 -64 37q-31 18 -63.5 34.5 t-67.5 16.5q-18 0 -37 -6q-16 -6 -36 -22q-18 -14 -35 -35q-8 -8 -39 -49z" />
<glyph unicode="&#x12a;" horiz-adv-x="630" d="M12 0l11 74q65 15 98 30q35 16 37 29l135 991q3 12 -25 31q-25 16 -94 33l10 72h488l-10 -72q-72 -16 -101 -33q-35 -18 -37 -31l-135 -991q-2 -10 25 -29q18 -12 94 -30l-10 -74h-486zM168 1509q2 6 13 27q2 6 8 17t10 17l19 35q4 8 16 27h522l29 -33q0 -4 -12 -27 l-21 -36q-4 -8 -8 -17.5t-10 -17.5q-2 -4 -7.5 -12.5t-7.5 -12.5h-526z" />
<glyph unicode="&#x12b;" horiz-adv-x="567" d="M55 811l95 41l104 41l90 31q41 12 62 12q28 0 43 -18q16 -20 16 -66q0 -10 -8 -80q-6 -55 -19 -115l-22 -129q-4 -27 -11.5 -61.5t-13.5 -69.5t-16 -114q-8 -70 -8 -80q0 -31 6 -45.5t24 -14.5q20 0 29 2l26.5 6.5t30.5 10.5l35 14l21 -65q-47 -29 -97 -56 q-53 -31 -94 -49q-53 -25 -86 -35q-40 -12 -67 -12q-33 0 -58 31q-23 29 -22 86q0 31 6 82q0 6 16 110q6 41 23 127q8 43 22 127l17 107q8 61 8 71q0 20 -4 37q-4 14 -8 19q-10 10 -13 10q-6 2 -16 2q-4 0 -24.5 -4t-30.5 -8l-37 -13zM129 1190q2 6 13 27q2 6 8 17t10 17 l19 35q4 8 16 27h522l29 -33q0 -4 -12 -27l-21 -36q-4 -8 -8 -17.5t-10 -17.5q-2 -4 -7.5 -12.5t-7.5 -12.5h-526z" />
<glyph unicode="&#x12c;" horiz-adv-x="630" d="M12 0l11 74q65 15 98 30q35 16 37 29l135 991q3 12 -25 31q-25 16 -94 33l10 72h488l-10 -72q-72 -16 -101 -33q-35 -18 -37 -31l-135 -991q-2 -10 25 -29q18 -12 94 -30l-10 -74h-486zM156 1654q4 6 16 19q2 2 9 10t12 12q8 6 20 19q6 6 18 14q14 -49 41 -84 q23 -31 58 -55q27 -18 63 -29q31 -8 64 -8q35 0 69 8q39 8 76 28.5t76 55.5q33 31 63 84q2 -2 7.5 -6t9.5 -8l18 -19q12 -12 18.5 -20t14.5 -21q-37 -82 -84 -137t-96 -90q-51 -35 -96 -49q-53 -16 -89 -17q-43 0 -88 17q-41 14 -84 51q-37 31 -69 90q-27 49 -47 135z" />
<glyph unicode="&#x12d;" horiz-adv-x="567" d="M55 811l95 41l104 41l90 31q41 12 62 12q28 0 43 -18q16 -20 16 -66q0 -10 -8 -80q-6 -55 -19 -115l-22 -129q-4 -27 -11.5 -61.5t-13.5 -69.5t-16 -114q-8 -70 -8 -80q0 -31 6 -45.5t24 -14.5q20 0 29 2l26.5 6.5t30.5 10.5l35 14l21 -65q-47 -29 -97 -56 q-53 -31 -94 -49q-53 -25 -86 -35q-40 -12 -67 -12q-33 0 -58 31q-23 29 -22 86q0 31 6 82q0 6 16 110q6 41 23 127q8 43 22 127l17 107q8 61 8 71q0 20 -4 37q-4 14 -8 19q-10 10 -13 10q-6 2 -16 2q-4 0 -24.5 -4t-30.5 -8l-37 -13zM115 1335q4 6 16 19q2 2 9 10t12 12 q8 6 20 19q6 6 18 14q14 -49 41 -84q23 -31 58 -55q27 -18 63 -29q31 -8 64 -8q35 0 69 8q39 8 76 28.5t76 55.5q33 31 63 84q2 -2 7.5 -6t9.5 -8l18 -19q12 -12 18.5 -20t14.5 -21q-37 -82 -84 -137t-96 -90q-51 -35 -96 -49q-53 -16 -89 -17q-43 0 -88 17q-41 14 -84 51 q-37 31 -69 90q-27 49 -47 135z" />
<glyph unicode="&#x130;" horiz-adv-x="630" d="M12 0l11 74q65 15 98 30q35 16 37 29l135 991q3 12 -25 31q-25 16 -94 33l10 72h488l-10 -72q-72 -16 -101 -33q-35 -18 -37 -31l-135 -991q-2 -10 25 -29q18 -12 94 -30l-10 -74h-486zM327 1464q0 31 13 63q14 37 30 60q23 31 49 47q25 16 66 16q27 0 43 -8 q18 -8 29 -23q10 -12 16 -30.5t6 -38.5q0 -35 -10 -64q-14 -37 -31 -59q-20 -27 -51 -45.5t-65 -18.5q-51 0 -72 31q-23 33 -23 70z" />
<glyph unicode="&#x131;" horiz-adv-x="567" d="M55 811l95 41l104 41l90 31q41 12 62 12q28 0 43 -18q16 -20 16 -66q0 -10 -8 -80q-6 -55 -19 -115l-22 -129q-4 -27 -11.5 -61.5t-13.5 -69.5t-16 -114q-8 -70 -8 -80q0 -31 6 -45.5t24 -14.5q20 0 29 2l26.5 6.5t30.5 10.5l35 14l21 -65q-47 -29 -97 -56 q-53 -31 -94 -49q-53 -25 -86 -35q-40 -12 -67 -12q-33 0 -58 31q-23 29 -22 86q0 31 6 82q0 6 16 110q6 41 23 127q8 43 22 127l17 107q8 61 8 71q0 20 -4 37q-4 14 -8 19q-10 10 -13 10q-6 2 -16 2q-4 0 -24.5 -4t-30.5 -8l-37 -13z" />
<glyph unicode="&#x132;" horiz-adv-x="1269" d="M12 0l11 74q65 15 98 30q35 16 37 29l135 991q3 12 -25 31q-25 16 -94 33l10 72h488l-10 -72q-72 -16 -101 -33q-35 -18 -37 -31l-135 -991q-2 -10 25 -29q18 -12 94 -30l-10 -74h-486zM293 -301q0 2 12 22q4 6 13.5 16.5t13.5 14.5q15 18 37 37q6 6 19.5 17.5t19.5 17.5 q16 12 35 24q16 10 24 11q9 0 25 -13q4 -2 15 -13t20 -17q33 -25 47 -31q25 -12 57 -12q25 0 49 12q27 14 51 49q20 31 45 111q25 82 39 188l135 991q0 10 -4 14.5t-24 14.5q-10 6 -51 16q-39 10 -86 19l10 72h534l-12 -72q-63 -14 -98 -33q-35 -16 -37 -31l-123 -919 q-14 -106 -47 -191q-29 -78 -72 -135q-41 -55 -84 -96q-35 -33 -86 -72q-33 -25 -61 -41l-74 -35q-25 -10 -74 -22q-33 -8 -67 -8q-33 0 -74 10q-35 8 -63 25q-25 14 -46 30q-18 15 -18 29z" />
<glyph unicode="&#x133;" horiz-adv-x="1130" d="M55 811l95 41l104 41l90 31q41 12 62 12q28 0 43 -18q16 -20 16 -66q0 -10 -8 -80q-6 -55 -19 -115l-22 -129q-4 -27 -11.5 -61.5t-13.5 -69.5t-16 -114q-8 -70 -8 -80q0 -31 6 -45.5t24 -14.5q20 0 29 2l26.5 6.5t30.5 10.5l35 14l21 -65q-47 -29 -97 -56 q-53 -31 -94 -49q-53 -25 -86 -35q-40 -12 -67 -12q-33 0 -58 31q-23 29 -22 86q0 31 6 82q0 6 16 110q6 41 23 127q8 43 22 127l17 107q8 61 8 71q0 20 -4 37q-4 14 -8 19q-10 10 -13 10q-6 2 -16 2q-4 0 -24.5 -4t-30.5 -8l-37 -13zM283 1176q0 27 12 57q12 33 33 55 q22 25 55 43q31 16 76 17q53 0 77.5 -25t24.5 -61q0 -27 -12 -58q-12 -33 -33 -55q-23 -27 -55 -41q-37 -16 -76 -16q-53 0 -77.5 24.5t-24.5 59.5zM172 -401q0 16 16 41q18 28 43 55q16 18 47 49q23 23 33 23q8 0 29 -17l43 -33q25 -18 53 -32q33 -16 65 -17q40 0 68 19 q29 18 47 59q20 43 35 107q10 43 29 157q18 109 22 142q6 37 9 68.5t8 55.5q6 55 12 101l8 74q3 25 6 61l6 72q3 37 6 67q2 20 3 49q0 20 -5 37q-4 14 -8 19q-8 8 -12 10t-16 2q-4 0 -25 -4t-31 -8l-37 -13l-18 68q8 4 41 18.5t53 22.5q53 23 105 41l92 31q41 12 57 12 q29 0 47.5 -12.5t18.5 -53.5q0 -2 -4 -39q-4 -31 -7 -63q-4 -37 -8 -80l-8 -84q-2 -27 -8 -74q-4 -39 -6 -57l-19 -164q-8 -74 -28 -221q-14 -98 -50 -176q-35 -80 -73 -139q-43 -66 -84 -105q-72 -66 -86 -78q-51 -39 -123 -65q-68 -25 -125 -25q-49 0 -82 11 q-37 12 -72 28q-25 12 -49 33q-18 15 -18 27zM823 1176q0 27 12 57q12 29 35 55q22 25 55 43q31 16 74 17q53 0 78 -25t25 -61q0 -33 -11 -58q-12 -29 -34.5 -55.5t-55.5 -40.5q-37 -16 -76 -16q-53 0 -77.5 24.5t-24.5 59.5z" />
<glyph unicode="&#x139;" horiz-adv-x="991" d="M-8 0l10 74q70 16 100 30q33 14 35 29l137 991q2 10 -26 31q-25 16 -92 33l10 72h485l-10 -72q-68 -16 -98 -33q-35 -18 -37 -31l-129 -931q-4 -18 4 -33q6 -14 25 -23q18 -10 51 -12q45 -4 84 -4h102q49 0 74 10q37 14 57 35q23 23 49 65q20 33 51 99l64 -27 q-14 -68 -20 -90l-23 -90l-11 -44t-10 -32l-16 -47h-866zM432 1406l354 324q10 -6 20.5 -11l22.5 -11l45 -25q12 -6 23.5 -14.5t19.5 -12.5q23 -12 33 -20v-62l-471 -235q-16 10 -27 29q-14 26 -20 38z" />
<glyph unicode="&#x13a;" horiz-adv-x="546" d="M88 1395q88 39 96 41q23 8 50.5 19t58.5 22q57 20 94 30q43 12 64 13q28 0 43 -19q18 -23 18 -63q0 -18 -8 -105q-6 -70 -19 -149l-26 -180l-31 -193l-31 -193l-26 -174q-12 -78 -19 -145q-8 -86 -8 -96q0 -33 10 -47q10 -12 27 -13q25 0 49 9q66 20 72 24l14 -65 l-98 -60q-23 -12 -96 -47q-35 -16 -89 -33q-41 -12 -71.5 -12t-50.5 31q-23 33 -23 88q0 4 8 82q6 55 19 137l26 172l31 193l31 194q4 29 9 59.5t10 66.5t7 54q12 80 19 150q6 63 6 100q0 20 -4 37q-2 10 -12 20q-4 4 -17 9q-6 2 -18 2q-4 0 -12.5 -3t-12.5 -3 q-25 -4 -33 -9q-8 -2 -18 -6t-21 -8zM276 1726l354 324q10 -6 20.5 -11l22.5 -11l45 -25q12 -6 23.5 -14.5t19.5 -12.5q23 -12 33 -20v-62l-471 -235q-16 10 -27 29q-14 26 -20 38z" />
<glyph unicode="&#x141;" horiz-adv-x="991" d="M-8 0l10 74q70 16 100 30q33 14 35 29l45 330l-129 -68l-22 23q2 12 12 35l18 41q4 8 11.5 20t9.5 16q6 12 14 25l107 55l71 514q2 10 -26 31q-25 16 -92 33l10 72h485l-10 -72q-68 -16 -98 -33q-35 -18 -37 -31l-53 -385l284 150l21 -25q-4 -16 -13 -35l-18 -36 q-6 -10 -10 -18.5t-8 -18.5q-2 -4 -19 -29l-258 -133l-55 -401q-4 -18 4 -33q6 -14 25 -23q18 -10 51 -12q45 -4 84 -4h102q49 0 74 10q37 14 57 35q23 23 49 65q20 33 51 99l64 -27q-14 -68 -20 -90l-23 -90l-11 -44t-10 -32l-16 -47h-866z" />
<glyph unicode="&#x142;" horiz-adv-x="585" d="M6 528q2 4 4 13.5t2 13.5q0 2 11 27q2 4 4 9l4 10t4 11q4 8 8 18.5l8 20.5l154 99q6 45 13 87t13 83l23 153q2 12 14 127q6 55 6 86q0 20 -4 37q-2 10 -12 20q-4 4 -16 9q-6 2 -19 2q-4 0 -12 -3t-12 -3q-25 -4 -33 -9q-8 -2 -18.5 -6l-20.5 -8l-18 70q88 39 96 41 q23 8 50.5 19l57.5 22q57 20 95 30q43 12 61 13q31 0 45 -19q16 -20 16 -63q0 -51 -4 -88q-10 -96 -14 -123q-2 -8 -23 -148l-24 -164l149 97l29 -31q-4 -10 -10 -30.5t-10 -28.5q-12 -35 -27 -60l-156 -100l-28 -178l-12.5 -79l-12.5 -81q-2 -16 -6 -44t-6 -49.5t-4 -37.5 q-6 -59 -6 -90q0 -33 10 -47q9 -12 24 -13q27 0 52 9q55 18 69 24l17 -65l-99 -60q-23 -12 -96 -47q-35 -16 -88 -33q-41 -12 -74 -12q-28 0 -49 31q-23 33 -22 88q0 25 6 74q2 18 8 61l8 57l23 152q14 104 26 174l-147 -96z" />
<glyph unicode="&#x143;" horiz-adv-x="1263" d="M-2 0l10 74q72 10 101 26q31 18 32 33l135 981q-53 61 -118 74l10 72h256q18 0 25 -3q12 -4 18 -10q8 -6 16 -22l23 -43l452 -852l109 794q0 10 -2 15q-6 9 -18 18q-6 6 -37 17q-20 8 -60 14l8 72h392l-9 -72q-72 -10 -102 -29q-29 -18 -33 -35l-159 -1155 q-88 10 -138 37q-53 31 -73 74l-447 842l-108 -789q0 -8 4 -14q6 -8 18 -17l10 -5t14.5 -6l14.5 -5q8 -4 57 -12l-10 -74h-391zM598 1406l354 324q10 -6 20.5 -11l22.5 -11l45 -25q12 -6 23.5 -14.5t19.5 -12.5q23 -12 33 -20v-62l-471 -235q-16 10 -27 29q-14 26 -20 38z " />
<glyph unicode="&#x144;" horiz-adv-x="1079" d="M33 811l96 41q74 29 109 41q66 23 92 31q43 12 57 12q10 0 23 -4q8 -2 14 -17q4 -8 8 -34q2 -14 2 -58q0 -31 -2 -49t-6 -51q111 111 215 162t197 51q33 0 57 -6q27 -6 41 -25q15 -18 25 -49q10 -35 10 -80q0 -16 -8.5 -81.5t-14.5 -102.5q-12 -74 -20 -113t-21 -108 q-14 -78 -16 -97q-6 -43 -6 -71q0 -33 10 -47q10 -12 27 -13q27 0 45 9q4 2 25.5 10l37.5 14l27 -65l-96 -56q-23 -12 -97 -47q-53 -25 -86 -35q-47 -14 -63 -14q-39 0 -60 31q-23 33 -22 86q0 18 6 61q10 72 14 96q4 31 10.5 61t10.5 56q4 20 20 119q4 20 15 102q6 46 6 68 q0 57 -10 84q-8 23 -43 22q-14 0 -37 -8t-53.5 -28.5t-59.5 -49.5q-33 -33 -61 -79q-31 -47 -45 -115q-23 -102 -35 -164q-4 -16 -7.5 -43t-5.5 -35q-4 -18 -8 -61q-2 -18 -2 -51v-48l-45 -22l-70 -31l-67 -30q-12 -6 -26.5 -12.5t-16.5 -8.5l-41 39q12 51 27 137l24 141 q18 102 23 138q14 109 16 123t6 47.5l6 50.5q4 57 4 67q0 29 -2 37q-4 14 -8 19q-8 8 -12 10h-16q-14 0 -25 -2q-6 0 -33 -10q-18 -6 -41 -13zM547 1069l236 397l38 -6q27 -4 58 -10q10 -2 28.5 -7t26.5 -7l37 -9l23 -61l-379 -346q-16 4 -35 18q-23 21 -33 31z" />
<glyph unicode="&#x147;" horiz-adv-x="1263" d="M-2 0l10 74q72 10 101 26q31 18 32 33l135 981q-53 61 -118 74l10 72h256q18 0 25 -3q12 -4 18 -10q8 -6 16 -22l23 -43l452 -852l109 794q0 10 -2 15q-6 9 -18 18q-6 6 -37 17q-20 8 -60 14l8 72h392l-9 -72q-72 -10 -102 -29q-29 -18 -33 -35l-159 -1155 q-88 10 -138 37q-53 31 -73 74l-447 842l-108 -789q0 -8 4 -14q6 -8 18 -17l10 -5t14.5 -6l14.5 -5q8 -4 57 -12l-10 -74h-391zM495 1679q20 25 33 37q4 4 35 28l233 -188l279 188q2 -2 8 -7t11 -10t10 -11q20 -25 26 -37l-291 -318h-137z" />
<glyph unicode="&#x148;" horiz-adv-x="1079" d="M33 811l96 41q74 29 109 41q66 23 92 31q43 12 57 12q10 0 23 -4q8 -2 14 -17q4 -8 8 -34q2 -14 2 -58q0 -31 -2 -49t-6 -51q111 111 215 162t197 51q33 0 57 -6q27 -6 41 -25q15 -18 25 -49q10 -35 10 -80q0 -16 -8.5 -81.5t-14.5 -102.5q-12 -74 -20 -113t-21 -108 q-14 -78 -16 -97q-6 -43 -6 -71q0 -33 10 -47q10 -12 27 -13q27 0 45 9q4 2 25.5 10l37.5 14l27 -65l-96 -56q-23 -12 -97 -47q-53 -25 -86 -35q-47 -14 -63 -14q-39 0 -60 31q-23 33 -22 86q0 18 6 61q10 72 14 96q4 31 10.5 61t10.5 56q4 20 20 119q4 20 15 102q6 46 6 68 q0 57 -10 84q-8 23 -43 22q-14 0 -37 -8t-53.5 -28.5t-59.5 -49.5q-33 -33 -61 -79q-31 -47 -45 -115q-23 -102 -35 -164q-4 -16 -7.5 -43t-5.5 -35q-4 -18 -8 -61q-2 -18 -2 -51v-48l-45 -22l-70 -31l-67 -30q-12 -6 -26.5 -12.5t-16.5 -8.5l-41 39q12 51 27 137l24 141 q18 102 23 138q14 109 16 123t6 47.5l6 50.5q4 57 4 67q0 29 -2 37q-4 14 -8 19q-8 8 -12 10h-16q-14 0 -25 -2q-6 0 -33 -10q-18 -6 -41 -13zM362 1415q16 18 35 35l35 27l223 -222l289 222l26 -27q10 -10 27 -35l-295 -373h-137z" />
<glyph unicode="&#x14a;" horiz-adv-x="1220" d="M0 0l8 74q65 15 98 30q35 16 37 29l117 846q8 51 8 88q0 35 -14 43q-16 10 -49 4t-88 -20l-17 84l109 39q55 20 104 36q78 25 88 27q45 10 60 10q25 0 37 -24.5t12 -81.5q0 -16 -8 -86q-4 -35 -17 -109q61 76 127 133q61 53 133 95q66 37 125 55q61 18 109 18 q35 0 72 -12q41 -14 69 -39q31 -29 54 -78q23 -51 22 -119q0 -46 -6 -92l-98 -710q-18 -117 -50 -193q-41 -100 -84 -164q-57 -86 -106 -135q-66 -66 -117 -100q-12 -8 -59 -35q-23 -12 -72 -33q-25 -10 -78 -22q-45 -10 -77 -11q-47 0 -91 15q-57 18 -84 35q-43 27 -61 41 q-25 22 -25 36q0 4 11 21q10 14 28 35l17.5 18l19.5 21l43 36q20 18 36.5 28.5t29.5 10.5q16 0 35 -18q20 -20 49 -45q10 -8 63 -43q33 -20 76 -21q45 0 84 27q41 29 74 82q37 59 59 137q31 102 43 197l92 682q2 6 3 17t1 18q2 20 4 38q4 25 5 35v25q0 66 -29 94 q-31 31 -80 31q-23 0 -66 -17q-45 -18 -81 -41q-49 -33 -87 -65q-29 -27 -77 -88q-37 -45 -62 -103q-27 -59 -35 -116l-73 -537q-2 -10 28 -29q23 -14 95 -30l-9 -74h-485z" />
<glyph unicode="&#x14b;" horiz-adv-x="1052" d="M23 811q66 29 102 43q94 37 106 41q20 8 91 29q40 12 55 12q10 0 22 -4q8 -2 15 -17q4 -8 8 -34q2 -14 2 -58q0 -6 -1 -22.5t-1 -26.5q0 -18 -4 -51q59 59 110 96q61 45 107 66q59 29 102 39q49 12 90 12q31 0 56 -6q23 -6 43 -27q14 -14 24.5 -49t10.5 -78q0 -12 -5 -69 q-2 -20 -14 -103q-9 -58 -18 -129q-4 -37 -23 -143l-24 -148l-25 -141q-16 -82 -43 -145.5t-66 -120.5q-37 -55 -79 -99q-57 -57 -89 -81q-51 -43 -118 -72q-61 -27 -135 -27q-41 0 -84 12.5t-80 30.5q-39 20 -60 35q-25 18 -24 31q0 10 8 24l12 17.5t10 15.5q14 23 29 39 q20 25 31 35q20 20 29 26q14 10 20 11q10 0 33 -17l47 -37q37 -25 57 -34q33 -16 64 -17q37 0 63.5 12.5t49 47t41 98t36.5 162.5l45 233q18 102 31 195q14 94 18 141q6 58 7 80q0 63 -11 84q-10 23 -43 22q-14 0 -37 -8q-31 -12 -53 -26q-25 -16 -59 -52q-31 -31 -62 -79 q-31 -55 -47 -115q-6 -25 -33 -164q-4 -18 -9 -48t-5 -32q-2 -12 -4 -34.5t-2 -26.5q-4 -37 -4 -54q0 -8 1 -22t1 -21l-45 -22l-70 -31l-67 -30q-12 -6 -26.5 -12.5t-16.5 -8.5l-41 39q12 51 26 137l25 141q18 102 22 138q14 109 17 123q8 82 10 98q4 57 4 67q0 29 -2 37 q-3 12 -6 19q-2 6 -12 10h-17q-14 0 -24 -2q-4 0 -33 -10q-18 -6 -41 -13z" />
<glyph unicode="&#x14c;" horiz-adv-x="1171" d="M76 485q0 76 12 146q12 66 35 139q23 72 55 131q34 61 74 117q57 74 92 106q57 53 111 86q59 35 131 58q74 23 149 22q104 0 187 -41q76 -39 131 -112.5t77 -163.5q25 -96 25 -199q0 -70 -12 -143q-10 -63 -39 -146q-25 -68 -62 -137q-33 -61 -81 -123q-43 -55 -95 -100 q-59 -51 -110 -82q-49 -29 -123 -53q-61 -20 -131 -21q-100 0 -183 41q-76 39 -133 111q-53 68 -81.5 166t-28.5 198zM317 532q0 -90 17 -172q14 -76 47 -133q33 -59 76 -88q46 -31 104 -30q61 0 115 30q49 29 90 80q40 49 68 117q31 72 47 139q20 78 28 146q8 66 9 135 q0 80 -17 157q-14 72 -47 129q-29 51 -78 84q-47 31 -106.5 31t-110.5 -29q-49 -29 -90 -77q-43 -53 -68 -111q-31 -74 -47 -133q-20 -78 -28.5 -141.5t-8.5 -133.5zM368 1474q4 12 12 29q2 6 8.5 17l10.5 18q10 18 18 34q4 8 17 27h704l27 -33q-2 -8 -12 -28q-4 -8 -19 -35 l-20 -35q-2 -4 -7.5 -12.5t-7.5 -12.5h-706z" />
<glyph unicode="&#x14d;" horiz-adv-x="907" d="M39 344q0 86 12 139q16 72 45 129q31 61 76 119q41 51 115 109q8 8 57 37q29 18 66 30q45 16 69 21q49 8 70 8q74 0 137 -29q61 -29 102 -78q39 -47 62 -118q20 -63 20 -152q0 -76 -16 -135q-18 -70 -49 -133q-29 -61 -78 -123q-47 -61 -100 -105q-25 -20 -58 -40 q-20 -12 -65 -33q-23 -10 -68 -23q-31 -8 -63 -8q-84 0 -142 29q-63 31 -104 82q-45 53 -66 123q-22 73 -22 151zM272 422q0 -72 15 -127q18 -70 37 -102q29 -51 55 -72q33 -27 61 -27q39 0 66 19q37 25 51 45q23 33 37 69q16 43 24 80q12 57 15 88l6 86q0 68 -14 135 q-12 55 -35 99q-22 40 -49 61q-27 20 -62 21q-57 0 -98 -35q-37 -33 -64 -90q-27 -59 -34 -121q-11 -76 -11 -129zM178 1190q2 6 13 27q2 6 8 17t10 17q10 18 18 35q4 8 17 27h704l27 -33q0 -4 -12 -27l-21 -36q-4 -8 -8 -17.5t-10 -17.5q-2 -4 -7.5 -12.5t-7.5 -12.5h-706z " />
<glyph unicode="&#x14e;" horiz-adv-x="1171" d="M76 485q0 76 12 146q12 66 35 139q23 72 55 131q34 61 74 117q57 74 92 106q57 53 111 86q59 35 131 58q74 23 149 22q104 0 187 -41q76 -39 131 -112.5t77 -163.5q25 -96 25 -199q0 -70 -12 -143q-10 -63 -39 -146q-25 -68 -62 -137q-33 -61 -81 -123q-43 -55 -95 -100 q-59 -51 -110 -82q-49 -29 -123 -53q-61 -20 -131 -21q-100 0 -183 41q-76 39 -133 111q-53 68 -81.5 166t-28.5 198zM317 532q0 -90 17 -172q14 -76 47 -133q33 -59 76 -88q46 -31 104 -30q61 0 115 30q49 29 90 80q40 49 68 117q31 72 47 139q20 78 28 146q8 66 9 135 q0 80 -17 157q-14 72 -47 129q-29 51 -78 84q-47 31 -106.5 31t-110.5 -29q-49 -29 -90 -77q-43 -53 -68 -111q-31 -74 -47 -133q-20 -78 -28.5 -141.5t-8.5 -133.5zM449 1654q4 6 16 19q2 2 9 10t12 12q8 6 20 19q6 6 18 14q14 -49 41 -84q23 -31 58 -55q27 -18 63 -29 q31 -8 64 -8q35 0 69 8q39 8 76 28.5t76 55.5q33 31 63 84q2 -2 7.5 -6t9.5 -8l18 -19q12 -12 18.5 -20t14.5 -21q-37 -82 -84 -137t-96 -90q-51 -35 -96 -49q-53 -16 -89 -17q-43 0 -88 17q-41 14 -84 51q-37 31 -69 90q-27 49 -47 135z" />
<glyph unicode="&#x14f;" horiz-adv-x="907" d="M39 344q0 86 12 139q16 72 45 129q31 61 76 119q41 51 115 109q8 8 57 37q29 18 66 30q45 16 69 21q49 8 70 8q74 0 137 -29q61 -29 102 -78q39 -47 62 -118q20 -63 20 -152q0 -76 -16 -135q-18 -70 -49 -133q-29 -61 -78 -123q-47 -61 -100 -105q-25 -20 -58 -40 q-20 -12 -65 -33q-23 -10 -68 -23q-31 -8 -63 -8q-84 0 -142 29q-63 31 -104 82q-45 53 -66 123q-22 73 -22 151zM272 422q0 -72 15 -127q18 -70 37 -102q29 -51 55 -72q33 -27 61 -27q39 0 66 19q37 25 51 45q23 33 37 69q16 43 24 80q12 57 15 88l6 86q0 68 -14 135 q-12 55 -35 99q-22 40 -49 61q-27 20 -62 21q-57 0 -98 -35q-37 -33 -64 -90q-27 -59 -34 -121q-11 -76 -11 -129zM254 1335q4 6 16 19q2 2 9 10t12 12q8 6 20 19q6 6 18 14q14 -49 41 -84q23 -31 58 -55q27 -18 63 -29q31 -8 64 -8q35 0 69 8q39 8 76 28.5t76 55.5 q33 31 63 84q2 -2 7.5 -6t9.5 -8l18 -19q12 -12 18.5 -20t14.5 -21q-37 -82 -84 -137t-96 -90q-51 -35 -96 -49q-53 -16 -89 -17q-43 0 -88 17q-41 14 -84 51q-37 31 -69 90q-27 49 -47 135z" />
<glyph unicode="&#x150;" horiz-adv-x="1171" d="M76 485q0 76 12 146q12 66 35 139q23 72 55 131q34 61 74 117q57 74 92 106q57 53 111 86q59 35 131 58q74 23 149 22q104 0 187 -41q76 -39 131 -112.5t77 -163.5q25 -96 25 -199q0 -70 -12 -143q-10 -63 -39 -146q-25 -68 -62 -137q-33 -61 -81 -123q-43 -55 -95 -100 q-59 -51 -110 -82q-49 -29 -123 -53q-61 -20 -131 -21q-100 0 -183 41q-76 39 -133 111q-53 68 -81.5 166t-28.5 198zM317 532q0 -90 17 -172q14 -76 47 -133q33 -59 76 -88q46 -31 104 -30q61 0 115 30q49 29 90 80q40 49 68 117q31 72 47 139q20 78 28 146q8 66 9 135 q0 80 -17 157q-14 72 -47 129q-29 51 -78 84q-47 31 -106.5 31t-110.5 -29q-49 -29 -90 -77q-43 -53 -68 -111q-31 -74 -47 -133q-20 -78 -28.5 -141.5t-8.5 -133.5zM538 1376l189 409q2 0 30.5 -4t44.5 -6q8 -2 22.5 -5t20.5 -3q18 -2 29 -6l21 -56l-287 -366q-25 4 -37 12 q-8 5 -33 25zM831 1376l189 409q2 0 30.5 -4t44.5 -6q8 -2 22.5 -5t20.5 -3q18 -2 29 -6l20 -56l-286 -366q-20 4 -35 12.5t-35 24.5z" />
<glyph unicode="&#x151;" horiz-adv-x="907" d="M39 344q0 86 12 139q16 72 45 129q31 61 76 119q41 51 115 109q8 8 57 37q29 18 66 30q45 16 69 21q49 8 70 8q74 0 137 -29q61 -29 102 -78q39 -47 62 -118q20 -63 20 -152q0 -76 -16 -135q-18 -70 -49 -133q-29 -61 -78 -123q-47 -61 -100 -105q-25 -20 -58 -40 q-20 -12 -65 -33q-23 -10 -68 -23q-31 -8 -63 -8q-84 0 -142 29q-63 31 -104 82q-45 53 -66 123q-22 73 -22 151zM272 422q0 -72 15 -127q18 -70 37 -102q29 -51 55 -72q33 -27 61 -27q39 0 66 19q37 25 51 45q23 33 37 69q16 43 24 80q12 57 15 88l6 86q0 68 -14 135 q-12 55 -35 99q-22 40 -49 61q-27 20 -62 21q-57 0 -98 -35q-37 -33 -64 -90q-27 -59 -34 -121q-11 -76 -11 -129zM344 1057l189 409q2 0 30.5 -4t44.5 -6q8 -2 22.5 -5t20.5 -3q18 -2 29 -6l21 -56l-287 -366q-25 4 -37 12q-8 5 -33 25zM637 1057l189 409q2 0 30.5 -4 t44.5 -6q8 -2 22.5 -5t20.5 -3q18 -2 29 -6l20 -56l-286 -366q-20 4 -35 12.5t-35 24.5z" />
<glyph unicode="&#x152;" horiz-adv-x="1601" d="M82 575q8 92 37 183q25 78 74 170q39 72 102 145q49 55 129 115q63 47 145 76q74 27 162 26q29 0 66 -4q23 -2 53 -10q2 0 19.5 -5t27.5 -7q33 -4 57 -4h621l33 -31l-7.5 -30.5t-7.5 -35.5q-12 -53 -20 -80q-4 -10 -11.5 -36.5l-11.5 -40.5l-18 -56h-70q8 90 -4 142 q-12 49 -47 49h-299l-55 -406h356l27 -35l-23 -32q-23 -33 -26 -39q-2 -2 -12.5 -15.5t-16.5 -19.5l-9 -9t-8.5 -9.5t-7.5 -6.5q-16 20 -26 27q-23 14 -33 16q-27 8 -49 11q-18 2 -66 2h-123l-59 -441q-2 -10 2 -26q2 -12 20.5 -20.5t53.5 -12.5q45 -4 94 -4h90q49 0 76 10 q37 14 57 35q29 29 51 65q20 33 52 99l63 -27q-14 -68 -20 -90l-23 -90l-11 -44t-9 -32q-10 -35 -15 -47h-680q-41 0 -90 -4q-31 -2 -65 -10q-37 -8 -58 -11q-61 -6 -71 -6q-111 0 -197 51q-84 49 -135 132q-55 88 -75.5 194t-8.5 229zM319 612q-12 -109 0 -200 q12 -86 46 -160q27 -59 81 -105q47 -39 111 -38q43 0 59 2q25 2 50 10q10 2 41 18q23 10 41 25l122 899q-31 45 -90 72q-51 23 -114 22q-78 0 -134 -41q-59 -43 -100 -115q-45 -78 -72 -174q-29 -109 -41 -215z" />
<glyph unicode="&#x153;" horiz-adv-x="1439" d="M39 344q0 86 12 139q14 68 45 127q31 61 76 119q46 58 111 111q14 12 59 37q34 18 68 30q43 16 69 21q45 8 64 8q104 0 174 -47q72 -49 104 -131q31 31 76 65q10 8 53 39q29 18 70 37q47 18 78 27q45 10 84 10q49 0 94 -16q43 -16 69.5 -39t43.5 -58q14 -29 14 -63 q0 -16 -8 -58q-6 -35 -27 -65q-25 -39 -57 -72q-35 -35 -99 -76q-76 -49 -147 -83q-92 -45 -211 -87q6 -51 20 -83q16 -39 37 -66q18 -25 45 -41q23 -14 49.5 -14t53.5 8q29 8 69 31q59 31 91 53l110 82l12 -13q10 -10 17 -22q4 -8 12 -21l5 -10l3 -6q-92 -80 -147 -119 q-80 -57 -123 -82q-55 -31 -104 -43q-57 -14 -97 -14q-29 0 -55 8q-33 10 -64 27q-37 20 -63 47q-29 29 -51 74q-25 -27 -51 -52q-29 -27 -58 -40q-23 -12 -67 -33q-23 -10 -68 -23q-31 -8 -61 -8q-82 0 -140 29q-59 29 -102 82q-45 53 -66 123q-22 73 -22 151zM264 422 q0 -66 17 -127q16 -63 38 -102q29 -51 56 -72q33 -27 57 -27q53 0 96 39q39 37 64 94q25 59 37 125q10 57 10 129q0 77 -12 135q-10 53 -37 101q-18 35 -53 59q-29 20 -66 21q-49 0 -90 -35q-39 -33 -64 -88q-29 -63 -38 -121q-15 -78 -15 -131zM852 434q104 47 162 82 q53 31 92 68q34 31 43 61q8 27 8 64q0 39 -22.5 65.5t-53.5 26.5q-25 0 -51 -19q-25 -16 -53 -45q-55 -55 -86 -133q-29 -74 -39 -170z" />
<glyph unicode="&#x154;" horiz-adv-x="1144" d="M-8 0l10 74q65 15 98 30q33 14 35 29l139 1028l-73 -12q-37 -6 -68 -12v90q51 14 100 24q41 8 117 21q12 2 127 12q68 6 135 6q106 0 187 -20q84 -23 139 -62q53 -39 86 -100q29 -55 29 -137q0 -49 -21 -103q-18 -47 -63 -106q-37 -47 -100.5 -92t-139.5 -66l221 -391 q15 -25 31 -37q14 -12 35 -14q18 -2 49 4q35 8 70 18l24 -67q-53 -33 -84 -49q-51 -27 -88 -43q-51 -23 -76 -29q-37 -10 -47 -10q-12 0 -32.5 4t-34.5 18q-18 18 -33 41q-20 33 -33 68l-178 465q-41 0 -61.5 2t-57.5 10l-61 -461q-2 -10 28 -29q23 -14 95 -30l-11 -74h-493 zM449 705q14 -6 47 -11q14 -2 49 -2q47 0 100 17q43 14 86 49q37 31 60 78q23 49 22 106q0 74 -25 121q-27 49 -59 74q-37 27 -82 37q-47 10 -86 10h-22h-25zM489 1406l354 324q10 -6 20.5 -11l22.5 -11l45 -25q12 -6 23.5 -14.5t19.5 -12.5q23 -12 33 -20v-62l-471 -235 q-16 10 -27 29q-14 26 -20 38z" />
<glyph unicode="&#x155;" horiz-adv-x="835" d="M27 811q88 39 96 41t46 17.5l58 23.5q66 23 92 31q43 12 62 12q10 0 22 -4q8 -2 15 -17q4 -10 8 -30v-49v-29q0 -12 -4 -41q0 -12 -2 -22.5t-4 -22.5q0 -4 -2 -13.5t-3 -16.5t-1 -13q53 88 90 129q55 63 78 80q41 31 71 39q37 10 66 10q14 0 39 -10q18 -8 45 -25 q12 -8 24.5 -14t22.5 -13q23 -14 47 -24l-21 -31l-26 -43l-29 -47l-14 -21.5l-15 -23.5q-10 -18 -22 -31q-14 -14 -18 -14q-16 0 -35 12.5t-33 26.5q-10 10 -31 27q-15 12 -31 12q-27 0 -57 -25q-37 -29 -63 -69q-41 -61 -62 -107q-33 -74 -51 -133q-18 -66 -33 -158 q-11 -73 -11 -134q0 -14 1 -28q-8 -2 -20.5 -8l-28.5 -14l-70 -31l-65 -30q-12 -6 -26.5 -12.5t-16.5 -8.5l-39 39q31 156 41 213l33 199q8 51 22 170q8 68 8 120q0 20 -4 37q-4 14 -8 19q-6 6 -14 10q-4 2 -15 2q-6 0 -26.5 -4t-30.5 -8q-25 -8 -39 -13zM444 1069l236 397 l38 -6q27 -4 58 -10q10 -2 28.5 -7t26.5 -7l37 -9l23 -61l-379 -346q-16 4 -35 18q-23 21 -33 31z" />
<glyph unicode="&#x158;" horiz-adv-x="1144" d="M-8 0l10 74q65 15 98 30q33 14 35 29l139 1028l-73 -12q-37 -6 -68 -12v90q51 14 100 24q41 8 117 21q12 2 127 12q68 6 135 6q106 0 187 -20q84 -23 139 -62q53 -39 86 -100q29 -55 29 -137q0 -49 -21 -103q-18 -47 -63 -106q-37 -47 -100.5 -92t-139.5 -66l221 -391 q15 -25 31 -37q14 -12 35 -14q18 -2 49 4q35 8 70 18l24 -67q-53 -33 -84 -49q-51 -27 -88 -43q-51 -23 -76 -29q-37 -10 -47 -10q-12 0 -32.5 4t-34.5 18q-18 18 -33 41q-20 33 -33 68l-178 465q-41 0 -61.5 2t-57.5 10l-61 -461q-2 -10 28 -29q23 -14 95 -30l-11 -74h-493 zM449 705q14 -6 47 -11q14 -2 49 -2q47 0 100 17q43 14 86 49q37 31 60 78q23 49 22 106q0 74 -25 121q-27 49 -59 74q-37 27 -82 37q-47 10 -86 10h-22h-25zM387 1679q20 25 33 37q4 4 35 28l233 -188l279 188q2 -2 8 -7t11 -10t10 -11q20 -25 26 -37l-291 -318h-137z" />
<glyph unicode="&#x159;" horiz-adv-x="835" d="M27 811q88 39 96 41t46 17.5l58 23.5q66 23 92 31q43 12 62 12q10 0 22 -4q8 -2 15 -17q4 -10 8 -30v-49v-29q0 -12 -4 -41q0 -12 -2 -22.5t-4 -22.5q0 -4 -2 -13.5t-3 -16.5t-1 -13q53 88 90 129q55 63 78 80q41 31 71 39q37 10 66 10q14 0 39 -10q18 -8 45 -25 q12 -8 24.5 -14t22.5 -13q23 -14 47 -24l-21 -31l-26 -43l-29 -47l-14 -21.5l-15 -23.5q-10 -18 -22 -31q-14 -14 -18 -14q-16 0 -35 12.5t-33 26.5q-10 10 -31 27q-15 12 -31 12q-27 0 -57 -25q-37 -29 -63 -69q-41 -61 -62 -107q-33 -74 -51 -133q-18 -66 -33 -158 q-11 -73 -11 -134q0 -14 1 -28q-8 -2 -20.5 -8l-28.5 -14l-70 -31l-65 -30q-12 -6 -26.5 -12.5t-16.5 -8.5l-39 39q31 156 41 213l33 199q8 51 22 170q8 68 8 120q0 20 -4 37q-4 14 -8 19q-6 6 -14 10q-4 2 -15 2q-6 0 -26.5 -4t-30.5 -8q-25 -8 -39 -13zM260 1415 q16 18 35 35l35 27l223 -222l289 222l26 -27q10 -10 27 -35l-295 -373h-137z" />
<glyph unicode="&#x15a;" horiz-adv-x="974" d="M25 123q0 4 8 29q2 8 20 38q8 14 29 43q10 14 31 39q15 18 30 31q12 10 27 10q10 0 23 -14q4 -6 15 -18.5t17 -18.5l17.5 -22.5t21.5 -26.5q18 -25 51 -49q28 -22 62 -37q37 -16 78 -16q45 0 90 16q39 14 73 45q33 31 52 72q18 43 18 94q0 45 -14 80q-18 43 -47 71 q-34 34 -86 68q-51 33 -127 70q-70 33 -111 65.5t-67 71.5q-23 35 -33 78q-10 45 -10 86q0 68 32.5 131t96.5 117q57 49 149 81.5t197 32.5q90 0 170 -28q126 -45 125 -67q0 -1 -2 -15q-2 -12 -13 -35l-12 -23.5t-12 -21.5q-4 -10 -14.5 -25.5t-12.5 -19.5 q-12 -22 -24.5 -37.5t-18.5 -18.5l-59 7q-12 43 -33 71q-23 31 -47 53q-25 22 -56 31q-35 10 -59 10q-49 0 -88 -16q-43 -18 -63.5 -38.5t-34.5 -57.5q-12 -31 -13 -64q0 -23 7 -47q6 -23 28 -49q16 -20 64 -55q39 -29 106 -64q51 -27 137 -80q53 -35 95 -77q33 -35 53 -88 q18 -47 18 -103q0 -90 -41 -176q-41 -84 -112 -150q-68 -61 -168 -100q-96 -37 -207 -37q-34 0 -74 6q-27 4 -80 17q-37 8 -75 24q-43 18 -66 33q-18 12 -43 37q-18 19 -18 37zM440 1406l354 324q10 -6 20.5 -11l22.5 -11l45 -25q12 -6 23.5 -14.5t19.5 -12.5q23 -12 33 -20 v-62l-471 -235q-16 10 -27 29q-14 26 -20 38z" />
<glyph unicode="&#x15b;" horiz-adv-x="784" d="M-18 113q0 16 14 45q20 41 33 61q10 16 39 55q18 25 30 25q8 0 19 -16q4 -6 10 -17.5t14 -23.5q6 -12 31 -49q16 -25 43 -51.5t57.5 -41t73.5 -14.5q70 0 105 35q39 39 38 94q0 35 -18 64q-25 37 -45 55q-33 29 -64 47q-49 29 -73 41q-66 35 -88 53q-29 25 -56 57 q-18 25 -28 58q-8 27 -8 63q0 63 36 115q39 53 93 90q51 33 124 57q63 20 132 21q55 0 94 -12.5t76 -28.5q23 -10 63 -31q27 -14 61 -20q-8 -12 -19 -24.5t-19 -24.5q-29 -37 -43 -52l-12.5 -13l-14.5 -15t-12 -10q-20 -16 -29 -17q-16 0 -35 23l-45 45q-27 27 -53 45 q-29 20 -66 20q-57 0 -85.5 -28.5t-28.5 -75.5t41 -82t122 -76q27 -14 80 -47q43 -27 72 -55.5t49.5 -73.5t20.5 -94q0 -41 -21 -88q-18 -45 -51 -80q-27 -29 -78 -66q-37 -27 -90 -51q-41 -18 -96 -33q-49 -12 -92 -12q-59 0 -119 16.5t-96 38.5q-45 29 -64 52 q-22 29 -22 47zM403 1069l236 397l38 -6q27 -4 58 -10q10 -2 28.5 -7t26.5 -7l37 -9l23 -61l-379 -346q-16 4 -35 18q-23 21 -33 31z" />
<glyph unicode="&#x15c;" horiz-adv-x="974" d="M25 123q0 4 8 29q2 8 20 38q8 14 29 43q10 14 31 39q15 18 30 31q12 10 27 10q10 0 23 -14q4 -6 15 -18.5t17 -18.5l17.5 -22.5t21.5 -26.5q18 -25 51 -49q28 -22 62 -37q37 -16 78 -16q45 0 90 16q39 14 73 45q33 31 52 72q18 43 18 94q0 45 -14 80q-18 43 -47 71 q-34 34 -86 68q-51 33 -127 70q-70 33 -111 65.5t-67 71.5q-23 35 -33 78q-10 45 -10 86q0 68 32.5 131t96.5 117q57 49 149 81.5t197 32.5q90 0 170 -28q126 -45 125 -67q0 -1 -2 -15q-2 -12 -13 -35l-12 -23.5t-12 -21.5q-4 -10 -14.5 -25.5t-12.5 -19.5 q-12 -22 -24.5 -37.5t-18.5 -18.5l-59 7q-12 43 -33 71q-23 31 -47 53q-25 22 -56 31q-35 10 -59 10q-49 0 -88 -16q-43 -18 -63.5 -38.5t-34.5 -57.5q-12 -31 -13 -64q0 -23 7 -47q6 -23 28 -49q16 -20 64 -55q39 -29 106 -64q51 -27 137 -80q53 -35 95 -77q33 -35 53 -88 q18 -47 18 -103q0 -90 -41 -176q-41 -84 -112 -150q-68 -61 -168 -100q-96 -37 -207 -37q-34 0 -74 6q-27 4 -80 17q-37 8 -75 24q-43 18 -66 33q-18 12 -43 37q-18 19 -18 37zM308 1398l291 307h120l207 -307q-20 -29 -28 -37q-10 -10 -31 -22l-234 174l-276 -174 q-12 8 -25 22q-18 23 -24 37z" />
<glyph unicode="&#x15d;" horiz-adv-x="784" d="M-18 113q0 16 14 45q20 41 33 61q10 16 39 55q18 25 30 25q8 0 19 -16q4 -6 10 -17.5t14 -23.5q6 -12 31 -49q16 -25 43 -51.5t57.5 -41t73.5 -14.5q70 0 105 35q39 39 38 94q0 35 -18 64q-25 37 -45 55q-33 29 -64 47q-49 29 -73 41q-66 35 -88 53q-29 25 -56 57 q-18 25 -28 58q-8 27 -8 63q0 63 36 115q39 53 93 90q51 33 124 57q63 20 132 21q55 0 94 -12.5t76 -28.5q23 -10 63 -31q27 -14 61 -20q-8 -12 -19 -24.5t-19 -24.5q-29 -37 -43 -52l-12.5 -13l-14.5 -15t-12 -10q-20 -16 -29 -17q-16 0 -35 23l-45 45q-27 27 -53 45 q-29 20 -66 20q-57 0 -85.5 -28.5t-28.5 -75.5t41 -82t122 -76q27 -14 80 -47q43 -27 72 -55.5t49.5 -73.5t20.5 -94q0 -41 -21 -88q-18 -45 -51 -80q-27 -29 -78 -66q-37 -27 -90 -51q-41 -18 -96 -33q-49 -12 -92 -12q-59 0 -119 16.5t-96 38.5q-45 29 -64 52 q-22 29 -22 47zM176 1079l299 377h138l198 -377q-16 -25 -32 -37q-6 -6 -35 -22l-226 225l-286 -225q-12 8 -27 22q-23 23 -29 37z" />
<glyph unicode="&#x160;" horiz-adv-x="974" d="M25 123q0 4 8 29q2 8 20 38q8 14 29 43q10 14 31 39q15 18 30 31q12 10 27 10q10 0 23 -14q4 -6 15 -18.5t17 -18.5l17.5 -22.5t21.5 -26.5q18 -25 51 -49q28 -22 62 -37q37 -16 78 -16q45 0 90 16q39 14 73 45q33 31 52 72q18 43 18 94q0 45 -14 80q-18 43 -47 71 q-34 34 -86 68q-51 33 -127 70q-70 33 -111 65.5t-67 71.5q-23 35 -33 78q-10 45 -10 86q0 68 32.5 131t96.5 117q57 49 149 81.5t197 32.5q90 0 170 -28q126 -45 125 -67q0 -1 -2 -15q-2 -12 -13 -35l-12 -23.5t-12 -21.5q-4 -10 -14.5 -25.5t-12.5 -19.5 q-12 -22 -24.5 -37.5t-18.5 -18.5l-59 7q-12 43 -33 71q-23 31 -47 53q-25 22 -56 31q-35 10 -59 10q-49 0 -88 -16q-43 -18 -63.5 -38.5t-34.5 -57.5q-12 -31 -13 -64q0 -23 7 -47q6 -23 28 -49q16 -20 64 -55q39 -29 106 -64q51 -27 137 -80q53 -35 95 -77q33 -35 53 -88 q18 -47 18 -103q0 -90 -41 -176q-41 -84 -112 -150q-68 -61 -168 -100q-96 -37 -207 -37q-34 0 -74 6q-27 4 -80 17q-37 8 -75 24q-43 18 -66 33q-18 12 -43 37q-18 19 -18 37zM338 1679q20 25 33 37q4 4 35 28l233 -188l279 188q2 -2 8 -7t11 -10t10 -11q20 -25 26 -37 l-291 -318h-137z" />
<glyph unicode="&#x161;" horiz-adv-x="784" d="M-18 113q0 16 14 45q20 41 33 61q10 16 39 55q18 25 30 25q8 0 19 -16q4 -6 10 -17.5t14 -23.5q6 -12 31 -49q16 -25 43 -51.5t57.5 -41t73.5 -14.5q70 0 105 35q39 39 38 94q0 35 -18 64q-25 37 -45 55q-33 29 -64 47q-49 29 -73 41q-66 35 -88 53q-29 25 -56 57 q-18 25 -28 58q-8 27 -8 63q0 63 36 115q39 53 93 90q51 33 124 57q63 20 132 21q55 0 94 -12.5t76 -28.5q23 -10 63 -31q27 -14 61 -20q-8 -12 -19 -24.5t-19 -24.5q-29 -37 -43 -52l-12.5 -13l-14.5 -15t-12 -10q-20 -16 -29 -17q-16 0 -35 23l-45 45q-27 27 -53 45 q-29 20 -66 20q-57 0 -85.5 -28.5t-28.5 -75.5t41 -82t122 -76q27 -14 80 -47q43 -27 72 -55.5t49.5 -73.5t20.5 -94q0 -41 -21 -88q-18 -45 -51 -80q-27 -29 -78 -66q-37 -27 -90 -51q-41 -18 -96 -33q-49 -12 -92 -12q-59 0 -119 16.5t-96 38.5q-45 29 -64 52 q-22 29 -22 47zM219 1415q16 18 35 35l35 27l223 -222l289 222l26 -27q10 -10 27 -35l-295 -373h-137z" />
<glyph unicode="&#x164;" horiz-adv-x="1107" d="M94 958q2 8 5 27t10 43q4 20 22 84l23 82q4 12 9 34.5t9 31.5h991l31 -31q-2 -12 -14 -64l-19 -78l-20 -77l-11.5 -38l-9.5 -32h-69q-4 61 -4 84q0 14 -7 63q-2 25 -14 39q-10 14 -31 15h-227l-135 -996q0 -8 4 -14q6 -10 20 -18q23 -14 43 -21q28 -9 68 -18l-10 -74 h-520l8 74q51 10 73 18q31 10 48 19q12 6 24 18q10 10 10 16l136 996h-234q-12 0 -26.5 -10.5t-30.5 -36.5q-12 -18 -37 -66q-8 -18 -22.5 -41.5t-28.5 -54.5zM407 1679q20 25 33 37q4 4 35 28l233 -188l279 188q2 -2 8 -7t11 -10t10 -11q20 -25 26 -37l-291 -318h-137z" />
<glyph unicode="&#x168;" horiz-adv-x="1267" d="M162 1188l8 72h481l-10 -72q-63 -14 -96 -33q-35 -18 -37 -31l-88 -614q-2 -10 -4 -28.5t-4 -28.5q-2 -18 -2 -56q0 -139 61 -211q61 -70 186 -69q66 0 113 26q51 29 84 74q37 49 57.5 112.5t30.5 139.5l92 655q0 8 -4 15q-4 4 -18 16q-4 4 -35 16q-25 10 -53 17l10 72 h401l-10 -72q-66 -16 -94 -33q-31 -18 -33 -31l-88 -612q-18 -137 -66 -233q-53 -109 -116 -170q-72 -70 -158 -105q-84 -35 -186 -35q-84 0 -158 24.5t-129 74t-88 118.5q-35 74 -35 162q0 47 10 115l95 661q3 12 -25 31q-24 17 -92 33zM411 1370q18 35 54 90q31 51 65 90 q37 43 78 71.5t84 28.5q39 0 78 -16q20 -8 67 -37l22.5 -13l18.5 -10.5l21 -11.5q29 -16 57 -16q43 0 78 28q34 28 74 86l65 -30q-4 -6 -14 -25.5l-17 -32.5q-12 -20 -41 -61q-35 -51 -45 -62q-27 -31 -51 -49q-33 -27 -53 -34q-33 -14 -57 -15q-37 0 -74 17q-16 8 -66 36 q-31 18 -63.5 35t-65.5 17q-20 0 -39 -7q-12 -4 -34 -22q-18 -15 -37 -37q-25 -29 -39 -47z" />
<glyph unicode="&#x169;" horiz-adv-x="1099" d="M25 811q88 39 96 41q74 29 108 41q57 20 95 31q43 12 61 12q29 0 39 -18q8 -16 8 -66q0 -29 -6 -76l-14 -100q-8 -55 -18.5 -114.5t-18.5 -115.5q-14 -90 -17 -100q-6 -47 -6 -76q0 -57 16.5 -85.5t37 -28.5t43.5 14q39 25 59 43q29 27 74 78q27 31 84 115q2 12 7 38.5 t7 42.5l12 82q2 10 6 35t7 37q4 45 4 59q0 20 -4.5 37t-6.5 19q-8 8 -12 10t-14 2q-4 0 -25 -4q-16 -4 -29 -8q-6 -2 -17 -6.5t-17 -6.5l-19 68l97 41q53 23 104 41q49 18 92 30.5t60 12.5q28 0 36 -18q8 -16 9 -66q0 -43 -5 -72l-14 -92l-16 -104q-4 -29 -9.5 -53.5 t-9.5 -49.5q-4 -18 -8 -55t-4 -41q-6 -45 -6 -78q0 -92 14 -127q16 -37 39 -37q27 0 49 7q10 2 58 22l18 -66l-80 -53l-78 -47q-39 -23 -71.5 -35t-55.5 -12q-25 0 -45 14q-23 16 -41 47q-23 37 -33 78t-14 111q-29 -45 -82 -100q-31 -33 -92 -78q-47 -35 -96 -53.5 t-94 -18.5q-27 0 -60 16q-35 18 -57 45q-25 29 -43 78q-16 41 -16 107q0 43 4 71l12 89q4 31 16 96q12 70 17 94q2 10 5 39t5 43q6 37 6 63q0 20 -4 37q-4 14 -8 19q-8 8 -12.5 10t-16.5 2q-4 0 -24.5 -4t-30.5 -8q-25 -8 -39 -13zM264 1081q33 59 52 90q27 41 67 91 q37 43 78 71.5t84 28.5q39 0 78 -16q20 -8 67 -37q14 -8 22.5 -13.5t19 -10.5t20.5 -11q29 -16 57 -17q41 0 76 29q39 31 76 86l65 -31l-33 -57l-38 -61q-20 -31 -48 -60q-37 -43 -49 -51q-31 -25 -55 -35q-29 -12 -57 -12q-43 0 -74 14q-8 4 -64 37q-31 18 -63.5 34.5 t-67.5 16.5q-18 0 -37 -6q-16 -6 -36 -22q-18 -14 -35 -35q-8 -8 -39 -49z" />
<glyph unicode="&#x16a;" horiz-adv-x="1267" d="M162 1188l8 72h481l-10 -72q-63 -14 -96 -33q-35 -18 -37 -31l-88 -614q-2 -10 -4 -28.5t-4 -28.5q-2 -18 -2 -56q0 -139 61 -211q61 -70 186 -69q66 0 113 26q51 29 84 74q37 49 57.5 112.5t30.5 139.5l92 655q0 8 -4 15q-4 4 -18 16q-4 4 -35 16q-25 10 -53 17l10 72 h401l-10 -72q-66 -16 -94 -33q-31 -18 -33 -31l-88 -612q-18 -137 -66 -233q-53 -109 -116 -170q-72 -70 -158 -105q-84 -35 -186 -35q-84 0 -158 24.5t-129 74t-88 118.5q-35 74 -35 162q0 47 10 115l95 661q3 12 -25 31q-24 17 -92 33zM416 1474q4 12 12 29q2 6 8.5 17 l10.5 18q10 18 18 34q4 8 17 27h704l27 -33q-2 -8 -12 -28q-4 -8 -19 -35l-20 -35q-2 -4 -7.5 -12.5t-7.5 -12.5h-706z" />
<glyph unicode="&#x16b;" horiz-adv-x="1099" d="M25 811q88 39 96 41q74 29 108 41q57 20 95 31q43 12 61 12q29 0 39 -18q8 -16 8 -66q0 -29 -6 -76l-14 -100q-8 -55 -18.5 -114.5t-18.5 -115.5q-14 -90 -17 -100q-6 -47 -6 -76q0 -57 16.5 -85.5t37 -28.5t43.5 14q39 25 59 43q29 27 74 78q27 31 84 115q2 12 7 38.5 t7 42.5l12 82q2 10 6 35t7 37q4 45 4 59q0 20 -4.5 37t-6.5 19q-8 8 -12 10t-14 2q-4 0 -25 -4q-16 -4 -29 -8q-6 -2 -17 -6.5t-17 -6.5l-19 68l97 41q53 23 104 41q49 18 92 30.5t60 12.5q28 0 36 -18q8 -16 9 -66q0 -43 -5 -72l-14 -92l-16 -104q-4 -29 -9.5 -53.5 t-9.5 -49.5q-4 -18 -8 -55t-4 -41q-6 -45 -6 -78q0 -92 14 -127q16 -37 39 -37q27 0 49 7q10 2 58 22l18 -66l-80 -53l-78 -47q-39 -23 -71.5 -35t-55.5 -12q-25 0 -45 14q-23 16 -41 47q-23 37 -33 78t-14 111q-29 -45 -82 -100q-31 -33 -92 -78q-47 -35 -96 -53.5 t-94 -18.5q-27 0 -60 16q-35 18 -57 45q-25 29 -43 78q-16 41 -16 107q0 43 4 71l12 89q4 31 16 96q12 70 17 94q2 10 5 39t5 43q6 37 6 63q0 20 -4 37q-4 14 -8 19q-8 8 -12.5 10t-16.5 2q-4 0 -24.5 -4t-30.5 -8q-25 -8 -39 -13zM270 1190q2 6 13 27q2 6 8 17t10 17 q10 18 18 35q4 8 17 27h704l27 -33q0 -4 -12 -27l-21 -36q-4 -8 -8 -17.5t-10 -17.5q-2 -4 -7.5 -12.5t-7.5 -12.5h-706z" />
<glyph unicode="&#x16c;" horiz-adv-x="1267" d="M162 1188l8 72h481l-10 -72q-63 -14 -96 -33q-35 -18 -37 -31l-88 -614q-2 -10 -4 -28.5t-4 -28.5q-2 -18 -2 -56q0 -139 61 -211q61 -70 186 -69q66 0 113 26q51 29 84 74q37 49 57.5 112.5t30.5 139.5l92 655q0 8 -4 15q-4 4 -18 16q-4 4 -35 16q-25 10 -53 17l10 72 h401l-10 -72q-66 -16 -94 -33q-31 -18 -33 -31l-88 -612q-18 -137 -66 -233q-53 -109 -116 -170q-72 -70 -158 -105q-84 -35 -186 -35q-84 0 -158 24.5t-129 74t-88 118.5q-35 74 -35 162q0 47 10 115l95 661q3 12 -25 31q-24 17 -92 33zM498 1654q4 6 16 19q2 2 9 10t12 12 q8 6 20 19q6 6 18 14q14 -49 41 -84q23 -31 58 -55q27 -18 63 -29q31 -8 64 -8q35 0 69 8q39 8 76 28.5t76 55.5q33 31 63 84q2 -2 7.5 -6t9.5 -8l18 -19q12 -12 18.5 -20t14.5 -21q-37 -82 -84 -137t-96 -90q-51 -35 -96 -49q-53 -16 -89 -17q-43 0 -88 17q-41 14 -84 51 q-37 31 -69 90q-27 49 -47 135z" />
<glyph unicode="&#x16d;" horiz-adv-x="1099" d="M25 811q88 39 96 41q74 29 108 41q57 20 95 31q43 12 61 12q29 0 39 -18q8 -16 8 -66q0 -29 -6 -76l-14 -100q-8 -55 -18.5 -114.5t-18.5 -115.5q-14 -90 -17 -100q-6 -47 -6 -76q0 -57 16.5 -85.5t37 -28.5t43.5 14q39 25 59 43q29 27 74 78q27 31 84 115q2 12 7 38.5 t7 42.5l12 82q2 10 6 35t7 37q4 45 4 59q0 20 -4.5 37t-6.5 19q-8 8 -12 10t-14 2q-4 0 -25 -4q-16 -4 -29 -8q-6 -2 -17 -6.5t-17 -6.5l-19 68l97 41q53 23 104 41q49 18 92 30.5t60 12.5q28 0 36 -18q8 -16 9 -66q0 -43 -5 -72l-14 -92l-16 -104q-4 -29 -9.5 -53.5 t-9.5 -49.5q-4 -18 -8 -55t-4 -41q-6 -45 -6 -78q0 -92 14 -127q16 -37 39 -37q27 0 49 7q10 2 58 22l18 -66l-80 -53l-78 -47q-39 -23 -71.5 -35t-55.5 -12q-25 0 -45 14q-23 16 -41 47q-23 37 -33 78t-14 111q-29 -45 -82 -100q-31 -33 -92 -78q-47 -35 -96 -53.5 t-94 -18.5q-27 0 -60 16q-35 18 -57 45q-25 29 -43 78q-16 41 -16 107q0 43 4 71l12 89q4 31 16 96q12 70 17 94q2 10 5 39t5 43q6 37 6 63q0 20 -4 37q-4 14 -8 19q-8 8 -12.5 10t-16.5 2q-4 0 -24.5 -4t-30.5 -8q-25 -8 -39 -13zM346 1335q4 6 16 19q2 2 9 10t12 12 q8 6 20 19q6 6 18 14q14 -49 41 -84q23 -31 58 -55q27 -18 63 -29q31 -8 64 -8q35 0 69 8q39 8 76 28.5t76 55.5q33 31 63 84q2 -2 7.5 -6t9.5 -8l18 -19q12 -12 18.5 -20t14.5 -21q-37 -82 -84 -137t-96 -90q-51 -35 -96 -49q-53 -16 -89 -17q-43 0 -88 17q-41 14 -84 51 q-37 31 -69 90q-27 49 -47 135z" />
<glyph unicode="&#x16e;" horiz-adv-x="1267" d="M162 1188l8 72h481l-10 -72q-63 -14 -96 -33q-35 -18 -37 -31l-88 -614q-2 -10 -4 -28.5t-4 -28.5q-2 -18 -2 -56q0 -139 61 -211q61 -70 186 -69q66 0 113 26q51 29 84 74q37 49 57.5 112.5t30.5 139.5l92 655q0 8 -4 15q-4 4 -18 16q-4 4 -35 16q-25 10 -53 17l10 72 h401l-10 -72q-66 -16 -94 -33q-31 -18 -33 -31l-88 -612q-18 -137 -66 -233q-53 -109 -116 -170q-72 -70 -158 -105q-84 -35 -186 -35q-84 0 -158 24.5t-129 74t-88 118.5q-35 74 -35 162q0 47 10 115l95 661q3 12 -25 31q-24 17 -92 33zM606 1488q0 49 18 99q20 53 54 92 q37 43 77.5 67.5t98.5 24.5q39 0 61 -10q31 -14 47 -33q20 -23 29 -49q10 -31 10 -60q0 -37 -20 -92q-16 -45 -54 -88q-34 -40 -79 -67q-47 -29 -101 -29q-29 0 -61 14q-27 12 -43 31q-20 25 -29 47q-8 24 -8 53zM731 1531q0 -33 14 -49q14 -18 39 -18q18 0 33 8q10 6 26 27 q12 14 19 39q6 23 6 45q0 33 -14 49q-16 18 -35 18q-23 0 -37 -8q-10 -6 -27 -27q-12 -15 -18 -36q-6 -23 -6 -48z" />
<glyph unicode="&#x16f;" horiz-adv-x="1099" d="M25 811q88 39 96 41q74 29 108 41q57 20 95 31q43 12 61 12q29 0 39 -18q8 -16 8 -66q0 -29 -6 -76l-14 -100q-8 -55 -18.5 -114.5t-18.5 -115.5q-14 -90 -17 -100q-6 -47 -6 -76q0 -57 16.5 -85.5t37 -28.5t43.5 14q39 25 59 43q29 27 74 78q27 31 84 115q2 12 7 38.5 t7 42.5l12 82q2 10 6 35t7 37q4 45 4 59q0 20 -4.5 37t-6.5 19q-8 8 -12 10t-14 2q-4 0 -25 -4q-16 -4 -29 -8q-6 -2 -17 -6.5t-17 -6.5l-19 68l97 41q53 23 104 41q49 18 92 30.5t60 12.5q28 0 36 -18q8 -16 9 -66q0 -43 -5 -72l-14 -92l-16 -104q-4 -29 -9.5 -53.5 t-9.5 -49.5q-4 -18 -8 -55t-4 -41q-6 -45 -6 -78q0 -92 14 -127q16 -37 39 -37q27 0 49 7q10 2 58 22l18 -66l-80 -53l-78 -47q-39 -23 -71.5 -35t-55.5 -12q-25 0 -45 14q-23 16 -41 47q-23 37 -33 78t-14 111q-29 -45 -82 -100q-31 -33 -92 -78q-47 -35 -96 -53.5 t-94 -18.5q-27 0 -60 16q-35 18 -57 45q-25 29 -43 78q-16 41 -16 107q0 43 4 71l12 89q4 31 16 96q12 70 17 94q2 10 5 39t5 43q6 37 6 63q0 20 -4 37q-4 14 -8 19q-8 8 -12.5 10t-16.5 2q-4 0 -24.5 -4t-30.5 -8q-25 -8 -39 -13zM457 1169q0 49 18 99q20 53 54 92 q37 43 77.5 67.5t98.5 24.5q39 0 61 -10q31 -14 47 -33q20 -23 29 -49q10 -31 10 -60q0 -37 -20 -92q-16 -45 -54 -88q-34 -40 -79 -67q-47 -29 -101 -29q-29 0 -61 14q-27 12 -43 31q-20 25 -29 47q-8 24 -8 53zM582 1212q0 -33 14 -49q14 -18 39 -18q18 0 33 8q10 6 26 27 q12 14 19 39q6 23 6 45q0 33 -14 49q-16 18 -35 18q-23 0 -37 -8q-10 -6 -27 -27q-12 -15 -18 -36q-6 -23 -6 -48z" />
<glyph unicode="&#x170;" horiz-adv-x="1267" d="M162 1188l8 72h481l-10 -72q-63 -14 -96 -33q-35 -18 -37 -31l-88 -614q-2 -10 -4 -28.5t-4 -28.5q-2 -18 -2 -56q0 -139 61 -211q61 -70 186 -69q66 0 113 26q51 29 84 74q37 49 57.5 112.5t30.5 139.5l92 655q0 8 -4 15q-4 4 -18 16q-4 4 -35 16q-25 10 -53 17l10 72 h401l-10 -72q-66 -16 -94 -33q-31 -18 -33 -31l-88 -612q-18 -137 -66 -233q-53 -109 -116 -170q-72 -70 -158 -105q-84 -35 -186 -35q-84 0 -158 24.5t-129 74t-88 118.5q-35 74 -35 162q0 47 10 115l95 661q3 12 -25 31q-24 17 -92 33zM585 1376l189 409q2 0 30.5 -4 t44.5 -6q8 -2 22.5 -5t20.5 -3q18 -2 29 -6l21 -56l-287 -366q-25 4 -37 12q-8 5 -33 25zM878 1376l189 409q2 0 30.5 -4t44.5 -6q8 -2 22.5 -5t20.5 -3q18 -2 29 -6l20 -56l-286 -366q-20 4 -35 12.5t-35 24.5z" />
<glyph unicode="&#x171;" horiz-adv-x="1099" d="M25 811q88 39 96 41q74 29 108 41q57 20 95 31q43 12 61 12q29 0 39 -18q8 -16 8 -66q0 -29 -6 -76l-14 -100q-8 -55 -18.5 -114.5t-18.5 -115.5q-14 -90 -17 -100q-6 -47 -6 -76q0 -57 16.5 -85.5t37 -28.5t43.5 14q39 25 59 43q29 27 74 78q27 31 84 115q2 12 7 38.5 t7 42.5l12 82q2 10 6 35t7 37q4 45 4 59q0 20 -4.5 37t-6.5 19q-8 8 -12 10t-14 2q-4 0 -25 -4q-16 -4 -29 -8q-6 -2 -17 -6.5t-17 -6.5l-19 68l97 41q53 23 104 41q49 18 92 30.5t60 12.5q28 0 36 -18q8 -16 9 -66q0 -43 -5 -72l-14 -92l-16 -104q-4 -29 -9.5 -53.5 t-9.5 -49.5q-4 -18 -8 -55t-4 -41q-6 -45 -6 -78q0 -92 14 -127q16 -37 39 -37q27 0 49 7q10 2 58 22l18 -66l-80 -53l-78 -47q-39 -23 -71.5 -35t-55.5 -12q-25 0 -45 14q-23 16 -41 47q-23 37 -33 78t-14 111q-29 -45 -82 -100q-31 -33 -92 -78q-47 -35 -96 -53.5 t-94 -18.5q-27 0 -60 16q-35 18 -57 45q-25 29 -43 78q-16 41 -16 107q0 43 4 71l12 89q4 31 16 96q12 70 17 94q2 10 5 39t5 43q6 37 6 63q0 20 -4 37q-4 14 -8 19q-8 8 -12.5 10t-16.5 2q-4 0 -24.5 -4t-30.5 -8q-25 -8 -39 -13zM436 1057l189 409q2 0 30.5 -4t44.5 -6 q8 -2 22.5 -5t20.5 -3q18 -2 29 -6l21 -56l-287 -366q-25 4 -37 12q-8 5 -33 25zM729 1057l189 409q2 0 30.5 -4t44.5 -6q8 -2 22.5 -5t20.5 -3q18 -2 29 -6l20 -56l-286 -366q-20 4 -35 12.5t-35 24.5z" />
<glyph unicode="&#x174;" horiz-adv-x="1593" d="M115 1188l10 72h450l-8 -72q-31 -4 -71 -14q-25 -6 -39.5 -16.5t-16.5 -18.5q-2 -6 -2 -23l58 -731l391 875h94l188 -875l250 739q4 12 -6 23q-8 8 -27 14q-4 2 -12 5l-15 5.5t-16 4.5q-16 4 -57 12l8 72h414l-8 -72q-78 -18 -113 -31q-33 -12 -39 -33l-356 -1065 q-10 -23 -27 -36q-23 -18 -41 -27q-25 -10 -45 -16q-33 -10 -37 -11l-192 908l-377 -818q-8 -20 -29 -36q-14 -12 -43 -25q-39 -16 -45 -18q-29 -8 -41 -11l-84 1147q-4 27 -26 41q-31 21 -90 31zM639 1398l291 307h120l207 -307q-20 -29 -28 -37q-10 -10 -31 -22l-234 174 l-276 -174q-12 8 -25 22q-18 23 -24 37z" />
</font>
</defs>
</svg>
