<?xml version="1.0" standalone="no"?>
<!DOCTYPE svg PUBLIC "-//W3C//DTD SVG 1.1//EN" "http://www.w3.org/Graphics/SVG/1.1/DTD/svg11.dtd" >
<svg xmlns="http://www.w3.org/2000/svg">
<metadata>
This is a custom SVG webfont generated by Font Squirrel.
Copyright   : Copyright c SIL International 20032008
Designer    : J Victor Gaultney and Annie Olsen
Foundry     : SIL International
Foundry URL : httpscriptssilorg
</metadata>
<defs>
<font id="webfontHTcI9WF4" horiz-adv-x="0" >
<font-face units-per-em="2048" ascent="1638" descent="-410" />
<missing-glyph horiz-adv-x="509" />
<glyph unicode=" "  horiz-adv-x="509" />
<glyph unicode="&#x09;" horiz-adv-x="509" />
<glyph unicode="&#xa0;" horiz-adv-x="509" />
<glyph unicode="!" horiz-adv-x="632" d="M147 94q0 39 17 72q16 35 39 53q27 23 59.5 35t69.5 12q31 0 53 -8q27 -10 47 -25q18 -14 33 -40q10 -20 10 -62q0 -43 -14 -72q-18 -37 -39 -55q-23 -18 -60 -33q-35 -12 -69 -12q-23 0 -55 8q-20 4 -48 25q-16 12 -30 41q-13 24 -13 61zM168 1368q45 25 53 29l68 33 l34.5 15l30.5 13q37 18 52 23l51 -33l-80 -1036q-14 -12 -49 -23q-4 -2 -24.5 -7t-31.5 -9l-28 20z" />
<glyph unicode="&#x22;" horiz-adv-x="958" d="M137 1397q8 4 27 10q18 8 41 16l49 19q27 8 49 16l41 15l25 8l51 -29l-74 -618l-8 -4q-8 -3 -14 -5q-10 -2 -35 -6t-37 -4q-6 0 -16.5 -1t-14.5 -1zM541 1397q14 8 45 18q6 2 31.5 12.5t39.5 14.5q51 18 70 24q27 10 45 15l51 -29l-73 -618l-25 -9q-10 -2 -34.5 -6 t-37.5 -4q-6 0 -15 -1t-13 -1z" />
<glyph unicode="#" horiz-adv-x="1034" d="M72 485q0 2 3 11.5l5 15.5q8 20 12 33q4 10 8 17t6 16q2 4 3.5 8t2.5 7l2 6t3 5h184l66 227h-164l-25 23q6 23 8 29q4 10 13 35q12 29 14 32l10 27h185l77 274q4 4 27 13q20 8 33 10l33 8q10 2 26 10l29 -22l-84 -293h174l78 274q4 4 26.5 12.5t30.5 10.5t17.5 4t17.5 4 q10 2 27 10l26 -22l-84 -293h156l24 -27q-2 -8 -8 -26q-2 -6 -7 -17.5t-7 -17.5q-8 -18 -14 -35q-2 -6 -6.5 -12t-4.5 -11h-174l-63 -227h153l23 -26l-3 -11q-3 -10 -5 -16l-13 -33q-4 -10 -8 -17t-6 -16l-8 -24h-174l-84 -291q-9 -6 -25 -12l-33 -13q-8 -2 -16 -5t-18 -5 q-12 -2 -29 -8l-27 20l88 314h-174l-82 -291q-9 -6 -24 -12l-33 -13l-33 -10q-25 -6 -30 -8l-27 20l90 314h-166zM442 604h174l64 227h-172z" />
<glyph unicode="$" horiz-adv-x="1034" d="M76 178q0 8 1 26.5t1 31.5q0 45 2 65q0 6 2 19.5t3 23.5t1 18q4 31 8 46l74 -5q20 -43 53 -94q31 -47 64 -78q45 -41 77 -57q51 -25 93 -33v428l-133 49q-59 23 -119 64q-51 37 -86 90q-33 51 -33 131q0 51 16 94q18 49 62 93q43 45 114 77q71 34 179 43v131q4 2 12 7.5 t12 7.5t10.5 5t8.5 5q12 8 18 10l25 8l34 -28v-144q52 -3 105 -12q47 -8 96 -24q61 -20 80 -31q41 -23 53 -35q4 -4 -2 -39q-6 -31 -20 -65q-12 -33 -33 -68q-20 -37 -29 -45l-69 8q-33 68 -78 115q-41 45 -103 65v-344q27 -10 134 -53q70 -29 122 -70q49 -37 87 -102 q35 -59 34 -141q0 -61 -20.5 -121t-67.5 -113t-116 -90q-71 -37 -173 -49v-125q-20 -16 -40 -29q-23 -12 -46 -18l-34 29v137q-88 4 -183 33q-102 33 -186 86q-2 2 -6 22q-4 25 -4 45zM285 950.5q0 -26.5 14 -55.5q10 -20 35 -45q20 -20 53 -37l68 -33v312q-39 -2 -72 -17 q-33 -12 -53 -31q-20 -16 -33 -43q-12 -24 -12 -50.5zM575 137q33 6 64 19q20 8 53 37q25 20 37 53q12 31 12 71q0 39 -12 70q-12 29 -35 55q-25 27 -53 45q-41 25 -66 35v-385z" />
<glyph unicode="%" horiz-adv-x="1490" d="M53 897q0 61 25 131q20 61 65 108.5t103 73.5q59 27 135 27t131 -27q61 -29 98 -71q39 -45 62 -109q20 -59 20 -133q0 -70 -24 -131q-25 -63 -68 -109q-45 -47 -102 -73q-59 -27 -133 -27t-129 27q-58 28 -99 73q-39 45 -61.5 108.5t-22.5 131.5zM201 0l913 1198 q8 6 29 12q6 2 21.5 5.5t21.5 5.5q16 4 41 8l33 8l24 -31l-909 -1200l-31 -10q-20 -8 -43 -10q-23 -4 -43 -9q-10 -2 -18.5 -5t-14.5 -3zM258 920q0 -141 33 -218q31 -70 90 -69q53 0 79.5 55t26.5 189q0 78 -8 127t-26 90q-12 29 -39 51q-20 18 -49 18q-49 0 -78 -55 q-29 -57 -29 -188zM799 309q0 70 22 133q20 57 68 109q45 47 102 74q59 27 135 26q78 0 133.5 -26.5t96.5 -73.5q39 -45 61 -109q20 -59 21 -133q0 -70 -25 -131q-25 -63 -67 -108q-43 -46 -105 -74q-59 -27 -131 -27q-74 0 -129 27q-58 28 -98 74q-39 45 -61.5 108 t-22.5 131zM1004 334q0 -143 32 -219q31 -72 90 -72q53 0 80 57q27 55 27 191q0 141 -35 215q-33 70 -88 69q-49 0 -78 -55q-28 -57 -28 -186z" />
<glyph unicode="&#x26;" horiz-adv-x="1417" d="M66 352q0 106 65.5 211t210.5 213q-33 74 -51 150q-18 74 -19 147q0 82 31 150q33 74 84 120q53 49 125 78q74 29 151.5 29t131 -20.5t88.5 -55.5q37 -37 51 -78q16 -45 16 -92q0 -53 -26 -106q-25 -51 -70 -105q-43 -52 -98 -98q-57 -47 -115 -84l-31 -18 q27 -45 74 -115l86 -113l90 -108q31 -35 94 -99q23 39 31 72q10 41 10 72q0 37 -14 76q-12 35 -33 57q-18 20 -49 35q-27 12 -57 12l-29 37l16 16l23 23q2 2 27 20q16 12 22 15h481l31 -45l-27 -33l-28 -37q-10 -12 -31 -33q-10 -10 -27 -22q-14 8 -79 30q-35 12 -78 17 q20 -25 26 -60q6 -31 7 -67q0 -68 -31 -142q-35 -82 -84 -145q8 -6 14 -13t12.5 -11.5t14.5 -12.5q20 -16 39 -33q53 -43 106 -55q51 -10 107 2l14 -74q-49 -23 -90 -34q-74 -25 -88 -29q-43 -12 -74 -19q-41 -8 -43 -8q-25 0 -76 31q-52 31 -116 86q-74 -51 -172.5 -84 t-196.5 -33q-102 0 -186 25q-83 25 -142 74q-57 49 -88 118q-30 71 -30 166zM326 373q0 -72 20 -119q23 -51 60 -82q35 -29 79 -45q35 -12 88 -12q61 0 109 16q61 23 100 45l-96 98q-43 45 -94 111q-68 84 -92 121q-57 82 -82 125q-51 -63 -74 -127q-18 -53 -18 -131z M498 1130q0 -57 14 -108q18 -66 39 -115q49 29 78 62q35 39 51 67q16 31 27 68q8 31 8 67q0 70 -33 109q-35 41 -80 41q-27 0 -47 -14q-18 -14 -33 -41q-12 -23 -18 -62q-6 -34 -6 -74z" />
<glyph unicode="'" horiz-adv-x="555" d="M137 1397q8 4 27 10q18 8 41 16l49 19q27 8 49 16l41 15l25 8l51 -29l-74 -618l-8 -4q-8 -3 -14 -5q-10 -2 -35 -6t-37 -4q-6 0 -16.5 -1t-14.5 -1z" />
<glyph unicode="(" horiz-adv-x="677" d="M106 623q0 162 35 313q33 145 98.5 272t155.5 224q98 104 205 167l55 -73q-57 -57 -112 -146q-51 -80 -92 -192q-41 -109 -62 -242q-23 -141 -22 -295q0 -147 18 -278q18 -129 55 -244q41 -123 90 -207q59 -98 125 -162l-55 -75q-121 61 -217 161q-92 95 -154 215 q-61 121 -92 261q-31 141 -31 301z" />
<glyph unicode=")" horiz-adv-x="677" d="M27 -242q57 57 112 146q45 72 90 192q43 117 64 244q23 141 22 295q0 144 -18 276t-55 246q-41 123 -90 207q-57 94 -125 160l53 75q123 -66 217 -161q96 -100 156 -215q61 -121 92 -260q31 -141 30.5 -301t-34.5 -312q-35 -150 -99 -274q-68 -131 -155 -226 q-90 -96 -207 -165z" />
<glyph unicode="*" horiz-adv-x="905" d="M55 971l8 55l293 107l-270 96q0 2 4 35q0 10 1 17t3 15.5t4 18.5q2 8 5 25.5t3 23.5q2 18 7 33l53 20l235 -198l-49 278l33 16q14 6 47 19q39 16 45 18q8 4 35 11l43 -35l-53 -305l217 184q4 -2 11 -8l18 -15q12 -10 40 -30q10 -8 18.5 -15.5t18.5 -15.5q25 -20 27 -23 l-8 -57l-291 -104l266 -97q0 -4 -4 -36q-2 -20 -6 -50q-2 -8 -5 -25.5t-3 -23.5q-4 -25 -6 -35l-54 -18l-235 197l49 -279l-33 -16q-14 -6 -47 -19q-14 -6 -26.5 -10t-20.5 -6q-12 -4 -33 -10l-43 34l54 306l-218 -185q-4 2 -7 4t-8 6.5t-13 10.5l-41 30q-10 8 -18.5 15.5 t-18.5 15.5q-23 19 -27 25z" />
<glyph unicode="+" horiz-adv-x="862" d="M53 522q4 16 8 27l13 31l8 16t6 14q10 23 10 25h262v266l25 8q14 4 31 11q6 2 11 5t9 4t13 3l24 6l33 -31v-272h270l35 -33q0 -2 -10 -27q-2 -8 -6 -15t-7 -15l-8 -16.5t-6 -14.5t-5 -12l-5 -10h-258v-267q-9 -6 -25 -12q-6 -2 -16 -5t-14 -5q-20 -8 -30.5 -10.5 l-27.5 -6.5l-33 29v277h-274z" />
<glyph unicode="," horiz-adv-x="550" d="M88 154q2 4 25 18q6 4 47 23q18 8 59 24q14 6 64 21q20 6 57 14q18 4 45 4q45 -20 72 -65q23 -39 22 -123q0 -51 -22 -115q-23 -66 -62 -125q-35 -55 -94 -117q-51 -55 -113 -94l-67 51q59 70 88 135q33 76 33 156q0 20 -11 45q-10 27 -26 39q-18 15 -43 25q-29 10 -58 8 z" />
<glyph unicode="-" horiz-adv-x="727" d="M53 471q4 16 8 27q2 6 6.5 16t6.5 16l8 16.5t6 14.5q10 23 10 25h543l35 -31q-2 -8 -10 -29q-2 -6 -6.5 -16t-6.5 -16l-8 -16.5t-6 -14.5q-2 -4 -5 -12.5t-5 -10.5h-543z" />
<glyph unicode="." horiz-adv-x="550" d="M131 94q0 43 14 72q16 31 41 53q27 23 60 35t69 12q31 0 54 -8q27 -10 47 -25q16 -12 30 -40q12 -25 13 -62q0 -43 -15 -72q-18 -37 -38 -55q-23 -20 -58 -33q-33 -12 -72 -12q-18 0 -55 8q-18 4 -47 25q-16 12 -31 41q-12 24 -12 61z" />
<glyph unicode="/" horiz-adv-x="974" d="M35 -303l700 1847q4 4 35 17q25 10 45 16l45 12l35 10l45 -28l-698 -1847l-31 -17q-8 -4 -24.5 -9t-22.5 -7q-16 -6 -49 -15q-8 -2 -20.5 -7t-14.5 -5z" />
<glyph unicode="0" horiz-adv-x="1034" d="M61 602q0 133 33 244q37 123 92 201q63 88 150 137q90 51 194.5 51t188.5 -49q78 -45 139 -137q57 -84 88 -201q29 -109 29 -246q0 -127 -35 -244q-33 -113 -96 -200q-63 -90 -148 -138q-90 -51 -190 -51t-187 51q-78 45 -139 138q-55 82 -88 200q-31 113 -31 244z M324 645q0 -272 53 -409q52 -135 153 -136q46 0 80 25q37 27 58 80q23 59 34 145q12 89 13 215q0 129 -17 238q-16 102 -43 170q-25 61 -65 98q-39 35 -84 35q-43 0 -80 -26.5t-57 -80.5q-23 -59 -35 -141q-10 -72 -10 -213z" />
<glyph unicode="1" horiz-adv-x="1034" d="M125 1075q14 2 68 19q72 20 90 26q47 14 96 33l96 35l84 31q35 14 62 26l45 -43v-1030q0 -10 10 -20q12 -12 39 -25q18 -8 76 -23q39 -10 124 -20v-84h-759v84q86 10 129 20q68 16 84 23q35 14 43 23q14 14 14 22v737q0 35 -4 64q-2 20 -14 35q-6 8 -23 10q-20 4 -45 4 q-14 0 -76 -8q-55 -8 -110 -21z" />
<glyph unicode="2" horiz-adv-x="1034" d="M84 74l205 243l151 189l107 145q43 61 67 111q31 61 37 88q10 45 11 74q0 39 -11 80q-10 37 -26 63q-16 25 -50 41q-29 14 -69 14q-45 0 -71.5 -16t-47.5 -47q-18 -27 -25 -66q-6 -37 0 -73l-43 -21q-18 -6 -59 -18.5t-61 -16.5q-47 -8 -54 -10l-34 70q0 51 36.5 106 t100.5 100q61 43 147 76q78 29 178 29q70 0 140 -16q63 -14 108 -48q41 -29 68 -79q25 -46 24 -111q0 -45 -12 -88q-14 -47 -41 -96q-27 -47 -72 -109q-63 -86 -106 -135l-147 -168l-191 -211h399q20 0 31 8q20 14 25 23q16 29 18 33l12 36q8 31 17 101l80 -21l-15 -354 h-798z" />
<glyph unicode="3" horiz-adv-x="1034" d="M76 133l41 98q37 -27 86 -57q29 -18 80 -39q33 -14 73 -20q37 -6 74 -6q49 0 90 14t72 45q27 27 47 78q18 46 18 110q0 72 -20 115q-23 49 -55 76q-37 31 -70 41q-37 12 -72 12h-22h-19q-2 0 -8 -1t-8 -1q-6 0 -27 -4l-16 90q76 18 137 55q47 27 78 66q27 33 37 69 q8 31 8 66q0 34 -6 68q-6 33 -23 59q-14 23 -43 41q-23 14 -63 14q-31 0 -51.5 -12t-36.5 -35q-14 -18 -21 -53q-6 -29 4 -64q-12 -8 -47 -22q-23 -10 -57 -21q-4 -2 -25.5 -9t-33.5 -9q-20 -4 -58 -8l-35 61q0 43 31 92.5t86 92.5q59 45 131 71q80 29 168 29 q90 0 155.5 -24.5t104.5 -63.5q43 -43 60 -88q18 -49 18 -101q0 -35 -16 -77q-12 -33 -43 -74q-27 -35 -68 -64q-47 -33 -86 -45q59 -6 111 -34q55 -31 86 -70q35 -45 53 -98q20 -61 20 -115q0 -88 -32 -160q-37 -82 -92 -131q-59 -53 -146 -88q-80 -33 -186 -33 q-31 0 -86 11q-57 10 -101 28q-53 23 -100 51q-53 33 -96 74z" />
<glyph unicode="4" horiz-adv-x="1034" d="M55 377l482 790l53 19l57 20l60 21l49 18l45 -43v-727h131l24 -31q-22 -31 -49 -61q-6 -6 -53 -47h-53v-203q0 -8 6 -14t20 -13q31 -12 43 -16q8 -2 68 -16v-74h-578v74q102 18 107 20q55 12 63 17q25 10 31 16q8 8 8 18v191h-473zM252 475h317v506z" />
<glyph unicode="5" horiz-adv-x="1034" d="M78 129l49 90q53 -37 100 -59q66 -31 86 -37q43 -12 72 -19q23 -4 64 -4q51 0 92 21q43 23 71 55q29 35 47 84q16 43 17 107q0 74 -16.5 121t-51.5 87q-27 33 -76 54q-43 18 -100 18q-84 0 -137 -22q-55 -23 -111 -66l-47 35l15 86q8 49 16 104q4 27 16 117q12 78 17 115 q6 55 12 104q2 18 4 48t2 36h526q23 0 52 4q22 3 37 6q20 4 32 9l37 -35q-10 -16 -29 -41l-38 -49l-39 -45q-16 -20 -29 -29h-432q-2 -18 -6 -68q-2 -29 -11 -75l-12 -70l-10 -57q47 23 100 30q61 10 119 11q102 0 176 -33q80 -35 125 -86q55 -61 76 -123q27 -76 27 -143 q0 -88 -27 -166q-29 -82 -82 -142q-53 -57 -141 -96q-86 -37 -201 -37q-39 0 -96 11q-49 8 -103 30q-63 27 -100 49q-53 33 -92 70z" />
<glyph unicode="6" horiz-adv-x="1034" d="M94 473q0 141 49 270q51 135 142 234q94 104 235 174q150 76 328 98l26 -90q-117 -25 -208 -72q-88 -45 -150 -110q-59 -63 -98 -139q-35 -72 -51 -156q70 55 127 78q63 25 114 24q88 0 154 -26q63 -27 112 -78q47 -51 72 -117q25 -68 25 -151q0 -46 -13 -99 q-14 -57 -34 -100q-23 -45 -60 -92q-33 -41 -82 -78q-41 -29 -104 -53q-55 -20 -127 -21q-95 0 -178 37q-84 37 -146 103q-55 59 -96 159q-37 92 -37 205zM352 537q0 -119 19 -203q20 -88 47 -135q31 -51 69 -76q41 -25 88 -25q43 0 72 23q27 20 45 55q18 34 25 80 q8 61 8 92q0 90 -16 152q-14 53 -43 90q-25 29 -58 43q-31 12 -63 12q-43 0 -94 -29q-50 -27 -99 -79z" />
<glyph unicode="7" horiz-adv-x="1034" d="M96 889q0 10 2 16t4 19.5t4 31.5l13 93q2 18 7 47.5t7 42.5q4 31 14 65h781l33 -37l-93 -217l-86 -217l-80 -205l-71 -188l-58 -162l-43 -127q-10 -8 -45 -22l-59 -25l-61 -18l-58 -17l-49 41l156 283l125 250q80 166 110 235l107 246h-447q-10 0 -30 -4q-16 -4 -35 -19 q-14 -12 -37 -47q-16 -27 -41 -92z" />
<glyph unicode="8" horiz-adv-x="1034" d="M80 285q0 57 18 100q25 55 58 94q35 39 86 82q53 43 110 72q-45 20 -84 45q-49 31 -71 55q-31 33 -50 78q-18 43 -18 104q0 66 33 127q31 59 86 103q51 41 127 65q74 25 157 25q98 0 166 -21q71 -22 117 -55q49 -35 70 -84q23 -51 22 -106q0 -35 -16 -74q-12 -29 -45 -70 q-23 -27 -70 -63q-40 -31 -86 -62q61 -29 101 -53q47 -29 86 -72q39 -41 59 -96q20 -53 20 -127q0 -84 -34 -147q-39 -70 -99 -121q-63 -53 -145 -84q-84 -31 -182 -31q-96 0 -181 27q-74 23 -129 70q-51 41 -80 100q-26 53 -26 119zM338 315q0 -53 14.5 -94t42.5 -69 q27 -27 64 -43.5t71 -16.5q41 0 72 19q39 23 55 47q18 25 31 67q12 41 12 84q0 57 -18 101q-18 41 -53 73q-39 35 -74 56q-37 23 -88 45q-41 -41 -57 -62q-25 -31 -41 -63q-15 -31 -25 -68q-6 -25 -6 -76zM358 950q0 -43 17 -67q23 -35 47 -52q41 -29 67 -40q2 -2 35 -16.5 t49 -22.5q86 92 86 186q0 55 -14 86q-18 41 -35 57q-18 18 -53 29q-27 8 -61 8q-39 0 -59.5 -12t-43.5 -39q-16 -18 -26 -53q-9 -27 -9 -64z" />
<glyph unicode="9" horiz-adv-x="1034" d="M86 795q0 53 14 102q16 55 43 102q28 49 68 93q39 41 90 73q55 35 109 52q57 18 127 18q90 0 170 -29q78 -29 133 -90q57 -63 88 -158q33 -102 33 -227q0 -147 -48 -282q-46 -132 -141 -234q-96 -102 -237 -170q-139 -66 -330 -88l-25 88q135 33 233.5 84t156 110.5 t87.5 135.5q29 70 39 157q-53 -53 -114 -79q-68 -29 -136 -29q-92 0 -155 29q-68 31 -113 82t-69 118q-23 62 -23 142zM334 856q0 -84 18.5 -139t45 -88t57.5 -45q37 -14 57 -15q55 0 104 31q53 35 86 74q-4 141 -20 221q-20 92 -43 131q-29 47 -61 66q-31 16 -68 16 q-86 0 -131 -65.5t-45 -186.5z" />
<glyph unicode=":" horiz-adv-x="550" d="M131 94q0 43 14 72q16 31 41 53q27 23 60 35t69 12q31 0 54 -8q27 -10 47 -25q16 -12 30 -40q12 -25 13 -62q0 -43 -15 -72q-18 -37 -38 -55q-23 -20 -58 -33q-33 -12 -72 -12q-18 0 -55 8q-18 4 -47 25q-16 12 -31 41q-12 24 -12 61zM131 788q0 43 14 72q16 31 41 53 q27 23 60 35.5t69 12.5q31 0 54 -9q27 -10 47 -24q14 -10 30 -43q12 -25 13 -60q0 -43 -15 -71q-18 -37 -38 -56q-23 -20 -58 -32q-33 -12 -72 -13q-18 0 -55 9q-18 4 -47 24q-16 12 -31 41q-12 24 -12 61z" />
<glyph unicode=";" horiz-adv-x="550" d="M88 154q2 4 25 18q6 4 47 23q18 8 59 24q14 6 64 21q20 6 57 14q18 4 45 4q45 -20 72 -65q23 -39 22 -123q0 -51 -22 -115q-23 -66 -62 -125q-35 -55 -94 -117q-51 -55 -113 -94l-67 51q59 70 88 135q33 76 33 156q0 20 -11 45q-10 27 -26 39q-18 15 -43 25q-29 10 -58 8 zM131 788q0 43 14 72q16 31 41 53q27 23 60 35t69 12q31 0 54 -8q27 -10 47 -25q16 -12 30 -40q12 -25 13 -62q0 -43 -15 -72q-18 -37 -38 -55q-23 -20 -58 -33q-33 -12 -72 -12q-18 0 -55 8q-18 4 -47 25q-16 12 -31 41q-12 24 -12 61z" />
<glyph unicode="&#x3c;" horiz-adv-x="929" d="M53 526l2 13l6 16l11 35q2 4 2 8t2 8q2 6 6 15v6q0 2 4 6l4 14l756 273l31 -31q-2 -10 -7 -29q-2 -12 -10 -37q-8 -27 -10 -37l-5 -15t-3 -11l-531 -191l543 -192l23 -43l-48 -47q-23 -25 -59 -45l-684 245z" />
<glyph unicode="=" horiz-adv-x="929" d="M53 373q2 10 8 24l13 31l8 16.5t6 14.5q10 23 10 24h748l31 -30q-4 -16 -9 -27q-2 -4 -7 -16.5t-7 -16.5l-12 -31q-2 -6 -6.5 -12t-4.5 -10h-745zM53 672l3 10q3 10 5 16l13 31l8 16.5t6 14.5q10 23 10 24h748l31 -32q-4 -16 -9 -27l-8 -15.5t-6 -15.5q-2 -6 -4 -10 t-2 -7t-2 -7l-4 -8q-2 -6 -6.5 -12.5t-4.5 -10.5h-745z" />
<glyph unicode="&#x3e;" horiz-adv-x="929" d="M53 274q8 23 8 27q4 29 9 39q4 8 6 16.5t6 18.5q6 18 8 26l526 191l-538 192l-25 45q10 8 22.5 19.5l28.5 25.5q25 25 56 46l686 -244l31 -41l-7 -29q-2 -14 -10 -33l-12 -32q-4 -8 -5 -16.5t-3 -12.5l-754 -270z" />
<glyph unicode="?" horiz-adv-x="931" d="M66 1122v25q0 70 36 131q35 57 101 104q68 47 147 72q90 27 174 27q74 0 148 -25q66 -23 106 -63q45 -45 66 -101q23 -61 22 -127q0 -72 -26.5 -137t-63.5 -115q-53 -70 -84 -102q-72 -76 -86 -94q-40 -49 -67 -99q-27 -49 -31 -110l-6 -96q-12 -10 -45 -23l-56 -18 l-30 28l-9 109q-4 59 15 113q23 68 43 106q25 49 59 102q41 66 60 99q31 53 47 96q18 45 18 96q0 125 -39 183q-41 59 -110 59q-29 0 -49 -12q-18 -10 -41 -37q-16 -20 -27 -56q-10 -37 -10 -71q0 -20 2 -32.5t10 -33.5q-8 -4 -47 -16l-66 -19q-41 -10 -69 -16q-8 -2 -56 -8 l-34 37q-2 6 -2 24zM281 94q0 43 14 72q16 31 41 53q27 23 59 35q35 12 70 12q31 0 53.5 -8t44.5 -25q18 -14 33 -40q12 -25 12 -62q0 -43 -14 -72q-18 -37 -39 -55q-23 -18 -59 -33q-33 -12 -70 -12q-20 0 -57 8q-16 4 -45 25q-18 14 -33 41q-10 20 -10 61z" />
<glyph unicode="@" horiz-adv-x="1794" d="M86 465q0 121 31 235q33 119 88 213q57 98 139 183q78 80 180 141q96 57 213 92t240 35q164 0 299 -49q131 -47 231 -148q96 -96 150 -247q53 -150 53 -349q0 -96 -18 -161q-23 -80 -56 -146q-29 -55 -82 -121q-35 -43 -104 -92q-51 -37 -112.5 -59.5t-120.5 -22.5 q-33 0 -56 8q-29 10 -47 27q-25 20 -39 49q-14 31 -24 78q-27 -33 -72 -78q-35 -35 -59 -51q-29 -18 -58 -25q-41 -8 -69 -8q-51 0 -105 29q-51 27 -94 86q-43 57 -70 145q-27 86 -26 207q0 51 14 127q12 61 37 121q23 55 63.5 108.5t85.5 88t109 57.5q61 23 127 23 q14 0 43 -5q18 -2 41 -12q14 -6 41 -29q14 -12 45 -47q47 16 94 41q49 27 84 52l33 -31q-10 -39 -17 -74q-8 -39 -10 -72q-4 -53 -4 -84v-415q0 -63 14 -92q16 -31 58 -31q25 0 53 22q23 18 51 68q25 43 41 110q14 59 15 150q0 176 -41 299q-41 125 -119 211 q-76 84 -182 127q-109 43 -236 43q-147 0 -270 -55q-119 -53 -197 -144q-82 -96 -121 -213q-41 -127 -41 -256q0 -184 53 -331q51 -141 144 -240q90 -96 213 -146q117 -47 260 -47q104 0 178 17q76 16 154 45q70 25 121 55q49 29 81 55l48 -86q-39 -43 -95 -86 q-66 -51 -135 -84q-90 -41 -180 -63q-111 -27 -221 -27q-188 0 -342 62q-162 66 -266 172q-115 117 -175 276q-61 163 -61 369zM737 469q0 -90 15 -145q14 -57 36 -95q23 -39 50 -53q29 -16 55 -16q20 0 35 6q18 8 33 18q23 18 36 37q6 8 21.5 26.5t25.5 33.5v450 q-23 47 -49 72q-29 25 -77 24q-86 0 -134 -86q-47 -88 -47 -272z" />
<glyph unicode="A" horiz-adv-x="1286" d="M0 0v74q68 12 104 24q39 12 48 43l348 1065q12 12 51 37q29 18 57 31q6 2 27.5 11t32.5 13l55 19l420 -1176q6 -18 12 -24q10 -12 23 -21q8 -4 34.5 -12t53.5 -10v-74h-498v74q86 6 106 18q29 16 17 49l-103 289h-397l-94 -289q-8 -31 22 -45q29 -12 117 -22v-74h-436z M432 551h316l-166 465z" />
<glyph unicode="B" horiz-adv-x="1230" d="M31 1231q41 10 104 20l129 19q41 6 137 14q68 6 127 6q119 0 207 -18q86 -18 154 -53q57 -31 96 -86q33 -47 33 -113q0 -109 -57 -184q-59 -80 -170 -113q80 -12 137 -45q68 -37 106 -82q49 -55 70 -109q25 -61 24 -131q0 -90 -34 -153q-39 -70 -103 -117 q-68 -49 -162 -74q-102 -27 -217 -26h-55q-10 0 -32.5 1t-37.5 1q-18 0 -38.5 1t-42.5 1q-29 0 -82 4q-111 4 -201 6h-80v74q70 16 102 30q35 16 35 29v1032q-33 -2 -74 -10q-10 -2 -31.5 -4t-31.5 -4zM430 127q0 -8 4 -12q31 -14 66 -17q74 -6 75 -6q141 0 218 66 q74 63 73 180q0 57 -14 108.5t-49 96.5q-33 41 -92 69q-55 27 -146 27q-35 0 -75.5 -4t-59.5 -8v-500zM430 739h19q102 0 161 21q66 23 97 53q37 37 47 74q12 43 12 84q0 47 -16 90q-15 40 -50 67q-31 25 -92 41q-55 14 -141 15h-18h-19v-445z" />
<glyph unicode="C" horiz-adv-x="1142" d="M55 586q0 162 49.5 291t135.5 221q90 96 200 143q117 49 250 49q61 0 109 -8q35 -6 100 -22q47 -12 88 -31q45 -20 66 -39q2 -2 -2 -19q-2 -12 -13 -34q-6 -14 -22 -47q-8 -16 -24.5 -45t-24.5 -41q-12 -18 -21 -27l-63 14q-51 86 -117 127q-63 39 -143 39q-41 0 -72 -10 q-39 -12 -72 -37q-35 -25 -65 -66q-31 -40 -56 -98q-25 -57 -36 -139q-14 -94 -15 -184q0 -125 35 -219.5t86 -151.5q55 -61 121 -88q70 -29 133 -29q27 0 63 6q31 6 80 23q43 15 93 43q49 27 102 72q2 -2 6 -7q4 -6 6 -8q8 -8 15 -20q8 -10 14 -21q4 -6 10 -12 q-61 -61 -127 -111q-68 -51 -123 -75q-68 -31 -119 -41q-68 -14 -116 -15q-101 0 -197 43q-100 45 -170 121q-72 78 -119 193q-45 110 -45 260z" />
<glyph unicode="D" horiz-adv-x="1302" d="M31 1231q18 4 116 22q14 2 142 19q96 12 149 14q98 4 140 4q160 0 274 -41q121 -43 201 -121q82 -80 125 -192.5t43 -259.5q0 -125 -25 -223q-23 -90 -70 -174q-41 -76 -102 -129q-57 -51 -127 -87q-59 -31 -139 -47q-76 -16 -140 -16h-575v74q70 16 102 30q35 16 35 29 v1024l-137 -18zM430 168q0 -10 2 -14q4 -14 10 -21q8 -8 27 -14q14 -4 43 -8q37 -4 70 -5q29 0 80 15q41 12 86 41q41 27 77 69q39 45 66 103q27 55 45 133q16 68 16 170q0 131 -28 235q-27 96 -86 172q-51 66 -140 105q-78 35 -192 35h-37q-6 0 -18.5 -1t-20.5 -1v-1014z " />
<glyph unicode="E" horiz-adv-x="1075" d="M43 0v74q70 16 102 30q35 16 35 29v991q0 12 -33 31q-31 16 -104 33v72h881l41 -31q-2 -23 -7 -66q-2 -27 -10 -80t-12 -77q-6 -37 -12 -56h-76q-6 100 -25 142q-20 49 -57 49h-336v-406h397l33 -35q-2 -4 -8 -15t-10 -17l-25 -37q-8 -12 -24 -33q-12 -15 -25 -25 q-18 18 -31 25q-31 16 -41 18q-27 8 -53 11q-20 2 -72 2h-141v-445q0 -14 6 -26q4 -10 31 -21q22 -9 61 -12q53 -4 107 -4h98q49 0 78 10q35 12 57 35q25 27 47 65q14 29 41 99l72 -27q-4 -61 -8 -90q-2 -14 -5 -45t-5 -45q-6 -39 -13 -76q-2 -12 -6 -28.5t-4 -18.5h-944z " />
<glyph unicode="F" horiz-adv-x="1038" d="M43 0v74q70 16 102 30q35 16 35 29v991q0 12 -33 31q-31 16 -104 33v72h891l39 -31q0 -8 -3 -31.5t-3 -34.5q-4 -53 -9 -80q-8 -53 -12 -77q-6 -37 -12 -56h-78q-3 92 -25 142q-20 49 -57 49h-344v-406h367l37 -35q-6 -12 -23 -36l-12 -17.5t-13 -17.5q-8 -12 -24 -33 l-23 -23q-16 16 -32 25q-35 16 -39 18q-27 8 -54 11q-20 2 -71 2h-113v-496q0 -6 8 -12q16 -10 27 -15q39 -12 51 -16t82 -16v-74h-555z" />
<glyph unicode="G" horiz-adv-x="1230" d="M55 582q0 162 54 297q51 131 147 223q92 90 219 139q126 49 277 49q18 0 79 -8q39 -6 93 -18q33 -8 94 -33q47 -18 78 -43q4 -2 0 -19q-2 -12 -13 -34q-4 -8 -12 -21.5t-12 -21.5q-6 -10 -12.5 -22.5t-14.5 -25.5q-4 -8 -14 -22t-12 -16q-4 -6 -23 -25l-61 14 q-27 39 -68 80q-37 37 -70 53q-43 23 -73 29q-35 8 -82 8q-23 0 -60 -10q-29 -8 -69 -35q-37 -25 -70 -63q-34 -40 -61 -99q-23 -47 -43 -137q-18 -80 -19 -184q0 -127 33 -229q33 -98 82 -158q52 -61 117 -92q63 -31 137 -31q51 0 98 10q45 10 80 29v303q0 10 -4 23 q-4 10 -21 20q-23 12 -49 20q-55 14 -88 21v72h498v-72q-55 -14 -78 -37q-18 -18 -18 -47v-299q-66 -55 -140 -100q-63 -39 -120 -62q-43 -16 -107 -28q-55 -10 -94 -11q-68 0 -144 17q-63 14 -135 51q-68 35 -118 84q-59 55 -97 119q-40 68 -61 153q-23 91 -23 189z" />
<glyph unicode="H" horiz-adv-x="1398" d="M43 0v74q70 16 102 30q35 16 35 29v991q0 12 -33 31q-31 16 -104 33v72h524v-72q-72 -16 -102 -33q-35 -18 -35 -31v-403h520v403q0 12 -32 31q-31 16 -105 33v72h524v-72q-72 -16 -102 -33q-35 -18 -35 -31v-991q0 -10 33 -29q25 -14 104 -30v-74h-524v74q70 16 102 30 q35 16 35 29v467h-520v-467q0 -10 33 -29q27 -14 104 -30v-74h-524z" />
<glyph unicode="I" horiz-adv-x="669" d="M63 0v74q70 16 103 30q35 16 35 29v991q0 12 -33 31q-31 16 -105 33v72h525v-72q-72 -16 -103 -33q-35 -18 -34 -31v-991q0 -10 32 -29q25 -14 105 -30v-74h-525z" />
<glyph unicode="J" horiz-adv-x="684" d="M-264 -324q0 14 20 37q22 25 49 49q37 33 56 48q25 18 43 26q55 -49 102 -67.5t86 -18.5q27 0 51 12q29 14 47 50q20 37 33 110q12 70 13 189v1013q0 8 -7 15q-4 4 -28 14q-14 6 -56 16q-37 9 -98 19v72h576v-72q-72 -16 -103 -33q-35 -18 -35 -31v-942q0 -104 -22 -188 q-18 -68 -57 -135q-35 -61 -76 -99q-63 -59 -80 -71q-33 -25 -62 -41q-45 -25 -69.5 -35t-73.5 -23q-33 -8 -70 -8q-41 0 -88 10q-45 10 -77 25q-20 10 -54 33q-20 14 -20 26z" />
<glyph unicode="K" horiz-adv-x="1265" d="M43 0v74q70 16 102 30q35 16 35 29v991q0 12 -33 31q-31 16 -104 33v72h524v-72q-72 -16 -102 -33q-35 -18 -35 -31v-465l373 439q22 28 31 43q10 16 4 24q-8 12 -27 15q-53 8 -61 8v72h450v-72q-12 -2 -34 -5l-21 -3q-14 -2 -39 -11l-31 -18q-10 -6 -31 -27l-428 -448 l482 -510q18 -20 32 -29q18 -9 37 -12q25 -4 41.5 -4t48.5 4l7 -74q-29 -8 -66 -20q-31 -10 -72 -21l-67 -16q-45 -8 -58 -8q-27 0 -51 10q-23 10 -43 33l-477 596v-492q0 -10 33 -29q27 -14 104 -30v-74h-524z" />
<glyph unicode="L" horiz-adv-x="1042" d="M43 0v74q70 16 102 30q35 16 35 29v991q0 12 -33 31q-31 16 -104 33v72h524v-72q-72 -16 -102 -33q-35 -18 -35 -31v-929q0 -23 8 -33q10 -14 30.5 -22.5t55.5 -14.5q25 -4 92 -4h113q53 0 78 10q35 14 55 35q25 25 43 65q23 51 41 99l74 -27q-2 -29 -10 -90 q-2 -14 -5.5 -45t-5.5 -45l-12 -76q-2 -10 -5 -26.5t-3 -20.5h-936z" />
<glyph unicode="M" horiz-adv-x="1732" d="M53 0v74q70 16 103 30q35 16 34 29l11 1018q-35 23 -72 29q-49 8 -66 8v72h347q10 0 16 -3q10 -4 16 -12l17 -26q6 -8 20 -43l369 -834l375 834q12 29 22 47q12 20 16.5 24t16.5 10q4 2 16 3h338v-72q-12 0 -57 -8q-37 -6 -70 -21l11 -1026q0 -10 36 -29q25 -12 109 -30 v-74h-522v74q66 14 106 30q39 14 39 29l-6 813l-424 -946h-94l-418 944l-6 -811q0 -10 33 -29q25 -14 104 -30v-74h-420z" />
<glyph unicode="N" horiz-adv-x="1357" d="M43 0v74q76 10 104 26q33 20 33 33v981q-63 61 -137 74v72h279q18 0 24 -3q14 -4 21 -10q4 -4 20 -24l8 -11.5t9.5 -11.5t13.5 -18l612 -848v790q0 6 -6 14.5t-23 18.5q-10 6 -40 17q-23 8 -68 14v72h426v-72q-66 -8 -107 -31q-33 -18 -32 -33v-1155q-98 10 -154 39 q-61 33 -86 66l-610 846v-787q0 -2 8 -14q4 -4 22 -17q2 0 43 -16q10 -4 66 -12v-74h-426z" />
<glyph unicode="O" horiz-adv-x="1273" d="M55 612q0 129 45 258q45 127 123 217q80 92 190.5 147.5t241.5 55.5q132 0 234 -55q104 -57 170 -143q72 -94 104 -207q35 -121 35 -238q0 -86 -22 -176q-20 -80 -62 -160q-43 -82 -94 -139q-53 -59 -123 -106q-68 -45 -141 -70q-84 -27 -158 -27q-125 0 -227 54 q-94 49 -170 143q-74 92 -109 205q-37 116 -37 241zM307 641q0 -117 27 -211q29 -100 72 -170q43 -68 106 -113q61 -43 129 -43q63 0 123 33q53 31 96 99q43 70 64 163q23 102 22 230q0 104 -24 198q-27 100 -70 170q-49 80 -109 119q-63 43 -139 43t-127 -35 q-59 -41 -94 -102q-37 -68 -55 -162q-21 -106 -21 -219z" />
<glyph unicode="P" horiz-adv-x="1159" d="M31 1231q16 4 35.5 7t44 8t39.5 7q43 8 137 21q70 8 145 12q98 4 137 4q113 0 213 -22q90 -20 162 -69.5t107 -111.5q37 -63 36 -151q0 -61 -20 -127q-18 -61 -51 -104q-39 -51 -74 -80q-55 -43 -90 -60q-41 -18 -96 -33q-49 -12 -92 -12q-33 0 -91 8q-41 6 -77 23 l-31 104q39 -18 72 -24q31 -6 65 -6q41 0 86 16q41 14 74 47t53 84q20 49 21 123q0 70 -25 125t-66 90q-43 37 -102 55q-57 18 -131 19h-39q-6 0 -20.5 -1t-22.5 -1v-1049q0 -6 6 -12q4 -4 25 -15q10 -6 51 -16q12 -4 86 -16v-74h-555v74q70 16 102 30q35 16 35 29v1024 q-12 -2 -36.5 -4t-37.5 -4q-10 -2 -31.5 -5t-31.5 -5z" />
<glyph unicode="Q" horiz-adv-x="1273" d="M55 612q0 129 45 258q45 127 123 217q80 92 190.5 147.5t241.5 55.5q132 0 234 -55q104 -57 170 -143q72 -94 104 -207q35 -121 35 -238q0 -104 -27 -196q-29 -100 -75 -177q-51 -82 -117 -145q-63 -59 -148 -102q74 -29 109 -47l100 -52q25 -12 97 -41q41 -16 92 -16 q16 0 24 2q2 0 27 10q18 8 37 21l51 37l49 -66q-33 -57 -51 -82q-25 -33 -55 -63q-29 -29 -51.5 -43.5t-36.5 -14.5q-51 0 -95 15q-47 16 -94 41q-49 27 -94 59l-94 66l-96 65q-37 25 -95 55q-10 -2 -28 -2q-4 0 -14.5 -1t-14.5 -1q-121 0 -223 54q-101 52 -172 141 q-68 86 -109 205q-39 114 -39 243zM307 641q0 -117 27 -211q29 -100 72 -170q43 -68 106 -113q61 -43 129 -43q63 0 123 33q53 31 96 99q43 70 64 163q23 102 22 230q0 104 -24 198q-27 100 -70 170q-49 80 -109 119q-63 43 -139 43t-127 -35q-59 -41 -94 -102 q-37 -68 -55 -162q-21 -106 -21 -219z" />
<glyph unicode="R" horiz-adv-x="1236" d="M31 1231q137 27 229 41q125 18 268 18q131 0 232 -22q88 -20 158 -66q55 -37 86 -96q29 -57 28 -119q0 -72 -20 -127q-23 -61 -58 -104q-39 -47 -88 -80q-53 -35 -112 -55l313 -437q16 -25 31 -34q16 -12 32 -19q25 -8 41 -8q35 0 58 2l14 -74q-10 -4 -22.5 -7t-26.5 -8 t-25 -7q-20 -6 -81.5 -20.5t-73.5 -16.5q-35 -6 -53 -6q-29 0 -58 16q-23 12 -41 39l-287 545h-20h-18q-37 0 -54 2q-37 4 -53 8v-463q0 -10 33 -29q27 -14 104 -30v-74h-524v74q70 16 102 30q35 16 35 29v1024q-18 -2 -36.5 -5t-34.5 -5q-45 -4 -66 -8zM430 707 q29 -6 47 -7q6 0 20.5 -1t20.5 -1q133 0 199 70q63 66 63 188q0 47 -14 88q-14 43 -47 72q-35 31 -90 49q-59 18 -144 19h-26q-4 0 -14.5 -1t-14.5 -1v-475z" />
<glyph unicode="S" horiz-adv-x="1048" d="M102 193q0 20 4 65l7 68q2 16 12 59l70 -6q20 -53 57 -109q35 -51 74 -84q41 -35 88 -53q51 -20 98 -20q37 0 86 14q43 12 74 37q35 27 51 61q20 41 20 84q0 63 -26 105q-31 47 -72 80q-35 29 -102 61l-115 57q-92 43 -117 58q-57 33 -100 71q-45 41 -71.5 92.5 t-26.5 127.5q0 49 26 104q27 57 82 106q57 51 141 84q88 35 209 35q37 0 107 -8q49 -6 96 -18q53 -14 80 -29q37 -20 51 -37q6 -4 4 -18q0 -4 -10 -33q-4 -12 -16 -41q-2 -6 -23 -41l-9 -17.5t-11 -19.5q-14 -18 -21 -22l-65 6q-23 49 -49 78q-29 31 -62 51q-25 14 -63 26 q-27 8 -60 9q-43 0 -86 -15q-33 -10 -57 -35q-29 -29 -35 -49q-10 -31 -10 -55q0 -45 28 -84q27 -35 72 -68q49 -35 100 -59l54.5 -26.5l62.5 -30.5q41 -20 119 -66q49 -29 100 -80q45 -45 72 -100q29 -61 29 -131q0 -39 -15 -92q-12 -43 -41 -92q-28 -46 -67 -87 q-37 -37 -96 -69q-55 -31 -125 -49q-72 -18 -156 -19q-20 0 -82 8q-43 6 -94 18.5t-96 31.5q-41 16 -80 41q-6 2 -8 20q-4 25 -5 43q0 8 -1 29t-1 33z" />
<glyph unicode="T" horiz-adv-x="1187" d="M2 958q0 2 3 28l5 42q2 27 10 84l13 82q10 63 10 66h1069l39 -31q0 -14 -4 -64q-2 -20 -10 -75q-2 -12 -5.5 -39t-5.5 -41q-2 -16 -8 -42t-6 -28h-74q-14 72 -16 84q-8 45 -14 63q-10 25 -21 39q-12 14 -35 15h-245v-996q0 -6 6 -14q6 -9 24 -18q29 -14 49 -21 q33 -10 76 -18v-74h-563v74q49 10 78 18q25 8 47 19q18 9 25 18q8 12 8 16v996h-254q-14 0 -29 -11q-10 -8 -29 -36q-2 -2 -30 -66q-16 -37 -39 -96z" />
<glyph unicode="U" horiz-adv-x="1368" d="M43 1188v72h524v-72q-72 -16 -102 -33q-35 -18 -35 -31v-614q0 -104 16 -170q18 -78 56 -125q37 -49 96 -74q63 -27 145 -26q66 0 119 32q49 31 80 84q33 57 45 123q12 72 12 144v626q0 12 -32 31q-31 16 -105 33v72h451v-72q-72 -16 -103 -33q-35 -18 -34 -31v-600 q0 -129 -37 -233q-35 -100 -103 -174q-63 -70 -157.5 -109t-196.5 -39q-98 0 -195 29q-88 27 -159 88q-70 59 -109 147q-39 86 -39 211v680q0 12 -33 31q-30 17 -104 33z" />
<glyph unicode="V" horiz-adv-x="1359" d="M12 1188v72h510v-72q-82 -6 -104 -21q-29 -18 -17 -45l326 -835l297 833q6 14 2 27q-4 10 -18 16q-15 6 -43 12.5t-68 12.5v72h430v-72q-49 -8 -106 -27q-37 -12 -47 -41l-377 -1038q-8 -20 -31 -39q-14 -12 -51 -33q-29 -16 -58 -24q-51 -14 -55 -17l-455 1151 q-14 31 -41 43q-31 17 -94 25z" />
<glyph unicode="W" horiz-adv-x="1740" d="M20 1188v72h490v-72q-31 -4 -78 -14q-25 -6 -39 -17q-12 -9 -12 -18v-23l172 -731l291 875h100l336 -875l160 739q4 14 -8 23q-10 8 -33 14q-2 0 -20.5 6.5t-28.5 8.5q-18 4 -64 12v72h447v-72q-51 -10 -74 -19l-45 -14q-16 -4 -25 -14q-10 -10 -10 -17l-227 -1065 q-6 -25 -23 -36q-23 -18 -41 -27q-25 -10 -45 -16q-29 -8 -39 -11l-340 908l-286 -818q-6 -22 -25 -36q-16 -14 -41 -25q-35 -14 -49 -18q-35 -8 -45 -11l-260 1147q-6 27 -35 41q-40 21 -103 31z" />
<glyph unicode="X" horiz-adv-x="1288" d="M25 0v74q61 6 108 24q45 18 74 60l307 471l-324 475q-14 23 -28 35q-12 12 -33 22q-14 8 -39 15q-22 6 -55 12v72h540v-72q-86 -9 -110 -25q-12 -7 -12 -21q0 -16 16 -38l207 -303l190 303q12 18 17 37q4 16 -9 24q-10 8 -38 15q-23 4 -70 8v72h453v-72q-31 -2 -66 -10 q-23 -4 -49 -17q-29 -12 -39 -22q-25 -25 -31 -35l-272 -428l354 -518q20 -29 29 -37q12 -12 33 -23q25 -12 39 -16t51 -8v-74h-535v74q37 2 72 10q25 6 39 16q10 8 10 23q0 12 -16 35l-236 342l-227 -342q-15 -22 -18.5 -37.5t5.5 -24.5q8 -8 39 -14q23 -4 72 -8v-74h-448z " />
<glyph unicode="Y" horiz-adv-x="1253" d="M0 1241q10 2 27.5 5t38.5 5q23 4 75 9q12 2 36 5t34 3q23 2 53 2q28 0 55 -13q27 -12 46 -32q39 -51 77 -115q41 -63 82 -135q61 -106 82 -148l74 -147l233 440q16 27 -8 41q-29 18 -102 27v72h418v-72q-61 -12 -101 -29q-33 -14 -47 -39l-321 -598v-377q0 -2 8 -14 q6 -9 24 -18q31 -16 47 -21q29 -8 78 -18v-74h-565v74q43 8 76 18q31 9 49 18.5t25 18.5q8 12 8 16v383q-55 121 -80 166q-4 6 -92 164l-90 148q-41 66 -78 114l-21 21q-8 8 -26 14q-23 8 -43 10q-33 4 -68 4z" />
<glyph unicode="Z" horiz-adv-x="1114" d="M51 53l674 1077h-391q-14 0 -35 -18q-27 -23 -41 -47q-18 -31 -37 -74q-14 -33 -28 -94l-87 18l37 361q41 -8 50 -10q29 -4 43 -4q6 0 22 -1t23 -1h720l33 -50l-667 -1081h454q18 0 39 16q18 14 33 45q14 29 31 78q29 86 34 107l86 -23q-4 -41 -4 -80v-48t-2 -50l-4 -98 q-2 -47 -2 -76h-944z" />
<glyph unicode="[" horiz-adv-x="690" d="M125 -336v1935h498l41 -32q0 -2 -2.5 -12.5t-4.5 -16.5q-2 -8 -5 -16.5t-5 -16.5q-2 -4 -5 -15t-5 -15.5l-5 -11.5t-3 -9h-275v-1644h269l43 -37q0 -2 -2 -10.5t-4.5 -14.5t-5.5 -14t-5 -17q-2 -4 -5 -14t-5 -14t-5 -12.5t-5 -12.5h-504z" />
<glyph unicode="\" horiz-adv-x="958" d="M41 1571l45 28q4 0 8 -2t7 -3t9.5 -2t10.5 -3l41 -12q14 -4 39 -16q4 -2 16 -7.5t19 -9.5l684 -1847l-41 -33q-2 0 -12.5 4t-22.5 8q-23 6 -45 15q-8 2 -22.5 8t-20.5 8q-16 8 -31 17z" />
<glyph unicode="]" horiz-adv-x="690" d="M25 1491l8 25q2 6 5 14t5 16q2 6 5 16.5t5 14.5q4 10 8 22h504v-1935h-497l-41 35q4 16 6 28.5t10 32.5q2 4 5 15.5t5 15.5l5 10t3 9h275v1644h-268z" />
<glyph unicode="^" horiz-adv-x="1007" d="M100 592l322 870q16 16 29 25l36 24q31 20 35 23l33 16l352 -915q-33 -29 -49 -39q-27 -16 -57 -31l-37 27l-283 723l-250 -680q-2 -2 -10 -9.5t-14 -11.5t-16.5 -10t-14.5 -10q-25 -14 -29 -16q-14 -8 -24 -13z" />
<glyph unicode="_" horiz-adv-x="989" d="M53 -244q0 2 3 11.5l5 15.5l13 31l8 16t6 14q2 4 3 8.5t2 7.5l2 6t3 5h807l33 -33q0 -2 -10 -26q-2 -4 -6 -16.5t-7 -16.5l-8 -16.5t-6 -14.5t-5 -12l-5 -10h-805z" />
<glyph unicode="`" horiz-adv-x="651" d="M-16 1417l28 56l41 8q31 6 68 12t69 12q35 6 43 6l220 -426q-6 -6 -19 -12q-10 -6 -22 -12l-25 -12q-8 -4 -20 -9z" />
<glyph unicode="a" horiz-adv-x="1021" d="M66 201q0 70 24 116q27 49 62 84q29 29 55 48q29 20 84 43q59 25 131 40q78 18 201 37v117q0 31 -6.5 59.5t-20.5 45.5q-16 18 -41 28q-27 10 -61 10q-27 0 -50 -8q-16 -6 -41 -26q-20 -16 -28 -39q-10 -29 -8 -54q0 -8 -17 -16q-18 -9 -43 -18q-16 -6 -57 -18.5 t-60 -16.5q-33 -8 -53 -10q-22 -3 -31 0l-20 53q25 61 76 112q41 41 121 89q68 41 149 61q86 23 166 23q70 0 119 -18.5t82 -51.5q35 -35 49 -76t14 -94v-483q0 -41 12.5 -59.5t28.5 -18.5q2 0 7 1t8 1q6 0 18 4l25 8q6 2 14 5l18 7l23 -73q-76 -49 -88 -56l-86 -45 q-40 -18 -74 -30q-35 -12 -51 -13q-37 0 -61.5 43t-30.5 117q-43 -43 -93 -76q-51 -35 -86 -49q-39 -16 -81 -27q-35 -8 -72 -8q-45 0 -82 15q-40 15 -74 43q-25 20 -51 73q-20 42 -20 101zM319 258q0 -37 9 -55q10 -23 24 -35q15 -12 31 -18q10 -4 29 -5q12 0 41 5 q16 2 45 16q47 23 57 31q23 16 68 53v221q-33 -4 -101 -20q-47 -10 -69 -19q-29 -10 -45 -20q-18 -12 -31 -25q-27 -27 -41 -55q-17 -33 -17 -74z" />
<glyph unicode="b" horiz-adv-x="1099" d="M2 1401v69q20 4 44 7.5t46 7.5l80 18q47 10 76 21q49 16 74 26l10 -10q2 -2 4 -5t4 -5t6 -4q2 -2 8 -8.5t11 -8.5v-706q41 37 98 71q45 29 94 50q45 20 82 28q33 8 66 9q72 0 133 -33q55 -29 100 -90q43 -59 66 -144q20 -80 20 -186q0 -61 -20 -121q-25 -72 -58 -123 q-37 -57 -88 -112q-53 -55 -108 -95q-55 -37 -123 -63q-66 -25 -127 -25q-23 0 -70 11q-49 10 -92 26l-105 39q-29 10 -108 51v1170q0 39 -4 71q-2 23 -16.5 37.5t-36.5 16.5q-10 2 -34 5t-32 5zM365 217q80 -43 141 -61.5t92 -18.5q49 0 90 22.5t66 59.5q25 35 37 88 q14 57 14 109q0 100 -19 170q-20 76 -47 116q-29 43 -71 66q-39 20 -86 20q-35 0 -90 -24q-51 -23 -127 -86v-461z" />
<glyph unicode="c" horiz-adv-x="931" d="M66 444q0 109 38 201q37 88 113 164q70 70 170 111t217 41q33 0 76 -7q29 -4 82 -16q35 -8 72 -25q35 -16 51 -32q0 -12 -2 -26.5t-11 -47.5q-6 -25 -16 -55l-7 -27.5t-9 -28.5q-12 -33 -19 -47q-8 -20 -14 -28l-68 10q-35 102 -82 151q-49 53 -127 54q-45 0 -84 -21 q-43 -23 -71 -63q-33 -47 -51 -113q-18 -68 -19 -164q0 -84 21 -143q25 -68 55 -105q39 -47 84 -65q55 -25 102 -25q20 0 54 4q25 2 57 17q18 8 70 35q40 22 92 61l53 -64q-68 -78 -121 -118q-57 -45 -104 -66q-53 -23 -95 -29q-61 -8 -94 -8q-84 0 -155 33q-74 33 -131 94 q-59 61 -93 150q-34 92 -34 198z" />
<glyph unicode="d" horiz-adv-x="1146" d="M66 444q0 104 34 193q39 100 101 166q66 72 153 115q89 43 197 43q47 0 94 -13q49 -12 100 -47v342q0 20 -1 49t-1 39q0 29 -14 51q-10 16 -41 23q-35 8 -80 10v70q109 12 199 31q98 20 139 34l39 -37v-1214q0 -12 1 -31.5t1 -27.5q0 -18 4 -39q2 -10 6 -23 q2 -8 10.5 -12t14.5 -4h18q4 0 29 8t43 16l29 -71q-61 -41 -92 -58q-61 -33 -88 -45q-33 -16 -72 -30q-31 -12 -45 -13q-70 0 -92 176q-57 -57 -84 -79q-43 -35 -76 -56q-37 -23 -76 -30q-45 -10 -86 -11q-68 0 -131 33q-70 37 -119 94q-55 63 -84 150q-30 89 -30 198z M305 498q0 -82 21 -142q25 -68 51 -106q33 -45 74 -67.5t81 -22.5q53 0 105 28q59 33 108 80v439q-37 59 -90 89.5t-120 30.5q-49 0 -93 -18q-39 -16 -71 -59q-31 -39 -49 -103q-17 -55 -17 -149z" />
<glyph unicode="e" horiz-adv-x="989" d="M66 442q0 137 51 242q55 113 153 182q23 16 60 37q29 16 67 29q49 16 74 20q49 8 76 9q96 0 170 -35q70 -33 117 -90q49 -57 69 -131q23 -78 23 -154q-14 -14 -27 -23q-14 -10 -37 -22q-2 -2 -16.5 -10.5t-22.5 -12.5t-21.5 -8t-15.5 -6h-473q4 -84 19 -133 q16 -57 51 -105q33 -47 76 -69q46 -25 104 -25q20 0 62 4q25 2 63 17q37 14 78 37q57 33 102 63q8 -4 15 -10q8 -8 16 -21q4 -6 7 -10t5 -8t4.5 -8t4.5 -6q-63 -68 -123 -113t-107 -70q-45 -23 -100 -33t-111 -10q-80 0 -160 35q-74 33 -131 96q-55 61 -90 150 q-32 83 -32 192zM315 580h334q23 0 31 8q6 6 6 28q0 41 -6 68q-10 45 -29 74q-20 33 -55 57.5t-84 24.5t-82 -18.5t-57 -51.5q-25 -35 -37 -82q-17 -63 -21 -108z" />
<glyph unicode="f" horiz-adv-x="694" d="M39 842l78 88h67v31q0 82 13 149q12 70 32 121q23 57 54 100q33 47 71 82q39 39 76 62q45 29 78 43q27 12 76 24q33 8 65 8q47 0 90 -12q47 -12 76 -27q27 -12 55 -32q20 -14 20.5 -24.5t-9.5 -27.5q-6 -12 -25 -32q-10 -12 -33 -35q-25 -25 -37 -35q-6 -6 -18 -13 t-16 -12l-27 -18q-51 63 -92 86q-49 27 -78 27q-23 0 -49 -17q-23 -14 -41 -57q-14 -35 -29 -117q-10 -61 -10 -188v-86h248l37 -35q-6 -12 -23 -37l-26 -35q-4 -8 -15.5 -19t-11.5 -13q-10 -12 -23 -21q-14 8 -65 23q-43 12 -121 12v-674q0 -4 8 -10q14 -10 33 -15 q8 -2 30.5 -7t32.5 -7q14 -4 46 -9t51 -9v-74h-574v74q76 14 101 28q31 18 30 29v674h-118z" />
<glyph unicode="g" horiz-adv-x="1058" d="M14 -221q0 25 11 51q8 20 38 55q25 27 78 64q45 31 125 76q-115 47 -114 98q0 8 10 29q9 18 31 43q14 16 57 55q27 25 84 63q-57 16 -103 43q-43 27 -77 64q-31 35 -52 84q-16 41 -16 98q0 78 35 139q37 66 96 113q66 51 139 78q82 29 166 29q61 0 129 -21 q57 -16 109 -49q94 14 158 33q71 22 110 37l29 -37q0 -2 -10 -27l-13 -31q-4 -10 -16 -30q-6 -10 -19 -27q-45 -8 -67 -10q-31 -2 -78 -6q16 -27 33 -74q10 -31 10 -78q0 -78 -33 -141q-33 -61 -92 -109q-61 -49 -131 -72q-74 -25 -158 -24h-10q-41 -37 -49 -57 q-10 -25 -10 -27q0 -9 6 -18q4 -6 29 -17q12 -6 67 -16q72 -14 123 -21q133 -18 195 -35q74 -20 122 -53q47 -31 64 -67q18 -41 18 -88q0 -45 -22 -95q-20 -45 -60 -90q-43 -49 -88 -82q-47 -33 -110 -63q-55 -27 -125 -43.5t-127 -16.5q-53 0 -109 7q-66 8 -112 20 q-49 14 -103 37q-51 23 -86 51q-39 33 -59 70q-23 41 -23 88zM256 -182q0 -35 23 -64q27 -33 67 -53q53 -27 103 -37q68 -14 126 -14q61 0 103 14q43 16 69.5 39t43.5 57q14 29 14 68q0 23 -8 39q-8 14 -37 35q-27 16 -76 32q-39 12 -129 23q-51 6 -88 14l-38 7.5t-42 9.5 q-29 -18 -72 -58q-31 -27 -41 -45q-14 -25 -16 -37q-2 -10 -2 -30zM315 659q0 -51 13 -94q12 -45 37 -78q27 -37 63 -53q39 -18 94 -18q33 0 55.5 10t47.5 35q16 16 30 57q12 35 13 82q0 53 -13 96q-8 33 -41 76q-27 37 -63 53q-45 20 -90 21q-27 0 -51.5 -12.5t-47 -35 t-34.5 -57.5q-13 -33 -13 -82z" />
<glyph unicode="h" horiz-adv-x="1189" d="M47 0v74q74 20 100 30q33 12 33 29v1135q0 49 -2 65q-2 23 -16 37q-12 12 -39 19q-29 6 -76 12v69q10 2 48 7.5t55 9.5q10 2 38.5 7t42.5 9q49 12 72 21q2 0 30.5 10t43.5 16l43 -41v-727q106 88 215 136q101 43 178 43q37 0 84 -15q39 -12 69.5 -43t49 -80t18.5 -118 v-572q0 -6 6 -12q8 -8 23 -15q6 -2 19.5 -7t21.5 -7q27 -10 63 -18v-74h-503v74q78 20 102 32q29 14 29 27v440q0 61 -7 101q-6 35 -20 61q-14 25 -35 33q-25 10 -51 10q-57 0 -119 -37q-76 -45 -143 -102v-506q0 -14 35 -31q25 -10 98 -28v-74h-506z" />
<glyph unicode="i" horiz-adv-x="614" d="M63 0v74q72 16 101 30q31 14 31 29v514v84q0 31 -13 49q-10 14 -39 25q-14 4 -80 12v72q104 14 162 29q80 18 146 43h63v-828q0 -10 31 -29q25 -14 102 -30v-74h-504zM168 1221q0 34 12 61q10 25 37 47q20 18 53 31q25 10 66 10q27 0 51 -6q20 -4 43 -21q18 -12 31 -32 q12 -22 12 -49q0 -37 -12 -64q-8 -18 -37 -47q-16 -16 -53 -31q-27 -10 -66 -10q-29 0 -53 6q-27 6 -43 21q-20 16 -30.5 34.5t-10.5 49.5z" />
<glyph unicode="j" horiz-adv-x="589" d="M-289 -401q0 12 23 39q29 35 49 51q4 4 57 45q31 25 43 28q10 -14 39 -34q27 -18 47 -27q33 -12 49.5 -16t40.5 -4q27 0 50 14q27 16 43 53q20 43 28 111q10 78 10 184v604q0 18 -1 46t-1 36q0 31 -12 49.5t-39 26.5q-14 4 -80 12v72q20 2 57 8l36 6q49 8 73 15 q10 4 33 10t35 10l71 23h68v-855q0 -119 -20 -194q-23 -86 -54 -135q-34 -55 -73 -92q-53 -49 -80 -70q-37 -29 -60 -41q-45 -25 -67.5 -35t-67.5 -22q-37 -10 -61 -11q-35 0 -82 11q-41 8 -76 24q-34 15 -55 31q-23 17 -23 27zM166 1221q0 34 12 61q10 25 37 47 q20 18 53 31q27 10 66 10q27 0 51 -6q23 -6 45 -21q16 -10 29 -32q12 -22 12 -49q0 -37 -12 -64q-10 -23 -35 -47q-16 -16 -53 -31q-27 -10 -68 -10q-27 0 -51 6q-29 8 -45 21q-20 16 -30.5 34.5t-10.5 49.5z" />
<glyph unicode="k" horiz-adv-x="1128" d="M47 0v74l39 10t37 10t24 8q33 12 33 31v1133q0 39 -4 71q-3 25 -18 37q-16 14 -41 17q-8 2 -33 5t-37 5v69q141 23 180 31q82 18 150 49l43 -41v-974l262 233q34 31 43 49q8 16 2 27q-4 6 -27 10q-14 2 -45 2v74h447v-74q-49 -6 -88 -20q-41 -14 -86 -48l-305 -231 l360 -407q20 -20 29 -27q16 -12 30 -14q25 -4 39 -5q31 0 49 2l7 -73q-61 -14 -66 -15q-37 -8 -72 -14l-61 -10q-37 -4 -39 -4q-43 0 -70 12q-29 12 -51 41l-358 473v-383q0 -4 4 -12q4 -10 14 -15q4 -2 33 -14q8 -4 28.5 -9t30.5 -9v-74h-483z" />
<glyph unicode="l" horiz-adv-x="614" d="M53 0v74q14 2 70 14q20 4 45 14q12 6 20 17q6 8 7 14v1133q0 53 -5 69q-6 29 -20 39q-16 14 -39 17q-8 2 -30.5 5l-37.5 5v69q18 2 50 7.5l43 7.5q29 4 82 16t77 21q8 2 76 28l43 -41v-1376q0 -6 8.5 -14t22.5 -17q12 -6 45 -14q57 -12 68 -14v-74h-525z" />
<glyph unicode="m" horiz-adv-x="1726" d="M47 0v74q74 20 100 30q33 12 33 29v555q0 49 -2 64q-4 25 -16 37t-39 18q-8 2 -76 10v72l94 12q33 4 80 17l72 18q12 4 36.5 13l32.5 12l44 -43l10 -123q20 18 104 79q45 33 88 52q51 23 80 26q49 8 76 9q47 0 84 -13q43 -14 63 -33q29 -25 41 -47q16 -31 23 -59l4 -14 q59 53 102 79q59 37 93 52q51 23 79 26q49 8 74 9q41 0 92 -15q41 -12 76 -43q33 -29 51 -80q18 -49 19 -118v-572q0 -14 30 -27q23 -8 111 -32v-74h-498v74q51 12 60 16q14 6 35 16q14 8 18 15q4 8 4 12v469q0 61 -6 98q-6 39 -18.5 57.5t-32.5 24.5q-23 6 -47 6 q-45 0 -105 -30q-61 -33 -123 -94v-531q0 -8 4 -12q10 -10 19 -15q4 -2 9 -4t14.5 -5l15.5 -5q27 -10 63 -18v-74h-481v74q45 12 57 16q29 12 37 16q4 2 17 15q6 6 6 12v469q0 61 -6 98q-8 43 -17 58q-12 18 -29 24q-18 6 -47 6q-45 0 -102 -30q-63 -33 -133 -94v-531 q0 -15 31 -31q25 -12 94 -28v-74h-498z" />
<glyph unicode="n" horiz-adv-x="1189" d="M47 0v74q74 20 100 30q33 12 33 29v555q0 14 -1 35.5t-1 28.5q0 23 -12 34q-14 14 -39 21q-8 2 -80 10v72q14 2 44 5t46 5q33 4 80 16q49 12 74 21q63 20 71 25l44 -43l10 -144q113 98 219 144q101 43 178 43q37 0 84 -15q39 -12 69.5 -43t49 -80t18.5 -118v-572 q0 -6 6 -12q8 -8 23 -15q6 -2 19.5 -7t21.5 -7q27 -10 63 -18v-74h-503v74q78 20 102 32q29 14 29 27v455q0 55 -7 92q-6 41 -16 57q-12 23 -33 31q-25 10 -49 10q-23 0 -51 -6q-18 -4 -59 -22q-29 -12 -72 -43q-33 -23 -88 -68v-506q0 -14 35 -31q25 -10 98 -28v-74h-506z " />
<glyph unicode="o" horiz-adv-x="1073" d="M66 444q0 100 36 193q39 96 101 164q66 72 157 117q89 43 197 43q102 0 186 -37q90 -41 144 -99q63 -70 92 -151q31 -86 31 -189q0 -68 -19 -131q-20 -72 -49 -121q-35 -61 -78 -106q-49 -53 -100 -84q-59 -35 -117 -53q-68 -20 -129 -21q-104 0 -186 37q-90 41 -144 98 q-53 59 -90 152q-32 84 -32 188zM317 473q0 -80 19 -147q16 -63 51 -121q29 -49 72 -80t88 -31q55 0 100 25q41 23 66 65q27 45 35 109q10 72 10 147q0 74 -17 150q-14 70 -46.5 127t-71.5 86q-45 33 -95 33q-61 0 -102 -29q-43 -29 -66 -76q-25 -47 -32 -115 q-11 -75 -11 -143z" />
<glyph unicode="p" horiz-adv-x="1144" d="M47 -408q70 16 100 31q33 14 33 33v1032q0 29 -4 62q-4 25 -14 38q-12 14 -39 21q-23 4 -76 8v72q55 6 100 12q29 4 78 17l68 18q31 8 69 25l44 -43l8 -123q59 53 102 79q59 37 90 52q47 23 74 26q45 8 63 9q66 0 129 -29q66 -29 109 -84t72 -143q27 -82 26 -205 q0 -74 -16 -131q-20 -74 -47 -123q-35 -66 -70 -109q-47 -59 -82 -88q-41 -35 -88 -57q-49 -23 -86 -23q-27 0 -57 6q-12 2 -62 21q-27 10 -69 35q-41 23 -82 53v-428q0 -16 37 -33q37 -14 133 -31v-71h-543v71zM420 227q52 -31 92 -49q39 -18 68 -26q20 -6 53 -10.5 t49 -4.5q35 0 69.5 20.5t55.5 55.5q25 41 35 90q12 55 12 123q0 109 -18 166q-25 76 -54 113q-33 43 -75 63q-45 23 -84 23q-10 0 -35 -5q-16 -2 -41 -16q-18 -10 -53 -35q-37 -27 -74 -57v-451z" />
<glyph unicode="q" horiz-adv-x="1122" d="M66 444q0 92 20 156q20 68 57 123q35 55 74 90q39 37 76 59q37 25 59 35q45 20 68 29q34 12 67 18t64 7q20 0 57 -5q25 -2 56 -16q41 -18 61 -33q35 -25 68 -57q33 16 51 27q14 10 29.5 18l23.5 12l43 31q29 20 31 23l39 -37q-10 -35 -17 -70q-8 -37 -10 -74 q-4 -53 -4 -86v-1038q0 -10 4 -16q4 -4 22.5 -16.5t38.5 -16.5q41 -10 66 -15v-71h-543v71q96 16 133 31q37 16 37 33v481q-49 -49 -84 -76q-49 -37 -78 -53q-35 -18 -77 -28q-45 -10 -88 -11q-61 0 -121 33q-63 35 -111 94q-53 68 -82 150q-30 89 -30 198zM305 506 q0 -84 19 -150q18 -61 51 -108q33 -45 69 -66q41 -23 80 -22q53 0 105 28q55 31 108 82v430q-20 31 -41 52q-16 16 -53 41q-27 16 -57 26q-27 8 -58 8q-49 0 -88 -18q-43 -20 -71.5 -57t-46.5 -101q-17 -55 -17 -145z" />
<glyph unicode="r" horiz-adv-x="907" d="M47 0v74q133 31 133 59v531q0 41 -2 55q-3 22 -6 37q-2 10 -6 22q-2 4 -5 7t-3 6q-10 10 -15 12q-12 6 -20 8q-16 4 -29 4q-29 0 -47 2v72q23 4 56.5 8t39.5 6q53 8 76 15l68 18q29 8 75 25l44 -43l12 -146q28 40 61 74q39 39 72 59q45 29 82 41q41 14 84 15 q37 0 80 -12.5t77 -33.5q6 -3 7 -24q0 -12 -4 -53q-4 -35 -13 -70q-4 -12 -8 -36.5t-8 -37.5q-4 -14 -11.5 -36.5l-9.5 -28.5q-12 -41 -16 -49h-74q-2 39 -12 75q-6 25 -23 62q-10 25 -32 43q-16 14 -43 14q-20 0 -45 -6q-23 -6 -50 -29q-27 -25 -53 -61q-29 -41 -59 -107 v-438q0 -16 41 -31q33 -12 137 -28v-74h-551z" />
<glyph unicode="s" horiz-adv-x="856" d="M78 156q0 29 4 94q2 39 14 86l82 -10q8 -47 33 -97q18 -37 55 -73q33 -33 72 -47q43 -16 82 -17q70 0 106 27q35 25 35 86q0 43 -20 71q-27 37 -53.5 59.5t-77.5 51.5l-88 47q-12 6 -84 47q-35 20 -74 56q-31 29 -55 69q-20 35 -21 86q0 63 31 113q33 51 80 84 q51 35 114.5 53.5t130.5 18.5q45 0 88 -7q29 -4 82 -16q49 -12 74 -23q41 -18 57 -32q4 -6 2 -33t-12 -64q-6 -25 -22 -69q-14 -37 -25 -51l-70 8q-25 88 -71 135q-45 45 -113 45q-59 0 -92 -27q-35 -29 -35 -69q0 -31 17 -58q16 -29 45 -47q31 -22 73 -43l95 -51l88 -47 q47 -27 77 -57q41 -41 58 -74q23 -45 22 -98q0 -70 -22 -121q-25 -55 -55 -86q-33 -33 -78 -56q-35 -18 -88 -32q-37 -10 -84 -15q-53 -4 -70 -4q-8 0 -20.5 1t-26.5 3t-23 2q-35 2 -75 13q-47 10 -78 22q-39 14 -72 33q-8 4 -10 35q-2 23 -2 78z" />
<glyph unicode="t" horiz-adv-x="757" d="M4 842l80 88h72v209l200 149l39 -33v-325h305l35 -35q-6 -12 -22 -37l-27 -35l-27 -32q-6 -8 -24 -21q-12 6 -31 12q-6 2 -20.5 5.5t-20.5 5.5q-25 8 -49 10q-16 2 -51 2h-68v-467q0 -51 6 -88q6 -41 17 -57q12 -20 28 -31q14 -8 33 -8q27 0 39 2q18 3 43 12q49 18 57 22 l74 37l43 -71q-145 -104 -223 -142q-96 -45 -145 -45q-39 0 -82 17q-37 14 -68 51q-27 31 -45 86q-16 47 -16 121v561h-121z" />
<glyph unicode="u" horiz-adv-x="1150" d="M35 831v70q33 2 90 10q12 2 38.5 5.5l41.5 5.5q31 4 76 16q8 2 79 23l35 -48v-571q0 -47 8 -100q6 -39 23 -62q14 -20 35 -28q18 -8 51 -9q29 0 45 4q18 4 53 19q14 6 64 37q37 23 76 59v426q0 55 -2 74q-2 20 -19 41q-12 14 -39 20q-23 4 -72 8v70q94 8 181 25 q70 12 153 35l37 -48v-628q0 -10 1 -27.5t1 -24.5q0 -18 4 -34.5t6 -22.5l13 -12q10 -8 33 -4q10 2 71 26l27 -73q-25 -16 -82 -49t-86 -48q-43 -23 -74 -32q-39 -14 -45 -15q-14 0 -35 8q-15 6 -30 25q-10 12 -25 51q-12 35 -18 82q-47 -43 -111 -86q-33 -23 -90 -49 q-39 -18 -76 -25q-35 -6 -65 -6q-39 0 -93 15q-41 10 -79 47q-39 35 -59.5 94t-20.5 154v409q0 18 -1 43t-1 33q0 27 -12.5 39t-37.5 18q-8 2 -69 10z" />
<glyph unicode="v" horiz-adv-x="1038" d="M12 856v74h455v-74q-55 -8 -61 -10q-29 -8 -35 -12q-10 -6 -11 -19q0 -6 9 -27l215 -501l200 501q6 14 6.5 26.5t-6.5 16.5q-16 10 -26 15q-4 2 -53 10v74h321v-74q-27 -4 -47 -12q-16 -6 -27 -13q-8 -4 -16 -18q-6 -9 -12 -25l-283 -706q-10 -20 -27 -39 q-16 -16 -42.5 -32.5t-51.5 -24.5q-43 -14 -51 -17l-352 819q-12 29 -33 43q-15 11 -72 25z" />
<glyph unicode="w" horiz-adv-x="1468" d="M12 856v74h455v-74q-61 -8 -68 -10q-27 -6 -34 -15q-10 -10 -11 -18q0 -12 2 -18l150 -471l239 606h76l252 -606l144 471q4 16 4 20q0 10 -9 16q-14 10 -28 15q-4 2 -54 10v74h324v-74q-25 -6 -45 -12q-12 -4 -29 -13q-8 -4 -16 -16q-4 -8 -8 -20l-221 -736 q-6 -25 -25 -39q-16 -14 -41 -24t-45 -16q-6 -2 -18.5 -5.5t-16.5 -5.5l-254 586l-203 -496q-10 -27 -26 -39q-25 -20 -39 -26q-18 -8 -41 -14q-6 -2 -18.5 -5.5t-16.5 -5.5l-268 826q-6 20 -33 34q-23 13 -78 27z" />
<glyph unicode="x" horiz-adv-x="1067" d="M12 0v74q45 8 64 14q33 12 45 21q18 12 33 26q8 8 24 29l232 297l-224 309q-4 8 -15 19.5t-11 13.5q-10 12 -31 26q-18 12 -43 19q-18 4 -61 8v74h493v-74q-31 -3 -49 -6q-18 -4 -26.5 -14.5t-2.5 -24.5q8 -18 23 -39l112 -156l121 156q18 27 25 39q6 14 -2 25 q-8 12 -25 14q-14 2 -51 6v74h381v-74q-47 -4 -68 -8q-28 -6 -49 -19q-18 -10 -35 -26q-8 -8 -28 -33l-197 -254l254 -352l25 -31q6 -8 30.5 -24.5t40.5 -22.5q25 -10 58 -12v-74h-494v74q8 0 23.5 1t23.5 3q18 2 31 12q10 8 10 25q0 12 -20 43l-148 202l-157 -202 q-20 -23 -21 -43q0 -12 14 -23q12 -8 35 -12q14 -2 47 -6v-74h-387z" />
<glyph unicode="y" horiz-adv-x="1038" d="M-61 -426q0 12 16 35q0 2 15.5 23.5t25.5 31.5q6 6 21.5 25.5t25.5 29.5q23 23 43 35q53 -33 100 -39q20 -3 37 -2q29 0 49 8q35 12 80 57.5t78 129.5l29 69l-334 811q-12 28 -37 43q-14 10 -76 25v74h455v-74q-55 -8 -61 -10q-18 -6 -29 -12q-8 -6 -8 -19q0 -6 8 -27 l205 -501l196 501q8 20 8 27q0 10 -6 16q-8 8 -26 15q-4 2 -54 10v74h326v-74q-27 -4 -47 -12q-25 -8 -33 -12.5t-18 -18.5q-2 -2 -10 -25l-334 -864q-37 -96 -95 -188q-45 -72 -104 -129q-51 -49 -119 -76q-61 -25 -125 -25q-25 0 -73 9q-33 6 -66 16q-27 8 -47 23 q-16 10 -16 20z" />
<glyph unicode="z" horiz-adv-x="958" d="M61 45l529 766h-260q-41 0 -82 -51t-66 -160l-69 21l24 325l39 -10q25 -4 39 -4q6 0 19.5 -1t21.5 -1h616l23 -43l-530 -766h342q20 0 32 14q12 16 25 45q6 18 22 72l12.5 47.5l12.5 48.5l72 -16q0 -6 -1 -23.5t-1 -27.5v-64q0 -12 -1 -32.5t-1 -33t-1 -33t-1 -30.5 t-1.5 -28.5t-1.5 -24.5q0 -18 -4 -35h-784z" />
<glyph unicode="{" horiz-adv-x="716" d="M86 647q113 31 164 86q51 53 51 129q0 55 -6 96q-2 14 -7 41l-7 37.5t-7.5 37t-7.5 40.5q-6 41 -6 96q0 63 31 123q31 57 82 107q41 39 125 86q71 40 153 73l41 -75q-78 -49 -127 -115q-49 -65 -49 -141q0 -55 6 -94q2 -14 7.5 -41t7.5 -37.5l7 -38t7 -41.5q6 -40 6 -92 q0 -47 -14 -84q-16 -43 -41 -76q-31 -39 -62 -64q-43 -33 -78 -47q102 -18 148 -88q47 -72 47 -180q0 -53 -6 -100q-2 -16 -7 -46l-7 -42q-2 -16 -7.5 -44t-7.5 -40q-6 -39 -6 -84q0 -41 6 -76q6 -33 24.5 -63.5t51.5 -57.5q37 -31 84 -55l-37 -92q-78 29 -164 69 q-70 33 -121 78q-53 45 -75 98q-25 55 -25 127q0 51 6 95q2 16 7.5 43.5t7.5 40.5q2 10 7 39.5t7 46.5q6 43 6 100q0 80 -35 114.5t-98 34.5h-21h-12q-2 0 -5 -1t-5 -1t-23 -4z" />
<glyph unicode="|" horiz-adv-x="468" d="M166 -375v1989q23 14 61 33l66 22l43 -29v-1986q0 -2 -27 -16q-6 -4 -18 -9.5t-17 -7.5q-12 -6 -36 -14q-6 -2 -15.5 -7.5t-13.5 -5.5z" />
<glyph unicode="}" horiz-adv-x="716" d="M25 -238q78 49 127 115q49 65 49 141q0 52 -6 93q-2 12 -7.5 38.5t-7.5 40.5l-12 78q-6 39 -6 94q0 45 14 82q16 41 39 76q20 33 64 64q43 33 77 47q-100 18 -147 87.5t-47 180.5q0 55 6 100l12 88q2 16 7.5 44t7.5 40q6 41 6 84t-6.5 76t-24.5 63.5t-51 57.5 q-37 31 -84 55l39 92q96 -35 162 -69q80 -41 120 -78q53 -45 76 -98q25 -55 25 -125q0 -53 -6 -96q-2 -14 -7.5 -42t-7.5 -42l-12 -86q-6 -43 -6 -101q0 -80 35 -114q33 -33 98 -33h18h13q2 0 6 1t6 1l20 4l19 -84q-113 -31 -164 -86q-51 -53 -51 -129q0 -57 6 -96 q4 -27 12 -76l7.5 -37t7.5 -41q6 -41 6 -96q0 -70 -31 -125q-33 -57 -82 -104.5t-123 -88.5q-66 -37 -155 -73z" />
<glyph unicode="~" horiz-adv-x="997" d="M49 502q27 61 53 102q41 63 72 96q41 43 84 70q47 29 94 29q45 0 94 -25q53 -27 97 -55q46 -31 92 -55.5t86 -24.5q49 0 90 39q45 41 86 121l53 -25q-20 -47 -53 -102q-31 -51 -72 -97q-41 -43 -84 -69q-47 -29 -94 -29q-45 0 -90 25q-39 20 -94 55q-43 27 -96 55 q-47 25 -91 25q-49 0 -90 -39q-39 -37 -84 -123z" />
<glyph unicode="&#xa1;" horiz-adv-x="632" d="M147 791q0 43 15 71q16 35 39 53q23 20 57 33q33 12 72 13q18 0 55 -9q25 -6 47 -24q18 -14 31 -41q10 -20 10 -61.5t-14 -69.5q-18 -37 -39 -56q-27 -23 -59.5 -35t-69.5 -12q-31 0 -53 9q-27 10 -48 24q-14 10 -30 43q-13 25 -13 62zM166 -530l78 1038q14 12 49 22 q4 2 24.5 7.5t30.5 9.5l29 -21l78 -975l-56 -28l-67 -33l-30.5 -15.5t-35.5 -15.5q-8 -2 -19 -7t-18.5 -8t-13.5 -5z" />
<glyph unicode="&#xa2;" horiz-adv-x="1034" d="M88 586q0 82 31 168q27 74 82 139t128.5 106t168.5 64v135q8 4 14 9t10 7l17 13q10 6 20 10l25 8l34 -28v-140q4 0 8.5 1t8.5 1h16q33 0 76 -6q29 -4 86 -16q41 -8 76 -25q33 -16 51 -33q2 -10 -6 -41q-2 -8 -23 -63q-16 -45 -26 -66q-15 -31 -25 -43l-63 17q-2 2 -25 35 q-14 23 -35 41q-20 20 -51 39q-23 12 -68 24v-666q20 0 58 9q27 6 57 24q37 23 68 45q41 31 84 74l61 -70q-57 -63 -94 -98q-49 -45 -82 -65.5t-78 -38.5q-33 -14 -74 -21v-129q-12 -10 -40 -26q-14 -8 -48 -21l-32 33v137q-61 6 -142 39q-74 31 -133 90q-61 61 -96 139 q-39 89 -39 189zM309 616q0 -72 15 -120q18 -59 38.5 -94t59.5 -66q35 -29 76 -43v647q-41 -10 -72 -33q-39 -29 -59 -61q-31 -51 -43 -96q-15 -56 -15 -134z" />
<glyph unicode="&#xa3;" horiz-adv-x="1034" d="M43 555q0 2 2 8t4 10q4 12 10 25q2 6 4.5 12t6.5 13q2 4 5 9t5 9h98q-2 125 31 242q31 111 92 186q66 82 150 123q90 43 200 43q37 0 60 -2q18 -2 69 -10q25 -4 82 -21q41 -12 88 -37q0 -16 -2 -43q0 -16 -4 -57q-2 -20 -6 -66l-5 -31.5t-3 -29.5q-2 -10 -6 -28.5 t-4 -24.5l-9 -37h-75q-16 129 -68 194q-55 72 -145 72q-10 0 -43 -4q-23 -2 -48 -20q-23 -16 -43 -45t-32 -84q-14 -57 -17 -130q-4 -80 6 -190h281l33 -29l-39 -92h-264q2 -113 -27 -211q-29 -96 -82 -170q61 4 78 4q12 0 31.5 1t28 1t24.5 -1t22 -1q8 0 22.5 -1t21 -1 t22.5 -1t27 -1h63q43 0 80 11q39 10 59 28q25 20 45 58q20 35 43 96l72 -25q-2 -25 -10 -92q-4 -33 -12 -90q-2 -16 -8.5 -44t-6.5 -32q-2 -14 -6 -32l-4 -17q-49 -27 -113 -29q-57 -2 -145 4q-72 6 -162 19q-57 8 -164 16q-68 6 -149 -2q-68 -6 -121 -39l-37 74 q20 16 53 45q12 10 41 49q10 14 27 58q10 27 16 77q6 47 6.5 106.5t-6.5 141.5h-114z" />
<glyph unicode="&#xa4;" horiz-adv-x="1034" d="M100 266l140 140q-33 45 -47 92q-14 45 -15 100q0 59 14.5 104.5t47.5 94.5l-140 141l2 43l17.5 9l21.5 11q6 2 20.5 10.5t22.5 10.5l140 -141q94 66 196 65q47 0 101 -16q47 -14 92 -47l139 137l43 2l39 -86l-137 -137q37 -55 49 -97q14 -49 14 -104t-14.5 -100 t-46.5 -95l137 -137l2 -45l-86 -39l-137 137q-39 -29 -94 -45q-45 -14 -101 -14q-57 0 -102 14q-49 14 -96 48l-140 -140l-43 2q-12 25 -20 39zM301 600q0 -37 16 -80q14 -41 48 -71q34 -34 73 -50q37 -14 82 -14t82 14q41 16 72 50q31 31 47 71q16 43 16 82t-16 82 q-16 41 -49 74t-72 47q-37 14 -80 14q-45 0 -82 -14q-41 -14 -71 -47q-35 -33 -50 -74q-16 -43 -16 -84z" />
<glyph unicode="&#xa5;" horiz-adv-x="1034" d="M-82 1186q29 4 68 8q53 8 77 10l72 6q45 4 55 4q28 0 56 -12q25 -10 45 -35q49 -66 71 -100q34 -52 68 -111l68 -122q68 -131 69 -136l193 367q16 25 -10 41q-25 16 -101 24v74h418v-74q-70 -12 -100 -26q-33 -14 -47 -39l-285 -539v-18h266l27 -23l-37 -98h-256v-242 q0 -2 8 -14q6 -9 25 -18q29 -14 49 -21q29 -8 78 -18v-74h-566v74q37 8 74 18q31 9 49.5 18.5t24.5 18.5q8 12 8 16v242h-289l-20 25q2 4 6 20q4 12 8 27q2 4 5 14t5 14l4 11.5t5 9.5h276v20q-34 77 -74 154l-80 147q-41 72 -77 129l-74 107q-6 8 -19 20q-8 8 -26 15 q-23 8 -43 10q-16 2 -70 2z" />
<glyph unicode="&#xa6;" horiz-adv-x="468" d="M160 -377v858q20 12 33 19q29 14 34.5 16t18 7t18.5 7l33 11l45 -31v-856q-4 -4 -28.5 -16.5t-39 -18.5t-38.5 -14l-31 -11zM160 745v869q25 16 67 33q18 8 70 22l45 -29v-866q-4 -4 -29 -16q-6 -4 -20 -9.5l-19 -7.5q-37 -16 -38 -16l-31 -8z" />
<glyph unicode="&#xa7;" horiz-adv-x="1024" d="M104 778q0 37 13 70q16 45 28.5 65.5t44.5 57.5q20 25 58 49q-41 41 -58 72q-23 41 -22 86q0 66 29 110q31 49 82 84q47 33 112 51q57 16 133 17q43 0 86 -6q57 -8 84 -15q31 -6 74 -26q41 -18 55 -31q8 -6 4 -35q-2 -10 -14 -63q-10 -43 -20 -70q-14 -37 -25 -51l-70 8 q-25 90 -71.5 137t-114.5 47q-57 0 -92 -24q-33 -25 -33 -72q0 -33 19 -57q25 -31 51 -49q55 -35 78 -48l44.5 -22t59.5 -31q33 -16 98 -57q51 -33 92 -76q41 -45 66 -98q25 -55 25 -131q0 -88 -31 -152q-29 -61 -80 -108q25 -31 37 -60q14 -31 14 -71q0 -70 -22 -121 q-25 -55 -56 -86q-29 -29 -77 -54q-29 -14 -87 -30q-37 -10 -86 -15q-53 -4 -67 -4q-33 0 -70 6q-57 10 -78 15q-47 10 -77 22q-33 12 -70 33q-4 2 -8 18q-6 31 -6 41v54q0 43 2 63l6 62q0 10 12 55l80 -10q12 -51 34.5 -96.5t53.5 -75.5q27 -27 72 -47q39 -18 84 -19 q74 0 106.5 24.5t32.5 86.5q0 43 -22.5 71.5t-61.5 57.5q-14 12 -86 49l-92 47q-37 18 -96 59q-53 37 -88 74q-39 43 -64 96q-25 55 -25 123zM317 827q0 -39 17 -75q14 -33 49 -64q31 -29 84 -61l59.5 -34l59.5 -34q23 -10 45 -22q33 -16 47 -25q8 12 20 43q8 23 9 49 q0 49 -17 88q-14 35 -51 72q-35 35 -84 63l-125 72l-16.5 8l-16.5 8l-32 21q-16 -16 -33 -53q-15 -33 -15 -56z" />
<glyph unicode="&#xa8;" horiz-adv-x="800" d="M51 1212q0 39 12 70q12 29 35 55.5t52 38.5q27 12 59 13q57 0 86 -29q31 -31 31 -92q0 -39 -13 -70q-12 -33 -32 -55q-16 -18 -50 -37q-27 -14 -61 -14q-57 0 -88 30.5t-31 89.5zM473 1212q0 33 14 70q12 29 35 55q25 29 49 39q27 12 60 13q57 0 86 -29q33 -33 33 -92 q0 -39 -13 -70q-12 -29 -35 -55q-16 -18 -49 -37q-27 -14 -61 -14q-57 0 -88 30.5t-31 89.5z" />
<glyph unicode="&#xa9;" horiz-adv-x="1495" d="M86 666q0 144 49 270q49 125 137 219t209 149.5t267 55.5q96 0 182 -25q84 -25 160 -71q80 -51 133 -109q59 -66 100 -139q45 -80 66 -166q23 -94 22.5 -184.5t-22.5 -184.5q-20 -86 -65.5 -165.5t-100.5 -141.5q-53 -57 -133 -108q-72 -45 -160 -70q-94 -27 -182.5 -27 t-182.5 27q-88 25 -159 70q-80 51 -134 108q-55 61 -100 141t-66 166q-20 85 -20 185zM205 665.5q0 -120.5 39 -223.5q41 -109 114 -184q74 -77 172 -123q96 -45 217 -45t220 45q96 43 172 123q70 74 112 184q41 106 41 223t-41 224q-41 109 -112 182q-76 80 -172 123 q-98 45 -219 45t-218 -45q-98 -46 -172 -123q-76 -78 -114 -182q-39 -103 -39 -223.5zM360 639q0 90 35 176q31 76 99 143q59 59 145 96.5t184 37.5q34 0 68 -7q29 -4 65 -16q20 -6 58 -25q29 -14 41 -26q2 -2 -6 -39q-6 -33 -19 -66q-16 -45 -24 -65q-10 -29 -23 -43l-53 8 q-4 12 -25 66q-10 25 -33 55q-14 20 -45 39q-23 14 -61 14q-45 0 -78 -16q-43 -20 -67 -58q-33 -47 -46 -98q-16 -66 -16 -145q0 -68 23 -125q20 -53 55 -94q27 -33 78 -58q41 -20 88 -20q31 0 45 2q20 2 45 12t57 29q31 18 74 49q2 -2 6 -8q2 -4 7 -9.5t10 -9.5 q6 -6 14 -18l6 -8q-52 -58 -98 -93q-53 -39 -86 -53q-51 -23 -80 -26q-41 -6 -78 -7q-68 0 -135 29q-65 28 -117 80q-49 49 -82 127q-31 74 -31 170z" />
<glyph unicode="&#xaa;" horiz-adv-x="563" d="M43 840q0 27 10 61q8 27 33 55q18 20 59 45q29 16 88 31l105 23v12q0 10 -1 27.5t-1 25.5q0 18 -8 39q-6 12 -21 25q-10 8 -39 8q-12 0 -28 -4q-14 -4 -22.5 -12.5t-12.5 -22.5t2 -33q0 -4 -19 -10q-37 -12 -45 -14q-6 -2 -15 -5.5t-17.5 -5.5t-16.5 -2q-29 -4 -31 -2 l-10 27q12 33 41 61q27 27 66 50q33 20 80 32q35 10 84 11q39 0 63 -9q29 -10 45 -28q18 -20 27 -54q10 -37 10 -88v-196q0 -33 2 -41q2 -10 10 -19q6 -2 17 0q31 8 41 13l12 -39q-49 -33 -90 -53q-45 -23 -76 -23q-14 0 -26.5 18.5t-18.5 67.5q-49 -49 -96 -68 q-46 -18 -80 -18q-22 0 -43 6q-14 4 -39 21q-14 10 -29 34q-10 19 -10 54zM43 586v88h479v-88h-479zM178 879q0 -16 6 -28.5t13 -19.5q8 -8 14 -10q12 -4 16 -4q14 0 47 12q27 10 64 41v131l-51 -10q-51 -12 -80 -40.5t-29 -71.5z" />
<glyph unicode="&#xab;" horiz-adv-x="1052" d="M66 430v35v24q0 4 1 10l1 5l397 424l55 -45l-8 -19q-8 -18 -23 -47l-32 -67l-37 -76l-37 -76l-33 -68l-22 -45l-6 -18l200 -420l-57 -45zM473 430v35v24q0 4 1 10l1 5l395 424l58 -45l-8 -19q-8 -18 -23 -47l-33 -67l-37 -76l-36 -76l-33 -68l-23 -45l-8 -18l203 -420 l-60 -45z" />
<glyph unicode="&#xac;" horiz-adv-x="1034" d="M76 522q0 2 3 11.5l5 15.5q2 4 6 14l6 15q6 16 13 30q6 15 12 25h794l35 -29v-371q-9 -9 -24 -18q-6 -4 -10.5 -6t-9.5 -5t-11 -7l-16.5 -10.5t-16.5 -8.5q-10 -6 -26 -10l-33 33v291h-694z" />
<glyph unicode="&#xad;" horiz-adv-x="727" d="M53 471q4 16 8 27q2 6 6.5 16t6.5 16l8 16.5t6 14.5q10 23 10 25h543l35 -31q-2 -8 -10 -29q-2 -6 -6.5 -16t-6.5 -16l-8 -16.5t-6 -14.5q-2 -4 -5 -12.5t-5 -10.5h-543z" />
<glyph unicode="&#xae;" horiz-adv-x="729" d="M20 1083.5q0 75.5 25 141.5q23 61 74 114q49 53 108 78q68 29 137.5 29t137.5 -29q63 -27 110 -78t72 -114q27 -70 27 -142q0 -70 -27 -139q-25 -63 -72 -114.5t-110 -77.5q-68 -29 -137.5 -29t-137.5 29q-59 25 -108 77q-51 53 -74 115q-25 64 -25 139.5zM92 1083 q0 -61 21 -110q23 -53 57 -92q37 -40 86 -62q51 -23 108.5 -22.5t108.5 22.5q49 22 86 62q35 39 57 92q20 49 21 110q0 63 -21 113q-20 51 -57 90q-37 40 -86 62q-51 23 -108.5 22.5t-108.5 -22.5q-49 -22 -86 -62q-37 -39 -57 -90q-21 -50 -21 -113zM205 1278q33 8 67 10 q49 4 80 4q43 0 74 -6q29 -6 51 -20q20 -12 29 -31q8 -16 8 -39q0 -94 -98 -121l94 -137q6 -10 16 -14q9 -3 31 0l2 -25q-6 -2 -22 -6q-4 0 -13.5 -2t-13.5 -4t-12.5 -2t-12.5 -2q-8 -2 -16 -2t-16 4q-10 4 -13 10l-88 172h-8h-12q-2 0 -6 1t-7 1v-143q0 -4 6.5 -8.5 t30.5 -10.5v-22h-149v22q41 10 41 19v323q-12 -4 -21 -4q-6 0 -10 -1t-8 -1zM319 1110h11h10q53 0 72 18q20 20 20 60q0 27 -22 49q-18 18 -68 18h-12h-11v-145z" />
<glyph unicode="&#xaf;" horiz-adv-x="1009" d="M80 1206q6 25 8 31q4 12 16 37q4 10 9.5 19.5t9.5 17.5q2 6 6 14l6 12h764l33 -30q-2 -4 -6 -13.5t-6 -15.5q-2 -4 -17 -39l-16 -37q-8 -18 -13 -26h-763z" />
<glyph unicode="&#xb0;" horiz-adv-x="731" d="M115 942q0 66 26 129q25 57 68 100q41 41 94 66t107 25q47 0 81.5 -16.5t65.5 -47.5t45 -68q16 -43 16 -79q0 -72 -26 -127q-29 -61 -68 -101q-43 -43 -96 -67q-51 -25 -102 -25q-46 0 -86 19q-39 18 -66 45q-28 28 -43 67q-16 43 -16 80zM266 997q0 -23 6.5 -45 t18.5 -40.5t28.5 -29t36.5 -10.5q25 0 41 9q20 10 35 24q15 15 25 37q10 25 10 53q0 25 -6 47.5t-19 40.5q-10 16 -28 27q-16 10 -37 10q-23 0 -41.5 -8t-34.5 -25q-14 -14 -24.5 -38.5t-10.5 -51.5z" />
<glyph unicode="&#xb1;" horiz-adv-x="839" d="M53 143l8 25q2 4 6.5 16.5t6.5 16.5l8 16t6 14q10 23 10 25h678l35 -33q0 -2 -10 -26q-2 -4 -6 -16.5t-7 -16.5l-8 -16.5t-6 -14.5t-5 -12l-5 -10h-678zM53 651q4 16 8 27l13 31l8 16t6 14q10 23 10 25h262v268l25 8q14 4 30.5 10.5t33.5 10.5q14 6 24 8l33 -31v-274h270 l35 -31q0 -2 -10 -26l-13 -33l-8 -16.5t-6 -14.5q-2 -4 -5 -12t-5 -10h-258v-267q-2 -2 -25 -10l-30 -12q-20 -8 -30.5 -10.5l-27.5 -6.5l-33 31v275h-274z" />
<glyph unicode="&#xb2;" horiz-adv-x="710" d="M55 664q170 172 201 206q53 57 117 140q39 49 57 94q14 35 14 70q0 53 -20 79q-23 29 -72 29t-69 -33q-20 -31 -11 -78q-10 -6 -34 -12q-8 -2 -23.5 -5t-24.5 -5q-12 -2 -25 -5t-26 -5q-6 0 -20.5 -3t-20.5 -3l-24 41q0 27 26 63q25 35 70 61q41 25 106 45q59 18 125 19 q51 0 99 -10q43 -10 75 -29q27 -16 50 -49q16 -25 16 -66q0 -29 -6 -53q-4 -16 -25 -53q-18 -35 -43 -64q-37 -45 -69 -77l-97 -101l-133 -125h252q22 0 37 19q12 14 23 39q8 25 12 59l59 -12l-10 -219h-565z" />
<glyph unicode="&#xb3;" horiz-adv-x="710" d="M51 702l29 74q72 -43 115 -59q51 -18 106 -19q63 0 102 37t39 103q0 39 -12 65q-10 25 -31 41q-18 16 -45 23q-25 6 -47 6h-14q-2 0 -6 -1t-6 -1h-13q-2 0 -8 -1t-10 -1l-12 63q53 10 92 33q39 20 51 39q16 23 18 41q4 29 4 39q0 41 -18 69.5t-61 28.5q-16 0 -33 -6 t-27 -21q-9 -12 -12 -30q-2 -14 4 -37q-10 -6 -35 -14q-12 -4 -41 -13q-27 -8 -45 -10q-29 -4 -41 -4l-22 37q0 27 20.5 55.5t61.5 56.5q43 31 92 47q53 18 119 19q59 0 108 -16q51 -16 74 -37q33 -31 43 -54q12 -31 12 -61q0 -18 -10 -45q-10 -25 -27 -45 q-18 -20 -44.5 -38.5t-59.5 -27.5q39 -2 78 -20q35 -16 57 -41q23 -27 35 -59.5t12 -67.5q0 -53 -25 -96q-29 -51 -63 -78q-49 -39 -102 -55q-58 -18 -129 -19q-29 0 -64 6q-31 6 -70 19q-31 10 -71 30q-31 14 -68 45z" />
<glyph unicode="&#xb4;" horiz-adv-x="651" d="M203 1083l211 428q12 0 45 -6q33 -4 69 -10q25 -4 70 -12q37 -6 43 -8l31 -56l-383 -379q-8 0 -21 7q-4 2 -13 6t-13 6q-16 8 -23 12q-12 8 -16 12z" />
<glyph unicode="&#xb5;" horiz-adv-x="1163" d="M45 823v72q111 12 166 23q80 16 151 43l7 -7q2 -2 5 -6t7 -8l16 -16q2 -2 5.5 -7.5t5.5 -7.5v-528q0 -39 16 -82q15 -40 37 -68q23 -29 51.5 -45t48.5 -16q10 0 39 4q22 3 43 19q37 25 51 40q41 41 64 72v443q0 10 -4 38q-4 33 -9 45q-8 29 -12 41q-6 16 -12 27 q14 2 29.5 6t29.5 6q45 8 68 15q12 2 24.5 5l21.5 5t24 6q34 9 61 19l35 -48q-2 -4 -3 -13t-1 -13q-2 -6 -3 -16.5t-1 -16.5q-2 -6 -3.5 -19.5t-1.5 -21.5q-4 -33 -4 -53v-461q0 -57 2 -78q4 -33 9 -47q6 -18 12 -24.5t16 -6.5q25 0 45 7q10 2 54 22l24 -76q-28 -22 -67 -43 q-10 -4 -24.5 -13t-27 -15.5l-24.5 -12.5q-43 -20 -76 -30q-37 -12 -61 -13q-27 0 -48 15q-16 12 -34 41q-14 23 -25 61q-9 34 -12 74q-74 -100 -137.5 -145.5t-124.5 -45.5q-43 0 -99 37q-53 35 -102 100v-20q0 -98 14 -168q16 -80 39 -135q25 -61 53 -105q33 -49 62 -77 q-2 -2 -19.5 -7.5t-31.5 -11.5l-78 -31l-76 -30q-12 -6 -27.5 -12.5t-19.5 -8.5l-45 35v1159q0 14 -1 35t-1 27q0 25 -12 37q-16 16 -35 20q-4 0 -74 10z" />
<glyph unicode="&#xb6;" horiz-adv-x="1239" d="M35 903q0 88 35 156q37 70 102 123q63 51 158 80q96 29 209 28q6 0 24.5 -1t32.5 -1q27 -2 80 -4q14 -2 45 -3t47 -1q16 -2 48 -2t48 -2l124 -8t116 -8h63v-72q-72 -16 -102 -33q-35 -18 -35 -31v-1239q0 -12 33 -30q27 -14 104 -31v-74h-686v74q82 18 105 31 q35 18 35 30l2 639q-25 -4 -39 -4q-6 0 -22.5 -1t-26.5 -1q-98 0 -199 27q-88 25 -158 73q-68 49 -104 119q-39 74 -39 166zM299 938q0 -57 14.5 -108.5t51.5 -98.5q33 -41 86 -69.5t127 -28.5h45v541q-8 0 -19.5 1t-17.5 1h-29q-45 0 -94 -17q-45 -14 -84 -47t-59.5 -74 t-20.5 -100zM786 -115q0 -12 15 -20q8 -4 24 -10q16 4 27 10q14 8 14 20v1258q-27 6 -80 14v-1272z" />
<glyph unicode="&#xb7;" horiz-adv-x="417" d="M51 674q0 41 15 69q14 31 38 52q20 18 58 32q31 12 67 13q18 0 52 -9q27 -6 45 -22q18 -14 30 -41q12 -25 13 -59q0 -41 -15 -70q-16 -33 -37 -51q-23 -20 -57 -33q-29 -10 -67 -10q-31 0 -56 6q-23 6 -45 24q-16 12 -29 39q-12 25 -12 60z" />
<glyph unicode="&#xb8;" horiz-adv-x="468" d="M55 -373q88 12 125 43t37 61.5t-22 47.5q-22 15 -68 18l2 4q6 6 14 27q2 6 5.5 15.5l8.5 23.5t9 24q23 63 41 123l123 -2l-39 -100q78 -16 121 -49q43 -34 43 -92q0 -37 -29 -72q-33 -41 -74 -64q-59 -35 -114 -51q-57 -18 -146 -28z" />
<glyph unicode="&#xb9;" horiz-adv-x="710" d="M86 1266q41 8 82 18q27 6 53.5 14.5t48.5 14.5q10 4 46 13t55 15l73 25l31 -25v-608q0 -6 6 -12q10 -8 25 -14q35 -12 49 -15q34 -6 86 -12v-59h-532v59q57 6 90 12q14 2 55 15q16 4 27 14q8 8 8 12v422q0 31 -2 39q-2 10 -13 20q-3 3 -12 7q-6 2 -29 2q-8 0 -49 -4 q-33 -4 -78 -13z" />
<glyph unicode="&#xba;" horiz-adv-x="573" d="M35 981q0 49 20 104q16 45 54 89q35 41 84 65.5t106 24.5t98 -21q51 -25 76 -55q31 -37 49.5 -84t18.5 -100q0 -51 -23 -103q-23 -49 -57 -88q-37 -39 -84 -63q-49 -25 -101 -25q-53 0 -100 20q-45 18 -76 54q-29 33 -49 82q-16 41 -16 100zM45 586v88h485v-88h-485z M170 1006q0 -37 10 -82q8 -37 29 -68q20 -33 39 -47q18 -16 47 -16q59 0 84 51q25 53 24 135q0 47 -8 82q-10 45 -22.5 69.5t-38.5 47.5q-23 18 -53.5 18t-51 -14.5t-32.5 -38.5q-16 -33 -21 -60q-6 -36 -6 -77z" />
<glyph unicode="&#xbb;" horiz-adv-x="1052" d="M125 883l57 45l400 -426l-2 -74l-398 -426l-55 45l199 418zM532 47l201 418l-201 418l60 45l397 -426l-2 -74l-395 -426z" />
<glyph unicode="&#xbc;" horiz-adv-x="1273" d="M72 1153q2 0 63 14q6 2 80 23q43 12 82 24q43 14 57 21l27 -21v-491q0 -8 4 -12q2 -2 23 -11q15 -6 43 -12q20 -4 69 -8v-43h-432v43q53 4 74 8q31 6 47 12q18 6 22 11q8 8 9 12v348q0 6 -1 17.5t-1 13.5q0 10 -9 16q-3 3 -12 6q-6 2 -24 2q-10 0 -43 -4q-8 0 -64 -10z M154 0l888 1202q2 0 11.5 4t15.5 6q4 0 16.5 3.5t18.5 5.5l37 8q12 2 28 6l25 -29l-885 -1204q-14 -8 -28 -10q-4 0 -16.5 -3t-18.5 -5l-37 -7q-8 -2 -18.5 -5t-12.5 -3zM705 178l274 381q4 2 11 5t18 5l34 11q10 2 18.5 5t16.5 5q6 2 29 8l24 -20v-349h72l17 -14 q-8 -10 -29 -31q-12 -12 -29 -24h-31v-94q0 -6 17 -13q20 -8 61 -16v-37h-329v37q10 2 30.5 5t28.5 5q10 2 37 8q14 4 18 8.5t4 8.5v88h-270zM817 229h180v240z" />
<glyph unicode="&#xbd;" horiz-adv-x="1273" d="M72 1153q2 0 63 14q6 2 80 23q43 12 82 24q43 14 57 21l27 -21v-491q0 -8 4 -12q2 -2 23 -11q15 -6 43 -12q20 -4 69 -8v-43h-432v43q53 4 74 8q31 6 47 12q18 6 22 11q8 8 9 12v348q0 6 -1 17.5t-1 13.5q0 10 -9 16q-3 3 -12 6q-6 2 -24 2q-10 0 -43 -4q-8 0 -64 -10z M154 0l888 1202q2 0 11.5 4t15.5 6q4 0 16.5 3.5t18.5 5.5l37 8q12 2 28 6l25 -29l-885 -1204q-14 -8 -28 -10q-4 0 -16.5 -3t-18.5 -5l-37 -7q-8 -2 -18.5 -5t-12.5 -3zM725 37l162 164q51 51 100 112q39 47 51 74q14 29 15 57q0 39 -21 66q-18 25 -65 25q-27 0 -41 -9 q-16 -10 -25 -20q-12 -16 -14 -31q-2 -12 2 -35q-6 -4 -27 -8q-4 0 -16 -4t-19 -6l-36 -6q-25 -4 -31 -4l-21 30q0 23 23 52q25 31 55 49q39 23 84 37t103 14q90 0 143 -31q51 -31 51 -92q0 -29 -16 -65q-10 -25 -54 -74q-41 -49 -98 -103l-151 -143h223q18 0 31 14 q12 16 18 33q4 16 8 47l47 -10l-8 -170h-457z" />
<glyph unicode="&#xbe;" horiz-adv-x="1273" d="M53 705l25 47q59 -35 94 -45q49 -14 84 -15q20 0 49 8q25 6 41 21q20 18 29 35q10 25 10 53q0 34 -12 55q-14 27 -31 37q-18 12 -40.5 18.5t-39.5 6.5h-12h-10l-4 -1q-4 -1 -6.5 -1t-6.5 -1t-8 -1l-8 45q51 12 76 26q33 18 45 31q8 8 18 33q6 16 6 33q0 35 -16 57 q-20 27 -62 27q-14 0 -26 -7q-8 -4 -21 -16q-6 -8 -10 -23q-4 -16 2 -30q-16 -8 -61 -21q-35 -8 -70 -12l-18 31q0 18 18 43q14 18 49 43q25 16 74 35q41 14 96 14q53 0 90 -12q39 -12 60 -29q27 -20 35 -43q10 -27 10 -49q0 -16 -10 -37q-12 -25 -23 -37q-6 -8 -39 -31 q-18 -14 -49 -20q33 -2 63 -17q27 -12 48 -32q18 -18 30 -47q12 -28 13 -56q0 -35 -21 -76q-18 -37 -51 -63q-35 -29 -82 -43q-45 -14 -107 -14q-33 0 -51 4q-37 8 -57.5 14t-56.5 27q-44 25 -56 35zM154 0l888 1202q2 0 11.5 4t15.5 6q4 0 16.5 3.5t18.5 5.5l37 8 q12 2 28 6l25 -29l-885 -1204q-14 -8 -28 -10q-4 0 -16.5 -3t-18.5 -5l-37 -7q-8 -2 -18.5 -5t-12.5 -3zM705 178l274 381q4 2 11 5t18 5l34 11q10 2 18.5 5t16.5 5q6 2 29 8l24 -20v-349h72l17 -14q-8 -10 -29 -31q-12 -12 -29 -24h-31v-94q0 -6 17 -13q20 -8 61 -16v-37 h-329v37q10 2 30.5 5t28.5 5q10 2 37 8q14 4 18 8.5t4 8.5v88h-270zM817 229h180v240z" />
<glyph unicode="&#xbf;" horiz-adv-x="931" d="M66 -246q0 76 24.5 137.5t65.5 114.5q53 70 84 103q59 63 86 96q40 49 67 98q31 53 33 109l6 96q18 15 43 24q8 4 27.5 9.5t27.5 7.5l31 -29l8 -108q2 -55 -12 -111q-14 -53 -43 -106q-37 -70 -59 -103q-16 -23 -60 -100q-33 -59 -47 -96q-18 -49 -18 -97q0 -125 39 -182 q41 -59 108 -59q25 0 49 14q23 12 41 35q20 23 29 55q10 37 10 72q0 8 -4 33q-4 20 -8 32q16 10 45 19l68 18q23 6 67 14q53 10 57 11l33 -39q2 -6 2 -25v-22q0 -72 -36.5 -133.5t-100.5 -106.5q-61 -45 -147 -70q-82 -25 -174 -24q-80 0 -148 22q-63 20 -106 64 q-45 45 -66 100q-22 61 -22 127zM324 791q0 43 14 71q16 31 41 53q23 20 57.5 33t71.5 13q18 0 55 -9q16 -4 45 -24q18 -14 33 -41q10 -20 10 -61.5t-14 -69.5q-16 -35 -41 -56q-27 -25 -57 -34q-35 -12 -70 -13q-33 0 -55.5 8.5t-44.5 24.5q-18 12 -33 43q-12 25 -12 62z " />
<glyph unicode="&#xc0;" horiz-adv-x="1286" d="M0 0v74q68 12 104 24q39 12 48 43l348 1065q12 12 51 37q29 18 57 31q6 2 27.5 11t32.5 13l55 19l420 -1176q6 -18 12 -24q10 -12 23 -21q8 -4 34.5 -12t53.5 -10v-74h-498v74q86 6 106 18q29 16 17 49l-103 289h-397l-94 -289q-8 -31 22 -45q29 -12 117 -22v-74h-436z M432 551h316l-166 465zM287 1593l10 63q6 8 29 25l49 33l51 30l18.5 12.5t16.5 10.5l364 -348q-2 -2 -12 -15.5t-16 -19.5q-18 -18 -31 -25z" />
<glyph unicode="&#xc1;" horiz-adv-x="1286" d="M0 0v74q68 12 104 24q39 12 48 43l348 1065q12 12 51 37q29 18 57 31q6 2 27.5 11t32.5 13l55 19l420 -1176q6 -18 12 -24q10 -12 23 -21q8 -4 34.5 -12t53.5 -10v-74h-498v74q86 6 106 18q29 16 17 49l-103 289h-397l-94 -289q-8 -31 22 -45q29 -12 117 -22v-74h-436z M432 551h316l-166 465zM433 1427l364 340l51 -29q29 -16 54 -33q4 -2 21 -12t26 -16q14 -10 26 -23l11 -53l-486 -242q-20 10 -35 27q-6 8 -17 21.5t-15 19.5z" />
<glyph unicode="&#xc2;" horiz-adv-x="1286" d="M0 0v74q68 12 104 24q39 12 48 43l348 1065q12 12 51 37q29 18 57 31q6 2 27.5 11t32.5 13l55 19l420 -1176q6 -18 12 -24q10 -12 23 -21q8 -4 34.5 -12t53.5 -10v-74h-498v74q86 6 106 18q29 16 17 49l-103 289h-397l-94 -289q-8 -31 22 -45q29 -12 117 -22v-74h-436z M432 551h316l-166 465zM293 1419l279 323h122l277 -323q-16 -25 -27 -35q-18 -18 -30 -25l-281 162l-281 -162q-12 6 -30 25l-9.5 10t-10.5 13.5t-9 11.5z" />
<glyph unicode="&#xc3;" horiz-adv-x="1286" d="M0 0v74q68 12 104 24q39 12 48 43l348 1065q12 12 51 37q29 18 57 31q6 2 27.5 11t32.5 13l55 19l420 -1176q6 -18 12 -24q10 -12 23 -21q8 -4 34.5 -12t53.5 -10v-74h-498v74q86 6 106 18q29 16 17 49l-103 289h-397l-94 -289q-8 -31 22 -45q29 -12 117 -22v-74h-436z M432 551h316l-166 465zM239 1394l45 90q27 53 58 92q35 45 73 72q41 29 86 29q43 0 88 -17q14 -6 78 -36q37 -20 72 -37q37 -16 65 -17q43 0 78 29q34 28 68 86l78 -29l-45 -90q-20 -39 -60 -90q-35 -43 -71 -70q-41 -29 -89 -28q-39 0 -81 16q-27 10 -76 35l-74 37 q-39 16 -74 16q-16 0 -41 -8q-18 -6 -34 -22q-27 -27 -33 -35q-31 -43 -35 -49z" />
<glyph unicode="&#xc4;" horiz-adv-x="1286" d="M0 0v74q68 12 104 24q39 12 48 43l348 1065q12 12 51 37q29 18 57 31q6 2 27.5 11t32.5 13l55 19l420 -1176q6 -18 12 -24q10 -12 23 -21q8 -4 34.5 -12t53.5 -10v-74h-498v74q86 6 106 18q29 16 17 49l-103 289h-397l-94 -289q-8 -31 22 -45q29 -12 117 -22v-74h-436z M432 551h316l-166 465zM285 1493q0 37 12 67q12 33 35 57q20 23 51 37q33 14 57 15q57 0 88 -31t31 -90q0 -39 -12 -70q-12 -33 -32.5 -55.5t-49.5 -38.5q-27 -14 -61 -14q-57 0 -88 31t-31 92zM709 1493q0 37 12 67q12 33 35 57q22 25 49 37q33 14 59 15q57 0 88 -31 t31 -90q0 -39 -12 -70q-12 -29 -35 -55q-20 -23 -49 -39q-27 -14 -62 -14q-57 0 -88 30q-28 30 -28 93z" />
<glyph unicode="&#xc5;" horiz-adv-x="1286" d="M0 0v74q68 12 104 24q39 12 48 43l348 1065q12 12 51 37q29 18 57 31q6 2 27.5 11t32.5 13l55 19l420 -1176q6 -18 12 -24q10 -12 23 -21q8 -4 34.5 -12t53.5 -10v-74h-498v74q86 6 106 18q29 16 17 49l-103 289h-397l-94 -289q-8 -31 22 -45q29 -12 117 -22v-74h-436z M432 551h316l-166 465zM424 1523q0 57 20 101q23 49 54 81q33 37 76 58q37 18 92 18q37 0 71 -12q37 -14 58 -37q25 -27 35 -57q12 -33 12 -72q0 -57 -21 -100q-25 -53 -53 -82q-31 -31 -76 -53q-41 -20 -90 -21q-39 0 -71 12q-27 10 -56 35q-25 22 -37 55q-14 39 -14 74z M559 1564q0 -49 21 -71q20 -25 45 -25q41 0 61.5 26.5t20.5 67.5q0 51 -21 74q-22 25 -43 24q-20 0 -35 -8q-18 -10 -26 -22q-10 -14 -17 -31q-6 -19 -6 -35z" />
<glyph unicode="&#xc6;" horiz-adv-x="1654" d="M0 0v74q70 10 96 22q37 16 49 45l390 963q4 14 2 26q-4 12 -23 23q-10 6 -51 16q-37 10 -82 19v72h1124l37 -31q-2 -8 -3 -30.5t-1 -35.5q-2 -27 -10 -80t-12.5 -77.5t-14.5 -55.5h-74q-6 92 -24.5 141.5t-56.5 49.5h-336v-406h397l35 -35q-8 -14 -21 -32 q-4 -6 -12 -19.5t-12 -19.5q-6 -10 -14.5 -19.5t-12.5 -15.5l-20 -25q-16 16 -35 25q-37 16 -39 16l-35 11q-6 1 -12 3q-3 1 -4 1h-215v-441q0 -14 6 -26q4 -10 31 -21q20 -8 63 -12q53 -4 107 -4h94q51 0 80 10q35 12 57 35q27 27 47 65q14 29 41 99l74 -27q-4 -43 -11 -90 l-12 -90q-2 -10 -5 -37t-5 -39q-2 -10 -5 -26.5t-3 -20.5h-944v74q66 14 100.5 30.5t34.5 28.5v492h-256l-197 -484q-12 -29 12 -45q20 -12 97 -22v-74h-416zM547 735h213v383q0 8 -8 17q-2 2 -17 2q-6 0 -20.5 -10.5t-18.5 -24.5z" />
<glyph unicode="&#xc7;" horiz-adv-x="1142" d="M55 586q0 162 49.5 291t135.5 221q90 96 200 143q117 49 250 49q61 0 109 -8q35 -6 100 -22q47 -12 88 -31q45 -20 66 -39q2 -2 -2 -19q-2 -12 -13 -34q-6 -14 -22 -47q-8 -16 -24.5 -45t-24.5 -41q-12 -18 -21 -27l-63 14q-51 86 -117 127q-63 39 -143 39q-41 0 -72 -10 q-39 -12 -72 -37q-35 -25 -65 -66q-31 -40 -56 -98q-25 -57 -36 -139q-14 -94 -15 -184q0 -125 35 -219.5t86 -151.5q55 -61 121 -88q70 -29 133 -29q27 0 63 6q31 6 80 23q43 15 93 43q49 27 102 72q2 -2 6 -7q4 -6 6 -8q8 -8 15 -20q8 -10 14 -21q4 -6 10 -12 q-61 -61 -127 -111q-68 -51 -123 -75q-68 -31 -119 -41l-36 -7l-25 -65q78 -16 121 -49q43 -34 43 -92q0 -37 -29 -72q-33 -41 -74 -64q-59 -35 -114 -51q-57 -18 -146 -28l-36 71q88 12 124.5 43t36.5 61.5t-22 47.5q-20 14 -68 18l4 4l2 4q2 4 4 10.5t5 12.5q12 27 24 63 l27 80q-74 6 -154 41q-100 45 -170 121q-72 78 -119 193q-45 110 -45 260z" />
<glyph unicode="&#xc8;" horiz-adv-x="1075" d="M43 0v74q70 16 102 30q35 16 35 29v991q0 12 -33 31q-31 16 -104 33v72h881l41 -31q-2 -23 -7 -66q-2 -27 -10 -80t-12 -77q-6 -37 -12 -56h-76q-6 100 -25 142q-20 49 -57 49h-336v-406h397l33 -35q-2 -4 -8 -15t-10 -17l-25 -37q-8 -12 -24 -33q-12 -15 -25 -25 q-18 18 -31 25q-31 16 -41 18q-27 8 -53 11q-20 2 -72 2h-141v-445q0 -14 6 -26q4 -10 31 -21q22 -9 61 -12q53 -4 107 -4h98q49 0 78 10q35 12 57 35q25 27 47 65q14 29 41 99l72 -27q-4 -61 -8 -90q-2 -14 -5 -45t-5 -45q-6 -39 -13 -76q-2 -12 -6 -28.5t-4 -18.5h-944z M189 1593l10 63q6 8 29 25l49 33l51 30l18.5 12.5t16.5 10.5l364 -348q-2 -2 -12 -15.5t-16 -19.5q-18 -18 -31 -25z" />
<glyph unicode="&#xc9;" horiz-adv-x="1075" d="M43 0v74q70 16 102 30q35 16 35 29v991q0 12 -33 31q-31 16 -104 33v72h881l41 -31q-2 -23 -7 -66q-2 -27 -10 -80t-12 -77q-6 -37 -12 -56h-76q-6 100 -25 142q-20 49 -57 49h-336v-406h397l33 -35q-2 -4 -8 -15t-10 -17l-25 -37q-8 -12 -24 -33q-12 -15 -25 -25 q-18 18 -31 25q-31 16 -41 18q-27 8 -53 11q-20 2 -72 2h-141v-445q0 -14 6 -26q4 -10 31 -21q22 -9 61 -12q53 -4 107 -4h98q49 0 78 10q35 12 57 35q25 27 47 65q14 29 41 99l72 -27q-4 -61 -8 -90q-2 -14 -5 -45t-5 -45q-6 -39 -13 -76q-2 -12 -6 -28.5t-4 -18.5h-944z M336 1427l364 340l51 -29q29 -16 54 -33q4 -2 21 -12t26 -16q14 -10 26 -23l11 -53l-486 -242q-20 10 -35 27q-6 8 -17 21.5t-15 19.5z" />
<glyph unicode="&#xca;" horiz-adv-x="1075" d="M43 0v74q70 16 102 30q35 16 35 29v991q0 12 -33 31q-31 16 -104 33v72h881l41 -31q-2 -23 -7 -66q-2 -27 -10 -80t-12 -77q-6 -37 -12 -56h-76q-6 100 -25 142q-20 49 -57 49h-336v-406h397l33 -35q-2 -4 -8 -15t-10 -17l-25 -37q-8 -12 -24 -33q-12 -15 -25 -25 q-18 18 -31 25q-31 16 -41 18q-27 8 -53 11q-20 2 -72 2h-141v-445q0 -14 6 -26q4 -10 31 -21q22 -9 61 -12q53 -4 107 -4h98q49 0 78 10q35 12 57 35q25 27 47 65q14 29 41 99l72 -27q-4 -61 -8 -90q-2 -14 -5 -45t-5 -45q-6 -39 -13 -76q-2 -12 -6 -28.5t-4 -18.5h-944z M197 1419l279 323h122l277 -323q-16 -25 -27 -35q-18 -18 -30 -25l-281 162l-281 -162q-12 6 -30 25l-9.5 10t-10.5 13.5t-9 11.5z" />
<glyph unicode="&#xcb;" horiz-adv-x="1075" d="M43 0v74q70 16 102 30q35 16 35 29v991q0 12 -33 31q-31 16 -104 33v72h881l41 -31q-2 -23 -7 -66q-2 -27 -10 -80t-12 -77q-6 -37 -12 -56h-76q-6 100 -25 142q-20 49 -57 49h-336v-406h397l33 -35q-2 -4 -8 -15t-10 -17l-25 -37q-8 -12 -24 -33q-12 -15 -25 -25 q-18 18 -31 25q-31 16 -41 18q-27 8 -53 11q-20 2 -72 2h-141v-445q0 -14 6 -26q4 -10 31 -21q22 -9 61 -12q53 -4 107 -4h98q49 0 78 10q35 12 57 35q25 27 47 65q14 29 41 99l72 -27q-4 -61 -8 -90q-2 -14 -5 -45t-5 -45q-6 -39 -13 -76q-2 -12 -6 -28.5t-4 -18.5h-944z M187 1493q0 37 12 67q12 33 35 57q20 23 51 37q33 14 57 15q57 0 88 -31t31 -90q0 -39 -12 -70q-12 -33 -32.5 -55.5t-49.5 -38.5q-27 -14 -61 -14q-57 0 -88 31t-31 92zM611 1493q0 37 12 67q12 33 35 57q22 25 49 37q33 14 59 15q57 0 88 -31t31 -90q0 -39 -12 -70 q-12 -29 -35 -55q-20 -23 -49 -39q-27 -14 -62 -14q-57 0 -88 30q-28 30 -28 93z" />
<glyph unicode="&#xcc;" horiz-adv-x="669" d="M63 0v74q70 16 103 30q35 16 35 29v991q0 12 -33 31q-31 16 -105 33v72h525v-72q-72 -16 -103 -33q-35 -18 -34 -31v-991q0 -10 32 -29q25 -14 105 -30v-74h-525zM-22 1593l10 63q6 8 29 25l49 33l51 30l18.5 12.5t16.5 10.5l364 -348q-2 -2 -12 -15.5t-16 -19.5 q-18 -18 -31 -25z" />
<glyph unicode="&#xcd;" horiz-adv-x="669" d="M63 0v74q70 16 103 30q35 16 35 29v991q0 12 -33 31q-31 16 -105 33v72h525v-72q-72 -16 -103 -33q-35 -18 -34 -31v-991q0 -10 32 -29q25 -14 105 -30v-74h-525zM125 1427l364 340l51 -29q29 -16 54 -33q4 -2 21 -12t26 -16q14 -10 26 -23l11 -53l-486 -242 q-20 10 -35 27q-6 8 -17 21.5t-15 19.5z" />
<glyph unicode="&#xce;" horiz-adv-x="669" d="M63 0v74q70 16 103 30q35 16 35 29v991q0 12 -33 31q-31 16 -105 33v72h525v-72q-72 -16 -103 -33q-35 -18 -34 -31v-991q0 -10 32 -29q25 -14 105 -30v-74h-525zM-14 1419l279 323h122l277 -323q-16 -25 -27 -35q-18 -18 -30 -25l-281 162l-281 -162q-12 6 -30 25 l-9.5 10t-10.5 13.5t-9 11.5z" />
<glyph unicode="&#xcf;" horiz-adv-x="669" d="M63 0v74q70 16 103 30q35 16 35 29v991q0 12 -33 31q-31 16 -105 33v72h525v-72q-72 -16 -103 -33q-35 -18 -34 -31v-991q0 -10 32 -29q25 -14 105 -30v-74h-525zM-24 1493q0 37 12 67q12 33 35 57q20 23 51 37q33 14 57 15q57 0 88 -31t31 -90q0 -39 -12 -70 q-12 -33 -32.5 -55.5t-49.5 -38.5q-27 -14 -61 -14q-57 0 -88 31t-31 92zM400 1493q0 37 12 67q12 33 35 57q22 25 49 37q33 14 59 15q57 0 88 -31t31 -90q0 -39 -12 -70q-12 -29 -35 -55q-20 -23 -49 -39q-27 -14 -62 -14q-57 0 -88 30q-28 30 -28 93z" />
<glyph unicode="&#xd0;" horiz-adv-x="1302" d="M29 639q2 4 6 20q4 12 8 27q2 8 5 16.5t5 12.5q2 6 5 11t3 9h119v422l-137 -18l-12 92q18 4 116 22q14 2 142 19q96 12 149 14q98 4 140 4q160 0 274 -41q121 -43 201 -121q82 -80 125 -192.5t43 -259.5q0 -125 -25 -223q-23 -90 -70 -174q-41 -76 -102 -129 q-57 -51 -127 -87q-59 -31 -139 -47q-76 -16 -140 -16h-575v74q70 16 102 30q35 16 35 29v481h-131zM430 168q0 -10 2 -14q4 -14 10 -21q8 -8 27 -14q14 -4 43 -8q37 -4 70 -5q29 0 80 15q41 12 86 41q41 27 77 69q39 45 66 103q27 55 45 133q16 68 16 170q0 131 -28 235 q-27 96 -86 172q-51 66 -140 105q-78 35 -192 35h-37q-6 0 -18.5 -1t-20.5 -1v-447h242l24 -22l-37 -99h-229v-446z" />
<glyph unicode="&#xd1;" horiz-adv-x="1357" d="M43 0v74q76 10 104 26q33 20 33 33v981q-63 61 -137 74v72h279q18 0 24 -3q14 -4 21 -10q4 -4 20 -24l8 -11.5t9.5 -11.5t13.5 -18l612 -848v790q0 6 -6 14.5t-23 18.5q-10 6 -40 17q-23 8 -68 14v72h426v-72q-66 -8 -107 -31q-33 -18 -32 -33v-1155q-98 10 -154 39 q-61 33 -86 66l-610 846v-787q0 -2 8 -14q4 -4 22 -17q2 0 43 -16q10 -4 66 -12v-74h-426zM287 1394l45 90q27 53 58 92q35 45 73 72q41 29 86 29q43 0 88 -17q14 -6 78 -36q37 -20 72 -37q37 -16 65 -17q43 0 78 29q34 28 68 86l78 -29l-45 -90q-20 -39 -60 -90 q-35 -43 -71 -70q-41 -29 -89 -28q-39 0 -81 16q-27 10 -76 35l-74 37q-39 16 -74 16q-16 0 -41 -8q-18 -6 -34 -22q-27 -27 -33 -35q-31 -43 -35 -49z" />
<glyph unicode="&#xd2;" horiz-adv-x="1273" d="M55 612q0 129 45 258q45 127 123 217q80 92 190.5 147.5t241.5 55.5q132 0 234 -55q104 -57 170 -143q72 -94 104 -207q35 -121 35 -238q0 -86 -22 -176q-20 -80 -62 -160q-43 -82 -94 -139q-53 -59 -123 -106q-68 -45 -141 -70q-84 -27 -158 -27q-125 0 -227 54 q-94 49 -170 143q-74 92 -109 205q-37 116 -37 241zM307 641q0 -117 27 -211q29 -100 72 -170q43 -68 106 -113q61 -43 129 -43q63 0 123 33q53 31 96 99q43 70 64 163q23 102 22 230q0 104 -24 198q-27 100 -70 170q-49 80 -109 119q-63 43 -139 43t-127 -35 q-59 -41 -94 -102q-37 -68 -55 -162q-21 -106 -21 -219zM291 1593l10 63q6 8 29 25l49 33l51 30l18.5 12.5t16.5 10.5l364 -348q-2 -2 -12 -15.5t-16 -19.5q-18 -18 -31 -25z" />
<glyph unicode="&#xd3;" horiz-adv-x="1273" d="M55 612q0 129 45 258q45 127 123 217q80 92 190.5 147.5t241.5 55.5q132 0 234 -55q104 -57 170 -143q72 -94 104 -207q35 -121 35 -238q0 -86 -22 -176q-20 -80 -62 -160q-43 -82 -94 -139q-53 -59 -123 -106q-68 -45 -141 -70q-84 -27 -158 -27q-125 0 -227 54 q-94 49 -170 143q-74 92 -109 205q-37 116 -37 241zM307 641q0 -117 27 -211q29 -100 72 -170q43 -68 106 -113q61 -43 129 -43q63 0 123 33q53 31 96 99q43 70 64 163q23 102 22 230q0 104 -24 198q-27 100 -70 170q-49 80 -109 119q-63 43 -139 43t-127 -35 q-59 -41 -94 -102q-37 -68 -55 -162q-21 -106 -21 -219zM439 1427l364 340l51 -29q29 -16 54 -33q4 -2 21 -12t26 -16q14 -10 26 -23l11 -53l-486 -242q-20 10 -35 27q-6 8 -17 21.5t-15 19.5z" />
<glyph unicode="&#xd4;" horiz-adv-x="1273" d="M55 612q0 129 45 258q45 127 123 217q80 92 190.5 147.5t241.5 55.5q132 0 234 -55q104 -57 170 -143q72 -94 104 -207q35 -121 35 -238q0 -86 -22 -176q-20 -80 -62 -160q-43 -82 -94 -139q-53 -59 -123 -106q-68 -45 -141 -70q-84 -27 -158 -27q-125 0 -227 54 q-94 49 -170 143q-74 92 -109 205q-37 116 -37 241zM307 641q0 -117 27 -211q29 -100 72 -170q43 -68 106 -113q61 -43 129 -43q63 0 123 33q53 31 96 99q43 70 64 163q23 102 22 230q0 104 -24 198q-27 100 -70 170q-49 80 -109 119q-63 43 -139 43t-127 -35 q-59 -41 -94 -102q-37 -68 -55 -162q-21 -106 -21 -219zM297 1419l279 323h122l277 -323q-16 -25 -27 -35q-18 -18 -30 -25l-281 162l-281 -162q-12 6 -30 25l-9.5 10t-10.5 13.5t-9 11.5z" />
<glyph unicode="&#xd5;" horiz-adv-x="1273" d="M55 612q0 129 45 258q45 127 123 217q80 92 190.5 147.5t241.5 55.5q132 0 234 -55q104 -57 170 -143q72 -94 104 -207q35 -121 35 -238q0 -86 -22 -176q-20 -80 -62 -160q-43 -82 -94 -139q-53 -59 -123 -106q-68 -45 -141 -70q-84 -27 -158 -27q-125 0 -227 54 q-94 49 -170 143q-74 92 -109 205q-37 116 -37 241zM307 641q0 -117 27 -211q29 -100 72 -170q43 -68 106 -113q61 -43 129 -43q63 0 123 33q53 31 96 99q43 70 64 163q23 102 22 230q0 104 -24 198q-27 100 -70 170q-49 80 -109 119q-63 43 -139 43t-127 -35 q-59 -41 -94 -102q-37 -68 -55 -162q-21 -106 -21 -219zM244 1394l45 90q27 53 58 92q35 45 73 72q41 29 86 29q43 0 88 -17q14 -6 78 -36q37 -20 72 -37q37 -16 65 -17q43 0 78 29q34 28 68 86l78 -29l-45 -90q-20 -39 -60 -90q-35 -43 -71 -70q-41 -29 -89 -28 q-39 0 -81 16q-27 10 -76 35l-74 37q-39 16 -74 16q-16 0 -41 -8q-18 -6 -34 -22q-27 -27 -33 -35q-31 -43 -35 -49z" />
<glyph unicode="&#xd6;" horiz-adv-x="1273" d="M55 612q0 129 45 258q45 127 123 217q80 92 190.5 147.5t241.5 55.5q132 0 234 -55q104 -57 170 -143q72 -94 104 -207q35 -121 35 -238q0 -86 -22 -176q-20 -80 -62 -160q-43 -82 -94 -139q-53 -59 -123 -106q-68 -45 -141 -70q-84 -27 -158 -27q-125 0 -227 54 q-94 49 -170 143q-74 92 -109 205q-37 116 -37 241zM307 641q0 -117 27 -211q29 -100 72 -170q43 -68 106 -113q61 -43 129 -43q63 0 123 33q53 31 96 99q43 70 64 163q23 102 22 230q0 104 -24 198q-27 100 -70 170q-49 80 -109 119q-63 43 -139 43t-127 -35 q-59 -41 -94 -102q-37 -68 -55 -162q-21 -106 -21 -219zM289 1493q0 37 12 67q12 33 35 57q20 23 51 37q33 14 57 15q57 0 88 -31t31 -90q0 -39 -12 -70q-12 -33 -32.5 -55.5t-49.5 -38.5q-27 -14 -61 -14q-57 0 -88 31t-31 92zM713 1493q0 37 12 67q12 33 35 57 q22 25 49 37q33 14 59 15q57 0 88 -31t31 -90q0 -39 -12 -70q-12 -29 -35 -55q-20 -23 -49 -39q-27 -14 -62 -14q-57 0 -88 30q-28 30 -28 93z" />
<glyph unicode="&#xd7;" horiz-adv-x="862" d="M84 281v34l246 248l-246 248v33q6 2 27 10q8 2 15 6t17 8q25 8 35 13q25 10 27 10l225 -227l225 227q4 -2 14.5 -5t14.5 -5q6 -2 17.5 -6.5t17.5 -6.5q8 -2 20.5 -8t14.5 -6q4 -2 12 -5t12 -5v-33l-246 -250l246 -246v-34l-26 -11q-6 -2 -15.5 -6l-19.5 -8l-35 -12 l-25 -8l-227 227l-225 -227l-25 8q-16 6 -35 12q-10 4 -19 8t-15 6z" />
<glyph unicode="&#xd8;" horiz-adv-x="1273" d="M55 612q0 129 45 258q45 127 123 217q80 92 190.5 147.5t241.5 55.5q86 0 160 -24q70 -23 133 -68l47 66q8 6 35 16q10 4 45 14q41 12 45 13q22 3 37 6l33 -37l-133 -182q66 -86 104 -207q37 -117 37 -240q0 -86 -22 -176q-20 -80 -62 -160q-43 -82 -94 -139 q-53 -59 -123 -106q-68 -45 -141 -70q-84 -27 -158 -27q-84 0 -158 25q-76 25 -135 69l-47 -65q-6 -6 -31 -16q-14 -6 -47 -15l-49 -12l-20.5 -5t-14.5 -3l-33 37l136 184q-72 94 -107 203q-37 112 -37 241zM307 641q0 -72 12 -139q14 -78 31 -123l477 653q-45 59 -100 94 q-53 33 -123 33q-76 0 -127 -35q-59 -41 -94 -102q-37 -68 -55 -162q-21 -106 -21 -219zM426 229q41 -55 100 -92q53 -33 115 -33q63 0 123 33q53 31 96 99q43 70 64 163q23 102 22 230q0 80 -10 133q-14 70 -33 123z" />
<glyph unicode="&#xd9;" horiz-adv-x="1368" d="M43 1188v72h524v-72q-72 -16 -102 -33q-35 -18 -35 -31v-614q0 -104 16 -170q18 -78 56 -125q37 -49 96 -74q63 -27 145 -26q66 0 119 32q49 31 80 84q33 57 45 123q12 72 12 144v626q0 12 -32 31q-31 16 -105 33v72h451v-72q-72 -16 -103 -33q-35 -18 -34 -31v-600 q0 -129 -37 -233q-35 -100 -103 -174q-63 -70 -157.5 -109t-196.5 -39q-98 0 -195 29q-88 27 -159 88q-70 59 -109 147q-39 86 -39 211v680q0 12 -33 31q-30 17 -104 33zM344 1593l10 63q6 8 29 25l49 33l51 30l18.5 12.5t16.5 10.5l364 -348q-2 -2 -12 -15.5t-16 -19.5 q-18 -18 -31 -25z" />
<glyph unicode="&#xda;" horiz-adv-x="1368" d="M43 1188v72h524v-72q-72 -16 -102 -33q-35 -18 -35 -31v-614q0 -104 16 -170q18 -78 56 -125q37 -49 96 -74q63 -27 145 -26q66 0 119 32q49 31 80 84q33 57 45 123q12 72 12 144v626q0 12 -32 31q-31 16 -105 33v72h451v-72q-72 -16 -103 -33q-35 -18 -34 -31v-600 q0 -129 -37 -233q-35 -100 -103 -174q-63 -70 -157.5 -109t-196.5 -39q-98 0 -195 29q-88 27 -159 88q-70 59 -109 147q-39 86 -39 211v680q0 12 -33 31q-30 17 -104 33zM492 1427l364 340l51 -29q29 -16 54 -33q4 -2 21 -12t26 -16q14 -10 26 -23l11 -53l-486 -242 q-20 10 -35 27q-6 8 -17 21.5t-15 19.5z" />
<glyph unicode="&#xdb;" horiz-adv-x="1368" d="M43 1188v72h524v-72q-72 -16 -102 -33q-35 -18 -35 -31v-614q0 -104 16 -170q18 -78 56 -125q37 -49 96 -74q63 -27 145 -26q66 0 119 32q49 31 80 84q33 57 45 123q12 72 12 144v626q0 12 -32 31q-31 16 -105 33v72h451v-72q-72 -16 -103 -33q-35 -18 -34 -31v-600 q0 -129 -37 -233q-35 -100 -103 -174q-63 -70 -157.5 -109t-196.5 -39q-98 0 -195 29q-88 27 -159 88q-70 59 -109 147q-39 86 -39 211v680q0 12 -33 31q-30 17 -104 33zM352 1419l279 323h122l277 -323q-16 -25 -27 -35q-18 -18 -30 -25l-281 162l-281 -162q-12 6 -30 25 l-9.5 10t-10.5 13.5t-9 11.5z" />
<glyph unicode="&#xdc;" horiz-adv-x="1368" d="M43 1188v72h524v-72q-72 -16 -102 -33q-35 -18 -35 -31v-614q0 -104 16 -170q18 -78 56 -125q37 -49 96 -74q63 -27 145 -26q66 0 119 32q49 31 80 84q33 57 45 123q12 72 12 144v626q0 12 -32 31q-31 16 -105 33v72h451v-72q-72 -16 -103 -33q-35 -18 -34 -31v-600 q0 -129 -37 -233q-35 -100 -103 -174q-63 -70 -157.5 -109t-196.5 -39q-98 0 -195 29q-88 27 -159 88q-70 59 -109 147q-39 86 -39 211v680q0 12 -33 31q-30 17 -104 33zM342 1493q0 37 12 67q12 33 35 57q20 23 51 37q33 14 57 15q57 0 88 -31t31 -90q0 -39 -12 -70 q-12 -33 -32.5 -55.5t-49.5 -38.5q-27 -14 -61 -14q-57 0 -88 31t-31 92zM766 1493q0 37 12 67q12 33 35 57q22 25 49 37q33 14 59 15q57 0 88 -31t31 -90q0 -39 -12 -70q-12 -29 -35 -55q-20 -23 -49 -39q-27 -14 -62 -14q-57 0 -88 30q-28 30 -28 93z" />
<glyph unicode="&#xdd;" horiz-adv-x="1253" d="M0 1241q10 2 27.5 5t38.5 5q23 4 75 9q12 2 36 5t34 3q23 2 53 2q28 0 55 -13q27 -12 46 -32q39 -51 77 -115q41 -63 82 -135q61 -106 82 -148l74 -147l233 440q16 27 -8 41q-29 18 -102 27v72h418v-72q-61 -12 -101 -29q-33 -14 -47 -39l-321 -598v-377q0 -2 8 -14 q6 -9 24 -18q31 -16 47 -21q29 -8 78 -18v-74h-565v74q43 8 76 18q31 9 49 18.5t25 18.5q8 12 8 16v383q-55 121 -80 166q-4 6 -92 164l-90 148q-41 66 -78 114l-21 21q-8 8 -26 14q-23 8 -43 10q-33 4 -68 4zM426 1427l364 340l51 -29q29 -16 54 -33q4 -2 21 -12t26 -16 q14 -10 26 -23l11 -53l-486 -242q-20 10 -35 27q-6 8 -17 21.5t-15 19.5z" />
<glyph unicode="&#xde;" horiz-adv-x="1159" d="M43 0v74q70 16 102 30q35 16 35 29v991q0 12 -33 31q-31 16 -104 33v72h555v-72q-47 -8 -84 -19q-45 -12 -51 -14q-16 -4 -27 -16q-6 -6 -6 -15v-100q23 2 70 2q12 0 34.5 1t34.5 1q113 0 213 -22q94 -20 162 -68q70 -47 107 -113q37 -63 36 -151q0 -61 -20 -127 q-18 -61 -51 -105q-39 -51 -74 -80q-55 -43 -90 -59q-41 -18 -96 -33q-49 -12 -92 -12q-33 0 -91 8q-41 6 -77 23l-31 102q31 -14 72 -22q31 -6 65 -7q41 0 86 17q41 14 74 47q31 31 53 86q20 49 20.5 121t-24.5 125q-27 57 -65.5 90t-102.5 53q-57 18 -131 19q-53 0 -82 -2 v-785q0 -6 6 -12q4 -4 25 -15q10 -6 51 -16q12 -4 86 -16v-74h-555z" />
<glyph unicode="&#xdf;" horiz-adv-x="1286" d="M47 0v74q76 14 100 28q33 20 33 29v815q0 127 23 205q27 94 59 145q39 61 80 97q53 45 82 65q51 35 135 66q74 27 162 26q98 0 170 -32q80 -37 127 -84q53 -53 79.5 -115t26.5 -129q0 -80 -24 -133q-23 -49 -64 -86q-31 -29 -84 -53q-25 -10 -45 -21.5t-37 -19.5 q-41 -20 -63 -43q-27 -27 -27 -64q0 -47 35 -78q39 -35 84 -59q106 -55 109 -58q66 -31 110 -65q49 -39 84 -94q35 -57 35 -133q0 -61 -25 -121q-23 -53 -73 -99q-49 -43 -123 -67q-80 -27 -174 -27q-47 0 -88 8q-61 12 -88 21l-70 22q-33 12 -39 23q-2 2 -6 29q-4 29 -4 53 v63q0 25 4 66l6 53q4 25 8 29l80 -12q10 -53 35 -101q23 -43 53 -71q37 -33 66 -46q35 -14 73 -14q59 0 105 31q39 27 39 88q0 45 -19 82q-16 33 -53 63q-41 33 -74 52l-84 45q-23 10 -84 49q-40 25 -73 55q-33 29 -51 74q-20 47 -21 98q0 61 25 102q27 43 59 68 q29 23 80 47q29 14 78 43q29 16 59 55q25 31 25 78q0 61 -19 113q-20 55 -51 90q-33 37 -82 57q-47 20 -106 21q-41 0 -80 -17q-35 -14 -66 -61q-27 -41 -43 -123t-16 -201v-1001h-373z" />
<glyph unicode="&#xe0;" horiz-adv-x="1021" d="M66 201q0 70 24 116q27 49 62 84q29 29 55 48q29 20 84 43q59 25 131 40q78 18 201 37v117q0 31 -6.5 59.5t-20.5 45.5q-16 18 -41 28q-27 10 -61 10q-27 0 -50 -8q-16 -6 -41 -26q-20 -16 -28 -39q-10 -29 -8 -54q0 -8 -17 -16q-18 -9 -43 -18q-16 -6 -57 -18.5 t-60 -16.5q-33 -8 -53 -10q-22 -3 -31 0l-20 53q25 61 76 112q41 41 121 89q68 41 149 61q86 23 166 23q70 0 119 -18.5t82 -51.5q35 -35 49 -76t14 -94v-483q0 -41 12.5 -59.5t28.5 -18.5q2 0 7 1t8 1q6 0 18 4l25 8q6 2 14 5l18 7l23 -73q-76 -49 -88 -56l-86 -45 q-40 -18 -74 -30q-35 -12 -51 -13q-37 0 -61.5 43t-30.5 117q-43 -43 -93 -76q-51 -35 -86 -49q-39 -16 -81 -27q-35 -8 -72 -8q-45 0 -82 15q-40 15 -74 43q-25 20 -51 73q-20 42 -20 101zM319 258q0 -37 9 -55q10 -23 24 -35q15 -12 31 -18q10 -4 29 -5q12 0 41 5 q16 2 45 16q47 23 57 31q23 16 68 53v221q-33 -4 -101 -20q-47 -10 -69 -19q-29 -10 -45 -20q-18 -12 -31 -25q-27 -27 -41 -55q-17 -33 -17 -74zM209 1417l28 56q16 6 41 10q31 6 68 12q10 2 32.5 5t34.5 5q33 6 45 6l218 -426q-8 -8 -17 -12q-4 -2 -12 -7t-12 -7t-12.5 -5 t-12.5 -5q-8 -4 -20 -9z" />
<glyph unicode="&#xe1;" horiz-adv-x="1021" d="M66 201q0 70 24 116q27 49 62 84q29 29 55 48q29 20 84 43q59 25 131 40q78 18 201 37v117q0 31 -6.5 59.5t-20.5 45.5q-16 18 -41 28q-27 10 -61 10q-27 0 -50 -8q-16 -6 -41 -26q-20 -16 -28 -39q-10 -29 -8 -54q0 -8 -17 -16q-18 -9 -43 -18q-16 -6 -57 -18.5 t-60 -16.5q-33 -8 -53 -10q-22 -3 -31 0l-20 53q25 61 76 112q41 41 121 89q68 41 149 61q86 23 166 23q70 0 119 -18.5t82 -51.5q35 -35 49 -76t14 -94v-483q0 -41 12.5 -59.5t28.5 -18.5q2 0 7 1t8 1q6 0 18 4l25 8q6 2 14 5l18 7l23 -73q-76 -49 -88 -56l-86 -45 q-40 -18 -74 -30q-35 -12 -51 -13q-37 0 -61.5 43t-30.5 117q-43 -43 -93 -76q-51 -35 -86 -49q-39 -16 -81 -27q-35 -8 -72 -8q-45 0 -82 15q-40 15 -74 43q-25 20 -51 73q-20 42 -20 101zM319 258q0 -37 9 -55q10 -23 24 -35q15 -12 31 -18q10 -4 29 -5q12 0 41 5 q16 2 45 16q47 23 57 31q23 16 68 53v221q-33 -4 -101 -20q-47 -10 -69 -19q-29 -10 -45 -20q-18 -12 -31 -25q-27 -27 -41 -55q-17 -33 -17 -74zM369 1083l211 428l45 -4q12 -2 37.5 -7t32.5 -5q25 -4 69 -12q37 -6 43 -8l31 -56l-381 -379q-10 0 -23 7l-24 12l-25 12 q-12 8 -16 12z" />
<glyph unicode="&#xe2;" horiz-adv-x="1021" d="M66 201q0 70 24 116q27 49 62 84q29 29 55 48q29 20 84 43q59 25 131 40q78 18 201 37v117q0 31 -6.5 59.5t-20.5 45.5q-16 18 -41 28q-27 10 -61 10q-27 0 -50 -8q-16 -6 -41 -26q-20 -16 -28 -39q-10 -29 -8 -54q0 -8 -17 -16q-18 -9 -43 -18q-16 -6 -57 -18.5 t-60 -16.5q-33 -8 -53 -10q-22 -3 -31 0l-20 53q25 61 76 112q41 41 121 89q68 41 149 61q86 23 166 23q70 0 119 -18.5t82 -51.5q35 -35 49 -76t14 -94v-483q0 -41 12.5 -59.5t28.5 -18.5q2 0 7 1t8 1q6 0 18 4l25 8q6 2 14 5l18 7l23 -73q-76 -49 -88 -56l-86 -45 q-40 -18 -74 -30q-35 -12 -51 -13q-37 0 -61.5 43t-30.5 117q-43 -43 -93 -76q-51 -35 -86 -49q-39 -16 -81 -27q-35 -8 -72 -8q-45 0 -82 15q-40 15 -74 43q-25 20 -51 73q-20 42 -20 101zM319 258q0 -37 9 -55q10 -23 24 -35q15 -12 31 -18q10 -4 29 -5q12 0 41 5 q16 2 45 16q47 23 57 31q23 16 68 53v221q-33 -4 -101 -20q-47 -10 -69 -19q-29 -10 -45 -20q-18 -12 -31 -25q-27 -27 -41 -55q-17 -33 -17 -74zM170 1108l278 385h138l268 -385q-2 -4 -11.5 -18.5t-15.5 -22.5q-12 -18 -30 -27l-281 224l-281 -224q-20 10 -34 27 l-16.5 21.5t-14.5 19.5z" />
<glyph unicode="&#xe3;" horiz-adv-x="1021" d="M66 201q0 70 24 116q27 49 62 84q29 29 55 48q29 20 84 43q59 25 131 40q78 18 201 37v117q0 31 -6.5 59.5t-20.5 45.5q-16 18 -41 28q-27 10 -61 10q-27 0 -50 -8q-16 -6 -41 -26q-20 -16 -28 -39q-10 -29 -8 -54q0 -8 -17 -16q-18 -9 -43 -18q-16 -6 -57 -18.5 t-60 -16.5q-33 -8 -53 -10q-22 -3 -31 0l-20 53q25 61 76 112q41 41 121 89q68 41 149 61q86 23 166 23q70 0 119 -18.5t82 -51.5q35 -35 49 -76t14 -94v-483q0 -41 12.5 -59.5t28.5 -18.5q2 0 7 1t8 1q6 0 18 4l25 8q6 2 14 5l18 7l23 -73q-76 -49 -88 -56l-86 -45 q-40 -18 -74 -30q-35 -12 -51 -13q-37 0 -61.5 43t-30.5 117q-43 -43 -93 -76q-51 -35 -86 -49q-39 -16 -81 -27q-35 -8 -72 -8q-45 0 -82 15q-40 15 -74 43q-25 20 -51 73q-20 42 -20 101zM319 258q0 -37 9 -55q10 -23 24 -35q15 -12 31 -18q10 -4 29 -5q12 0 41 5 q16 2 45 16q47 23 57 31q23 16 68 53v221q-33 -4 -101 -20q-47 -10 -69 -19q-29 -10 -45 -20q-18 -12 -31 -25q-27 -27 -41 -55q-17 -33 -17 -74zM121 1116l45 90q27 53 58 92q33 41 73.5 70t85.5 29q43 0 88 -17q14 -4 78 -37q12 -6 72 -34q37 -16 65 -17q43 0 78 29 q34 28 68 86l78 -31q-6 -14 -22.5 -45l-22.5 -43q-23 -45 -60 -92q-35 -43 -71 -70q-41 -29 -89 -28q-39 0 -81 16l-76 37q-49 25 -74 35q-39 16 -74 16q-23 0 -41 -6t-34 -22q-23 -23 -33 -37q-31 -43 -35 -50z" />
<glyph unicode="&#xe4;" horiz-adv-x="1021" d="M66 201q0 70 24 116q27 49 62 84q29 29 55 48q29 20 84 43q59 25 131 40q78 18 201 37v117q0 31 -6.5 59.5t-20.5 45.5q-16 18 -41 28q-27 10 -61 10q-27 0 -50 -8q-16 -6 -41 -26q-20 -16 -28 -39q-10 -29 -8 -54q0 -8 -17 -16q-18 -9 -43 -18q-16 -6 -57 -18.5 t-60 -16.5q-33 -8 -53 -10q-22 -3 -31 0l-20 53q25 61 76 112q41 41 121 89q68 41 149 61q86 23 166 23q70 0 119 -18.5t82 -51.5q35 -35 49 -76t14 -94v-483q0 -41 12.5 -59.5t28.5 -18.5q2 0 7 1t8 1q6 0 18 4l25 8q6 2 14 5l18 7l23 -73q-76 -49 -88 -56l-86 -45 q-40 -18 -74 -30q-35 -12 -51 -13q-37 0 -61.5 43t-30.5 117q-43 -43 -93 -76q-51 -35 -86 -49q-39 -16 -81 -27q-35 -8 -72 -8q-45 0 -82 15q-40 15 -74 43q-25 20 -51 73q-20 42 -20 101zM319 258q0 -37 9 -55q10 -23 24 -35q15 -12 31 -18q10 -4 29 -5q12 0 41 5 q16 2 45 16q47 23 57 31q23 16 68 53v221q-33 -4 -101 -20q-47 -10 -69 -19q-29 -10 -45 -20q-18 -12 -31 -25q-27 -27 -41 -55q-17 -33 -17 -74zM166 1212q0 39 12 70q12 29 34.5 55.5t51.5 39t57 12.5q59 0 88 -29q31 -31 31 -92q0 -39 -12 -70q-12 -33 -33 -55 q-16 -18 -49 -37q-27 -14 -61 -14q-57 0 -88 30.5t-31 89.5zM590 1212q0 39 12 70q12 29 35 55q25 29 49 39q29 12 59 13q59 0 88 -29q31 -31 31 -92q0 -39 -12 -70q-12 -29 -35 -55q-16 -18 -49 -37q-27 -14 -62 -14q-57 0 -88 30q-28 29 -28 90z" />
<glyph unicode="&#xe5;" horiz-adv-x="1021" d="M66 201q0 70 24 116q27 49 62 84q29 29 55 48q29 20 84 43q59 25 131 40q78 18 201 37v117q0 31 -6.5 59.5t-20.5 45.5q-16 18 -41 28q-27 10 -61 10q-27 0 -50 -8q-16 -6 -41 -26q-20 -16 -28 -39q-10 -29 -8 -54q0 -8 -17 -16q-18 -9 -43 -18q-16 -6 -57 -18.5 t-60 -16.5q-33 -8 -53 -10q-22 -3 -31 0l-20 53q25 61 76 112q41 41 121 89q68 41 149 61q86 23 166 23q70 0 119 -18.5t82 -51.5q35 -35 49 -76t14 -94v-483q0 -41 12.5 -59.5t28.5 -18.5q2 0 7 1t8 1q6 0 18 4l25 8q6 2 14 5l18 7l23 -73q-76 -49 -88 -56l-86 -45 q-40 -18 -74 -30q-35 -12 -51 -13q-37 0 -61.5 43t-30.5 117q-43 -43 -93 -76q-51 -35 -86 -49q-39 -16 -81 -27q-35 -8 -72 -8q-45 0 -82 15q-40 15 -74 43q-25 20 -51 73q-20 42 -20 101zM319 258q0 -37 9 -55q10 -23 24 -35q15 -12 31 -18q10 -4 29 -5q12 0 41 5 q16 2 45 16q47 23 57 31q23 16 68 53v221q-33 -4 -101 -20q-47 -10 -69 -19q-29 -10 -45 -20q-18 -12 -31 -25q-27 -27 -41 -55q-17 -33 -17 -74zM305 1204q0 57 20 101q23 49 54 81q33 37 76 58q37 18 92 18q37 0 71 -12q37 -14 58 -37q25 -27 35 -57q12 -33 12 -72 q0 -57 -21 -100q-25 -53 -53 -82q-31 -31 -76 -53q-41 -20 -90 -21q-39 0 -71 12q-27 10 -56 35q-25 22 -37 55q-14 39 -14 74zM440 1245q0 -49 21 -71q20 -25 45 -25q41 0 61.5 26.5t20.5 67.5q0 51 -21 74q-22 25 -43 24q-20 0 -35 -8q-18 -10 -26 -22q-10 -14 -17 -31 q-6 -19 -6 -35z" />
<glyph unicode="&#xe6;" horiz-adv-x="1499" d="M66 201q0 55 22 112q20 51 70 101q43 43 121 82q74 37 178 61q47 10 75 12l101 6v80q0 88 -33 133q-29 41 -94 41q-25 0 -55 -10q-33 -10 -52 -26q-23 -18 -34 -45q-12 -25 -3 -58q0 -6 -14 -14t-41 -19q-16 -6 -57 -18q-35 -10 -62 -16l-51 -11q-22 -3 -31 0l-20 52 q23 57 55 94q35 39 80 76q37 29 94 57q43 23 98.5 39t94.5 22q61 8 80 9q76 0 131 -25q53 -25 88 -80q34 28 67 49q29 18 72 33q25 8 70 16q33 6 63 7q86 0 156 -35q63 -31 111 -92q47 -59 67 -132q23 -78 23 -151q-6 -6 -26.5 -22.5t-33.5 -24.5q-6 -4 -39 -21 q-25 -12 -34 -16h-445l-1 -4q-1 -4 -1 -8v-15q0 -43 16.5 -98t45 -98t71.5 -74t103 -31q31 0 61 6q33 6 66 19q10 4 71 37q29 16 86 57q8 -4 15 -10q8 -8 16 -21q4 -6 7 -10t5 -8l4 -8t4 -6q-68 -72 -110 -109q-55 -47 -98 -70q-59 -29 -101 -36q-57 -10 -112 -11 q-45 0 -88 15q-49 16 -91 43q-53 35 -82 65q-41 45 -65 88q-45 -55 -94 -94q-53 -43 -99 -66q-57 -29 -98 -38q-49 -12 -96 -13q-35 0 -76 12.5t-74 38.5q-37 31 -57 72t-20 109zM311 258q0 -27 11 -51q10 -27 24 -37q16 -12 33 -18q18 -6 33 -7q23 0 51 7q33 8 55 18 q31 15 62 37q27 18 65 57q-8 25 -10 49q-2 16 -2 52v98q-45 -4 -66 -4q-35 0 -41 -2q-59 -14 -104 -37q-37 -18 -66 -47q-25 -25 -35 -55.5t-10 -59.5zM864 580h307q18 0 31 8q8 6 8 28q0 51 -12 95q-12 45 -33 73q-23 31 -49 45q-33 16 -65 17q-20 0 -51 -10.5t-56 -34.5 q-23 -23 -47.5 -82t-32.5 -139z" />
<glyph unicode="&#xe7;" horiz-adv-x="931" d="M66 444q0 109 38 201q37 88 113 164q70 70 170 111t217 41q33 0 76 -7q29 -4 82 -16q35 -8 72 -25q35 -16 51 -32q0 -12 -2 -26.5t-11 -47.5q-6 -25 -16 -55l-7 -27.5t-9 -28.5q-12 -33 -19 -47q-8 -20 -14 -28l-68 10q-35 102 -82 151q-49 53 -127 54q-45 0 -84 -21 q-43 -23 -71 -63q-33 -47 -51 -113q-18 -68 -19 -164q0 -84 21 -143q25 -68 55 -105q39 -47 84 -65q55 -25 102 -25q20 0 54 4q25 2 57 17q18 8 70 35q40 22 92 61l53 -64q-68 -78 -121 -118q-57 -45 -104 -66q-53 -23 -95 -29h-2l-24 -65q78 -16 121 -49q43 -34 43 -92 q0 -37 -29 -72q-33 -41 -74 -64q-59 -35 -114 -51q-57 -18 -146 -28l-37 71q88 12 125 43t37 61.5t-22 47.5q-20 14 -66 18l2 4q2 2 12 27q2 6 5.5 15.5l8.5 23.5t9 24q8 18 27 80q-63 6 -125 31q-74 33 -131 94q-59 61 -93 150q-34 92 -34 198z" />
<glyph unicode="&#xe8;" horiz-adv-x="989" d="M66 442q0 137 51 242q55 113 153 182q23 16 60 37q29 16 67 29q49 16 74 20q49 8 76 9q96 0 170 -35q70 -33 117 -90q49 -57 69 -131q23 -78 23 -154q-14 -14 -27 -23q-14 -10 -37 -22q-2 -2 -16.5 -10.5t-22.5 -12.5t-21.5 -8t-15.5 -6h-473q4 -84 19 -133 q16 -57 51 -105q33 -47 76 -69q46 -25 104 -25q20 0 62 4q25 2 63 17q37 14 78 37q57 33 102 63q8 -4 15 -10q8 -8 16 -21q4 -6 7 -10t5 -8t4.5 -8t4.5 -6q-63 -68 -123 -113t-107 -70q-45 -23 -100 -33t-111 -10q-80 0 -160 35q-74 33 -131 96q-55 61 -90 150 q-32 83 -32 192zM315 580h334q23 0 31 8q6 6 6 28q0 41 -6 68q-10 45 -29 74q-20 33 -55 57.5t-84 24.5t-82 -18.5t-57 -51.5q-25 -35 -37 -82q-17 -63 -21 -108zM230 1417l28 56q16 6 41 10q31 6 68 12q10 2 32.5 5t34.5 5q33 6 45 6l218 -426q-8 -8 -17 -12q-4 -2 -12 -7 t-12 -7t-12.5 -5t-12.5 -5q-8 -4 -20 -9z" />
<glyph unicode="&#xe9;" horiz-adv-x="989" d="M66 442q0 137 51 242q55 113 153 182q23 16 60 37q29 16 67 29q49 16 74 20q49 8 76 9q96 0 170 -35q70 -33 117 -90q49 -57 69 -131q23 -78 23 -154q-14 -14 -27 -23q-14 -10 -37 -22q-2 -2 -16.5 -10.5t-22.5 -12.5t-21.5 -8t-15.5 -6h-473q4 -84 19 -133 q16 -57 51 -105q33 -47 76 -69q46 -25 104 -25q20 0 62 4q25 2 63 17q37 14 78 37q57 33 102 63q8 -4 15 -10q8 -8 16 -21q4 -6 7 -10t5 -8t4.5 -8t4.5 -6q-63 -68 -123 -113t-107 -70q-45 -23 -100 -33t-111 -10q-80 0 -160 35q-74 33 -131 96q-55 61 -90 150 q-32 83 -32 192zM315 580h334q23 0 31 8q6 6 6 28q0 41 -6 68q-10 45 -29 74q-20 33 -55 57.5t-84 24.5t-82 -18.5t-57 -51.5q-25 -35 -37 -82q-17 -63 -21 -108zM389 1083l211 428l45 -4q12 -2 37.5 -7t32.5 -5q25 -4 69 -12q37 -6 43 -8l31 -56l-381 -379q-10 0 -23 7 l-24 12l-25 12q-12 8 -16 12z" />
<glyph unicode="&#xea;" horiz-adv-x="989" d="M66 442q0 137 51 242q55 113 153 182q23 16 60 37q29 16 67 29q49 16 74 20q49 8 76 9q96 0 170 -35q70 -33 117 -90q49 -57 69 -131q23 -78 23 -154q-14 -14 -27 -23q-14 -10 -37 -22q-2 -2 -16.5 -10.5t-22.5 -12.5t-21.5 -8t-15.5 -6h-473q4 -84 19 -133 q16 -57 51 -105q33 -47 76 -69q46 -25 104 -25q20 0 62 4q25 2 63 17q37 14 78 37q57 33 102 63q8 -4 15 -10q8 -8 16 -21q4 -6 7 -10t5 -8t4.5 -8t4.5 -6q-63 -68 -123 -113t-107 -70q-45 -23 -100 -33t-111 -10q-80 0 -160 35q-74 33 -131 96q-55 61 -90 150 q-32 83 -32 192zM315 580h334q23 0 31 8q6 6 6 28q0 41 -6 68q-10 45 -29 74q-20 33 -55 57.5t-84 24.5t-82 -18.5t-57 -51.5q-25 -35 -37 -82q-17 -63 -21 -108zM191 1108l278 385h138l268 -385q-2 -4 -11.5 -18.5t-15.5 -22.5q-12 -18 -30 -27l-281 224l-281 -224 q-20 10 -34 27l-16.5 21.5t-14.5 19.5z" />
<glyph unicode="&#xeb;" horiz-adv-x="989" d="M66 442q0 137 51 242q55 113 153 182q23 16 60 37q29 16 67 29q49 16 74 20q49 8 76 9q96 0 170 -35q70 -33 117 -90q49 -57 69 -131q23 -78 23 -154q-14 -14 -27 -23q-14 -10 -37 -22q-2 -2 -16.5 -10.5t-22.5 -12.5t-21.5 -8t-15.5 -6h-473q4 -84 19 -133 q16 -57 51 -105q33 -47 76 -69q46 -25 104 -25q20 0 62 4q25 2 63 17q37 14 78 37q57 33 102 63q8 -4 15 -10q8 -8 16 -21q4 -6 7 -10t5 -8t4.5 -8t4.5 -6q-63 -68 -123 -113t-107 -70q-45 -23 -100 -33t-111 -10q-80 0 -160 35q-74 33 -131 96q-55 61 -90 150 q-32 83 -32 192zM315 580h334q23 0 31 8q6 6 6 28q0 41 -6 68q-10 45 -29 74q-20 33 -55 57.5t-84 24.5t-82 -18.5t-57 -51.5q-25 -35 -37 -82q-17 -63 -21 -108zM187 1212q0 39 12 70q12 29 34.5 55.5t51.5 39t57 12.5q59 0 88 -29q31 -31 31 -92q0 -39 -12 -70 q-12 -33 -33 -55q-16 -18 -49 -37q-27 -14 -61 -14q-57 0 -88 30.5t-31 89.5zM611 1212q0 39 12 70q12 29 35 55q25 29 49 39q29 12 59 13q59 0 88 -29q31 -31 31 -92q0 -39 -12 -70q-12 -29 -35 -55q-16 -18 -49 -37q-27 -14 -62 -14q-57 0 -88 30q-28 29 -28 90z" />
<glyph unicode="&#xec;" horiz-adv-x="614" d="M63 0v74q72 16 101 30q31 14 31 29v514v84q0 31 -13 49q-10 14 -39 25q-14 4 -80 12v72q104 14 162 29q80 18 146 43h63v-828q0 -10 31 -29q25 -14 102 -30v-74h-504zM9 1417l28 56q16 6 41 10q31 6 68 12q10 2 32.5 5t34.5 5q33 6 45 6l218 -426q-8 -8 -17 -12 q-4 -2 -12 -7t-12 -7t-12.5 -5t-12.5 -5q-8 -4 -20 -9z" />
<glyph unicode="&#xed;" horiz-adv-x="614" d="M63 0v74q72 16 101 30q31 14 31 29v514v84q0 31 -13 49q-10 14 -39 25q-14 4 -80 12v72q104 14 162 29q80 18 146 43h63v-828q0 -10 31 -29q25 -14 102 -30v-74h-504zM168 1083l211 428l45 -4q12 -2 37.5 -7t32.5 -5q25 -4 69 -12q37 -6 43 -8l31 -56l-381 -379 q-10 0 -23 7l-24 12l-25 12q-12 8 -16 12z" />
<glyph unicode="&#xee;" horiz-adv-x="614" d="M63 0v74q72 16 101 30q31 14 31 29v514v84q0 31 -13 49q-10 14 -39 25q-14 4 -80 12v72q104 14 162 29q80 18 146 43h63v-828q0 -10 31 -29q25 -14 102 -30v-74h-504zM-31 1108l278 385h138l268 -385q-2 -4 -11.5 -18.5t-15.5 -22.5q-12 -18 -30 -27l-281 224l-281 -224 q-20 10 -34 27l-16.5 21.5t-14.5 19.5z" />
<glyph unicode="&#xef;" horiz-adv-x="614" d="M63 0v74q72 16 101 30q31 14 31 29v514v84q0 31 -13 49q-10 14 -39 25q-14 4 -80 12v72q104 14 162 29q80 18 146 43h63v-828q0 -10 31 -29q25 -14 102 -30v-74h-504zM-35 1212q0 39 12 70q12 29 34.5 55.5t51.5 39t57 12.5q59 0 88 -29q31 -31 31 -92q0 -39 -12 -70 q-12 -33 -33 -55q-16 -18 -49 -37q-27 -14 -61 -14q-57 0 -88 30.5t-31 89.5zM389 1212q0 39 12 70q12 29 35 55q25 29 49 39q29 12 59 13q59 0 88 -29q31 -31 31 -92q0 -39 -12 -70q-12 -29 -35 -55q-16 -18 -49 -37q-27 -14 -62 -14q-57 0 -88 30q-28 29 -28 90z" />
<glyph unicode="&#xf0;" horiz-adv-x="1044" d="M66 444q0 70 14 129q15 65 43 123q25 51 67.5 104.5t88.5 84.5q51 35 106 55.5t121 20.5q63 0 115 -25q59 -29 94 -66q-23 82 -56 144q-37 70 -94 133l-211 -86q-6 0 -18 1t-16.5 1t-14.5 1t-14 1q-10 0 -31 4q-14 4 -31 8l-12 45l262 111q-57 41 -127 61q-76 23 -159 11 l-13 71l269 94l55 -38l55 -41l53 -41q8 -8 24.5 -20.5t22.5 -18.5l187 75q14 -2 28.5 -3t27.5 -3t20 -2q29 -4 53 -12l6 -43l-238 -98q125 -139 183 -299q55 -154 55 -320q0 -111 -23 -207q-20 -86 -59 -161.5t-84 -122.5q-41 -43 -100 -82q-47 -31 -102.5 -47.5 t-94.5 -16.5q-104 0 -190 37t-142 98q-59 66 -89.5 152t-30.5 188zM309 487q0 -78 19 -149q18 -70 49 -125q31 -57 69 -86q43 -33 82 -33q55 0 97 29q43 29 65 84q25 58 37 147q12 88 12 211v47q-14 53 -43 95q-25 37 -63 67q-35 29 -74 41q-37 12 -70 12q-88 0 -135 -90 q-45 -88 -45 -250z" />
<glyph unicode="&#xf1;" horiz-adv-x="1189" d="M47 0v74q74 20 100 30q33 12 33 29v555q0 14 -1 35.5t-1 28.5q0 23 -12 34q-14 14 -39 21q-8 2 -80 10v72q14 2 44 5t46 5q33 4 80 16q49 12 74 21q63 20 71 25l44 -43l10 -144q113 98 219 144q101 43 178 43q37 0 84 -15q39 -12 69.5 -43t49 -80t18.5 -118v-572 q0 -6 6 -12q8 -8 23 -15q6 -2 19.5 -7t21.5 -7q27 -10 63 -18v-74h-503v74q78 20 102 32q29 14 29 27v455q0 55 -7 92q-6 41 -16 57q-12 23 -33 31q-25 10 -49 10q-23 0 -51 -6q-18 -4 -59 -22q-29 -12 -72 -43q-33 -23 -88 -68v-506q0 -14 35 -31q25 -10 98 -28v-74h-506z M213 1116l45 90q27 53 58 92q33 41 73.5 70t85.5 29q43 0 88 -17q14 -4 78 -37q12 -6 72 -34q37 -16 65 -17q43 0 78 29q34 28 68 86l78 -31q-6 -14 -22.5 -45l-22.5 -43q-23 -45 -60 -92q-35 -43 -71 -70q-41 -29 -89 -28q-39 0 -81 16l-76 37q-49 25 -74 35q-39 16 -74 16 q-23 0 -41 -6t-34 -22q-23 -23 -33 -37q-31 -43 -35 -50z" />
<glyph unicode="&#xf2;" horiz-adv-x="1073" d="M66 444q0 100 36 193q39 96 101 164q66 72 157 117q89 43 197 43q102 0 186 -37q90 -41 144 -99q63 -70 92 -151q31 -86 31 -189q0 -68 -19 -131q-20 -72 -49 -121q-35 -61 -78 -106q-49 -53 -100 -84q-59 -35 -117 -53q-68 -20 -129 -21q-104 0 -186 37q-90 41 -144 98 q-53 59 -90 152q-32 84 -32 188zM317 473q0 -80 19 -147q16 -63 51 -121q29 -49 72 -80t88 -31q55 0 100 25q41 23 66 65q27 45 35 109q10 72 10 147q0 74 -17 150q-14 70 -46.5 127t-71.5 86q-45 33 -95 33q-61 0 -102 -29q-43 -29 -66 -76q-25 -47 -32 -115 q-11 -75 -11 -143zM252 1417l28 56q16 6 41 10q31 6 68 12q10 2 32.5 5t34.5 5q33 6 45 6l218 -426q-8 -8 -17 -12q-4 -2 -12 -7t-12 -7t-12.5 -5t-12.5 -5q-8 -4 -20 -9z" />
<glyph unicode="&#xf3;" horiz-adv-x="1073" d="M66 444q0 100 36 193q39 96 101 164q66 72 157 117q89 43 197 43q102 0 186 -37q90 -41 144 -99q63 -70 92 -151q31 -86 31 -189q0 -68 -19 -131q-20 -72 -49 -121q-35 -61 -78 -106q-49 -53 -100 -84q-59 -35 -117 -53q-68 -20 -129 -21q-104 0 -186 37q-90 41 -144 98 q-53 59 -90 152q-32 84 -32 188zM317 473q0 -80 19 -147q16 -63 51 -121q29 -49 72 -80t88 -31q55 0 100 25q41 23 66 65q27 45 35 109q10 72 10 147q0 74 -17 150q-14 70 -46.5 127t-71.5 86q-45 33 -95 33q-61 0 -102 -29q-43 -29 -66 -76q-25 -47 -32 -115 q-11 -75 -11 -143zM412 1083l211 428l45 -4q12 -2 37.5 -7t32.5 -5q25 -4 69 -12q37 -6 43 -8l31 -56l-381 -379q-10 0 -23 7l-24 12l-25 12q-12 8 -16 12z" />
<glyph unicode="&#xf4;" horiz-adv-x="1073" d="M66 444q0 100 36 193q39 96 101 164q66 72 157 117q89 43 197 43q102 0 186 -37q90 -41 144 -99q63 -70 92 -151q31 -86 31 -189q0 -68 -19 -131q-20 -72 -49 -121q-35 -61 -78 -106q-49 -53 -100 -84q-59 -35 -117 -53q-68 -20 -129 -21q-104 0 -186 37q-90 41 -144 98 q-53 59 -90 152q-32 84 -32 188zM317 473q0 -80 19 -147q16 -63 51 -121q29 -49 72 -80t88 -31q55 0 100 25q41 23 66 65q27 45 35 109q10 72 10 147q0 74 -17 150q-14 70 -46.5 127t-71.5 86q-45 33 -95 33q-61 0 -102 -29q-43 -29 -66 -76q-25 -47 -32 -115 q-11 -75 -11 -143zM213 1108l278 385h138l268 -385q-2 -4 -11.5 -18.5t-15.5 -22.5q-12 -18 -30 -27l-281 224l-281 -224q-20 10 -34 27l-16.5 21.5t-14.5 19.5z" />
<glyph unicode="&#xf5;" horiz-adv-x="1073" d="M66 444q0 100 36 193q39 96 101 164q66 72 157 117q89 43 197 43q102 0 186 -37q90 -41 144 -99q63 -70 92 -151q31 -86 31 -189q0 -68 -19 -131q-20 -72 -49 -121q-35 -61 -78 -106q-49 -53 -100 -84q-59 -35 -117 -53q-68 -20 -129 -21q-104 0 -186 37q-90 41 -144 98 q-53 59 -90 152q-32 84 -32 188zM317 473q0 -80 19 -147q16 -63 51 -121q29 -49 72 -80t88 -31q55 0 100 25q41 23 66 65q27 45 35 109q10 72 10 147q0 74 -17 150q-14 70 -46.5 127t-71.5 86q-45 33 -95 33q-61 0 -102 -29q-43 -29 -66 -76q-25 -47 -32 -115 q-11 -75 -11 -143zM166 1116l45 90q27 53 58 92q33 41 73.5 70t85.5 29q43 0 88 -17q14 -4 78 -37q12 -6 72 -34q37 -16 65 -17q43 0 78 29q34 28 68 86l78 -31q-6 -14 -22.5 -45l-22.5 -43q-23 -45 -60 -92q-35 -43 -71 -70q-41 -29 -89 -28q-39 0 -81 16l-76 37 q-49 25 -74 35q-39 16 -74 16q-23 0 -41 -6t-34 -22q-23 -23 -33 -37q-31 -43 -35 -50z" />
<glyph unicode="&#xf6;" horiz-adv-x="1073" d="M66 444q0 100 36 193q39 96 101 164q66 72 157 117q89 43 197 43q102 0 186 -37q90 -41 144 -99q63 -70 92 -151q31 -86 31 -189q0 -68 -19 -131q-20 -72 -49 -121q-35 -61 -78 -106q-49 -53 -100 -84q-59 -35 -117 -53q-68 -20 -129 -21q-104 0 -186 37q-90 41 -144 98 q-53 59 -90 152q-32 84 -32 188zM317 473q0 -80 19 -147q16 -63 51 -121q29 -49 72 -80t88 -31q55 0 100 25q41 23 66 65q27 45 35 109q10 72 10 147q0 74 -17 150q-14 70 -46.5 127t-71.5 86q-45 33 -95 33q-61 0 -102 -29q-43 -29 -66 -76q-25 -47 -32 -115 q-11 -75 -11 -143zM209 1212q0 39 12 70q12 29 34.5 55.5t51.5 39t57 12.5q59 0 88 -29q31 -31 31 -92q0 -39 -12 -70q-12 -33 -33 -55q-16 -18 -49 -37q-27 -14 -61 -14q-57 0 -88 30.5t-31 89.5zM633 1212q0 39 12 70q12 29 35 55q25 29 49 39q29 12 59 13q59 0 88 -29 q31 -31 31 -92q0 -39 -12 -70q-12 -29 -35 -55q-16 -18 -49 -37q-27 -14 -62 -14q-57 0 -88 30q-28 29 -28 90z" />
<glyph unicode="&#xf7;" horiz-adv-x="862" d="M53 522q4 16 8 27l13 31l8 16t6 14q10 23 10 25h678l35 -33q0 -2 -10 -27q-2 -8 -6 -15t-7 -15l-8 -16.5t-6 -14.5t-5 -12l-5 -10h-678zM332 283q0 33 8 55q8 25 27 45q10 12 39 29q20 12 45 12q88 0 88 -100q0 -27 -11 -54q-10 -29 -24 -45q-16 -20 -39 -32 q-18 -10 -47 -11q-45 0 -65.5 27t-20.5 74zM332 803q0 33 8 55q8 20 27 43q14 16 39 31q18 10 45 10q88 0 88 -96q0 -29 -11 -55q-10 -29 -24.5 -45.5t-38.5 -30.5q-23 -12 -47 -13q-43 0 -66 27q-20 23 -20 74z" />
<glyph unicode="&#xf8;" horiz-adv-x="1073" d="M66 444.5q0 100.5 36 192.5q39 96 101 164q66 72 157 117q89 43 197 43q66 0 127 -19q66 -20 111 -45l16 18q14 10 33 19l41 20q29 12 43 17q4 2 18.5 6t20.5 6l30 -31l-104 -135q57 -68 86 -147q31 -86 31 -185q0 -68 -19 -131q-20 -72 -49 -121q-35 -61 -78 -106 q-49 -53 -100 -84q-59 -35 -117 -53q-68 -20 -129 -21q-68 0 -129 19q-66 20 -110 45l-15 -19q-10 -10 -28 -18l-43 -19q-33 -12 -48 -18q-20 -8 -39 -12l-24 30l102 134q-51 59 -86 149q-32 84 -32 184.5zM315 473q0 -27 9 -84q6 -45 18 -78l336 434q-29 41 -68 66 q-41 25 -82 25q-61 0 -102 -29q-43 -29 -66 -76q-27 -53 -34 -115q-11 -75 -11 -143zM397 186q33 -43 70 -65q43 -27 80 -27q55 0 100 25q41 23 65.5 65.5t37.5 108.5q10 53 10 147q0 49 -8 90q-12 61 -21 86z" />
<glyph unicode="&#xf9;" horiz-adv-x="1150" d="M35 831v70q33 2 90 10q12 2 38.5 5.5l41.5 5.5q31 4 76 16q8 2 79 23l35 -48v-571q0 -47 8 -100q6 -39 23 -62q14 -20 35 -28q18 -8 51 -9q29 0 45 4q18 4 53 19q14 6 64 37q37 23 76 59v426q0 55 -2 74q-2 20 -19 41q-12 14 -39 20q-23 4 -72 8v70q94 8 181 25 q70 12 153 35l37 -48v-628q0 -10 1 -27.5t1 -24.5q0 -18 4 -34.5t6 -22.5l13 -12q10 -8 33 -4q10 2 71 26l27 -73q-25 -16 -82 -49t-86 -48q-43 -23 -74 -32q-39 -14 -45 -15q-14 0 -35 8q-15 6 -30 25q-10 12 -25 51q-12 35 -18 82q-47 -43 -111 -86q-33 -23 -90 -49 q-39 -18 -76 -25q-35 -6 -65 -6q-39 0 -93 15q-41 10 -79 47q-39 35 -59.5 94t-20.5 154v409q0 18 -1 43t-1 33q0 27 -12.5 39t-37.5 18q-8 2 -69 10zM271 1417l28 56q16 6 41 10q31 6 68 12q10 2 32.5 5t34.5 5q33 6 45 6l218 -426q-8 -8 -17 -12q-4 -2 -12 -7t-12 -7 t-12.5 -5t-12.5 -5q-8 -4 -20 -9z" />
<glyph unicode="&#xfa;" horiz-adv-x="1150" d="M35 831v70q33 2 90 10q12 2 38.5 5.5l41.5 5.5q31 4 76 16q8 2 79 23l35 -48v-571q0 -47 8 -100q6 -39 23 -62q14 -20 35 -28q18 -8 51 -9q29 0 45 4q18 4 53 19q14 6 64 37q37 23 76 59v426q0 55 -2 74q-2 20 -19 41q-12 14 -39 20q-23 4 -72 8v70q94 8 181 25 q70 12 153 35l37 -48v-628q0 -10 1 -27.5t1 -24.5q0 -18 4 -34.5t6 -22.5l13 -12q10 -8 33 -4q10 2 71 26l27 -73q-25 -16 -82 -49t-86 -48q-43 -23 -74 -32q-39 -14 -45 -15q-14 0 -35 8q-15 6 -30 25q-10 12 -25 51q-12 35 -18 82q-47 -43 -111 -86q-33 -23 -90 -49 q-39 -18 -76 -25q-35 -6 -65 -6q-39 0 -93 15q-41 10 -79 47q-39 35 -59.5 94t-20.5 154v409q0 18 -1 43t-1 33q0 27 -12.5 39t-37.5 18q-8 2 -69 10zM430 1083l211 428l45 -4q12 -2 37.5 -7t32.5 -5q25 -4 69 -12q37 -6 43 -8l31 -56l-381 -379q-10 0 -23 7l-24 12l-25 12 q-12 8 -16 12z" />
<glyph unicode="&#xfb;" horiz-adv-x="1150" d="M35 831v70q33 2 90 10q12 2 38.5 5.5l41.5 5.5q31 4 76 16q8 2 79 23l35 -48v-571q0 -47 8 -100q6 -39 23 -62q14 -20 35 -28q18 -8 51 -9q29 0 45 4q18 4 53 19q14 6 64 37q37 23 76 59v426q0 55 -2 74q-2 20 -19 41q-12 14 -39 20q-23 4 -72 8v70q94 8 181 25 q70 12 153 35l37 -48v-628q0 -10 1 -27.5t1 -24.5q0 -18 4 -34.5t6 -22.5l13 -12q10 -8 33 -4q10 2 71 26l27 -73q-25 -16 -82 -49t-86 -48q-43 -23 -74 -32q-39 -14 -45 -15q-14 0 -35 8q-15 6 -30 25q-10 12 -25 51q-12 35 -18 82q-47 -43 -111 -86q-33 -23 -90 -49 q-39 -18 -76 -25q-35 -6 -65 -6q-39 0 -93 15q-41 10 -79 47q-39 35 -59.5 94t-20.5 154v409q0 18 -1 43t-1 33q0 27 -12.5 39t-37.5 18q-8 2 -69 10zM232 1108l278 385h138l268 -385q-2 -4 -11.5 -18.5t-15.5 -22.5q-12 -18 -30 -27l-281 224l-281 -224q-20 10 -34 27 l-16.5 21.5t-14.5 19.5z" />
<glyph unicode="&#xfc;" horiz-adv-x="1150" d="M35 831v70q33 2 90 10q12 2 38.5 5.5l41.5 5.5q31 4 76 16q8 2 79 23l35 -48v-571q0 -47 8 -100q6 -39 23 -62q14 -20 35 -28q18 -8 51 -9q29 0 45 4q18 4 53 19q14 6 64 37q37 23 76 59v426q0 55 -2 74q-2 20 -19 41q-12 14 -39 20q-23 4 -72 8v70q94 8 181 25 q70 12 153 35l37 -48v-628q0 -10 1 -27.5t1 -24.5q0 -18 4 -34.5t6 -22.5l13 -12q10 -8 33 -4q10 2 71 26l27 -73q-25 -16 -82 -49t-86 -48q-43 -23 -74 -32q-39 -14 -45 -15q-14 0 -35 8q-15 6 -30 25q-10 12 -25 51q-12 35 -18 82q-47 -43 -111 -86q-33 -23 -90 -49 q-39 -18 -76 -25q-35 -6 -65 -6q-39 0 -93 15q-41 10 -79 47q-39 35 -59.5 94t-20.5 154v409q0 18 -1 43t-1 33q0 27 -12.5 39t-37.5 18q-8 2 -69 10zM228 1212q0 39 12 70q12 29 34.5 55.5t51.5 39t57 12.5q59 0 88 -29q31 -31 31 -92q0 -39 -12 -70q-12 -33 -33 -55 q-16 -18 -49 -37q-27 -14 -61 -14q-57 0 -88 30.5t-31 89.5zM652 1212q0 39 12 70q12 29 35 55q25 29 49 39q29 12 59 13q59 0 88 -29q31 -31 31 -92q0 -39 -12 -70q-12 -29 -35 -55q-16 -18 -49 -37q-27 -14 -62 -14q-57 0 -88 30q-28 29 -28 90z" />
<glyph unicode="&#xfd;" horiz-adv-x="1038" d="M-61 -426q0 12 16 35q0 2 15.5 23.5t25.5 31.5q6 6 21.5 25.5t25.5 29.5q23 23 43 35q53 -33 100 -39q20 -3 37 -2q29 0 49 8q35 12 80 57.5t78 129.5l29 69l-334 811q-12 28 -37 43q-14 10 -76 25v74h455v-74q-55 -8 -61 -10q-18 -6 -29 -12q-8 -6 -8 -19q0 -6 8 -27 l205 -501l196 501q8 20 8 27q0 10 -6 16q-8 8 -26 15q-4 2 -54 10v74h326v-74q-27 -4 -47 -12q-25 -8 -33 -12.5t-18 -18.5q-2 -2 -10 -25l-334 -864q-37 -96 -95 -188q-45 -72 -104 -129q-51 -49 -119 -76q-61 -25 -125 -25q-25 0 -73 9q-33 6 -66 16q-27 8 -47 23 q-16 10 -16 20zM397 1083l211 428l45 -4q12 -2 37.5 -7t32.5 -5q25 -4 69 -12q37 -6 43 -8l31 -56l-381 -379q-10 0 -23 7l-24 12l-25 12q-12 8 -16 12z" />
<glyph unicode="&#xfe;" horiz-adv-x="1144" d="M47 -408q70 16 100 31q33 14 33 33v1614q0 35 -4 67q-2 23 -20 37q-16 14 -39 17q-8 2 -33 5t-37 5v69q70 8 103 15q57 12 81 18q55 14 74 21q61 23 72 26l43 -43v-710q55 49 104 80q66 41 88 51q40 18 74 24q45 8 64 9q68 0 129 -31q59 -31 104 -86q49 -61 72 -142 q25 -86 24 -194q0 -74 -16 -131q-18 -68 -45 -125q-25 -53 -70 -113q-39 -51 -82 -88q-45 -39 -90 -59q-49 -23 -90 -23q-27 0 -55 6q-23 4 -60 19q-35 12 -69 33q-55 33 -82 51v-422q0 -16 37 -33q37 -14 133 -31v-71h-543v71zM420 227q43 -27 90 -47q49 -23 70 -28 q41 -12 59 -14.5t51 -2.5q39 0 72 23q31 23 51 59q23 41 31 92q10 61 10 119q0 102 -16 162q-18 66 -52 112q-31 43 -71.5 66t-83.5 23q-12 0 -37 -5q-16 -2 -43 -16q-18 -10 -55 -35q-49 -35 -76 -57v-451z" />
<glyph unicode="&#xff;" horiz-adv-x="1038" d="M-61 -426q0 12 16 35q0 2 15.5 23.5t25.5 31.5q6 6 21.5 25.5t25.5 29.5q23 23 43 35q53 -33 100 -39q20 -3 37 -2q29 0 49 8q35 12 80 57.5t78 129.5l29 69l-334 811q-12 28 -37 43q-14 10 -76 25v74h455v-74q-55 -8 -61 -10q-18 -6 -29 -12q-8 -6 -8 -19q0 -6 8 -27 l205 -501l196 501q8 20 8 27q0 10 -6 16q-8 8 -26 15q-4 2 -54 10v74h326v-74q-27 -4 -47 -12q-25 -8 -33 -12.5t-18 -18.5q-2 -2 -10 -25l-334 -864q-37 -96 -95 -188q-45 -72 -104 -129q-51 -49 -119 -76q-61 -25 -125 -25q-25 0 -73 9q-33 6 -66 16q-27 8 -47 23 q-16 10 -16 20zM195 1212q0 39 12 70q12 29 34.5 55.5t51.5 39t57 12.5q59 0 88 -29q31 -31 31 -92q0 -39 -12 -70q-12 -33 -33 -55q-16 -18 -49 -37q-27 -14 -61 -14q-57 0 -88 30.5t-31 89.5zM619 1212q0 39 12 70q12 29 35 55q25 29 49 39q29 12 59 13q59 0 88 -29 q31 -31 31 -92q0 -39 -12 -70q-12 -29 -35 -55q-16 -18 -49 -37q-27 -14 -62 -14q-57 0 -88 30q-28 29 -28 90z" />
<glyph unicode="&#x100;" horiz-adv-x="1286" d="M0 0v74q68 12 104 24q39 12 48 43l348 1065q12 12 51 37q29 18 57 31q6 2 27.5 11t32.5 13l55 19l420 -1176q6 -18 12 -24q10 -12 23 -21q8 -4 34.5 -12t53.5 -10v-74h-498v74q86 6 106 18q29 16 17 49l-103 289h-397l-94 -289q-8 -31 22 -45q29 -12 117 -22v-74h-436z M432 551h316l-166 465zM217 1486q4 16 8 28.5t17 37.5q4 10 9 19.5l9 17.5q2 6 6 15t6 13h764l33 -30q-2 -4 -6 -14.5t-6 -16.5q-2 -4 -17 -39l-16 -37q-8 -18 -12 -26h-764z" />
<glyph unicode="&#x101;" horiz-adv-x="1021" d="M66 201q0 70 24 116q27 49 62 84q29 29 55 48q29 20 84 43q59 25 131 40q78 18 201 37v117q0 31 -6.5 59.5t-20.5 45.5q-16 18 -41 28q-27 10 -61 10q-27 0 -50 -8q-16 -6 -41 -26q-20 -16 -28 -39q-10 -29 -8 -54q0 -8 -17 -16q-18 -9 -43 -18q-16 -6 -57 -18.5 t-60 -16.5q-33 -8 -53 -10q-22 -3 -31 0l-20 53q25 61 76 112q41 41 121 89q68 41 149 61q86 23 166 23q70 0 119 -18.5t82 -51.5q35 -35 49 -76t14 -94v-483q0 -41 12.5 -59.5t28.5 -18.5q2 0 7 1t8 1q6 0 18 4l25 8q6 2 14 5l18 7l23 -73q-76 -49 -88 -56l-86 -45 q-40 -18 -74 -30q-35 -12 -51 -13q-37 0 -61.5 43t-30.5 117q-43 -43 -93 -76q-51 -35 -86 -49q-39 -16 -81 -27q-35 -8 -72 -8q-45 0 -82 15q-40 15 -74 43q-25 20 -51 73q-20 42 -20 101zM319 258q0 -37 9 -55q10 -23 24 -35q15 -12 31 -18q10 -4 29 -5q12 0 41 5 q16 2 45 16q47 23 57 31q23 16 68 53v221q-33 -4 -101 -20q-47 -10 -69 -19q-29 -10 -45 -20q-18 -12 -31 -25q-27 -27 -41 -55q-17 -33 -17 -74zM100 1206q6 25 8 31q4 12 17 37q4 10 9 19.5l9 17.5q2 6 6 14l6 12h764l33 -30q-2 -4 -6 -13.5t-6 -15.5q-2 -4 -17 -39 l-16 -37q-8 -18 -12 -26h-764z" />
<glyph unicode="&#x102;" horiz-adv-x="1286" d="M0 0v74q68 12 104 24q39 12 48 43l348 1065q12 12 51 37q29 18 57 31q6 2 27.5 11t32.5 13l55 19l420 -1176q6 -18 12 -24q10 -12 23 -21q8 -4 34.5 -12t53.5 -10v-74h-498v74q86 6 106 18q29 16 17 49l-103 289h-397l-94 -289q-8 -31 22 -45q29 -12 117 -22v-74h-436z M432 551h316l-166 465zM279 1687q4 6 16 18l20 21q8 8 21 16l18 13q23 -43 60 -80q33 -33 71 -56q41 -25 76 -34q33 -10 72 -11q41 0 74 11q41 12 75.5 32.5t71.5 57.5t59 80l19 -13q18 -12 22 -16q2 -2 8.5 -10t10.5 -11q12 -12 16 -18q-33 -86 -69 -139q-39 -55 -86 -94 q-41 -33 -97 -54q-49 -18 -100 -18q-53 0 -106 18q-57 20 -99 54q-43 35 -84 94q-36 53 -69 139z" />
<glyph unicode="&#x103;" horiz-adv-x="1021" d="M66 201q0 70 24 116q27 49 62 84q29 29 55 48q29 20 84 43q59 25 131 40q78 18 201 37v117q0 31 -6.5 59.5t-20.5 45.5q-16 18 -41 28q-27 10 -61 10q-27 0 -50 -8q-16 -6 -41 -26q-20 -16 -28 -39q-10 -29 -8 -54q0 -8 -17 -16q-18 -9 -43 -18q-16 -6 -57 -18.5 t-60 -16.5q-33 -8 -53 -10q-22 -3 -31 0l-20 53q25 61 76 112q41 41 121 89q68 41 149 61q86 23 166 23q70 0 119 -18.5t82 -51.5q35 -35 49 -76t14 -94v-483q0 -41 12.5 -59.5t28.5 -18.5q2 0 7 1t8 1q6 0 18 4l25 8q6 2 14 5l18 7l23 -73q-76 -49 -88 -56l-86 -45 q-40 -18 -74 -30q-35 -12 -51 -13q-37 0 -61.5 43t-30.5 117q-43 -43 -93 -76q-51 -35 -86 -49q-39 -16 -81 -27q-35 -8 -72 -8q-45 0 -82 15q-40 15 -74 43q-25 20 -51 73q-20 42 -20 101zM319 258q0 -37 9 -55q10 -23 24 -35q15 -12 31 -18q10 -4 29 -5q12 0 41 5 q16 2 45 16q47 23 57 31q23 16 68 53v221q-33 -4 -101 -20q-47 -10 -69 -19q-29 -10 -45 -20q-18 -12 -31 -25q-27 -27 -41 -55q-17 -33 -17 -74zM160 1368q4 6 16 18l20 21q8 8 21 16l18 13q23 -43 60 -80q33 -33 71 -56q41 -25 76 -34q33 -10 72 -11q41 0 74 11 q41 12 75.5 32.5t71.5 57.5t59 80l19 -13q18 -12 22 -16q2 -2 8.5 -10t10.5 -11q12 -12 16 -18q-33 -86 -69 -139q-39 -55 -86 -94q-41 -33 -97 -54q-49 -18 -100 -18q-53 0 -106 18q-57 20 -99 54q-43 35 -84 94q-36 53 -69 139z" />
<glyph unicode="&#x106;" horiz-adv-x="1142" d="M55 586q0 162 49.5 291t135.5 221q90 96 200 143q117 49 250 49q61 0 109 -8q35 -6 100 -22q47 -12 88 -31q45 -20 66 -39q2 -2 -2 -19q-2 -12 -13 -34q-6 -14 -22 -47q-8 -16 -24.5 -45t-24.5 -41q-12 -18 -21 -27l-63 14q-51 86 -117 127q-63 39 -143 39q-41 0 -72 -10 q-39 -12 -72 -37q-35 -25 -65 -66q-31 -40 -56 -98q-25 -57 -36 -139q-14 -94 -15 -184q0 -125 35 -219.5t86 -151.5q55 -61 121 -88q70 -29 133 -29q27 0 63 6q31 6 80 23q43 15 93 43q49 27 102 72q2 -2 6 -7q4 -6 6 -8q8 -8 15 -20q8 -10 14 -21q4 -6 10 -12 q-61 -61 -127 -111q-68 -51 -123 -75q-68 -31 -119 -41q-68 -14 -116 -15q-101 0 -197 43q-100 45 -170 121q-72 78 -119 193q-45 110 -45 260zM437 1427l364 340l51 -29q29 -16 54 -33q4 -2 21 -12t26 -16q14 -10 26 -23l11 -53l-486 -242q-20 10 -35 27q-6 8 -17 21.5 t-15 19.5z" />
<glyph unicode="&#x107;" horiz-adv-x="931" d="M66 444q0 109 38 201q37 88 113 164q70 70 170 111t217 41q33 0 76 -7q29 -4 82 -16q35 -8 72 -25q35 -16 51 -32q0 -12 -2 -26.5t-11 -47.5q-6 -25 -16 -55l-7 -27.5t-9 -28.5q-12 -33 -19 -47q-8 -20 -14 -28l-68 10q-35 102 -82 151q-49 53 -127 54q-45 0 -84 -21 q-43 -23 -71 -63q-33 -47 -51 -113q-18 -68 -19 -164q0 -84 21 -143q25 -68 55 -105q39 -47 84 -65q55 -25 102 -25q20 0 54 4q25 2 57 17q18 8 70 35q40 22 92 61l53 -64q-68 -78 -121 -118q-57 -45 -104 -66q-53 -23 -95 -29q-61 -8 -94 -8q-84 0 -155 33q-74 33 -131 94 q-59 61 -93 150q-34 92 -34 198zM365 1083l211 428l45 -4q12 -2 37.5 -7t32.5 -5q25 -4 69 -12q37 -6 43 -8l31 -56l-381 -379q-10 0 -23 7l-24 12l-25 12q-12 8 -16 12z" />
<glyph unicode="&#x108;" horiz-adv-x="1142" d="M55 586q0 162 49.5 291t135.5 221q90 96 200 143q117 49 250 49q61 0 109 -8q35 -6 100 -22q47 -12 88 -31q45 -20 66 -39q2 -2 -2 -19q-2 -12 -13 -34q-6 -14 -22 -47q-8 -16 -24.5 -45t-24.5 -41q-12 -18 -21 -27l-63 14q-51 86 -117 127q-63 39 -143 39q-41 0 -72 -10 q-39 -12 -72 -37q-35 -25 -65 -66q-31 -40 -56 -98q-25 -57 -36 -139q-14 -94 -15 -184q0 -125 35 -219.5t86 -151.5q55 -61 121 -88q70 -29 133 -29q27 0 63 6q31 6 80 23q43 15 93 43q49 27 102 72q2 -2 6 -7q4 -6 6 -8q8 -8 15 -20q8 -10 14 -21q4 -6 10 -12 q-61 -61 -127 -111q-68 -51 -123 -75q-68 -31 -119 -41q-68 -14 -116 -15q-101 0 -197 43q-100 45 -170 121q-72 78 -119 193q-45 110 -45 260zM297 1419l279 323h122l277 -323q-16 -25 -27 -35q-18 -18 -30 -25l-281 162l-281 -162q-12 6 -30 25l-9.5 10t-10.5 13.5 t-9 11.5z" />
<glyph unicode="&#x109;" horiz-adv-x="931" d="M66 444q0 109 38 201q37 88 113 164q70 70 170 111t217 41q33 0 76 -7q29 -4 82 -16q35 -8 72 -25q35 -16 51 -32q0 -12 -2 -26.5t-11 -47.5q-6 -25 -16 -55l-7 -27.5t-9 -28.5q-12 -33 -19 -47q-8 -20 -14 -28l-68 10q-35 102 -82 151q-49 53 -127 54q-45 0 -84 -21 q-43 -23 -71 -63q-33 -47 -51 -113q-18 -68 -19 -164q0 -84 21 -143q25 -68 55 -105q39 -47 84 -65q55 -25 102 -25q20 0 54 4q25 2 57 17q18 8 70 35q40 22 92 61l53 -64q-68 -78 -121 -118q-57 -45 -104 -66q-53 -23 -95 -29q-61 -8 -94 -8q-84 0 -155 33q-74 33 -131 94 q-59 61 -93 150q-34 92 -34 198zM166 1108l278 385h138l268 -385q-2 -4 -11.5 -18.5t-15.5 -22.5q-12 -18 -30 -27l-281 224l-281 -224q-20 10 -34 27l-16.5 21.5t-14.5 19.5z" />
<glyph unicode="&#x10a;" horiz-adv-x="1142" d="M55 586q0 162 49.5 291t135.5 221q90 96 200 143q117 49 250 49q61 0 109 -8q35 -6 100 -22q47 -12 88 -31q45 -20 66 -39q2 -2 -2 -19q-2 -12 -13 -34q-6 -14 -22 -47q-8 -16 -24.5 -45t-24.5 -41q-12 -18 -21 -27l-63 14q-51 86 -117 127q-63 39 -143 39q-41 0 -72 -10 q-39 -12 -72 -37q-35 -25 -65 -66q-31 -40 -56 -98q-25 -57 -36 -139q-14 -94 -15 -184q0 -125 35 -219.5t86 -151.5q55 -61 121 -88q70 -29 133 -29q27 0 63 6q31 6 80 23q43 15 93 43q49 27 102 72q2 -2 6 -7q4 -6 6 -8q8 -8 15 -20q8 -10 14 -21q4 -6 10 -12 q-61 -61 -127 -111q-68 -51 -123 -75q-68 -31 -119 -41q-68 -14 -116 -15q-101 0 -197 43q-100 45 -170 121q-72 78 -119 193q-45 110 -45 260zM498 1493q0 31 14 67.5t33 56.5q20 23 51 37q33 14 59 15q55 0 86 -31t31 -90q0 -39 -12 -70q-12 -33 -32.5 -55.5t-49.5 -38.5 q-27 -14 -62 -14q-57 0 -87.5 31t-30.5 92z" />
<glyph unicode="&#x10b;" horiz-adv-x="931" d="M66 444q0 109 38 201q37 88 113 164q70 70 170 111t217 41q33 0 76 -7q29 -4 82 -16q35 -8 72 -25q35 -16 51 -32q0 -12 -2 -26.5t-11 -47.5q-6 -25 -16 -55l-7 -27.5t-9 -28.5q-12 -33 -19 -47q-8 -20 -14 -28l-68 10q-35 102 -82 151q-49 53 -127 54q-45 0 -84 -21 q-43 -23 -71 -63q-33 -47 -51 -113q-18 -68 -19 -164q0 -84 21 -143q25 -68 55 -105q39 -47 84 -65q55 -25 102 -25q20 0 54 4q25 2 57 17q18 8 70 35q40 22 92 61l53 -64q-68 -78 -121 -118q-57 -45 -104 -66q-53 -23 -95 -29q-61 -8 -94 -8q-84 0 -155 33q-74 33 -131 94 q-59 61 -93 150q-34 92 -34 198zM373 1212q0 33 14 70q12 33 33 55q23 27 51 39q27 12 59 13q57 0 86 -29q31 -31 31 -92q0 -39 -12 -70q-12 -33 -33 -55q-16 -18 -49 -37q-27 -14 -62 -14q-57 0 -87.5 30.5t-30.5 89.5z" />
<glyph unicode="&#x10c;" horiz-adv-x="1142" d="M55 586q0 162 49.5 291t135.5 221q90 96 200 143q117 49 250 49q61 0 109 -8q35 -6 100 -22q47 -12 88 -31q45 -20 66 -39q2 -2 -2 -19q-2 -12 -13 -34q-6 -14 -22 -47q-8 -16 -24.5 -45t-24.5 -41q-12 -18 -21 -27l-63 14q-51 86 -117 127q-63 39 -143 39q-41 0 -72 -10 q-39 -12 -72 -37q-35 -25 -65 -66q-31 -40 -56 -98q-25 -57 -36 -139q-14 -94 -15 -184q0 -125 35 -219.5t86 -151.5q55 -61 121 -88q70 -29 133 -29q27 0 63 6q31 6 80 23q43 15 93 43q49 27 102 72q2 -2 6 -7q4 -6 6 -8q8 -8 15 -20q8 -10 14 -21q4 -6 10 -12 q-61 -61 -127 -111q-68 -51 -123 -75q-68 -31 -119 -41q-68 -14 -116 -15q-101 0 -197 43q-100 45 -170 121q-72 78 -119 193q-45 110 -45 260zM297 1712q20 29 29 37q18 18 30 24l283 -186l279 186q12 -6 30 -24q12 -12 27 -37l-268 -328h-138z" />
<glyph unicode="&#x10d;" horiz-adv-x="931" d="M66 444q0 109 38 201q37 88 113 164q70 70 170 111t217 41q33 0 76 -7q29 -4 82 -16q35 -8 72 -25q35 -16 51 -32q0 -12 -2 -26.5t-11 -47.5q-6 -25 -16 -55l-7 -27.5t-9 -28.5q-12 -33 -19 -47q-8 -20 -14 -28l-68 10q-35 102 -82 151q-49 53 -127 54q-45 0 -84 -21 q-43 -23 -71 -63q-33 -47 -51 -113q-18 -68 -19 -164q0 -84 21 -143q25 -68 55 -105q39 -47 84 -65q55 -25 102 -25q20 0 54 4q25 2 57 17q18 8 70 35q40 22 92 61l53 -64q-68 -78 -121 -118q-57 -45 -104 -66q-53 -23 -95 -29q-61 -8 -94 -8q-84 0 -155 33q-74 33 -131 94 q-59 61 -93 150q-34 92 -34 198zM168 1446q4 8 27 39q14 18 32 28l281 -219l279 219q18 -8 34 -28q31 -35 33 -39l-278 -381h-138z" />
<glyph unicode="&#x10e;" horiz-adv-x="1302" d="M31 1231q18 4 116 22q14 2 142 19q96 12 149 14q98 4 140 4q160 0 274 -41q121 -43 201 -121q82 -80 125 -192.5t43 -259.5q0 -125 -25 -223q-23 -90 -70 -174q-41 -76 -102 -129q-57 -51 -127 -87q-59 -31 -139 -47q-76 -16 -140 -16h-575v74q70 16 102 30q35 16 35 29 v1024l-137 -18zM430 168q0 -10 2 -14q4 -14 10 -21q8 -8 27 -14q14 -4 43 -8q37 -4 70 -5q29 0 80 15q41 12 86 41q41 27 77 69q39 45 66 103q27 55 45 133q16 68 16 170q0 131 -28 235q-27 96 -86 172q-51 66 -140 105q-78 35 -192 35h-37q-6 0 -18.5 -1t-20.5 -1v-1014z M250 1712q20 29 29 37q18 18 30 24l283 -186l279 186q12 -6 30 -24q12 -12 27 -37l-268 -328h-138z" />
<glyph unicode="&#x110;" horiz-adv-x="1302" d="M29 639q2 4 6 20q4 12 8 27q2 8 5 16.5t5 12.5q2 6 5 11t3 9h119v422l-137 -18l-12 92q18 4 116 22q14 2 142 19q96 12 149 14q98 4 140 4q160 0 274 -41q121 -43 201 -121q82 -80 125 -192.5t43 -259.5q0 -125 -25 -223q-23 -90 -70 -174q-41 -76 -102 -129 q-57 -51 -127 -87q-59 -31 -139 -47q-76 -16 -140 -16h-575v74q70 16 102 30q35 16 35 29v481h-131zM430 168q0 -10 2 -14q4 -14 10 -21q8 -8 27 -14q14 -4 43 -8q37 -4 70 -5q29 0 80 15q41 12 86 41q41 27 77 69q39 45 66 103q27 55 45 133q16 68 16 170q0 131 -28 235 q-27 96 -86 172q-51 66 -140 105q-78 35 -192 35h-37q-6 0 -18.5 -1t-20.5 -1v-447h242l24 -22l-37 -99h-229v-446z" />
<glyph unicode="&#x111;" horiz-adv-x="1146" d="M66 444q0 104 34 193q39 100 101 166q66 72 153 115q89 43 197 43q47 0 94 -13q49 -12 100 -47v213h-288l-25 23q0 2 3 9t5 11l9 29q2 4 5 13t5 13q8 16 10 23h276v25q0 57 -2 77q-2 29 -16 45q-12 16 -41 23q-33 8 -78 10v70q109 12 199 31q98 20 139 34l39 -37v-278 h143l23 -27l-35 -94h-131v-815q0 -12 1 -31.5t1 -27.5q0 -18 4 -39q2 -10 6 -23q2 -8 10.5 -12t14.5 -4h18q4 0 29 8t43 16l29 -71q-61 -41 -92 -58q-61 -33 -88 -45q-33 -16 -72 -30q-31 -12 -45 -13q-70 0 -92 176q-57 -57 -84 -79q-43 -35 -76 -56q-37 -23 -76 -30 q-45 -10 -86 -11q-68 0 -131 33q-70 37 -119 94q-55 63 -84 150q-30 89 -30 198zM305 498q0 -82 21 -142q25 -68 51 -106q33 -45 74 -67.5t81 -22.5q53 0 105 28q59 33 108 80v439q-37 59 -90 89.5t-120 30.5q-49 0 -93 -18q-39 -16 -71 -59q-31 -39 -49 -103 q-17 -55 -17 -149z" />
<glyph unicode="&#x112;" horiz-adv-x="1075" d="M43 0v74q70 16 102 30q35 16 35 29v991q0 12 -33 31q-31 16 -104 33v72h881l41 -31q-2 -23 -7 -66q-2 -27 -10 -80t-12 -77q-6 -37 -12 -56h-76q-6 100 -25 142q-20 49 -57 49h-336v-406h397l33 -35q-2 -4 -8 -15t-10 -17l-25 -37q-8 -12 -24 -33q-12 -15 -25 -25 q-18 18 -31 25q-31 16 -41 18q-27 8 -53 11q-20 2 -72 2h-141v-445q0 -14 6 -26q4 -10 31 -21q22 -9 61 -12q53 -4 107 -4h98q49 0 78 10q35 12 57 35q25 27 47 65q14 29 41 99l72 -27q-4 -61 -8 -90q-2 -14 -5 -45t-5 -45q-6 -39 -13 -76q-2 -12 -6 -28.5t-4 -18.5h-944z M121 1486q4 16 8 28.5t17 37.5q4 10 9 19.5l9 17.5q2 6 6 15t6 13h764l33 -30q-2 -4 -6 -14.5t-6 -16.5q-2 -4 -17 -39l-16 -37q-8 -18 -12 -26h-764z" />
<glyph unicode="&#x113;" horiz-adv-x="989" d="M66 442q0 137 51 242q55 113 153 182q23 16 60 37q29 16 67 29q49 16 74 20q49 8 76 9q96 0 170 -35q70 -33 117 -90q49 -57 69 -131q23 -78 23 -154q-14 -14 -27 -23q-14 -10 -37 -22q-2 -2 -16.5 -10.5t-22.5 -12.5t-21.5 -8t-15.5 -6h-473q4 -84 19 -133 q16 -57 51 -105q33 -47 76 -69q46 -25 104 -25q20 0 62 4q25 2 63 17q37 14 78 37q57 33 102 63q8 -4 15 -10q8 -8 16 -21q4 -6 7 -10t5 -8t4.5 -8t4.5 -6q-63 -68 -123 -113t-107 -70q-45 -23 -100 -33t-111 -10q-80 0 -160 35q-74 33 -131 96q-55 61 -90 150 q-32 83 -32 192zM315 580h334q23 0 31 8q6 6 6 28q0 41 -6 68q-10 45 -29 74q-20 33 -55 57.5t-84 24.5t-82 -18.5t-57 -51.5q-25 -35 -37 -82q-17 -63 -21 -108zM121 1206q6 25 8 31q4 12 17 37q4 10 9 19.5l9 17.5q2 6 6 14l6 12h764l33 -30q-2 -4 -6 -13.5t-6 -15.5 q-2 -4 -17 -39l-16 -37q-8 -18 -12 -26h-764z" />
<glyph unicode="&#x114;" horiz-adv-x="1075" d="M43 0v74q70 16 102 30q35 16 35 29v991q0 12 -33 31q-31 16 -104 33v72h881l41 -31q-2 -23 -7 -66q-2 -27 -10 -80t-12 -77q-6 -37 -12 -56h-76q-6 100 -25 142q-20 49 -57 49h-336v-406h397l33 -35q-2 -4 -8 -15t-10 -17l-25 -37q-8 -12 -24 -33q-12 -15 -25 -25 q-18 18 -31 25q-31 16 -41 18q-27 8 -53 11q-20 2 -72 2h-141v-445q0 -14 6 -26q4 -10 31 -21q22 -9 61 -12q53 -4 107 -4h98q49 0 78 10q35 12 57 35q25 27 47 65q14 29 41 99l72 -27q-4 -61 -8 -90q-2 -14 -5 -45t-5 -45q-6 -39 -13 -76q-2 -12 -6 -28.5t-4 -18.5h-944z M181 1687q4 6 16 18l20 21q8 8 21 16l18 13q23 -43 60 -80q33 -33 71 -56q41 -25 76 -34q33 -10 72 -11q41 0 74 11q41 12 75.5 32.5t71.5 57.5t59 80l19 -13q18 -12 22 -16q2 -2 8.5 -10t10.5 -11q12 -12 16 -18q-33 -86 -69 -139q-39 -55 -86 -94q-41 -33 -97 -54 q-49 -18 -100 -18q-53 0 -106 18q-57 20 -99 54q-43 35 -84 94q-36 53 -69 139z" />
<glyph unicode="&#x115;" horiz-adv-x="989" d="M66 442q0 137 51 242q55 113 153 182q23 16 60 37q29 16 67 29q49 16 74 20q49 8 76 9q96 0 170 -35q70 -33 117 -90q49 -57 69 -131q23 -78 23 -154q-14 -14 -27 -23q-14 -10 -37 -22q-2 -2 -16.5 -10.5t-22.5 -12.5t-21.5 -8t-15.5 -6h-473q4 -84 19 -133 q16 -57 51 -105q33 -47 76 -69q46 -25 104 -25q20 0 62 4q25 2 63 17q37 14 78 37q57 33 102 63q8 -4 15 -10q8 -8 16 -21q4 -6 7 -10t5 -8t4.5 -8t4.5 -6q-63 -68 -123 -113t-107 -70q-45 -23 -100 -33t-111 -10q-80 0 -160 35q-74 33 -131 96q-55 61 -90 150 q-32 83 -32 192zM315 580h334q23 0 31 8q6 6 6 28q0 41 -6 68q-10 45 -29 74q-20 33 -55 57.5t-84 24.5t-82 -18.5t-57 -51.5q-25 -35 -37 -82q-17 -63 -21 -108zM181 1368q4 6 16 18l20 21q8 8 21 16l18 13q23 -43 60 -80q33 -33 71 -56q41 -25 76 -34q33 -10 72 -11 q41 0 74 11q41 12 75.5 32.5t71.5 57.5t59 80l19 -13q18 -12 22 -16q2 -2 8.5 -10t10.5 -11q12 -12 16 -18q-33 -86 -69 -139q-39 -55 -86 -94q-41 -33 -97 -54q-49 -18 -100 -18q-53 0 -106 18q-57 20 -99 54q-43 35 -84 94q-36 53 -69 139z" />
<glyph unicode="&#x116;" horiz-adv-x="1075" d="M43 0v74q70 16 102 30q35 16 35 29v991q0 12 -33 31q-31 16 -104 33v72h881l41 -31q-2 -23 -7 -66q-2 -27 -10 -80t-12 -77q-6 -37 -12 -56h-76q-6 100 -25 142q-20 49 -57 49h-336v-406h397l33 -35q-2 -4 -8 -15t-10 -17l-25 -37q-8 -12 -24 -33q-12 -15 -25 -25 q-18 18 -31 25q-31 16 -41 18q-27 8 -53 11q-20 2 -72 2h-141v-445q0 -14 6 -26q4 -10 31 -21q22 -9 61 -12q53 -4 107 -4h98q49 0 78 10q35 12 57 35q25 27 47 65q14 29 41 99l72 -27q-4 -61 -8 -90q-2 -14 -5 -45t-5 -45q-6 -39 -13 -76q-2 -12 -6 -28.5t-4 -18.5h-944z M398 1493q0 31 14 67.5t33 56.5q20 23 51 37q33 14 59 15q55 0 86 -31t31 -90q0 -39 -12 -70q-12 -33 -32.5 -55.5t-49.5 -38.5q-27 -14 -62 -14q-57 0 -87.5 31t-30.5 92z" />
<glyph unicode="&#x117;" horiz-adv-x="989" d="M66 442q0 137 51 242q55 113 153 182q23 16 60 37q29 16 67 29q49 16 74 20q49 8 76 9q96 0 170 -35q70 -33 117 -90q49 -57 69 -131q23 -78 23 -154q-14 -14 -27 -23q-14 -10 -37 -22q-2 -2 -16.5 -10.5t-22.5 -12.5t-21.5 -8t-15.5 -6h-473q4 -84 19 -133 q16 -57 51 -105q33 -47 76 -69q46 -25 104 -25q20 0 62 4q25 2 63 17q37 14 78 37q57 33 102 63q8 -4 15 -10q8 -8 16 -21q4 -6 7 -10t5 -8t4.5 -8t4.5 -6q-63 -68 -123 -113t-107 -70q-45 -23 -100 -33t-111 -10q-80 0 -160 35q-74 33 -131 96q-55 61 -90 150 q-32 83 -32 192zM315 580h334q23 0 31 8q6 6 6 28q0 41 -6 68q-10 45 -29 74q-20 33 -55 57.5t-84 24.5t-82 -18.5t-57 -51.5q-25 -35 -37 -82q-17 -63 -21 -108zM398 1212q0 33 14 70q12 33 33 55q23 27 51 39q27 12 59 13q57 0 86 -29q31 -31 31 -92q0 -39 -12 -70 q-12 -33 -33 -55q-16 -18 -49 -37q-27 -14 -62 -14q-57 0 -87.5 30.5t-30.5 89.5z" />
<glyph unicode="&#x11a;" horiz-adv-x="1075" d="M43 0v74q70 16 102 30q35 16 35 29v991q0 12 -33 31q-31 16 -104 33v72h881l41 -31q-2 -23 -7 -66q-2 -27 -10 -80t-12 -77q-6 -37 -12 -56h-76q-6 100 -25 142q-20 49 -57 49h-336v-406h397l33 -35q-2 -4 -8 -15t-10 -17l-25 -37q-8 -12 -24 -33q-12 -15 -25 -25 q-18 18 -31 25q-31 16 -41 18q-27 8 -53 11q-20 2 -72 2h-141v-445q0 -14 6 -26q4 -10 31 -21q22 -9 61 -12q53 -4 107 -4h98q49 0 78 10q35 12 57 35q25 27 47 65q14 29 41 99l72 -27q-4 -61 -8 -90q-2 -14 -5 -45t-5 -45q-6 -39 -13 -76q-2 -12 -6 -28.5t-4 -18.5h-944z M197 1712q20 29 29 37q18 18 30 24l283 -186l279 186q12 -6 30 -24q12 -12 27 -37l-268 -328h-138z" />
<glyph unicode="&#x11b;" horiz-adv-x="989" d="M66 442q0 137 51 242q55 113 153 182q23 16 60 37q29 16 67 29q49 16 74 20q49 8 76 9q96 0 170 -35q70 -33 117 -90q49 -57 69 -131q23 -78 23 -154q-14 -14 -27 -23q-14 -10 -37 -22q-2 -2 -16.5 -10.5t-22.5 -12.5t-21.5 -8t-15.5 -6h-473q4 -84 19 -133 q16 -57 51 -105q33 -47 76 -69q46 -25 104 -25q20 0 62 4q25 2 63 17q37 14 78 37q57 33 102 63q8 -4 15 -10q8 -8 16 -21q4 -6 7 -10t5 -8t4.5 -8t4.5 -6q-63 -68 -123 -113t-107 -70q-45 -23 -100 -33t-111 -10q-80 0 -160 35q-74 33 -131 96q-55 61 -90 150 q-32 83 -32 192zM315 580h334q23 0 31 8q6 6 6 28q0 41 -6 68q-10 45 -29 74q-20 33 -55 57.5t-84 24.5t-82 -18.5t-57 -51.5q-25 -35 -37 -82q-17 -63 -21 -108zM192 1446q4 8 27 39q14 18 32 28l281 -219l279 219q18 -8 34 -28q31 -35 33 -39l-278 -381h-138z" />
<glyph unicode="&#x11c;" horiz-adv-x="1230" d="M55 582q0 162 54 297q51 131 147 223q92 90 219 139q126 49 277 49q18 0 79 -8q39 -6 93 -18q33 -8 94 -33q47 -18 78 -43q4 -2 0 -19q-2 -12 -13 -34q-4 -8 -12 -21.5t-12 -21.5q-6 -10 -12.5 -22.5t-14.5 -25.5q-4 -8 -14 -22t-12 -16q-4 -6 -23 -25l-61 14 q-27 39 -68 80q-37 37 -70 53q-43 23 -73 29q-35 8 -82 8q-23 0 -60 -10q-29 -8 -69 -35q-37 -25 -70 -63q-34 -40 -61 -99q-23 -47 -43 -137q-18 -80 -19 -184q0 -127 33 -229q33 -98 82 -158q52 -61 117 -92q63 -31 137 -31q51 0 98 10q45 10 80 29v303q0 10 -4 23 q-4 10 -21 20q-23 12 -49 20q-55 14 -88 21v72h498v-72q-55 -14 -78 -37q-18 -18 -18 -47v-299q-66 -55 -140 -100q-63 -39 -120 -62q-43 -16 -107 -28q-55 -10 -94 -11q-68 0 -144 17q-63 14 -135 51q-68 35 -118 84q-59 55 -97 119q-40 68 -61 153q-23 91 -23 189z M317 1419l279 323h122l277 -323q-16 -25 -27 -35q-18 -18 -30 -25l-281 162l-281 -162q-12 6 -30 25l-9.5 10t-10.5 13.5t-9 11.5z" />
<glyph unicode="&#x11d;" horiz-adv-x="1058" d="M14 -221q0 25 11 51q8 20 38 55q25 27 78 64q45 31 125 76q-115 47 -114 98q0 8 10 29q9 18 31 43q14 16 57 55q27 25 84 63q-57 16 -103 43q-43 27 -77 64q-31 35 -52 84q-16 41 -16 98q0 78 35 139q37 66 96 113q66 51 139 78q82 29 166 29q61 0 129 -21 q57 -16 109 -49q94 14 158 33q71 22 110 37l29 -37q0 -2 -10 -27l-13 -31q-4 -10 -16 -30q-6 -10 -19 -27q-45 -8 -67 -10q-31 -2 -78 -6q16 -27 33 -74q10 -31 10 -78q0 -78 -33 -141q-33 -61 -92 -109q-61 -49 -131 -72q-74 -25 -158 -24h-10q-41 -37 -49 -57 q-10 -25 -10 -27q0 -9 6 -18q4 -6 29 -17q12 -6 67 -16q72 -14 123 -21q133 -18 195 -35q74 -20 122 -53q47 -31 64 -67q18 -41 18 -88q0 -45 -22 -95q-20 -45 -60 -90q-43 -49 -88 -82q-47 -33 -110 -63q-55 -27 -125 -43.5t-127 -16.5q-53 0 -109 7q-66 8 -112 20 q-49 14 -103 37q-51 23 -86 51q-39 33 -59 70q-23 41 -23 88zM256 -182q0 -35 23 -64q27 -33 67 -53q53 -27 103 -37q68 -14 126 -14q61 0 103 14q43 16 69.5 39t43.5 57q14 29 14 68q0 23 -8 39q-8 14 -37 35q-27 16 -76 32q-39 12 -129 23q-51 6 -88 14l-38 7.5t-42 9.5 q-29 -18 -72 -58q-31 -27 -41 -45q-14 -25 -16 -37q-2 -10 -2 -30zM315 659q0 -51 13 -94q12 -45 37 -78q27 -37 63 -53q39 -18 94 -18q33 0 55.5 10t47.5 35q16 16 30 57q12 35 13 82q0 53 -13 96q-8 33 -41 76q-27 37 -63 53q-45 20 -90 21q-27 0 -51.5 -12.5t-47 -35 t-34.5 -57.5q-13 -33 -13 -82zM180 1108l278 385h138l268 -385q-2 -4 -11.5 -18.5t-15.5 -22.5q-12 -18 -30 -27l-281 224l-281 -224q-20 10 -34 27l-16.5 21.5t-14.5 19.5z" />
<glyph unicode="&#x11e;" horiz-adv-x="1230" d="M55 582q0 162 54 297q51 131 147 223q92 90 219 139q126 49 277 49q18 0 79 -8q39 -6 93 -18q33 -8 94 -33q47 -18 78 -43q4 -2 0 -19q-2 -12 -13 -34q-4 -8 -12 -21.5t-12 -21.5q-6 -10 -12.5 -22.5t-14.5 -25.5q-4 -8 -14 -22t-12 -16q-4 -6 -23 -25l-61 14 q-27 39 -68 80q-37 37 -70 53q-43 23 -73 29q-35 8 -82 8q-23 0 -60 -10q-29 -8 -69 -35q-37 -25 -70 -63q-34 -40 -61 -99q-23 -47 -43 -137q-18 -80 -19 -184q0 -127 33 -229q33 -98 82 -158q52 -61 117 -92q63 -31 137 -31q51 0 98 10q45 10 80 29v303q0 10 -4 23 q-4 10 -21 20q-23 12 -49 20q-55 14 -88 21v72h498v-72q-55 -14 -78 -37q-18 -18 -18 -47v-299q-66 -55 -140 -100q-63 -39 -120 -62q-43 -16 -107 -28q-55 -10 -94 -11q-68 0 -144 17q-63 14 -135 51q-68 35 -118 84q-59 55 -97 119q-40 68 -61 153q-23 91 -23 189z M301 1687q4 6 16 18l20 21q8 8 21 16l18 13q23 -43 60 -80q33 -33 71 -56q41 -25 76 -34q33 -10 72 -11q41 0 74 11q41 12 75.5 32.5t71.5 57.5t59 80l19 -13q18 -12 22 -16q2 -2 8.5 -10t10.5 -11q12 -12 16 -18q-33 -86 -69 -139q-39 -55 -86 -94q-41 -33 -97 -54 q-49 -18 -100 -18q-53 0 -106 18q-57 20 -99 54q-43 35 -84 94q-36 53 -69 139z" />
<glyph unicode="&#x11f;" horiz-adv-x="1058" d="M14 -221q0 25 11 51q8 20 38 55q25 27 78 64q45 31 125 76q-115 47 -114 98q0 8 10 29q9 18 31 43q14 16 57 55q27 25 84 63q-57 16 -103 43q-43 27 -77 64q-31 35 -52 84q-16 41 -16 98q0 78 35 139q37 66 96 113q66 51 139 78q82 29 166 29q61 0 129 -21 q57 -16 109 -49q94 14 158 33q71 22 110 37l29 -37q0 -2 -10 -27l-13 -31q-4 -10 -16 -30q-6 -10 -19 -27q-45 -8 -67 -10q-31 -2 -78 -6q16 -27 33 -74q10 -31 10 -78q0 -78 -33 -141q-33 -61 -92 -109q-61 -49 -131 -72q-74 -25 -158 -24h-10q-41 -37 -49 -57 q-10 -25 -10 -27q0 -9 6 -18q4 -6 29 -17q12 -6 67 -16q72 -14 123 -21q133 -18 195 -35q74 -20 122 -53q47 -31 64 -67q18 -41 18 -88q0 -45 -22 -95q-20 -45 -60 -90q-43 -49 -88 -82q-47 -33 -110 -63q-55 -27 -125 -43.5t-127 -16.5q-53 0 -109 7q-66 8 -112 20 q-49 14 -103 37q-51 23 -86 51q-39 33 -59 70q-23 41 -23 88zM256 -182q0 -35 23 -64q27 -33 67 -53q53 -27 103 -37q68 -14 126 -14q61 0 103 14q43 16 69.5 39t43.5 57q14 29 14 68q0 23 -8 39q-8 14 -37 35q-27 16 -76 32q-39 12 -129 23q-51 6 -88 14l-38 7.5t-42 9.5 q-29 -18 -72 -58q-31 -27 -41 -45q-14 -25 -16 -37q-2 -10 -2 -30zM315 659q0 -51 13 -94q12 -45 37 -78q27 -37 63 -53q39 -18 94 -18q33 0 55.5 10t47.5 35q16 16 30 57q12 35 13 82q0 53 -13 96q-8 33 -41 76q-27 37 -63 53q-45 20 -90 21q-27 0 -51.5 -12.5t-47 -35 t-34.5 -57.5q-13 -33 -13 -82zM170 1368q4 6 16 18l20 21q8 8 21 16l18 13q23 -43 60 -80q33 -33 71 -56q41 -25 76 -34q33 -10 72 -11q41 0 74 11q41 12 75.5 32.5t71.5 57.5t59 80l19 -13q18 -12 22 -16q2 -2 8.5 -10t10.5 -11q12 -12 16 -18q-33 -86 -69 -139 q-39 -55 -86 -94q-41 -33 -97 -54q-49 -18 -100 -18q-53 0 -106 18q-57 20 -99 54q-43 35 -84 94q-36 53 -69 139z" />
<glyph unicode="&#x120;" horiz-adv-x="1230" d="M55 582q0 162 54 297q51 131 147 223q92 90 219 139q126 49 277 49q18 0 79 -8q39 -6 93 -18q33 -8 94 -33q47 -18 78 -43q4 -2 0 -19q-2 -12 -13 -34q-4 -8 -12 -21.5t-12 -21.5q-6 -10 -12.5 -22.5t-14.5 -25.5q-4 -8 -14 -22t-12 -16q-4 -6 -23 -25l-61 14 q-27 39 -68 80q-37 37 -70 53q-43 23 -73 29q-35 8 -82 8q-23 0 -60 -10q-29 -8 -69 -35q-37 -25 -70 -63q-34 -40 -61 -99q-23 -47 -43 -137q-18 -80 -19 -184q0 -127 33 -229q33 -98 82 -158q52 -61 117 -92q63 -31 137 -31q51 0 98 10q45 10 80 29v303q0 10 -4 23 q-4 10 -21 20q-23 12 -49 20q-55 14 -88 21v72h498v-72q-55 -14 -78 -37q-18 -18 -18 -47v-299q-66 -55 -140 -100q-63 -39 -120 -62q-43 -16 -107 -28q-55 -10 -94 -11q-68 0 -144 17q-63 14 -135 51q-68 35 -118 84q-59 55 -97 119q-40 68 -61 153q-23 91 -23 189z M518 1493q0 31 14 67.5t33 56.5q20 23 51 37q33 14 59 15q55 0 86 -31t31 -90q0 -39 -12 -70q-12 -33 -32.5 -55.5t-49.5 -38.5q-27 -14 -62 -14q-57 0 -87.5 31t-30.5 92z" />
<glyph unicode="&#x121;" horiz-adv-x="1058" d="M14 -221q0 25 11 51q8 20 38 55q25 27 78 64q45 31 125 76q-115 47 -114 98q0 8 10 29q9 18 31 43q14 16 57 55q27 25 84 63q-57 16 -103 43q-43 27 -77 64q-31 35 -52 84q-16 41 -16 98q0 78 35 139q37 66 96 113q66 51 139 78q82 29 166 29q61 0 129 -21 q57 -16 109 -49q94 14 158 33q71 22 110 37l29 -37q0 -2 -10 -27l-13 -31q-4 -10 -16 -30q-6 -10 -19 -27q-45 -8 -67 -10q-31 -2 -78 -6q16 -27 33 -74q10 -31 10 -78q0 -78 -33 -141q-33 -61 -92 -109q-61 -49 -131 -72q-74 -25 -158 -24h-10q-41 -37 -49 -57 q-10 -25 -10 -27q0 -9 6 -18q4 -6 29 -17q12 -6 67 -16q72 -14 123 -21q133 -18 195 -35q74 -20 122 -53q47 -31 64 -67q18 -41 18 -88q0 -45 -22 -95q-20 -45 -60 -90q-43 -49 -88 -82q-47 -33 -110 -63q-55 -27 -125 -43.5t-127 -16.5q-53 0 -109 7q-66 8 -112 20 q-49 14 -103 37q-51 23 -86 51q-39 33 -59 70q-23 41 -23 88zM256 -182q0 -35 23 -64q27 -33 67 -53q53 -27 103 -37q68 -14 126 -14q61 0 103 14q43 16 69.5 39t43.5 57q14 29 14 68q0 23 -8 39q-8 14 -37 35q-27 16 -76 32q-39 12 -129 23q-51 6 -88 14l-38 7.5t-42 9.5 q-29 -18 -72 -58q-31 -27 -41 -45q-14 -25 -16 -37q-2 -10 -2 -30zM315 659q0 -51 13 -94q12 -45 37 -78q27 -37 63 -53q39 -18 94 -18q33 0 55.5 10t47.5 35q16 16 30 57q12 35 13 82q0 53 -13 96q-8 33 -41 76q-27 37 -63 53q-45 20 -90 21q-27 0 -51.5 -12.5t-47 -35 t-34.5 -57.5q-13 -33 -13 -82zM387 1212q0 33 14 70q12 33 33 55q23 27 51 39q27 12 59 13q57 0 86 -29q31 -31 31 -92q0 -39 -12 -70q-12 -33 -33 -55q-16 -18 -49 -37q-27 -14 -62 -14q-57 0 -87.5 30.5t-30.5 89.5z" />
<glyph unicode="&#x124;" horiz-adv-x="1398" d="M43 0v74q70 16 102 30q35 16 35 29v991q0 12 -33 31q-31 16 -104 33v72h524v-72q-72 -16 -102 -33q-35 -18 -35 -31v-403h520v403q0 12 -32 31q-31 16 -105 33v72h524v-72q-72 -16 -102 -33q-35 -18 -35 -31v-991q0 -10 33 -29q25 -14 104 -30v-74h-524v74q70 16 102 30 q35 16 35 29v467h-520v-467q0 -10 33 -29q27 -14 104 -30v-74h-524zM350 1419l279 323h122l277 -323q-16 -25 -27 -35q-18 -18 -30 -25l-281 162l-281 -162q-12 6 -30 25l-9.5 10t-10.5 13.5t-9 11.5z" />
<glyph unicode="&#x125;" horiz-adv-x="1189" d="M47 0v74q74 20 100 30q33 12 33 29v1135q0 49 -2 65q-2 23 -16 37q-12 12 -39 19q-29 6 -76 12v69q10 2 48 7.5t55 9.5q10 2 38.5 7t42.5 9q49 12 72 21q2 0 30.5 10t43.5 16l43 -41v-727q106 88 215 136q101 43 178 43q37 0 84 -15q39 -12 69.5 -43t49 -80t18.5 -118 v-572q0 -6 6 -12q8 -8 23 -15q6 -2 19.5 -7t21.5 -7q27 -10 63 -18v-74h-503v74q78 20 102 32q29 14 29 27v440q0 61 -7 101q-6 35 -20 61q-14 25 -35 33q-25 10 -51 10q-57 0 -119 -37q-76 -45 -143 -102v-506q0 -14 35 -31q25 -10 98 -28v-74h-506zM266 1669l279 323h122 l277 -323q-16 -25 -27 -35q-18 -18 -30 -25l-281 162l-281 -162q-12 6 -30 25l-9.5 10t-10.5 13.5t-9 11.5z" />
<glyph unicode="&#x128;" horiz-adv-x="669" d="M63 0v74q70 16 103 30q35 16 35 29v991q0 12 -33 31q-31 16 -105 33v72h525v-72q-72 -16 -103 -33q-35 -18 -34 -31v-991q0 -10 32 -29q25 -14 105 -30v-74h-525zM-70 1394l45 90q27 53 58 92q35 45 73 72q41 29 86 29q43 0 88 -17q14 -6 78 -36q37 -20 72 -37 q37 -16 65 -17q43 0 78 29q34 28 68 86l78 -29l-45 -90q-20 -39 -60 -90q-35 -43 -71 -70q-41 -29 -89 -28q-39 0 -81 16q-27 10 -76 35l-74 37q-39 16 -74 16q-16 0 -41 -8q-18 -6 -34 -22q-27 -27 -33 -35q-31 -43 -35 -49z" />
<glyph unicode="&#x129;" horiz-adv-x="614" d="M63 0v74q72 16 101 30q31 14 31 29v514v84q0 31 -13 49q-10 14 -39 25q-14 4 -80 12v72q104 14 162 29q80 18 146 43h63v-828q0 -10 31 -29q25 -14 102 -30v-74h-504zM-78 1116l45 90q27 53 58 92q33 41 73.5 70t85.5 29q43 0 88 -17q14 -4 78 -37q12 -6 72 -34 q37 -16 65 -17q43 0 78 29q34 28 68 86l78 -31q-6 -14 -22.5 -45l-22.5 -43q-23 -45 -60 -92q-35 -43 -71 -70q-41 -29 -89 -28q-39 0 -81 16l-76 37q-49 25 -74 35q-39 16 -74 16q-23 0 -41 -6t-34 -22q-23 -23 -33 -37q-31 -43 -35 -50z" />
<glyph unicode="&#x12a;" horiz-adv-x="669" d="M63 0v74q70 16 103 30q35 16 35 29v991q0 12 -33 31q-31 16 -105 33v72h525v-72q-72 -16 -103 -33q-35 -18 -34 -31v-991q0 -10 32 -29q25 -14 105 -30v-74h-525zM19 1525l10 31q4 12 16 37l17 37q10 20 14 26h543l32 -30q-2 -4 -5 -14.5t-5 -14.5q0 -4 -16 -39 q-4 -10 -9.5 -19.5t-9.5 -17.5q-8 -18 -12 -26h-543z" />
<glyph unicode="&#x12b;" horiz-adv-x="614" d="M63 0v74q72 16 101 30q31 14 31 29v514v84q0 31 -13 49q-10 14 -39 25q-14 4 -80 12v72q104 14 162 29q80 18 146 43h63v-828q0 -10 31 -29q25 -14 102 -30v-74h-504zM9 1206l10 31q4 12 16 37l17 37q10 20 14 26h543l32 -30q-2 -4 -5 -14.5t-5 -14.5q0 -4 -16 -39 q-4 -10 -9.5 -19.5t-9.5 -17.5q-8 -18 -12 -26h-543z" />
<glyph unicode="&#x12c;" horiz-adv-x="669" d="M63 0v74q70 16 103 30q35 16 35 29v991q0 12 -33 31q-31 16 -105 33v72h525v-72q-72 -16 -103 -33q-35 -18 -34 -31v-991q0 -10 32 -29q25 -14 105 -30v-74h-525zM-30 1687q4 6 16 18l20 21q8 8 21 16l18 13q23 -43 60 -80q33 -33 71 -56q41 -25 76 -34q33 -10 72 -11 q41 0 74 11q41 12 75.5 32.5t71.5 57.5t59 80l19 -13q18 -12 22 -16q2 -2 8.5 -10t10.5 -11q12 -12 16 -18q-33 -86 -69 -139q-39 -55 -86 -94q-41 -33 -97 -54q-49 -18 -100 -18q-53 0 -106 18q-57 20 -99 54q-43 35 -84 94q-36 53 -69 139z" />
<glyph unicode="&#x12d;" horiz-adv-x="614" d="M63 0v74q72 16 101 30q31 14 31 29v514v84q0 31 -13 49q-10 14 -39 25q-14 4 -80 12v72q104 14 162 29q80 18 146 43h63v-828q0 -10 31 -29q25 -14 102 -30v-74h-504zM-41 1368q4 6 16 18l20 21q8 8 21 16l18 13q23 -43 60 -80q33 -33 71 -56q41 -25 76 -34 q33 -10 72 -11q41 0 74 11q41 12 75.5 32.5t71.5 57.5t59 80l19 -13q18 -12 22 -16q2 -2 8.5 -10t10.5 -11q12 -12 16 -18q-33 -86 -69 -139q-39 -55 -86 -94q-41 -33 -97 -54q-49 -18 -100 -18q-53 0 -106 18q-57 20 -99 54q-43 35 -84 94q-36 53 -69 139z" />
<glyph unicode="&#x130;" horiz-adv-x="669" d="M63 0v74q70 16 103 30q35 16 35 29v991q0 12 -33 31q-31 16 -105 33v72h525v-72q-72 -16 -103 -33q-35 -18 -34 -31v-991q0 -10 32 -29q25 -14 105 -30v-74h-525zM187 1493q0 31 14 67.5t33 56.5q20 23 51 37q33 14 59 15q55 0 86 -31t31 -90q0 -39 -12 -70 q-12 -33 -32.5 -55.5t-49.5 -38.5q-27 -14 -62 -14q-57 0 -87.5 31t-30.5 92z" />
<glyph unicode="&#x131;" horiz-adv-x="614" d="M63 0v74q72 16 101 30q31 14 31 29v514v84q0 31 -13 49q-10 14 -39 25q-14 4 -80 12v72q104 14 162 29q80 18 146 43h63v-828q0 -10 31 -29q25 -14 102 -30v-74h-504z" />
<glyph unicode="&#x132;" horiz-adv-x="1353" d="M63 0v74q70 16 103 30q35 16 35 29v991q0 12 -33 31q-31 16 -105 33v72h525v-72q-72 -16 -103 -33q-35 -18 -34 -31v-991q0 -10 32 -29q25 -14 105 -30v-74h-525zM406 -324q0 14 20 37q22 25 49 49q37 33 56 48q25 18 43 26q55 -49 102 -67.5t86 -18.5q27 0 51 12 q29 14 47 50q20 37 33 110q12 70 13 189v1013q0 8 -7 15q-4 4 -28 14q-14 6 -56 16q-37 9 -98 19v72h576v-72q-72 -16 -103 -33q-35 -18 -35 -31v-942q0 -104 -22 -188q-18 -68 -57 -135q-35 -61 -76 -99q-63 -59 -80 -71q-33 -25 -62 -41q-45 -25 -69.5 -35t-73.5 -23 q-33 -8 -70 -8q-41 0 -88 10q-45 10 -77 25q-20 10 -54 33q-20 14 -20 26z" />
<glyph unicode="&#x133;" horiz-adv-x="1204" d="M63 0v74q72 16 101 30q31 14 31 29v514v84q0 31 -13 49q-10 14 -39 25q-14 4 -80 12v72q104 14 162 29q80 18 146 43h63v-828q0 -10 31 -29q25 -14 102 -30v-74h-504zM168 1221q0 34 12 61q10 25 37 47q20 18 53 31q25 10 66 10q27 0 51 -6q20 -4 43 -21q18 -12 31 -32 q12 -22 12 -49q0 -37 -12 -64q-8 -18 -37 -47q-16 -16 -53 -31q-27 -10 -66 -10q-29 0 -53 6q-27 6 -43 21q-20 16 -30.5 34.5t-10.5 49.5zM325 -401q0 12 23 39q29 35 49 51q4 4 57 45q31 25 43 28q10 -14 39 -34q27 -18 47 -27q33 -12 49.5 -16t40.5 -4q27 0 50 14 q27 16 43 53q20 43 28 111q10 78 10 184v604q0 18 -1 46t-1 36q0 31 -12 49.5t-39 26.5q-14 4 -80 12v72q20 2 57 8l36 6q49 8 73 15q10 4 33 10t35 10l71 23h68v-855q0 -119 -20 -194q-23 -86 -54 -135q-34 -55 -73 -92q-53 -49 -80 -70q-37 -29 -60 -41q-45 -25 -67.5 -35 t-67.5 -22q-37 -10 -61 -11q-35 0 -82 11q-41 8 -76 24q-34 15 -55 31q-23 17 -23 27zM780 1221q0 34 12 61q10 25 37 47q20 18 53 31q27 10 66 10q27 0 51 -6q23 -6 45 -21q16 -10 29 -32q12 -22 12 -49q0 -37 -12 -64q-10 -23 -35 -47q-16 -16 -53 -31q-27 -10 -68 -10 q-27 0 -51 6q-29 8 -45 21q-20 16 -30.5 34.5t-10.5 49.5z" />
<glyph unicode="&#x139;" horiz-adv-x="1042" d="M43 0v74q70 16 102 30q35 16 35 29v991q0 12 -33 31q-31 16 -104 33v72h524v-72q-72 -16 -102 -33q-35 -18 -35 -31v-929q0 -23 8 -33q10 -14 30.5 -22.5t55.5 -14.5q25 -4 92 -4h113q53 0 78 10q35 14 55 35q25 25 43 65q23 51 41 99l74 -27q-2 -29 -10 -90 q-2 -14 -5.5 -45t-5.5 -45l-12 -76q-2 -10 -5 -26.5t-3 -20.5h-936zM297 1427l364 340l51 -29q29 -16 54 -33q4 -2 21 -12t26 -16q14 -10 26 -23l11 -53l-486 -242q-20 10 -35 27q-6 8 -17 21.5t-15 19.5z" />
<glyph unicode="&#x13a;" horiz-adv-x="614" d="M53 0v74q14 2 70 14q20 4 45 14q12 6 20 17q6 8 7 14v1133q0 53 -5 69q-6 29 -20 39q-16 14 -39 17q-8 2 -30.5 5l-37.5 5v69q18 2 50 7.5l43 7.5q29 4 82 16t77 21q8 2 76 28l43 -41v-1376q0 -6 8.5 -14t22.5 -17q12 -6 45 -14q57 -12 68 -14v-74h-525zM115 1747 l364 340l51 -29q29 -16 54 -33q4 -2 21 -12t26 -16q14 -10 26 -23l11 -53l-486 -242q-20 10 -35 27q-6 8 -17 21.5t-15 19.5z" />
<glyph unicode="&#x141;" horiz-adv-x="1042" d="M25 428q4 20 8 33q2 6 5 18.5t5 18.5q2 8 8 20t6 14q6 15 13 25l110 55v512q0 12 -33 31q-31 16 -104 33v72h524v-72q-72 -16 -102 -33q-35 -18 -35 -31v-387l285 146l26 -27l-8 -31q-2 -6 -5 -17t-5 -17.5t-7 -17.5t-7 -15q-2 -6 -7.5 -15.5t-7.5 -11.5l-264 -133v-403 q0 -23 8 -33q10 -14 30.5 -22.5t55.5 -14.5q25 -4 92 -4h113q53 0 78 10q35 14 55 35q25 25 43 65q23 51 41 99l74 -27q-2 -29 -10 -90q-2 -14 -5.5 -45t-5.5 -45l-12 -76q-2 -10 -5 -26.5t-3 -20.5h-936v74q70 16 102 30q35 16 35 29v336l-129 -63z" />
<glyph unicode="&#x142;" horiz-adv-x="649" d="M37 532q0 2 2 15.5t4 21.5l12 43q8 29 13 41q2 6 14 31l131 92v498q0 53 -4 69q-6 29 -21 39q-16 14 -41 17q-8 2 -30.5 5l-36.5 5v70q18 2 50 7t42 7q35 4 84 16q47 10 76 21q25 8 78 29l43 -43v-574l151 109l27 -25q-4 -20 -8 -37l-13 -41q-2 -8 -7 -21.5t-7 -17.5 q-8 -25 -12 -32l-131 -93v-651q0 -6 8 -14q6 -8 22 -17q12 -8 43 -14q53 -12 70 -14v-74h-526v74q20 2 71 14q16 4 43 14q16 6 23 17q6 8 6 14v483l-152 -104z" />
<glyph unicode="&#x143;" horiz-adv-x="1357" d="M43 0v74q76 10 104 26q33 20 33 33v981q-63 61 -137 74v72h279q18 0 24 -3q14 -4 21 -10q4 -4 20 -24l8 -11.5t9.5 -11.5t13.5 -18l612 -848v790q0 6 -6 14.5t-23 18.5q-10 6 -40 17q-23 8 -68 14v72h426v-72q-66 -8 -107 -31q-33 -18 -32 -33v-1155q-98 10 -154 39 q-61 33 -86 66l-610 846v-787q0 -2 8 -14q4 -4 22 -17q2 0 43 -16q10 -4 66 -12v-74h-426zM480 1427l364 340l51 -29q29 -16 54 -33q4 -2 21 -12t26 -16q14 -10 26 -23l11 -53l-486 -242q-20 10 -35 27q-6 8 -17 21.5t-15 19.5z" />
<glyph unicode="&#x144;" horiz-adv-x="1189" d="M47 0v74q74 20 100 30q33 12 33 29v555q0 14 -1 35.5t-1 28.5q0 23 -12 34q-14 14 -39 21q-8 2 -80 10v72q14 2 44 5t46 5q33 4 80 16q49 12 74 21q63 20 71 25l44 -43l10 -144q113 98 219 144q101 43 178 43q37 0 84 -15q39 -12 69.5 -43t49 -80t18.5 -118v-572 q0 -6 6 -12q8 -8 23 -15q6 -2 19.5 -7t21.5 -7q27 -10 63 -18v-74h-503v74q78 20 102 32q29 14 29 27v455q0 55 -7 92q-6 41 -16 57q-12 23 -33 31q-25 10 -49 10q-23 0 -51 -6q-18 -4 -59 -22q-29 -12 -72 -43q-33 -23 -88 -68v-506q0 -14 35 -31q25 -10 98 -28v-74h-506z M461 1083l211 428l45 -4q12 -2 37.5 -7t32.5 -5q25 -4 69 -12q37 -6 43 -8l31 -56l-381 -379q-10 0 -23 7l-24 12l-25 12q-12 8 -16 12z" />
<glyph unicode="&#x147;" horiz-adv-x="1357" d="M43 0v74q76 10 104 26q33 20 33 33v981q-63 61 -137 74v72h279q18 0 24 -3q14 -4 21 -10q4 -4 20 -24l8 -11.5t9.5 -11.5t13.5 -18l612 -848v790q0 6 -6 14.5t-23 18.5q-10 6 -40 17q-23 8 -68 14v72h426v-72q-66 -8 -107 -31q-33 -18 -32 -33v-1155q-98 10 -154 39 q-61 33 -86 66l-610 846v-787q0 -2 8 -14q4 -4 22 -17q2 0 43 -16q10 -4 66 -12v-74h-426zM340 1712q20 29 29 37q18 18 30 24l283 -186l279 186q12 -6 30 -24q12 -12 27 -37l-268 -328h-138z" />
<glyph unicode="&#x148;" horiz-adv-x="1189" d="M47 0v74q74 20 100 30q33 12 33 29v555q0 14 -1 35.5t-1 28.5q0 23 -12 34q-14 14 -39 21q-8 2 -80 10v72q14 2 44 5t46 5q33 4 80 16q49 12 74 21q63 20 71 25l44 -43l10 -144q113 98 219 144q101 43 178 43q37 0 84 -15q39 -12 69.5 -43t49 -80t18.5 -118v-572 q0 -6 6 -12q8 -8 23 -15q6 -2 19.5 -7t21.5 -7q27 -10 63 -18v-74h-503v74q78 20 102 32q29 14 29 27v455q0 55 -7 92q-6 41 -16 57q-12 23 -33 31q-25 10 -49 10q-23 0 -51 -6q-18 -4 -59 -22q-29 -12 -72 -43q-33 -23 -88 -68v-506q0 -14 35 -31q25 -10 98 -28v-74h-506z M262 1446q4 8 27 39q14 18 32 28l281 -219l279 219q18 -8 34 -28q31 -35 33 -39l-278 -381h-138z" />
<glyph unicode="&#x14a;" horiz-adv-x="1331" d="M43 0v74q70 16 102 30q35 16 35 29v866q0 14 -1 36t-1 28q0 23 -12 39q-14 16 -39 22q-28 6 -80 13v73q39 4 80 13l92 18q37 8 90 23q51 14 78 26l43 -43v-221q90 84 152 129q68 51 131 82q53 27 116 41q55 12 109 12q45 0 90 -12q37 -10 84 -49q39 -33 63.5 -94.5 t24.5 -153.5v-705q0 -104 -18 -186q-18 -84 -52 -149q-31 -61 -86 -127q-49 -58 -110 -111q-31 -25 -64 -43q-37 -20 -77 -39q-35 -14 -91 -29q-41 -10 -102 -10q-43 0 -94 12q-61 14 -94 29q-47 20 -74 39q-31 22 -31 37q0 2 12 18q8 10 31 33q6 6 19.5 18.5l21.5 20.5 l23.5 20.5t21.5 18.5q18 16 41 31q20 14 29 16l55 -49q25 -23 60 -43q20 -12 61 -29q27 -10 68 -10q45 0 79 27q33 25 64 88q27 55 43 151q14 84 14 213v649q0 57 -8 115q-6 37 -24 68q-16 27 -44 35q-25 8 -63 8q-35 0 -66 -11q-35 -12 -83 -40q-33 -20 -105 -80 q-61 -51 -127 -129v-705q0 -10 37 -29q29 -14 108 -30v-74h-532z" />
<glyph unicode="&#x14b;" horiz-adv-x="1148" d="M47 0v74q74 20 100 30q33 12 33 29v555q0 37 -4 66q-4 25 -14 34q-12 12 -41 19q-4 0 -74 10v72q55 4 78 8q29 4 86 16q35 8 84 23q53 16 67 25l44 -41l10 -146q113 98 219 144q101 43 178 43q47 0 90 -17q41 -16 70 -47q31 -33 45 -78q16 -49 16 -100v-608 q0 -109 -14 -179q-14 -72 -47 -129q-29 -53 -70 -96q-43 -45 -88 -80q-28 -22 -61 -43q-23 -14 -76 -39q-43 -20 -84 -28q-47 -10 -92 -11q-51 0 -101 13q-51 12 -90 30q-37 16 -63.5 37t-26.5 35q0 10 25 39q27 31 57 55q6 6 28.5 24.5l35.5 29.5q35 25 51 30q8 -12 51 -49 q28 -25 55 -43q25 -16 56 -26q37 -12 47 -13q22 0 49 13q31 12 55 47q27 35 45 110q18 74 19 197v553q0 55 -7 92q-6 41 -16 57q-12 23 -33 31q-18 8 -49 8q-23 0 -51.5 -6t-58.5 -20q-29 -12 -72 -43q-33 -23 -88 -68v-506q0 -14 35 -31q25 -10 98 -28v-74h-506z" />
<glyph unicode="&#x14c;" horiz-adv-x="1273" d="M55 612q0 129 45 258q45 127 123 217q80 92 190.5 147.5t241.5 55.5q132 0 234 -55q104 -57 170 -143q72 -94 104 -207q35 -121 35 -238q0 -86 -22 -176q-20 -80 -62 -160q-43 -82 -94 -139q-53 -59 -123 -106q-68 -45 -141 -70q-84 -27 -158 -27q-125 0 -227 54 q-94 49 -170 143q-74 92 -109 205q-37 116 -37 241zM307 641q0 -117 27 -211q29 -100 72 -170q43 -68 106 -113q61 -43 129 -43q63 0 123 33q53 31 96 99q43 70 64 163q23 102 22 230q0 104 -24 198q-27 100 -70 170q-49 80 -109 119q-63 43 -139 43t-127 -35 q-59 -41 -94 -102q-37 -68 -55 -162q-21 -106 -21 -219zM223 1486q4 16 8 28.5t17 37.5q4 10 9 19.5l9 17.5q2 6 6 15t6 13h764l33 -30q-2 -4 -6 -14.5t-6 -16.5q-2 -4 -17 -39l-16 -37q-8 -18 -12 -26h-764z" />
<glyph unicode="&#x14d;" horiz-adv-x="1073" d="M66 444q0 100 36 193q39 96 101 164q66 72 157 117q89 43 197 43q102 0 186 -37q90 -41 144 -99q63 -70 92 -151q31 -86 31 -189q0 -68 -19 -131q-20 -72 -49 -121q-35 -61 -78 -106q-49 -53 -100 -84q-59 -35 -117 -53q-68 -20 -129 -21q-104 0 -186 37q-90 41 -144 98 q-53 59 -90 152q-32 84 -32 188zM317 473q0 -80 19 -147q16 -63 51 -121q29 -49 72 -80t88 -31q55 0 100 25q41 23 66 65q27 45 35 109q10 72 10 147q0 74 -17 150q-14 70 -46.5 127t-71.5 86q-45 33 -95 33q-61 0 -102 -29q-43 -29 -66 -76q-25 -47 -32 -115 q-11 -75 -11 -143zM143 1206q6 25 8 31q4 12 17 37q4 10 9 19.5l9 17.5q2 6 6 14l6 12h764l33 -30q-2 -4 -6 -13.5t-6 -15.5q-2 -4 -17 -39l-16 -37q-8 -18 -12 -26h-764z" />
<glyph unicode="&#x14e;" horiz-adv-x="1273" d="M55 612q0 129 45 258q45 127 123 217q80 92 190.5 147.5t241.5 55.5q132 0 234 -55q104 -57 170 -143q72 -94 104 -207q35 -121 35 -238q0 -86 -22 -176q-20 -80 -62 -160q-43 -82 -94 -139q-53 -59 -123 -106q-68 -45 -141 -70q-84 -27 -158 -27q-125 0 -227 54 q-94 49 -170 143q-74 92 -109 205q-37 116 -37 241zM307 641q0 -117 27 -211q29 -100 72 -170q43 -68 106 -113q61 -43 129 -43q63 0 123 33q53 31 96 99q43 70 64 163q23 102 22 230q0 104 -24 198q-27 100 -70 170q-49 80 -109 119q-63 43 -139 43t-127 -35 q-59 -41 -94 -102q-37 -68 -55 -162q-21 -106 -21 -219zM283 1687q4 6 16 18l20 21q8 8 21 16l18 13q23 -43 60 -80q33 -33 71 -56q41 -25 76 -34q33 -10 72 -11q41 0 74 11q41 12 75.5 32.5t71.5 57.5t59 80l19 -13q18 -12 22 -16q2 -2 8.5 -10t10.5 -11q12 -12 16 -18 q-33 -86 -69 -139q-39 -55 -86 -94q-41 -33 -97 -54q-49 -18 -100 -18q-53 0 -106 18q-57 20 -99 54q-43 35 -84 94q-36 53 -69 139z" />
<glyph unicode="&#x14f;" horiz-adv-x="1073" d="M66 444q0 100 36 193q39 96 101 164q66 72 157 117q89 43 197 43q102 0 186 -37q90 -41 144 -99q63 -70 92 -151q31 -86 31 -189q0 -68 -19 -131q-20 -72 -49 -121q-35 -61 -78 -106q-49 -53 -100 -84q-59 -35 -117 -53q-68 -20 -129 -21q-104 0 -186 37q-90 41 -144 98 q-53 59 -90 152q-32 84 -32 188zM317 473q0 -80 19 -147q16 -63 51 -121q29 -49 72 -80t88 -31q55 0 100 25q41 23 66 65q27 45 35 109q10 72 10 147q0 74 -17 150q-14 70 -46.5 127t-71.5 86q-45 33 -95 33q-61 0 -102 -29q-43 -29 -66 -76q-25 -47 -32 -115 q-11 -75 -11 -143zM203 1368q4 6 16 18l20 21q8 8 21 16l18 13q23 -43 60 -80q33 -33 71 -56q41 -25 76 -34q33 -10 72 -11q41 0 74 11q41 12 75.5 32.5t71.5 57.5t59 80l19 -13q18 -12 22 -16q2 -2 8.5 -10t10.5 -11q12 -12 16 -18q-33 -86 -69 -139q-39 -55 -86 -94 q-41 -33 -97 -54q-49 -18 -100 -18q-53 0 -106 18q-57 20 -99 54q-43 35 -84 94q-36 53 -69 139z" />
<glyph unicode="&#x150;" horiz-adv-x="1273" d="M55 612q0 129 45 258q45 127 123 217q80 92 190.5 147.5t241.5 55.5q132 0 234 -55q104 -57 170 -143q72 -94 104 -207q35 -121 35 -238q0 -86 -22 -176q-20 -80 -62 -160q-43 -82 -94 -139q-53 -59 -123 -106q-68 -45 -141 -70q-84 -27 -158 -27q-125 0 -227 54 q-94 49 -170 143q-74 92 -109 205q-37 116 -37 241zM307 641q0 -117 27 -211q29 -100 72 -170q43 -68 106 -113q61 -43 129 -43q63 0 123 33q53 31 96 99q43 70 64 163q23 102 22 230q0 104 -24 198q-27 100 -70 170q-49 80 -109 119q-63 43 -139 43t-127 -35 q-59 -41 -94 -102q-37 -68 -55 -162q-21 -106 -21 -219zM389 1400l154 422q4 -2 17.5 -3t19.5 -1q33 -4 51.5 -6t50.5 -6q12 -2 33 -8l31 -56l-269 -383q-14 2 -43 17q-16 8 -45 24zM711 1400l154 422q4 -2 17 -3t19 -1l20 -2q19 -2 30 -4q18 -2 51 -6q4 0 35 -8l28 -56 l-268 -383q-12 2 -41 17q-33 16 -45 24z" />
<glyph unicode="&#x151;" horiz-adv-x="1073" d="M66 444q0 100 36 193q39 96 101 164q66 72 157 117q89 43 197 43q102 0 186 -37q90 -41 144 -99q63 -70 92 -151q31 -86 31 -189q0 -68 -19 -131q-20 -72 -49 -121q-35 -61 -78 -106q-49 -53 -100 -84q-59 -35 -117 -53q-68 -20 -129 -21q-104 0 -186 37q-90 41 -144 98 q-53 59 -90 152q-32 84 -32 188zM317 473q0 -80 19 -147q16 -63 51 -121q29 -49 72 -80t88 -31q55 0 100 25q41 23 66 65q27 45 35 109q10 72 10 147q0 74 -17 150q-14 70 -46.5 127t-71.5 86q-45 33 -95 33q-61 0 -102 -29q-43 -29 -66 -76q-25 -47 -32 -115 q-11 -75 -11 -143zM309 1081l154 422q4 -2 17.5 -3t19.5 -1q33 -4 51.5 -6t50.5 -6q12 -2 33 -8l31 -56l-269 -383q-14 2 -43 17q-16 8 -45 24zM631 1081l154 422q4 -2 17 -3t19 -1l20 -2q19 -2 30 -4q18 -2 51 -6q4 0 35 -8l28 -56l-268 -383q-12 2 -41 17q-33 16 -45 24z " />
<glyph unicode="&#x152;" horiz-adv-x="1724" d="M55 612q0 137 45 258q49 129 125 217q80 92 190.5 147.5t239.5 55.5q33 0 70 -4q27 -2 55 -10q31 -8 51 -10q49 -6 58 -6h686l39 -31l-6 -66q-2 -27 -10.5 -80l-12.5 -77q-6 -37 -12 -56h-76q-6 100 -24 142q-23 49 -58 49h-325v-406h387l34 -35q-8 -14 -20 -32 q-6 -8 -11 -18.5t-11.5 -21t-26.5 -34.5q-16 -18 -23 -25q-20 20 -33 27q-23 10 -40 16q-27 8 -52 11q-20 2 -73 2h-131v-441q0 -14 6 -26.5t24 -20.5q23 -10 60 -12q53 -4 104 -4h98q51 0 80 10q35 12 58 35q20 20 45 65q14 29 41 99l73 -27q-2 -29 -10 -90q-2 -14 -5 -45 t-5 -45l-12 -76l-5.5 -26.5t-3.5 -20.5h-757q-20 0 -88 -6q-27 -2 -62 -10q-18 -4 -59 -9q-61 -6 -74 -6q-123 0 -225 54q-98 51 -172 143t-109 205q-37 116 -37 241zM307 641q0 -104 27 -211q23 -92 72 -170q43 -68 106 -113q61 -43 129 -43q29 0 65.5 4.5t51.5 8.5 q18 6 41 16q12 6 41 27v907q-47 49 -109 72q-63 23 -127 22q-76 0 -127 -35q-57 -39 -92 -102q-39 -74 -57 -164q-21 -106 -21 -219z" />
<glyph unicode="&#x153;" horiz-adv-x="1648" d="M66 444q0 59 16 129q14 61 47 123q27 51 74 104.5t96 84.5q57 35 118.5 55.5t133.5 20.5q96 0 184 -41q84 -39 146 -113q41 43 84 74q46 31 110 55q63 25 142 25q70 0 124 -19q53 -18 97 -51q47 -35 69 -72q27 -41 45 -88q18 -46 25 -92q8 -61 8 -88q-6 -6 -26 -23 q-10 -8 -35 -24q-12 -8 -37 -21q-16 -8 -37 -16h-467q4 -72 21 -129q18 -61 48.5 -104.5t77.5 -67.5q49 -27 107 -27q20 0 57 4q16 2 62 19q47 16 76 35l94 61q8 -4 14 -10q8 -8 16 -21q4 -6 7.5 -10t5.5 -8t5 -8t3 -6q-61 -72 -120.5 -117t-106.5 -70q-49 -25 -101 -31 q-66 -8 -100 -8q-82 0 -166 45q-78 43 -137 123q-63 -72 -158 -121q-90 -47 -190 -47q-94 0 -174 37t-136 98q-53 59 -90 152q-32 84 -32 188zM307 481q0 -72 21 -149q18 -74 51 -123q37 -55 76 -84q43 -31 88 -31q57 0 92 27q41 31 63.5 74t36.5 114q10 53 10 146 q0 86 -16 149q-18 74 -47 121q-27 45 -76 80q-43 31 -94 31q-49 0 -92 -27q-37 -23 -64 -72q-25 -46 -37 -110q-12 -66 -12 -146zM985 580h336q16 0 29 8q10 6 10 28q0 27 -6 66q-6 35 -25 74q-16 33 -53 59.5t-88 26.5q-84 0 -137.5 -69.5t-65.5 -192.5z" />
<glyph unicode="&#x154;" horiz-adv-x="1236" d="M31 1231q137 27 229 41q125 18 268 18q131 0 232 -22q88 -20 158 -66q55 -37 86 -96q29 -57 28 -119q0 -72 -20 -127q-23 -61 -58 -104q-39 -47 -88 -80q-53 -35 -112 -55l313 -437q16 -25 31 -34q16 -12 32 -19q25 -8 41 -8q35 0 58 2l14 -74q-10 -4 -22.5 -7t-26.5 -8 t-25 -7q-20 -6 -81.5 -20.5t-73.5 -16.5q-35 -6 -53 -6q-29 0 -58 16q-23 12 -41 39l-287 545h-20h-18q-37 0 -54 2q-37 4 -53 8v-463q0 -10 33 -29q27 -14 104 -30v-74h-524v74q70 16 102 30q35 16 35 29v1024q-18 -2 -36.5 -5t-34.5 -5q-45 -4 -66 -8zM430 707 q29 -6 47 -7q6 0 20.5 -1t20.5 -1q133 0 199 70q63 66 63 188q0 47 -14 88q-14 43 -47 72q-35 31 -90 49q-59 18 -144 19h-26q-4 0 -14.5 -1t-14.5 -1v-475zM359 1427l364 340l51 -29q29 -16 54 -33q4 -2 21 -12t26 -16q14 -10 26 -23l11 -53l-486 -242q-20 10 -35 27 q-6 8 -17 21.5t-15 19.5z" />
<glyph unicode="&#x155;" horiz-adv-x="907" d="M47 0v74q133 31 133 59v531q0 41 -2 55q-3 22 -6 37q-2 10 -6 22q-2 4 -5 7t-3 6q-10 10 -15 12q-12 6 -20 8q-16 4 -29 4q-29 0 -47 2v72q23 4 56.5 8t39.5 6q53 8 76 15l68 18q29 8 75 25l44 -43l12 -146q28 40 61 74q39 39 72 59q45 29 82 41q41 14 84 15 q37 0 80 -12.5t77 -33.5q6 -3 7 -24q0 -12 -4 -53q-4 -35 -13 -70q-4 -12 -8 -36.5t-8 -37.5q-4 -14 -11.5 -36.5l-9.5 -28.5q-12 -41 -16 -49h-74q-2 39 -12 75q-6 25 -23 62q-10 25 -32 43q-16 14 -43 14q-20 0 -45 -6q-23 -6 -50 -29q-27 -25 -53 -61q-29 -41 -59 -107 v-438q0 -16 41 -31q33 -12 137 -28v-74h-551zM356 1083l211 428l45 -4q12 -2 37.5 -7t32.5 -5q25 -4 69 -12q37 -6 43 -8l31 -56l-381 -379q-10 0 -23 7l-24 12l-25 12q-12 8 -16 12z" />
<glyph unicode="&#x158;" horiz-adv-x="1236" d="M31 1231q137 27 229 41q125 18 268 18q131 0 232 -22q88 -20 158 -66q55 -37 86 -96q29 -57 28 -119q0 -72 -20 -127q-23 -61 -58 -104q-39 -47 -88 -80q-53 -35 -112 -55l313 -437q16 -25 31 -34q16 -12 32 -19q25 -8 41 -8q35 0 58 2l14 -74q-10 -4 -22.5 -7t-26.5 -8 t-25 -7q-20 -6 -81.5 -20.5t-73.5 -16.5q-35 -6 -53 -6q-29 0 -58 16q-23 12 -41 39l-287 545h-20h-18q-37 0 -54 2q-37 4 -53 8v-463q0 -10 33 -29q27 -14 104 -30v-74h-524v74q70 16 102 30q35 16 35 29v1024q-18 -2 -36.5 -5t-34.5 -5q-45 -4 -66 -8zM430 707 q29 -6 47 -7q6 0 20.5 -1t20.5 -1q133 0 199 70q63 66 63 188q0 47 -14 88q-14 43 -47 72q-35 31 -90 49q-59 18 -144 19h-26q-4 0 -14.5 -1t-14.5 -1v-475zM219 1712q20 29 29 37q18 18 30 24l283 -186l279 186q12 -6 30 -24q12 -12 27 -37l-268 -328h-138z" />
<glyph unicode="&#x159;" horiz-adv-x="907" d="M47 0v74q133 31 133 59v531q0 41 -2 55q-3 22 -6 37q-2 10 -6 22q-2 4 -5 7t-3 6q-10 10 -15 12q-12 6 -20 8q-16 4 -29 4q-29 0 -47 2v72q23 4 56.5 8t39.5 6q53 8 76 15l68 18q29 8 75 25l44 -43l12 -146q28 40 61 74q39 39 72 59q45 29 82 41q41 14 84 15 q37 0 80 -12.5t77 -33.5q6 -3 7 -24q0 -12 -4 -53q-4 -35 -13 -70q-4 -12 -8 -36.5t-8 -37.5q-4 -14 -11.5 -36.5l-9.5 -28.5q-12 -41 -16 -49h-74q-2 39 -12 75q-6 25 -23 62q-10 25 -32 43q-16 14 -43 14q-20 0 -45 -6q-23 -6 -50 -29q-27 -25 -53 -61q-29 -41 -59 -107 v-438q0 -16 41 -31q33 -12 137 -28v-74h-551zM160 1446q4 8 27 39q14 18 32 28l281 -219l279 219q18 -8 34 -28q31 -35 33 -39l-278 -381h-138z" />
<glyph unicode="&#x15a;" horiz-adv-x="1048" d="M102 193q0 20 4 65l7 68q2 16 12 59l70 -6q20 -53 57 -109q35 -51 74 -84q41 -35 88 -53q51 -20 98 -20q37 0 86 14q43 12 74 37q35 27 51 61q20 41 20 84q0 63 -26 105q-31 47 -72 80q-35 29 -102 61l-115 57q-92 43 -117 58q-57 33 -100 71q-45 41 -71.5 92.5 t-26.5 127.5q0 49 26 104q27 57 82 106q57 51 141 84q88 35 209 35q37 0 107 -8q49 -6 96 -18q53 -14 80 -29q37 -20 51 -37q6 -4 4 -18q0 -4 -10 -33q-4 -12 -16 -41q-2 -6 -23 -41l-9 -17.5t-11 -19.5q-14 -18 -21 -22l-65 6q-23 49 -49 78q-29 31 -62 51q-25 14 -63 26 q-27 8 -60 9q-43 0 -86 -15q-33 -10 -57 -35q-29 -29 -35 -49q-10 -31 -10 -55q0 -45 28 -84q27 -35 72 -68q49 -35 100 -59l54.5 -26.5l62.5 -30.5q41 -20 119 -66q49 -29 100 -80q45 -45 72 -100q29 -61 29 -131q0 -39 -15 -92q-12 -43 -41 -92q-28 -46 -67 -87 q-37 -37 -96 -69q-55 -31 -125 -49q-72 -18 -156 -19q-20 0 -82 8q-43 6 -94 18.5t-96 31.5q-41 16 -80 41q-6 2 -8 20q-4 25 -5 43q0 8 -1 29t-1 33zM334 1427l364 340l51 -29q29 -16 54 -33q4 -2 21 -12t26 -16q14 -10 26 -23l11 -53l-486 -242q-20 10 -35 27 q-6 8 -17 21.5t-15 19.5z" />
<glyph unicode="&#x15b;" horiz-adv-x="856" d="M78 156q0 29 4 94q2 39 14 86l82 -10q8 -47 33 -97q18 -37 55 -73q33 -33 72 -47q43 -16 82 -17q70 0 106 27q35 25 35 86q0 43 -20 71q-27 37 -53.5 59.5t-77.5 51.5l-88 47q-12 6 -84 47q-35 20 -74 56q-31 29 -55 69q-20 35 -21 86q0 63 31 113q33 51 80 84 q51 35 114.5 53.5t130.5 18.5q45 0 88 -7q29 -4 82 -16q49 -12 74 -23q41 -18 57 -32q4 -6 2 -33t-12 -64q-6 -25 -22 -69q-14 -37 -25 -51l-70 8q-25 88 -71 135q-45 45 -113 45q-59 0 -92 -27q-35 -29 -35 -69q0 -31 17 -58q16 -29 45 -47q31 -22 73 -43l95 -51l88 -47 q47 -27 77 -57q41 -41 58 -74q23 -45 22 -98q0 -70 -22 -121q-25 -55 -55 -86q-33 -33 -78 -56q-35 -18 -88 -32q-37 -10 -84 -15q-53 -4 -70 -4q-8 0 -20.5 1t-26.5 3t-23 2q-35 2 -75 13q-47 10 -78 22q-39 14 -72 33q-8 4 -10 35q-2 23 -2 78zM283 1083l211 428l45 -4 q12 -2 37.5 -7t32.5 -5q25 -4 69 -12q37 -6 43 -8l31 -56l-381 -379q-10 0 -23 7l-24 12l-25 12q-12 8 -16 12z" />
<glyph unicode="&#x15c;" horiz-adv-x="1048" d="M102 193q0 20 4 65l7 68q2 16 12 59l70 -6q20 -53 57 -109q35 -51 74 -84q41 -35 88 -53q51 -20 98 -20q37 0 86 14q43 12 74 37q35 27 51 61q20 41 20 84q0 63 -26 105q-31 47 -72 80q-35 29 -102 61l-115 57q-92 43 -117 58q-57 33 -100 71q-45 41 -71.5 92.5 t-26.5 127.5q0 49 26 104q27 57 82 106q57 51 141 84q88 35 209 35q37 0 107 -8q49 -6 96 -18q53 -14 80 -29q37 -20 51 -37q6 -4 4 -18q0 -4 -10 -33q-4 -12 -16 -41q-2 -6 -23 -41l-9 -17.5t-11 -19.5q-14 -18 -21 -22l-65 6q-23 49 -49 78q-29 31 -62 51q-25 14 -63 26 q-27 8 -60 9q-43 0 -86 -15q-33 -10 -57 -35q-29 -29 -35 -49q-10 -31 -10 -55q0 -45 28 -84q27 -35 72 -68q49 -35 100 -59l54.5 -26.5l62.5 -30.5q41 -20 119 -66q49 -29 100 -80q45 -45 72 -100q29 -61 29 -131q0 -39 -15 -92q-12 -43 -41 -92q-28 -46 -67 -87 q-37 -37 -96 -69q-55 -31 -125 -49q-72 -18 -156 -19q-20 0 -82 8q-43 6 -94 18.5t-96 31.5q-41 16 -80 41q-6 2 -8 20q-4 25 -5 43q0 8 -1 29t-1 33zM195 1419l279 323h122l277 -323q-16 -25 -27 -35q-18 -18 -30 -25l-281 162l-281 -162q-12 6 -30 25l-9.5 10t-10.5 13.5 t-9 11.5z" />
<glyph unicode="&#x15d;" horiz-adv-x="856" d="M78 156q0 29 4 94q2 39 14 86l82 -10q8 -47 33 -97q18 -37 55 -73q33 -33 72 -47q43 -16 82 -17q70 0 106 27q35 25 35 86q0 43 -20 71q-27 37 -53.5 59.5t-77.5 51.5l-88 47q-12 6 -84 47q-35 20 -74 56q-31 29 -55 69q-20 35 -21 86q0 63 31 113q33 51 80 84 q51 35 114.5 53.5t130.5 18.5q45 0 88 -7q29 -4 82 -16q49 -12 74 -23q41 -18 57 -32q4 -6 2 -33t-12 -64q-6 -25 -22 -69q-14 -37 -25 -51l-70 8q-25 88 -71 135q-45 45 -113 45q-59 0 -92 -27q-35 -29 -35 -69q0 -31 17 -58q16 -29 45 -47q31 -22 73 -43l95 -51l88 -47 q47 -27 77 -57q41 -41 58 -74q23 -45 22 -98q0 -70 -22 -121q-25 -55 -55 -86q-33 -33 -78 -56q-35 -18 -88 -32q-37 -10 -84 -15q-53 -4 -70 -4q-8 0 -20.5 1t-26.5 3t-23 2q-35 2 -75 13q-47 10 -78 22q-39 14 -72 33q-8 4 -10 35q-2 23 -2 78zM84 1108l278 385h138 l268 -385q-2 -4 -11.5 -18.5t-15.5 -22.5q-12 -18 -30 -27l-281 224l-281 -224q-20 10 -34 27l-16.5 21.5t-14.5 19.5z" />
<glyph unicode="&#x160;" horiz-adv-x="1048" d="M102 193q0 20 4 65l7 68q2 16 12 59l70 -6q20 -53 57 -109q35 -51 74 -84q41 -35 88 -53q51 -20 98 -20q37 0 86 14q43 12 74 37q35 27 51 61q20 41 20 84q0 63 -26 105q-31 47 -72 80q-35 29 -102 61l-115 57q-92 43 -117 58q-57 33 -100 71q-45 41 -71.5 92.5 t-26.5 127.5q0 49 26 104q27 57 82 106q57 51 141 84q88 35 209 35q37 0 107 -8q49 -6 96 -18q53 -14 80 -29q37 -20 51 -37q6 -4 4 -18q0 -4 -10 -33q-4 -12 -16 -41q-2 -6 -23 -41l-9 -17.5t-11 -19.5q-14 -18 -21 -22l-65 6q-23 49 -49 78q-29 31 -62 51q-25 14 -63 26 q-27 8 -60 9q-43 0 -86 -15q-33 -10 -57 -35q-29 -29 -35 -49q-10 -31 -10 -55q0 -45 28 -84q27 -35 72 -68q49 -35 100 -59l54.5 -26.5l62.5 -30.5q41 -20 119 -66q49 -29 100 -80q45 -45 72 -100q29 -61 29 -131q0 -39 -15 -92q-12 -43 -41 -92q-28 -46 -67 -87 q-37 -37 -96 -69q-55 -31 -125 -49q-72 -18 -156 -19q-20 0 -82 8q-43 6 -94 18.5t-96 31.5q-41 16 -80 41q-6 2 -8 20q-4 25 -5 43q0 8 -1 29t-1 33zM195 1712q20 29 29 37q18 18 30 24l283 -186l279 186q12 -6 30 -24q12 -12 27 -37l-268 -328h-138z" />
<glyph unicode="&#x161;" horiz-adv-x="856" d="M78 156q0 29 4 94q2 39 14 86l82 -10q8 -47 33 -97q18 -37 55 -73q33 -33 72 -47q43 -16 82 -17q70 0 106 27q35 25 35 86q0 43 -20 71q-27 37 -53.5 59.5t-77.5 51.5l-88 47q-12 6 -84 47q-35 20 -74 56q-31 29 -55 69q-20 35 -21 86q0 63 31 113q33 51 80 84 q51 35 114.5 53.5t130.5 18.5q45 0 88 -7q29 -4 82 -16q49 -12 74 -23q41 -18 57 -32q4 -6 2 -33t-12 -64q-6 -25 -22 -69q-14 -37 -25 -51l-70 8q-25 88 -71 135q-45 45 -113 45q-59 0 -92 -27q-35 -29 -35 -69q0 -31 17 -58q16 -29 45 -47q31 -22 73 -43l95 -51l88 -47 q47 -27 77 -57q41 -41 58 -74q23 -45 22 -98q0 -70 -22 -121q-25 -55 -55 -86q-33 -33 -78 -56q-35 -18 -88 -32q-37 -10 -84 -15q-53 -4 -70 -4q-8 0 -20.5 1t-26.5 3t-23 2q-35 2 -75 13q-47 10 -78 22q-39 14 -72 33q-8 4 -10 35q-2 23 -2 78zM86 1446q4 8 27 39 q14 18 32 28l281 -219l279 219q18 -8 34 -28q31 -35 33 -39l-278 -381h-138z" />
<glyph unicode="&#x164;" horiz-adv-x="1187" d="M2 958q0 2 3 28l5 42q2 27 10 84l13 82q10 63 10 66h1069l39 -31q0 -14 -4 -64q-2 -20 -10 -75q-2 -12 -5.5 -39t-5.5 -41q-2 -16 -8 -42t-6 -28h-74q-14 72 -16 84q-8 45 -14 63q-10 25 -21 39q-12 14 -35 15h-245v-996q0 -6 6 -14q6 -9 24 -18q29 -14 49 -21 q33 -10 76 -18v-74h-563v74q49 10 78 18q25 8 47 19q18 9 25 18q8 12 8 16v996h-254q-14 0 -29 -11q-10 -8 -29 -36q-2 -2 -30 -66q-16 -37 -39 -96zM236 1712q20 29 29 37q18 18 30 24l283 -186l279 186q12 -6 30 -24q12 -12 27 -37l-268 -328h-138z" />
<glyph unicode="&#x168;" horiz-adv-x="1368" d="M43 1188v72h524v-72q-72 -16 -102 -33q-35 -18 -35 -31v-614q0 -104 16 -170q18 -78 56 -125q37 -49 96 -74q63 -27 145 -26q66 0 119 32q49 31 80 84q33 57 45 123q12 72 12 144v626q0 12 -32 31q-31 16 -105 33v72h451v-72q-72 -16 -103 -33q-35 -18 -34 -31v-600 q0 -129 -37 -233q-35 -100 -103 -174q-63 -70 -157.5 -109t-196.5 -39q-98 0 -195 29q-88 27 -159 88q-70 59 -109 147q-39 86 -39 211v680q0 12 -33 31q-30 17 -104 33zM299 1394l45 90q27 53 58 92q35 45 73 72q41 29 86 29q43 0 88 -17q14 -6 78 -36q37 -20 72 -37 q37 -16 65 -17q43 0 78 29q34 28 68 86l78 -29l-45 -90q-20 -39 -60 -90q-35 -43 -71 -70q-41 -29 -89 -28q-39 0 -81 16q-27 10 -76 35l-74 37q-39 16 -74 16q-16 0 -41 -8q-18 -6 -34 -22q-27 -27 -33 -35q-31 -43 -35 -49z" />
<glyph unicode="&#x169;" horiz-adv-x="1150" d="M35 831v70q33 2 90 10q12 2 38.5 5.5l41.5 5.5q31 4 76 16q8 2 79 23l35 -48v-571q0 -47 8 -100q6 -39 23 -62q14 -20 35 -28q18 -8 51 -9q29 0 45 4q18 4 53 19q14 6 64 37q37 23 76 59v426q0 55 -2 74q-2 20 -19 41q-12 14 -39 20q-23 4 -72 8v70q94 8 181 25 q70 12 153 35l37 -48v-628q0 -10 1 -27.5t1 -24.5q0 -18 4 -34.5t6 -22.5l13 -12q10 -8 33 -4q10 2 71 26l27 -73q-25 -16 -82 -49t-86 -48q-43 -23 -74 -32q-39 -14 -45 -15q-14 0 -35 8q-15 6 -30 25q-10 12 -25 51q-12 35 -18 82q-47 -43 -111 -86q-33 -23 -90 -49 q-39 -18 -76 -25q-35 -6 -65 -6q-39 0 -93 15q-41 10 -79 47q-39 35 -59.5 94t-20.5 154v409q0 18 -1 43t-1 33q0 27 -12.5 39t-37.5 18q-8 2 -69 10zM182 1116l45 90q27 53 58 92q33 41 73.5 70t85.5 29q43 0 88 -17q14 -4 78 -37q12 -6 72 -34q37 -16 65 -17q43 0 78 29 q34 28 68 86l78 -31q-6 -14 -22.5 -45l-22.5 -43q-23 -45 -60 -92q-35 -43 -71 -70q-41 -29 -89 -28q-39 0 -81 16l-76 37q-49 25 -74 35q-39 16 -74 16q-23 0 -41 -6t-34 -22q-23 -23 -33 -37q-31 -43 -35 -50z" />
<glyph unicode="&#x16a;" horiz-adv-x="1368" d="M43 1188v72h524v-72q-72 -16 -102 -33q-35 -18 -35 -31v-614q0 -104 16 -170q18 -78 56 -125q37 -49 96 -74q63 -27 145 -26q66 0 119 32q49 31 80 84q33 57 45 123q12 72 12 144v626q0 12 -32 31q-31 16 -105 33v72h451v-72q-72 -16 -103 -33q-35 -18 -34 -31v-600 q0 -129 -37 -233q-35 -100 -103 -174q-63 -70 -157.5 -109t-196.5 -39q-98 0 -195 29q-88 27 -159 88q-70 59 -109 147q-39 86 -39 211v680q0 12 -33 31q-30 17 -104 33zM277 1486q4 16 8 28.5t17 37.5q4 10 9 19.5l9 17.5q2 6 6 15t6 13h764l33 -30q-2 -4 -6 -14.5 t-6 -16.5q-2 -4 -17 -39l-16 -37q-8 -18 -12 -26h-764z" />
<glyph unicode="&#x16b;" horiz-adv-x="1150" d="M35 831v70q33 2 90 10q12 2 38.5 5.5l41.5 5.5q31 4 76 16q8 2 79 23l35 -48v-571q0 -47 8 -100q6 -39 23 -62q14 -20 35 -28q18 -8 51 -9q29 0 45 4q18 4 53 19q14 6 64 37q37 23 76 59v426q0 55 -2 74q-2 20 -19 41q-12 14 -39 20q-23 4 -72 8v70q94 8 181 25 q70 12 153 35l37 -48v-628q0 -10 1 -27.5t1 -24.5q0 -18 4 -34.5t6 -22.5l13 -12q10 -8 33 -4q10 2 71 26l27 -73q-25 -16 -82 -49t-86 -48q-43 -23 -74 -32q-39 -14 -45 -15q-14 0 -35 8q-15 6 -30 25q-10 12 -25 51q-12 35 -18 82q-47 -43 -111 -86q-33 -23 -90 -49 q-39 -18 -76 -25q-35 -6 -65 -6q-39 0 -93 15q-41 10 -79 47q-39 35 -59.5 94t-20.5 154v409q0 18 -1 43t-1 33q0 27 -12.5 39t-37.5 18q-8 2 -69 10zM162 1206q6 25 8 31q4 12 17 37q4 10 9 19.5l9 17.5q2 6 6 14l6 12h764l33 -30q-2 -4 -6 -13.5t-6 -15.5q-2 -4 -17 -39 l-16 -37q-8 -18 -12 -26h-764z" />
<glyph unicode="&#x16c;" horiz-adv-x="1368" d="M43 1188v72h524v-72q-72 -16 -102 -33q-35 -18 -35 -31v-614q0 -104 16 -170q18 -78 56 -125q37 -49 96 -74q63 -27 145 -26q66 0 119 32q49 31 80 84q33 57 45 123q12 72 12 144v626q0 12 -32 31q-31 16 -105 33v72h451v-72q-72 -16 -103 -33q-35 -18 -34 -31v-600 q0 -129 -37 -233q-35 -100 -103 -174q-63 -70 -157.5 -109t-196.5 -39q-98 0 -195 29q-88 27 -159 88q-70 59 -109 147q-39 86 -39 211v680q0 12 -33 31q-30 17 -104 33zM336 1687q4 6 16 18l20 21q8 8 21 16l18 13q23 -43 60 -80q33 -33 71 -56q41 -25 76 -34 q33 -10 72 -11q41 0 74 11q41 12 75.5 32.5t71.5 57.5t59 80l19 -13q18 -12 22 -16q2 -2 8.5 -10t10.5 -11q12 -12 16 -18q-33 -86 -69 -139q-39 -55 -86 -94q-41 -33 -97 -54q-49 -18 -100 -18q-53 0 -106 18q-57 20 -99 54q-43 35 -84 94q-36 53 -69 139z" />
<glyph unicode="&#x16d;" horiz-adv-x="1150" d="M35 831v70q33 2 90 10q12 2 38.5 5.5l41.5 5.5q31 4 76 16q8 2 79 23l35 -48v-571q0 -47 8 -100q6 -39 23 -62q14 -20 35 -28q18 -8 51 -9q29 0 45 4q18 4 53 19q14 6 64 37q37 23 76 59v426q0 55 -2 74q-2 20 -19 41q-12 14 -39 20q-23 4 -72 8v70q94 8 181 25 q70 12 153 35l37 -48v-628q0 -10 1 -27.5t1 -24.5q0 -18 4 -34.5t6 -22.5l13 -12q10 -8 33 -4q10 2 71 26l27 -73q-25 -16 -82 -49t-86 -48q-43 -23 -74 -32q-39 -14 -45 -15q-14 0 -35 8q-15 6 -30 25q-10 12 -25 51q-12 35 -18 82q-47 -43 -111 -86q-33 -23 -90 -49 q-39 -18 -76 -25q-35 -6 -65 -6q-39 0 -93 15q-41 10 -79 47q-39 35 -59.5 94t-20.5 154v409q0 18 -1 43t-1 33q0 27 -12.5 39t-37.5 18q-8 2 -69 10zM222 1368q4 6 16 18l20 21q8 8 21 16l18 13q23 -43 60 -80q33 -33 71 -56q41 -25 76 -34q33 -10 72 -11q41 0 74 11 q41 12 75.5 32.5t71.5 57.5t59 80l19 -13q18 -12 22 -16q2 -2 8.5 -10t10.5 -11q12 -12 16 -18q-33 -86 -69 -139q-39 -55 -86 -94q-41 -33 -97 -54q-49 -18 -100 -18q-53 0 -106 18q-57 20 -99 54q-43 35 -84 94q-36 53 -69 139z" />
<glyph unicode="&#x16e;" horiz-adv-x="1368" d="M43 1188v72h524v-72q-72 -16 -102 -33q-35 -18 -35 -31v-614q0 -104 16 -170q18 -78 56 -125q37 -49 96 -74q63 -27 145 -26q66 0 119 32q49 31 80 84q33 57 45 123q12 72 12 144v626q0 12 -32 31q-31 16 -105 33v72h451v-72q-72 -16 -103 -33q-35 -18 -34 -31v-600 q0 -129 -37 -233q-35 -100 -103 -174q-63 -70 -157.5 -109t-196.5 -39q-98 0 -195 29q-88 27 -159 88q-70 59 -109 147q-39 86 -39 211v680q0 12 -33 31q-30 17 -104 33zM481 1523q0 57 20 101q23 49 54 81q33 37 76 58q37 18 92 18q37 0 71 -12q37 -14 58 -37 q25 -27 35 -57q12 -33 12 -72q0 -57 -21 -100q-25 -53 -53 -82q-31 -31 -76 -53q-41 -20 -90 -21q-39 0 -71 12q-27 10 -56 35q-25 22 -37 55q-14 39 -14 74zM616 1564q0 -49 21 -71q20 -25 45 -25q41 0 61.5 26.5t20.5 67.5q0 51 -21 74q-22 25 -43 24q-20 0 -35 -8 q-18 -10 -26 -22q-10 -14 -17 -31q-6 -19 -6 -35z" />
<glyph unicode="&#x16f;" horiz-adv-x="1150" d="M35 831v70q33 2 90 10q12 2 38.5 5.5l41.5 5.5q31 4 76 16q8 2 79 23l35 -48v-571q0 -47 8 -100q6 -39 23 -62q14 -20 35 -28q18 -8 51 -9q29 0 45 4q18 4 53 19q14 6 64 37q37 23 76 59v426q0 55 -2 74q-2 20 -19 41q-12 14 -39 20q-23 4 -72 8v70q94 8 181 25 q70 12 153 35l37 -48v-628q0 -10 1 -27.5t1 -24.5q0 -18 4 -34.5t6 -22.5l13 -12q10 -8 33 -4q10 2 71 26l27 -73q-25 -16 -82 -49t-86 -48q-43 -23 -74 -32q-39 -14 -45 -15q-14 0 -35 8q-15 6 -30 25q-10 12 -25 51q-12 35 -18 82q-47 -43 -111 -86q-33 -23 -90 -49 q-39 -18 -76 -25q-35 -6 -65 -6q-39 0 -93 15q-41 10 -79 47q-39 35 -59.5 94t-20.5 154v409q0 18 -1 43t-1 33q0 27 -12.5 39t-37.5 18q-8 2 -69 10zM367 1204q0 57 20 101q23 49 54 81q33 37 76 58q37 18 92 18q37 0 71 -12q37 -14 58 -37q25 -27 35 -57q12 -33 12 -72 q0 -57 -21 -100q-25 -53 -53 -82q-31 -31 -76 -53q-41 -20 -90 -21q-39 0 -71 12q-27 10 -56 35q-25 22 -37 55q-14 39 -14 74zM502 1245q0 -49 21 -71q20 -25 45 -25q41 0 61.5 26.5t20.5 67.5q0 51 -21 74q-22 25 -43 24q-20 0 -35 -8q-18 -10 -26 -22q-10 -14 -17 -31 q-6 -19 -6 -35z" />
<glyph unicode="&#x170;" horiz-adv-x="1368" d="M43 1188v72h524v-72q-72 -16 -102 -33q-35 -18 -35 -31v-614q0 -104 16 -170q18 -78 56 -125q37 -49 96 -74q63 -27 145 -26q66 0 119 32q49 31 80 84q33 57 45 123q12 72 12 144v626q0 12 -32 31q-31 16 -105 33v72h451v-72q-72 -16 -103 -33q-35 -18 -34 -31v-600 q0 -129 -37 -233q-35 -100 -103 -174q-63 -70 -157.5 -109t-196.5 -39q-98 0 -195 29q-88 27 -159 88q-70 59 -109 147q-39 86 -39 211v680q0 12 -33 31q-30 17 -104 33zM442 1400l154 422q4 -2 17.5 -3t19.5 -1q33 -4 51.5 -6t50.5 -6q12 -2 33 -8l31 -56l-269 -383 q-14 2 -43 17q-16 8 -45 24zM764 1400l154 422q4 -2 17 -3t19 -1l20 -2q19 -2 30 -4q18 -2 51 -6q4 0 35 -8l28 -56l-268 -383q-12 2 -41 17q-33 16 -45 24z" />
<glyph unicode="&#x171;" horiz-adv-x="1150" d="M35 831v70q33 2 90 10q12 2 38.5 5.5l41.5 5.5q31 4 76 16q8 2 79 23l35 -48v-571q0 -47 8 -100q6 -39 23 -62q14 -20 35 -28q18 -8 51 -9q29 0 45 4q18 4 53 19q14 6 64 37q37 23 76 59v426q0 55 -2 74q-2 20 -19 41q-12 14 -39 20q-23 4 -72 8v70q94 8 181 25 q70 12 153 35l37 -48v-628q0 -10 1 -27.5t1 -24.5q0 -18 4 -34.5t6 -22.5l13 -12q10 -8 33 -4q10 2 71 26l27 -73q-25 -16 -82 -49t-86 -48q-43 -23 -74 -32q-39 -14 -45 -15q-14 0 -35 8q-15 6 -30 25q-10 12 -25 51q-12 35 -18 82q-47 -43 -111 -86q-33 -23 -90 -49 q-39 -18 -76 -25q-35 -6 -65 -6q-39 0 -93 15q-41 10 -79 47q-39 35 -59.5 94t-20.5 154v409q0 18 -1 43t-1 33q0 27 -12.5 39t-37.5 18q-8 2 -69 10zM327 1081l154 422q4 -2 17.5 -3t19.5 -1q33 -4 51.5 -6t50.5 -6q12 -2 33 -8l31 -56l-269 -383q-14 2 -43 17 q-16 8 -45 24zM649 1081l154 422q4 -2 17 -3t19 -1l20 -2q19 -2 30 -4q18 -2 51 -6q4 0 35 -8l28 -56l-268 -383q-12 2 -41 17q-33 16 -45 24z" />
<glyph unicode="&#x174;" horiz-adv-x="1740" d="M20 1188v72h490v-72q-31 -4 -78 -14q-25 -6 -39 -17q-12 -9 -12 -18v-23l172 -731l291 875h100l336 -875l160 739q4 14 -8 23q-10 8 -33 14q-2 0 -20.5 6.5t-28.5 8.5q-18 4 -64 12v72h447v-72q-51 -10 -74 -19l-45 -14q-16 -4 -25 -14q-10 -10 -10 -17l-227 -1065 q-6 -25 -23 -36q-23 -18 -41 -27q-25 -10 -45 -16q-29 -8 -39 -11l-340 908l-286 -818q-6 -22 -25 -36q-16 -14 -41 -25q-35 -14 -49 -18q-35 -8 -45 -11l-260 1147q-6 27 -35 41q-40 21 -103 31zM537 1419l279 323h122l277 -323q-16 -25 -27 -35q-18 -18 -30 -25l-281 162 l-281 -162q-12 6 -30 25l-9.5 10t-10.5 13.5t-9 11.5z" />
<glyph unicode="&#x175;" horiz-adv-x="1468" d="M12 856v74h455v-74q-61 -8 -68 -10q-27 -6 -34 -15q-10 -10 -11 -18q0 -12 2 -18l150 -471l239 606h76l252 -606l144 471q4 16 4 20q0 10 -9 16q-14 10 -28 15q-4 2 -54 10v74h324v-74q-25 -6 -45 -12q-12 -4 -29 -13q-8 -4 -16 -16q-4 -8 -8 -20l-221 -736 q-6 -25 -25 -39q-16 -14 -41 -24t-45 -16q-6 -2 -18.5 -5.5t-16.5 -5.5l-254 586l-203 -496q-10 -27 -26 -39q-25 -20 -39 -26q-18 -8 -41 -14q-6 -2 -18.5 -5.5t-16.5 -5.5l-268 826q-6 20 -33 34q-23 13 -78 27zM416 1108l278 385h138l268 -385q-2 -4 -11.5 -18.5 t-15.5 -22.5q-12 -18 -30 -27l-281 224l-281 -224q-20 10 -34 27l-16.5 21.5t-14.5 19.5z" />
<glyph unicode="&#x176;" horiz-adv-x="1253" d="M0 1241q10 2 27.5 5t38.5 5q23 4 75 9q12 2 36 5t34 3q23 2 53 2q28 0 55 -13q27 -12 46 -32q39 -51 77 -115q41 -63 82 -135q61 -106 82 -148l74 -147l233 440q16 27 -8 41q-29 18 -102 27v72h418v-72q-61 -12 -101 -29q-33 -14 -47 -39l-321 -598v-377q0 -2 8 -14 q6 -9 24 -18q31 -16 47 -21q29 -8 78 -18v-74h-565v74q43 8 76 18q31 9 49 18.5t25 18.5q8 12 8 16v383q-55 121 -80 166q-4 6 -92 164l-90 148q-41 66 -78 114l-21 21q-8 8 -26 14q-23 8 -43 10q-33 4 -68 4zM287 1419l279 323h122l277 -323q-16 -25 -27 -35 q-18 -18 -30 -25l-281 162l-281 -162q-12 6 -30 25l-9.5 10t-10.5 13.5t-9 11.5z" />
<glyph unicode="&#x177;" horiz-adv-x="1038" d="M-61 -426q0 12 16 35q0 2 15.5 23.5t25.5 31.5q6 6 21.5 25.5t25.5 29.5q23 23 43 35q53 -33 100 -39q20 -3 37 -2q29 0 49 8q35 12 80 57.5t78 129.5l29 69l-334 811q-12 28 -37 43q-14 10 -76 25v74h455v-74q-55 -8 -61 -10q-18 -6 -29 -12q-8 -6 -8 -19q0 -6 8 -27 l205 -501l196 501q8 20 8 27q0 10 -6 16q-8 8 -26 15q-4 2 -54 10v74h326v-74q-27 -4 -47 -12q-25 -8 -33 -12.5t-18 -18.5q-2 -2 -10 -25l-334 -864q-37 -96 -95 -188q-45 -72 -104 -129q-51 -49 -119 -76q-61 -25 -125 -25q-25 0 -73 9q-33 6 -66 16q-27 8 -47 23 q-16 10 -16 20zM199 1108l278 385h138l268 -385q-2 -4 -11.5 -18.5t-15.5 -22.5q-12 -18 -30 -27l-281 224l-281 -224q-20 10 -34 27l-16.5 21.5t-14.5 19.5z" />
<glyph unicode="&#x178;" horiz-adv-x="1253" d="M0 1241q10 2 27.5 5t38.5 5q23 4 75 9q12 2 36 5t34 3q23 2 53 2q28 0 55 -13q27 -12 46 -32q39 -51 77 -115q41 -63 82 -135q61 -106 82 -148l74 -147l233 440q16 27 -8 41q-29 18 -102 27v72h418v-72q-61 -12 -101 -29q-33 -14 -47 -39l-321 -598v-377q0 -2 8 -14 q6 -9 24 -18q31 -16 47 -21q29 -8 78 -18v-74h-565v74q43 8 76 18q31 9 49 18.5t25 18.5q8 12 8 16v383q-55 121 -80 166q-4 6 -92 164l-90 148q-41 66 -78 114l-21 21q-8 8 -26 14q-23 8 -43 10q-33 4 -68 4zM279 1493q0 37 12 67q12 33 35 57q20 23 51 37q33 14 57 15 q57 0 88 -31t31 -90q0 -39 -12 -70q-12 -33 -32.5 -55.5t-49.5 -38.5q-27 -14 -61 -14q-57 0 -88 31t-31 92zM703 1493q0 37 12 67q12 33 35 57q22 25 49 37q33 14 59 15q57 0 88 -31t31 -90q0 -39 -12 -70q-12 -29 -35 -55q-20 -23 -49 -39q-27 -14 -62 -14q-57 0 -88 30 q-28 30 -28 93z" />
<glyph unicode="&#x179;" horiz-adv-x="1114" d="M51 53l674 1077h-391q-14 0 -35 -18q-27 -23 -41 -47q-18 -31 -37 -74q-14 -33 -28 -94l-87 18l37 361q41 -8 50 -10q29 -4 43 -4q6 0 22 -1t23 -1h720l33 -50l-667 -1081h454q18 0 39 16q18 14 33 45q14 29 31 78q29 86 34 107l86 -23q-4 -41 -4 -80v-48t-2 -50l-4 -98 q-2 -47 -2 -76h-944zM379 1427l364 340l51 -29q29 -16 54 -33q4 -2 21 -12t26 -16q14 -10 26 -23l11 -53l-486 -242q-20 10 -35 27q-6 8 -17 21.5t-15 19.5z" />
<glyph unicode="&#x17a;" horiz-adv-x="958" d="M61 45l529 766h-260q-41 0 -82 -51t-66 -160l-69 21l24 325l39 -10q25 -4 39 -4q6 0 19.5 -1t21.5 -1h616l23 -43l-530 -766h342q20 0 32 14q12 16 25 45q6 18 22 72l12.5 47.5l12.5 48.5l72 -16q0 -6 -1 -23.5t-1 -27.5v-64q0 -12 -1 -32.5t-1 -33t-1 -33t-1 -30.5 t-1.5 -28.5t-1.5 -24.5q0 -18 -4 -35h-784zM361 1083l211 428l45 -4q12 -2 37.5 -7t32.5 -5q25 -4 69 -12q37 -6 43 -8l31 -56l-381 -379q-10 0 -23 7l-24 12l-25 12q-12 8 -16 12z" />
<glyph unicode="&#x17b;" horiz-adv-x="1114" d="M51 53l674 1077h-391q-14 0 -35 -18q-27 -23 -41 -47q-18 -31 -37 -74q-14 -33 -28 -94l-87 18l37 361q41 -8 50 -10q29 -4 43 -4q6 0 22 -1t23 -1h720l33 -50l-667 -1081h454q18 0 39 16q18 14 33 45q14 29 31 78q29 86 34 107l86 -23q-4 -41 -4 -80v-48t-2 -50l-4 -98 q-2 -47 -2 -76h-944zM441 1493q0 31 14 67.5t33 56.5q20 23 51 37q33 14 59 15q55 0 86 -31t31 -90q0 -39 -12 -70q-12 -33 -32.5 -55.5t-49.5 -38.5q-27 -14 -62 -14q-57 0 -87.5 31t-30.5 92z" />
<glyph unicode="&#x17c;" horiz-adv-x="958" d="M61 45l529 766h-260q-41 0 -82 -51t-66 -160l-69 21l24 325l39 -10q25 -4 39 -4q6 0 19.5 -1t21.5 -1h616l23 -43l-530 -766h342q20 0 32 14q12 16 25 45q6 18 22 72l12.5 47.5l12.5 48.5l72 -16q0 -6 -1 -23.5t-1 -27.5v-64q0 -12 -1 -32.5t-1 -33t-1 -33t-1 -30.5 t-1.5 -28.5t-1.5 -24.5q0 -18 -4 -35h-784zM371 1212q0 33 14 70q12 33 33 55q23 27 51 39q27 12 59 13q57 0 86 -29q31 -31 31 -92q0 -39 -12 -70q-12 -33 -33 -55q-16 -18 -49 -37q-27 -14 -62 -14q-57 0 -87.5 30.5t-30.5 89.5z" />
<glyph unicode="&#x17d;" horiz-adv-x="1114" d="M51 53l674 1077h-391q-14 0 -35 -18q-27 -23 -41 -47q-18 -31 -37 -74q-14 -33 -28 -94l-87 18l37 361q41 -8 50 -10q29 -4 43 -4q6 0 22 -1t23 -1h720l33 -50l-667 -1081h454q18 0 39 16q18 14 33 45q14 29 31 78q29 86 34 107l86 -23q-4 -41 -4 -80v-48t-2 -50l-4 -98 q-2 -47 -2 -76h-944zM240 1712q20 29 29 37q18 18 30 24l283 -186l279 186q12 -6 30 -24q12 -12 27 -37l-268 -328h-138z" />
<glyph unicode="&#x17e;" horiz-adv-x="958" d="M61 45l529 766h-260q-41 0 -82 -51t-66 -160l-69 21l24 325l39 -10q25 -4 39 -4q6 0 19.5 -1t21.5 -1h616l23 -43l-530 -766h342q20 0 32 14q12 16 25 45q6 18 22 72l12.5 47.5l12.5 48.5l72 -16q0 -6 -1 -23.5t-1 -27.5v-64q0 -12 -1 -32.5t-1 -33t-1 -33t-1 -30.5 t-1.5 -28.5t-1.5 -24.5q0 -18 -4 -35h-784zM164 1446q4 8 27 39q14 18 32 28l281 -219l279 219q18 -8 34 -28q31 -35 33 -39l-278 -381h-138z" />
<glyph unicode="&#x181;" horiz-adv-x="1513" d="M23 973q0 78 40 133q43 58 130 98q92 43 221 64q139 23 317 22q61 0 156 -4q39 -2 127 -16q49 -8 100 -27q39 -14 80 -41q47 -31 76 -78q31 -49 30 -104q0 -106 -57 -182q-55 -74 -170 -115q84 -16 139 -47q68 -37 107 -82q45 -51 67 -109q25 -61 25 -129q0 -84 -35 -153 q-33 -66 -102 -117q-68 -49 -164 -74q-102 -27 -215 -26h-57q-10 0 -34 1t-38 1q-12 0 -40 1t-42 1q-29 0 -86 4q-115 4 -207 6h-65v74q70 16 102 30q35 16 35 29v1032q-88 -18 -137.5 -55t-49.5 -96q0 -39 23 -78q20 -35 53 -51q-2 -6 -33 -21l-67 -33l-78 -32.5t-59 -18.5 q-16 8 -35 27q-12 12 -29 45q-14 31 -20 57q-8 41 -8 64zM713 133q0 -6 8 -14q63 -27 135 -27q143 0 219 65.5t76 180.5q0 53 -16 108q-14 51 -50 95q-34 43 -92 67q-63 27 -145 27q-27 0 -72 -4q-23 -2 -63 -10v-488zM713 739h18q106 0 166 21q63 23 94 53q33 33 45 74 q10 35 11 84q0 45 -17 88q-14 35 -51 69q-16 14 -35 23q-29 14 -49 18q-37 8 -76 11q-57 4 -106 4v-445z" />
<glyph unicode="&#x186;" horiz-adv-x="1134" d="M41 1073q68 66 133 107q70 43 131 67q59 23 123 33q66 10 109 10q102 0 200.5 -41t169.5 -119q78 -84 119 -192q45 -119 45 -260q0 -162 -45 -289q-47 -135 -125 -223q-80 -92 -192 -146q-109 -51 -242 -51q-102 0 -191 31q-78 27 -131 74q-49 43 -75 102q-25 55 -25 113 q0 12 4 45q2 12 10 47q6 27 19 47q16 29 28 41q12 8 56 27l67 28q18 8 35 13.5t31 11.5l49 16l35 -78q-31 -20 -47.5 -36.5t-26.5 -38.5q-12 -29 -14 -45.5t-2 -53.5q0 -41 16 -73q18 -39 47 -64q29 -27 74 -45q39 -16 92 -16q57 0 113 24q59 27 96 84q41 66 66 162 q25 102 24 256q0 137 -33 227q-33 92 -90 151.5t-123 86.5q-74 29 -143 29q-27 0 -59 -7q-49 -8 -76 -18q-51 -18 -92 -39q-43 -20 -111 -65l-12 12q-6 6 -15 22l-7 10.5l-7 10.5q-6 10 -8 12z" />
<glyph unicode="&#x189;" horiz-adv-x="1302" d="M29 639q2 4 6 20q4 12 8 27q2 8 5 16.5t5 12.5q2 6 5 11t3 9h119v422l-137 -18l-12 92q18 4 116 22q14 2 142 19q96 12 149 14q98 4 140 4q160 0 274 -41q121 -43 201 -121q82 -80 125 -192.5t43 -259.5q0 -125 -25 -223q-23 -90 -70 -174q-41 -76 -102 -129 q-57 -51 -127 -87q-59 -31 -139 -47q-76 -16 -140 -16h-575v74q70 16 102 30q35 16 35 29v481h-131zM430 168q0 -10 2 -14q4 -14 10 -21q8 -8 27 -14q14 -4 43 -8q37 -4 70 -5q29 0 80 15q41 12 86 41q41 27 77 69q39 45 66 103q27 55 45 133q16 68 16 170q0 131 -28 235 q-27 96 -86 172q-51 66 -140 105q-78 35 -192 35h-37q-6 0 -18.5 -1t-20.5 -1v-447h242l24 -22l-37 -99h-229v-446z" />
<glyph unicode="&#x18a;" horiz-adv-x="1585" d="M23 973q0 77 43 135q45 61 133 100t231 62q135 20 340 20q86 0 156 -6q80 -6 127 -14q43 -6 102 -27q45 -14 84 -41q74 -46 123 -104q55 -66 82 -125q29 -63 45 -142q14 -70 14 -155q0 -117 -26 -223q-23 -90 -70 -174q-41 -76 -102 -129q-58 -52 -123 -87 q-57 -31 -133 -47q-72 -16 -131 -16h-592v74q70 16 102 30q35 16 35 29v1032q-102 -23 -150 -57q-51 -39 -51 -94q0 -33 17 -70q16 -35 59 -59q-6 -8 -35 -23q-28 -15 -61 -31l-72 -32q-34 -15 -55 -19q-20 10 -41 35q-12 14 -29 47q-8 14 -16 56q-6 27 -6 55zM713 184 q0 -29 20 -49q35 -29 131 -29q57 0 121 31q68 33 121 94q57 66 92 164q39 106 39 242q0 49 -8 127q-6 53 -23 110q-14 47 -41 99q-25 47 -63 92q-25 29 -62 51q-31 20 -82 36.5t-106 23.5q-82 8 -139 8v-1000z" />
<glyph unicode="&#x18e;" horiz-adv-x="1087" d="M57 33q0 6 3 21.5t3 23.5q4 37 9 57q2 10 5 32.5t5 33.5l4 23.5t4 19.5t4 22q4 20 12 53q2 8 6.5 20.5t4.5 16.5h73l7 -88q2 -33 10 -75q6 -35 18.5 -53.5t30.5 -18.5h184q51 0 105 4q40 3 61 12q25 10 29 23q6 16 6 33v432h-203q-6 0 -24.5 -1t-28.5 -1q-20 0 -61 -5 l-58 -6q-8 -2 -45 -8l-24 29q20 33 22 37q4 6 31 43q18 27 33 43q14 18 26 26q16 -16 33 -24q18 -8 41 -13q43 -6 53 -6h72h133v402h-219q-47 0 -78 -6q-33 -6 -53 -25q-27 -23 -43.5 -55.5t-38.5 -93.5l-74 24q0 14 4 43l6 43q4 53 9 80q6 41 12 66l5 25t3 18h854v-72 q-70 -16 -102.5 -30.5t-32.5 -31.5v-991q0 -14 31 -31q25 -14 104 -30v-74h-930z" />
<glyph unicode="&#x190;" horiz-adv-x="1075" d="M66 291q0 61 18 112q18 53 49 97q35 49 74 80q45 35 88 55q-96 35 -145 102q-51 70 -52 168q0 88 51.5 164t143.5 133q61 39 149 64q86 25 176 24q53 0 107 -6q43 -4 104 -20q49 -12 93 -31q45 -18 75 -47q-2 -4 -9 -21.5l-11 -27.5q-6 -14 -14.5 -28.5t-14.5 -29.5 q-2 -2 -30 -57q-8 -14 -14.5 -26.5l-10.5 -20.5l-74 16q-14 23 -47 64q-25 31 -57 53q-39 27 -68 37q-37 12 -82 12q-49 0 -90 -14.5t-76 -42.5q-33 -27 -51 -66q-20 -45 -20 -88q0 -35 20 -80q20 -43 64 -71q49 -33 116 -54q70 -20 179 -24v-103q-102 -6 -177 -30 q-78 -27 -122 -60q-49 -37 -70 -82q-23 -49 -23 -90t19 -82q18 -39 53 -67q29 -25 86 -45q49 -18 115 -19q45 0 88 6q39 6 86 23q49 16 94 43q47 27 102 70l54 -68q-72 -76 -119 -111q-59 -45 -125 -75q-55 -27 -129 -43q-63 -14 -143 -15q-109 0 -197 33q-78 29 -133 78 q-51 45 -78 104q-22 52 -22 107z" />
<glyph unicode="&#x192;" horiz-adv-x="657" d="M-315 -401.5q0 10.5 20 34.5q25 29 45 48q47 43 57 49q43 31 50 32q43 -45 90 -63q49 -18 86 -18q29 0 51 12q25 14 39 53q18 47 27 113q10 78 10 186v762h-119l-29 35l78 88h70v31q0 92 12 159q12 70 35 123q20 47 55 94q37 47 68 76q37 37 73 60q47 29 78 43 q27 12 76 24q41 10 68 10q45 0 88 -12q51 -14 77.5 -26.5t55.5 -32.5q20 -14 20 -25q0 -23 -18 -43q-37 -43 -47 -51q-6 -6 -17.5 -16.5l-20.5 -18.5t-18 -14q-33 -25 -40 -29q-47 57 -97 88q-45 27 -73 27q-35 0 -58 -21q-27 -23 -43 -65q-14 -35 -24 -125 q-10 -86 -11 -193v-63h252l35 -35q-16 -29 -20 -35q-16 -25 -27 -37q-4 -6 -14.5 -16t-14.5 -16q-14 -18 -22 -21q-18 10 -68 25q-43 12 -121 12v-709q0 -121 -18 -186q-25 -88 -53 -135q-33 -53 -74 -94q-35 -35 -80 -70q-31 -23 -59 -41q-14 -8 -68 -33q-34 -15 -67 -24 q-31 -8 -64 -9q-35 0 -82 11q-29 6 -74 26q-34 15 -55 31q-20 14 -20 24.5z" />
<glyph unicode="&#x197;" horiz-adv-x="669" d="M33 625q3 6 6 18q2 4 5 12.5t5 16.5t5 14t5 12.5l7 22.5h135v403q0 12 -33 31q-31 16 -105 33v72h525v-72q-72 -16 -103 -33q-35 -18 -34 -31v-403h145l25 -25l-37 -96h-133v-467q0 -10 32 -29q25 -14 105 -30v-74h-525v74q70 16 103 30q35 16 35 29v467h-146z" />
<glyph unicode="&#x198;" horiz-adv-x="1314" d="M43 0v74q70 16 102 30q35 16 35 29v991q0 12 -33 31q-31 16 -104 33v72h524v-72q-72 -16 -102 -33q-35 -18 -35 -31v-462l340 442q61 80 139 125q70 41 166 41q51 0 88 -15q43 -16 72 -44.5t49 -75.5q16 -39 16 -105q0 -18 -2 -29q-2 -6 -3 -17t-1 -17q-2 -12 -6 -33 q-2 -6 -5 -16.5t-3 -12.5q-2 -8 -27 -22q-10 -6 -59 -29l-70 -31q-23 -8 -59 -18l-33 49q9 15 19 37q8 18 14 41q2 4 6 18.5t6 20.5q4 25 4 35q0 53 -18 71q-20 20 -47 21q-29 0 -51 -19q-22 -18 -43 -43l-306 -360l482 -510q18 -20 32 -29q25 -12 37.5 -14t40.5 -2 q16 0 49 4l7 -74q-29 -8 -66 -20q-31 -10 -72 -21l-67 -16q-45 -8 -58 -8q-27 0 -51 10q-23 10 -43 33l-477 596v-492q0 -10 33 -29q27 -14 104 -30v-74h-524z" />
<glyph unicode="&#x199;" horiz-adv-x="1128" d="M47 0v74l39 10t37 10t24 8q33 12 33 31v764q0 119 19 205q18 84 49 149q31 63 78 111q55 55 102 90q35 25 68 41q39 18 75 31q43 12 78 18q53 8 74 8q49 0 104 -18q61 -20 99 -39q43 -20 71 -47q27 -25 27 -37q0 -16 -20 -39q-43 -49 -48 -53q-31 -31 -57 -51 q-31 -25 -43 -29l-47 57q-25 25 -59 49q-29 20 -66 37q-31 14 -63 15q-41 0 -74 -17q-37 -18 -63.5 -65t-45.5 -135q-18 -86 -18 -222v-424l262 236q37 33 43 45q10 18 4 27q-8 12 -22 14q-12 2 -43 2v74h438v-74q-57 -8 -88 -18q-43 -15 -86 -50l-305 -231l360 -407 q20 -20 29 -27q16 -12 30 -14q25 -4 39 -5q31 0 49 2l7 -73l-25 -6q-25 -6 -39 -9q-27 -6 -69 -14q-51 -10 -60 -10l-37 -4q-39 0 -73 12q-33 12 -56 41l-358 469v-379q0 -4 4 -12q4 -10 14 -15q4 -2 33 -14q8 -4 28.5 -9t30.5 -9v-74h-483z" />
<glyph unicode="&#x19a;" horiz-adv-x="710" d="M47 743q4 12 8 20.5t13 29.5q2 6 6 12t6 14l10 23h146v424q0 53 -5 69q-6 29 -20 39q-16 14 -41 17q-8 2 -30.5 5l-37.5 5v69q18 2 51 7.5t44 7.5q29 4 82 16t77 21q8 2 76 28l43 -41v-667h166l23 -27l-43 -94h-146v-588q0 -6 8.5 -14t22.5 -17q12 -6 45 -14l67 -14v-74 h-526v74q20 2 72 14q20 4 45 14q12 6 20 17q6 8 7 14v588h-166z" />
<glyph unicode="&#x19d;" horiz-adv-x="1357" d="M-324 -324q0 4 11 19l24 31q10 12 35 36l39 35l35 29q12 10 24 14q41 -47 95 -69q47 -20 96 -21q72 0 108.5 80t36.5 244v1040q-29 27 -67.5 47.5t-69.5 26.5v72h279q18 0 24 -3q14 -4 21 -10q4 -4 20 -24l8 -11.5t9.5 -11.5t13.5 -18l612 -848v790q0 6 -6 14.5t-23 18.5 q-10 6 -40 17q-23 8 -68 14v72h426v-72q-66 -8 -107 -31q-33 -18 -32 -33v-1155q-98 10 -154 39q-61 33 -86 66l-610 846v-789q0 -45 -4 -123q-2 -55 -17 -108q-10 -45 -35 -93q-20 -41 -59 -79q-35 -35 -55 -52q-31 -25 -70 -47q-41 -23 -80 -35q-43 -12 -84 -12 q-43 0 -90 10q-53 12 -80 23q-41 18 -57 31q-23 18 -23 30z" />
<glyph unicode="&#x19f;" horiz-adv-x="1273" d="M55 612q0 129 45 258q45 127 123 217q80 92 190.5 147.5t241.5 55.5q132 0 234 -55q104 -57 170 -143q72 -94 104 -207q35 -121 35 -238q0 -86 -22 -176q-20 -80 -62 -160q-43 -82 -94 -139q-53 -59 -123 -106q-68 -45 -141 -70q-84 -27 -158 -27q-125 0 -227 54 q-94 49 -170 143q-74 92 -109 205q-37 116 -37 241zM307 600q6 -102 35 -194q31 -96 72 -158q46 -68 104 -105q61 -39 123 -39q63 0 119 31q53 31 94 92q37 57 64 156q23 88 26 217h-637zM309 721h631q-8 80 -39 168q-27 78 -70 139q-39 57 -102 96q-55 35 -124.5 35 t-119.5 -29q-51 -31 -88 -86q-39 -57 -59 -139q-23 -88 -29 -184z" />
<glyph unicode="&#x1a0;" horiz-adv-x="1273" d="M55 612q0 129 45 258q45 127 123 217q80 92 190.5 147.5t241.5 55.5q86 0 160 -24q72 -25 131 -66q31 29 45 60q12 27 13 51q0 31 -19 55q-23 31 -47 49l260 119q29 -23 47 -61q20 -45 21 -80q0 -57 -58 -131q-59 -78 -174 -142q80 -92 123 -215q41 -117 41 -258 q0 -86 -22 -176q-20 -80 -62 -160q-43 -82 -94 -139q-53 -59 -123 -106q-68 -45 -141 -70q-84 -27 -158 -27q-125 0 -227 54q-94 49 -170 143q-74 92 -109 205q-37 116 -37 241zM307 641q0 -117 27 -211q29 -100 72 -170q43 -68 106 -113q61 -43 129 -43q63 0 123 33 q53 31 96 99q43 70 64 163q23 102 22 230q0 104 -24 198q-27 100 -70 170q-49 80 -109 119q-63 43 -139 43t-127 -35q-59 -41 -94 -102q-37 -68 -55 -162q-21 -106 -21 -219z" />
<glyph unicode="&#x1a1;" horiz-adv-x="1204" d="M66 444q0 100 36 193q39 96 101 164q66 72 157 117q89 43 197 43q92 0 178 -33q76 -29 137 -90q41 33 58 67q12 27 12 56q0 31 -18 55q-25 35 -45 49l260 119q29 -23 47 -62q18 -41 18 -80q0 -66 -63 -141q-66 -78 -201 -149q33 -57 51 -123q18 -68 19 -144 q0 -68 -19 -131q-20 -72 -49 -121q-35 -61 -78 -106q-49 -53 -100 -84q-59 -35 -117 -53q-68 -20 -129 -21q-104 0 -186 37q-90 41 -144 98q-53 59 -90 152q-32 84 -32 188zM317 473q0 -80 19 -147q16 -63 51 -121q29 -49 72 -80t88 -31q55 0 100 25q41 23 66 65 q27 45 35 109q10 72 10 147q0 74 -17 150q-14 70 -46.5 127t-71.5 86q-45 33 -95 33q-61 0 -102 -29q-43 -29 -66 -76q-25 -47 -32 -115q-11 -75 -11 -143z" />
<glyph unicode="&#x1a9;" horiz-adv-x="1120" d="M45 51l414 561l-393 598v50h735q72 0 104 2q53 4 109 14l4 -346l-86 -19q-18 74 -37 117q-20 49 -35 66q-23 27 -33 30q-15 6 -30 6h-412l295 -456l-350 -481h491q27 0 51 10q23 10 37 33q16 27 31 65q8 25 33 109l82 -21q-4 -43 -6 -94l-7 -113q-6 -74 -8 -106 q-4 -49 -6 -76h-944z" />
<glyph unicode="&#x1aa;" horiz-adv-x="794" d="M14 1276q0 49 24.5 98t70.5 88q43 37 114 64q68 25 152 24q80 0 137 -28q55 -29 90 -78q37 -53 51.5 -110.5t14.5 -127.5q0 -170 -9 -309q-12 -201 -20 -309l-21 -297q-10 -160 -10 -271q0 -129 8 -196q10 -86 23 -121q14 -41 41 -61q23 -16 55.5 -16.5t50.5 16.5 q23 20 35 43q14 29 15 53q0 28 -13 49q-3 3 8 8q2 1 5 2l15 7.5t21 9.5q16 6 54 18l55 18l51 11q29 4 33 4l27 -55q4 -51 -27 -103q-35 -57 -86 -98q-61 -49 -135 -74q-82 -29 -172 -29q-78 0 -137 31q-53 29 -97 90q-37 53 -59 142q-20 80 -21 190q0 166 9 299 q12 186 20 293q8 86 21 274q10 147 10 246v41q-41 -35 -82 -49q-45 -16 -84 -16q-109 0 -174 59q-64 57 -64 170zM215 1327q0 -53 24.5 -84t67.5 -31q29 0 58 15q23 10 45 30q-6 40 -13 74q-4 27 -20 58q-14 29 -29 38q-18 12 -41 13q-16 0 -31 -8q-25 -14 -30 -23 q-16 -20 -23 -35q-8 -18 -8 -47z" />
<glyph unicode="&#x1af;" horiz-adv-x="1497" d="M43 1188v72h524v-72q-72 -16 -102 -33q-35 -18 -35 -31v-614q0 -104 16 -170q18 -78 56 -125q37 -49 96 -74q63 -27 145 -26q66 0 119 32q49 31 80 84q33 57 45 123q12 72 12 144v626q0 12 -32 31q-31 16 -105 33v72h363q4 10 8 26.5t4 24.5q0 29 -20 55q-23 31 -48 49 l263 119q29 -23 47 -61.5t18 -79.5q0 -37 -18.5 -76t-59.5 -80q-39 -39 -100 -82q-59 -41 -143 -82v-549q0 -129 -37 -233q-35 -100 -103 -174q-63 -70 -157.5 -109t-196.5 -39q-98 0 -195 29q-88 27 -159 88q-70 59 -109 147q-39 86 -39 211v680q0 12 -33 31 q-30 17 -104 33z" />
<glyph unicode="&#x1b0;" horiz-adv-x="1384" d="M35 831v70q33 2 90 10q12 2 38.5 5.5l41.5 5.5q31 4 76 16q8 2 79 23l35 -48v-571q0 -47 8 -100q6 -39 23 -62q14 -20 35 -28q18 -8 51 -9q29 0 45 4q18 4 53 19q14 6 64 37q37 23 76 59v426q0 55 -2 74q-2 20 -19 41q-12 14 -39 20q-23 4 -72 8v70q94 8 181 25 q70 12 153 35l37 -48v-116q47 27 68 43q23 20 41 45q12 18 20 41q6 18 6 35q0 31 -18 55q-23 31 -47 49l260 119q29 -23 47 -62q20 -45 20 -80q0 -37 -22 -81q-23 -43 -72 -91q-45 -43 -125 -92q-74 -46 -178 -86v-407q0 -10 1 -27.5t1 -24.5q0 -18 4 -34.5t6 -22.5l13 -12 q10 -8 33 -4q10 2 71 26l27 -73q-25 -16 -82 -49t-86 -48q-43 -23 -74 -32q-39 -14 -45 -15q-14 0 -35 8q-15 6 -30 25q-10 12 -25 51q-12 35 -18 82q-47 -43 -111 -86q-33 -23 -90 -49q-39 -18 -76 -25q-35 -6 -65 -6q-39 0 -93 15q-41 10 -79 47q-39 35 -59.5 94 t-20.5 154v409q0 18 -1 43t-1 33q0 27 -12.5 39t-37.5 18q-8 2 -69 10z" />
<glyph unicode="&#x1b3;" horiz-adv-x="1454" d="M0 1241q10 2 27.5 5t38.5 5q23 4 75 9q12 2 36 5t34 3q23 2 53 2q35 0 60 -13q27 -14 41 -32q43 -57 79 -113l47 -77t35 -58q29 -47 82 -150l76 -147l217 420q33 61 53 88q29 37 68 69q29 25 82 46q47 18 106 18q57 0 100.5 -18.5t73.5 -49.5q33 -33 48 -69 q16 -43 16 -82q0 -23 -2 -35l-6 -37q-2 -12 -6 -33q-2 -10 -7 -18q-8 -16 -32 -33q-12 -8 -66 -35l-69 -32q-34 -15 -50 -19l-24 60q2 6 7 14t9 16q8 12 15 33q2 6 7 17.5t7 17.5q4 12 4 37q0 45 -23 73q-20 27 -61 27q-37 0 -66 -31q-33 -35 -51 -73l-278 -523v-383 q0 -6 6 -14q6 -9 24 -18q29 -14 50 -21q29 -8 77 -18v-74h-565v74q43 8 76 18q27 8 47.5 18.5t26.5 18.5q8 12 8 16v377q-43 94 -82 166q-45 86 -92 166l-92 150q-18 31 -78 116l-21 21q-6 6 -26 14q-18 6 -43 10q-33 4 -68 4z" />
<glyph unicode="&#x1b4;" horiz-adv-x="1038" d="M-66 -424q0 4 17 31q18 31 37 53l49 55q25 27 45 39q39 -25 74 -33q41 -10 57 -10q35 0 61 8q29 8 58 31q25 20 53 62q27 41 47 98l27 65l-334 813q-8 25 -37 43q-14 10 -76 25v74h455v-74q-10 -2 -31.5 -4t-29.5 -4q-12 -4 -29 -14q-8 -6 -8 -19q0 -6 8 -27l201 -501 l227 620q53 141 104 215q63 88 119 131q59 45 119 64q57 18 106 18q20 0 66 -8q29 -4 65 -16q25 -8 48 -23q20 -14 20 -20q0 -4 -16 -31q-18 -31 -37 -53q-12 -16 -49 -58q-23 -25 -43 -39q-37 23 -76 33q-41 10 -57 10q-70 0 -127 -53q-51 -49 -97 -166l-375 -1003 q-41 -115 -100 -197q-53 -76 -115 -123q-55 -43 -118 -63q-57 -18 -107 -19q-33 0 -65 7q-29 4 -66 16q-20 6 -49 22q-21 13 -21 25z" />
<glyph unicode="&#x1b7;" horiz-adv-x="1105" d="M90 139q0 12 14 35q18 31 37 53q29 37 49 56q27 23 54 36q27 -51 57 -83q39 -43 69.5 -66t78.5 -41q37 -14 81 -14q127 0 199 71q70 70 70 199q0 57 -19 111q-16 45 -55 88q-35 39 -80 59q-43 20 -100 21q-31 0 -45 -2q-39 -6 -41 -7q-8 -2 -41 -16q-22 -9 -49 -25 l-37 -20l-2 2l-4 5q-4 5 -7 7q-4 4 -8 7t-6 7.5t-6 8.5l-8 8q-4 6 -8 14l-2 2v2l381 473h-328q-12 0 -37 -20q-16 -14 -39 -51q-20 -35 -35 -74q-20 -57 -26 -88l-88 18l38 361q29 -8 43 -10q29 -4 46 -4q8 0 24 -1t27 -1h651l31 -50l-328 -411q10 2 27 2q4 0 13 1t13 1 q70 0 131 -25q59 -25 105 -71q45 -49 69 -115q25 -68 25 -156q0 -70 -23 -133q-20 -57 -59 -113q-35 -51 -90 -92q-52 -40 -110.5 -67.5t-123.5 -42.5q-70 -16 -126 -17q-78 0 -160 21q-80 20 -127 45q-55 29 -84 55q-31 27 -31 47z" />
<glyph unicode="&#x1cd;" horiz-adv-x="1286" d="M0 0v74q68 12 104 24q39 12 48 43l348 1065q12 12 51 37q29 18 57 31q6 2 27.5 11t32.5 13l55 19l420 -1176q6 -18 12 -24q10 -12 23 -21q8 -4 34.5 -12t53.5 -10v-74h-498v74q86 6 106 18q29 16 17 49l-103 289h-397l-94 -289q-8 -31 22 -45q29 -12 117 -22v-74h-436z M432 551h316l-166 465zM293 1712q20 29 29 37q18 18 30 24l283 -186l279 186q12 -6 30 -24q12 -12 27 -37l-268 -328h-138z" />
<glyph unicode="&#x1ce;" horiz-adv-x="1021" d="M66 201q0 70 24 116q27 49 62 84q29 29 55 48q29 20 84 43q59 25 131 40q78 18 201 37v117q0 31 -6.5 59.5t-20.5 45.5q-16 18 -41 28q-27 10 -61 10q-27 0 -50 -8q-16 -6 -41 -26q-20 -16 -28 -39q-10 -29 -8 -54q0 -8 -17 -16q-18 -9 -43 -18q-16 -6 -57 -18.5 t-60 -16.5q-33 -8 -53 -10q-22 -3 -31 0l-20 53q25 61 76 112q41 41 121 89q68 41 149 61q86 23 166 23q70 0 119 -18.5t82 -51.5q35 -35 49 -76t14 -94v-483q0 -41 12.5 -59.5t28.5 -18.5q2 0 7 1t8 1q6 0 18 4l25 8q6 2 14 5l18 7l23 -73q-76 -49 -88 -56l-86 -45 q-40 -18 -74 -30q-35 -12 -51 -13q-37 0 -61.5 43t-30.5 117q-43 -43 -93 -76q-51 -35 -86 -49q-39 -16 -81 -27q-35 -8 -72 -8q-45 0 -82 15q-40 15 -74 43q-25 20 -51 73q-20 42 -20 101zM319 258q0 -37 9 -55q10 -23 24 -35q15 -12 31 -18q10 -4 29 -5q12 0 41 5 q16 2 45 16q47 23 57 31q23 16 68 53v221q-33 -4 -101 -20q-47 -10 -69 -19q-29 -10 -45 -20q-18 -12 -31 -25q-27 -27 -41 -55q-17 -33 -17 -74zM172 1446q4 8 27 39q14 18 32 28l281 -219l279 219q18 -8 34 -28q31 -35 33 -39l-278 -381h-138z" />
<glyph unicode="&#x1cf;" horiz-adv-x="669" d="M63 0v74q70 16 103 30q35 16 35 29v991q0 12 -33 31q-31 16 -105 33v72h525v-72q-72 -16 -103 -33q-35 -18 -34 -31v-991q0 -10 32 -29q25 -14 105 -30v-74h-525zM-14 1712q20 29 29 37q18 18 30 24l283 -186l279 186q12 -6 30 -24q12 -12 27 -37l-268 -328h-138z" />
<glyph unicode="&#x1d0;" horiz-adv-x="614" d="M63 0v74q72 16 101 30q31 14 31 29v514v84q0 31 -13 49q-10 14 -39 25q-14 4 -80 12v72q104 14 162 29q80 18 146 43h63v-828q0 -10 31 -29q25 -14 102 -30v-74h-504zM-29 1446q4 8 27 39q14 18 32 28l281 -219l279 219q18 -8 34 -28q31 -35 33 -39l-278 -381h-138z" />
</font>
</defs>
</svg>
