<?xml version="1.0" standalone="no"?>
<!DOCTYPE svg PUBLIC "-//W3C//DTD SVG 1.1//EN" "http://www.w3.org/Graphics/SVG/1.1/DTD/svg11.dtd" >
<svg xmlns="http://www.w3.org/2000/svg">
<metadata>
This is a custom SVG webfont generated by Font Squirrel.
Copyright   : Copyright c SIL International 20032008
Designer    : J Victor Gaultney and Annie Olsen
Foundry     : SIL International
Foundry URL : httpscriptssilorg
</metadata>
<defs>
<font id="webfont3obwzmpv" horiz-adv-x="1243" >
<font-face units-per-em="2048" ascent="1638" descent="-410" />
<missing-glyph horiz-adv-x="468" />
<glyph unicode=" "  horiz-adv-x="468" />
<glyph unicode="&#x09;" horiz-adv-x="468" />
<glyph unicode="&#xa0;" horiz-adv-x="468" />
<glyph unicode="!" horiz-adv-x="581" d="M152 80q0 35 12 65q14 35 33 54q23 23 49 34q29 12 59 13q51 0 82 -31q33 -33 33 -88q0 -37 -12 -68q-14 -35 -33 -53q-20 -20 -49 -33q-33 -14 -60 -14q-55 0 -86 31q-28 29 -28 90zM172 1389q10 6 21.5 11t23.5 13l49 27q33 16 49 22l21.5 10.5t19.5 8.5l45 -29 l-59 -1055q-14 -12 -39 -22q-8 -4 -23.5 -9.5l-21.5 -7.5l-29 21z" />
<glyph unicode="&#x22;" horiz-adv-x="899" d="M154 1415q27 14 34 17q4 2 23.5 9l30.5 11q18 6 51 18q8 4 37 11l45 -25l-53 -622q-2 0 -9.5 -3.5l-11.5 -5.5q-8 -2 -28.5 -6t-28.5 -4q-6 0 -15.5 -1t-13.5 -1zM526 1415q27 14 35 17q4 2 23.5 9t29.5 11q37 12 54 18l34 11l46 -25l-54 -622q-2 0 -9 -3.5l-11 -5.5 q-8 -2 -28.5 -6t-29.5 -4q-6 0 -14 -1t-12 -1z" />
<glyph unicode="#" horiz-adv-x="985" d="M82 496q2 6 6 22l8 27l10 26q8 23 11 25h176l72 246h-152l-25 22q12 43 17 54q6 16 11 28t7 21h176l82 284q22 15 49 25l50 16l28 -22l-88 -303h182l82 284q22 15 50 25q6 2 24.5 7t26.5 9l26 -22l-86 -303h152l24 -27l-2 -9q-2 -9 -4 -16q0 -2 -10 -26q-6 -14 -10 -27 q-4 -8 -8 -20h-179l-69 -246h151l23 -29q-2 -6 -6 -22.5t-8 -26.5q-2 -8 -5.5 -14t-5.5 -12q-2 -4 -5 -12.5t-3 -10.5h-178l-84 -299q-18 -14 -47 -24.5t-55 -18.5l-27 20l92 322h-182l-86 -299q-18 -14 -47 -25l-53 -18l-27 20l92 322h-154zM414 596h184l70 246h-185z" />
<glyph unicode="$" horiz-adv-x="985" d="M84 209q0 27 4 84q2 41 12 69l54 -4q49 -104 120.5 -161.5t165.5 -71.5v461q-43 14 -125 47q-66 27 -112 61q-51 37 -80 88q-31 53 -31 127q0 43 19 92q18 47 57 90.5t106 75.5q68 34 166 43v142l21 12q2 2 14 8q2 0 7 2t7 4q6 2 23 6l29 -24v-146q33 -2 94 -10 q35 -4 86 -20q37 -12 72 -29q29 -14 51 -37q4 -4 -2 -28q-8 -25 -21 -50l-30 -51q-18 -25 -31 -37l-49 9q-80 111 -170 137v-367l127 -51q57 -25 112 -70q45 -37 80 -98q33 -59 33 -137q0 -57 -23 -121q-20 -61 -65 -115q-39 -47 -109 -90q-61 -39 -155 -51v-135 q-27 -23 -33 -25q-16 -6 -39 -12l-29 24v140q-98 4 -174 28q-82 27 -170 82q-8 8 -10 37q-2 21 -2 72zM246 956q0 -37 14 -63q16 -31 41 -49q37 -29 61 -41l78 -35v340q-59 -4 -90 -16q-43 -18 -59 -35q-23 -23 -35 -47q-10 -21 -10 -54zM541 123q43 6 71 20q27 12 62 43 q27 25 43 60q14 31 14 76q0 47 -14.5 77.5t-40.5 61.5q-16 18 -62 47q-29 18 -73 39v-424z" />
<glyph unicode="%" horiz-adv-x="1437" d="M70 897q0 74 22 131q25 63 66 107q45 47 96 73q53 27 118.5 27t116.5 -27q57 -31 91 -71q35 -43 57 -109q18 -53 18 -131q0 -74 -22 -131q-25 -63 -66 -107q-43 -46 -98 -73q-57 -29 -118.5 -29t-114.5 29q-51 27 -89 73q-35 45 -57 107q-20 59 -20 131zM201 0l874 1192 q25 12 31 14l37 13q6 2 18.5 5t18.5 5q12 4 32 8l27 -33l-877 -1190q-16 -10 -26 -14q-25 -8 -39 -12q-29 -8 -41 -13l-33 -8zM233 920q0 -143 39 -215q37 -68 101 -68q49 0 84 59.5t35 180.5q0 74 -13 124q-12 52 -30 86q-18 35 -45 51.5t-54 16.5q-29 0 -45 -12 q-22 -15 -37 -43q-14 -27 -24.5 -74t-10.5 -106zM784 309q0 70 25 131.5t65 108.5q37 41 97 72q53 27 118.5 26.5t116.5 -26.5q53 -29 88 -72q39 -49 58 -109q18 -61 18 -131q0 -76 -22 -131q-27 -68 -66 -108q-39 -43 -98 -72q-57 -29 -117 -29q-61 0 -115 29 q-57 31 -90 72q-35 43 -57 108q-21 59 -21 131zM950 332q0 -143 39 -215q37 -68 101 -68q49 0 84 60q33 57 32 180q0 82 -10 125q-12 52 -31 86q-18 33 -45 53q-23 16 -53 16q-25 0 -45 -14q-25 -16 -37 -43q-15 -31 -24 -74q-11 -47 -11 -106z" />
<glyph unicode="&#x26;" horiz-adv-x="1382" d="M76 352q0 111 74 221q76 113 219 218q-31 76 -50 143q-18 70 -18 139q0 80 29 150q29 72 76 120q47 51 110 78q68 29 133 29q72 0 115 -20q49 -23 76 -56q33 -39 43 -78q14 -51 14 -92q0 -53 -20 -102q-23 -55 -58 -98q-49 -61 -84 -93q-47 -41 -108 -80l-58 -36 q29 -55 78 -125l90 -123l97 -117q14 -18 100 -108q23 39 41 92q14 43 14 88q0 41 -12 78q-10 31 -37 61q-20 25 -51 41q-29 16 -58 16l-22 29q2 2 6 7t8 9.5t21 16.5q20 14 22 16l21 10h456l25 -38q-25 -31 -51 -58q-18 -18 -51 -43q-23 10 -41 17l-45 12q-29 8 -43 10 q-29 4 -39 4l16 -33q8 -23 10 -30l3 -15q3 -14 3 -22v-47q0 -72 -30 -148q-31 -80 -86 -151q27 -27 55 -51l28.5 -23.5l26.5 -22.5q45 -39 90 -47q49 -10 105 2l10 -53l-84 -33q-40 -15 -74 -24q-10 -2 -29.5 -8.5t-27.5 -8.5q-25 -6 -35 -6q-23 0 -75 37q-66 47 -125 100 q-82 -61 -174 -98q-100 -39 -201 -39q-96 0 -176 24.5t-135.5 74t-86.5 118.5q-30 71 -30 166zM270 373q0 -76 23 -123q25 -52 61 -86q37 -35 88 -53q43 -16 101 -17q82 0 141 23q66 25 119 63q-31 31 -100.5 109t-102.5 121t-94 133q-49 70 -84 139q-39 -37 -72 -80 q-31 -41 -47 -74q-20 -43 -27 -77q-6 -41 -6 -78zM463 1130q0 -61 14 -118q10 -43 45 -123q55 31 101 72q43 39 61 71q20 37 31 72q10 37 10 67.5t-10 65.5q-8 29 -24.5 51.5t-41 34.5t-55.5 12q-37 0 -59 -16q-25 -18 -41 -47q-14 -27 -25 -66q-6 -25 -6 -76z" />
<glyph unicode="'" horiz-adv-x="526" d="M154 1415q27 14 34 17q4 2 23.5 9l30.5 11q18 6 51 18q8 4 37 11l45 -25l-53 -622q-2 0 -9.5 -3.5l-11.5 -5.5q-8 -2 -28.5 -6t-28.5 -4q-6 0 -15.5 -1t-13.5 -1z" />
<glyph unicode="(" horiz-adv-x="657" d="M117 623q0 170 33 315q35 154 94 279q59 123 149 227q86 98 193 155l39 -55q-61 -53 -119 -141q-55 -84 -98 -201q-43 -114 -68 -252q-25 -139 -25 -299q0 -154 21 -282q23 -145 59 -254q43 -127 97 -215q57 -94 133 -160l-39 -55q-119 59 -205 151q-92 98 -148 215 q-55 119 -88 268q-28 136 -28 304z" />
<glyph unicode=")" horiz-adv-x="657" d="M37 -260q59 51 119 143q55 84 98 201q39 104 65 252q25 139 25 299q0 166 -18 283q-25 150 -60 253q-41 119 -98 213q-59 96 -131 160l39 55q117 -55 205 -149t145 -215q59 -127 90 -268q29 -135 29 -303q0 -170 -33 -316q-33 -147 -96 -280q-59 -125 -147.5 -225.5 t-192.5 -157.5z" />
<glyph unicode="*" horiz-adv-x="911" d="M68 956v48l315 129l-291 118q0 4 1 14.5t1 16.5q0 25 2 37l6 37q2 16 7 26l41 23l268 -207l-43 309l28 15q20 12 33 16q18 8 35 14q12 4 29 9l39 -25l-45 -338l245 193q4 -2 10.5 -6.5l14.5 -10.5q10 -6 31 -22l30 -23q20 -16 23 -18l-2 -45l-316 -131l291 -117 q0 -4 -1 -14.5t-1 -16.5q0 -12 -4 -37q0 -6 -2 -18t-2 -19q-2 -12 -6 -28l-43 -23l-266 207l41 -307q-10 -6 -27 -14q-20 -12 -33 -17q-8 -2 -20.5 -8t-14.5 -6q-10 -4 -26 -8l-41 22l45 338l-246 -192q-4 2 -11 7l-15.5 11t-15.5 10t-15 10q-2 2 -13.5 10.5t-15.5 12.5 t-11 9t-9 9z" />
<glyph unicode="+" horiz-adv-x="847" d="M57 528q8 29 17 47l20 48h268v272l48 16q10 4 29.5 9.5t21.5 5.5l26 -25v-278h275l26 -27q-2 -6 -6 -23q-4 -12 -10 -26q-2 -6 -5 -12.5t-5 -12.5q-4 -8 -8 -20h-267v-271q-22 -9 -49 -18q-6 -2 -49 -14l-27 24v279h-276z" />
<glyph unicode="," horiz-adv-x="495" d="M88 143q10 12 41 29q51 27 70 33q39 14 77 24q41 10 58 11q47 -20 67 -66q18 -40 19 -104q0 -45 -19 -97q-23 -66 -49 -108q-33 -53 -78 -105q-43 -49 -100 -90l-53 39l49 64q18 27 33 65q16 45 20 70q8 49 8 80q0 41 -32 73q-29 29 -95 25z" />
<glyph unicode="-" horiz-adv-x="702" d="M57 477q10 35 17 49l11 27.5t9 21.5h522l27 -26l-6 -25q-2 -8 -5 -14t-5 -12q-2 -4 -5.5 -13.5t-5.5 -13.5q-4 -8 -8 -20h-522z" />
<glyph unicode="." horiz-adv-x="495" d="M131 80q0 35 12 65q14 35 33 54q23 23 49 34q29 12 60 13q53 0 83.5 -31t30.5 -88q0 -37 -12 -68q-14 -35 -33 -53q-20 -20 -49 -33q-33 -14 -59 -14q-53 0 -84 31t-31 90z" />
<glyph unicode="/" horiz-adv-x="964" d="M43 -307l702 1855q14 10 31 17q6 2 17.5 7t17.5 7l37 12q18 4 33 8l39 -22l-699 -1860q-14 -10 -28 -14q-4 -2 -16.5 -7t-21 -7t-22.5 -7.5t-18 -7.5l-31 -10z" />
<glyph unicode="0" horiz-adv-x="985" d="M72 602q0 131 30.5 243.5t90.5 201.5q61 90 137 137q84 51 180 51t174 -49q72 -45 127 -137q55 -90 78 -201q27 -127 26 -246q0 -123 -32 -244q-31 -113 -90 -200q-61 -90 -138 -138q-84 -51 -180 -51q-92 0 -172 51q-72 45 -127 138q-49 80 -78 200q-26 109 -26 244z M268 645q0 -150 17 -242q16 -94 51 -174q29 -68 76 -104q45 -35 98 -35q49 0 88 26.5t66 84.5q25 51 41 147q14 84 14 217q0 135 -19 240q-18 100 -53 172t-78 104q-41 33 -94 33q-49 0 -88 -26.5t-65 -81.5q-20 -45 -39 -148q-15 -84 -15 -213z" />
<glyph unicode="1" horiz-adv-x="985" d="M133 1075q59 16 105 33l124 45l123 49q49 20 90 43l39 -37v-1054q0 -10 13 -23q10 -10 38.5 -22.5t75.5 -24.5q41 -10 123 -21v-63h-698v63q86 10 129 21q68 16 84 22q31 12 43 24.5t12 23.5v776q0 47 -2 61q-4 23 -14 37q-8 8 -23 10q-10 2 -47 2q-33 0 -78 -6 q-61 -8 -112 -20z" />
<glyph unicode="2" horiz-adv-x="985" d="M92 74l207 243l152 189l106 143q37 51 66 111q27 53 35 88t8 76q0 39 -11 84q-8 37 -32 67q-25 33 -58 47q-37 16 -86 17q-37 0 -73 -21q-34 -18 -56 -49q-20 -29 -32.5 -67.5t-10.5 -71.5q-45 -25 -71 -35q-37 -14 -86 -21l-29 44q0 57 35 108q37 55 96 102 q55 43 135 76q76 31 162 31q61 0 121 -16q53 -14 96 -52q45 -37 63 -84q25 -59 25 -120q0 -37 -14 -91q-12 -45 -39 -96q-23 -43 -72 -112q-23 -33 -106 -138l-146 -172l-184 -215h412q20 0 30 8q16 12 23 21q14 20 18 29q4 10 12 34q12 40 19 93l59 -15l-14 -309h-729z" />
<glyph unicode="3" horiz-adv-x="985" d="M72 125l34 76q51 -39 84 -56q59 -33 74 -36q51 -16 70 -21q23 -4 72 -4q63 0 104 16q47 18 82 54q31 31 51 84q20 55 21 112q0 70 -25 125q-23 49 -57 82q-31 29 -78 45q-41 14 -84 14h-23q-2 0 -6 -1t-6 -1t-6 -1t-8 -1t-25 -4l-14 72q96 27 143 55q57 35 84 68 q31 37 39 71q8 33 8 66q0 29 -10 70q-10 39 -29 63q-23 29 -53.5 47.5t-75.5 18.5q-37 0 -63 -15q-29 -16 -47 -37q-20 -25 -27 -55q-6 -35 -2 -63q-37 -23 -76 -33q-47 -14 -90 -16l-29 41q0 41 31 90q25 39 84 88q47 39 125 69q68 27 152 27q78 0 137 -25q57 -25 94 -63 q35 -37 53 -88q18 -49 19 -101q0 -37 -16.5 -75.5t-43.5 -71.5q-35 -41 -65 -63q-41 -29 -88 -50q55 -6 106 -34.5t86 -69.5q31 -37 56 -98q20 -53 20 -115q0 -84 -28.5 -160t-84.5 -131q-53 -53 -135 -88q-78 -33 -182 -33q-43 0 -82 8q-47 10 -88 27q-53 20 -92 47t-90 74 z" />
<glyph unicode="4" horiz-adv-x="985" d="M55 381l492 790l86 37l78 37l39 -37v-743h127l24 -31q-25 -35 -41 -51q-2 -2 -45 -39h-65v-229q0 -8 6 -15q8 -8 22 -14q31 -12 43 -16l68 -17v-53h-518v53q90 16 104 21q49 12 66 18q25 10 30 17q8 8 9 16v219h-490zM225 465h355v555z" />
<glyph unicode="5" horiz-adv-x="985" d="M78 123l41 74q55 -39 96 -60q45 -23 82 -35q49 -16 70 -18q41 -4 61 -4q59 0 107 24q51 27 77 62q33 43 47 92q16 55 17 109q0 74 -17 122q-18 55 -51 95q-31 37 -82 59q-47 20 -112 21q-53 0 -117 -23q-59 -20 -113 -61l-47 32l15 86l16 103l16 110q12 74 17 111l12 100 q2 18 4 47t2 35h465q23 0 51.5 4t38.5 6q20 4 33 9l31 -31q-2 -4 -27 -37q-10 -14 -33 -37q-16 -18 -33 -35q-18 -18 -26 -24h-404q-2 -23 -6 -74q-2 -29 -10 -86q-2 -16 -7 -44l-7 -40q-2 -14 -6.5 -34.5t-4.5 -26.5q35 12 97 22q49 8 110 8q95 0 166 -30q70 -31 119 -82 t74 -121q25 -68 24 -141q0 -88 -26 -166q-28 -80 -80 -142q-49 -57 -129 -96q-77 -37 -178 -37q-94 0 -190.5 37t-182.5 117z" />
<glyph unicode="6" horiz-adv-x="985" d="M104 473q0 141 43 270q41 125 132 234q84 102 219 174q139 74 311 98l20 -69q-125 -29 -208 -78q-86 -51 -154 -121q-63 -66 -105 -152q-37 -76 -53 -167q25 23 70 51q37 25 67 35q47 16 64 20q31 6 53 6q83 0 148 -24q61 -23 108 -74q43 -45 68 -115q25 -68 24 -149 q0 -46 -12 -99q-12 -55 -33 -100q-22 -49 -55 -92q-37 -47 -76 -78t-96 -53q-53 -20 -119 -21q-86 0 -162 37q-74 35 -131 103q-55 63 -90 159q-33 90 -33 205zM299 537q0 -119 18.5 -205t51.5 -139q33 -55 82 -84q41 -25 104 -25q53 0 84 22.5t53 63.5q18 35 29 86 q8 41 8 92q0 98 -20 154q-23 63 -51.5 94t-69.5 45q-43 14 -74 14q-43 0 -104 -28q-52 -24 -111 -90z" />
<glyph unicode="7" horiz-adv-x="985" d="M102 928q0 2 3.5 24.5t5.5 37t4 26.5t4 22.5t4 28.5l12 78q6 39 12 59h730l32 -37l-92 -217l-90 -217l-84 -207q-23 -55 -41 -105t-33 -85q-10 -29 -59 -162q-4 -10 -45 -127q-39 -29 -84 -45q-66 -25 -98 -33l-43 37q104 188 155 289q88 176 127 262l111 250l108 252 h-452q-6 0 -14.5 -1t-14.5 -1q-12 0 -31 -15q-14 -12 -34 -45q-14 -25 -39 -90z" />
<glyph unicode="8" horiz-adv-x="985" d="M88 285q0 49 21 104q14 39 55 94q29 39 84 84q45 37 108 72q-47 23 -82 45q-33 20 -69 57q-27 27 -47 74q-18 43 -19 100q0 61 31 127q29 59 78 103q43 39 119 65q68 25 145 25q86 0 145 -21q61 -22 105 -55q41 -33 63.5 -84t22.5 -106q0 -39 -17 -78q-14 -35 -42.5 -70 t-65.5 -65q-45 -37 -84 -64q66 -33 96 -53q45 -31 82 -70q33 -37 57 -94q23 -55 23 -123q0 -78 -35 -147.5t-92 -120.5q-61 -55 -137 -84q-80 -31 -166 -31t-162 27q-66 23 -119 70q-47 41 -73 100q-25 56 -25 119zM283 315q0 -57 16 -96q20 -47 47 -74q33 -33 72 -49 q43 -18 92 -18q53 0 88 20.5t59.5 51t36.5 73.5q10 35 11 86q0 59 -23 109q-23 47 -57 80q-33 31 -84 57q-31 16 -97 45q-49 -39 -73.5 -65.5t-48.5 -65.5q-20 -33 -31 -72q-8 -33 -8 -82zM303 950q0 -45 21 -73q25 -33 53 -56q37 -27 78 -47l94 -41q63 51 90 102.5 t27 102.5q0 49 -16.5 88t-41 61.5t-63.5 34.5q-37 12 -78 13q-39 0 -72 -17q-25 -12 -51 -43q-23 -25 -31 -57q-10 -37 -10 -68z" />
<glyph unicode="9" horiz-adv-x="985" d="M94 795q0 72 33 153q31 77 86 142q55 63 133 104t170 41q74 0 148 -29q70 -27 122 -90q49 -59 82 -158q31 -95 31 -227q0 -154 -43 -282q-43 -131 -129 -231.5t-221 -170.5q-127 -66 -311 -90l-21 70q137 35 232 86q100 55 159.5 120.5t93.5 151.5q35 84 43 176 q-51 -55 -122 -90q-66 -33 -140 -33q-80 0 -147.5 29t-108.5 76q-45 51 -65 112q-25 74 -25 140zM279 856q0 -92 20 -147q20 -53 53 -91q29 -33 68 -45q43 -14 72 -14q63 0 118 37q59 39 99 90q-2 127 -25 213q-23 90 -53 135q-33 47 -74 70q-35 18 -78 18q-47 0 -84 -18 q-39 -20 -63 -55q-33 -47 -41 -84q-12 -50 -12 -109z" />
<glyph unicode=":" horiz-adv-x="495" d="M131 80q0 35 12 65q14 35 33 54q23 23 49 34q29 12 60 13q53 0 83.5 -31t30.5 -88q0 -37 -12 -68q-14 -35 -33 -53q-20 -20 -49 -33q-33 -14 -59 -14q-53 0 -84 31t-31 90zM131 795q0 35 12 65q14 35 33 53q23 23 49 35q29 12 60 13q53 0 83.5 -31t30.5 -90 q0 -35 -12 -66q-14 -35 -33 -53q-23 -23 -49 -35t-59 -12q-53 0 -84 31t-31 90z" />
<glyph unicode=";" horiz-adv-x="495" d="M88 143q10 12 41 29q51 27 70 33q39 14 77 24q41 10 58 11q47 -20 67 -66q18 -40 19 -104q0 -45 -19 -97q-23 -66 -49 -108q-33 -53 -78 -105q-43 -49 -100 -90l-53 39l49 64q18 27 33 65q16 45 20 70q8 49 8 80q0 41 -32 73q-29 29 -95 25zM131 795q0 35 12 65 q14 35 33 54q23 23 49 34q29 12 60 13q53 0 83.5 -31t30.5 -88q0 -37 -12 -68q-14 -35 -33 -53q-20 -20 -49 -33q-33 -14 -59 -14q-53 0 -84 31t-31 90z" />
<glyph unicode="&#x3c;" horiz-adv-x="907" d="M57 528l4 15l5 14q2 10 7 26.5t7 20.5q2 6 6 14q0 2 2 6.5t2 6.5l2 4l731 270l29 -26q0 -4 -2 -7.5t-3 -7.5t-3 -10l-8.5 -30.5l-8.5 -30.5l-8 -25l-547 -201l559 -202l21 -39q-8 -8 -19.5 -17.5t-21.5 -19.5q-16 -14 -51 -37l-674 248z" />
<glyph unicode="=" horiz-adv-x="907" d="M57 379q10 33 16.5 47l11.5 25.5t9 19.5h729l29 -27q-6 -22 -18 -49q-6 -12 -17 -45h-731zM57 678q8 29 17 47q16 37 20 45h729l29 -27q0 -2 -3 -10t-5 -12q-2 -8 -10 -25l-9 -24q-2 -4 -5 -12.5t-3 -10.5h-731z" />
<glyph unicode="&#x3e;" horiz-adv-x="907" d="M57 279q0 4 2 7t3 7t4 10q4 14 8 31q2 8 5 15t5 13l6 25l545 201l-557 205l-21 38l47 39q14 12 25.5 20.5t20.5 14.5l675 -248l27 -28q0 -4 -2 -7.5t-3 -7.5t-3 -10q0 -2 -3 -12l-5 -17q-4 -16 -9 -28q-2 -8 -5 -14.5t-5 -12.5l-731 -268z" />
<glyph unicode="?" horiz-adv-x="901" d="M76 1133v18q0 74 35 131q39 63 96 104q66 45 137 68q86 27 166 27q68 0 135 -25q63 -23 100 -63.5t60 -100.5q20 -55 20 -127q0 -80 -22 -135q-25 -59 -62 -112q-43 -61 -79 -101q-41 -45 -82 -98q-39 -53 -66 -105q-27 -53 -33 -120l-6 -97q-18 -15 -37 -24 q-4 -2 -47 -17l-26 23l-9 115q-2 55 16.5 112.5t49.5 108.5l67 106l68 103q25 39 51 100q23 51 23 96q0 125 -51.5 190.5t-145.5 65.5q-33 0 -61 -14q-35 -18 -54 -41q-23 -31 -34 -61q-12 -34 -13 -74q0 -10 4 -31q4 -16 9 -29q-16 -10 -39 -16q-29 -8 -45 -12 q-35 -8 -47 -11q-8 -2 -24.5 -5t-23.5 -3l-28 33q-2 7 -2 21zM295 80q0 35 12 65q14 35 33 54q23 23 49 34q29 12 60 13q51 0 81.5 -31t30.5 -88q0 -41 -10 -68q-14 -35 -33 -53q-20 -20 -49 -33q-33 -14 -59 -14q-55 0 -86 31q-29 29 -29 90z" />
<glyph unicode="@" horiz-adv-x="1699" d="M76 465q0 115 30.5 225.5t86.5 208.5q49 86 137 178q82 84 174 142q94 57 207 92q106 33 231 32q147 0 279 -51q129 -51 217 -147q90 -100 139 -246q49 -147 49 -342q0 -90 -20 -164q-25 -86 -54 -141q-37 -70 -77 -117q-47 -53 -96.5 -90t-100.5 -55q-57 -20 -100 -21 q-23 0 -50 11q-25 9 -43 30q-14 16 -32 58q-12 25 -23 84q-33 -45 -72 -89q-37 -39 -61 -57q-27 -18 -59 -29q-27 -8 -70 -8q-52 0 -104 31q-51 29 -95 92q-43 61 -69.5 147.5t-26.5 202.5q0 49 14 121q10 51 39 119q18 47 64 109q35 47 84 88q47 37 106 59q61 23 123 23 q18 0 43 -5q16 -2 39 -14q18 -10 39 -27q23 -18 47 -47q43 20 68 39q20 14 63 54l33 -31q-12 -37 -16 -66q-8 -41 -11 -67q-4 -53 -4 -80v-432q0 -80 24.5 -119t71.5 -39q23 0 56 28.5t59 80.5q31 57 47 120q18 70 19 156q0 170 -43 299q-45 133 -119 217q-80 90 -182 133 q-104 45 -234 45q-94 0 -190 -26q-86 -25 -160 -70q-78 -49 -129 -109q-57 -68 -96 -141q-33 -63 -58 -160q-20 -82 -20 -176q0 -123 24 -227q25 -109 70 -191q45 -84 109 -153q57 -61 137 -111q74 -45 162 -69q80 -23 176 -23t170 17q72 16 151 45q70 25 121 55 q49 29 82 55l35 -65q-37 -39 -94 -82q-53 -41 -133 -78q-77 -37 -173 -62q-88 -23 -208 -22q-174 0 -324 59q-143 57 -254 170q-106 111 -166 269q-59 159 -59 354zM653 473q0 -88 19 -151q18 -68 44.5 -111t63.5 -68q35 -23 68 -22q18 0 37 6q16 6 37 23q25 20 43 40 q41 45 59 70v471q-2 4 -27 47q-10 18 -30 35q-14 12 -39 23q-18 8 -49 8q-102 0 -164 -92.5t-62 -278.5z" />
<glyph unicode="A" horiz-adv-x="1241" d="M0 0v53q66 12 106 25q40 12 50 43l364 1106q33 33 74 53l78 37l420 -1196q4 -12 14 -25q6 -8 22 -18q10 -6 39 -15q27 -8 54 -10v-53h-447v53q82 6 107 21q29 16 18 47l-111 319h-403l-106 -319q-8 -31 26 -45q31 -12 119 -23v-53h-424zM418 541h336l-172 497z" />
<glyph unicode="B" horiz-adv-x="1159" d="M37 1231q31 10 96 20l115 18.5t123 14.5q61 6 118 6q102 0 189 -18q82 -18 143 -53q57 -33 90 -86q31 -49 31 -113q0 -106 -53 -184t-150 -113q70 -12 125 -45q57 -33 101 -82q41 -47 65.5 -108.5t24.5 -131.5q0 -84 -35 -153q-33 -66 -96 -117q-61 -49 -152 -74 q-96 -27 -194 -26h-54q-10 0 -32.5 1t-34.5 1q-18 0 -37 1t-39 1q-27 0 -76 4q-76 2 -182 6h-76v53q72 16 107 31q37 15 36 31v1067q-20 -2 -37.5 -5l-35.5 -6q-10 -2 -35 -5t-35 -5zM381 113q0 -10 6 -15q18 -8 37 -10l41 -6q14 -2 43 -2q8 0 22.5 -1t20.5 -1q71 0 129 18 q57 18 96 51t60 78q20 43 20 102.5t-16 110.5q-18 59 -58 105q-41 47 -100 73q-63 29 -147 29q-35 0 -84 -4q-45 -4 -70 -8v-520zM381 729h29q104 0 175.5 22.5t106.5 55.5q37 33 49 78q14 49 15 86q0 47 -17 92q-14 39 -53 72q-33 27 -100 47q-55 16 -156 16h-24h-25v-469z " />
<glyph unicode="C" horiz-adv-x="1112" d="M66 586q0 168 47 291q49 127 133 221q82 90 196.5 141t239.5 51q59 0 102 -8q39 -8 93 -22q43 -12 79 -31q39 -20 62 -39q4 -4 -4 -25q-4 -8 -27 -45q-2 -4 -35 -47q-18 -25 -30 -37l-45 11q-49 57 -119 92t-156 35q-34 0 -74 -13q-39 -12 -77 -39q-35 -25 -74 -69 q-37 -43 -64 -103q-28 -61 -43 -141q-16 -86 -16 -186q0 -129 37 -227.5t94 -162.5q59 -66 129 -96q76 -33 141 -33q31 0 64 9q43 10 80 26q43 18 92 49q45 29 102 76q4 -2 13 -10q4 -4 12 -16q6 -8 10 -17q2 -2 5 -6l3 -4q-61 -63 -123 -113q-66 -51 -116 -75 q-63 -31 -113 -41q-55 -12 -109 -13q-94 0 -186 43q-96 45 -164 121q-76 86 -116 193q-43 113 -43 260z" />
<glyph unicode="D" d="M37 1231q18 4 106 22q12 2 129 19q90 12 136 14q90 4 131 4q150 0 258 -41q119 -45 194 -121q80 -80 123 -192q41 -109 41 -260q0 -125 -25 -223q-23 -90 -69 -174q-45 -78 -100 -129q-61 -55 -121 -86t-131.5 -47.5t-128.5 -16.5h-533v53q72 16 107 31q37 15 36 31v1063 q-20 -2 -38.5 -5.5t-36.5 -5.5q-10 -2 -33 -5t-35 -5zM381 164q0 -27 6 -37q10 -16 51 -27q33 -8 115 -8q68 0 135 33q76 37 129 98q63 74 98 170q37 102 37 244q0 133 -30 237q-31 106 -93 177q-66 76 -151 110q-88 37 -207 37q-59 0 -90 -2v-1032z" />
<glyph unicode="E" horiz-adv-x="1034" d="M47 0v53q72 16 107 31q37 15 36 31v1030q0 12 -34 31q-23 12 -109 30v54h832l34 -27q-2 -23 -6 -59q-2 -23 -10 -68l-12 -66q-8 -37 -13 -51h-55q-6 98 -24 131q-20 39 -58 39h-354v-424h401l29 -30l-20 -31q-18 -27 -23 -33l-25 -31q-4 -4 -24 -20q-16 16 -33 24 q-25 12 -39 17q-27 8 -53 10q-20 2 -74 2h-139v-479q0 -14 6 -27q6 -10 29 -20q22 -9 61 -13q53 -4 107 -4h118q46 0 80 6q35 6 58 27q25 20 45 57q16 29 41 95l53 -21q-4 -57 -8 -83.5t-13 -76.5q-2 -6 -5 -29.5t-5 -33.5t-6 -23.5t-4 -17.5h-891z" />
<glyph unicode="F" horiz-adv-x="997" d="M47 0v53q72 16 107 31q37 15 36 31v1030q0 12 -34 31q-23 12 -109 30v54h842l33 -27q0 -14 -4 -59q-2 -23 -10.5 -68l-12.5 -66q-6 -37 -12 -51h-58q-4 94 -22 131q-20 39 -60 39h-362v-424h371l30 -30l-20 -31q-16 -25 -24.5 -35t-26.5 -29q-4 -4 -12.5 -11t-10.5 -9 q-18 18 -31 24q-25 12 -39 17q-27 8 -53 10q-20 2 -73 2h-111v-528q0 -8 8 -15q16 -10 29 -14q6 -2 23.5 -7t29.5 -9t82 -17v-53h-506z" />
<glyph unicode="G" horiz-adv-x="1206" d="M66 582q0 162 53 297q53 133 143 223q88 88 215 139q123 49 264 49q18 0 76 -8q39 -6 84 -18q29 -8 86 -33q43 -18 74 -43q6 -6 -4 -25q-14 -29 -27 -43q-37 -43 -39 -45q-8 -8 -18 -19.5t-15 -15.5l-43 11q-29 31 -67 59q-29 20 -72 39q-33 14 -80 20q-43 6 -88 7 q-25 0 -61 -13q-41 -14 -76 -35q-33 -20 -78 -65q-33 -33 -69 -102q-35 -63 -52 -140q-18 -80 -18 -184q0 -133 35 -238q34 -101 92 -166q63 -70 129 -98q76 -33 145 -33q57 0 123 15q53 12 101 37v325q0 10 -8.5 22.5t-28.5 20.5q-35 14 -58 21q-31 8 -98 18v53h473v-53 q-57 -16 -78 -35q-23 -23 -22 -47v-319q-74 -61 -135 -99q-57 -35 -113 -57q-49 -20 -96 -27q-61 -8 -92 -8q-96 0 -203 39q-98 35 -178 113q-78 76 -129 192q-47 109 -47 269z" />
<glyph unicode="H" horiz-adv-x="1357" d="M47 0v53q72 16 107 31q37 15 36 31v1030q0 12 -34 31q-23 12 -109 30v54h475v-54q-80 -18 -104 -30q-37 -18 -37 -31v-434h580v434q0 12 -35 31q-23 12 -109 30v54h475v-54q-80 -18 -104 -30q-37 -18 -37 -31v-1030q0 -12 35 -31q27 -14 106 -31v-53h-475v53 q72 16 107 31q37 15 37 31v495h-580v-495q0 -12 35 -31q25 -14 106 -31v-53h-475z" />
<glyph unicode="I" horiz-adv-x="628" d="M68 0v53q68 15 104 31q39 16 39 31v1030q0 10 -37 31q-23 12 -106 30v54h475v-54q-80 -18 -105 -30q-39 -20 -39 -31v-1030q0 -12 37 -31q27 -14 107 -31v-53h-475z" />
<glyph unicode="J" horiz-adv-x="643" d="M-215 -307q0 6 16 26q15 18 37 37q29 25 43 35q18 12 37 21q16 -12 51 -33q31 -18 41 -21l39 -10q25 -4 37 -4q27 0 55 16q31 16 52 58q22 43 36 116q16 78 17 193v1018q0 4 -8 12q-8 6 -29 17q-8 4 -59 16q-18 4 -97 16v54h525v-54q-78 -18 -105 -30q-39 -20 -39 -31 v-946q0 -125 -16 -197q-18 -80 -49 -135q-33 -59 -68 -94q-43 -43 -78 -70q-29 -23 -59 -39q-34 -18 -68 -31q-33 -12 -65 -18q-41 -8 -56 -8q-33 0 -69 10q-29 8 -62 23q-27 12 -43 28.5t-16 24.5z" />
<glyph unicode="K" horiz-adv-x="1210" d="M47 0v53q72 16 107 31q37 15 36 31v1030q0 12 -34 31q-23 12 -109 30v54h475v-54q-80 -18 -104 -30q-37 -18 -37 -31v-494l395 467q29 35 31 43q6 16 -2 25q-12 12 -33 14q-29 4 -61 6v54h430v-54q-12 -2 -31.5 -5t-26.5 -3q-20 -2 -43 -10q-16 -6 -34 -17 q-16 -10 -31 -26l-434 -471l483 -535q33 -37 78 -43q30 -4 56 -4q19 0 38 2l8 -51q-14 -4 -30.5 -10t-30.5 -10l-64 -19q-12 -4 -33.5 -8t-25.5 -4q-29 -6 -53 -6q-27 0 -52 10q-23 10 -43 33l-491 606v-520q0 -12 35 -31q25 -14 106 -31v-53h-475z" />
<glyph unicode="L" horiz-adv-x="997" d="M47 0v53q72 16 107 31q37 15 36 31v1030q0 12 -34 31q-23 12 -109 30v54h475v-54q-80 -18 -104 -30q-37 -18 -37 -31v-971q0 -20 8 -31q14 -18 29 -24q18 -8 57 -15q25 -4 90 -4h133q47 0 78 6q33 6 55 27q25 23 43 57q25 47 41 95l54 -21q-4 -57 -8.5 -83.5l-12.5 -76.5 q-2 -6 -5 -29.5t-5 -33.5t-6 -23.5t-4 -17.5h-881z" />
<glyph unicode="M" horiz-adv-x="1677" d="M57 0v53q72 16 107 31q37 15 37 31l10 1054q-29 16 -76 29q-33 8 -67 8v54h307q12 0 16 -3q10 -4 15 -12q2 -4 7 -12t7 -14q6 -8 20 -43l387 -879l381 879q12 31 21 47l16 24q4 6 12 10q4 2 17 3h305v-54q-33 0 -63.5 -8t-69.5 -24l8 -1059q0 -12 37 -31q25 -12 108 -31 v-53h-477v53q68 15 111 30.5t43 31.5l-10 893l-432 -1008h-66l-434 1004l-8 -889q0 -12 34 -31q25 -12 109 -31v-53h-412z" />
<glyph unicode="N" horiz-adv-x="1337" d="M47 0v53q72 8 109 29q35 18 34 33v1024q-33 29 -69 45q-41 16 -74 22v54h236q18 0 24 -3q12 -4 19 -10q14 -14 22 -24l8 -11.5t9.5 -11.5t13.5 -18l641 -887v850q0 6 -6 14q-2 2 -25 17q-15 9 -43 18q-10 4 -67 12v54h413v-54q-66 -8 -106 -28q-35 -18 -35 -33v-1176 q-59 6 -104 27q-31 14 -56 43l-672 930v-854q0 -6 9 -15q12 -12 24 -18q8 -4 45 -16q12 -4 66 -13v-53h-416z" />
<glyph unicode="O" d="M66 612q0 135 43 258q43 121 122 217q76 92 183 148q104 55 227 55q125 0 223.5 -55t162 -143t97.5 -207q33 -113 33 -238q0 -137 -45 -258q-49 -129 -125 -217q-82 -94 -182 -147q-104 -55 -221 -56q-123 0 -219 54q-94 51 -164 143q-66 88 -101 205q-34 120 -34 241z M254 641q0 -109 29 -211q29 -98 77 -174q49 -74 117 -117q72 -45 139 -45q78 0 143.5 35t110.5 100q47 68 74 168q27 98 27 232q0 70 -13 137q-10 57 -34 127q-16 49 -54 111q-27 43 -73 88q-37 35 -90 57q-47 20 -103 20q-84 0 -149 -36q-65 -37 -111 -105 q-41 -59 -68 -168q-22 -90 -22 -219z" />
<glyph unicode="P" horiz-adv-x="1099" d="M37 1231q8 2 110 22q51 10 123 21q63 8 131 12q86 4 129 4q106 0 201 -22q84 -20 154 -70q65 -46 98 -111q35 -66 35 -151q0 -59 -21 -125q-18 -57 -51 -102q-35 -47 -76 -80q-45 -35 -88 -56q-41 -18 -92 -32q-39 -10 -88 -11q-43 0 -86 7q-39 6 -76 22l-26 86 q45 -18 78 -24q37 -6 71 -7q46 0 92 19q49 18 86 51q37 31 64 88q25 52 24 123q0 80 -26 135q-29 61 -76 96q-49 37 -113 56q-57 16 -141 16q-61 0 -92 -2v-1081q0 -8 6 -15q2 -2 27 -14q8 -4 53 -16q12 -4 86 -17v-53h-506v53q72 16 107 31q37 15 36 31v1065 q-12 -2 -36.5 -5.5t-36.5 -5.5q-25 -4 -70 -12z" />
<glyph unicode="Q" d="M66 612q0 135 43 258q43 121 122 217q76 92 183 148q104 55 227 55q125 0 223.5 -55t162 -143t97.5 -207q33 -113 33 -238q0 -109 -27 -203q-25 -90 -77 -178q-49 -83 -117 -147q-70 -66 -148 -103q41 -18 97 -51l50 -28.5t42 -24.5q61 -33 90 -45q39 -16 82 -17 q16 0 25 3q18 4 30 12q15 9 37 24l19.5 13.5l31.5 21.5l35 -45q-16 -29 -49 -78q-20 -31 -51 -61q-18 -18 -47 -39q-20 -14 -37 -14q-45 0 -86 14q-47 16 -86 39q-33 18 -84 55q-16 12 -30.5 21.5l-26 17.5t-29.5 23q-74 55 -84 63q-53 37 -84 53q-33 -4 -49 -4 q-117 0 -211 51q-96 53 -164 140q-70 88 -106.5 204.5t-36.5 247.5zM254 641q0 -109 29 -211q29 -98 77 -174q49 -74 117 -117q72 -45 139 -45q78 0 143.5 35t110.5 100q47 68 74 168q27 98 27 232q0 70 -13 137q-10 57 -34 127q-16 49 -54 111q-27 43 -73 88q-37 35 -90 57 q-47 20 -103 20q-84 0 -149 -36q-65 -37 -111 -105q-41 -59 -68 -168q-22 -90 -22 -219z" />
<glyph unicode="R" horiz-adv-x="1177" d="M37 1231q66 16 100 22l107 19q10 2 116 12q61 6 129 6q117 0 211 -22q80 -18 148 -66q57 -39 86 -96t29 -119q0 -74 -21 -129q-23 -61 -57 -104q-33 -41 -90 -78q-55 -37 -113 -53l305 -469q10 -14 33 -33q18 -16 37 -21q29 -8 45 -8q37 0 59 2l13 -51q-45 -16 -68 -23 l-68 -18q-34 -9 -61 -12q-37 -4 -47 -4q-27 0 -56 16q-25 14 -43 39l-296 557q-4 0 -12.5 -1t-12.5 -1h-25q-35 0 -51 2q-37 4 -53 8v-491q0 -12 35 -31q25 -14 106 -31v-53h-475v53q72 16 107 31q37 15 36 31v1063q-18 -2 -36.5 -5.5t-35 -5.5t-34.5 -5t-37 -5zM381 696 q29 -6 45 -6q8 0 22.5 -1t20.5 -1q150 0 229 70q76 68 76 198q0 57 -16 97q-20 45 -58 77q-35 29 -100 50q-61 18 -149 18h-35q-6 0 -17.5 -1t-17.5 -1v-500z" />
<glyph unicode="S" horiz-adv-x="999" d="M113 178q0 29 4 90q2 45 12 76l51 -4q18 -53 58 -104q33 -45 75 -76q49 -35 88 -47q45 -14 101 -15q43 0 88 16.5t80 45t57 71.5q20 39 21 88q0 63 -27 105q-29 43 -72 78q-51 39 -98 63l-117 53q-78 37 -115 58q-57 33 -100 72q-41 39 -69 92q-27 51 -27 125 q0 47 22 104q20 53 72 105q49 49 131 83q78 33 193 33q31 0 96 -8q47 -6 88 -18q53 -16 76 -29q37 -20 51 -37q6 -6 0 -27q-4 -16 -23 -45q-27 -41 -30.5 -47t-14 -18t-14.5 -17l-45 7q-25 37 -57 63q-35 27 -62 41q-35 16 -61 23q-41 8 -60 8q-53 0 -92 -17 q-43 -18 -63 -39q-25 -25 -37 -55q-10 -27 -10 -57q0 -49 26.5 -84t71.5 -68q33 -25 100 -57l53.5 -27.5l63.5 -31.5q78 -41 115 -64q63 -39 102 -78q43 -43 72 -100q27 -53 26 -131q0 -46 -12 -92q-10 -39 -39 -92q-23 -41 -63 -87q-33 -37 -90 -69q-53 -33 -115 -49 q-66 -18 -143 -19q-18 0 -76 8q-43 6 -86 18.5t-86 31.5q-35 14 -76 41q-8 4 -12 36q-2 21 -2 74z" />
<glyph unicode="T" horiz-adv-x="1146" d="M8 995q4 31 6 64q2 12 4 35.5t5 35.5q2 25 10 70q2 6 5 27.5t5 32.5h1030l33 -27q0 -16 -4 -57q0 -10 -3 -31t-5 -33q-4 -45 -8.5 -67.5l-12.5 -63.5h-55q-10 45 -17 80q-6 29 -16 55q-10 23 -22 33q-14 10 -35 10h-273v-1034q0 -6 9 -14q10 -10 26 -19q27 -12 51 -20 q33 -10 76 -19v-53h-512v53q49 10 78 19q20 6 49 20q20 10 27 17q8 8 8 16v1034h-285q-16 0 -28.5 -6t-24.5 -27q-25 -45 -31 -57l-37 -94z" />
<glyph unicode="U" horiz-adv-x="1347" d="M47 1206v54h475v-54q-80 -18 -104 -30q-37 -18 -37 -31v-645q0 -193 82 -299.5t256 -106.5q70 0 123 35q57 37 88 88q37 59 53 125q16 63 16 145v658q0 12 -34 31q-23 12 -107 30v54h430v-54q-82 -18 -106 -30q-37 -18 -37 -31v-621q0 -133 -33 -233.5t-96 -173.5 q-61 -72 -150 -109q-90 -39 -194 -39q-100 0 -193 29q-82 27 -151 88q-63 57 -100.5 147.5t-37.5 210.5v701q0 12 -34 31q-23 12 -109 30z" />
<glyph unicode="V" horiz-adv-x="1339" d="M18 1206v54h459v-54q-84 -6 -108 -20q-29 -16 -17 -43l344 -912l324 910q14 31 -23 43q-39 14 -114 22v54h420v-54q-66 -12 -107 -24q-37 -12 -47 -41l-381 -1073q-12 -27 -29 -39q-29 -20 -45 -29q-23 -12 -51 -18q-8 -2 -21.5 -6.5l-19.5 -6.5l-444 1172q-10 29 -43 43 q-29 12 -97 22z" />
<glyph unicode="W" horiz-adv-x="1740" d="M20 1206v54h449v-54q-47 -6 -76 -12q-27 -6 -41 -16.5t-16 -18.5q-4 -10 0 -22l188 -842l316 965h69l346 -965l181 850q2 10 -11 20q-16 12 -30.5 16.5t-51.5 12.5q-18 4 -63 12v54h432v-54q-70 -14 -74 -16q-10 -4 -24.5 -9l-20.5 -7q-16 -6 -24 -14.5t-8 -14.5 l-230 -1086q-6 -20 -22 -36q-18 -18 -37 -27q-25 -10 -45 -16q-33 -10 -37 -11l-332 953l-287 -863q-6 -22 -24 -36q-20 -16 -39 -25q-41 -16 -45 -18q-35 -8 -45 -11l-260 1168q-6 27 -35 41q-33 16 -103 28z" />
<glyph unicode="X" horiz-adv-x="1269" d="M29 0v53q65 6 110 25q47 18 72 59l313 502l-329 483q-20 29 -29 37q-14 14 -31 23q-12 6 -41 14q-2 0 -55 10v54h481v-54q-86 -9 -110 -24q-12 -7 -12 -21q0 -16 16 -39l233 -342l213 342q14 20 14 39q0 12 -16 23q-14 8 -43 14q-25 4 -76 8v54h455v-54q-45 -4 -66 -8 q-27 -6 -51 -16.5t-37 -22.5q-23 -23 -30 -37l-285 -454l360 -531q10 -14 31 -35q16 -16 33 -24q12 -6 41 -15q27 -8 51 -10v-53h-477v53q35 2 70 10q25 6 38 17q10 8 10.5 22.5t-14.5 34.5l-264 385l-244 -385q-15 -23 -14 -38q0 -14 12 -23q25 -16 121 -23v-53h-450z" />
<glyph unicode="Y" horiz-adv-x="1228" d="M0 1247q8 0 28.5 3t32.5 5q23 2 64 6.5l59.5 6.5t48.5 2q23 0 48 -10q20 -8 38 -31q31 -41 80 -115l84 -137q68 -115 84 -148l74 -149l258 461q16 25 -10 41q-25 16 -101 24v54h404v-54q-72 -12 -104.5 -26.5t-49.5 -38.5l-331 -604v-412q0 -6 8 -14q10 -10 26 -19 q29 -14 50 -20q25 -8 79 -19v-53h-516v53q82 16 127 39q35 18 35 33v410q-49 109 -82 167l-94 168q-59 100 -94 154l-80 117q-8 12 -21 20q-16 12 -28 17q-35 10 -43 12q-37 4 -70 4z" />
<glyph unicode="Z" horiz-adv-x="1085" d="M57 47l699 1104h-437q-16 0 -36 -14q-20 -12 -37 -39q-23 -35 -35 -66q-18 -47 -29 -92l-65 14l30 322q41 -8 50 -10q29 -4 45 -4q8 0 22.5 -1t22.5 -1h684l28 -46l-694 -1103h502q25 0 39 10q12 8 31 37q20 33 32 67q23 61 35 105l66 -17q-4 -41 -4 -73q-2 -23 -2 -43.5 v-42.5l-5 -84q-2 -41 -2 -70h-909z" />
<glyph unicode="[" horiz-adv-x="649" d="M135 -336v1935h443l34 -26q-4 -16 -6 -27l-8 -28l-6 -25q-2 -4 -8 -18h-279v-1686h273l36 -31q-2 -6 -6 -22l-8 -25q-2 -4 -4 -12t-4 -12t-5 -12.5t-3 -10.5h-449z" />
<glyph unicode="\" horiz-adv-x="960" d="M49 1577l41 22q4 -2 27.5 -9l36.5 -11q34 -12 61 -31l694 -1855l-37 -29l-28 10q-6 2 -18.5 7.5t-18.5 7.5q-8 2 -20.5 8t-14.5 6l-27 14z" />
<glyph unicode="]" horiz-adv-x="649" d="M37 1503q4 25 12 51q4 10 9 24.5t8 20.5h448v-1935h-440l-35 33q0 8 4 24q2 4 4 13.5t2 13.5t4 12.5l6 12.5q2 8 7 16h278v1686h-270z" />
<glyph unicode="^" horiz-adv-x="1007" d="M100 592l322 870q16 16 29 25l36 24q31 20 35 23l33 16l352 -915q-33 -29 -49 -39q-27 -16 -57 -31l-37 27l-283 723l-250 -680q-2 -2 -10 -9.5t-14 -11.5t-16.5 -10t-14.5 -10q-25 -14 -29 -16q-14 -8 -24 -13z" />
<glyph unicode="_" horiz-adv-x="970" d="M57 -227q10 35 17 49l20 47h791l24 -27l-6 -24l-8 -27q-2 -8 -5 -14t-5 -13q-4 -8 -8 -20h-791z" />
<glyph unicode="`" horiz-adv-x="651" d="M14 1421l25 47q10 2 33 7q4 0 21.5 3t27.5 5q14 2 26.5 5t24.5 5q33 4 39 4l231 -416q-16 -12 -28.5 -20t-36.5 -17z" />
<glyph unicode="a" horiz-adv-x="966" d="M76 190q0 74 24.5 123t63.5 88q20 20 55 45q27 18 82 43q43 18 127 39q49 12 195 35v133q0 34 -6.5 61.5t-24.5 49.5q-16 20 -49 33q-27 10 -74 10q-29 0 -59 -10q-29 -10 -50 -27q-25 -23 -34 -41q-12 -23 -9 -55q0 -4 -12 -15l-31 -16q-14 -6 -43 -14q-33 -8 -47 -13 q-8 -2 -23.5 -4t-17.5 -2q-23 -4 -26 -2l-17 45q20 49 72 101q45 45 113 84q61 35 135 57.5t141 22.5q119 0 180.5 -61.5t61.5 -164.5v-536q0 -47 10 -62q10 -16 30.5 -16t35.5 4q29 8 59 22l18 -55q-94 -63 -151 -90q-72 -33 -98 -33q-37 0 -58 45q-25 51 -26 125 q-53 -53 -91 -78q-61 -41 -86 -53q-37 -18 -82 -28.5t-71 -10.5q-35 0 -76 13q-37 12 -70 41q-35 33 -53 67q-18 37 -18 100zM268 240q0 -39 13 -64q10 -20 26 -37q10 -10 35 -18q18 -6 31 -6q49 0 112 28q59 27 138 93v245q-74 -12 -125 -24q-53 -12 -84 -25 q-25 -8 -52 -26q-18 -12 -34 -29q-33 -37 -43 -60q-17 -36 -17 -77z" />
<glyph unicode="b" horiz-adv-x="1058" d="M8 1419v51q12 2 139 33q59 14 129 47l11 -10l12 -12q10 -10 16 -15v-761q45 51 99 94q51 41 96 65q51 27 82 37q40 12 67 13q68 0 129 -33q53 -29 99 -92q45 -66 65 -146q23 -90 23 -192q0 -66 -17 -121q-18 -59 -49 -119q-33 -61 -75 -111q-47 -53 -101 -92 q-55 -41 -119 -61q-74 -25 -135 -25q-16 0 -57 11q-33 8 -82 24q-20 6 -98 39l-107 53v1190q0 39 -4 72q-2 20 -18 37q-12 12 -39 16q-4 0 -16.5 2t-25 3t-24.5 3zM315 209q35 -25 80 -45q40 -18 74 -31q37 -14 63 -16q37 -4 46 -4q59 0 102 24q45 25 72 68q33 49 45 94 q14 49 14 113q0 92 -20 174q-20 80 -52 125q-39 57 -75 77q-43 25 -93 25q-20 0 -45 -8q-23 -8 -59 -31q-34 -22 -74 -55q-35 -29 -78 -86v-424z" />
<glyph unicode="c" horiz-adv-x="907" d="M76 444q0 109 39 201q41 96 108 164q71 71 166 111q98 41 207 41q33 0 70 -7q31 -4 71 -16q34 -9 62 -25q33 -18 47 -32q2 -10 -4 -39q-2 -10 -17 -58q-6 -20 -22 -57q-10 -20 -23 -43l-47 10q-16 37 -28 56q-20 29 -46 49q-25 18 -65 32q-43 14 -84 15q-47 0 -96 -23 q-46 -22 -80 -67q-37 -51 -58 -117q-20 -68 -20 -164q0 -88 23 -149q27 -72 63 -115q41 -47 94 -72q57 -27 111 -26q20 0 53 4q29 4 53 14q37 16 68 36.5t92 72.5l45 -50q-68 -80 -117 -120q-53 -45 -96 -66q-45 -23 -86 -29q-43 -6 -90 -6q-78 0 -145 33 q-74 35 -127.5 94.5t-87.5 149.5q-33 85 -33 198z" />
<glyph unicode="d" horiz-adv-x="1091" d="M76 444q0 66 14 123q16 63 45 119q33 61 72 107q45 53 96 88q49 35 115 57q63 23 133 23q47 0 94 -13q45 -12 100 -49v365q0 66 -2 88q-2 29 -16 49q-12 18 -43 24q-33 8 -82 11v49q92 12 166 31q90 23 125 34l33 -32v-1250v-59q0 -10 6 -41q4 -20 6 -26.5t10 -14.5 t13 -8q12 0 20 2l33 8q31 10 49 18l18 -53q-106 -70 -155 -94q-65 -31 -92 -31q-35 0 -56 45q-22 46 -30 148q-27 -31 -78 -82q-33 -33 -76 -60q-47 -29 -82 -38q-43 -12 -90 -13q-61 0 -121 33q-68 37 -113 94q-53 68 -82 150q-30 89 -30 198zM256 483q0 -80 23 -151 q20 -68 59 -115t80 -72q43 -25 84 -24q39 0 63.5 10t59.5 31q2 2 59 47q20 16 61 53v461q-33 57 -92 88q-61 33 -129 33q-57 0 -108 -23q-45 -20 -84 -67q-35 -45 -58 -113q-18 -58 -18 -158z" />
<glyph unicode="e" horiz-adv-x="960" d="M76 436q0 72 14 131q18 74 41 121q28 55 68 105q37 45 92 84q6 4 53 30q12 8 62 27q31 12 63 18q45 8 63 9q65 0 117 -19q61 -23 92 -45q37 -29 66 -70q25 -37 45 -86q18 -43 27 -92q8 -43 8 -94q-16 -18 -53 -39q-39 -20 -68 -33h-508q0 -80 21 -143q23 -74 57 -119 q37 -49 86 -78q52 -31 117 -30q20 0 61 4q18 2 64 18q20 8 75 39q16 10 99 70q12 -6 24 -25q4 -6 10.5 -14t8.5 -10q-68 -72 -121 -115q-59 -49 -98 -70q-43 -23 -93 -33q-41 -8 -100 -8q-76 0 -149.5 35t-126.5 94q-55 61 -86 147.5t-31 190.5zM262 580h397q23 0 31 8 q6 6 6 28q0 33 -8 68q-10 47 -29 78q-20 35 -59 61.5t-98 26.5q-51 0 -92 -19q-39 -18 -70 -55t-49 -86q-21 -53 -29 -110z" />
<glyph unicode="f" horiz-adv-x="655" d="M43 856l78 74h74v31q0 111 14 182t41 131q23 51 59 94q35 41 76 76q29 23 64 45q27 16 69 33q47 16 64 20q41 8 55 8q35 0 71.5 -12t65.5 -27q25 -12 49 -32q18 -15 19 -25q0 -10 -17 -31l-39 -39q-12 -12 -45 -36q-27 -18 -39 -25q-47 49 -94 70q-49 23 -76 22 q-29 0 -53 -16q-31 -20 -51 -62q-25 -47 -39 -123q-14 -72 -14 -198v-86h256l31 -31l-11.5 -17.5t-11.5 -15.5q-4 -6 -14.5 -16t-12.5 -14l-26 -27q-10 -10 -23 -18q-14 8 -65 22q-43 12 -123 12v-712q0 -6 10 -13q8 -6 35 -12q4 0 25.5 -6t37.5 -10q14 -4 47 -9.5t52 -9.5 v-53h-525v53q78 14 105 29q33 18 33 31v712h-129z" />
<glyph unicode="g" horiz-adv-x="1017" d="M25 -227q0 23 10 53q8 27 39 59q33 37 80 70q53 37 133 82q-59 20 -88 49q-27 27 -27 57q0 9 6 25q4 12 25 35q18 20 47 47q14 12 78 59q-51 14 -95 43q-45 29 -73 64q-27 31 -47 84q-18 45 -19 102q0 74 35 139q33 61 90 112.5t129 78.5q76 29 150 29q63 0 118.5 -18.5 t98.5 -47.5q115 14 166 31l108 35l23 -33q-10 -27 -23 -54q-10 -23 -35 -51q-51 -8 -71 -10q-41 -4 -82 -6q29 -43 39 -80q14 -51 14 -86q0 -76 -35 -141q-29 -57 -92 -109q-57 -47 -129 -72q-74 -25 -147 -24h-7q-43 -37 -59 -63.5t-16 -30.5q0 -10 10 -21q14 -12 35 -20 q43 -14 75 -21q51 -10 125 -18q115 -12 187 -37q70 -23 114 -55q43 -31 62 -68q16 -33 16 -76q0 -53 -20.5 -100t-59.5 -92t-86 -78q-55 -37 -106 -59q-53 -23 -119 -39q-57 -14 -123 -15q-49 0 -100 6q-59 6 -103 21q-66 20 -96 35q-43 20 -80 53t-55 68q-20 39 -20 88z M205 -188q0 -41 26 -74q33 -41 72 -62q49 -27 109 -41q66 -16 129 -16q61 0 114 19q55 18 86 45q37 31 56 69q18 40 18 86q0 27 -12 47q-12 23 -43 41q-27 16 -86 33q-53 14 -144 25q-12 2 -37.5 5t-39.5 5q-37 6 -68 12q-63 -37 -96 -65q-45 -37 -56 -52q-14 -20 -22 -43 q-6 -18 -6 -34zM264 659q0 -49 17 -98q16 -51 45 -82q25 -29 80 -53q43 -20 110 -20q29 0 59.5 12t53 34.5t39.5 61.5q14 35 14 86q0 55 -14.5 98t-49.5 82q-31 33 -77 56q-39 18 -111 18q-25 0 -53.5 -12.5t-52.5 -36.5q-31 -31 -43 -60q-17 -39 -17 -86z" />
<glyph unicode="h" horiz-adv-x="1148" d="M53 0v53q57 16 101 31q37 12 36 31v1173q0 33 -4 66q-2 23 -16 37q-12 12 -41 18q-8 2 -76 10v51q8 2 39 7.5t45 9.5l34 7t36 9q39 10 63 21q41 16 62 26l39 -37v-796q51 61 100 104t104 76q57 33 101 47q53 16 88 17q37 0 84 -15q37 -12 70 -41q31 -27 49 -71 q18 -43 18 -105v-614q0 -8 6 -15q8 -8 25 -14q10 -4 41 -14l65 -19v-53h-454v53q76 20 104 33q33 14 33 29v497q0 59 -6 101q-6 39 -22.5 61.5t-39 30.5t-55.5 8q-66 0 -147 -59q-78 -57 -164 -174v-465q0 -16 34.5 -30.5t102.5 -31.5v-53h-455z" />
<glyph unicode="i" horiz-adv-x="573" d="M68 0v53q70 16 102 31q35 16 35 31v549q0 18 -1 45.5t-1 35.5q0 31 -13 50q-10 14 -40 24q-23 8 -82 15v49q78 14 143 32q78 23 131 46h43v-846q0 -12 33 -31q27 -14 104 -31v-53h-454zM182 1221q0 29 10.5 55.5t28.5 44.5q20 20 43 29q33 12 51 12q46 0 74 -25 q29 -25 29 -75q0 -31 -10.5 -57.5t-28.5 -45.5q-14 -14 -43 -29q-25 -12 -51 -12q-45 0 -76 27q-27 25 -27 76z" />
<glyph unicode="j" horiz-adv-x="548" d="M-244 -422q0 10 17 31q6 6 41 37q14 12 47 37q27 18 39 24q39 -35 71 -45q41 -12 78 -12q31 0 55 16q28 18 50 62q20 39 32 120q14 90 15 195v621q0 61 -2 81q-2 31 -15 48q-10 16 -41 26q-23 8 -80 15v49q39 6 80 16q10 2 33 7t33 9q41 12 61 21q12 4 28.5 11t35.5 14 h47v-859q0 -100 -19 -196q-15 -80 -43 -135q-25 -51 -65 -95q-43 -47 -76 -71q-25 -20 -57 -39q-31 -18 -64 -35q-4 -2 -59 -20q-25 -8 -51 -9q-37 0 -68 9q-39 10 -61 20q-18 8 -43 25q-19 12 -19 22zM178 1221q0 23 12 55q10 29 27 45q20 20 43 29q33 12 51 12 q46 0 74 -25q29 -25 29 -75q0 -31 -11 -58q-10 -29 -26 -45q-14 -14 -43 -29q-25 -12 -53 -12q-43 0 -74 27q-29 25 -29 76z" />
<glyph unicode="k" horiz-adv-x="1058" d="M53 0v53q57 16 101 31q37 12 36 31v1171q0 47 -6 72q-6 27 -18 37q-16 14 -43 16q-55 6 -70 8v51q102 20 150 33q66 16 129 47l39 -37v-983l293 258q29 25 41 48q8 16 -3 26q-9 9 -30 12q-14 2 -47 3v53h401v-53q-41 -6 -82 -18.5t-82 -45.5l-330 -258l371 -430 q23 -23 29 -27q20 -12 33 -16q18 -6 39 -6h53l6 -53l-62 -13q-41 -8 -59 -10q-10 -2 -27.5 -5t-21.5 -3q-14 -2 -33 -2q-41 0 -69 12q-23 10 -48 41l-372 477v-405q0 -10 2 -15q4 -6 14 -12q4 -2 16.5 -7t18.5 -7q14 -6 57 -21v-53h-426z" />
<glyph unicode="l" horiz-adv-x="573" d="M57 0v53q20 2 72 15q20 4 45 14q18 8 24.5 16t6.5 17v1171q0 45 -6 69.5t-21 37.5q-20 16 -41 18q-55 6 -69 8v51q14 2 39.5 7.5t35.5 7.5q25 4 70 16t68 21q12 4 65 28l39 -37v-1398q0 -16 33 -31q35 -16 114 -31v-53h-475z" />
<glyph unicode="m" horiz-adv-x="1671" d="M53 0v53q57 16 101 31q37 12 36 31v590q0 35 -4 63q-2 23 -16 35q-12 12 -41 18t-76 13v49q47 6 78 14q25 6 66 18.5t61 20.5l59 25l37 -37l13 -195q96 121 186 176q89 55 160 56q49 0 88 -13q40 -12 67 -37q31 -29 45 -63q16 -41 19 -94l2 -21q98 119 182 172 q88 55 162 56q41 0 88 -15q43 -12 74 -41q27 -25 47 -71q18 -43 18 -105v-614q0 -16 31 -29q23 -8 111 -33v-53h-453v53q78 20 102 33q29 14 29 29v508q0 61 -6 100q-6 35 -21 61q-12 20 -34 31q-18 8 -50 8q-59 0 -131 -57q-74 -59 -145 -164v-487q0 -8 6 -15q8 -8 23 -14 q10 -4 41 -14l65 -19v-53h-446v53q74 18 100 33q31 16 31 29v508q0 61 -6 100q-6 40 -19 61q-12 23 -33 31q-18 8 -51 8q-59 0 -129 -57q-72 -59 -149 -164v-487q0 -14 35 -31q31 -14 100 -31v-53h-453z" />
<glyph unicode="n" horiz-adv-x="1148" d="M53 0v53q57 16 101 31q37 12 36 31v590q0 47 -2 61q-4 25 -16 37t-41 18q-31 6 -78 13v49q72 12 140 30q55 16 124 48l37 -37l13 -215q49 61 102 108q51 45 106 78q66 39 101 49q53 16 88 17q37 0 84 -15q37 -12 70 -41q31 -27 49 -71q18 -43 18 -105v-614q0 -8 6 -15 q8 -8 25 -14q10 -4 41 -14l65 -19v-53h-454v53q76 20 104 33q33 14 33 29v503q0 59 -6 97q-6 41 -21 59q-15 22 -37 31q-18 8 -57 8q-29 0 -63 -12q-37 -14 -74 -39q-29 -18 -84 -72q-27 -25 -92 -110v-465q0 -16 34.5 -30.5t102.5 -31.5v-53h-455z" />
<glyph unicode="o" horiz-adv-x="1044" d="M76 444q0 59 16 129q16 68 45 123q27 51 74 104.5t94 84.5q53 35 112.5 55.5t125.5 20.5q96 0 176 -37q84 -39 135 -99q55 -63 86 -151q31 -86 31 -189q0 -96 -39 -192q-39 -100 -101 -166q-68 -74 -149 -115q-86 -43 -178 -43q-96 0 -176 37q-84 39 -135 98 q-55 63 -87 152q-30 86 -30 188zM262 473q0 -80 25 -149q25 -74 63 -123q43 -55 88 -84q49 -31 94 -31q70 0 115 25q47 25 78 71q25 37 43 117q14 63 14 152q0 76 -22 149q-20 70 -60 127q-37 55 -86 86q-53 33 -100 33q-70 0 -121 -29q-45 -25 -76 -80q-29 -51 -41 -116 q-14 -80 -14 -148z" />
<glyph unicode="p" horiz-adv-x="1103" d="M53 -426q74 18 101 29q37 16 36 32v1070q0 29 -4 61q-2 23 -16 37q-16 16 -43 22q-23 4 -74 9v49q49 6 76 14l66 18q41 12 61 21q6 2 19.5 7l23.5 9t18 9l37 -37l11 -174q59 63 100 96q49 39 94 65q41 23 82 37q37 12 68 13q70 0 127 -31q59 -31 102 -90q43 -57 68 -146 q25 -86 24 -198q0 -57 -16 -123q-16 -63 -43 -121q-31 -63 -64 -111q-39 -55 -80 -90q-47 -41 -88 -59q-49 -23 -94 -23q-58 0 -129 31q-66 29 -145 92v-457q0 -16 37 -32q29 -12 131 -29v-53h-486v53zM371 217q47 -33 86 -53q27 -14 71 -31q39 -14 60 -16q37 -4 53 -4 q51 0 90 20q45 25 72 60q29 39 45 98q16 61 16 135q0 94 -20 164q-23 74 -53 123q-33 51 -78 80q-41 27 -90 26q-20 0 -43 -8q-35 -12 -58 -29q-41 -29 -69 -57q-47 -45 -82 -92v-416z" />
<glyph unicode="q" horiz-adv-x="1077" d="M76 444q0 86 24 160q25 72 66 129q39 55 82 94q37 33 80 62q59 31 116 51q59 20 107 21q18 0 55 -5q18 -2 56 -14q27 -8 59 -29q27 -16 65 -51q12 6 37 23l39 28q12 8 33 25q10 8 25 23l34 -33q-12 -41 -16 -64q-8 -33 -10 -69q-4 -53 -4 -84v-1076q0 -8 6 -16 q4 -4 22 -16q10 -6 43 -15l64 -14v-53h-486v53q102 16 132 29q39 16 38 32v523q-37 -41 -77 -80q-39 -35 -78 -60q-41 -25 -82 -36q-43 -12 -92 -13q-57 0 -116.5 33t-109.5 94q-53 68 -82 150q-30 89 -30 198zM256 485q0 -82 22.5 -153.5t57.5 -114.5q39 -47 80 -72 q43 -25 84 -24q37 0 63 10q29 12 60 33q25 16 59 45l61 55v457q-20 33 -41 49q-35 31 -53 41q-20 12 -61 23q-37 10 -66 10q-49 0 -100 -23q-47 -20 -86 -65q-37 -43 -60 -113q-20 -64 -20 -158z" />
<glyph unicode="r" horiz-adv-x="843" d="M53 0v53q74 18 101 29q37 16 36 33v565q0 41 -2 55.5t-6 34.5q-2 10 -6 23q0 2 -2 5t-4 5t-2 4q-8 8 -16 10q-2 0 -9.5 3t-11.5 5q-16 4 -31 4q-10 0 -47 5v49q8 2 35 7t39 9l33.5 7t34.5 9q10 2 31.5 10.5t31.5 10.5q25 8 59 25l37 -37l15 -201q33 57 59 92q45 57 68 76 q41 35 77 51q41 18 84 19q31 0 72 -11q47 -12 76 -28q7 -5 7 -26q0 -7 -1 -15q-4 -49 -10 -76q-16 -74 -21 -90q-12 -45 -24 -72h-54q-12 82 -40 123q-27 39 -70 39q-23 0 -49 -14q-25 -14 -58 -50q-27 -29 -59 -88q-33 -57 -55 -133v-405q0 -16 39 -31q41 -16 133 -31v-53 h-490z" />
<glyph unicode="s" horiz-adv-x="811" d="M90 147q0 55 4 84q6 47 15 70l55 -10q6 -53 24 -86q20 -37 56 -66q39 -33 75 -45q45 -16 93 -16q70 0 112.5 37t42.5 104q0 43 -20 72q-25 35 -55 57q-41 29 -80 49l-90 47q-47 23 -82 45q-43 27 -72 56q-31 31 -49 67q-20 41 -21 86q0 59 29 111q27 49 70 82 q41 31 102 51q57 18 117 19q35 0 76 -7q27 -4 75 -16q45 -10 70 -23q33 -14 53 -32q4 -4 2 -29q-2 -23 -12 -51q-12 -37 -21 -55q-12 -29 -20 -37l-49 8q-41 80 -90 112q-47 33 -105 33q-31 0 -57 -10q-25 -9 -43 -25q-18 -14 -27 -34q-10 -25 -10 -41q0 -33 18 -58 q23 -31 49.5 -49t71.5 -43q16 -8 84 -45l88 -47q47 -27 78 -57q41 -41 58 -74q23 -45 22 -98q0 -74 -20 -121q-25 -57 -54 -86q-34 -34 -73 -56q-35 -18 -80 -32q-35 -10 -76 -15q-49 -4 -57 -4q-10 0 -34 3t-26 3q-35 4 -67 13q-45 12 -70 22q-41 16 -70 33q-6 2 -8 33 q-2 20 -2 71z" />
<glyph unicode="t" horiz-adv-x="722" d="M14 856l78 74h74v233l145 119l33 -27v-325h322l30 -31l-12 -17.5t-10 -15.5q-4 -6 -29 -30l-27 -27q-10 -10 -22 -18q-16 8 -74 22q-49 12 -121 12h-57v-508q0 -59 6 -96t19 -61q12 -23 30 -33q16 -8 45 -8q37 0 86.5 14t131.5 55l34 -59q-111 -80 -200 -119 q-94 -41 -146 -41q-39 0 -69 15q-35 16 -60 47q-27 33 -41 80q-14 45 -14 118v596h-127z" />
<glyph unicode="u" horiz-adv-x="1107" d="M39 848v49q33 2 76 10l67 13q12 2 35 9t29 9l69 23l29 -41v-582q0 -66 10 -113q10 -43 29 -69q23 -31 43 -37q31 -10 59 -10q33 0 60 8q41 12 63 24q37 20 72 49q49 41 80 72v443q0 35 -4 71q-2 25 -18.5 41.5t-41.5 22.5q-20 4 -73 8v49q88 10 151 27q78 20 133 37 l33 -41v-656q0 -51 4 -96q3 -34 19 -43q10 -8 38 -4q18 2 78 26l15 -55q-49 -33 -74 -47q-14 -8 -42 -22.5t-30 -16.5q-31 -16 -57.5 -26.5t-36.5 -10.5q-18 0 -35 11q-12 8 -26 32q-10 18 -21 58q-10 37 -12 86q-57 -57 -113 -97q-49 -35 -94 -57q-35 -18 -78 -25 q-49 -8 -67 -8q-39 0 -91 15q-43 12 -77 47q-31 31 -54 94q-20 59 -20 154v426q0 37 -4 73q-4 31 -15 41q-12 12 -36 19q-6 2 -72 10z" />
<glyph unicode="v" horiz-adv-x="1019" d="M18 877v53h408v-53q-59 -8 -64 -11q-20 -6 -34.5 -12t-14.5 -18q0 -16 4 -27l238 -596l219 596q6 15 6 25t-12 18q-14 10 -31 14q-6 2 -57 11v53h321v-53q-27 -4 -47 -13q-6 -2 -30 -14q-10 -6 -19 -16q0 -2 -10 -25l-285 -741q-10 -27 -26 -39q-29 -25 -37 -29 q-22 -12 -43 -18q-4 -2 -18.5 -6.5t-20.5 -6.5l-338 840q-8 27 -35 43q-17 11 -74 25z" />
<glyph unicode="w" horiz-adv-x="1452" d="M18 877v53h408v-53q-70 -10 -74 -11q-23 -6 -37 -16q-12 -10 -12 -16q0 -12 2 -19l176 -582l244 697h72l258 -697l162 582q6 23 -15 37q-14 10 -92 25v53h326v-53q-31 -6 -50 -13q-14 -4 -28 -14q-8 -6 -15 -14q-4 -8 -8 -21l-221 -756q-6 -25 -24 -39q-20 -16 -39 -24 q-33 -14 -41 -16q-6 -2 -18.5 -5.5t-16.5 -5.5l-244 647l-205 -557q-12 -29 -24 -39q-27 -23 -37 -26q-18 -8 -41 -14q-6 -2 -17.5 -5.5t-15.5 -5.5l-264 846q-13 42 -109 62z" />
<glyph unicode="x" horiz-adv-x="1042" d="M18 0v53q41 6 66 15q27 8 47 22q25 16 33 27q4 6 12 14t12 14l238 324l-229 319q-4 8 -14.5 19.5t-12.5 13.5q-10 12 -31 27q-18 12 -45 18q-35 8 -65 11v53h444v-53q-35 -4 -51 -9q-27 -8 -33 -14q-9 -9 -6 -25q4 -16 20 -38l144 -199l143 199q20 27 23 38q3 15 -6 25 q-8 8 -31 14q-16 4 -51 9v53h381v-53q-33 -2 -72 -11q-29 -6 -51 -18q-29 -16 -39 -27q-27 -27 -31 -33l-205 -280l262 -363q4 -6 13.5 -14t13.5 -14q10 -12 31 -27q23 -14 43 -22q33 -12 57 -15v-53h-430v53q16 2 45 6q23 4 35 13q10 8 10 24.5t-20 42.5l-181 246 l-178 -246q-20 -25 -16 -43q3 -15 18 -24q16 -10 39 -13l49 -6v-53h-381z" />
<glyph unicode="y" horiz-adv-x="1019" d="M-51 -440q0 12 12 28q6 8 17.5 21.5t17.5 21.5q18 25 41 47q18 18 39 31q53 -31 96 -33q11 -1 22 0q38 0 64 11q16 6 41 26q14 12 45 47q16 18 45 68q25 43 41 80l29 69l-330 832q-8 27 -35 43q-14 10 -76 25v53h408v-53q-59 -8 -64 -11q-20 -6 -34 -12 q-12 -6 -12.5 -18.5t6.5 -26.5l231 -592l219 592q4 10 4 25q0 12 -12 18q-20 10 -35 14q-2 0 -59 11v53h331v-53q-31 -6 -49 -13q-6 -2 -30 -14q-12 -6 -19 -16q-2 -2 -10 -25l-336 -889q-45 -117 -92 -188q-51 -80 -107 -131q-49 -45 -114 -74q-59 -25 -113 -25 q-37 0 -70 6q-51 10 -59 13q-12 4 -39 20q-14 9 -14 19z" />
<glyph unicode="z" horiz-adv-x="921" d="M72 45l544 784h-317q-18 0 -35 -8q-23 -10 -35 -26q-14 -16 -30 -54q-14 -31 -27 -82l-55 17l20 270l39 -10q25 -4 39 -4q6 0 19.5 -1t21.5 -1h571l23 -43l-549 -787h395q31 0 52 45q20 43 45 144l55 -13q0 -10 -1 -33.5t-1 -37.5q0 -12 -1 -39t-1 -41q0 -29 -4 -74 q0 -8 -1 -26.5t-3 -24.5h-740z" />
<glyph unicode="{" horiz-adv-x="696" d="M96 639q115 31 174 90q57 57 58 133q0 29 -4 70q-2 20 -7 53q-2 16 -10 45q-8 27 -10 47q0 6 -3 23.5l-5 29.5q-2 20 -2 70q0 66 24 125q25 57 72 109q45 47 109 90q59 41 141 75l31 -57q-41 -25 -72 -53q-35 -31 -57 -66q-25 -37 -39.5 -77.5t-14.5 -88.5q0 -31 4 -67.5 t7 -52.5q2 -20 10 -47t10 -48q0 -8 3 -25.5t5 -27.5q2 -18 2 -65q0 -43 -12 -84q-12 -39 -37 -76q-23 -33 -59.5 -63.5t-75.5 -47.5q100 -18 143 -88q41 -68 41 -180q0 -59 -6 -102q-2 -16 -7 -43t-7 -39.5l-6 -37t-7 -38.5q-8 -53 -8 -86q0 -37 8 -90q6 -40 25 -74 q18 -33 53 -61q41 -33 86 -58l-26 -71q-84 33 -151.5 71.5t-106.5 79.5q-37 39 -62 103q-20 53 -20 129q0 55 6 96q2 14 7 40.5l7 37.5q8 49 12 77q8 57 9 103q0 82 -39 121t-111 39h-20q-2 0 -5 -1t-5.5 -1t-6.5 -1t-6 -1q-10 0 -20 -3z" />
<glyph unicode="|" horiz-adv-x="468" d="M174 -381v2001q14 10 57 29q18 8 56 20l39 -22v-1997q-4 -4 -25 -17q-25 -14 -29 -16l-30 -12q-20 -8 -29 -11z" />
<glyph unicode="}" horiz-adv-x="696" d="M35 -256q41 25 71 53q35 31 58 66q25 37 39 78q12 35 12 88q0 57 -6 94q-2 14 -7 37.5t-7 34.5l-13 73q-6 39 -6 97q0 40 12 79t37 76q23 33 60 64q35 29 77 47q-100 18 -143 90q-43 70 -43 180q0 59 6 103l13 81q2 14 7 40l7 36q6 37 6 86q0 51 -6 90q-6 35 -27 74 q-18 33 -53 62q-41 33 -86 57l29 69q94 -37 151 -69q63 -37 107 -82q39 -41 61 -100q20 -53 21 -129q0 -55 -6 -97q-2 -14 -7.5 -40.5t-7.5 -37.5q-6 -37 -12 -79.5t-6 -100.5q0 -84 37 -121q39 -39 110 -38h31q2 0 6 1t6 1l23 4l16 -66q-117 -31 -174 -88q-55 -55 -55 -135 q0 -49 2 -68q2 -10 5 -27.5t3 -25.5q4 -33 8 -47q8 -29 10 -45q0 -6 3.5 -23.5t5.5 -29.5q2 -20 2 -70q0 -70 -25 -127q-25 -59 -70 -106q-46 -49 -110 -93q-59 -41 -141 -75z" />
<glyph unicode="~" horiz-adv-x="997" d="M49 502q27 61 53 102q41 63 72 96q41 43 84 70q47 29 94 29q45 0 94 -25q53 -27 97 -55q46 -31 92 -55.5t86 -24.5q49 0 90 39q45 41 86 121l53 -25q-20 -47 -53 -102q-31 -51 -72 -97q-41 -43 -84 -69q-47 -29 -94 -29q-45 0 -90 25q-39 20 -94 55q-43 27 -96 55 q-47 25 -91 25q-49 0 -90 -39q-39 -37 -84 -123z" />
<glyph unicode="&#xa1;" horiz-adv-x="581" d="M152 797q0 35 12 65q14 37 31 53q20 20 49 33q28 12 61 13q55 0 84 -29q31 -31 31 -90q0 -31 -14 -68q-14 -35 -33 -53q-23 -23 -49 -35q-29 -12 -58 -12q-53 0 -83.5 31t-30.5 92zM170 -539l57 1061q27 20 39 25q8 4 23.5 8l23.5 6l27 -18l59 -1014l-45 -27 q-25 -14 -49 -26q-33 -16 -49 -23q-8 -2 -21.5 -8t-19.5 -8z" />
<glyph unicode="&#xa2;" horiz-adv-x="985" d="M98 586q0 86 29 166q29 82 80 141q55 63 121 104q74 45 155 66v145q16 8 21 15q4 2 6 5t6 5q8 4 14 6q9 3 25 6l29 -24v-144q4 0 10 1t10 1h23q35 0 71 -6q31 -4 72 -16q37 -10 64 -25q33 -18 47 -33q2 -10 -4 -36q-2 -8 -17 -52q-8 -25 -22 -53q-10 -20 -23 -37l-45 13 q-12 20 -22.5 34.5t-38.5 38.5q-16 14 -54 33q-27 14 -71 21v-695q4 0 53 6q23 2 53 19q39 20 68 41l88 71l47 -51q-57 -63 -94 -98q-51 -49 -78 -66q-39 -25 -70 -36q-34 -12 -67 -19v-135q-25 -20 -35 -25q-6 -2 -19.5 -7t-19.5 -7l-27 27v143q-70 2 -139 35 q-66 31 -123 90q-53 57 -88 141q-35 87 -35 191zM274 616q0 -66 17 -124q15 -55 43 -99q25 -39 65 -69q37 -27 84 -43v677q-41 -8 -80 -34q-45 -31 -67 -66q-27 -41 -45 -102q-17 -56 -17 -140z" />
<glyph unicode="&#xa3;" horiz-adv-x="985" d="M57 559q2 4 5.5 16.5t7.5 20.5l14 37h104q-6 129 21 248q25 111 80 190q53 78 139 121t199 43q35 0 53 -2t59 -10q14 -2 68 -21q39 -12 84 -37q0 -12 -4 -65q-2 -23 -10 -82q-6 -43 -12.5 -80t-12.5 -55h-57q-16 127 -72 186q-57 59 -156 59q-33 0 -49 -4q-29 -6 -49 -22 q-27 -20 -43 -49q-18 -35 -31 -88q-8 -39 -12 -136q-4 -90 8 -196h262l27 -27l-31 -76h-250q6 -123 -26 -235q-31 -111 -84 -180q61 4 78 4h63h51q8 0 24.5 -2t25 -2t25.5 -1t28 -1q8 0 30.5 1t34.5 1q43 0 78 6t59.5 24.5t47.5 53.5q14 23 40 94l54 -21q-2 -29 -10 -86 q-2 -12 -5.5 -38.5l-5.5 -41.5l-12 -63q-2 -10 -6 -24.5t-4 -18.5q-49 -27 -109 -29q-57 -2 -135 4q-76 6 -149 19q-51 8 -150 16q-63 6 -141 -2q-61 -6 -115 -39l-27 58l32 27.5t22 19.5q12 10 41 49q14 20 28 57q8 25 17 82q4 31 4 113q0 37 -8 155h-113z" />
<glyph unicode="&#xa4;" horiz-adv-x="985" d="M139 317l117 117q-29 43 -39 80q-12 43 -12 86q0 45 12 88q10 37 39 80l-117 119l2 35q14 8 33 16l37 18l117 -118q78 55 168 55t163 -53l117 114l37 2l33 -71l-117 -117q55 -76 55 -168q0 -88 -53 -166l117 -117v-36l-72 -33l-117 114q-39 -27 -77 -36q-43 -12 -86 -13 q-45 0 -88 13q-37 10 -80 39l-119 -117l-37 2q-4 6 -7 14t-9 19q-15 28 -17 34zM309 600q0 -34 13 -68q12 -33 40.5 -61.5t63.5 -40.5q33 -12 70 -12q34 0 67 12t62 41q27 31 41 61.5t14 69.5t-14 70q-16 37 -41 61q-29 29 -62 41q-34 12 -67 12q-37 0 -70 -12t-61 -41 q-25 -25 -41 -61q-15 -31 -15 -72z" />
<glyph unicode="&#xa5;" horiz-adv-x="985" d="M-72 1192q28 3 62 6q12 2 33.5 5t31.5 3q41 4 59.5 6t51.5 2q20 0 45 -10t39 -30q49 -66 72 -101l67 -108q23 -39 66 -119l67 -135l207 374q16 25 -10 41q-25 16 -101 25v53h404v-53q-53 -10 -104 -27q-31 -10 -50 -39l-282 -524v-41h268l27 -22l-29 -78h-266v-295 q0 -6 8 -14q10 -10 27 -19q29 -14 49 -20q25 -8 80 -19v-53h-517v53q43 8 76 19q27 8 51 20q20 10 27 17q8 8 8 16v295h-276l-23 24l13 37l14 39h272v43q-39 88 -73 150l-78 141q-57 96 -78 127q-70 102 -72 104q-8 12 -20 21q-16 12 -29 16q-33 10 -45 13q-37 4 -68 4z" />
<glyph unicode="&#xa6;" horiz-adv-x="468" d="M170 -381v868q27 16 59 31q35 14 64 23l39 -27v-866l-27 -17q-12 -8 -33 -14q-6 -2 -17 -6t-17 -6l-29 -11zM170 741v879q18 12 59 29q14 6 64 20l39 -22v-877l-27 -16q-12 -8 -33 -15q-6 -2 -17 -7t-17 -7q-8 -4 -16.5 -5t-12.5 -3z" />
<glyph unicode="&#xa7;" horiz-adv-x="980" d="M115 776q0 43 10 72q12 37 31 65q16 25 45 56q25 25 55 45q-31 35 -55 82q-20 41 -21 98q0 61 27 106q29 47 72 78q45 33 100 47.5t119 14.5q34 0 73 -6q41 -6 78 -19q41 -14 70 -26q33 -14 53 -33q4 -4 2 -29q-2 -16 -14 -53t-21 -53l-18 -37l-49 8q-41 78 -90 115 q-51 39 -107 39q-59 0 -98 -29q-37 -27 -37 -78q0 -33 16 -61q14 -27 45 -52q53 -43 72 -53q10 -6 98 -55q18 -10 115 -70q53 -33 94 -74q39 -39 64 -92q25 -52 24 -123q0 -41 -10 -81q-9 -37 -24 -68q-18 -35 -37 -57q-29 -33 -43 -45q27 -31 41 -62t14 -78q0 -74 -21 -121 q-23 -51 -53 -81q-35 -35 -73 -54q-45 -20 -80 -28q-27 -6 -76 -10.5t-60 -4.5q-25 0 -57 6q-23 4 -67 17q-16 4 -70 26q-41 16 -70 33q-8 4 -10 33q-2 20 -2 72q0 12 1 25.5t3 29.5t2 27q2 41 12 69l58 -10q6 -53 24 -86q20 -39 56 -70q31 -29 75 -47q43 -18 91 -18 q72 0 114.5 30.5t42.5 98.5q0 37 -22 69q-18 25 -60 54q-49 33 -79.5 47t-92.5 47q-41 23 -110 67q-57 37 -90 76q-39 47 -60 94q-20 49 -20 117zM272 823q0 -41 16.5 -77.5t51.5 -67.5q33 -29 88 -66q47 -31 127 -73q10 -6 16.5 -9.5l14.5 -7.5t18 -10q37 -18 53 -29 q25 20 39 52q14 29 15 63q0 47 -19 84q-18 39 -55 72q-43 41 -92 69q-84 51 -131 76l-41 23q-18 10 -41 26q-10 -6 -25 -24q-12 -16 -18 -33q0 -2 -5 -14.5l-8 -20.5q-4 -25 -4 -33z" />
<glyph unicode="&#xa8;" horiz-adv-x="800" d="M84 1219q0 27 10 57q8 23 29 47q18 20 41 33q20 10 49 10q47 0 71.5 -24.5t24.5 -77.5q0 -29 -10 -60q-8 -27 -27 -47q-16 -20 -43 -33q-25 -12 -51 -12q-49 0 -71.5 29t-22.5 78zM492 1219q0 27 10 57q8 23 28 47q18 20 41 33q20 10 50 10q96 0 96 -102q0 -29 -10 -60 q-8 -23 -29 -47q-18 -23 -41 -33q-25 -12 -49 -12q-49 0 -74 29q-22 25 -22 78z" />
<glyph unicode="&#xa9;" horiz-adv-x="1470" d="M94 643q0 137 49.5 260t133 213t202.5 143.5t256 53.5t256 -53q123 -55 205 -144q84 -90 133 -213q47 -117 47 -260q0 -96 -20.5 -178t-63.5 -162q-43 -78 -96 -135q-63 -66 -129 -107q-70 -41 -156 -67q-84 -25 -176 -25t-176 25q-83 25 -153 67q-66 41 -130 107 q-58 61 -98 135q-39 72 -61.5 162t-22.5 178zM193 643q0 -117 40 -223q43 -111 113 -184q74 -77 172 -123q96 -45 217 -45t219 45q96 43 172 123q70 74 113 184q41 106 41 223t-41 223q-41 109 -113 183q-76 80 -172 122q-98 45 -219 45.5t-217 -45.5q-98 -46 -172 -122 q-72 -74 -113 -183q-40 -106 -40 -223zM358 614q0 94 35 181q34 83 92 141q53 53 140 90q82 35 170 35q74 0 133 -21q63 -23 94 -47q2 -4 -4 -24q-10 -29 -17 -41l-24 -43q-10 -18 -21 -29l-34 6q-20 29 -33 41q-25 25 -39 35q-16 12 -49 23q-31 10 -58 10 q-33 0 -75.5 -16.5t-75.5 -55.5q-39 -45 -57 -102q-23 -68 -23 -156q0 -74 29 -135q28 -58 67 -98q37 -37 88 -60q47 -20 92 -20q29 0 43 2q10 2 46 14q20 8 55 29l69 47q6 0 9 -6q2 -4 5 -6t5 -7l8 -12q3 -6 6 -6q-55 -55 -90 -80q-41 -29 -80 -47q-47 -20 -78 -27 q-37 -6 -73 -6q-68 0 -129 27q-63 29 -115 78q-51 51 -80 121q-31 73 -31 165z" />
<glyph unicode="&#xaa;" horiz-adv-x="536" d="M47 829q0 31 12 60q14 33 35 53q27 27 60 43q45 23 88 33l96 22v17q0 37 -2 53q-4 27 -12 41q-8 12 -24.5 22.5t-41.5 10.5q-15 0 -31 -6q-14 -6 -26.5 -18.5t-14.5 -26.5q-4 -23 0 -37q0 -4 -14 -11q-20 -8 -34.5 -12t-39.5 -8q-20 -4 -26 0l-11 20q6 33 35 62 q35 35 64 51q35 20 76 33q39 12 71 12q39 0 62 -8q25 -8 41 -33q16 -23 24 -57q8 -33 8 -92v-197q0 -23 4 -39q4 -14 11 -20q6 -2 18 0q29 6 43 12l8 -31q-47 -31 -82 -47q-31 -14 -55 -14q-12 0 -29 18q-12 14 -18 66q-51 -47 -96 -66q-46 -18 -80 -18q-18 0 -41 6 q-20 6 -39 18q-14 10 -29 35q-10 18 -10 53zM49 586v78h449v-78h-449zM158 858q0 -20 6 -32.5t12 -18.5q8 -8 17 -10q12 -4 16 -4q25 0 59.5 14t69.5 43v145l-45 -12q-76 -23 -105 -51q-30 -31 -30 -74z" />
<glyph unicode="&#xab;" horiz-adv-x="1013" d="M76 430v35v24q0 4 1 10l1 5l371 414l47 -35l-11 -19q-8 -18 -24 -47q-8 -14 -16.5 -31.5t-18.5 -35.5l-41 -76l-41 -76q-10 -18 -18.5 -35.5l-16.5 -32.5l-24 -45l-9 -18l222 -420l-49 -35zM459 430v35v24q0 4 1 10l1 5l370 414l48 -35l-11 -19q-8 -18 -24 -47 q-8 -14 -16.5 -31.5t-18.5 -35.5l-41 -76l-41 -76q-10 -18 -18.5 -35.5t-16.5 -32t-15 -25.5t-11 -20l-9 -18l222 -420l-48 -35z" />
<glyph unicode="&#xac;" horiz-adv-x="985" d="M66 528q2 6 3 12q2 5 5 11q4 16 8 24q2 6 5 12.5t5 12.5q2 2 5 10l5 13h779l30 -25v-365q-2 -2 -18 -14t-27 -18q-23 -14 -51 -25l-27 29v297h-696z" />
<glyph unicode="&#xad;" horiz-adv-x="702" d="M57 477q10 35 17 49l11 27.5t9 21.5h522l27 -26l-6 -25q-2 -8 -5 -14t-5 -12q-2 -4 -5.5 -13.5t-5.5 -13.5q-4 -8 -8 -20h-522z" />
<glyph unicode="&#xae;" horiz-adv-x="729" d="M31 1083q0 72 24 138q25 63 70 112q41 45 106 74q63 29 134 29q72 0 135 -29q59 -27 106 -74q43 -43 70 -112q25 -66 24 -138q0 -71 -24 -135q-25 -66 -70 -112q-45 -49 -106 -76q-59 -27 -135 -27q-74 0 -134 27q-66 31 -106 76q-47 53 -70 112q-24 64 -24 135zM92 1083 q0 -61 21 -110q23 -53 57 -92q37 -40 86 -62q51 -23 108.5 -22.5t108.5 22.5q49 22 86 62q35 39 57 92q20 49 21 110q0 63 -21 113q-20 51 -57 90q-37 40 -86 62q-51 23 -108.5 22.5t-108.5 -22.5q-49 -22 -86 -62q-37 -39 -57 -90q-21 -50 -21 -113zM211 1276q10 2 31.5 5 t29.5 5q35 6 76 6q80 0 119 -28q37 -28 37 -68q0 -49 -27 -78q-29 -31 -71 -43l100 -139q6 -10 16 -14q14 -4 33 -2l2 -21q-29 -8 -45 -12q-25 -6 -35 -6q-6 0 -16 6t-12 10l-101 172h-4q-18 0 -29 2v-147q0 -6 9 -9q18 -6 32 -10v-18h-143v18q41 8 41 19v325q-4 0 -11 -1 t-10 -1q-4 0 -20 -4zM315 1110q4 -2 13 -2h12q53 0 74 20q23 23 22 60q0 27 -22 49q-18 18 -76 18h-12h-11v-145z" />
<glyph unicode="&#xaf;" horiz-adv-x="1009" d="M137 1202q4 16 8 27q2 8 6.5 15t6.5 16q2 6 7 16l7 14l7 14.5t5 12.5h664l24 -27q-4 -16 -8 -26l-12 -33q-2 -8 -4 -12.5t-5 -9.5t-5 -11q-6 -14 -11 -22h-663z" />
<glyph unicode="&#xb0;" horiz-adv-x="731" d="M131 946q0 63 24.5 118.5t63.5 94.5q45 45 88 64q47 20 99 20q41 0 75.5 -14.5t63.5 -42.5q25 -25 41 -64t16 -75q0 -63 -24 -119q-23 -51 -66 -94q-41 -41 -88 -62q-51 -23 -96 -22q-39 0 -78 16q-41 16 -64 43q-25 29 -39 61q-16 39 -16 76zM256 997q0 -27 6 -51 q6 -23 21 -45q12 -18 30.5 -30.5t42.5 -12.5q27 0 45 8q20 10 39 27q16 16 26.5 43t10.5 59q0 29 -6 54q-4 20 -20 43q-14 23 -31 32q-14 10 -41 11q-29 0 -47.5 -8.5t-38.5 -28.5q-16 -16 -26.5 -43t-10.5 -58z" />
<glyph unicode="&#xb1;" horiz-adv-x="839" d="M57 150q10 35 17 49l20 47h668l26 -27l-6 -24q-2 -8 -10 -25q-2 -6 -5 -13t-5 -14q-6 -12 -8 -18h-668zM57 657q10 35 17 50l20 47h268v270l48 16q37 12 51 17l26 -27v-276h275l26 -29q-2 -6 -6 -23q-2 -8 -10 -24q-2 -6 -5 -13.5t-5 -13.5q-6 -12 -8 -18h-267v-271 q-43 -18 -49 -20q-10 -4 -27.5 -7t-21.5 -5l-27 22v281h-276z" />
<glyph unicode="&#xb2;" horiz-adv-x="684" d="M57 664l146 147q72 76 104 113q66 74 74 86q25 35 43 65q20 37 25 53q6 25 6 46q0 57 -27 86q-28 31 -92 30q-29 0 -47 -8q-10 -4 -33 -27q-16 -16 -23 -36q-6 -23 -4 -41q-8 -4 -28 -13q-12 -4 -33 -8q-6 -2 -18.5 -4t-18.5 -4q-25 -4 -35 -4l-18 26q0 29 24 64 q25 34 68 61q47 31 98 47q55 18 117 19q43 0 88 -10q43 -10 70 -31q33 -25 45 -51q16 -33 16 -74q0 -40 -18 -80q-20 -45 -62 -94q-47 -57 -116 -127l-181 -180h267q23 0 36 14q12 12 23 37q6 14 10 51l51 -8l-10 -188h-526z" />
<glyph unicode="&#xb3;" horiz-adv-x="684" d="M43 702l25 52q66 -41 112 -56q53 -16 105 -16q72 0 121 39q47 37 47 110q0 45 -15 74q-10 20 -39 45q-20 18 -51 25q-37 8 -53 8h-16h-9l-4 -1q-4 -1 -6 -1t-7 -1t-9 -1l-11 51q53 14 97 35q35 16 53 38.5t25 41.5q4 14 4 39q0 23 -6 41q-6 16 -18.5 32.5t-33.5 24.5 q-18 8 -47 8q-25 0 -43 -6t-31 -18q-14 -14 -16 -29q-4 -25 0 -39q-12 -6 -61 -18q-25 -6 -70 -11l-20 25q0 23 22 55q18 27 62 54q47 29 88 40q63 18 108 19q55 0 100 -16q43 -16 68 -37q27 -25 39 -54q12 -31 12 -61q0 -20 -10 -45q-8 -18 -29 -43q-18 -20 -45 -39 q-31 -20 -61 -29q37 -2 76 -20q33 -14 59 -41q25 -25 37 -59q14 -39 14 -68q0 -51 -22 -96q-25 -47 -60 -78q-45 -39 -96 -55q-55 -18 -125 -19q-61 0 -129 24.5t-131 75.5z" />
<glyph unicode="&#xb4;" horiz-adv-x="651" d="M213 1077l225 420q4 0 37 -4q8 0 24.5 -3l27 -5l25.5 -5t23 -3q4 0 35 -9l27 -43l-358 -381q-12 2 -37 15q-13 6 -29 18z" />
<glyph unicode="&#xb5;" horiz-adv-x="1124" d="M55 844v51q12 2 39 5t39 5q14 2 38 7.5t30 7.5q20 4 61 16q25 8 60 25l6 -7q2 -2 4 -5t6 -7q2 0 6 -5t8 -9q2 -2 5 -6t5 -7v-544q0 -31 15 -78q12 -40 37 -74q23 -29 55 -53q33 -23 68 -23l49 7q20 2 53 20q35 18 63 43q25 20 70 80v455q0 25 -2 38q-2 18 -10 45 q-8 29 -12 41q-6 16 -13 27q18 4 56 15.5t47 13.5q59 16 100 33l31 -41q-4 -27 -8 -62q-4 -29 -9 -98v-481q0 -88 11 -129q8 -35 28 -35q23 0 47 6q27 6 58 20l14 -55q-12 -8 -33.5 -20.5t-29.5 -18.5q-23 -14 -68 -39q-14 -8 -61 -28q-23 -10 -50 -11q-23 0 -39 16.5 t-28.5 43t-18.5 65.5q-4 29 -8 78q-76 -98 -151 -152q-74 -51 -129 -51q-57 0 -111 39q-59 43 -102 107v-9q0 -106 12 -188q12 -88 33 -147q23 -70 49 -113q33 -55 53 -78q-4 -2 -18.5 -6t-24.5 -8l-29.5 -12.5t-32 -12.5t-59.5 -24l-23.5 -9.5t-17.5 -7.5l-41 31v1188 q0 47 -2 61q-4 27 -12 35q-12 12 -39 19q-4 0 -74 10z" />
<glyph unicode="&#xb6;" horiz-adv-x="1169" d="M43 903q0 82 35 156q31 66 98 123q59 51 149.5 79.5t192.5 28.5q6 0 24.5 -1t30.5 -1q18 0 72 -4q14 -2 42 -3t42 -1q14 -2 42 -2t42 -2l110.5 -8t100.5 -8h70v-54q-82 -18 -107 -30q-39 -20 -39 -31v-1280q0 -12 37 -31q29 -14 109 -31v-53h-637v53q82 18 106 31 q37 18 37 31v665q-25 -4 -39 -4q-6 0 -21.5 -1t-25.5 -1q-98 0 -184 25q-84 25 -148 69q-61 43 -100 119q-39 74 -39 166zM244 938q0 -59 16 -111q16 -53 57 -104q35 -43 97 -76q55 -29 143 -29h43l2 574q-18 2 -49 2q-8 0 -21.5 1t-19.5 1q-49 0 -104 -20q-47 -18 -86 -54 q-33 -31 -58 -82q-20 -43 -20 -102zM735 -135q0 -10 15 -19t24 -12q10 2 27 12q14 8 14 19v1290l-39 10q-16 4 -41 9v-1309z" />
<glyph unicode="&#xb7;" horiz-adv-x="339" d="M49 678q0 31 12.5 59.5t28.5 44.5q18 18 43 31q20 10 53 10q49 0 76 -26q29 -29 29 -80q0 -20 -12 -58q-8 -29 -29 -47q-18 -18 -43 -30q-20 -10 -53 -11q-49 0 -76 27q-29 29 -29 80z" />
<glyph unicode="&#xb8;" horiz-adv-x="468" d="M72 -387q53 10 82 20q41 14 57 27q25 18 33 33q10 20 10 33q0 33 -27 49q-18 12 -82 18q4 4 13 27q6 20 22 65q0 2 41 129l94 -2l-39 -110q20 -4 58 -17q18 -6 47 -26q14 -10 31 -39q12 -22 12 -49q0 -37 -21 -70q-25 -37 -61 -63q-39 -27 -102 -50q-55 -20 -142 -32z " />
<glyph unicode="&#xb9;" horiz-adv-x="684" d="M94 1266q28 6 74 18q31 8 92 29q47 14 88 28q57 20 66 25l26 -20v-623q0 -8 6 -14q8 -8 25 -15q35 -12 49 -14q34 -6 86 -12v-47h-489v47q53 6 88 12q14 2 55 14q16 4 27 15q8 8 8 14v444q0 31 -2 39q-4 14 -10 21q-2 2 -15 6q-6 2 -30 2q-10 0 -52 -4q-29 -2 -75 -12z " />
<glyph unicode="&#xba;" horiz-adv-x="575" d="M43 969q0 55 20.5 102t55.5 88q27 33 82 62q43 23 102 22q49 0 92 -18q39 -16 72 -54q25 -29 47 -81q18 -45 18 -101q0 -49 -22 -100q-20 -45 -59 -88q-33 -35 -82 -62q-43 -23 -97 -22q-51 0 -94 18q-39 16 -72 53q-29 33 -45 80q-18 56 -18 101zM55 586v78h465v-78 h-465zM152 985q0 -39 12 -80q12 -37 35 -67q23 -29 47 -45.5t55 -16.5t51 15q25 16 39 40q15 25 25 62q8 33 8 78q0 41 -12 80q-14 47 -31 67q-25 33 -47 47q-27 18 -60 19q-29 0 -51 -17q-25 -16 -39 -41q-15 -25 -24 -61q-8 -33 -8 -80z" />
<glyph unicode="&#xbb;" horiz-adv-x="1013" d="M135 47l221 420l-221 416l47 35l373 -416v-74l-373 -416zM518 47l221 420l-221 416l47 35l373 -416v-74l-373 -416z" />
<glyph unicode="&#xbc;" horiz-adv-x="1224" d="M78 1153q8 2 26.5 7l32.5 9q35 10 72 23q14 4 32.5 10l37.5 12q45 16 53 21l20 -18v-500q0 -4 6.5 -10.5t20.5 -12.5q6 -2 41 -10q37 -8 67 -10v-37h-393v37q37 2 72 10q43 10 45 10q16 6 22.5 12.5t6.5 10.5v360v31q0 10 -11 16q0 2 -10 4q-6 2 -24 2q-10 0 -43 -4 l-62 -10zM182 0l805 1202q25 10 51 19q12 4 29.5 8t22.5 6l24 -29l-801 -1204q-20 -12 -51 -18q-37 -10 -53 -15zM670 180l278 381l53 19q28 9 50 18l22 -18v-353h66l14 -14q-16 -20 -24.5 -28.5t-24.5 -20.5h-31v-103q0 -6 2 -8t10 -6q6 -2 23 -6q2 0 15.5 -3t21.5 -5v-33 h-291v33l57 8q4 0 35 8q10 2 17 8q4 4 4 9v98h-277zM772 227h195v256z" />
<glyph unicode="&#xbd;" horiz-adv-x="1224" d="M78 1153q8 2 26.5 7l32.5 9q35 10 72 23q14 4 32.5 10l37.5 12q45 16 53 21l20 -18v-500q0 -4 6.5 -10.5t20.5 -12.5q6 -2 41 -10q37 -8 67 -10v-37h-393v37q37 2 72 10q43 10 45 10q16 6 22.5 12.5t6.5 10.5v360v31q0 10 -11 16q0 2 -10 4q-6 2 -24 2q-10 0 -43 -4 l-62 -10zM182 0l805 1202q25 10 51 19q12 4 29.5 8t22.5 6l24 -29l-801 -1204q-20 -12 -51 -18q-37 -10 -53 -15zM702 35l162 166q82 90 99 110q37 47 49 76q12 31 12 55q0 43 -22.5 70t-75.5 27q-23 0 -39.5 -8.5t-28.5 -20.5q-10 -10 -18 -31q-4 -10 -4 -33 q-29 -12 -48 -16q-35 -8 -55 -10l-16 20q0 25 20 52q22 28 56 49q33 20 77.5 36.5t94.5 16.5q74 0 127 -33q49 -31 49 -98q0 -35 -15 -66q-12 -29 -53 -75q-49 -57 -94 -103l-148 -145h222q18 0 30 12q8 8 17 29q8 23 10 41l39 -6l-8 -150h-422z" />
<glyph unicode="&#xbe;" horiz-adv-x="1224" d="M72 707l20 36q49 -33 92 -45q41 -12 82 -12q61 0 100.5 31t39.5 92q0 35 -13 59q-10 20 -33 39q-16 14 -41 21q-20 6 -45 6h-12l-4 -1l-4 -1h-8l-15 -2l-6 41q49 12 78 26.5t45.5 30.5t20.5 33q4 20 4 31q0 33 -21 59q-23 29 -67 29q-39 0 -59.5 -20.5t-12.5 -53.5 q-27 -12 -49 -16q-16 -4 -58 -9l-16 21q0 22 19 43q23 25 47 43q27 18 71 33q47 14 88 14q46 0 80 -12.5t55.5 -30.5t30.5 -43q10 -27 10.5 -47.5t-8.5 -36.5q-9 -18 -24 -37q-8 -10 -37 -31q-10 -8 -49 -20q31 -2 61 -16q23 -10 47 -35q20 -20 33 -47q10 -23 10 -56 q0 -43 -16 -75q-18 -35 -49 -64q-29 -25 -76 -41q-49 -16 -100 -16q-49 0 -105 18q-53 19 -106 62zM182 0l805 1202q25 10 51 19q12 4 29.5 8t22.5 6l24 -29l-801 -1204q-20 -12 -51 -18q-37 -10 -53 -15zM670 180l278 381l53 19q28 9 50 18l22 -18v-353h66l14 -14 q-16 -20 -24.5 -28.5t-24.5 -20.5h-31v-103q0 -6 2 -8t10 -6q6 -2 23 -6q2 0 15.5 -3t21.5 -5v-33h-291v33l57 8q4 0 35 8q10 2 17 8q4 4 4 9v98h-277zM772 227h195v256z" />
<glyph unicode="&#xbf;" horiz-adv-x="901" d="M76 -246q0 78 22 135q25 63 62 115q33 47 80 100l82 97q40 49 67 104q27 53 33 121l4 96q18 15 37 25q4 2 47 16l27 -22l6 -115q2 -57 -15 -111q-18 -55 -49 -110q-35 -63 -65 -107q-45 -61 -68 -102q-29 -49 -51 -100q-20 -47 -21 -97q0 -127 50 -190q49 -66 145 -66 q33 0 61 15q27 14 52 41q25 29 36 61q12 34 13 74q0 10 -4 30q-2 6 -11 29q25 12 39 17l21.5 7t23.5 7q33 8 50 10q33 4 47 6l28 -33q2 -6 2 -20v-18q0 -70 -36 -131q-37 -63 -95 -103q-68 -47 -139 -70q-80 -25 -164 -24q-76 0 -137 22q-51 18 -98 66q-40 40 -62 98 q-20 55 -20 127zM340 797q0 35 12.5 65.5t32.5 50.5q25 25 47 35q27 12 60 13q55 0 85.5 -31t30.5 -88q0 -37 -12 -68t-34.5 -53.5t-49.5 -34.5q-29 -12 -59 -12q-51 0 -82 31t-31 92z" />
<glyph unicode="&#xc0;" horiz-adv-x="1241" d="M0 0v53q66 12 106 25q40 12 50 43l364 1106q33 33 74 53l78 37l420 -1196q4 -12 14 -25q6 -8 22 -18q10 -6 39 -15q27 -8 54 -10v-53h-447v53q82 6 107 21q29 16 18 47l-111 319h-403l-106 -319q-8 -31 26 -45q31 -12 119 -23v-53h-424zM418 541h336l-172 497zM270 1603 l6 51q4 4 27 21l37 24q29 16 40 25q20 10 31 16l379 -325l-8 -11.5l-8 -11.5t-6 -8q-8 -12 -27 -21z" />
<glyph unicode="&#xc1;" horiz-adv-x="1241" d="M0 0v53q66 12 106 25q40 12 50 43l364 1106q33 33 74 53l78 37l420 -1196q4 -12 14 -25q6 -8 22 -18q10 -6 39 -15q27 -8 54 -10v-53h-447v53q82 6 107 21q29 16 18 47l-111 319h-403l-106 -319q-8 -31 26 -45q31 -12 119 -23v-53h-424zM418 541h336l-172 497zM426 1417 l379 323q4 -4 16.5 -9t18.5 -9l41 -25l36 -24q18 -12 25 -19l10 -47l-475 -244q-12 6 -26 21q-4 4 -12.5 15.5t-12.5 17.5z" />
<glyph unicode="&#xc2;" horiz-adv-x="1241" d="M0 0v53q66 12 106 25q40 12 50 43l364 1106q33 33 74 53l78 37l420 -1196q4 -12 14 -25q6 -8 22 -18q10 -6 39 -15q27 -8 54 -10v-53h-447v53q82 6 107 21q29 16 18 47l-111 319h-403l-106 -319q-8 -31 26 -45q31 -12 119 -23v-53h-424zM418 541h336l-172 497zM284 1415 l271 313h110l269 -313q-4 -6 -23 -31q-8 -12 -27 -21l-274 193l-274 -193q-18 8 -27 21z" />
<glyph unicode="&#xc3;" horiz-adv-x="1241" d="M0 0v53q66 12 106 25q40 12 50 43l364 1106q33 33 74 53l78 37l420 -1196q4 -12 14 -25q6 -8 22 -18q10 -6 39 -15q27 -8 54 -10v-53h-447v53q82 6 107 21q29 16 18 47l-111 319h-403l-106 -319q-8 -31 26 -45q31 -12 119 -23v-53h-424zM418 541h336l-172 497zM252 1406 q20 45 43 84q25 43 56 80q27 33 69 58q39 23 78 22q45 0 78 -16q31 -14 68 -39q16 -10 32.5 -18.5t30.5 -18.5q28 -18 55 -18q43 0 76 30q37 33 70 90l61 -24q-20 -45 -43 -84q-27 -45 -57 -80q-33 -35 -70 -57q-39 -23 -78 -23q-41 0 -71.5 16.5t-65.5 38.5 q-12 8 -36.5 22.5t-28.5 16.5q-27 16 -64 16.5t-74 -32.5q-31 -29 -69 -86z" />
<glyph unicode="&#xc4;" horiz-adv-x="1241" d="M0 0v53q66 12 106 25q40 12 50 43l364 1106q33 33 74 53l78 37l420 -1196q4 -12 14 -25q6 -8 22 -18q10 -6 39 -15q27 -8 54 -10v-53h-447v53q82 6 107 21q29 16 18 47l-111 319h-403l-106 -319q-8 -31 26 -45q31 -12 119 -23v-53h-424zM418 541h336l-172 497zM293 1497 q0 29 10 59q8 23 28 47q12 14 41 31q23 12 50 12q96 0 96 -104q0 -27 -10 -58q-8 -27 -27 -47t-41 -33q-25 -12 -51 -12q-53 0 -74 27q-22 29 -22 78zM700 1497q0 29 10 59q8 23 29 47q16 18 41 30.5t49 12.5q96 0 96 -104q0 -27 -10 -58q-8 -27 -26.5 -47t-40.5 -33 q-25 -12 -52 -12q-49 0 -73 27q-23 25 -23 78z" />
<glyph unicode="&#xc5;" horiz-adv-x="1241" d="M0 0v53q66 12 106 25q40 12 50 43l364 1106q33 33 74 53l78 37l420 -1196q4 -12 14 -25q6 -8 22 -18q10 -6 39 -15q27 -8 54 -10v-53h-447v53q82 6 107 21q29 16 18 47l-111 319h-403l-106 -319q-8 -31 26 -45q31 -12 119 -23v-53h-424zM418 541h336l-172 497zM415 1523 q0 53 19 96q18 41 51 78q27 29 74 52q41 18 82 18q33 0 63 -12q27 -10 51 -35q23 -23 35 -53.5t12 -63.5q0 -55 -20 -96q-25 -49 -51 -76q-33 -33 -72 -51.5t-82 -18.5q-35 0 -65 13q-27 10 -52 35q-20 20 -32.5 50.5t-12.5 63.5zM520 1564q0 -43 22 -78q20 -33 58 -32 q39 0 67 28q31 31 31 80q0 45 -22.5 80t-57.5 35q-18 0 -38.5 -10.5t-30.5 -22.5q-16 -20 -21 -35q-8 -29 -8 -45z" />
<glyph unicode="&#xc6;" horiz-adv-x="1613" d="M0 0v53q84 16 104 25q37 15 50 43l405 1001q6 18 -2 29q-10 14 -31 23q-8 4 -59 16q-4 2 -86 16v54h1079l33 -27q-2 -23 -6 -59q-4 -45 -8 -68q-8 -45 -12.5 -65.5t-14.5 -51.5h-55q-6 90 -25 131q-18 39 -57 39h-357v-424h404l29 -30q-8 -14 -21 -31q-8 -12 -24 -33 l-25 -31l-23 -22q-29 29 -71.5 41t-102.5 12h-166v-477q0 -10 9 -27q4 -10 30 -20q22 -9 62 -13q53 -4 106 -4h119q43 0 78 6.5t57 26.5q25 20 45 57q16 29 41 95l56 -21q-2 -14 -5.5 -41.5l-5.5 -42.5q-4 -27 -12 -76q-2 -6 -5 -29.5t-5 -33.5t-6 -23.5t-4 -17.5h-889v53 q68 15 104 31q35 14 35 31v526h-262l-213 -520q-12 -27 16.5 -43.5t106.5 -24.5v-53h-416zM543 735h225v404q0 8 -8 14q-6 4 -21 4q-10 0 -24 -10q-12 -10 -19 -27z" />
<glyph unicode="&#xc7;" horiz-adv-x="1112" d="M66 586q0 168 47 291q49 127 133 221q82 90 196.5 141t239.5 51q59 0 102 -8q39 -8 93 -22q43 -12 79 -31q39 -20 62 -39q4 -4 -4 -25q-4 -8 -27 -45q-2 -4 -35 -47q-18 -25 -30 -37l-45 11q-49 57 -119 92t-156 35q-34 0 -74 -13q-39 -12 -77 -39q-35 -25 -74 -69 q-37 -43 -64 -103q-28 -61 -43 -141q-16 -86 -16 -186q0 -129 37 -227.5t94 -162.5q59 -66 129 -96q76 -33 141 -33q31 0 64 9q43 10 80 26q43 18 92 49q45 29 102 76q4 -2 13 -10q4 -4 12 -16q6 -8 10 -17q2 -2 5 -6l3 -4q-61 -63 -123 -113q-66 -51 -116 -75 q-55 -27 -113 -39q-14 -4 -39 -9l-27 -73q20 -4 58 -17q18 -6 47 -26q18 -12 33 -39q12 -22 12 -49q0 -37 -20 -70q-23 -35 -64 -63.5t-100 -49.5q-55 -18 -144 -32l-26 57q57 10 84 20q41 14 57 27q23 16 31 33q10 20 10 33q0 34 -25 49q-18 12 -82 18q4 4 13 27l20 65 q4 12 12.5 35t16.5 51q-86 6 -162 41q-96 45 -164 121q-76 86 -116 193q-43 113 -43 260z" />
<glyph unicode="&#xc8;" horiz-adv-x="1034" d="M47 0v53q72 16 107 31q37 15 36 31v1030q0 12 -34 31q-23 12 -109 30v54h832l34 -27q-2 -23 -6 -59q-2 -23 -10 -68l-12 -66q-8 -37 -13 -51h-55q-6 98 -24 131q-20 39 -58 39h-354v-424h401l29 -30l-20 -31q-18 -27 -23 -33l-25 -31q-4 -4 -24 -20q-16 16 -33 24 q-25 12 -39 17q-27 8 -53 10q-20 2 -74 2h-139v-479q0 -14 6 -27q6 -10 29 -20q22 -9 61 -13q53 -4 107 -4h118q46 0 80 6q35 6 58 27q25 20 45 57q16 29 41 95l53 -21q-4 -57 -8 -83.5t-13 -76.5q-2 -6 -5 -29.5t-5 -33.5t-6 -23.5t-4 -17.5h-891zM174 1603l6 51q4 4 27 21 l37 24q29 16 40 25q20 10 31 16l379 -325l-8 -11.5l-8 -11.5t-6 -8q-8 -12 -27 -21z" />
<glyph unicode="&#xc9;" horiz-adv-x="1034" d="M47 0v53q72 16 107 31q37 15 36 31v1030q0 12 -34 31q-23 12 -109 30v54h832l34 -27q-2 -23 -6 -59q-2 -23 -10 -68l-12 -66q-8 -37 -13 -51h-55q-6 98 -24 131q-20 39 -58 39h-354v-424h401l29 -30l-20 -31q-18 -27 -23 -33l-25 -31q-4 -4 -24 -20q-16 16 -33 24 q-25 12 -39 17q-27 8 -53 10q-20 2 -74 2h-139v-479q0 -14 6 -27q6 -10 29 -20q22 -9 61 -13q53 -4 107 -4h118q46 0 80 6q35 6 58 27q25 20 45 57q16 29 41 95l53 -21q-4 -57 -8 -83.5t-13 -76.5q-2 -6 -5 -29.5t-5 -33.5t-6 -23.5t-4 -17.5h-891zM330 1417l379 323 q4 -4 16.5 -9t18.5 -9l41 -25l36 -24q18 -12 25 -19l10 -47l-475 -244q-12 6 -26 21q-4 4 -12.5 15.5t-12.5 17.5z" />
<glyph unicode="&#xca;" horiz-adv-x="1034" d="M47 0v53q72 16 107 31q37 15 36 31v1030q0 12 -34 31q-23 12 -109 30v54h832l34 -27q-2 -23 -6 -59q-2 -23 -10 -68l-12 -66q-8 -37 -13 -51h-55q-6 98 -24 131q-20 39 -58 39h-354v-424h401l29 -30l-20 -31q-18 -27 -23 -33l-25 -31q-4 -4 -24 -20q-16 16 -33 24 q-25 12 -39 17q-27 8 -53 10q-20 2 -74 2h-139v-479q0 -14 6 -27q6 -10 29 -20q22 -9 61 -13q53 -4 107 -4h118q46 0 80 6q35 6 58 27q25 20 45 57q16 29 41 95l53 -21q-4 -57 -8 -83.5t-13 -76.5q-2 -6 -5 -29.5t-5 -33.5t-6 -23.5t-4 -17.5h-891zM186 1415l271 313h110 l269 -313q-4 -6 -23 -31q-8 -12 -27 -21l-274 193l-274 -193q-18 8 -27 21z" />
<glyph unicode="&#xcb;" horiz-adv-x="1034" d="M47 0v53q72 16 107 31q37 15 36 31v1030q0 12 -34 31q-23 12 -109 30v54h832l34 -27q-2 -23 -6 -59q-2 -23 -10 -68l-12 -66q-8 -37 -13 -51h-55q-6 98 -24 131q-20 39 -58 39h-354v-424h401l29 -30l-20 -31q-18 -27 -23 -33l-25 -31q-4 -4 -24 -20q-16 16 -33 24 q-25 12 -39 17q-27 8 -53 10q-20 2 -74 2h-139v-479q0 -14 6 -27q6 -10 29 -20q22 -9 61 -13q53 -4 107 -4h118q46 0 80 6q35 6 58 27q25 20 45 57q16 29 41 95l53 -21q-4 -57 -8 -83.5t-13 -76.5q-2 -6 -5 -29.5t-5 -33.5t-6 -23.5t-4 -17.5h-891zM197 1497q0 29 10 59 q8 23 28 47q12 14 41 31q23 12 50 12q96 0 96 -104q0 -27 -10 -58q-8 -27 -27 -47t-41 -33q-25 -12 -51 -12q-53 0 -74 27q-22 29 -22 78zM604 1497q0 29 10 59q8 23 29 47q16 18 41 30.5t49 12.5q96 0 96 -104q0 -27 -10 -58q-8 -27 -26.5 -47t-40.5 -33q-25 -12 -52 -12 q-49 0 -73 27q-23 25 -23 78z" />
<glyph unicode="&#xcc;" horiz-adv-x="628" d="M68 0v53q68 15 104 31q39 16 39 31v1030q0 10 -37 31q-23 12 -106 30v54h475v-54q-80 -18 -105 -30q-39 -20 -39 -31v-1030q0 -12 37 -31q27 -14 107 -31v-53h-475zM-35 1603l6 51q4 4 27 21l37 24q29 16 40 25q20 10 31 16l379 -325l-8 -11.5l-8 -11.5t-6 -8 q-8 -12 -27 -21z" />
<glyph unicode="&#xcd;" horiz-adv-x="628" d="M68 0v53q68 15 104 31q39 16 39 31v1030q0 10 -37 31q-23 12 -106 30v54h475v-54q-80 -18 -105 -30q-39 -20 -39 -31v-1030q0 -12 37 -31q27 -14 107 -31v-53h-475zM121 1417l379 323q4 -4 16.5 -9t18.5 -9l41 -25l36 -24q18 -12 25 -19l10 -47l-475 -244q-12 6 -26 21 q-4 4 -12.5 15.5t-12.5 17.5z" />
<glyph unicode="&#xce;" horiz-adv-x="628" d="M68 0v53q68 15 104 31q39 16 39 31v1030q0 10 -37 31q-23 12 -106 30v54h475v-54q-80 -18 -105 -30q-39 -20 -39 -31v-1030q0 -12 37 -31q27 -14 107 -31v-53h-475zM-21 1415l271 313h110l269 -313q-4 -6 -23 -31q-8 -12 -27 -21l-274 193l-274 -193q-18 8 -27 21z" />
<glyph unicode="&#xcf;" horiz-adv-x="628" d="M68 0v53q68 15 104 31q39 16 39 31v1030q0 10 -37 31q-23 12 -106 30v54h475v-54q-80 -18 -105 -30q-39 -20 -39 -31v-1030q0 -12 37 -31q27 -14 107 -31v-53h-475zM-12 1497q0 29 10 59q8 23 28 47q12 14 41 31q23 12 50 12q96 0 96 -104q0 -27 -10 -58q-8 -27 -27 -47 t-41 -33q-25 -12 -51 -12q-53 0 -74 27q-22 29 -22 78zM395 1497q0 29 10 59q8 23 29 47q16 18 41 30.5t49 12.5q96 0 96 -104q0 -27 -10 -58q-8 -27 -26.5 -47t-40.5 -33q-25 -12 -52 -12q-49 0 -73 27q-23 25 -23 78z" />
<glyph unicode="&#xd0;" d="M27 639q6 25 12 39q2 4 14 37h137v463q-20 -2 -38.5 -5.5t-36.5 -5.5q-10 -2 -33 -5t-35 -5l-10 74q18 4 106 22q12 2 129 19q90 12 136 14q90 4 131 4q150 0 258 -41q119 -45 194 -121q80 -80 123 -192q41 -109 41 -260q0 -125 -25 -223q-23 -90 -69 -174 q-45 -78 -100 -129q-61 -55 -121 -86t-131.5 -47.5t-128.5 -16.5h-533v53q72 16 107 31q37 15 36 31v499h-141zM381 164q0 -27 6 -37q10 -16 51 -27q33 -8 115 -8q68 0 135 33q76 37 129 98q63 74 98 170q37 102 37 244q0 133 -30 237q-31 106 -93 177q-66 76 -151 110 q-88 37 -207 37q-59 0 -90 -2v-481h252l24 -23l-28 -78h-248v-450z" />
<glyph unicode="&#xd1;" horiz-adv-x="1337" d="M47 0v53q72 8 109 29q35 18 34 33v1024q-33 29 -69 45q-41 16 -74 22v54h236q18 0 24 -3q12 -4 19 -10q14 -14 22 -24l8 -11.5t9.5 -11.5t13.5 -18l641 -887v850q0 6 -6 14q-2 2 -25 17q-15 9 -43 18q-10 4 -67 12v54h413v-54q-66 -8 -106 -28q-35 -18 -35 -33v-1176 q-59 6 -104 27q-31 14 -56 43l-672 930v-854q0 -6 9 -15q12 -12 24 -18q8 -4 45 -16q12 -4 66 -13v-53h-416zM313 1406q20 45 43 84q25 43 56 80q27 33 69 58q39 23 78 22q45 0 78 -16q31 -14 68 -39q16 -10 32.5 -18.5t30.5 -18.5q28 -18 55 -18q43 0 76 30q37 33 70 90 l61 -24q-20 -45 -43 -84q-27 -45 -57 -80q-33 -35 -70 -57q-39 -23 -78 -23q-41 0 -71.5 16.5t-65.5 38.5q-12 8 -36.5 22.5t-28.5 16.5q-27 16 -64 16.5t-74 -32.5q-31 -29 -69 -86z" />
<glyph unicode="&#xd2;" d="M66 612q0 135 43 258q43 121 122 217q76 92 183 148q104 55 227 55q125 0 223.5 -55t162 -143t97.5 -207q33 -113 33 -238q0 -137 -45 -258q-49 -129 -125 -217q-82 -94 -182 -147q-104 -55 -221 -56q-123 0 -219 54q-94 51 -164 143q-66 88 -101 205q-34 120 -34 241z M254 641q0 -109 29 -211q29 -98 77 -174q49 -74 117 -117q72 -45 139 -45q78 0 143.5 35t110.5 100q47 68 74 168q27 98 27 232q0 70 -13 137q-10 57 -34 127q-16 49 -54 111q-27 43 -73 88q-37 35 -90 57q-47 20 -103 20q-84 0 -149 -36q-65 -37 -111 -105 q-41 -59 -68 -168q-22 -90 -22 -219zM285 1603l6 51q4 4 27 21l37 24q29 16 40 25q20 10 31 16l379 -325l-8 -11.5l-8 -11.5t-6 -8q-8 -12 -27 -21z" />
<glyph unicode="&#xd3;" d="M66 612q0 135 43 258q43 121 122 217q76 92 183 148q104 55 227 55q125 0 223.5 -55t162 -143t97.5 -207q33 -113 33 -238q0 -137 -45 -258q-49 -129 -125 -217q-82 -94 -182 -147q-104 -55 -221 -56q-123 0 -219 54q-94 51 -164 143q-66 88 -101 205q-34 120 -34 241z M254 641q0 -109 29 -211q29 -98 77 -174q49 -74 117 -117q72 -45 139 -45q78 0 143.5 35t110.5 100q47 68 74 168q27 98 27 232q0 70 -13 137q-10 57 -34 127q-16 49 -54 111q-27 43 -73 88q-37 35 -90 57q-47 20 -103 20q-84 0 -149 -36q-65 -37 -111 -105 q-41 -59 -68 -168q-22 -90 -22 -219zM438 1417l379 323q4 -4 16.5 -9t18.5 -9l41 -25l36 -24q18 -12 25 -19l10 -47l-475 -244q-12 6 -26 21q-4 4 -12.5 15.5t-12.5 17.5z" />
<glyph unicode="&#xd4;" d="M66 612q0 135 43 258q43 121 122 217q76 92 183 148q104 55 227 55q125 0 223.5 -55t162 -143t97.5 -207q33 -113 33 -238q0 -137 -45 -258q-49 -129 -125 -217q-82 -94 -182 -147q-104 -55 -221 -56q-123 0 -219 54q-94 51 -164 143q-66 88 -101 205q-34 120 -34 241z M254 641q0 -109 29 -211q29 -98 77 -174q49 -74 117 -117q72 -45 139 -45q78 0 143.5 35t110.5 100q47 68 74 168q27 98 27 232q0 70 -13 137q-10 57 -34 127q-16 49 -54 111q-27 43 -73 88q-37 35 -90 57q-47 20 -103 20q-84 0 -149 -36q-65 -37 -111 -105 q-41 -59 -68 -168q-22 -90 -22 -219zM297 1415l271 313h110l269 -313q-4 -6 -23 -31q-8 -12 -27 -21l-274 193l-274 -193q-18 8 -27 21z" />
<glyph unicode="&#xd5;" d="M66 612q0 135 43 258q43 121 122 217q76 92 183 148q104 55 227 55q125 0 223.5 -55t162 -143t97.5 -207q33 -113 33 -238q0 -137 -45 -258q-49 -129 -125 -217q-82 -94 -182 -147q-104 -55 -221 -56q-123 0 -219 54q-94 51 -164 143q-66 88 -101 205q-34 120 -34 241z M254 641q0 -109 29 -211q29 -98 77 -174q49 -74 117 -117q72 -45 139 -45q78 0 143.5 35t110.5 100q47 68 74 168q27 98 27 232q0 70 -13 137q-10 57 -34 127q-16 49 -54 111q-27 43 -73 88q-37 35 -90 57q-47 20 -103 20q-84 0 -149 -36q-65 -37 -111 -105 q-41 -59 -68 -168q-22 -90 -22 -219zM266 1406q20 45 43 84q25 43 56 80q27 33 69 58q39 23 78 22q45 0 78 -16q31 -14 68 -39q16 -10 32.5 -18.5t30.5 -18.5q28 -18 55 -18q43 0 76 30q37 33 70 90l61 -24q-20 -45 -43 -84q-27 -45 -57 -80q-33 -35 -70 -57 q-39 -23 -78 -23q-41 0 -71.5 16.5t-65.5 38.5q-12 8 -36.5 22.5t-28.5 16.5q-27 16 -64 16.5t-74 -32.5q-31 -29 -69 -86z" />
<glyph unicode="&#xd6;" d="M66 612q0 135 43 258q43 121 122 217q76 92 183 148q104 55 227 55q125 0 223.5 -55t162 -143t97.5 -207q33 -113 33 -238q0 -137 -45 -258q-49 -129 -125 -217q-82 -94 -182 -147q-104 -55 -221 -56q-123 0 -219 54q-94 51 -164 143q-66 88 -101 205q-34 120 -34 241z M254 641q0 -109 29 -211q29 -98 77 -174q49 -74 117 -117q72 -45 139 -45q78 0 143.5 35t110.5 100q47 68 74 168q27 98 27 232q0 70 -13 137q-10 57 -34 127q-16 49 -54 111q-27 43 -73 88q-37 35 -90 57q-47 20 -103 20q-84 0 -149 -36q-65 -37 -111 -105 q-41 -59 -68 -168q-22 -90 -22 -219zM308 1497q0 29 10 59q8 23 28 47q12 14 41 31q23 12 50 12q96 0 96 -104q0 -27 -10 -58q-8 -27 -27 -47t-41 -33q-25 -12 -51 -12q-53 0 -74 27q-22 29 -22 78zM715 1497q0 29 10 59q8 23 29 47q16 18 41 30.5t49 12.5q96 0 96 -104 q0 -27 -10 -58q-8 -27 -26.5 -47t-40.5 -33q-25 -12 -52 -12q-49 0 -73 27q-23 25 -23 78z" />
<glyph unicode="&#xd7;" horiz-adv-x="847" d="M90 281v32l248 248l-248 248v35q8 4 24.5 9t26.5 9q14 6 52 17l231 -232l229 232q35 -10 52 -17q10 -4 27.5 -9t23.5 -9v-35l-246 -248l248 -248v-32l-25 -11q-14 -6 -28 -10q-8 -2 -14.5 -5t-12.5 -5q-16 -4 -23 -6l-231 231l-231 -231q-6 2 -23 6l-14.5 5l-14.5 5 q-4 2 -14 5t-14 5q-6 4 -12.5 6.5t-10.5 4.5z" />
<glyph unicode="&#xd8;" d="M66 612q0 135 43 258q43 121 122 217q76 92 183 148q104 55 227 55q84 0 160 -26q68 -25 129 -72l51 72q28 18 68 30q39 12 71 19l31 -33l-129 -182q70 -94 102 -209q33 -113 33 -242q0 -137 -45 -258q-49 -129 -125 -217q-82 -94 -182 -147q-104 -55 -221 -56 q-80 0 -160 27q-72 25 -131 74l-51 -72q-6 -6 -27 -16q-12 -6 -41 -15l-41 -12q-20 -6 -33 -8l-28 35l131 182q-68 90 -103 205q-34 116 -34 243zM254 641q0 -94 16 -166q18 -82 49 -145l515 723q-46 55 -105 86q-57 31 -125 30q-84 0 -149 -36q-65 -37 -111 -105 q-41 -59 -68 -168q-22 -90 -22 -219zM393 213q46 -55 105 -86q61 -33 118 -33q78 0 143.5 35t110.5 100q47 68 74 168q27 98 27 232q0 78 -17 159q-14 70 -49 148z" />
<glyph unicode="&#xd9;" horiz-adv-x="1347" d="M47 1206v54h475v-54q-80 -18 -104 -30q-37 -18 -37 -31v-645q0 -193 82 -299.5t256 -106.5q70 0 123 35q57 37 88 88q37 59 53 125q16 63 16 145v658q0 12 -34 31q-23 12 -107 30v54h430v-54q-82 -18 -106 -30q-37 -18 -37 -31v-621q0 -133 -33 -233.5t-96 -173.5 q-61 -72 -150 -109q-90 -39 -194 -39q-100 0 -193 29q-82 27 -151 88q-63 57 -100.5 147.5t-37.5 210.5v701q0 12 -34 31q-23 12 -109 30zM342 1603l6 51q4 4 27 21l37 24q29 16 40 25q20 10 31 16l379 -325l-8 -11.5l-8 -11.5t-6 -8q-8 -12 -27 -21z" />
<glyph unicode="&#xda;" horiz-adv-x="1347" d="M47 1206v54h475v-54q-80 -18 -104 -30q-37 -18 -37 -31v-645q0 -193 82 -299.5t256 -106.5q70 0 123 35q57 37 88 88q37 59 53 125q16 63 16 145v658q0 12 -34 31q-23 12 -107 30v54h430v-54q-82 -18 -106 -30q-37 -18 -37 -31v-621q0 -133 -33 -233.5t-96 -173.5 q-61 -72 -150 -109q-90 -39 -194 -39q-100 0 -193 29q-82 27 -151 88q-63 57 -100.5 147.5t-37.5 210.5v701q0 12 -34 31q-23 12 -109 30zM498 1417l379 323q4 -4 16.5 -9t18.5 -9l41 -25l36 -24q18 -12 25 -19l10 -47l-475 -244q-12 6 -26 21q-4 4 -12.5 15.5t-12.5 17.5z " />
<glyph unicode="&#xdb;" horiz-adv-x="1347" d="M47 1206v54h475v-54q-80 -18 -104 -30q-37 -18 -37 -31v-645q0 -193 82 -299.5t256 -106.5q70 0 123 35q57 37 88 88q37 59 53 125q16 63 16 145v658q0 12 -34 31q-23 12 -107 30v54h430v-54q-82 -18 -106 -30q-37 -18 -37 -31v-621q0 -133 -33 -233.5t-96 -173.5 q-61 -72 -150 -109q-90 -39 -194 -39q-100 0 -193 29q-82 27 -151 88q-63 57 -100.5 147.5t-37.5 210.5v701q0 12 -34 31q-23 12 -109 30zM356 1415l271 313h110l269 -313q-4 -6 -23 -31q-8 -12 -27 -21l-274 193l-274 -193q-18 8 -27 21z" />
<glyph unicode="&#xdc;" horiz-adv-x="1347" d="M47 1206v54h475v-54q-80 -18 -104 -30q-37 -18 -37 -31v-645q0 -193 82 -299.5t256 -106.5q70 0 123 35q57 37 88 88q37 59 53 125q16 63 16 145v658q0 12 -34 31q-23 12 -107 30v54h430v-54q-82 -18 -106 -30q-37 -18 -37 -31v-621q0 -133 -33 -233.5t-96 -173.5 q-61 -72 -150 -109q-90 -39 -194 -39q-100 0 -193 29q-82 27 -151 88q-63 57 -100.5 147.5t-37.5 210.5v701q0 12 -34 31q-23 12 -109 30zM365 1497q0 29 10 59q8 23 28 47q12 14 41 31q23 12 50 12q96 0 96 -104q0 -27 -10 -58q-8 -27 -27 -47t-41 -33q-25 -12 -51 -12 q-53 0 -74 27q-22 29 -22 78zM772 1497q0 29 10 59q8 23 29 47q16 18 41 30.5t49 12.5q96 0 96 -104q0 -27 -10 -58q-8 -27 -26.5 -47t-40.5 -33q-25 -12 -52 -12q-49 0 -73 27q-23 25 -23 78z" />
<glyph unicode="&#xdd;" horiz-adv-x="1228" d="M0 1247q8 0 28.5 3t32.5 5q23 2 64 6.5l59.5 6.5t48.5 2q23 0 48 -10q20 -8 38 -31q31 -41 80 -115l84 -137q68 -115 84 -148l74 -149l258 461q16 25 -10 41q-25 16 -101 24v54h404v-54q-72 -12 -104.5 -26.5t-49.5 -38.5l-331 -604v-412q0 -6 8 -14q10 -10 26 -19 q29 -14 50 -20q25 -8 79 -19v-53h-516v53q82 16 127 39q35 18 35 33v410q-49 109 -82 167l-94 168q-59 100 -94 154l-80 117q-8 12 -21 20q-16 12 -28 17q-35 10 -43 12q-37 4 -70 4zM428 1417l379 323q4 -4 16.5 -9t18.5 -9l41 -25l36 -24q18 -12 25 -19l10 -47l-475 -244 q-12 6 -26 21q-4 4 -12.5 15.5t-12.5 17.5z" />
<glyph unicode="&#xde;" horiz-adv-x="1099" d="M47 0v53q68 15 105 31q39 16 38 31v1030q0 12 -36 31q-27 14 -107 30v54h506v-54q-68 -12 -84 -16q-23 -6 -53 -16q-14 -4 -29 -15q-6 -4 -6 -14v-127q45 4 70 4q12 0 38.5 1t40.5 1q98 0 201 -25q89 -22 153.5 -67.5t98.5 -110.5q35 -66 35 -151q0 -61 -21 -127 q-18 -57 -51 -103q-31 -43 -76 -78q-51 -41 -88 -57q-46 -22 -92 -31q-61 -12 -88 -12q-29 0 -86 8q-41 6 -76 25l-26 82q45 -18 78 -25q25 -4 71 -4q51 0 92 17q43 18 86 53q39 33 63.5 86t24.5 125q0 80 -26 135q-27 57 -76 94t-113 55q-66 18 -141 19q-31 0 -92 -4v-813 q0 -8 6 -15q2 -2 27 -14q8 -4 53 -16q12 -4 86 -17v-53h-506z" />
<glyph unicode="&#xdf;" horiz-adv-x="1200" d="M53 0v53q74 14 103 29q35 18 34 31v843q0 120 19 203q18 82 49 137q33 59 68 95q33 33 77 67q55 43 127 67.5t146 24.5q88 0 153 -34q63 -33 109 -89q37 -45 61 -116q20 -61 21 -121q0 -80 -25 -133q-23 -49 -63 -86q-31 -29 -84 -53q-25 -10 -45.5 -21.5t-36.5 -19.5 q-41 -20 -64 -43q-27 -27 -26 -64q0 -35 18.5 -59.5t51 -47t71.5 -40.5l82 -41q39 -20 82 -49t72 -62q35 -37 51 -80q18 -47 18 -108q0 -63 -20 -117q-23 -59 -64 -100t-110 -70q-66 -27 -160 -27q-18 0 -76 8q-45 6 -84 19q-45 14 -71 24q-31 12 -37 25q-3 6 -6 25 q-2 12 -2 45v57q0 18 4 55q2 18 6 47q2 18 10 27l51 -12q10 -59 33 -96q27 -43 57 -66q35 -27 72 -37q41 -12 78 -12q29 0 63 10q31 10 51.5 26.5t32.5 43.5q12 25 13 57q0 68 -33 113t-84 78q-52 34 -111 61q-39 18 -108 63q-49 33 -86 82q-33 45 -33 117q0 66 24 107 q27 43 62 69q41 31 80 47q29 12 78 41q39 23 61 51q25 31 25 78q0 57 -15 107q-14 47 -47 94q-33 45 -78 70q-47 25 -112 24q-51 0 -86 -16q-45 -20 -70 -62q-31 -51 -45 -124.5t-14 -202.5v-1012h-318z" />
<glyph unicode="&#xe0;" horiz-adv-x="966" d="M76 190q0 74 24.5 123t63.5 88q20 20 55 45q27 18 82 43q43 18 127 39q49 12 195 35v133q0 34 -6.5 61.5t-24.5 49.5q-16 20 -49 33q-27 10 -74 10q-29 0 -59 -10q-29 -10 -50 -27q-25 -23 -34 -41q-12 -23 -9 -55q0 -4 -12 -15l-31 -16q-14 -6 -43 -14q-33 -8 -47 -13 q-8 -2 -23.5 -4t-17.5 -2q-23 -4 -26 -2l-17 45q20 49 72 101q45 45 113 84q61 35 135 57.5t141 22.5q119 0 180.5 -61.5t61.5 -164.5v-536q0 -47 10 -62q10 -16 30.5 -16t35.5 4q29 8 59 22l18 -55q-94 -63 -151 -90q-72 -33 -98 -33q-37 0 -58 45q-25 51 -26 125 q-53 -53 -91 -78q-61 -41 -86 -53q-37 -18 -82 -28.5t-71 -10.5q-35 0 -76 13q-37 12 -70 41q-35 33 -53 67q-18 37 -18 100zM268 240q0 -39 13 -64q10 -20 26 -37q10 -10 35 -18q18 -6 31 -6q49 0 112 28q59 27 138 93v245q-74 -12 -125 -24q-53 -12 -84 -25 q-25 -8 -52 -26q-18 -12 -34 -29q-33 -37 -43 -60q-17 -36 -17 -77zM195 1421l22 47q8 2 33 7q6 0 23.5 4t28 6l26.5 5t25 3q33 4 36 4l234 -416q-12 -12 -33 -22q-16 -8 -35 -15z" />
<glyph unicode="&#xe1;" horiz-adv-x="966" d="M76 190q0 74 24.5 123t63.5 88q20 20 55 45q27 18 82 43q43 18 127 39q49 12 195 35v133q0 34 -6.5 61.5t-24.5 49.5q-16 20 -49 33q-27 10 -74 10q-29 0 -59 -10q-29 -10 -50 -27q-25 -23 -34 -41q-12 -23 -9 -55q0 -4 -12 -15l-31 -16q-14 -6 -43 -14q-33 -8 -47 -13 q-8 -2 -23.5 -4t-17.5 -2q-23 -4 -26 -2l-17 45q20 49 72 101q45 45 113 84q61 35 135 57.5t141 22.5q119 0 180.5 -61.5t61.5 -164.5v-536q0 -47 10 -62q10 -16 30.5 -16t35.5 4q29 8 59 22l18 -55q-94 -63 -151 -90q-72 -33 -98 -33q-37 0 -58 45q-25 51 -26 125 q-53 -53 -91 -78q-61 -41 -86 -53q-37 -18 -82 -28.5t-71 -10.5q-35 0 -76 13q-37 12 -70 41q-35 33 -53 67q-18 37 -18 100zM268 240q0 -39 13 -64q10 -20 26 -37q10 -10 35 -18q18 -6 31 -6q49 0 112 28q59 27 138 93v245q-74 -12 -125 -24q-53 -12 -84 -25 q-25 -8 -52 -26q-18 -12 -34 -29q-33 -37 -43 -60q-17 -36 -17 -77zM377 1077l225 420q4 0 37 -4q8 0 24.5 -3t26.5 -5l25.5 -5t23.5 -3l37 -9l25 -43l-359 -381q-12 2 -37 15q-12 6 -28 18z" />
<glyph unicode="&#xe2;" horiz-adv-x="966" d="M76 190q0 74 24.5 123t63.5 88q20 20 55 45q27 18 82 43q43 18 127 39q49 12 195 35v133q0 34 -6.5 61.5t-24.5 49.5q-16 20 -49 33q-27 10 -74 10q-29 0 -59 -10q-29 -10 -50 -27q-25 -23 -34 -41q-12 -23 -9 -55q0 -4 -12 -15l-31 -16q-14 -6 -43 -14q-33 -8 -47 -13 q-8 -2 -23.5 -4t-17.5 -2q-23 -4 -26 -2l-17 45q20 49 72 101q45 45 113 84q61 35 135 57.5t141 22.5q119 0 180.5 -61.5t61.5 -164.5v-536q0 -47 10 -62q10 -16 30.5 -16t35.5 4q29 8 59 22l18 -55q-94 -63 -151 -90q-72 -33 -98 -33q-37 0 -58 45q-25 51 -26 125 q-53 -53 -91 -78q-61 -41 -86 -53q-37 -18 -82 -28.5t-71 -10.5q-35 0 -76 13q-37 12 -70 41q-35 33 -53 67q-18 37 -18 100zM268 240q0 -39 13 -64q10 -20 26 -37q10 -10 35 -18q18 -6 31 -6q49 0 112 28q59 27 138 93v245q-74 -12 -125 -24q-53 -12 -84 -25 q-25 -8 -52 -26q-18 -12 -34 -29q-33 -37 -43 -60q-17 -36 -17 -77zM164 1098l271 381h116l265 -381q-16 -25 -23 -33q-8 -12 -27 -21l-274 254l-274 -254q-20 10 -29 21q-2 2 -6 8t-9.5 12.5t-9.5 12.5z" />
<glyph unicode="&#xe3;" horiz-adv-x="966" d="M76 190q0 74 24.5 123t63.5 88q20 20 55 45q27 18 82 43q43 18 127 39q49 12 195 35v133q0 34 -6.5 61.5t-24.5 49.5q-16 20 -49 33q-27 10 -74 10q-29 0 -59 -10q-29 -10 -50 -27q-25 -23 -34 -41q-12 -23 -9 -55q0 -4 -12 -15l-31 -16q-14 -6 -43 -14q-33 -8 -47 -13 q-8 -2 -23.5 -4t-17.5 -2q-23 -4 -26 -2l-17 45q20 49 72 101q45 45 113 84q61 35 135 57.5t141 22.5q119 0 180.5 -61.5t61.5 -164.5v-536q0 -47 10 -62q10 -16 30.5 -16t35.5 4q29 8 59 22l18 -55q-94 -63 -151 -90q-72 -33 -98 -33q-37 0 -58 45q-25 51 -26 125 q-53 -53 -91 -78q-61 -41 -86 -53q-37 -18 -82 -28.5t-71 -10.5q-35 0 -76 13q-37 12 -70 41q-35 33 -53 67q-18 37 -18 100zM268 240q0 -39 13 -64q10 -20 26 -37q10 -10 35 -18q18 -6 31 -6q49 0 112 28q59 27 138 93v245q-74 -12 -125 -24q-53 -12 -84 -25 q-25 -8 -52 -26q-18 -12 -34 -29q-33 -37 -43 -60q-17 -36 -17 -77zM135 1126l43 86q20 37 56 78q31 37 69.5 59.5t77.5 22.5q41 0 78 -18q45 -23 68 -37l63 -39q25 -16 55 -16q43 0 76 30q37 33 70 90l61 -26q-20 -45 -42.5 -84t-57.5 -78q-33 -35 -70 -57q-43 -25 -78 -25 q-39 0 -71 18q-31 16 -66 39q-12 8 -34.5 20.5t-30.5 16.5q-31 18 -64 19q-37 0 -74 -33q-31 -29 -69 -86z" />
<glyph unicode="&#xe4;" horiz-adv-x="966" d="M76 190q0 74 24.5 123t63.5 88q20 20 55 45q27 18 82 43q43 18 127 39q49 12 195 35v133q0 34 -6.5 61.5t-24.5 49.5q-16 20 -49 33q-27 10 -74 10q-29 0 -59 -10q-29 -10 -50 -27q-25 -23 -34 -41q-12 -23 -9 -55q0 -4 -12 -15l-31 -16q-14 -6 -43 -14q-33 -8 -47 -13 q-8 -2 -23.5 -4t-17.5 -2q-23 -4 -26 -2l-17 45q20 49 72 101q45 45 113 84q61 35 135 57.5t141 22.5q119 0 180.5 -61.5t61.5 -164.5v-536q0 -47 10 -62q10 -16 30.5 -16t35.5 4q29 8 59 22l18 -55q-94 -63 -151 -90q-72 -33 -98 -33q-37 0 -58 45q-25 51 -26 125 q-53 -53 -91 -78q-61 -41 -86 -53q-37 -18 -82 -28.5t-71 -10.5q-35 0 -76 13q-37 12 -70 41q-35 33 -53 67q-18 37 -18 100zM268 240q0 -39 13 -64q10 -20 26 -37q10 -10 35 -18q18 -6 31 -6q49 0 112 28q59 27 138 93v245q-74 -12 -125 -24q-53 -12 -84 -25 q-25 -8 -52 -26q-18 -12 -34 -29q-33 -37 -43 -60q-17 -36 -17 -77zM177 1219q0 27 10 57q8 23 28 47q16 18 41 33q18 10 50 10q96 0 96 -102q0 -29 -10 -60q-8 -27 -27 -47q-18 -23 -41 -33q-25 -12 -51 -12q-51 0 -73.5 29t-22.5 78zM584 1219q0 27 10 57q8 23 29 47 q18 20 41 33q20 10 49 10q96 0 96 -102q0 -29 -10 -60q-8 -27 -27 -47q-18 -23 -40 -33q-25 -12 -52 -12q-49 0 -73 29q-23 25 -23 78z" />
<glyph unicode="&#xe5;" horiz-adv-x="966" d="M76 190q0 74 24.5 123t63.5 88q20 20 55 45q27 18 82 43q43 18 127 39q49 12 195 35v133q0 34 -6.5 61.5t-24.5 49.5q-16 20 -49 33q-27 10 -74 10q-29 0 -59 -10q-29 -10 -50 -27q-25 -23 -34 -41q-12 -23 -9 -55q0 -4 -12 -15l-31 -16q-14 -6 -43 -14q-33 -8 -47 -13 q-8 -2 -23.5 -4t-17.5 -2q-23 -4 -26 -2l-17 45q20 49 72 101q45 45 113 84q61 35 135 57.5t141 22.5q119 0 180.5 -61.5t61.5 -164.5v-536q0 -47 10 -62q10 -16 30.5 -16t35.5 4q29 8 59 22l18 -55q-94 -63 -151 -90q-72 -33 -98 -33q-37 0 -58 45q-25 51 -26 125 q-53 -53 -91 -78q-61 -41 -86 -53q-37 -18 -82 -28.5t-71 -10.5q-35 0 -76 13q-37 12 -70 41q-35 33 -53 67q-18 37 -18 100zM268 240q0 -39 13 -64q10 -20 26 -37q10 -10 35 -18q18 -6 31 -6q49 0 112 28q59 27 138 93v245q-74 -12 -125 -24q-53 -12 -84 -25 q-25 -8 -52 -26q-18 -12 -34 -29q-33 -37 -43 -60q-17 -36 -17 -77zM299 1204q0 53 19 96q18 41 51 78q27 29 74 52q41 18 82 18q33 0 63 -12q27 -10 51 -35q23 -23 35 -53.5t12 -63.5q0 -55 -20 -96q-25 -49 -51 -76q-33 -33 -72 -51.5t-82 -18.5q-35 0 -65 13 q-27 10 -52 35q-20 20 -32.5 50.5t-12.5 63.5zM404 1245q0 -43 22 -78q20 -33 58 -32q39 0 67 28q31 31 31 80q0 45 -22.5 80t-57.5 35q-18 0 -38.5 -10.5t-30.5 -22.5q-16 -20 -21 -35q-8 -29 -8 -45z" />
<glyph unicode="&#xe6;" horiz-adv-x="1443" d="M76 190q0 57 22 115q20 51 70 101q47 47 121 83q78 39 172 66q10 2 76 12q29 4 90 8v84q0 31 -9 76q-6 33 -22 60q-14 25 -45 41q-27 14 -72 14q-29 0 -63 -12q-23 -8 -60 -37q-29 -23 -41 -53.5t0 -65.5q2 -4 -10 -14q-14 -10 -31 -17q-4 -2 -12 -5t-15 -5t-16 -4 q-33 -8 -47 -12q-8 -2 -23.5 -4.5t-17.5 -2.5q-18 -2 -26 0l-17 41q8 41 39 84q27 39 66 72q31 27 86 59q51 31 92 48q47 18 92 28q47 10 78 11q82 0 137 -33q53 -31 78 -99q39 43 68 62q45 29 71 41q41 16 72 22q33 6 63 7q92 0 153.5 -37t100.5 -94.5t58 -131.5 q16 -66 16 -143q-18 -18 -53 -41q-29 -18 -66 -33h-448v-26v-29q0 -57 14 -109q16 -61 45 -100q35 -49 74 -74q45 -29 100 -28q18 0 60 4q18 2 63 18q20 8 72 39q33 20 90 68q12 -6 25 -25l16 -24q-57 -66 -110.5 -113t-96.5 -69.5t-92 -32.5q-51 -10 -98 -10.5t-88 14.5 q-47 16 -82 41q-45 31 -74 65q-33 39 -55 90q-39 -47 -95 -92q-49 -39 -100 -65q-57 -29 -96 -39q-53 -14 -82 -15q-35 0 -74 13q-43 12 -72 38q-31 29 -51 68q-20 41 -20 102zM266 240q0 -37 12.5 -61.5t26.5 -39.5q10 -10 35 -18q18 -6 33 -6q47 0 123 32q72 31 143 103 q-12 45 -12 115v112q-10 0 -31 -1t-31 -3q-27 -2 -39 -6q-82 -20 -120 -41q-47 -23 -80 -53q-27 -25 -45 -64q-15 -30 -15 -69zM811 580h336q16 0 29 8q8 6 8 28q0 45 -10 93q-8 41 -33 75q-23 33 -53.5 51.5t-73.5 18.5q-27 0 -53 -8q-31 -10 -60 -41q-31 -35 -53 -84 q-25 -55 -37 -141z" />
<glyph unicode="&#xe7;" horiz-adv-x="907" d="M76 444q0 109 39 201q41 96 108 164q71 71 166 111q98 41 207 41q33 0 70 -7q31 -4 71 -16q34 -9 62 -25q33 -18 47 -32q2 -10 -4 -39q-2 -10 -17 -58q-6 -20 -22 -57q-10 -20 -23 -43l-47 10q-16 37 -28 56q-20 29 -46 49q-25 18 -65 32q-43 14 -84 15q-47 0 -96 -23 q-46 -22 -80 -67q-37 -51 -58 -117q-20 -68 -20 -164q0 -88 23 -149q27 -72 63 -115q41 -47 94 -72q57 -27 111 -26q20 0 53 4q29 4 53 14q37 16 68 36.5t92 72.5l45 -50q-68 -80 -117 -120q-53 -45 -96 -66q-45 -23 -86 -29h-8l-27 -73q20 -4 58 -17q18 -6 47 -26 q18 -12 33 -39q12 -22 12 -49q0 -37 -21 -70q-25 -37 -61 -63q-39 -27 -103 -50q-55 -18 -143 -32l-27 57q57 10 84 20q41 14 58 27q23 16 31 33q10 20 10 33q0 34 -25 49q-18 12 -82 18q4 4 13 27l20 65q4 14 12.5 36t16.5 48q-63 2 -133 33q-74 35 -127.5 94.5 t-87.5 149.5q-33 85 -33 198z" />
<glyph unicode="&#xe8;" horiz-adv-x="960" d="M76 436q0 72 14 131q18 74 41 121q28 55 68 105q37 45 92 84q6 4 53 30q12 8 62 27q31 12 63 18q45 8 63 9q65 0 117 -19q61 -23 92 -45q37 -29 66 -70q25 -37 45 -86q18 -43 27 -92q8 -43 8 -94q-16 -18 -53 -39q-39 -20 -68 -33h-508q0 -80 21 -143q23 -74 57 -119 q37 -49 86 -78q52 -31 117 -30q20 0 61 4q18 2 64 18q20 8 75 39q16 10 99 70q12 -6 24 -25q4 -6 10.5 -14t8.5 -10q-68 -72 -121 -115q-59 -49 -98 -70q-43 -23 -93 -33q-41 -8 -100 -8q-76 0 -149.5 35t-126.5 94q-55 61 -86 147.5t-31 190.5zM262 580h397q23 0 31 8 q6 6 6 28q0 33 -8 68q-10 47 -29 78q-20 35 -59 61.5t-98 26.5q-51 0 -92 -19q-39 -18 -70 -55t-49 -86q-21 -53 -29 -110zM221 1421l22 47q8 2 33 7q6 0 23.5 4t28 6l26.5 5t25 3q33 4 36 4l234 -416q-12 -12 -33 -22q-16 -8 -35 -15z" />
<glyph unicode="&#xe9;" horiz-adv-x="960" d="M76 436q0 72 14 131q18 74 41 121q28 55 68 105q37 45 92 84q6 4 53 30q12 8 62 27q31 12 63 18q45 8 63 9q65 0 117 -19q61 -23 92 -45q37 -29 66 -70q25 -37 45 -86q18 -43 27 -92q8 -43 8 -94q-16 -18 -53 -39q-39 -20 -68 -33h-508q0 -80 21 -143q23 -74 57 -119 q37 -49 86 -78q52 -31 117 -30q20 0 61 4q18 2 64 18q20 8 75 39q16 10 99 70q12 -6 24 -25q4 -6 10.5 -14t8.5 -10q-68 -72 -121 -115q-59 -49 -98 -70q-43 -23 -93 -33q-41 -8 -100 -8q-76 0 -149.5 35t-126.5 94q-55 61 -86 147.5t-31 190.5zM262 580h397q23 0 31 8 q6 6 6 28q0 33 -8 68q-10 47 -29 78q-20 35 -59 61.5t-98 26.5q-51 0 -92 -19q-39 -18 -70 -55t-49 -86q-21 -53 -29 -110zM404 1077l225 420q4 0 37 -4q8 0 24.5 -3t26.5 -5l25.5 -5t23.5 -3l37 -9l25 -43l-359 -381q-12 2 -37 15q-12 6 -28 18z" />
<glyph unicode="&#xea;" horiz-adv-x="960" d="M76 436q0 72 14 131q18 74 41 121q28 55 68 105q37 45 92 84q6 4 53 30q12 8 62 27q31 12 63 18q45 8 63 9q65 0 117 -19q61 -23 92 -45q37 -29 66 -70q25 -37 45 -86q18 -43 27 -92q8 -43 8 -94q-16 -18 -53 -39q-39 -20 -68 -33h-508q0 -80 21 -143q23 -74 57 -119 q37 -49 86 -78q52 -31 117 -30q20 0 61 4q18 2 64 18q20 8 75 39q16 10 99 70q12 -6 24 -25q4 -6 10.5 -14t8.5 -10q-68 -72 -121 -115q-59 -49 -98 -70q-43 -23 -93 -33q-41 -8 -100 -8q-76 0 -149.5 35t-126.5 94q-55 61 -86 147.5t-31 190.5zM262 580h397q23 0 31 8 q6 6 6 28q0 33 -8 68q-10 47 -29 78q-20 35 -59 61.5t-98 26.5q-51 0 -92 -19q-39 -18 -70 -55t-49 -86q-21 -53 -29 -110zM190 1098l271 381h116l265 -381q-16 -25 -23 -33q-8 -12 -27 -21l-274 254l-274 -254q-20 10 -29 21q-2 2 -6 8t-9.5 12.5t-9.5 12.5z" />
<glyph unicode="&#xeb;" horiz-adv-x="960" d="M76 436q0 72 14 131q18 74 41 121q28 55 68 105q37 45 92 84q6 4 53 30q12 8 62 27q31 12 63 18q45 8 63 9q65 0 117 -19q61 -23 92 -45q37 -29 66 -70q25 -37 45 -86q18 -43 27 -92q8 -43 8 -94q-16 -18 -53 -39q-39 -20 -68 -33h-508q0 -80 21 -143q23 -74 57 -119 q37 -49 86 -78q52 -31 117 -30q20 0 61 4q18 2 64 18q20 8 75 39q16 10 99 70q12 -6 24 -25q4 -6 10.5 -14t8.5 -10q-68 -72 -121 -115q-59 -49 -98 -70q-43 -23 -93 -33q-41 -8 -100 -8q-76 0 -149.5 35t-126.5 94q-55 61 -86 147.5t-31 190.5zM262 580h397q23 0 31 8 q6 6 6 28q0 33 -8 68q-10 47 -29 78q-20 35 -59 61.5t-98 26.5q-51 0 -92 -19q-39 -18 -70 -55t-49 -86q-21 -53 -29 -110zM203 1219q0 27 10 57q8 23 28 47q16 18 41 33q18 10 50 10q96 0 96 -102q0 -29 -10 -60q-8 -27 -27 -47q-18 -23 -41 -33q-25 -12 -51 -12 q-51 0 -73.5 29t-22.5 78zM610 1219q0 27 10 57q8 23 29 47q18 20 41 33q20 10 49 10q96 0 96 -102q0 -29 -10 -60q-8 -27 -27 -47q-18 -23 -40 -33q-25 -12 -52 -12q-49 0 -73 29q-23 25 -23 78z" />
<glyph unicode="&#xec;" horiz-adv-x="573" d="M68 0v53q70 16 102 31q35 16 35 31v549q0 18 -1 45.5t-1 35.5q0 31 -13 50q-10 14 -40 24q-23 8 -82 15v49q78 14 143 32q78 23 131 46h43v-846q0 -12 33 -31q27 -14 104 -31v-53h-454zM-2 1421l22 47q8 2 33 7q6 0 23.5 4t28 6l26.5 5t25 3q33 4 36 4l234 -416 q-12 -12 -33 -22q-16 -8 -35 -15z" />
<glyph unicode="&#xed;" horiz-adv-x="573" d="M68 0v53q70 16 102 31q35 16 35 31v549q0 18 -1 45.5t-1 35.5q0 31 -13 50q-10 14 -40 24q-23 8 -82 15v49q78 14 143 32q78 23 131 46h43v-846q0 -12 33 -31q27 -14 104 -31v-53h-454zM181 1077l225 420q4 0 37 -4q8 0 24.5 -3t26.5 -5l25.5 -5t23.5 -3l37 -9l25 -43 l-359 -381q-12 2 -37 15q-12 6 -28 18z" />
<glyph unicode="&#xee;" horiz-adv-x="573" d="M68 0v53q70 16 102 31q35 16 35 31v549q0 18 -1 45.5t-1 35.5q0 31 -13 50q-10 14 -40 24q-23 8 -82 15v49q78 14 143 32q78 23 131 46h43v-846q0 -12 33 -31q27 -14 104 -31v-53h-454zM-33 1098l271 381h116l265 -381q-16 -25 -23 -33q-8 -12 -27 -21l-274 254 l-274 -254q-20 10 -29 21q-2 2 -6 8t-9.5 12.5t-9.5 12.5z" />
<glyph unicode="&#xef;" horiz-adv-x="573" d="M68 0v53q70 16 102 31q35 16 35 31v549q0 18 -1 45.5t-1 35.5q0 31 -13 50q-10 14 -40 24q-23 8 -82 15v49q78 14 143 32q78 23 131 46h43v-846q0 -12 33 -31q27 -14 104 -31v-53h-454zM-20 1219q0 27 10 57q8 23 28 47q16 18 41 33q18 10 50 10q96 0 96 -102 q0 -29 -10 -60q-8 -27 -27 -47q-18 -23 -41 -33q-25 -12 -51 -12q-51 0 -73.5 29t-22.5 78zM387 1219q0 27 10 57q8 23 29 47q18 20 41 33q20 10 49 10q96 0 96 -102q0 -29 -10 -60q-8 -27 -27 -47q-18 -23 -40 -33q-25 -12 -52 -12q-49 0 -73 29q-23 25 -23 78z" />
<glyph unicode="&#xf0;" horiz-adv-x="1028" d="M76 444q0 70 14 129q12 55 45 123q20 45 70 105q39 47 88 84q45 33 102 55q53 20 111 21q27 0 61 -11q31 -9 62 -24q29 -14 57 -37q27 -20 51 -45q-20 80 -69 168q-41 72 -113 147l-221 -94q-6 0 -16.5 1t-14.5 1q-12 2 -22 4q-4 0 -21 4q-6 2 -13 4t-16 4l-10 39 l258 111q-31 23 -59 41q-33 18 -64 31q-37 14 -71 16q-51 4 -80 0l-8 49l223 80q74 -49 108 -76q47 -35 95 -80l200 86q6 0 18.5 -1t18.5 -3q8 -2 14.5 -4t10.5 -2q4 -2 10 -2t10 -2q10 -2 23 -6l8 -37l-240 -102q135 -147 194.5 -307t59.5 -316q0 -113 -22 -209 q-20 -90 -58 -160q-35 -66 -84 -118q-45 -47 -96 -80q-53 -33 -98 -47.5t-88 -14.5q-100 0 -180 37q-84 39 -135.5 98.5t-84.5 151.5q-28 79 -28 188zM260 477q0 -84 23 -149q25 -68 61.5 -125.5t81.5 -85.5q45 -31 88 -31q57 0 102 27q47 29 80 84q35 61 54 147 q20 98 20 211v20v21q-18 55 -51 100t-72 78q-37 31 -84 51q-43 18 -84 19q-49 0 -94 -29t-70 -74q-25 -43 -41 -116q-14 -64 -14 -148z" />
<glyph unicode="&#xf1;" horiz-adv-x="1148" d="M53 0v53q57 16 101 31q37 12 36 31v590q0 47 -2 61q-4 25 -16 37t-41 18q-31 6 -78 13v49q72 12 140 30q55 16 124 48l37 -37l13 -215q49 61 102 108q51 45 106 78q66 39 101 49q53 16 88 17q37 0 84 -15q37 -12 70 -41q31 -27 49 -71q18 -43 18 -105v-614q0 -8 6 -15 q8 -8 25 -14q10 -4 41 -14l65 -19v-53h-454v53q76 20 104 33q33 14 33 29v503q0 59 -6 97q-6 41 -21 59q-15 22 -37 31q-18 8 -57 8q-29 0 -63 -12q-37 -14 -74 -39q-29 -18 -84 -72q-27 -25 -92 -110v-465q0 -16 34.5 -30.5t102.5 -31.5v-53h-455zM229 1126l43 86 q20 37 56 78q31 37 69.5 59.5t77.5 22.5q41 0 78 -18q45 -23 68 -37l63 -39q25 -16 55 -16q43 0 76 30q37 33 70 90l61 -26q-20 -45 -42.5 -84t-57.5 -78q-33 -35 -70 -57q-43 -25 -78 -25q-39 0 -71 18q-31 16 -66 39q-12 8 -34.5 20.5t-30.5 16.5q-31 18 -64 19 q-37 0 -74 -33q-31 -29 -69 -86z" />
<glyph unicode="&#xf2;" horiz-adv-x="1044" d="M76 444q0 59 16 129q16 68 45 123q27 51 74 104.5t94 84.5q53 35 112.5 55.5t125.5 20.5q96 0 176 -37q84 -39 135 -99q55 -63 86 -151q31 -86 31 -189q0 -96 -39 -192q-39 -100 -101 -166q-68 -74 -149 -115q-86 -43 -178 -43q-96 0 -176 37q-84 39 -135 98 q-55 63 -87 152q-30 86 -30 188zM262 473q0 -80 25 -149q25 -74 63 -123q43 -55 88 -84q49 -31 94 -31q70 0 115 25q47 25 78 71q25 37 43 117q14 63 14 152q0 76 -22 149q-20 70 -60 127q-37 55 -86 86q-53 33 -100 33q-70 0 -121 -29q-45 -25 -76 -80q-29 -51 -41 -116 q-14 -80 -14 -148zM246 1421l22 47q8 2 33 7q6 0 23.5 4t28 6l26.5 5t25 3q33 4 36 4l234 -416q-12 -12 -33 -22q-16 -8 -35 -15z" />
<glyph unicode="&#xf3;" horiz-adv-x="1044" d="M76 444q0 59 16 129q16 68 45 123q27 51 74 104.5t94 84.5q53 35 112.5 55.5t125.5 20.5q96 0 176 -37q84 -39 135 -99q55 -63 86 -151q31 -86 31 -189q0 -96 -39 -192q-39 -100 -101 -166q-68 -74 -149 -115q-86 -43 -178 -43q-96 0 -176 37q-84 39 -135 98 q-55 63 -87 152q-30 86 -30 188zM262 473q0 -80 25 -149q25 -74 63 -123q43 -55 88 -84q49 -31 94 -31q70 0 115 25q47 25 78 71q25 37 43 117q14 63 14 152q0 76 -22 149q-20 70 -60 127q-37 55 -86 86q-53 33 -100 33q-70 0 -121 -29q-45 -25 -76 -80q-29 -51 -41 -116 q-14 -80 -14 -148zM428 1077l225 420q4 0 37 -4q8 0 24.5 -3t26.5 -5l25.5 -5t23.5 -3l37 -9l25 -43l-359 -381q-12 2 -37 15q-12 6 -28 18z" />
<glyph unicode="&#xf4;" horiz-adv-x="1044" d="M76 444q0 59 16 129q16 68 45 123q27 51 74 104.5t94 84.5q53 35 112.5 55.5t125.5 20.5q96 0 176 -37q84 -39 135 -99q55 -63 86 -151q31 -86 31 -189q0 -96 -39 -192q-39 -100 -101 -166q-68 -74 -149 -115q-86 -43 -178 -43q-96 0 -176 37q-84 39 -135 98 q-55 63 -87 152q-30 86 -30 188zM262 473q0 -80 25 -149q25 -74 63 -123q43 -55 88 -84q49 -31 94 -31q70 0 115 25q47 25 78 71q25 37 43 117q14 63 14 152q0 76 -22 149q-20 70 -60 127q-37 55 -86 86q-53 33 -100 33q-70 0 -121 -29q-45 -25 -76 -80q-29 -51 -41 -116 q-14 -80 -14 -148zM215 1098l271 381h116l265 -381q-16 -25 -23 -33q-8 -12 -27 -21l-274 254l-274 -254q-20 10 -29 21q-2 2 -6 8t-9.5 12.5t-9.5 12.5z" />
<glyph unicode="&#xf5;" horiz-adv-x="1044" d="M76 444q0 59 16 129q16 68 45 123q27 51 74 104.5t94 84.5q53 35 112.5 55.5t125.5 20.5q96 0 176 -37q84 -39 135 -99q55 -63 86 -151q31 -86 31 -189q0 -96 -39 -192q-39 -100 -101 -166q-68 -74 -149 -115q-86 -43 -178 -43q-96 0 -176 37q-84 39 -135 98 q-55 63 -87 152q-30 86 -30 188zM262 473q0 -80 25 -149q25 -74 63 -123q43 -55 88 -84q49 -31 94 -31q70 0 115 25q47 25 78 71q25 37 43 117q14 63 14 152q0 76 -22 149q-20 70 -60 127q-37 55 -86 86q-53 33 -100 33q-70 0 -121 -29q-45 -25 -76 -80q-29 -51 -41 -116 q-14 -80 -14 -148zM186 1126l43 86q20 37 56 78q31 37 69.5 59.5t77.5 22.5q41 0 78 -18q45 -23 68 -37l63 -39q25 -16 55 -16q43 0 76 30q37 33 70 90l61 -26q-20 -45 -42.5 -84t-57.5 -78q-33 -35 -70 -57q-43 -25 -78 -25q-39 0 -71 18q-31 16 -66 39q-12 8 -34.5 20.5 t-30.5 16.5q-31 18 -64 19q-37 0 -74 -33q-31 -29 -69 -86z" />
<glyph unicode="&#xf6;" horiz-adv-x="1044" d="M76 444q0 59 16 129q16 68 45 123q27 51 74 104.5t94 84.5q53 35 112.5 55.5t125.5 20.5q96 0 176 -37q84 -39 135 -99q55 -63 86 -151q31 -86 31 -189q0 -96 -39 -192q-39 -100 -101 -166q-68 -74 -149 -115q-86 -43 -178 -43q-96 0 -176 37q-84 39 -135 98 q-55 63 -87 152q-30 86 -30 188zM262 473q0 -80 25 -149q25 -74 63 -123q43 -55 88 -84q49 -31 94 -31q70 0 115 25q47 25 78 71q25 37 43 117q14 63 14 152q0 76 -22 149q-20 70 -60 127q-37 55 -86 86q-53 33 -100 33q-70 0 -121 -29q-45 -25 -76 -80q-29 -51 -41 -116 q-14 -80 -14 -148zM228 1219q0 27 10 57q8 23 28 47q16 18 41 33q18 10 50 10q96 0 96 -102q0 -29 -10 -60q-8 -27 -27 -47q-18 -23 -41 -33q-25 -12 -51 -12q-51 0 -73.5 29t-22.5 78zM635 1219q0 27 10 57q8 23 29 47q18 20 41 33q20 10 49 10q96 0 96 -102q0 -29 -10 -60 q-8 -27 -27 -47q-18 -23 -40 -33q-25 -12 -52 -12q-49 0 -73 29q-23 25 -23 78z" />
<glyph unicode="&#xf7;" horiz-adv-x="847" d="M57 528q8 29 17 47l20 48h668l26 -27q-2 -6 -6 -23q-4 -12 -10 -26q-2 -6 -5 -12.5t-5 -12.5q-4 -8 -8 -20h-668zM338 299q0 33 6 47q10 23 23 39q10 14 32 25q16 8 39 8q74 0 74 -82q0 -29 -8 -47q-12 -29 -21 -39q-10 -14 -32 -25q-20 -10 -39 -10q-39 0 -58 23 q-16 18 -16 61zM338 793q0 33 6 47q8 18 23 37q14 16 32 26q16 8 39 8q74 0 74 -84q0 -27 -8 -45q-12 -29 -21 -39q-14 -16 -32 -26q-16 -8 -39 -8q-39 0 -58 20q-16 19 -16 64z" />
<glyph unicode="&#xf8;" horiz-adv-x="1044" d="M76 444q0 59 16 129q16 68 45 123q27 51 74 104.5t94 84.5q53 35 112.5 55.5t125.5 20.5q68 0 129 -19q55 -16 108 -53l19 24q20 16 30 21q6 4 17.5 10t17.5 10t17.5 8.5t17.5 8.5q18 10 33 12l31 -33l-103 -135q57 -72 82 -147q29 -90 29 -183q0 -96 -39 -192 q-39 -100 -101 -166q-68 -74 -149 -115q-86 -43 -178 -43q-68 0 -129 19q-55 16 -109 53l-16 -25q-6 -6 -27 -16l-37 -20l-39 -21q-16 -8 -32 -12l-29 33l100 133q-53 66 -82 147q-28 80 -28 184zM260 473q0 -45 14 -106q10 -47 35 -95l369 484q-35 41 -78 65.5t-86 24.5 q-70 0 -121 -29q-43 -25 -78 -80q-29 -45 -41 -116q-14 -80 -14 -148zM371 174q41 -45 78 -65q39 -23 83 -23q66 0 115 25q45 23 78 71q29 43 45 117q14 63 14 152q0 53 -12 106q-10 47 -35 98z" />
<glyph unicode="&#xf9;" horiz-adv-x="1107" d="M39 848v49q33 2 76 10l67 13q12 2 35 9t29 9l69 23l29 -41v-582q0 -66 10 -113q10 -43 29 -69q23 -31 43 -37q31 -10 59 -10q33 0 60 8q41 12 63 24q37 20 72 49q49 41 80 72v443q0 35 -4 71q-2 25 -18.5 41.5t-41.5 22.5q-20 4 -73 8v49q88 10 151 27q78 20 133 37 l33 -41v-656q0 -51 4 -96q3 -34 19 -43q10 -8 38 -4q18 2 78 26l15 -55q-49 -33 -74 -47q-14 -8 -42 -22.5t-30 -16.5q-31 -16 -57.5 -26.5t-36.5 -10.5q-18 0 -35 11q-12 8 -26 32q-10 18 -21 58q-10 37 -12 86q-57 -57 -113 -97q-49 -35 -94 -57q-35 -18 -78 -25 q-49 -8 -67 -8q-39 0 -91 15q-43 12 -77 47q-31 31 -54 94q-20 59 -20 154v426q0 37 -4 73q-4 31 -15 41q-12 12 -36 19q-6 2 -72 10zM258 1421l22 47q8 2 33 7q6 0 23.5 4t28 6l26.5 5t25 3q33 4 36 4l234 -416q-12 -12 -33 -22q-16 -8 -35 -15z" />
<glyph unicode="&#xfa;" horiz-adv-x="1107" d="M39 848v49q33 2 76 10l67 13q12 2 35 9t29 9l69 23l29 -41v-582q0 -66 10 -113q10 -43 29 -69q23 -31 43 -37q31 -10 59 -10q33 0 60 8q41 12 63 24q37 20 72 49q49 41 80 72v443q0 35 -4 71q-2 25 -18.5 41.5t-41.5 22.5q-20 4 -73 8v49q88 10 151 27q78 20 133 37 l33 -41v-656q0 -51 4 -96q3 -34 19 -43q10 -8 38 -4q18 2 78 26l15 -55q-49 -33 -74 -47q-14 -8 -42 -22.5t-30 -16.5q-31 -16 -57.5 -26.5t-36.5 -10.5q-18 0 -35 11q-12 8 -26 32q-10 18 -21 58q-10 37 -12 86q-57 -57 -113 -97q-49 -35 -94 -57q-35 -18 -78 -25 q-49 -8 -67 -8q-39 0 -91 15q-43 12 -77 47q-31 31 -54 94q-20 59 -20 154v426q0 37 -4 73q-4 31 -15 41q-12 12 -36 19q-6 2 -72 10zM441 1077l225 420q4 0 37 -4q8 0 24.5 -3t26.5 -5l25.5 -5t23.5 -3l37 -9l25 -43l-359 -381q-12 2 -37 15q-12 6 -28 18z" />
<glyph unicode="&#xfb;" horiz-adv-x="1107" d="M39 848v49q33 2 76 10l67 13q12 2 35 9t29 9l69 23l29 -41v-582q0 -66 10 -113q10 -43 29 -69q23 -31 43 -37q31 -10 59 -10q33 0 60 8q41 12 63 24q37 20 72 49q49 41 80 72v443q0 35 -4 71q-2 25 -18.5 41.5t-41.5 22.5q-20 4 -73 8v49q88 10 151 27q78 20 133 37 l33 -41v-656q0 -51 4 -96q3 -34 19 -43q10 -8 38 -4q18 2 78 26l15 -55q-49 -33 -74 -47q-14 -8 -42 -22.5t-30 -16.5q-31 -16 -57.5 -26.5t-36.5 -10.5q-18 0 -35 11q-12 8 -26 32q-10 18 -21 58q-10 37 -12 86q-57 -57 -113 -97q-49 -35 -94 -57q-35 -18 -78 -25 q-49 -8 -67 -8q-39 0 -91 15q-43 12 -77 47q-31 31 -54 94q-20 59 -20 154v426q0 37 -4 73q-4 31 -15 41q-12 12 -36 19q-6 2 -72 10zM227 1098l271 381h116l265 -381q-16 -25 -23 -33q-8 -12 -27 -21l-274 254l-274 -254q-20 10 -29 21q-2 2 -6 8t-9.5 12.5t-9.5 12.5z" />
<glyph unicode="&#xfc;" horiz-adv-x="1107" d="M39 848v49q33 2 76 10l67 13q12 2 35 9t29 9l69 23l29 -41v-582q0 -66 10 -113q10 -43 29 -69q23 -31 43 -37q31 -10 59 -10q33 0 60 8q41 12 63 24q37 20 72 49q49 41 80 72v443q0 35 -4 71q-2 25 -18.5 41.5t-41.5 22.5q-20 4 -73 8v49q88 10 151 27q78 20 133 37 l33 -41v-656q0 -51 4 -96q3 -34 19 -43q10 -8 38 -4q18 2 78 26l15 -55q-49 -33 -74 -47q-14 -8 -42 -22.5t-30 -16.5q-31 -16 -57.5 -26.5t-36.5 -10.5q-18 0 -35 11q-12 8 -26 32q-10 18 -21 58q-10 37 -12 86q-57 -57 -113 -97q-49 -35 -94 -57q-35 -18 -78 -25 q-49 -8 -67 -8q-39 0 -91 15q-43 12 -77 47q-31 31 -54 94q-20 59 -20 154v426q0 37 -4 73q-4 31 -15 41q-12 12 -36 19q-6 2 -72 10zM240 1219q0 27 10 57q8 23 28 47q16 18 41 33q18 10 50 10q96 0 96 -102q0 -29 -10 -60q-8 -27 -27 -47q-18 -23 -41 -33q-25 -12 -51 -12 q-51 0 -73.5 29t-22.5 78zM647 1219q0 27 10 57q8 23 29 47q18 20 41 33q20 10 49 10q96 0 96 -102q0 -29 -10 -60q-8 -27 -27 -47q-18 -23 -40 -33q-25 -12 -52 -12q-49 0 -73 29q-23 25 -23 78z" />
<glyph unicode="&#xfd;" horiz-adv-x="1019" d="M-51 -440q0 12 12 28q6 8 17.5 21.5t17.5 21.5q18 25 41 47q18 18 39 31q53 -31 96 -33q11 -1 22 0q38 0 64 11q16 6 41 26q14 12 45 47q16 18 45 68q25 43 41 80l29 69l-330 832q-8 27 -35 43q-14 10 -76 25v53h408v-53q-59 -8 -64 -11q-20 -6 -34 -12 q-12 -6 -12.5 -18.5t6.5 -26.5l231 -592l219 592q4 10 4 25q0 12 -12 18q-20 10 -35 14q-2 0 -59 11v53h331v-53q-31 -6 -49 -13q-6 -2 -30 -14q-12 -6 -19 -16q-2 -2 -10 -25l-336 -889q-45 -117 -92 -188q-51 -80 -107 -131q-49 -45 -114 -74q-59 -25 -113 -25 q-37 0 -70 6q-51 10 -59 13q-12 4 -39 20q-14 9 -14 19zM420 1077l225 420q4 0 37 -4q8 0 24.5 -3t26.5 -5l25.5 -5t23.5 -3l37 -9l25 -43l-359 -381q-12 2 -37 15q-12 6 -28 18z" />
<glyph unicode="&#xfe;" horiz-adv-x="1103" d="M53 -426q74 18 101 29q37 16 36 32v1651q0 45 -6 69.5t-20 37.5q-20 16 -41 18q-55 6 -70 8v51q16 2 44 7.5t36 7.5q25 4 70 16q23 6 63 23q57 23 66 26l39 -37v-759q49 53 100 96q41 33 94 63q35 20 80 35q37 12 66 13q68 0 125 -31q57 -29 102 -92q43 -57 68 -146 q25 -86 24 -194q0 -59 -16 -125q-14 -55 -45 -121q-25 -53 -68 -109q-39 -51 -84 -90t-100 -61.5t-107 -22.5q-31 0 -100 25q-57 20 -139 82v-441q0 -16 37 -32q29 -12 133 -29v-53h-488v53zM371 217q78 -55 151 -86q66 -27 129 -27q47 0 90 27q40 25 68 68q25 37 41 98 q14 51 14 119q0 98 -18.5 172t-52.5 127q-31 47 -78 78q-41 27 -88 26q-23 0 -45 -8q-31 -10 -58 -29q-31 -20 -71 -57q-37 -33 -82 -92v-416z" />
<glyph unicode="&#xff;" horiz-adv-x="1019" d="M-51 -440q0 12 12 28q6 8 17.5 21.5t17.5 21.5q18 25 41 47q18 18 39 31q53 -31 96 -33q11 -1 22 0q38 0 64 11q16 6 41 26q14 12 45 47q16 18 45 68q25 43 41 80l29 69l-330 832q-8 27 -35 43q-14 10 -76 25v53h408v-53q-59 -8 -64 -11q-20 -6 -34 -12 q-12 -6 -12.5 -18.5t6.5 -26.5l231 -592l219 592q4 10 4 25q0 12 -12 18q-20 10 -35 14q-2 0 -59 11v53h331v-53q-31 -6 -49 -13q-6 -2 -30 -14q-12 -6 -19 -16q-2 -2 -10 -25l-336 -889q-45 -117 -92 -188q-51 -80 -107 -131q-49 -45 -114 -74q-59 -25 -113 -25 q-37 0 -70 6q-51 10 -59 13q-12 4 -39 20q-14 9 -14 19zM220 1219q0 27 10 57q8 23 28 47q16 18 41 33q18 10 50 10q96 0 96 -102q0 -29 -10 -60q-8 -27 -27 -47q-18 -23 -41 -33q-25 -12 -51 -12q-51 0 -73.5 29t-22.5 78zM627 1219q0 27 10 57q8 23 29 47q18 20 41 33 q20 10 49 10q96 0 96 -102q0 -29 -10 -60q-8 -27 -27 -47q-18 -23 -40 -33q-25 -12 -52 -12q-49 0 -73 29q-23 25 -23 78z" />
<glyph unicode="&#x100;" horiz-adv-x="1241" d="M0 0v53q66 12 106 25q40 12 50 43l364 1106q33 33 74 53l78 37l420 -1196q4 -12 14 -25q6 -8 22 -18q10 -6 39 -15q27 -8 54 -10v-53h-447v53q82 6 107 21q29 16 18 47l-111 319h-403l-106 -319q-8 -31 26 -45q31 -12 119 -23v-53h-424zM418 541h336l-172 497zM252 1480 q4 16 9 27l12 33l7 14t7 16l7 14.5l5 10.5h664l25 -27q-4 -16 -9 -26l-12 -33l-8 -16.5t-6 -14.5t-5 -13t-6 -11h-663z" />
<glyph unicode="&#x101;" horiz-adv-x="966" d="M76 190q0 74 24.5 123t63.5 88q20 20 55 45q27 18 82 43q43 18 127 39q49 12 195 35v133q0 34 -6.5 61.5t-24.5 49.5q-16 20 -49 33q-27 10 -74 10q-29 0 -59 -10q-29 -10 -50 -27q-25 -23 -34 -41q-12 -23 -9 -55q0 -4 -12 -15l-31 -16q-14 -6 -43 -14q-33 -8 -47 -13 q-8 -2 -23.5 -4t-17.5 -2q-23 -4 -26 -2l-17 45q20 49 72 101q45 45 113 84q61 35 135 57.5t141 22.5q119 0 180.5 -61.5t61.5 -164.5v-536q0 -47 10 -62q10 -16 30.5 -16t35.5 4q29 8 59 22l18 -55q-94 -63 -151 -90q-72 -33 -98 -33q-37 0 -58 45q-25 51 -26 125 q-53 -53 -91 -78q-61 -41 -86 -53q-37 -18 -82 -28.5t-71 -10.5q-35 0 -76 13q-37 12 -70 41q-35 33 -53 67q-18 37 -18 100zM268 240q0 -39 13 -64q10 -20 26 -37q10 -10 35 -18q18 -6 31 -6q49 0 112 28q59 27 138 93v245q-74 -12 -125 -24q-53 -12 -84 -25 q-25 -8 -52 -26q-18 -12 -34 -29q-33 -37 -43 -60q-17 -36 -17 -77zM135 1202q4 16 9 27q2 8 6 15t6 16q2 6 7 16l7 14l7 14.5t5 12.5h664l25 -27q-4 -16 -9 -26l-12 -33q-2 -8 -4 -12.5t-5 -9.5t-5 -11q-6 -14 -11 -22h-663z" />
<glyph unicode="&#x102;" horiz-adv-x="1241" d="M0 0v53q66 12 106 25q40 12 50 43l364 1106q33 33 74 53l78 37l420 -1196q4 -12 14 -25q6 -8 22 -18q10 -6 39 -15q27 -8 54 -10v-53h-447v53q82 6 107 21q29 16 18 47l-111 319h-403l-106 -319q-8 -31 26 -45q31 -12 119 -23v-53h-424zM418 541h336l-172 497zM274 1683 q14 20 27 31q14 10 32 20q25 -51 60 -90q41 -45 69 -61q43 -25 74 -33q41 -10 72 -10q27 0 72 10q33 8 75 33q29 16 70 61q31 33 57 90q37 -16 62 -51q-33 -84 -68 -137q-39 -59 -82 -92q-47 -37 -90 -52q-49 -16 -92 -16q-47 0 -100 16q-41 12 -90 52q-39 31 -80 92 q-35 53 -68 137z" />
<glyph unicode="&#x103;" horiz-adv-x="966" d="M76 190q0 74 24.5 123t63.5 88q20 20 55 45q27 18 82 43q43 18 127 39q49 12 195 35v133q0 34 -6.5 61.5t-24.5 49.5q-16 20 -49 33q-27 10 -74 10q-29 0 -59 -10q-29 -10 -50 -27q-25 -23 -34 -41q-12 -23 -9 -55q0 -4 -12 -15l-31 -16q-14 -6 -43 -14q-33 -8 -47 -13 q-8 -2 -23.5 -4t-17.5 -2q-23 -4 -26 -2l-17 45q20 49 72 101q45 45 113 84q61 35 135 57.5t141 22.5q119 0 180.5 -61.5t61.5 -164.5v-536q0 -47 10 -62q10 -16 30.5 -16t35.5 4q29 8 59 22l18 -55q-94 -63 -151 -90q-72 -33 -98 -33q-37 0 -58 45q-25 51 -26 125 q-53 -53 -91 -78q-61 -41 -86 -53q-37 -18 -82 -28.5t-71 -10.5q-35 0 -76 13q-37 12 -70 41q-35 33 -53 67q-18 37 -18 100zM268 240q0 -39 13 -64q10 -20 26 -37q10 -10 35 -18q18 -6 31 -6q49 0 112 28q59 27 138 93v245q-74 -12 -125 -24q-53 -12 -84 -25 q-25 -8 -52 -26q-18 -12 -34 -29q-33 -37 -43 -60q-17 -36 -17 -77zM158 1364q14 20 27 31q14 10 32 20q25 -51 60 -90q41 -45 69 -61q43 -25 74 -33q41 -10 72 -10q27 0 72 10q33 8 75 33q29 16 70 61q31 33 57 90q37 -16 62 -51q-33 -84 -68 -137q-39 -59 -82 -92 q-47 -37 -90 -52q-49 -16 -92 -16q-47 0 -100 16q-41 12 -90 52q-39 31 -80 92q-35 53 -68 137z" />
<glyph unicode="&#x106;" horiz-adv-x="1112" d="M66 586q0 168 47 291q49 127 133 221q82 90 196.5 141t239.5 51q59 0 102 -8q39 -8 93 -22q43 -12 79 -31q39 -20 62 -39q4 -4 -4 -25q-4 -8 -27 -45q-2 -4 -35 -47q-18 -25 -30 -37l-45 11q-49 57 -119 92t-156 35q-34 0 -74 -13q-39 -12 -77 -39q-35 -25 -74 -69 q-37 -43 -64 -103q-28 -61 -43 -141q-16 -86 -16 -186q0 -129 37 -227.5t94 -162.5q59 -66 129 -96q76 -33 141 -33q31 0 64 9q43 10 80 26q43 18 92 49q45 29 102 76q4 -2 13 -10q4 -4 12 -16q6 -8 10 -17q2 -2 5 -6l3 -4q-61 -63 -123 -113q-66 -51 -116 -75 q-63 -31 -113 -41q-55 -12 -109 -13q-94 0 -186 43q-96 45 -164 121q-76 86 -116 193q-43 113 -43 260zM438 1417l379 323q4 -4 16.5 -9t18.5 -9l41 -25l36 -24q18 -12 25 -19l10 -47l-475 -244q-12 6 -26 21q-4 4 -12.5 15.5t-12.5 17.5z" />
<glyph unicode="&#x107;" horiz-adv-x="907" d="M76 444q0 109 39 201q41 96 108 164q71 71 166 111q98 41 207 41q33 0 70 -7q31 -4 71 -16q34 -9 62 -25q33 -18 47 -32q2 -10 -4 -39q-2 -10 -17 -58q-6 -20 -22 -57q-10 -20 -23 -43l-47 10q-16 37 -28 56q-20 29 -46 49q-25 18 -65 32q-43 14 -84 15q-47 0 -96 -23 q-46 -22 -80 -67q-37 -51 -58 -117q-20 -68 -20 -164q0 -88 23 -149q27 -72 63 -115q41 -47 94 -72q57 -27 111 -26q20 0 53 4q29 4 53 14q37 16 68 36.5t92 72.5l45 -50q-68 -80 -117 -120q-53 -45 -96 -66q-45 -23 -86 -29q-43 -6 -90 -6q-78 0 -145 33 q-74 35 -127.5 94.5t-87.5 149.5q-33 85 -33 198zM381 1077l225 420q4 0 37 -4q8 0 24.5 -3t26.5 -5l25.5 -5t23.5 -3l37 -9l25 -43l-359 -381q-12 2 -37 15q-12 6 -28 18z" />
<glyph unicode="&#x108;" horiz-adv-x="1112" d="M66 586q0 168 47 291q49 127 133 221q82 90 196.5 141t239.5 51q59 0 102 -8q39 -8 93 -22q43 -12 79 -31q39 -20 62 -39q4 -4 -4 -25q-4 -8 -27 -45q-2 -4 -35 -47q-18 -25 -30 -37l-45 11q-49 57 -119 92t-156 35q-34 0 -74 -13q-39 -12 -77 -39q-35 -25 -74 -69 q-37 -43 -64 -103q-28 -61 -43 -141q-16 -86 -16 -186q0 -129 37 -227.5t94 -162.5q59 -66 129 -96q76 -33 141 -33q31 0 64 9q43 10 80 26q43 18 92 49q45 29 102 76q4 -2 13 -10q4 -4 12 -16q6 -8 10 -17q2 -2 5 -6l3 -4q-61 -63 -123 -113q-66 -51 -116 -75 q-63 -31 -113 -41q-55 -12 -109 -13q-94 0 -186 43q-96 45 -164 121q-76 86 -116 193q-43 113 -43 260zM297 1415l271 313h110l269 -313q-4 -6 -23 -31q-8 -12 -27 -21l-274 193l-274 -193q-18 8 -27 21z" />
<glyph unicode="&#x109;" horiz-adv-x="907" d="M76 444q0 109 39 201q41 96 108 164q71 71 166 111q98 41 207 41q33 0 70 -7q31 -4 71 -16q34 -9 62 -25q33 -18 47 -32q2 -10 -4 -39q-2 -10 -17 -58q-6 -20 -22 -57q-10 -20 -23 -43l-47 10q-16 37 -28 56q-20 29 -46 49q-25 18 -65 32q-43 14 -84 15q-47 0 -96 -23 q-46 -22 -80 -67q-37 -51 -58 -117q-20 -68 -20 -164q0 -88 23 -149q27 -72 63 -115q41 -47 94 -72q57 -27 111 -26q20 0 53 4q29 4 53 14q37 16 68 36.5t92 72.5l45 -50q-68 -80 -117 -120q-53 -45 -96 -66q-45 -23 -86 -29q-43 -6 -90 -6q-78 0 -145 33 q-74 35 -127.5 94.5t-87.5 149.5q-33 85 -33 198zM170 1098l271 381h116l265 -381q-16 -25 -23 -33q-8 -12 -27 -21l-274 254l-274 -254q-20 10 -29 21q-2 2 -6 8t-9.5 12.5t-9.5 12.5z" />
<glyph unicode="&#x10a;" horiz-adv-x="1112" d="M66 586q0 168 47 291q49 127 133 221q82 90 196.5 141t239.5 51q59 0 102 -8q39 -8 93 -22q43 -12 79 -31q39 -20 62 -39q4 -4 -4 -25q-4 -8 -27 -45q-2 -4 -35 -47q-18 -25 -30 -37l-45 11q-49 57 -119 92t-156 35q-34 0 -74 -13q-39 -12 -77 -39q-35 -25 -74 -69 q-37 -43 -64 -103q-28 -61 -43 -141q-16 -86 -16 -186q0 -129 37 -227.5t94 -162.5q59 -66 129 -96q76 -33 141 -33q31 0 64 9q43 10 80 26q43 18 92 49q45 29 102 76q4 -2 13 -10q4 -4 12 -16q6 -8 10 -17q2 -2 5 -6l3 -4q-61 -63 -123 -113q-66 -51 -116 -75 q-63 -31 -113 -41q-55 -12 -109 -13q-94 0 -186 43q-96 45 -164 121q-76 86 -116 193q-43 113 -43 260zM508 1497q0 29 11 59q8 23 28 47q16 18 41 30.5t49 12.5q96 0 97 -104q0 -27 -11 -58q-8 -27 -26.5 -47t-40.5 -33q-25 -12 -51 -12q-47 0 -72 27t-25 78z" />
<glyph unicode="&#x10b;" horiz-adv-x="907" d="M76 444q0 109 39 201q41 96 108 164q71 71 166 111q98 41 207 41q33 0 70 -7q31 -4 71 -16q34 -9 62 -25q33 -18 47 -32q2 -10 -4 -39q-2 -10 -17 -58q-6 -20 -22 -57q-10 -20 -23 -43l-47 10q-16 37 -28 56q-20 29 -46 49q-25 18 -65 32q-43 14 -84 15q-47 0 -96 -23 q-46 -22 -80 -67q-37 -51 -58 -117q-20 -68 -20 -164q0 -88 23 -149q27 -72 63 -115q41 -47 94 -72q57 -27 111 -26q20 0 53 4q29 4 53 14q37 16 68 36.5t92 72.5l45 -50q-68 -80 -117 -120q-53 -45 -96 -66q-45 -23 -86 -29q-43 -6 -90 -6q-78 0 -145 33 q-74 35 -127.5 94.5t-87.5 149.5q-33 85 -33 198zM383 1219q0 27 11 57q8 23 28 47q18 20 41 33q20 10 49 10q96 0 97 -102q0 -29 -11 -60q-8 -27 -26 -47q-18 -23 -41 -33q-25 -12 -51 -12q-47 0 -72 29q-25 27 -25 78z" />
<glyph unicode="&#x10c;" horiz-adv-x="1112" d="M66 586q0 168 47 291q49 127 133 221q82 90 196.5 141t239.5 51q59 0 102 -8q39 -8 93 -22q43 -12 79 -31q39 -20 62 -39q4 -4 -4 -25q-4 -8 -27 -45q-2 -4 -35 -47q-18 -25 -30 -37l-45 11q-49 57 -119 92t-156 35q-34 0 -74 -13q-39 -12 -77 -39q-35 -25 -74 -69 q-37 -43 -64 -103q-28 -61 -43 -141q-16 -86 -16 -186q0 -129 37 -227.5t94 -162.5q59 -66 129 -96q76 -33 141 -33q31 0 64 9q43 10 80 26q43 18 92 49q45 29 102 76q4 -2 13 -10q4 -4 12 -16q6 -8 10 -17q2 -2 5 -6l3 -4q-61 -63 -123 -113q-66 -51 -116 -75 q-63 -31 -113 -41q-55 -12 -109 -13q-94 0 -186 43q-96 45 -164 121q-76 86 -116 193q-43 113 -43 260zM297 1701l25 33q8 12 27 21l276 -203l272 203q18 -8 27 -21q16 -20 23 -33l-265 -313h-116z" />
<glyph unicode="&#x10d;" horiz-adv-x="907" d="M76 444q0 109 39 201q41 96 108 164q71 71 166 111q98 41 207 41q33 0 70 -7q31 -4 71 -16q34 -9 62 -25q33 -18 47 -32q2 -10 -4 -39q-2 -10 -17 -58q-6 -20 -22 -57q-10 -20 -23 -43l-47 10q-16 37 -28 56q-20 29 -46 49q-25 18 -65 32q-43 14 -84 15q-47 0 -96 -23 q-46 -22 -80 -67q-37 -51 -58 -117q-20 -68 -20 -164q0 -88 23 -149q27 -72 63 -115q41 -47 94 -72q57 -27 111 -26q20 0 53 4q29 4 53 14q37 16 68 36.5t92 72.5l45 -50q-68 -80 -117 -120q-53 -45 -96 -66q-45 -23 -86 -29q-43 -6 -90 -6q-78 0 -145 33 q-74 35 -127.5 94.5t-87.5 149.5q-33 85 -33 198zM172 1434q6 8 11.5 17t11.5 15q10 14 27 23l276 -242l274 242q16 -8 27 -23q2 -2 7 -8t9.5 -12t8.5 -12l-269 -365h-116z" />
<glyph unicode="&#x10e;" d="M37 1231q18 4 106 22q12 2 129 19q90 12 136 14q90 4 131 4q150 0 258 -41q119 -45 194 -121q80 -80 123 -192q41 -109 41 -260q0 -125 -25 -223q-23 -90 -69 -174q-45 -78 -100 -129q-61 -55 -121 -86t-131.5 -47.5t-128.5 -16.5h-533v53q72 16 107 31q37 15 36 31v1063 q-20 -2 -38.5 -5.5t-36.5 -5.5q-10 -2 -33 -5t-35 -5zM381 164q0 -27 6 -37q10 -16 51 -27q33 -8 115 -8q68 0 135 33q76 37 129 98q63 74 98 170q37 102 37 244q0 133 -30 237q-31 106 -93 177q-66 76 -151 110q-88 37 -207 37q-59 0 -90 -2v-1032zM237 1701l25 33 q8 12 27 21l276 -203l272 203q18 -8 27 -21q16 -20 23 -33l-265 -313h-116z" />
<glyph unicode="&#x110;" d="M27 639q6 25 12 39q2 4 14 37h137v463q-20 -2 -38.5 -5.5t-36.5 -5.5q-10 -2 -33 -5t-35 -5l-10 74q18 4 106 22q12 2 129 19q90 12 136 14q90 4 131 4q150 0 258 -41q119 -45 194 -121q80 -80 123 -192q41 -109 41 -260q0 -125 -25 -223q-23 -90 -69 -174 q-45 -78 -100 -129q-61 -55 -121 -86t-131.5 -47.5t-128.5 -16.5h-533v53q72 16 107 31q37 15 36 31v499h-141zM381 164q0 -27 6 -37q10 -16 51 -27q33 -8 115 -8q68 0 135 33q76 37 129 98q63 74 98 170q37 102 37 244q0 133 -30 237q-31 106 -93 177q-66 76 -151 110 q-88 37 -207 37q-59 0 -90 -2v-481h252l24 -23l-28 -78h-248v-450z" />
<glyph unicode="&#x111;" horiz-adv-x="1091" d="M76 444q0 66 14 123q16 63 45 119q33 61 72 107q45 53 96 88q49 35 115 57q63 23 133 23q47 0 94 -13q45 -12 100 -49v231h-282l-25 23q2 8 5 17.5t8 21.5q6 23 16 39h278v39q0 43 -4 84q-2 29 -16 49q-10 16 -41 22q-33 8 -82 11v49q92 12 166 31q90 23 125 34l33 -32 v-287h143l23 -25l-27 -76h-139v-862v-59q0 -10 6 -41q4 -20 6 -26.5t10 -14.5t13 -8q12 0 20 2l33 8q31 10 49 18l18 -53q-106 -70 -155 -94q-65 -31 -92 -31q-35 0 -56 45q-22 46 -30 148q-27 -31 -78 -82q-33 -33 -76 -60q-47 -29 -82 -38q-43 -12 -90 -13q-61 0 -121 33 q-68 37 -113 94q-53 68 -82 150q-30 89 -30 198zM256 483q0 -80 23 -151q20 -68 59 -115t80 -72q43 -25 84 -24q39 0 63.5 10t59.5 31q2 2 59 47q20 16 61 53v461q-33 57 -92 88q-61 33 -129 33q-57 0 -108 -23q-45 -20 -84 -67q-35 -45 -58 -113q-18 -58 -18 -158z" />
<glyph unicode="&#x112;" horiz-adv-x="1034" d="M47 0v53q72 16 107 31q37 15 36 31v1030q0 12 -34 31q-23 12 -109 30v54h832l34 -27q-2 -23 -6 -59q-2 -23 -10 -68l-12 -66q-8 -37 -13 -51h-55q-6 98 -24 131q-20 39 -58 39h-354v-424h401l29 -30l-20 -31q-18 -27 -23 -33l-25 -31q-4 -4 -24 -20q-16 16 -33 24 q-25 12 -39 17q-27 8 -53 10q-20 2 -74 2h-139v-479q0 -14 6 -27q6 -10 29 -20q22 -9 61 -13q53 -4 107 -4h118q46 0 80 6q35 6 58 27q25 20 45 57q16 29 41 95l53 -21q-4 -57 -8 -83.5t-13 -76.5q-2 -6 -5 -29.5t-5 -33.5t-6 -23.5t-4 -17.5h-891zM155 1480q4 16 9 27 l12 33l7 14t7 16l7 14.5l5 10.5h664l25 -27q-4 -16 -9 -26l-12 -33l-8 -16.5t-6 -14.5t-5 -13t-6 -11h-663z" />
<glyph unicode="&#x113;" horiz-adv-x="960" d="M76 436q0 72 14 131q18 74 41 121q28 55 68 105q37 45 92 84q6 4 53 30q12 8 62 27q31 12 63 18q45 8 63 9q65 0 117 -19q61 -23 92 -45q37 -29 66 -70q25 -37 45 -86q18 -43 27 -92q8 -43 8 -94q-16 -18 -53 -39q-39 -20 -68 -33h-508q0 -80 21 -143q23 -74 57 -119 q37 -49 86 -78q52 -31 117 -30q20 0 61 4q18 2 64 18q20 8 75 39q16 10 99 70q12 -6 24 -25q4 -6 10.5 -14t8.5 -10q-68 -72 -121 -115q-59 -49 -98 -70q-43 -23 -93 -33q-41 -8 -100 -8q-76 0 -149.5 35t-126.5 94q-55 61 -86 147.5t-31 190.5zM262 580h397q23 0 31 8 q6 6 6 28q0 33 -8 68q-10 47 -29 78q-20 35 -59 61.5t-98 26.5q-51 0 -92 -19q-39 -18 -70 -55t-49 -86q-21 -53 -29 -110zM161 1202q4 16 9 27q2 8 6 15t6 16q2 6 7 16l7 14l7 14.5t5 12.5h664l25 -27q-4 -16 -9 -26l-12 -33q-2 -8 -4 -12.5t-5 -9.5t-5 -11q-6 -14 -11 -22 h-663z" />
<glyph unicode="&#x114;" horiz-adv-x="1034" d="M47 0v53q72 16 107 31q37 15 36 31v1030q0 12 -34 31q-23 12 -109 30v54h832l34 -27q-2 -23 -6 -59q-2 -23 -10 -68l-12 -66q-8 -37 -13 -51h-55q-6 98 -24 131q-20 39 -58 39h-354v-424h401l29 -30l-20 -31q-18 -27 -23 -33l-25 -31q-4 -4 -24 -20q-16 16 -33 24 q-25 12 -39 17q-27 8 -53 10q-20 2 -74 2h-139v-479q0 -14 6 -27q6 -10 29 -20q22 -9 61 -13q53 -4 107 -4h118q46 0 80 6q35 6 58 27q25 20 45 57q16 29 41 95l53 -21q-4 -57 -8 -83.5t-13 -76.5q-2 -6 -5 -29.5t-5 -33.5t-6 -23.5t-4 -17.5h-891zM178 1683q14 20 27 31 q14 10 32 20q25 -51 60 -90q41 -45 69 -61q43 -25 74 -33q41 -10 72 -10q27 0 72 10q33 8 75 33q29 16 70 61q31 33 57 90q37 -16 62 -51q-33 -84 -68 -137q-39 -59 -82 -92q-47 -37 -90 -52q-49 -16 -92 -16q-47 0 -100 16q-41 12 -90 52q-39 31 -80 92q-35 53 -68 137z " />
<glyph unicode="&#x115;" horiz-adv-x="960" d="M76 436q0 72 14 131q18 74 41 121q28 55 68 105q37 45 92 84q6 4 53 30q12 8 62 27q31 12 63 18q45 8 63 9q65 0 117 -19q61 -23 92 -45q37 -29 66 -70q25 -37 45 -86q18 -43 27 -92q8 -43 8 -94q-16 -18 -53 -39q-39 -20 -68 -33h-508q0 -80 21 -143q23 -74 57 -119 q37 -49 86 -78q52 -31 117 -30q20 0 61 4q18 2 64 18q20 8 75 39q16 10 99 70q12 -6 24 -25q4 -6 10.5 -14t8.5 -10q-68 -72 -121 -115q-59 -49 -98 -70q-43 -23 -93 -33q-41 -8 -100 -8q-76 0 -149.5 35t-126.5 94q-55 61 -86 147.5t-31 190.5zM262 580h397q23 0 31 8 q6 6 6 28q0 33 -8 68q-10 47 -29 78q-20 35 -59 61.5t-98 26.5q-51 0 -92 -19q-39 -18 -70 -55t-49 -86q-21 -53 -29 -110zM184 1364q14 20 27 31q14 10 32 20q25 -51 60 -90q41 -45 69 -61q43 -25 74 -33q41 -10 72 -10q27 0 72 10q33 8 75 33q29 16 70 61q31 33 57 90 q37 -16 62 -51q-33 -84 -68 -137q-39 -59 -82 -92q-47 -37 -90 -52q-49 -16 -92 -16q-47 0 -100 16q-41 12 -90 52q-39 31 -80 92q-35 53 -68 137z" />
<glyph unicode="&#x116;" horiz-adv-x="1034" d="M47 0v53q72 16 107 31q37 15 36 31v1030q0 12 -34 31q-23 12 -109 30v54h832l34 -27q-2 -23 -6 -59q-2 -23 -10 -68l-12 -66q-8 -37 -13 -51h-55q-6 98 -24 131q-20 39 -58 39h-354v-424h401l29 -30l-20 -31q-18 -27 -23 -33l-25 -31q-4 -4 -24 -20q-16 16 -33 24 q-25 12 -39 17q-27 8 -53 10q-20 2 -74 2h-139v-479q0 -14 6 -27q6 -10 29 -20q22 -9 61 -13q53 -4 107 -4h118q46 0 80 6q35 6 58 27q25 20 45 57q16 29 41 95l53 -21q-4 -57 -8 -83.5t-13 -76.5q-2 -6 -5 -29.5t-5 -33.5t-6 -23.5t-4 -17.5h-891zM399 1497q0 29 11 59 q8 23 28 47q16 18 41 30.5t49 12.5q96 0 97 -104q0 -27 -11 -58q-8 -27 -26.5 -47t-40.5 -33q-25 -12 -51 -12q-47 0 -72 27t-25 78z" />
<glyph unicode="&#x117;" horiz-adv-x="960" d="M76 436q0 72 14 131q18 74 41 121q28 55 68 105q37 45 92 84q6 4 53 30q12 8 62 27q31 12 63 18q45 8 63 9q65 0 117 -19q61 -23 92 -45q37 -29 66 -70q25 -37 45 -86q18 -43 27 -92q8 -43 8 -94q-16 -18 -53 -39q-39 -20 -68 -33h-508q0 -80 21 -143q23 -74 57 -119 q37 -49 86 -78q52 -31 117 -30q20 0 61 4q18 2 64 18q20 8 75 39q16 10 99 70q12 -6 24 -25q4 -6 10.5 -14t8.5 -10q-68 -72 -121 -115q-59 -49 -98 -70q-43 -23 -93 -33q-41 -8 -100 -8q-76 0 -149.5 35t-126.5 94q-55 61 -86 147.5t-31 190.5zM262 580h397q23 0 31 8 q6 6 6 28q0 33 -8 68q-10 47 -29 78q-20 35 -59 61.5t-98 26.5q-51 0 -92 -19q-39 -18 -70 -55t-49 -86q-21 -53 -29 -110zM405 1219q0 27 11 57q8 23 28 47q18 20 41 33q20 10 49 10q96 0 97 -102q0 -29 -11 -60q-8 -27 -26 -47q-18 -23 -41 -33q-25 -12 -51 -12 q-47 0 -72 29q-25 27 -25 78z" />
<glyph unicode="&#x11a;" horiz-adv-x="1034" d="M47 0v53q72 16 107 31q37 15 36 31v1030q0 12 -34 31q-23 12 -109 30v54h832l34 -27q-2 -23 -6 -59q-2 -23 -10 -68l-12 -66q-8 -37 -13 -51h-55q-6 98 -24 131q-20 39 -58 39h-354v-424h401l29 -30l-20 -31q-18 -27 -23 -33l-25 -31q-4 -4 -24 -20q-16 16 -33 24 q-25 12 -39 17q-27 8 -53 10q-20 2 -74 2h-139v-479q0 -14 6 -27q6 -10 29 -20q22 -9 61 -13q53 -4 107 -4h118q46 0 80 6q35 6 58 27q25 20 45 57q16 29 41 95l53 -21q-4 -57 -8 -83.5t-13 -76.5q-2 -6 -5 -29.5t-5 -33.5t-6 -23.5t-4 -17.5h-891zM186 1701l25 33 q8 12 27 21l276 -203l272 203q18 -8 27 -21q16 -20 23 -33l-265 -313h-116z" />
<glyph unicode="&#x11b;" horiz-adv-x="960" d="M76 436q0 72 14 131q18 74 41 121q28 55 68 105q37 45 92 84q6 4 53 30q12 8 62 27q31 12 63 18q45 8 63 9q65 0 117 -19q61 -23 92 -45q37 -29 66 -70q25 -37 45 -86q18 -43 27 -92q8 -43 8 -94q-16 -18 -53 -39q-39 -20 -68 -33h-508q0 -80 21 -143q23 -74 57 -119 q37 -49 86 -78q52 -31 117 -30q20 0 61 4q18 2 64 18q20 8 75 39q16 10 99 70q12 -6 24 -25q4 -6 10.5 -14t8.5 -10q-68 -72 -121 -115q-59 -49 -98 -70q-43 -23 -93 -33q-41 -8 -100 -8q-76 0 -149.5 35t-126.5 94q-55 61 -86 147.5t-31 190.5zM262 580h397q23 0 31 8 q6 6 6 28q0 33 -8 68q-10 47 -29 78q-20 35 -59 61.5t-98 26.5q-51 0 -92 -19q-39 -18 -70 -55t-49 -86q-21 -53 -29 -110zM192 1434q6 8 11.5 17t11.5 15q10 14 27 23l276 -242l274 242q16 -8 27 -23q2 -2 7 -8t9.5 -12t8.5 -12l-269 -365h-116z" />
<glyph unicode="&#x11c;" horiz-adv-x="1206" d="M66 582q0 162 53 297q53 133 143 223q88 88 215 139q123 49 264 49q18 0 76 -8q39 -6 84 -18q29 -8 86 -33q43 -18 74 -43q6 -6 -4 -25q-14 -29 -27 -43q-37 -43 -39 -45q-8 -8 -18 -19.5t-15 -15.5l-43 11q-29 31 -67 59q-29 20 -72 39q-33 14 -80 20q-43 6 -88 7 q-25 0 -61 -13q-41 -14 -76 -35q-33 -20 -78 -65q-33 -33 -69 -102q-35 -63 -52 -140q-18 -80 -18 -184q0 -133 35 -238q34 -101 92 -166q63 -70 129 -98q76 -33 145 -33q57 0 123 15q53 12 101 37v325q0 10 -8.5 22.5t-28.5 20.5q-35 14 -58 21q-31 8 -98 18v53h473v-53 q-57 -16 -78 -35q-23 -23 -22 -47v-319q-74 -61 -135 -99q-57 -35 -113 -57q-49 -20 -96 -27q-61 -8 -92 -8q-96 0 -203 39q-98 35 -178 113q-78 76 -129 192q-47 109 -47 269zM319 1415l271 313h110l269 -313q-4 -6 -23 -31q-8 -12 -27 -21l-274 193l-274 -193 q-18 8 -27 21z" />
<glyph unicode="&#x11d;" horiz-adv-x="1017" d="M25 -227q0 23 10 53q8 27 39 59q33 37 80 70q53 37 133 82q-59 20 -88 49q-27 27 -27 57q0 9 6 25q4 12 25 35q18 20 47 47q14 12 78 59q-51 14 -95 43q-45 29 -73 64q-27 31 -47 84q-18 45 -19 102q0 74 35 139q33 61 90 112.5t129 78.5q76 29 150 29q63 0 118.5 -18.5 t98.5 -47.5q115 14 166 31l108 35l23 -33q-10 -27 -23 -54q-10 -23 -35 -51q-51 -8 -71 -10q-41 -4 -82 -6q29 -43 39 -80q14 -51 14 -86q0 -76 -35 -141q-29 -57 -92 -109q-57 -47 -129 -72q-74 -25 -147 -24h-7q-43 -37 -59 -63.5t-16 -30.5q0 -10 10 -21q14 -12 35 -20 q43 -14 75 -21q51 -10 125 -18q115 -12 187 -37q70 -23 114 -55q43 -31 62 -68q16 -33 16 -76q0 -53 -20.5 -100t-59.5 -92t-86 -78q-55 -37 -106 -59q-53 -23 -119 -39q-57 -14 -123 -15q-49 0 -100 6q-59 6 -103 21q-66 20 -96 35q-43 20 -80 53t-55 68q-20 39 -20 88z M205 -188q0 -41 26 -74q33 -41 72 -62q49 -27 109 -41q66 -16 129 -16q61 0 114 19q55 18 86 45q37 31 56 69q18 40 18 86q0 27 -12 47q-12 23 -43 41q-27 16 -86 33q-53 14 -144 25q-12 2 -37.5 5t-39.5 5q-37 6 -68 12q-63 -37 -96 -65q-45 -37 -56 -52q-14 -20 -22 -43 q-6 -18 -6 -34zM264 659q0 -49 17 -98q16 -51 45 -82q25 -29 80 -53q43 -20 110 -20q29 0 59.5 12t53 34.5t39.5 61.5q14 35 14 86q0 55 -14.5 98t-49.5 82q-31 33 -77 56q-39 18 -111 18q-25 0 -53.5 -12.5t-52.5 -36.5q-31 -31 -43 -60q-17 -39 -17 -86zM180 1098l271 381 h116l265 -381q-16 -25 -23 -33q-8 -12 -27 -21l-274 254l-274 -254q-20 10 -29 21q-2 2 -6 8t-9.5 12.5t-9.5 12.5z" />
<glyph unicode="&#x11e;" horiz-adv-x="1206" d="M66 582q0 162 53 297q53 133 143 223q88 88 215 139q123 49 264 49q18 0 76 -8q39 -6 84 -18q29 -8 86 -33q43 -18 74 -43q6 -6 -4 -25q-14 -29 -27 -43q-37 -43 -39 -45q-8 -8 -18 -19.5t-15 -15.5l-43 11q-29 31 -67 59q-29 20 -72 39q-33 14 -80 20q-43 6 -88 7 q-25 0 -61 -13q-41 -14 -76 -35q-33 -20 -78 -65q-33 -33 -69 -102q-35 -63 -52 -140q-18 -80 -18 -184q0 -133 35 -238q34 -101 92 -166q63 -70 129 -98q76 -33 145 -33q57 0 123 15q53 12 101 37v325q0 10 -8.5 22.5t-28.5 20.5q-35 14 -58 21q-31 8 -98 18v53h473v-53 q-57 -16 -78 -35q-23 -23 -22 -47v-319q-74 -61 -135 -99q-57 -35 -113 -57q-49 -20 -96 -27q-61 -8 -92 -8q-96 0 -203 39q-98 35 -178 113q-78 76 -129 192q-47 109 -47 269zM311 1683q14 20 27 31q14 10 32 20q25 -51 60 -90q41 -45 69 -61q43 -25 74 -33q41 -10 72 -10 q27 0 72 10q33 8 75 33q29 16 70 61q31 33 57 90q37 -16 62 -51q-33 -84 -68 -137q-39 -59 -82 -92q-47 -37 -90 -52q-49 -16 -92 -16q-47 0 -100 16q-41 12 -90 52q-39 31 -80 92q-35 53 -68 137z" />
<glyph unicode="&#x11f;" horiz-adv-x="1017" d="M25 -227q0 23 10 53q8 27 39 59q33 37 80 70q53 37 133 82q-59 20 -88 49q-27 27 -27 57q0 9 6 25q4 12 25 35q18 20 47 47q14 12 78 59q-51 14 -95 43q-45 29 -73 64q-27 31 -47 84q-18 45 -19 102q0 74 35 139q33 61 90 112.5t129 78.5q76 29 150 29q63 0 118.5 -18.5 t98.5 -47.5q115 14 166 31l108 35l23 -33q-10 -27 -23 -54q-10 -23 -35 -51q-51 -8 -71 -10q-41 -4 -82 -6q29 -43 39 -80q14 -51 14 -86q0 -76 -35 -141q-29 -57 -92 -109q-57 -47 -129 -72q-74 -25 -147 -24h-7q-43 -37 -59 -63.5t-16 -30.5q0 -10 10 -21q14 -12 35 -20 q43 -14 75 -21q51 -10 125 -18q115 -12 187 -37q70 -23 114 -55q43 -31 62 -68q16 -33 16 -76q0 -53 -20.5 -100t-59.5 -92t-86 -78q-55 -37 -106 -59q-53 -23 -119 -39q-57 -14 -123 -15q-49 0 -100 6q-59 6 -103 21q-66 20 -96 35q-43 20 -80 53t-55 68q-20 39 -20 88z M205 -188q0 -41 26 -74q33 -41 72 -62q49 -27 109 -41q66 -16 129 -16q61 0 114 19q55 18 86 45q37 31 56 69q18 40 18 86q0 27 -12 47q-12 23 -43 41q-27 16 -86 33q-53 14 -144 25q-12 2 -37.5 5t-39.5 5q-37 6 -68 12q-63 -37 -96 -65q-45 -37 -56 -52q-14 -20 -22 -43 q-6 -18 -6 -34zM264 659q0 -49 17 -98q16 -51 45 -82q25 -29 80 -53q43 -20 110 -20q29 0 59.5 12t53 34.5t39.5 61.5q14 35 14 86q0 55 -14.5 98t-49.5 82q-31 33 -77 56q-39 18 -111 18q-25 0 -53.5 -12.5t-52.5 -36.5q-31 -31 -43 -60q-17 -39 -17 -86zM174 1364 q14 20 27 31q14 10 32 20q25 -51 60 -90q41 -45 69 -61q43 -25 74 -33q41 -10 72 -10q27 0 72 10q33 8 75 33q29 16 70 61q31 33 57 90q37 -16 62 -51q-33 -84 -68 -137q-39 -59 -82 -92q-47 -37 -90 -52q-49 -16 -92 -16q-47 0 -100 16q-41 12 -90 52q-39 31 -80 92 q-35 53 -68 137z" />
<glyph unicode="&#x120;" horiz-adv-x="1206" d="M66 582q0 162 53 297q53 133 143 223q88 88 215 139q123 49 264 49q18 0 76 -8q39 -6 84 -18q29 -8 86 -33q43 -18 74 -43q6 -6 -4 -25q-14 -29 -27 -43q-37 -43 -39 -45q-8 -8 -18 -19.5t-15 -15.5l-43 11q-29 31 -67 59q-29 20 -72 39q-33 14 -80 20q-43 6 -88 7 q-25 0 -61 -13q-41 -14 -76 -35q-33 -20 -78 -65q-33 -33 -69 -102q-35 -63 -52 -140q-18 -80 -18 -184q0 -133 35 -238q34 -101 92 -166q63 -70 129 -98q76 -33 145 -33q57 0 123 15q53 12 101 37v325q0 10 -8.5 22.5t-28.5 20.5q-35 14 -58 21q-31 8 -98 18v53h473v-53 q-57 -16 -78 -35q-23 -23 -22 -47v-319q-74 -61 -135 -99q-57 -35 -113 -57q-49 -20 -96 -27q-61 -8 -92 -8q-96 0 -203 39q-98 35 -178 113q-78 76 -129 192q-47 109 -47 269zM532 1497q0 29 11 59q8 23 28 47q16 18 41 30.5t49 12.5q96 0 97 -104q0 -27 -11 -58 q-8 -27 -26.5 -47t-40.5 -33q-25 -12 -51 -12q-47 0 -72 27t-25 78z" />
<glyph unicode="&#x121;" horiz-adv-x="1017" d="M25 -227q0 23 10 53q8 27 39 59q33 37 80 70q53 37 133 82q-59 20 -88 49q-27 27 -27 57q0 9 6 25q4 12 25 35q18 20 47 47q14 12 78 59q-51 14 -95 43q-45 29 -73 64q-27 31 -47 84q-18 45 -19 102q0 74 35 139q33 61 90 112.5t129 78.5q76 29 150 29q63 0 118.5 -18.5 t98.5 -47.5q115 14 166 31l108 35l23 -33q-10 -27 -23 -54q-10 -23 -35 -51q-51 -8 -71 -10q-41 -4 -82 -6q29 -43 39 -80q14 -51 14 -86q0 -76 -35 -141q-29 -57 -92 -109q-57 -47 -129 -72q-74 -25 -147 -24h-7q-43 -37 -59 -63.5t-16 -30.5q0 -10 10 -21q14 -12 35 -20 q43 -14 75 -21q51 -10 125 -18q115 -12 187 -37q70 -23 114 -55q43 -31 62 -68q16 -33 16 -76q0 -53 -20.5 -100t-59.5 -92t-86 -78q-55 -37 -106 -59q-53 -23 -119 -39q-57 -14 -123 -15q-49 0 -100 6q-59 6 -103 21q-66 20 -96 35q-43 20 -80 53t-55 68q-20 39 -20 88z M205 -188q0 -41 26 -74q33 -41 72 -62q49 -27 109 -41q66 -16 129 -16q61 0 114 19q55 18 86 45q37 31 56 69q18 40 18 86q0 27 -12 47q-12 23 -43 41q-27 16 -86 33q-53 14 -144 25q-12 2 -37.5 5t-39.5 5q-37 6 -68 12q-63 -37 -96 -65q-45 -37 -56 -52q-14 -20 -22 -43 q-6 -18 -6 -34zM264 659q0 -49 17 -98q16 -51 45 -82q25 -29 80 -53q43 -20 110 -20q29 0 59.5 12t53 34.5t39.5 61.5q14 35 14 86q0 55 -14.5 98t-49.5 82q-31 33 -77 56q-39 18 -111 18q-25 0 -53.5 -12.5t-52.5 -36.5q-31 -31 -43 -60q-17 -39 -17 -86zM395 1219 q0 27 11 57q8 23 28 47q18 20 41 33q20 10 49 10q96 0 97 -102q0 -29 -11 -60q-8 -27 -26 -47q-18 -23 -41 -33q-25 -12 -51 -12q-47 0 -72 29q-25 27 -25 78z" />
<glyph unicode="&#x124;" horiz-adv-x="1357" d="M47 0v53q72 16 107 31q37 15 36 31v1030q0 12 -34 31q-23 12 -109 30v54h475v-54q-80 -18 -104 -30q-37 -18 -37 -31v-434h580v434q0 12 -35 31q-23 12 -109 30v54h475v-54q-80 -18 -104 -30q-37 -18 -37 -31v-1030q0 -12 35 -31q27 -14 106 -31v-53h-475v53 q72 16 107 31q37 15 37 31v495h-580v-495q0 -12 35 -31q25 -14 106 -31v-53h-475zM344 1415l271 313h110l269 -313q-4 -6 -23 -31q-8 -12 -27 -21l-274 193l-274 -193q-18 8 -27 21z" />
<glyph unicode="&#x125;" horiz-adv-x="1148" d="M53 0v53q57 16 101 31q37 12 36 31v1173q0 33 -4 66q-2 23 -16 37q-12 12 -41 18q-8 2 -76 10v51q8 2 39 7.5t45 9.5l34 7t36 9q39 10 63 21q41 16 62 26l39 -37v-796q51 61 100 104t104 76q57 33 101 47q53 16 88 17q37 0 84 -15q37 -12 70 -41q31 -27 49 -71 q18 -43 18 -105v-614q0 -8 6 -15q8 -8 25 -14q10 -4 41 -14l65 -19v-53h-454v53q76 20 104 33q33 14 33 29v497q0 59 -6 101q-6 39 -22.5 61.5t-39 30.5t-55.5 8q-66 0 -147 -59q-78 -57 -164 -174v-465q0 -16 34.5 -30.5t102.5 -31.5v-53h-455zM262 1665l271 313h110 l269 -313q-4 -6 -23 -31q-8 -12 -27 -21l-274 193l-274 -193q-18 8 -27 21z" />
<glyph unicode="&#x128;" horiz-adv-x="628" d="M68 0v53q68 15 104 31q39 16 39 31v1030q0 10 -37 31q-23 12 -106 30v54h475v-54q-80 -18 -105 -30q-39 -20 -39 -31v-1030q0 -12 37 -31q27 -14 107 -31v-53h-475zM-54 1406q20 45 43 84q25 43 56 80q27 33 69 58q39 23 78 22q45 0 78 -16q31 -14 68 -39 q16 -10 32.5 -18.5t30.5 -18.5q28 -18 55 -18q43 0 76 30q37 33 70 90l61 -24q-20 -45 -43 -84q-27 -45 -57 -80q-33 -35 -70 -57q-39 -23 -78 -23q-41 0 -71.5 16.5t-65.5 38.5q-12 8 -36.5 22.5t-28.5 16.5q-27 16 -64 16.5t-74 -32.5q-31 -29 -69 -86z" />
<glyph unicode="&#x129;" horiz-adv-x="573" d="M68 0v53q70 16 102 31q35 16 35 31v549q0 18 -1 45.5t-1 35.5q0 31 -13 50q-10 14 -40 24q-23 8 -82 15v49q78 14 143 32q78 23 131 46h43v-846q0 -12 33 -31q27 -14 104 -31v-53h-454zM-64 1126l43 86q20 37 56 78q31 37 69.5 59.5t77.5 22.5q41 0 78 -18q45 -23 68 -37 l63 -39q25 -16 55 -16q43 0 76 30q37 33 70 90l61 -26q-20 -45 -42.5 -84t-57.5 -78q-33 -35 -70 -57q-43 -25 -78 -25q-39 0 -71 18q-31 16 -66 39q-12 8 -34.5 20.5t-30.5 16.5q-31 18 -64 19q-37 0 -74 -33q-31 -29 -69 -86z" />
<glyph unicode="&#x12a;" horiz-adv-x="628" d="M68 0v53q68 15 104 31q39 16 39 31v1030q0 10 -37 31q-23 12 -106 30v54h475v-54q-80 -18 -105 -30q-39 -20 -39 -31v-1030q0 -12 37 -31q27 -14 107 -31v-53h-475zM36 1521q4 16 9 27q2 8 6 15t6 16q2 6 7 16l7 14l7 14.5l6 12.5h483l24 -27q-4 -16 -8 -26l-12 -33 q-2 -8 -4 -12.5t-5 -9.5t-5 -11q-6 -14 -11 -22h-485z" />
<glyph unicode="&#x12b;" horiz-adv-x="573" d="M68 0v53q70 16 102 31q35 16 35 31v549q0 18 -1 45.5t-1 35.5q0 31 -13 50q-10 14 -40 24q-23 8 -82 15v49q78 14 143 32q78 23 131 46h43v-846q0 -12 33 -31q27 -14 104 -31v-53h-454zM26 1202q4 16 9 27q2 8 6 15t6 16q2 6 7 16l7 14l7 14.5l6 12.5h483l24 -27 q-4 -16 -8 -26l-12 -33q-2 -8 -4 -12.5t-5 -9.5t-5 -11q-6 -14 -11 -22h-485z" />
<glyph unicode="&#x12c;" horiz-adv-x="628" d="M68 0v53q68 15 104 31q39 16 39 31v1030q0 10 -37 31q-23 12 -106 30v54h475v-54q-80 -18 -105 -30q-39 -20 -39 -31v-1030q0 -12 37 -31q27 -14 107 -31v-53h-475zM-31 1683q14 20 27 31q14 10 32 20q25 -51 60 -90q41 -45 69 -61q43 -25 74 -33q41 -10 72 -10 q27 0 72 10q33 8 75 33q29 16 70 61q31 33 57 90q37 -16 62 -51q-33 -84 -68 -137q-39 -59 -82 -92q-47 -37 -90 -52q-49 -16 -92 -16q-47 0 -100 16q-41 12 -90 52q-39 31 -80 92q-35 53 -68 137z" />
<glyph unicode="&#x12d;" horiz-adv-x="573" d="M68 0v53q70 16 102 31q35 16 35 31v549q0 18 -1 45.5t-1 35.5q0 31 -13 50q-10 14 -40 24q-23 8 -82 15v49q78 14 143 32q78 23 131 46h43v-846q0 -12 33 -31q27 -14 104 -31v-53h-454zM-39 1364q14 20 27 31q14 10 32 20q25 -51 60 -90q41 -45 69 -61q43 -25 74 -33 q41 -10 72 -10q27 0 72 10q33 8 75 33q29 16 70 61q31 33 57 90q37 -16 62 -51q-33 -84 -68 -137q-39 -59 -82 -92q-47 -37 -90 -52q-49 -16 -92 -16q-47 0 -100 16q-41 12 -90 52q-39 31 -80 92q-35 53 -68 137z" />
<glyph unicode="&#x130;" horiz-adv-x="628" d="M68 0v53q68 15 104 31q39 16 39 31v1030q0 10 -37 31q-23 12 -106 30v54h475v-54q-80 -18 -105 -30q-39 -20 -39 -31v-1030q0 -12 37 -31q27 -14 107 -31v-53h-475zM190 1497q0 29 11 59q8 23 28 47q16 18 41 30.5t49 12.5q96 0 97 -104q0 -27 -11 -58q-8 -27 -26.5 -47 t-40.5 -33q-25 -12 -51 -12q-47 0 -72 27t-25 78z" />
<glyph unicode="&#x131;" horiz-adv-x="573" d="M68 0v53q70 16 102 31q35 16 35 31v549q0 18 -1 45.5t-1 35.5q0 31 -13 50q-10 14 -40 24q-23 8 -82 15v49q78 14 143 32q78 23 131 46h43v-846q0 -12 33 -31q27 -14 104 -31v-53h-454z" />
<glyph unicode="&#x132;" horiz-adv-x="1273" d="M68 0v53q68 15 104 31q39 16 39 31v1030q0 10 -37 31q-23 12 -106 30v54h475v-54q-80 -18 -105 -30q-39 -20 -39 -31v-1030q0 -12 37 -31q27 -14 107 -31v-53h-475zM416 -307q0 6 16 26q15 18 37 37q29 25 43 35q18 12 37 21q16 -12 51 -33q31 -18 41 -21l39 -10 q25 -4 37 -4q27 0 55 16q31 16 52 58q22 43 36 116q16 78 17 193v1018q0 4 -8 12q-8 6 -29 17q-8 4 -59 16q-18 4 -97 16v54h525v-54q-78 -18 -105 -30q-39 -20 -39 -31v-946q0 -125 -16 -197q-18 -80 -49 -135q-33 -59 -68 -94q-43 -43 -78 -70q-29 -23 -59 -39 q-34 -18 -68 -31q-33 -12 -65 -18q-41 -8 -56 -8q-33 0 -69 10q-29 8 -62 23q-27 12 -43 28.5t-16 24.5z" />
<glyph unicode="&#x133;" horiz-adv-x="1124" d="M68 0v53q70 16 102 31q35 16 35 31v549q0 18 -1 45.5t-1 35.5q0 31 -13 50q-10 14 -40 24q-23 8 -82 15v49q78 14 143 32q78 23 131 46h43v-846q0 -12 33 -31q27 -14 104 -31v-53h-454zM182 1221q0 29 10.5 55.5t28.5 44.5q20 20 43 29q33 12 51 12q46 0 74 -25 q29 -25 29 -75q0 -31 -10.5 -57.5t-28.5 -45.5q-14 -14 -43 -29q-25 -12 -51 -12q-45 0 -76 27q-27 25 -27 76zM331 -422q0 10 17 31q6 6 41 37q14 12 47 37q27 18 39 24q39 -35 71 -45q41 -12 78 -12q31 0 55 16q28 18 50 62q20 39 32 120q14 90 15 195v621q0 61 -2 81 q-2 31 -15 48q-10 16 -41 26q-23 8 -80 15v49q39 6 80 16q10 2 33 7t33 9q41 12 61 21q12 4 28.5 11t35.5 14h47v-859q0 -100 -19 -196q-15 -80 -43 -135q-25 -51 -65 -95q-43 -47 -76 -71q-25 -20 -57 -39q-31 -18 -64 -35q-4 -2 -59 -20q-25 -8 -51 -9q-37 0 -68 9 q-39 10 -61 20q-18 8 -43 25q-19 12 -19 22zM753 1221q0 23 12 55q10 29 27 45q20 20 43 29q33 12 51 12q46 0 74 -25q29 -25 29 -75q0 -31 -11 -58q-10 -29 -26 -45q-14 -14 -43 -29q-25 -12 -53 -12q-43 0 -74 27q-29 25 -29 76z" />
<glyph unicode="&#x139;" horiz-adv-x="997" d="M47 0v53q72 16 107 31q37 15 36 31v1030q0 12 -34 31q-23 12 -109 30v54h475v-54q-80 -18 -104 -30q-37 -18 -37 -31v-971q0 -20 8 -31q14 -18 29 -24q18 -8 57 -15q25 -4 90 -4h133q47 0 78 6q33 6 55 27q25 23 43 57q25 47 41 95l54 -21q-4 -57 -8.5 -83.5l-12.5 -76.5 q-2 -6 -5 -29.5t-5 -33.5t-6 -23.5t-4 -17.5h-881zM293 1417l379 323q4 -4 16.5 -9t18.5 -9l41 -25l36 -24q18 -12 25 -19l10 -47l-475 -244q-12 6 -26 21q-4 4 -12.5 15.5t-12.5 17.5z" />
<glyph unicode="&#x13a;" horiz-adv-x="573" d="M57 0v53q20 2 72 15q20 4 45 14q18 8 24.5 16t6.5 17v1171q0 45 -6 69.5t-21 37.5q-20 16 -41 18q-55 6 -69 8v51q14 2 39.5 7.5t35.5 7.5q25 4 70 16t68 21q12 4 65 28l39 -37v-1398q0 -16 33 -31q35 -16 114 -31v-53h-475zM111 1737l379 323q4 -4 16.5 -9t18.5 -9 l41 -25l36 -24q18 -12 25 -19l10 -47l-475 -244q-12 6 -26 21q-4 4 -12.5 15.5t-12.5 17.5z" />
<glyph unicode="&#x141;" horiz-adv-x="997" d="M37 469q4 16 8 27l12 30q2 6 7.5 15.5t7.5 11.5q6 12 12 18l106 54v520q0 12 -34 31q-23 12 -109 30v54h475v-54q-80 -18 -104 -30q-37 -18 -37 -31v-424l278 141l27 -24q-4 -14 -22 -52q-20 -43 -27 -49l-256 -129v-434q0 -20 8 -31q14 -18 29 -24q18 -8 57 -15 q25 -4 90 -4h133q47 0 78 6q33 6 55 27q25 23 43 57q25 47 41 95l54 -21q-4 -57 -8.5 -83.5l-12.5 -76.5q-2 -6 -5 -29.5t-5 -33.5t-6 -23.5t-4 -17.5h-881v53q72 16 107 31q37 15 36 31v397l-127 -63z" />
<glyph unicode="&#x142;" horiz-adv-x="598" d="M47 573q2 10 6 27l6 25q2 8 11 28q6 14 12 33l135 94v508q0 55 -4 72q-6 25 -23 37q-16 14 -40 16q-10 2 -35 5t-35 5v50q14 2 40.5 7l37.5 7q25 4 69 16q14 4 66 23q35 12 65 26l39 -36v-611l150 105l22 -19q-3 -18 -6 -30q-2 -4 -4 -13.5t-2 -13.5q-2 -6 -5 -12.5 t-5 -12.5q-4 -8 -12 -28l-138 -99v-667q0 -16 33 -31q35 -16 115 -31v-53h-475v53q20 2 71 15q6 2 45 14q18 6 25 16q6 8 6 17v542l-143 -102z" />
<glyph unicode="&#x143;" horiz-adv-x="1337" d="M47 0v53q72 8 109 29q35 18 34 33v1024q-33 29 -69 45q-41 16 -74 22v54h236q18 0 24 -3q12 -4 19 -10q14 -14 22 -24l8 -11.5t9.5 -11.5t13.5 -18l641 -887v850q0 6 -6 14q-2 2 -25 17q-15 9 -43 18q-10 4 -67 12v54h413v-54q-66 -8 -106 -28q-35 -18 -35 -33v-1176 q-59 6 -104 27q-31 14 -56 43l-672 930v-854q0 -6 9 -15q12 -12 24 -18q8 -4 45 -16q12 -4 66 -13v-53h-416zM485 1417l379 323q4 -4 16.5 -9t18.5 -9l41 -25l36 -24q18 -12 25 -19l10 -47l-475 -244q-12 6 -26 21q-4 4 -12.5 15.5t-12.5 17.5z" />
<glyph unicode="&#x144;" horiz-adv-x="1148" d="M53 0v53q57 16 101 31q37 12 36 31v590q0 47 -2 61q-4 25 -16 37t-41 18q-31 6 -78 13v49q72 12 140 30q55 16 124 48l37 -37l13 -215q49 61 102 108q51 45 106 78q66 39 101 49q53 16 88 17q37 0 84 -15q37 -12 70 -41q31 -27 49 -71q18 -43 18 -105v-614q0 -8 6 -15 q8 -8 25 -14q10 -4 41 -14l65 -19v-53h-454v53q76 20 104 33q33 14 33 29v503q0 59 -6 97q-6 41 -21 59q-15 22 -37 31q-18 8 -57 8q-29 0 -63 -12q-37 -14 -74 -39q-29 -18 -84 -72q-27 -25 -92 -110v-465q0 -16 34.5 -30.5t102.5 -31.5v-53h-455zM471 1077l225 420 q4 0 37 -4q8 0 24.5 -3t26.5 -5l25.5 -5t23.5 -3l37 -9l25 -43l-359 -381q-12 2 -37 15q-12 6 -28 18z" />
<glyph unicode="&#x147;" horiz-adv-x="1337" d="M47 0v53q72 8 109 29q35 18 34 33v1024q-33 29 -69 45q-41 16 -74 22v54h236q18 0 24 -3q12 -4 19 -10q14 -14 22 -24l8 -11.5t9.5 -11.5t13.5 -18l641 -887v850q0 6 -6 14q-2 2 -25 17q-15 9 -43 18q-10 4 -67 12v54h413v-54q-66 -8 -106 -28q-35 -18 -35 -33v-1176 q-59 6 -104 27q-31 14 -56 43l-672 930v-854q0 -6 9 -15q12 -12 24 -18q8 -4 45 -16q12 -4 66 -13v-53h-416zM344 1701l25 33q8 12 27 21l276 -203l272 203q18 -8 27 -21q16 -20 23 -33l-265 -313h-116z" />
<glyph unicode="&#x148;" horiz-adv-x="1148" d="M53 0v53q57 16 101 31q37 12 36 31v590q0 47 -2 61q-4 25 -16 37t-41 18q-31 6 -78 13v49q72 12 140 30q55 16 124 48l37 -37l13 -215q49 61 102 108q51 45 106 78q66 39 101 49q53 16 88 17q37 0 84 -15q37 -12 70 -41q31 -27 49 -71q18 -43 18 -105v-614q0 -8 6 -15 q8 -8 25 -14q10 -4 41 -14l65 -19v-53h-454v53q76 20 104 33q33 14 33 29v503q0 59 -6 97q-6 41 -21 59q-15 22 -37 31q-18 8 -57 8q-29 0 -63 -12q-37 -14 -74 -39q-29 -18 -84 -72q-27 -25 -92 -110v-465q0 -16 34.5 -30.5t102.5 -31.5v-53h-455zM262 1434q6 8 11.5 17 t11.5 15q10 14 27 23l276 -242l274 242q16 -8 27 -23q2 -2 7 -8t9.5 -12t8.5 -12l-269 -365h-116z" />
<glyph unicode="&#x14a;" horiz-adv-x="1265" d="M47 0v53q68 15 105 31q39 16 38 31v905q0 47 -2 63q-2 23 -16 39q-12 16 -41 23q-31 6 -78 12v53q45 8 72 15q14 4 38.5 8t39.5 8q20 4 73 23q43 14 66 26l39 -37v-292q80 95 147 159q61 59 131 101q63 37 119 53q59 16 111 16q45 0 90 -12q37 -10 84 -49 q39 -33 63.5 -94.5t24.5 -153.5v-705q0 -106 -21 -188q-18 -70 -57 -154q-37 -76 -82 -127q-53 -61 -102 -98q-37 -29 -62 -41q-39 -18 -75 -30q-53 -16 -82 -23q-39 -8 -84 -8t-90 12q-57 14 -84 29q-51 25 -64 35q-25 18 -24 34q0 10 18 29q12 12 45 41q4 4 51 39 q23 18 41 24q53 -53 119 -83q59 -29 121 -29q49 0 90 29q43 31 76 90q35 63 55.5 151t20.5 215v649q0 74 -11 129q-8 45 -32 80q-20 29 -50 41q-25 10 -65 11q-39 0 -80 -14.5t-94 -55.5q-45 -35 -113 -109q-59 -63 -135 -176v-663q0 -12 35 -31q29 -14 108 -31v-53h-477z " />
<glyph unicode="&#x14b;" horiz-adv-x="1128" d="M53 0v53q57 16 101 31q37 12 36 31v590q0 35 -4 63q-2 23 -16 35q-12 12 -41 18t-76 13v51q82 10 140 28q78 25 124 48l37 -37l11 -215q49 61 102 108q51 45 106 78q61 37 103 49q53 16 88 17q49 0 86 -15q39 -14 70 -43q27 -25 47 -72q18 -43 18 -98v-637 q0 -114 -18 -190q-20 -88 -47 -135q-31 -55 -70 -95q-35 -35 -82 -71q-33 -25 -61 -41q-45 -25 -70 -33l-72 -23q-37 -6 -63 -6q-47 0 -82 11q-51 14 -80 26t-59 35q-25 18 -25 33q0 10 18 28q27 27 43.5 41.5t49.5 38.5q23 18 41 25q31 -31 57 -47q33 -20 57 -31 q37 -16 53 -20q25 -6 43 -7q20 0 58 17q33 14 61 59q23 35 47 123q20 74 21 201v583q0 59 -6 97q-6 41 -21 59q-15 22 -37 31q-14 6 -57 6q-35 0 -63 -10q-37 -14 -74 -39q-29 -18 -84 -72q-35 -33 -94 -110v-465q0 -15 37 -31q35 -14 102 -31v-53h-455z" />
<glyph unicode="&#x14c;" d="M66 612q0 135 43 258q43 121 122 217q76 92 183 148q104 55 227 55q125 0 223.5 -55t162 -143t97.5 -207q33 -113 33 -238q0 -137 -45 -258q-49 -129 -125 -217q-82 -94 -182 -147q-104 -55 -221 -56q-123 0 -219 54q-94 51 -164 143q-66 88 -101 205q-34 120 -34 241z M254 641q0 -109 29 -211q29 -98 77 -174q49 -74 117 -117q72 -45 139 -45q78 0 143.5 35t110.5 100q47 68 74 168q27 98 27 232q0 70 -13 137q-10 57 -34 127q-16 49 -54 111q-27 43 -73 88q-37 35 -90 57q-47 20 -103 20q-84 0 -149 -36q-65 -37 -111 -105 q-41 -59 -68 -168q-22 -90 -22 -219zM266 1480q4 16 9 27l12 33l7 14t7 16l7 14.5l5 10.5h664l25 -27q-4 -16 -9 -26l-12 -33l-8 -16.5t-6 -14.5t-5 -13t-6 -11h-663z" />
<glyph unicode="&#x14d;" horiz-adv-x="1044" d="M76 444q0 59 16 129q16 68 45 123q27 51 74 104.5t94 84.5q53 35 112.5 55.5t125.5 20.5q96 0 176 -37q84 -39 135 -99q55 -63 86 -151q31 -86 31 -189q0 -96 -39 -192q-39 -100 -101 -166q-68 -74 -149 -115q-86 -43 -178 -43q-96 0 -176 37q-84 39 -135 98 q-55 63 -87 152q-30 86 -30 188zM262 473q0 -80 25 -149q25 -74 63 -123q43 -55 88 -84q49 -31 94 -31q70 0 115 25q47 25 78 71q25 37 43 117q14 63 14 152q0 76 -22 149q-20 70 -60 127q-37 55 -86 86q-53 33 -100 33q-70 0 -121 -29q-45 -25 -76 -80q-29 -51 -41 -116 q-14 -80 -14 -148zM184 1202q4 16 9 27q2 8 6 15t6 16q2 6 7 16l7 14l7 14.5t5 12.5h664l25 -27q-4 -16 -9 -26l-12 -33q-2 -8 -4 -12.5t-5 -9.5t-5 -11q-6 -14 -11 -22h-663z" />
<glyph unicode="&#x14e;" d="M66 612q0 135 43 258q43 121 122 217q76 92 183 148q104 55 227 55q125 0 223.5 -55t162 -143t97.5 -207q33 -113 33 -238q0 -137 -45 -258q-49 -129 -125 -217q-82 -94 -182 -147q-104 -55 -221 -56q-123 0 -219 54q-94 51 -164 143q-66 88 -101 205q-34 120 -34 241z M254 641q0 -109 29 -211q29 -98 77 -174q49 -74 117 -117q72 -45 139 -45q78 0 143.5 35t110.5 100q47 68 74 168q27 98 27 232q0 70 -13 137q-10 57 -34 127q-16 49 -54 111q-27 43 -73 88q-37 35 -90 57q-47 20 -103 20q-84 0 -149 -36q-65 -37 -111 -105 q-41 -59 -68 -168q-22 -90 -22 -219zM289 1683q14 20 27 31q14 10 32 20q25 -51 60 -90q41 -45 69 -61q43 -25 74 -33q41 -10 72 -10q27 0 72 10q33 8 75 33q29 16 70 61q31 33 57 90q37 -16 62 -51q-33 -84 -68 -137q-39 -59 -82 -92q-47 -37 -90 -52q-49 -16 -92 -16 q-47 0 -100 16q-41 12 -90 52q-39 31 -80 92q-35 53 -68 137z" />
<glyph unicode="&#x14f;" horiz-adv-x="1044" d="M76 444q0 59 16 129q16 68 45 123q27 51 74 104.5t94 84.5q53 35 112.5 55.5t125.5 20.5q96 0 176 -37q84 -39 135 -99q55 -63 86 -151q31 -86 31 -189q0 -96 -39 -192q-39 -100 -101 -166q-68 -74 -149 -115q-86 -43 -178 -43q-96 0 -176 37q-84 39 -135 98 q-55 63 -87 152q-30 86 -30 188zM262 473q0 -80 25 -149q25 -74 63 -123q43 -55 88 -84q49 -31 94 -31q70 0 115 25q47 25 78 71q25 37 43 117q14 63 14 152q0 76 -22 149q-20 70 -60 127q-37 55 -86 86q-53 33 -100 33q-70 0 -121 -29q-45 -25 -76 -80q-29 -51 -41 -116 q-14 -80 -14 -148zM209 1364q14 20 27 31q14 10 32 20q25 -51 60 -90q41 -45 69 -61q43 -25 74 -33q41 -10 72 -10q27 0 72 10q33 8 75 33q29 16 70 61q31 33 57 90q37 -16 62 -51q-33 -84 -68 -137q-39 -59 -82 -92q-47 -37 -90 -52q-49 -16 -92 -16q-47 0 -100 16 q-41 12 -90 52q-39 31 -80 92q-35 53 -68 137z" />
<glyph unicode="&#x150;" d="M66 612q0 135 43 258q43 121 122 217q76 92 183 148q104 55 227 55q125 0 223.5 -55t162 -143t97.5 -207q33 -113 33 -238q0 -137 -45 -258q-49 -129 -125 -217q-82 -94 -182 -147q-104 -55 -221 -56q-123 0 -219 54q-94 51 -164 143q-66 88 -101 205q-34 120 -34 241z M254 641q0 -109 29 -211q29 -98 77 -174q49 -74 117 -117q72 -45 139 -45q78 0 143.5 35t110.5 100q47 68 74 168q27 98 27 232q0 70 -13 137q-10 57 -34 127q-16 49 -54 111q-27 43 -73 88q-37 35 -90 57q-47 20 -103 20q-84 0 -149 -36q-65 -37 -111 -105 q-41 -59 -68 -168q-22 -90 -22 -219zM393 1396l168 416q4 -2 14 -3t17 -1q25 -4 39 -6t38 -6q4 0 27 -9l27 -45l-265 -379q-14 2 -30 13zM694 1396l168 416q4 -2 14 -3t17 -1q25 -4 39 -6t38 -6q6 -2 15.5 -5.5t11.5 -3.5l27 -45l-264 -379q-16 2 -33 13q-21 12 -33 20z" />
<glyph unicode="&#x151;" horiz-adv-x="1044" d="M76 444q0 59 16 129q16 68 45 123q27 51 74 104.5t94 84.5q53 35 112.5 55.5t125.5 20.5q96 0 176 -37q84 -39 135 -99q55 -63 86 -151q31 -86 31 -189q0 -96 -39 -192q-39 -100 -101 -166q-68 -74 -149 -115q-86 -43 -178 -43q-96 0 -176 37q-84 39 -135 98 q-55 63 -87 152q-30 86 -30 188zM262 473q0 -80 25 -149q25 -74 63 -123q43 -55 88 -84q49 -31 94 -31q70 0 115 25q47 25 78 71q25 37 43 117q14 63 14 152q0 76 -22 149q-20 70 -60 127q-37 55 -86 86q-53 33 -100 33q-70 0 -121 -29q-45 -25 -76 -80q-29 -51 -41 -116 q-14 -80 -14 -148zM313 1077l168 416q4 -2 14 -3t17 -1q25 -4 39 -6t38 -6q4 0 27 -9l27 -45l-265 -379q-14 2 -30 13zM614 1077l168 416q4 -2 14 -3t17 -1q25 -4 39 -6t38 -6q6 -2 15.5 -5.5t11.5 -3.5l27 -45l-264 -379q-16 2 -33 13q-21 12 -33 20z" />
<glyph unicode="&#x152;" horiz-adv-x="1662" d="M66 612q0 135 43 258q43 121 122 217q76 92 183 148q104 55 227 55q31 0 72 -4q25 -2 59 -10q51 -12 59 -12q41 -4 72 -4h606l33 -27q-2 -23 -6 -59q-4 -45 -8 -68l-12 -66q-8 -37 -13 -51h-55q-6 90 -25 131q-18 39 -57 39h-326v-424h371l31 -30q-8 -14 -21 -31l-24 -33 q-16 -20 -25 -29l-22 -22q-16 16 -33 24q-35 16 -39 19q-16 4 -53 8q-41 4 -74 4h-111v-481q0 -10 4 -27q2 -10 18.5 -20.5t51.5 -12.5q49 -4 100 -4h119q46 0 80 6q35 6 57 27q25 20 46 57q16 29 40 95l54 -21q-2 -33 -11 -84q-2 -12 -5 -37.5t-5 -38.5q-2 -6 -5 -29.5 t-5 -33.5t-6 -23.5t-4 -17.5h-688q-16 0 -90 -6q-29 -2 -68 -10q-18 -4 -64 -9q-61 -6 -75 -6q-123 0 -219 54q-90 49 -162 143q-70 92 -103 205q-34 120 -34 241zM254 641q0 -109 29 -211q29 -98 77 -174q49 -72 115 -117q68 -45 141 -45q49 0 72 2q39 4 60 8q23 6 53 17 q25 9 49 24v945q-51 43 -115 61q-68 20 -131 20q-83 0 -147 -36q-61 -35 -111 -107q-43 -63 -70 -168q-22 -90 -22 -219z" />
<glyph unicode="&#x153;" horiz-adv-x="1632" d="M76 444q0 72 16 129q20 74 47 123q27 51 74 104.5t94 84.5q52 34 111 55q55 20 123 21q102 0 192 -52q80 -47 139 -137q45 61 113 109q2 0 51 28l58 27q31 12 61.5 18.5t56.5 6.5q65 0 117 -19q49 -16 90 -49q29 -23 64 -72q28 -40 43 -86q20 -61 24 -92q8 -61 9 -88 q-16 -16 -56 -41q-29 -18 -65 -33h-490q4 -78 21 -141q18 -68 55 -117q41 -55 86 -80q51 -29 113 -28q18 0 55 4q20 2 59 16q27 10 74 39q33 20 96 70q16 -8 27 -25l16 -24q-59 -68 -118.5 -117t-98.5 -70q-47 -25 -88 -31q-57 -8 -94 -8q-92 0 -176 53.5t-139 145.5 q-39 -51 -74 -82q-43 -39 -84 -61q-51 -29 -94 -41q-45 -14 -101 -15q-90 0 -164 37q-78 39 -129 98.5t-84 151.5q-30 86 -30 188zM258 475q0 -78 25 -149q27 -78 63 -125q41 -53 90 -84t102.5 -31t92.5 24.5t71 73.5q29 43 46 113q15 65 18 141v17q0 78 -23 151 q-18 63 -61 123q-37 51 -88 84q-53 33 -107 33q-51 0 -96 -29q-41 -27 -72 -76q-29 -45 -45 -118q-16 -72 -16 -148zM952 580h381q18 0 31 8q8 6 8 28q0 27 -6 66t-29 78q-23 41 -57 65q-35 27 -94 27q-41 0 -86 -21q-39 -18 -70 -55q-25 -29 -49 -86q-19 -42 -29 -110z" />
<glyph unicode="&#x154;" horiz-adv-x="1177" d="M37 1231q66 16 100 22l107 19q10 2 116 12q61 6 129 6q117 0 211 -22q80 -18 148 -66q57 -39 86 -96t29 -119q0 -74 -21 -129q-23 -61 -57 -104q-33 -41 -90 -78q-55 -37 -113 -53l305 -469q10 -14 33 -33q18 -16 37 -21q29 -8 45 -8q37 0 59 2l13 -51q-45 -16 -68 -23 l-68 -18q-34 -9 -61 -12q-37 -4 -47 -4q-27 0 -56 16q-25 14 -43 39l-296 557q-4 0 -12.5 -1t-12.5 -1h-25q-35 0 -51 2q-37 4 -53 8v-491q0 -12 35 -31q25 -14 106 -31v-53h-475v53q72 16 107 31q37 15 36 31v1063q-18 -2 -36.5 -5.5t-35 -5.5t-34.5 -5t-37 -5zM381 696 q29 -6 45 -6q8 0 22.5 -1t20.5 -1q150 0 229 70q76 68 76 198q0 57 -16 97q-20 45 -58 77q-35 29 -100 50q-61 18 -149 18h-35q-6 0 -17.5 -1t-17.5 -1v-500zM348 1417l379 323q4 -4 16.5 -9t18.5 -9l41 -25l36 -24q18 -12 25 -19l10 -47l-475 -244q-12 6 -26 21 q-4 4 -12.5 15.5t-12.5 17.5z" />
<glyph unicode="&#x155;" horiz-adv-x="843" d="M53 0v53q74 18 101 29q37 16 36 33v565q0 41 -2 55.5t-6 34.5q-2 10 -6 23q0 2 -2 5t-4 5t-2 4q-8 8 -16 10q-2 0 -9.5 3t-11.5 5q-16 4 -31 4q-10 0 -47 5v49q8 2 35 7t39 9l33.5 7t34.5 9q10 2 31.5 10.5t31.5 10.5q25 8 59 25l37 -37l15 -201q33 57 59 92q45 57 68 76 q41 35 77 51q41 18 84 19q31 0 72 -11q47 -12 76 -28q7 -5 7 -26q0 -7 -1 -15q-4 -49 -10 -76q-16 -74 -21 -90q-12 -45 -24 -72h-54q-12 82 -40 123q-27 39 -70 39q-23 0 -49 -14q-25 -14 -58 -50q-27 -29 -59 -88q-33 -57 -55 -133v-405q0 -16 39 -31q41 -16 133 -31v-53 h-490zM353 1077l225 420q4 0 37 -4q8 0 24.5 -3t26.5 -5l25.5 -5t23.5 -3l37 -9l25 -43l-359 -381q-12 2 -37 15q-12 6 -28 18z" />
<glyph unicode="&#x158;" horiz-adv-x="1177" d="M37 1231q66 16 100 22l107 19q10 2 116 12q61 6 129 6q117 0 211 -22q80 -18 148 -66q57 -39 86 -96t29 -119q0 -74 -21 -129q-23 -61 -57 -104q-33 -41 -90 -78q-55 -37 -113 -53l305 -469q10 -14 33 -33q18 -16 37 -21q29 -8 45 -8q37 0 59 2l13 -51q-45 -16 -68 -23 l-68 -18q-34 -9 -61 -12q-37 -4 -47 -4q-27 0 -56 16q-25 14 -43 39l-296 557q-4 0 -12.5 -1t-12.5 -1h-25q-35 0 -51 2q-37 4 -53 8v-491q0 -12 35 -31q25 -14 106 -31v-53h-475v53q72 16 107 31q37 15 36 31v1063q-18 -2 -36.5 -5.5t-35 -5.5t-34.5 -5t-37 -5zM381 696 q29 -6 45 -6q8 0 22.5 -1t20.5 -1q150 0 229 70q76 68 76 198q0 57 -16 97q-20 45 -58 77q-35 29 -100 50q-61 18 -149 18h-35q-6 0 -17.5 -1t-17.5 -1v-500zM207 1701l25 33q8 12 27 21l276 -203l272 203q18 -8 27 -21q16 -20 23 -33l-265 -313h-116z" />
<glyph unicode="&#x159;" horiz-adv-x="843" d="M53 0v53q74 18 101 29q37 16 36 33v565q0 41 -2 55.5t-6 34.5q-2 10 -6 23q0 2 -2 5t-4 5t-2 4q-8 8 -16 10q-2 0 -9.5 3t-11.5 5q-16 4 -31 4q-10 0 -47 5v49q8 2 35 7t39 9l33.5 7t34.5 9q10 2 31.5 10.5t31.5 10.5q25 8 59 25l37 -37l15 -201q33 57 59 92q45 57 68 76 q41 35 77 51q41 18 84 19q31 0 72 -11q47 -12 76 -28q7 -5 7 -26q0 -7 -1 -15q-4 -49 -10 -76q-16 -74 -21 -90q-12 -45 -24 -72h-54q-12 82 -40 123q-27 39 -70 39q-23 0 -49 -14q-25 -14 -58 -50q-27 -29 -59 -88q-33 -57 -55 -133v-405q0 -16 39 -31q41 -16 133 -31v-53 h-490zM143 1434q6 8 11.5 17t11.5 15q10 14 27 23l276 -242l274 242q16 -8 27 -23q2 -2 7 -8t9.5 -12t8.5 -12l-269 -365h-116z" />
<glyph unicode="&#x15a;" horiz-adv-x="999" d="M113 178q0 29 4 90q2 45 12 76l51 -4q18 -53 58 -104q33 -45 75 -76q49 -35 88 -47q45 -14 101 -15q43 0 88 16.5t80 45t57 71.5q20 39 21 88q0 63 -27 105q-29 43 -72 78q-51 39 -98 63l-117 53q-78 37 -115 58q-57 33 -100 72q-41 39 -69 92q-27 51 -27 125 q0 47 22 104q20 53 72 105q49 49 131 83q78 33 193 33q31 0 96 -8q47 -6 88 -18q53 -16 76 -29q37 -20 51 -37q6 -6 0 -27q-4 -16 -23 -45q-27 -41 -30.5 -47t-14 -18t-14.5 -17l-45 7q-25 37 -57 63q-35 27 -62 41q-35 16 -61 23q-41 8 -60 8q-53 0 -92 -17 q-43 -18 -63 -39q-25 -25 -37 -55q-10 -27 -10 -57q0 -49 26.5 -84t71.5 -68q33 -25 100 -57l53.5 -27.5l63.5 -31.5q78 -41 115 -64q63 -39 102 -78q43 -43 72 -100q27 -53 26 -131q0 -46 -12 -92q-10 -39 -39 -92q-23 -41 -63 -87q-33 -37 -90 -69q-53 -33 -115 -49 q-66 -18 -143 -19q-18 0 -76 8q-43 6 -86 18.5t-86 31.5q-35 14 -76 41q-8 4 -12 36q-2 21 -2 74zM328 1417l379 323q4 -4 16.5 -9t18.5 -9l41 -25l36 -24q18 -12 25 -19l10 -47l-475 -244q-12 6 -26 21q-4 4 -12.5 15.5t-12.5 17.5z" />
<glyph unicode="&#x15b;" horiz-adv-x="811" d="M90 147q0 55 4 84q6 47 15 70l55 -10q6 -53 24 -86q20 -37 56 -66q39 -33 75 -45q45 -16 93 -16q70 0 112.5 37t42.5 104q0 43 -20 72q-25 35 -55 57q-41 29 -80 49l-90 47q-47 23 -82 45q-43 27 -72 56q-31 31 -49 67q-20 41 -21 86q0 59 29 111q27 49 70 82 q41 31 102 51q57 18 117 19q35 0 76 -7q27 -4 75 -16q45 -10 70 -23q33 -14 53 -32q4 -4 2 -29q-2 -23 -12 -51q-12 -37 -21 -55q-12 -29 -20 -37l-49 8q-41 80 -90 112q-47 33 -105 33q-31 0 -57 -10q-25 -9 -43 -25q-18 -14 -27 -34q-10 -25 -10 -41q0 -33 18 -58 q23 -31 49.5 -49t71.5 -43q16 -8 84 -45l88 -47q47 -27 78 -57q41 -41 58 -74q23 -45 22 -98q0 -74 -20 -121q-25 -57 -54 -86q-34 -34 -73 -56q-35 -18 -80 -32q-35 -10 -76 -15q-49 -4 -57 -4q-10 0 -34 3t-26 3q-35 4 -67 13q-45 12 -70 22q-41 16 -70 33q-6 2 -8 33 q-2 20 -2 71zM293 1077l225 420q4 0 37 -4q8 0 24.5 -3t26.5 -5l25.5 -5t23.5 -3l37 -9l25 -43l-359 -381q-12 2 -37 15q-12 6 -28 18z" />
<glyph unicode="&#x15c;" horiz-adv-x="999" d="M113 178q0 29 4 90q2 45 12 76l51 -4q18 -53 58 -104q33 -45 75 -76q49 -35 88 -47q45 -14 101 -15q43 0 88 16.5t80 45t57 71.5q20 39 21 88q0 63 -27 105q-29 43 -72 78q-51 39 -98 63l-117 53q-78 37 -115 58q-57 33 -100 72q-41 39 -69 92q-27 51 -27 125 q0 47 22 104q20 53 72 105q49 49 131 83q78 33 193 33q31 0 96 -8q47 -6 88 -18q53 -16 76 -29q37 -20 51 -37q6 -6 0 -27q-4 -16 -23 -45q-27 -41 -30.5 -47t-14 -18t-14.5 -17l-45 7q-25 37 -57 63q-35 27 -62 41q-35 16 -61 23q-41 8 -60 8q-53 0 -92 -17 q-43 -18 -63 -39q-25 -25 -37 -55q-10 -27 -10 -57q0 -49 26.5 -84t71.5 -68q33 -25 100 -57l53.5 -27.5l63.5 -31.5q78 -41 115 -64q63 -39 102 -78q43 -43 72 -100q27 -53 26 -131q0 -46 -12 -92q-10 -39 -39 -92q-23 -41 -63 -87q-33 -37 -90 -69q-53 -33 -115 -49 q-66 -18 -143 -19q-18 0 -76 8q-43 6 -86 18.5t-86 31.5q-35 14 -76 41q-8 4 -12 36q-2 21 -2 74zM186 1415l271 313h110l269 -313q-4 -6 -23 -31q-8 -12 -27 -21l-274 193l-274 -193q-18 8 -27 21z" />
<glyph unicode="&#x15d;" horiz-adv-x="811" d="M90 147q0 55 4 84q6 47 15 70l55 -10q6 -53 24 -86q20 -37 56 -66q39 -33 75 -45q45 -16 93 -16q70 0 112.5 37t42.5 104q0 43 -20 72q-25 35 -55 57q-41 29 -80 49l-90 47q-47 23 -82 45q-43 27 -72 56q-31 31 -49 67q-20 41 -21 86q0 59 29 111q27 49 70 82 q41 31 102 51q57 18 117 19q35 0 76 -7q27 -4 75 -16q45 -10 70 -23q33 -14 53 -32q4 -4 2 -29q-2 -23 -12 -51q-12 -37 -21 -55q-12 -29 -20 -37l-49 8q-41 80 -90 112q-47 33 -105 33q-31 0 -57 -10q-25 -9 -43 -25q-18 -14 -27 -34q-10 -25 -10 -41q0 -33 18 -58 q23 -31 49.5 -49t71.5 -43q16 -8 84 -45l88 -47q47 -27 78 -57q41 -41 58 -74q23 -45 22 -98q0 -74 -20 -121q-25 -57 -54 -86q-34 -34 -73 -56q-35 -18 -80 -32q-35 -10 -76 -15q-49 -4 -57 -4q-10 0 -34 3t-26 3q-35 4 -67 13q-45 12 -70 22q-41 16 -70 33q-6 2 -8 33 q-2 20 -2 71zM80 1098l271 381h116l265 -381q-16 -25 -23 -33q-8 -12 -27 -21l-274 254l-274 -254q-20 10 -29 21q-2 2 -6 8t-9.5 12.5t-9.5 12.5z" />
<glyph unicode="&#x160;" horiz-adv-x="999" d="M113 178q0 29 4 90q2 45 12 76l51 -4q18 -53 58 -104q33 -45 75 -76q49 -35 88 -47q45 -14 101 -15q43 0 88 16.5t80 45t57 71.5q20 39 21 88q0 63 -27 105q-29 43 -72 78q-51 39 -98 63l-117 53q-78 37 -115 58q-57 33 -100 72q-41 39 -69 92q-27 51 -27 125 q0 47 22 104q20 53 72 105q49 49 131 83q78 33 193 33q31 0 96 -8q47 -6 88 -18q53 -16 76 -29q37 -20 51 -37q6 -6 0 -27q-4 -16 -23 -45q-27 -41 -30.5 -47t-14 -18t-14.5 -17l-45 7q-25 37 -57 63q-35 27 -62 41q-35 16 -61 23q-41 8 -60 8q-53 0 -92 -17 q-43 -18 -63 -39q-25 -25 -37 -55q-10 -27 -10 -57q0 -49 26.5 -84t71.5 -68q33 -25 100 -57l53.5 -27.5l63.5 -31.5q78 -41 115 -64q63 -39 102 -78q43 -43 72 -100q27 -53 26 -131q0 -46 -12 -92q-10 -39 -39 -92q-23 -41 -63 -87q-33 -37 -90 -69q-53 -33 -115 -49 q-66 -18 -143 -19q-18 0 -76 8q-43 6 -86 18.5t-86 31.5q-35 14 -76 41q-8 4 -12 36q-2 21 -2 74zM186 1701l25 33q8 12 27 21l276 -203l272 203q18 -8 27 -21q16 -20 23 -33l-265 -313h-116z" />
<glyph unicode="&#x161;" horiz-adv-x="811" d="M90 147q0 55 4 84q6 47 15 70l55 -10q6 -53 24 -86q20 -37 56 -66q39 -33 75 -45q45 -16 93 -16q70 0 112.5 37t42.5 104q0 43 -20 72q-25 35 -55 57q-41 29 -80 49l-90 47q-47 23 -82 45q-43 27 -72 56q-31 31 -49 67q-20 41 -21 86q0 59 29 111q27 49 70 82 q41 31 102 51q57 18 117 19q35 0 76 -7q27 -4 75 -16q45 -10 70 -23q33 -14 53 -32q4 -4 2 -29q-2 -23 -12 -51q-12 -37 -21 -55q-12 -29 -20 -37l-49 8q-41 80 -90 112q-47 33 -105 33q-31 0 -57 -10q-25 -9 -43 -25q-18 -14 -27 -34q-10 -25 -10 -41q0 -33 18 -58 q23 -31 49.5 -49t71.5 -43q16 -8 84 -45l88 -47q47 -27 78 -57q41 -41 58 -74q23 -45 22 -98q0 -74 -20 -121q-25 -57 -54 -86q-34 -34 -73 -56q-35 -18 -80 -32q-35 -10 -76 -15q-49 -4 -57 -4q-10 0 -34 3t-26 3q-35 4 -67 13q-45 12 -70 22q-41 16 -70 33q-6 2 -8 33 q-2 20 -2 71zM82 1434q6 8 11.5 17t11.5 15q10 14 27 23l276 -242l274 242q16 -8 27 -23q2 -2 7 -8t9.5 -12t8.5 -12l-269 -365h-116z" />
<glyph unicode="&#x164;" horiz-adv-x="1146" d="M8 995q4 31 6 64q2 12 4 35.5t5 35.5q2 25 10 70q2 6 5 27.5t5 32.5h1030l33 -27q0 -16 -4 -57q0 -10 -3 -31t-5 -33q-4 -45 -8.5 -67.5l-12.5 -63.5h-55q-10 45 -17 80q-6 29 -16 55q-10 23 -22 33q-14 10 -35 10h-273v-1034q0 -6 9 -14q10 -10 26 -19q27 -12 51 -20 q33 -10 76 -19v-53h-512v53q49 10 78 19q20 6 49 20q20 10 27 17q8 8 8 16v1034h-285q-16 0 -28.5 -6t-24.5 -27q-25 -45 -31 -57l-37 -94zM229 1701l25 33q8 12 27 21l276 -203l272 203q18 -8 27 -21q16 -20 23 -33l-265 -313h-116z" />
<glyph unicode="&#x168;" horiz-adv-x="1347" d="M47 1206v54h475v-54q-80 -18 -104 -30q-37 -18 -37 -31v-645q0 -193 82 -299.5t256 -106.5q70 0 123 35q57 37 88 88q37 59 53 125q16 63 16 145v658q0 12 -34 31q-23 12 -107 30v54h430v-54q-82 -18 -106 -30q-37 -18 -37 -31v-621q0 -133 -33 -233.5t-96 -173.5 q-61 -72 -150 -109q-90 -39 -194 -39q-100 0 -193 29q-82 27 -151 88q-63 57 -100.5 147.5t-37.5 210.5v701q0 12 -34 31q-23 12 -109 30zM323 1406q20 45 43 84q25 43 56 80q27 33 69 58q39 23 78 22q45 0 78 -16q31 -14 68 -39q16 -10 32.5 -18.5t30.5 -18.5 q28 -18 55 -18q43 0 76 30q37 33 70 90l61 -24q-20 -45 -43 -84q-27 -45 -57 -80q-33 -35 -70 -57q-39 -23 -78 -23q-41 0 -71.5 16.5t-65.5 38.5q-12 8 -36.5 22.5t-28.5 16.5q-27 16 -64 16.5t-74 -32.5q-31 -29 -69 -86z" />
<glyph unicode="&#x169;" horiz-adv-x="1107" d="M39 848v49q33 2 76 10l67 13q12 2 35 9t29 9l69 23l29 -41v-582q0 -66 10 -113q10 -43 29 -69q23 -31 43 -37q31 -10 59 -10q33 0 60 8q41 12 63 24q37 20 72 49q49 41 80 72v443q0 35 -4 71q-2 25 -18.5 41.5t-41.5 22.5q-20 4 -73 8v49q88 10 151 27q78 20 133 37 l33 -41v-656q0 -51 4 -96q3 -34 19 -43q10 -8 38 -4q18 2 78 26l15 -55q-49 -33 -74 -47q-14 -8 -42 -22.5t-30 -16.5q-31 -16 -57.5 -26.5t-36.5 -10.5q-18 0 -35 11q-12 8 -26 32q-10 18 -21 58q-10 37 -12 86q-57 -57 -113 -97q-49 -35 -94 -57q-35 -18 -78 -25 q-49 -8 -67 -8q-39 0 -91 15q-43 12 -77 47q-31 31 -54 94q-20 59 -20 154v426q0 37 -4 73q-4 31 -15 41q-12 12 -36 19q-6 2 -72 10zM198 1126l43 86q20 37 56 78q31 37 69.5 59.5t77.5 22.5q41 0 78 -18q45 -23 68 -37l63 -39q25 -16 55 -16q43 0 76 30q37 33 70 90 l61 -26q-20 -45 -42.5 -84t-57.5 -78q-33 -35 -70 -57q-43 -25 -78 -25q-39 0 -71 18q-31 16 -66 39q-12 8 -34.5 20.5t-30.5 16.5q-31 18 -64 19q-37 0 -74 -33q-31 -29 -69 -86z" />
<glyph unicode="&#x16a;" horiz-adv-x="1347" d="M47 1206v54h475v-54q-80 -18 -104 -30q-37 -18 -37 -31v-645q0 -193 82 -299.5t256 -106.5q70 0 123 35q57 37 88 88q37 59 53 125q16 63 16 145v658q0 12 -34 31q-23 12 -107 30v54h430v-54q-82 -18 -106 -30q-37 -18 -37 -31v-621q0 -133 -33 -233.5t-96 -173.5 q-61 -72 -150 -109q-90 -39 -194 -39q-100 0 -193 29q-82 27 -151 88q-63 57 -100.5 147.5t-37.5 210.5v701q0 12 -34 31q-23 12 -109 30zM323 1480q4 16 9 27l12 33l7 14t7 16l7 14.5l5 10.5h664l25 -27q-4 -16 -9 -26l-12 -33l-8 -16.5t-6 -14.5t-5 -13t-6 -11h-663z" />
<glyph unicode="&#x16b;" horiz-adv-x="1107" d="M39 848v49q33 2 76 10l67 13q12 2 35 9t29 9l69 23l29 -41v-582q0 -66 10 -113q10 -43 29 -69q23 -31 43 -37q31 -10 59 -10q33 0 60 8q41 12 63 24q37 20 72 49q49 41 80 72v443q0 35 -4 71q-2 25 -18.5 41.5t-41.5 22.5q-20 4 -73 8v49q88 10 151 27q78 20 133 37 l33 -41v-656q0 -51 4 -96q3 -34 19 -43q10 -8 38 -4q18 2 78 26l15 -55q-49 -33 -74 -47q-14 -8 -42 -22.5t-30 -16.5q-31 -16 -57.5 -26.5t-36.5 -10.5q-18 0 -35 11q-12 8 -26 32q-10 18 -21 58q-10 37 -12 86q-57 -57 -113 -97q-49 -35 -94 -57q-35 -18 -78 -25 q-49 -8 -67 -8q-39 0 -91 15q-43 12 -77 47q-31 31 -54 94q-20 59 -20 154v426q0 37 -4 73q-4 31 -15 41q-12 12 -36 19q-6 2 -72 10zM198 1202q4 16 9 27q2 8 6 15t6 16q2 6 7 16l7 14l7 14.5t5 12.5h664l25 -27q-4 -16 -9 -26l-12 -33q-2 -8 -4 -12.5t-5 -9.5t-5 -11 q-6 -14 -11 -22h-663z" />
<glyph unicode="&#x16c;" horiz-adv-x="1347" d="M47 1206v54h475v-54q-80 -18 -104 -30q-37 -18 -37 -31v-645q0 -193 82 -299.5t256 -106.5q70 0 123 35q57 37 88 88q37 59 53 125q16 63 16 145v658q0 12 -34 31q-23 12 -107 30v54h430v-54q-82 -18 -106 -30q-37 -18 -37 -31v-621q0 -133 -33 -233.5t-96 -173.5 q-61 -72 -150 -109q-90 -39 -194 -39q-100 0 -193 29q-82 27 -151 88q-63 57 -100.5 147.5t-37.5 210.5v701q0 12 -34 31q-23 12 -109 30zM346 1683q14 20 27 31q14 10 32 20q25 -51 60 -90q41 -45 69 -61q43 -25 74 -33q41 -10 72 -10q27 0 72 10q33 8 75 33q29 16 70 61 q31 33 57 90q37 -16 62 -51q-33 -84 -68 -137q-39 -59 -82 -92q-47 -37 -90 -52q-49 -16 -92 -16q-47 0 -100 16q-41 12 -90 52q-39 31 -80 92q-35 53 -68 137z" />
<glyph unicode="&#x16d;" horiz-adv-x="1107" d="M39 848v49q33 2 76 10l67 13q12 2 35 9t29 9l69 23l29 -41v-582q0 -66 10 -113q10 -43 29 -69q23 -31 43 -37q31 -10 59 -10q33 0 60 8q41 12 63 24q37 20 72 49q49 41 80 72v443q0 35 -4 71q-2 25 -18.5 41.5t-41.5 22.5q-20 4 -73 8v49q88 10 151 27q78 20 133 37 l33 -41v-656q0 -51 4 -96q3 -34 19 -43q10 -8 38 -4q18 2 78 26l15 -55q-49 -33 -74 -47q-14 -8 -42 -22.5t-30 -16.5q-31 -16 -57.5 -26.5t-36.5 -10.5q-18 0 -35 11q-12 8 -26 32q-10 18 -21 58q-10 37 -12 86q-57 -57 -113 -97q-49 -35 -94 -57q-35 -18 -78 -25 q-49 -8 -67 -8q-39 0 -91 15q-43 12 -77 47q-31 31 -54 94q-20 59 -20 154v426q0 37 -4 73q-4 31 -15 41q-12 12 -36 19q-6 2 -72 10zM221 1364q14 20 27 31q14 10 32 20q25 -51 60 -90q41 -45 69 -61q43 -25 74 -33q41 -10 72 -10q27 0 72 10q33 8 75 33q29 16 70 61 q31 33 57 90q37 -16 62 -51q-33 -84 -68 -137q-39 -59 -82 -92q-47 -37 -90 -52q-49 -16 -92 -16q-47 0 -100 16q-41 12 -90 52q-39 31 -80 92q-35 53 -68 137z" />
<glyph unicode="&#x16e;" horiz-adv-x="1347" d="M47 1206v54h475v-54q-80 -18 -104 -30q-37 -18 -37 -31v-645q0 -193 82 -299.5t256 -106.5q70 0 123 35q57 37 88 88q37 59 53 125q16 63 16 145v658q0 12 -34 31q-23 12 -107 30v54h430v-54q-82 -18 -106 -30q-37 -18 -37 -31v-621q0 -133 -33 -233.5t-96 -173.5 q-61 -72 -150 -109q-90 -39 -194 -39q-100 0 -193 29q-82 27 -151 88q-63 57 -100.5 147.5t-37.5 210.5v701q0 12 -34 31q-23 12 -109 30zM487 1523q0 53 19 96q18 41 51 78q27 29 74 52q41 18 82 18q33 0 63 -12q27 -10 51 -35q23 -23 35 -53.5t12 -63.5q0 -55 -20 -96 q-25 -49 -51 -76q-33 -33 -72 -51.5t-82 -18.5q-35 0 -65 13q-27 10 -52 35q-20 20 -32.5 50.5t-12.5 63.5zM592 1564q0 -43 22 -78q20 -33 58 -32q39 0 67 28q31 31 31 80q0 45 -22.5 80t-57.5 35q-18 0 -38.5 -10.5t-30.5 -22.5q-16 -20 -21 -35q-8 -29 -8 -45z" />
<glyph unicode="&#x16f;" horiz-adv-x="1107" d="M39 848v49q33 2 76 10l67 13q12 2 35 9t29 9l69 23l29 -41v-582q0 -66 10 -113q10 -43 29 -69q23 -31 43 -37q31 -10 59 -10q33 0 60 8q41 12 63 24q37 20 72 49q49 41 80 72v443q0 35 -4 71q-2 25 -18.5 41.5t-41.5 22.5q-20 4 -73 8v49q88 10 151 27q78 20 133 37 l33 -41v-656q0 -51 4 -96q3 -34 19 -43q10 -8 38 -4q18 2 78 26l15 -55q-49 -33 -74 -47q-14 -8 -42 -22.5t-30 -16.5q-31 -16 -57.5 -26.5t-36.5 -10.5q-18 0 -35 11q-12 8 -26 32q-10 18 -21 58q-10 37 -12 86q-57 -57 -113 -97q-49 -35 -94 -57q-35 -18 -78 -25 q-49 -8 -67 -8q-39 0 -91 15q-43 12 -77 47q-31 31 -54 94q-20 59 -20 154v426q0 37 -4 73q-4 31 -15 41q-12 12 -36 19q-6 2 -72 10zM362 1204q0 53 19 96q18 41 51 78q27 29 74 52q41 18 82 18q33 0 63 -12q27 -10 51 -35q23 -23 35 -53.5t12 -63.5q0 -55 -20 -96 q-25 -49 -51 -76q-33 -33 -72 -51.5t-82 -18.5q-35 0 -65 13q-27 10 -52 35q-20 20 -32.5 50.5t-12.5 63.5zM467 1245q0 -43 22 -78q20 -33 58 -32q39 0 67 28q31 31 31 80q0 45 -22.5 80t-57.5 35q-18 0 -38.5 -10.5t-30.5 -22.5q-16 -20 -21 -35q-8 -29 -8 -45z" />
<glyph unicode="&#x170;" horiz-adv-x="1347" d="M47 1206v54h475v-54q-80 -18 -104 -30q-37 -18 -37 -31v-645q0 -193 82 -299.5t256 -106.5q70 0 123 35q57 37 88 88q37 59 53 125q16 63 16 145v658q0 12 -34 31q-23 12 -107 30v54h430v-54q-82 -18 -106 -30q-37 -18 -37 -31v-621q0 -133 -33 -233.5t-96 -173.5 q-61 -72 -150 -109q-90 -39 -194 -39q-100 0 -193 29q-82 27 -151 88q-63 57 -100.5 147.5t-37.5 210.5v701q0 12 -34 31q-23 12 -109 30zM453 1396l168 416q4 -2 14 -3t17 -1q25 -4 39 -6t38 -6q4 0 27 -9l27 -45l-265 -379q-14 2 -30 13zM754 1396l168 416q4 -2 14 -3 t17 -1q25 -4 39 -6t38 -6q6 -2 15.5 -5.5t11.5 -3.5l27 -45l-264 -379q-16 2 -33 13q-21 12 -33 20z" />
<glyph unicode="&#x171;" horiz-adv-x="1107" d="M39 848v49q33 2 76 10l67 13q12 2 35 9t29 9l69 23l29 -41v-582q0 -66 10 -113q10 -43 29 -69q23 -31 43 -37q31 -10 59 -10q33 0 60 8q41 12 63 24q37 20 72 49q49 41 80 72v443q0 35 -4 71q-2 25 -18.5 41.5t-41.5 22.5q-20 4 -73 8v49q88 10 151 27q78 20 133 37 l33 -41v-656q0 -51 4 -96q3 -34 19 -43q10 -8 38 -4q18 2 78 26l15 -55q-49 -33 -74 -47q-14 -8 -42 -22.5t-30 -16.5q-31 -16 -57.5 -26.5t-36.5 -10.5q-18 0 -35 11q-12 8 -26 32q-10 18 -21 58q-10 37 -12 86q-57 -57 -113 -97q-49 -35 -94 -57q-35 -18 -78 -25 q-49 -8 -67 -8q-39 0 -91 15q-43 12 -77 47q-31 31 -54 94q-20 59 -20 154v426q0 37 -4 73q-4 31 -15 41q-12 12 -36 19q-6 2 -72 10zM328 1077l168 416q4 -2 14 -3t17 -1q25 -4 39 -6t38 -6q4 0 27 -9l27 -45l-265 -379q-14 2 -30 13zM629 1077l168 416q4 -2 14 -3t17 -1 q25 -4 39 -6t38 -6q6 -2 15.5 -5.5t11.5 -3.5l27 -45l-264 -379q-16 2 -33 13q-21 12 -33 20z" />
<glyph unicode="&#x174;" horiz-adv-x="1740" d="M20 1206v54h449v-54q-47 -6 -76 -12q-27 -6 -41 -16.5t-16 -18.5q-4 -10 0 -22l188 -842l316 965h69l346 -965l181 850q2 10 -11 20q-16 12 -30.5 16.5t-51.5 12.5q-18 4 -63 12v54h432v-54q-70 -14 -74 -16q-10 -4 -24.5 -9l-20.5 -7q-16 -6 -24 -14.5t-8 -14.5 l-230 -1086q-6 -20 -22 -36q-18 -18 -37 -27q-25 -10 -45 -16q-33 -10 -37 -11l-332 953l-287 -863q-6 -22 -24 -36q-20 -16 -39 -25q-41 -16 -45 -18q-35 -8 -45 -11l-260 1168q-6 27 -35 41q-33 16 -103 28zM540 1415l271 313h110l269 -313q-4 -6 -23 -31q-8 -12 -27 -21 l-274 193l-274 -193q-18 8 -27 21z" />
<glyph unicode="&#x175;" horiz-adv-x="1452" d="M18 877v53h408v-53q-70 -10 -74 -11q-23 -6 -37 -16q-12 -10 -12 -16q0 -12 2 -19l176 -582l244 697h72l258 -697l162 582q6 23 -15 37q-14 10 -92 25v53h326v-53q-31 -6 -50 -13q-14 -4 -28 -14q-8 -6 -15 -14q-4 -8 -8 -21l-221 -756q-6 -25 -24 -39q-20 -16 -39 -24 q-33 -14 -41 -16q-6 -2 -18.5 -5.5t-16.5 -5.5l-244 647l-205 -557q-12 -29 -24 -39q-27 -23 -37 -26q-18 -8 -41 -14q-6 -2 -17.5 -5.5t-15.5 -5.5l-264 846q-13 42 -109 62zM426 1098l271 381h116l265 -381q-16 -25 -23 -33q-8 -12 -27 -21l-274 254l-274 -254 q-20 10 -29 21q-2 2 -6 8t-9.5 12.5t-9.5 12.5z" />
<glyph unicode="&#x176;" horiz-adv-x="1228" d="M0 1247q8 0 28.5 3t32.5 5q23 2 64 6.5l59.5 6.5t48.5 2q23 0 48 -10q20 -8 38 -31q31 -41 80 -115l84 -137q68 -115 84 -148l74 -149l258 461q16 25 -10 41q-25 16 -101 24v54h404v-54q-72 -12 -104.5 -26.5t-49.5 -38.5l-331 -604v-412q0 -6 8 -14q10 -10 26 -19 q29 -14 50 -20q25 -8 79 -19v-53h-516v53q82 16 127 39q35 18 35 33v410q-49 109 -82 167l-94 168q-59 100 -94 154l-80 117q-8 12 -21 20q-16 12 -28 17q-35 10 -43 12q-37 4 -70 4zM286 1415l271 313h110l269 -313q-4 -6 -23 -31q-8 -12 -27 -21l-274 193l-274 -193 q-18 8 -27 21z" />
<glyph unicode="&#x177;" horiz-adv-x="1019" d="M-51 -440q0 12 12 28q6 8 17.5 21.5t17.5 21.5q18 25 41 47q18 18 39 31q53 -31 96 -33q11 -1 22 0q38 0 64 11q16 6 41 26q14 12 45 47q16 18 45 68q25 43 41 80l29 69l-330 832q-8 27 -35 43q-14 10 -76 25v53h408v-53q-59 -8 -64 -11q-20 -6 -34 -12 q-12 -6 -12.5 -18.5t6.5 -26.5l231 -592l219 592q4 10 4 25q0 12 -12 18q-20 10 -35 14q-2 0 -59 11v53h331v-53q-31 -6 -49 -13q-6 -2 -30 -14q-12 -6 -19 -16q-2 -2 -10 -25l-336 -889q-45 -117 -92 -188q-51 -80 -107 -131q-49 -45 -114 -74q-59 -25 -113 -25 q-37 0 -70 6q-51 10 -59 13q-12 4 -39 20q-14 9 -14 19zM207 1098l271 381h116l265 -381q-16 -25 -23 -33q-8 -12 -27 -21l-274 254l-274 -254q-20 10 -29 21q-2 2 -6 8t-9.5 12.5t-9.5 12.5z" />
<glyph unicode="&#x178;" horiz-adv-x="1228" d="M0 1247q8 0 28.5 3t32.5 5q23 2 64 6.5l59.5 6.5t48.5 2q23 0 48 -10q20 -8 38 -31q31 -41 80 -115l84 -137q68 -115 84 -148l74 -149l258 461q16 25 -10 41q-25 16 -101 24v54h404v-54q-72 -12 -104.5 -26.5t-49.5 -38.5l-331 -604v-412q0 -6 8 -14q10 -10 26 -19 q29 -14 50 -20q25 -8 79 -19v-53h-516v53q82 16 127 39q35 18 35 33v410q-49 109 -82 167l-94 168q-59 100 -94 154l-80 117q-8 12 -21 20q-16 12 -28 17q-35 10 -43 12q-37 4 -70 4zM295 1497q0 29 10 59q8 23 28 47q12 14 41 31q23 12 50 12q96 0 96 -104q0 -27 -10 -58 q-8 -27 -27 -47t-41 -33q-25 -12 -51 -12q-53 0 -74 27q-22 29 -22 78zM702 1497q0 29 10 59q8 23 29 47q16 18 41 30.5t49 12.5q96 0 96 -104q0 -27 -10 -58q-8 -27 -26.5 -47t-40.5 -33q-25 -12 -52 -12q-49 0 -73 27q-23 25 -23 78z" />
<glyph unicode="&#x179;" horiz-adv-x="1085" d="M57 47l699 1104h-437q-16 0 -36 -14q-20 -12 -37 -39q-23 -35 -35 -66q-18 -47 -29 -92l-65 14l30 322q41 -8 50 -10q29 -4 45 -4q8 0 22.5 -1t22.5 -1h684l28 -46l-694 -1103h502q25 0 39 10q12 8 31 37q20 33 32 67q23 61 35 105l66 -17q-4 -41 -4 -73q-2 -23 -2 -43.5 v-42.5l-5 -84q-2 -41 -2 -70h-909zM379 1417l379 323q4 -4 16.5 -9t18.5 -9l41 -25l36 -24q18 -12 25 -19l10 -47l-475 -244q-12 6 -26 21q-4 4 -12.5 15.5t-12.5 17.5z" />
<glyph unicode="&#x17a;" horiz-adv-x="921" d="M72 45l544 784h-317q-18 0 -35 -8q-23 -10 -35 -26q-14 -16 -30 -54q-14 -31 -27 -82l-55 17l20 270l39 -10q25 -4 39 -4q6 0 19.5 -1t21.5 -1h571l23 -43l-549 -787h395q31 0 52 45q20 43 45 144l55 -13q0 -10 -1 -33.5t-1 -37.5q0 -12 -1 -39t-1 -41q0 -29 -4 -74 q0 -8 -1 -26.5t-3 -24.5h-740zM373 1077l225 420q4 0 37 -4q8 0 24.5 -3t26.5 -5l25.5 -5t23.5 -3l37 -9l25 -43l-359 -381q-12 2 -37 15q-12 6 -28 18z" />
<glyph unicode="&#x17b;" horiz-adv-x="1085" d="M57 47l699 1104h-437q-16 0 -36 -14q-20 -12 -37 -39q-23 -35 -35 -66q-18 -47 -29 -92l-65 14l30 322q41 -8 50 -10q29 -4 45 -4q8 0 22.5 -1t22.5 -1h684l28 -46l-694 -1103h502q25 0 39 10q12 8 31 37q20 33 32 67q23 61 35 105l66 -17q-4 -41 -4 -73q-2 -23 -2 -43.5 v-42.5l-5 -84q-2 -41 -2 -70h-909zM448 1497q0 29 11 59q8 23 28 47q16 18 41 30.5t49 12.5q96 0 97 -104q0 -27 -11 -58q-8 -27 -26.5 -47t-40.5 -33q-25 -12 -51 -12q-47 0 -72 27t-25 78z" />
<glyph unicode="&#x17c;" horiz-adv-x="921" d="M72 45l544 784h-317q-18 0 -35 -8q-23 -10 -35 -26q-14 -16 -30 -54q-14 -31 -27 -82l-55 17l20 270l39 -10q25 -4 39 -4q6 0 19.5 -1t21.5 -1h571l23 -43l-549 -787h395q31 0 52 45q20 43 45 144l55 -13q0 -10 -1 -33.5t-1 -37.5q0 -12 -1 -39t-1 -41q0 -29 -4 -74 q0 -8 -1 -26.5t-3 -24.5h-740zM375 1219q0 27 11 57q8 23 28 47q18 20 41 33q20 10 49 10q96 0 97 -102q0 -29 -11 -60q-8 -27 -26 -47q-18 -23 -41 -33q-25 -12 -51 -12q-47 0 -72 29q-25 27 -25 78z" />
<glyph unicode="&#x17d;" horiz-adv-x="1085" d="M57 47l699 1104h-437q-16 0 -36 -14q-20 -12 -37 -39q-23 -35 -35 -66q-18 -47 -29 -92l-65 14l30 322q41 -8 50 -10q29 -4 45 -4q8 0 22.5 -1t22.5 -1h684l28 -46l-694 -1103h502q25 0 39 10q12 8 31 37q20 33 32 67q23 61 35 105l66 -17q-4 -41 -4 -73q-2 -23 -2 -43.5 v-42.5l-5 -84q-2 -41 -2 -70h-909zM237 1701l25 33q8 12 27 21l276 -203l272 203q18 -8 27 -21q16 -20 23 -33l-265 -313h-116z" />
<glyph unicode="&#x17e;" horiz-adv-x="921" d="M72 45l544 784h-317q-18 0 -35 -8q-23 -10 -35 -26q-14 -16 -30 -54q-14 -31 -27 -82l-55 17l20 270l39 -10q25 -4 39 -4q6 0 19.5 -1t21.5 -1h571l23 -43l-549 -787h395q31 0 52 45q20 43 45 144l55 -13q0 -10 -1 -33.5t-1 -37.5q0 -12 -1 -39t-1 -41q0 -29 -4 -74 q0 -8 -1 -26.5t-3 -24.5h-740zM163 1434q6 8 11.5 17t11.5 15q10 14 27 23l276 -242l274 242q16 -8 27 -23q2 -2 7 -8t9.5 -12t8.5 -12l-269 -365h-116z" />
<glyph unicode="&#x181;" horiz-adv-x="1406" d="M29 993q0 70 38.5 123t116.5 94q70 37 191 60q109 20 262 20q63 0 154 -4q33 -2 122 -16q45 -8 99 -27q35 -12 78 -41q47 -33 73 -78q27 -47 27 -104q0 -106 -53 -184q-51 -76 -150 -113q72 -12 127 -45q53 -31 98 -82q41 -47 66 -109q23 -57 22 -131q0 -88 -32.5 -153.5 t-96.5 -116.5q-61 -49 -151 -74q-96 -27 -197 -26h-53q-10 0 -32.5 1t-35.5 1q-18 0 -36.5 1t-38.5 1q-27 0 -76 4q-119 4 -184 6h-72v53q72 16 106 31q37 15 37 31v1073q-59 -12 -90 -21q-43 -12 -67 -32q-27 -20 -43.5 -47t-16.5 -60q0 -39 21 -67q20 -31 51 -46 q-4 -8 -23 -18q-37 -20 -49 -27l-55 -24q-23 -10 -51 -15q-37 14 -62 60q-24 43 -24 102zM629 115q0 -6 8 -15q23 -10 76 -16q45 -6 84 -6q71 0 129 18q59 18 98 51t59 78q23 49 23 103q0 55 -19 110q-20 59 -57 103q-41 49 -98 73q-63 29 -150 29q-33 0 -82 -4t-71 -8v-516 zM629 729h28q104 0 176 22.5t107 55.5q37 33 49 78q12 43 12 86q0 49 -18 92q-20 47 -53 72q-14 12 -47 28q-23 12 -62 19q-59 10 -82 12q-61 4 -110 4v-469z" />
<glyph unicode="&#x186;" horiz-adv-x="1110" d="M55 279q0 37 15 86q12 41 47 79q22 12 49 25q37 16 55 23q10 4 24.5 8t28.5 10q4 2 20.5 8t22.5 8l27 -59q-37 -25 -47 -35q-18 -18 -27 -35q-12 -23 -14 -43q-2 -14 -2 -51q0 -39 16 -72q18 -39 52 -67q34 -31 79 -49q51 -20 103 -21q66 0 129 29q61 27 108 90 q51 68 78 168q29 109 29 260q0 133 -37 231q-35 94 -96.5 162t-130.5 96q-74 31 -146 31q-25 0 -59 -6q-37 -6 -76 -20q-37 -12 -92 -41q-49 -25 -111 -68l-10 10q-8 8 -12 15q-6 8 -10.5 16t-8.5 12q74 72 129 107q68 45 119 65q45 18 111 31q47 8 104 8q94 0 189 -41 q98 -43 166 -119q74 -82 114 -192q45 -119 45 -260q0 -160 -43 -289q-43 -131 -121 -223q-78 -94 -184 -146q-104 -51 -231 -51q-98 0 -178 29q-70 25 -125 74q-49 43 -74 98.5t-25 108.5z" />
<glyph unicode="&#x189;" d="M27 639q6 25 12 39q2 4 14 37h137v463q-20 -2 -38.5 -5.5t-36.5 -5.5q-10 -2 -33 -5t-35 -5l-10 74q18 4 106 22q12 2 129 19q90 12 136 14q90 4 131 4q150 0 258 -41q119 -45 194 -121q80 -80 123 -192q41 -109 41 -260q0 -125 -25 -223q-23 -90 -69 -174 q-45 -78 -100 -129q-61 -55 -121 -86t-131.5 -47.5t-128.5 -16.5h-533v53q72 16 107 31q37 15 36 31v499h-141zM381 164q0 -27 6 -37q10 -16 51 -27q33 -8 115 -8q68 0 135 33q76 37 129 98q63 74 98 170q37 102 37 244q0 133 -30 237q-31 106 -93 177q-66 76 -151 110 q-88 37 -207 37q-59 0 -90 -2v-481h252l24 -23l-28 -78h-248v-450z" />
<glyph unicode="&#x18a;" horiz-adv-x="1490" d="M29 993q0 78 45 131q47 57 129 93q84 37 211 55q123 18 282 18q80 0 148 -6q76 -6 121 -14t98 -27q45 -16 82 -41q76 -49 121 -102q49 -59 80 -125q31 -68 43 -144q14 -90 14 -155q0 -125 -25 -223q-23 -90 -69 -174q-45 -78 -101 -129q-61 -55 -121 -87 q-57 -31 -129 -47q-70 -16 -127 -16h-536v53q72 16 106 31q37 15 37 31v1073q-113 -18 -166 -58q-55 -41 -55 -102q0 -35 19 -65q16 -27 53 -48q-2 -2 -25 -18q-31 -20 -45 -27l-55 -24q-25 -10 -49 -15q-43 23 -64 64q-22 45 -22 98zM629 164q0 -25 12 -39q14 -18 53 -25 q49 -8 107 -8q66 0 133 33q78 37 131 98q57 68 98 170q37 94 37 244q0 137 -37 254q-37 115 -127 199q-29 27 -71 51q-35 20 -84.5 32.5t-110.5 18.5t-141 6v-1034z" />
<glyph unicode="&#x18e;" horiz-adv-x="1038" d="M63 29q0 8 5 41q6 43 8 55q2 14 5 28.5t5 30.5q2 10 5 29.5t5 30.5q6 29 10 51q2 6 5.5 18.5t5.5 16.5h53q2 -16 5 -45t3 -43q3 -43 12 -74q10 -33 21 -49q12 -18 31 -19h204q49 0 103 4q40 3 61 13q25 10 29 22q8 20 8 33v473h-209q-6 0 -23.5 -1t-27.5 -1q-18 0 -55 -4 t-53 -6l-41 -8l-27 28l20 31q16 25 27 37l27 33q8 10 24 22q18 -18 33 -22q23 -8 41 -11q29 -4 53 -4h72h139v420h-235q-57 0 -78 -4q-33 -6 -58 -25q-20 -14 -43 -51q-14 -23 -40 -94l-54 21q4 53 8 81q2 10 5.5 36t5.5 38q6 37 12 60q2 8 8 39h801v-54q-68 -15 -105 -30 q-37 -16 -36 -29v-1032q0 -10 34 -29q29 -16 107 -33v-53h-881z" />
<glyph unicode="&#x190;" horiz-adv-x="1052" d="M76 286.5q0 55.5 18 110.5q16 47 51 101q31 47 76 81.5t88 55.5q-94 33 -147 102.5t-53 167.5q0 86 49 164t139 133q61 37 141 64q78 25 160 24q108 0 203 -24q98 -25 162 -80q-16 -35 -45 -78q-33 -49 -52 -74l-53 13q-18 18 -55 51q-27 23 -62 41q-29 14 -69.5 24.5 t-81.5 10.5q-51 0 -101 -19q-53 -20 -86 -47q-39 -33 -59 -74t-20 -94q0 -45 16 -80q16 -37 61 -72q41 -31 115 -53q82 -25 184 -26v-84q-104 -6 -176 -33q-76 -29 -121 -68q-53 -45 -71 -86q-23 -49 -23 -92q0 -47 23 -92q25 -49 59 -76q45 -35 94 -51t117 -16q61 0 90 4 q47 6 84 22q43 18 92 49t111 80l45 -53q-61 -68 -119 -113q-63 -49 -121 -75q-66 -29 -127 -41q-76 -14 -143 -15q-100 0 -174 31q-72 31 -123 78q-49 45 -74 102q-22 51 -22 106.5z" />
<glyph unicode="&#x192;" horiz-adv-x="612" d="M-272 -422q0 8 16 29q10 12 39 37q14 12 47 37q25 18 41 26q43 -37 76 -47q31 -10 73 -10q25 0 54 16q27 14 49 60q20 39 33 120q14 90 14 199v780h-129l-23 31l78 74h74v31q0 115 14 186q16 82 41 131q27 53 62 94q29 33 73 72q18 16 64 45q10 6 68 33q31 14 63 20 q41 8 55 8q35 0 72 -12q43 -14 67.5 -26.5t49.5 -32.5q18 -15 18 -25q0 -14 -14 -31l-39 -39q-6 -6 -47 -36q-29 -20 -37 -25q-49 49 -98.5 71.5t-71.5 22.5q-31 0 -57 -18q-31 -20 -52 -66q-23 -47 -36 -125q-14 -74 -15 -198v-80h256l31 -31q-4 -6 -11.5 -15.5 t-11.5 -15.5q-12 -18 -26 -32q-6 -6 -14.5 -15.5t-12.5 -13.5q-12 -12 -24 -16q-20 12 -66 24q-37 10 -121 10v-727q0 -125 -16 -196q-16 -74 -47 -138q-23 -47 -66 -94q-31 -33 -78 -69q-18 -14 -59 -39q-31 -18 -61 -31q-55 -23 -58 -23q-27 -6 -51 -6q-37 0 -68 9 q-23 6 -59 22q-28 12 -43 25q-16 12 -16 20z" />
<glyph unicode="&#x197;" horiz-adv-x="628" d="M43 635l12 37l15 39h141v434q0 10 -37 31q-23 12 -106 30v54h475v-54q-80 -18 -105 -30q-39 -20 -39 -31v-434h146l24 -25l-28 -76h-142v-495q0 -12 37 -31q27 -14 107 -31v-53h-475v53q68 15 104 31q39 16 39 31v495h-145z" />
<glyph unicode="&#x198;" horiz-adv-x="1280" d="M47 0v53q72 16 107 31q37 15 36 31v1030q0 12 -34 31q-23 12 -109 30v54h475v-54q-80 -18 -104 -30q-37 -18 -37 -31v-494l354 453q63 82 135 125q68 41 154 41q47 0 90 -13q39 -10 74 -43q31 -29 49 -69q18 -43 18 -105q0 -12 -4 -53q-2 -16 -10 -55q-4 -10 -24 -23 q-41 -23 -50 -26l-61 -25q-31 -12 -55 -18l-25 34q20 47 29 78q12 53 12 68q-4 59 -27 86q-25 27 -61 27q-20 0 -36.5 -8.5t-35.5 -20.5q-12 -8 -33 -29q-10 -10 -30 -35l-305 -366l485 -535q33 -39 78 -45q43 -6 94 0l8 -51q-14 -4 -30.5 -10t-30.5 -10l-64 -19 q-12 -4 -33.5 -8t-25.5 -4q-29 -6 -53 -6q-27 0 -52 10q-23 10 -43 33l-491 606v-520q0 -12 35 -31q25 -14 106 -31v-53h-475z" />
<glyph unicode="&#x199;" horiz-adv-x="1058" d="M53 0v53q57 16 101 31q37 12 36 31v782q0 119 19 205q18 88 49 151q27 57 76 113q33 37 100 90q27 20 64 41q18 10 69 29q34 12 68 18q33 6 57 6q49 0 90 -16q37 -14 82 -41q31 -18 60 -43q25 -20 24 -33q0 -8 -16 -28q-10 -12 -39 -41q-6 -6 -47 -37q-27 -18 -39 -25 q-43 53 -102 92q-57 37 -119 37q-37 0 -72 -20q-39 -23 -70 -76q-33 -55 -53 -143.5t-20 -233.5v-412l293 258q31 29 41 48q8 18 0 26q-10 10 -29 12q-14 2 -47 3v53h397v-53q-53 -8 -82 -17q-37 -10 -82 -47l-330 -258l371 -430q23 -23 29 -27q20 -12 33 -16q18 -6 39 -6 h53l6 -53l-62 -13q-43 -8 -57 -10q-10 -2 -27.5 -5t-21.5 -3q-14 -2 -33 -2q-43 0 -69.5 12t-49.5 41l-372 475v-403q0 -10 2 -15q4 -6 14 -12q4 -2 16.5 -7t18.5 -7q14 -6 57 -21v-53h-426z" />
<glyph unicode="&#x19a;" horiz-adv-x="671" d="M63 756q2 4 5.5 17t7.5 22q2 2 7 17t9 22h156v452q0 45 -6 69.5t-23 37.5q-20 16 -41 18q-55 6 -69 8v51q14 2 40.5 7.5l36.5 7.5q25 4 70 16q37 10 66 21q12 4 65 28l39 -37v-679h164l20 -25l-28 -76h-156v-618q0 -16 33 -31q35 -16 114 -31v-53h-475v53q20 2 72 15 q6 2 45 14q18 6 25 16q8 12 8 17v618h-162z" />
<glyph unicode="&#x19d;" horiz-adv-x="1337" d="M-270 -307q0 8 14 24q20 25 37 39q18 16 45 35q25 18 37 23q27 -23 47 -35q29 -16 43 -21l39 -10q25 -4 39 -4q31 0 57 18q31 20 51 62q23 43 37 113q14 66 14 176v1024q-31 27 -69 47q-31 16 -74 22v54h236q18 0 24 -3q12 -4 19 -10q4 -4 20 -24q4 -6 13.5 -16.5 t19.5 -24.5l641 -887v850q0 6 -6 14q-2 2 -25 17q-15 9 -43 18q-10 4 -67 12v54h413v-54q-66 -8 -106 -28q-35 -18 -35 -33v-1176q-59 6 -104 27q-31 14 -56 43l-672 930v-789q0 -111 -8 -174q-10 -78 -26 -125q-23 -61 -43 -92q-23 -33 -66 -72q-23 -18 -59 -43 q-27 -18 -66 -34q-31 -14 -69 -25q-31 -8 -60 -8q-33 0 -69 10q-29 8 -62 23q-29 12 -45 26.5t-16 26.5z" />
<glyph unicode="&#x19f;" d="M66 612q0 135 43 258q43 121 122 217q76 92 183 148q104 55 227 55q125 0 223.5 -55t162 -143t97.5 -207q33 -113 33 -238q0 -137 -45 -258q-49 -129 -125 -217q-82 -94 -182 -147q-104 -55 -221 -56q-123 0 -219 54q-94 51 -164 143q-66 88 -101 205q-34 120 -34 241z M254 610q4 -109 32.5 -201t80.5 -163q49 -70 114.5 -111t134.5 -41q78 0 142 33q65 34 110 98q43 59 72 160q27 94 31 225h-717zM256 711h711q-10 94 -39 174t-78 147q-43 61 -109 101q-61 37 -137 36q-78 0 -139.5 -30.5t-106.5 -91.5q-45 -59 -71 -146q-25 -75 -31 -190z " />
<glyph unicode="&#x1a0;" d="M66 612q0 135 43 258q43 121 122 217q76 92 183 148q104 55 227 55q90 0 166 -28q70 -27 133 -80q47 31 72 69q20 33 20 60q0 33 -14 55q-16 27 -45 49l205 92q27 -25 41 -51q16 -33 16 -63q0 -29 -12 -60q-14 -35 -39 -65q-35 -43 -74 -74q-43 -35 -109 -72 q76 -90 117 -217q39 -119 39 -258q0 -137 -45 -258q-49 -129 -125 -217q-82 -94 -182 -147q-104 -55 -221 -56q-123 0 -219 54q-94 51 -164 143q-66 88 -101 205q-34 120 -34 241zM254 641q0 -109 29 -211q29 -98 77 -174q49 -74 117 -117q72 -45 139 -45q78 0 143.5 35 t110.5 100q47 68 74 168q27 98 27 232q0 70 -13 137q-10 57 -34 127q-16 49 -54 111q-27 43 -73 88q-37 35 -90 57q-47 20 -103 20q-84 0 -149 -36q-65 -37 -111 -105q-41 -59 -68 -168q-22 -90 -22 -219z" />
<glyph unicode="&#x1a1;" horiz-adv-x="1134" d="M76 444q0 59 16 129q16 68 45 123q27 51 74 104.5t94 84.5q53 35 112.5 55.5t125.5 20.5q96 0 170 -33q76 -33 131 -92q47 33 69 67q20 33 21 58q0 29 -16.5 55t-45.5 49l205 92q27 -25 41 -51q16 -33 17 -64q0 -27 -13 -59q-8 -25 -41 -68q-28 -37 -73 -73 q-49 -39 -113 -74q37 -57 55 -131q20 -78 21 -152q0 -96 -39 -192q-39 -100 -101 -166q-68 -74 -149 -115q-86 -43 -178 -43q-96 0 -176 37q-84 39 -135 98q-55 63 -87 152q-30 86 -30 188zM262 473q0 -80 25 -149q25 -74 63 -123q43 -55 88 -84q49 -31 94 -31q70 0 115 25 q47 25 78 71q25 37 43 117q14 63 14 152q0 76 -22 149q-20 70 -60 127q-37 55 -86 86q-53 33 -100 33q-70 0 -121 -29q-45 -25 -76 -80q-29 -51 -41 -116q-14 -80 -14 -148z" />
<glyph unicode="&#x1a9;" horiz-adv-x="1081" d="M53 45l430 584l-407 585v46h692q74 0 106 2q51 4 107 14l4 -315l-65 -15q-20 80 -35 115q-20 47 -35 61q-23 23 -35 25q-20 4 -31 4h-448l326 -477l-381 -516h530q29 0 53 10q20 8 35 33q16 27 31 65q4 12 9 29.5l11 40t11 39.5l63 -15q-3 -40 -6 -92l-6 -100 q-4 -51 -8.5 -96t-6.5 -72h-909z" />
<glyph unicode="&#x1aa;" horiz-adv-x="735" d="M25 1280q0 45 24 94q23 47 66 86q47 43 102 66q61 25 133 24q63 0 115 -28q45 -25 78 -78q29 -47 45 -111q14 -57 14 -127q0 -205 -6 -309l-18 -309l-17 -297q-8 -129 -8 -271q0 -111 10 -198q9 -80 31 -129q20 -45 49 -68q27 -20 68 -20q31 0 51 14q25 18 37 39 q10 18 14 47q2 25 -10 47q-2 2 8 10q12 8 29 17q6 4 20 9t21 7q29 12 43 17q29 8 41 10q23 4 28 2l23 -43q3 -43 -25 -92q-23 -39 -80 -90q-41 -35 -118 -68q-70 -29 -148 -29q-71 0 -123 31q-55 33 -90 92q-33 55 -51 144q-18 86 -19 190q0 96 9 301q4 102 16 303l19 291 q8 125 8 266v21q0 2 -1 8t-1 10q-45 -45 -90 -63q-47 -18 -96.5 -18.5t-84.5 14.5q-39 16 -61 41q-27 29 -41 65q-14 35 -14 82zM174 1331q0 -25 10.5 -49.5t22.5 -36.5q16 -16 32.5 -24.5t43.5 -8.5q41 0 69 21q25 18 49 45q-12 80 -43 127q-31 45 -79 45q-18 0 -39 -10 q-16 -8 -33 -25q-12 -12 -22.5 -36.5t-10.5 -47.5z" />
<glyph unicode="&#x1af;" horiz-adv-x="1431" d="M47 1206v54h475v-54q-80 -18 -104 -30q-37 -18 -37 -31v-645q0 -193 82 -299.5t256 -106.5q70 0 123 35q57 37 88 88q37 59 53 125q16 63 16 145v658q0 12 -34 31q-23 12 -107 30v54h356q16 29 17 51q0 29 -16.5 55.5t-45.5 48.5l207 92q27 -25 41 -51q16 -33 17 -63 q0 -25 -16.5 -64t-47.5 -76q-33 -39 -90 -79q-55 -40 -135 -80v-570q0 -133 -33 -233.5t-96 -173.5q-61 -72 -150 -109q-90 -39 -194 -39q-100 0 -193 29q-82 27 -151 88q-63 57 -100.5 147.5t-37.5 210.5v701q0 12 -34 31q-23 12 -109 30z" />
<glyph unicode="&#x1b0;" horiz-adv-x="1298" d="M39 848v49q33 2 76 10l67 13q12 2 35 9t29 9l69 23l29 -41v-582q0 -66 10 -113q10 -43 29 -69q23 -31 43 -37q31 -10 59 -10q33 0 60 8q41 12 63 24q37 20 72 49q49 41 80 72v443q0 35 -4 71q-2 25 -18.5 41.5t-41.5 22.5q-20 4 -73 8v49q88 10 151 27q78 20 133 37 l33 -41v-125q43 22 74 43q20 14 47 45q16 18 26.5 42.5t10.5 35.5q0 29 -16.5 55t-45.5 49l205 92q27 -25 41 -51q16 -33 16 -63.5t-18 -71.5q-20 -45 -59 -84q-49 -49 -111 -88q-70 -45 -170 -84v-451q0 -51 4 -96q3 -34 19 -43q10 -8 38 -4q18 2 78 26l15 -55 q-49 -33 -74 -47q-14 -8 -42 -22.5t-30 -16.5q-31 -16 -57.5 -26.5t-36.5 -10.5q-18 0 -35 11q-12 8 -26 32q-10 18 -21 58q-10 37 -12 86q-57 -57 -113 -97q-49 -35 -94 -57q-35 -18 -78 -25q-49 -8 -67 -8q-39 0 -91 15q-43 12 -77 47q-31 31 -54 94q-20 59 -20 154v426 q0 37 -4 73q-4 31 -15 41q-12 12 -36 19q-6 2 -72 10z" />
<glyph unicode="&#x1b3;" horiz-adv-x="1409" d="M0 1247q8 0 28.5 3t32.5 5q23 2 64 6.5l59.5 6.5t48.5 2q51 0 86 -41q43 -57 80 -113l86 -137q14 -27 82 -150q31 -57 76 -149l231 420q14 27 56 86q27 39 63 69q33 27 82 48q47 18 107 18q47 0 90 -18q39 -16 71.5 -49t47.5 -70q16 -43 16 -82q0 -4 -1 -13.5t-1 -13.5 q0 -18 -2 -26l-6 -25l-4 -16q-6 -12 -29 -27q-16 -10 -57 -31l-62 -24q-27 -10 -45 -15l-18 39q10 18 26 56q12 27 13 63q0 49 -25 82q-25 35 -70 35q-37 0 -69.5 -33t-52.5 -74l-295 -542v-412q0 -6 8 -14q10 -10 26 -19q29 -14 50 -20q29 -8 77 -19v-53h-514v53 q82 16 127 39q35 18 35 33v407q-37 80 -84 168q-61 115 -94 170l-94 152l-80 119q-8 12 -21 20q-16 12 -28 17q-35 10 -43 12q-37 4 -70 4z" />
<glyph unicode="&#x1b4;" horiz-adv-x="1019" d="M-53 -440q0 8 12 26q4 6 16.5 21.5t16.5 21.5q18 25 40.5 47.5t41.5 32.5q37 -23 71 -28q34 -6 56 -7q33 0 61 15q35 18 64 43q29 27 59 73q33 49 51 105l25 61l-332 838q-8 27 -35 43q-14 10 -76 25v53h408v-53q-59 -8 -64 -11q-20 -6 -34 -12q-12 -6 -12.5 -18.5 t6.5 -26.5l231 -592l244 676q47 127 100 203q55 80 113 125q61 49 114 65q59 18 107 19q41 0 61 -5q37 -8 56 -14q27 -10 41 -18q16 -10 16 -21q0 -6 -12 -26q-12 -22 -31 -43q-12 -14 -43 -45q-23 -23 -41 -35q-47 29 -72 30q-45 4 -55 5q-66 0 -127 -61.5t-104 -178.5 l-367 -985q-43 -117 -98 -199q-55 -80 -112.5 -125t-115.5 -63q-59 -18 -104 -19q-31 0 -62 6q-53 10 -57 13q-27 10 -41 18q-16 11 -16 21z" />
<glyph unicode="&#x1b7;" horiz-adv-x="1079" d="M92 150q0 4 14 24q15 22 37 43q29 29 45 41q23 16 50 25q25 -45 53 -74q39 -39 71 -59q47 -29 82 -39q43 -12 84 -13q70 0 117 17q53 18 90 55q39 39 60 88q23 55 22 127q0 59 -20 113q-23 57 -56 96q-35 41 -88 65q-47 23 -114 23q-53 0 -86 -10q-37 -12 -88 -37 l-46 -27l-2 2q-6 4 -20 23q-12 15 -18 24v2v3l401 489h-363q-16 0 -36 -16q-18 -15 -37 -43q-18 -27 -33 -66q-20 -51 -27 -86l-67 14l33 322q29 -8 40 -10q25 -4 41 -4q6 0 21.5 -1t23.5 -1h633l29 -46l-342 -423q34 6 61 6q66 0 127.5 -24.5t106.5 -70.5 q47 -47 73.5 -112.5t26.5 -155.5q0 -104 -43 -190q-43 -84 -112 -146q-68 -57 -162 -94q-86 -33 -185 -33q-90 0 -159 21q-63 18 -125 51q-53 27 -82 57q-31 32 -31 50z" />
<glyph unicode="&#x1cd;" horiz-adv-x="1241" d="M0 0v53q66 12 106 25q40 12 50 43l364 1106q33 33 74 53l78 37l420 -1196q4 -12 14 -25q6 -8 22 -18q10 -6 39 -15q27 -8 54 -10v-53h-447v53q82 6 107 21q29 16 18 47l-111 319h-403l-106 -319q-8 -31 26 -45q31 -12 119 -23v-53h-424zM418 541h336l-172 497zM284 1701 l25 33q8 12 27 21l276 -203l272 203q18 -8 27 -21q16 -20 23 -33l-265 -313h-116z" />
<glyph unicode="&#x1ce;" horiz-adv-x="966" d="M76 190q0 74 24.5 123t63.5 88q20 20 55 45q27 18 82 43q43 18 127 39q49 12 195 35v133q0 34 -6.5 61.5t-24.5 49.5q-16 20 -49 33q-27 10 -74 10q-29 0 -59 -10q-29 -10 -50 -27q-25 -23 -34 -41q-12 -23 -9 -55q0 -4 -12 -15l-31 -16q-14 -6 -43 -14q-33 -8 -47 -13 q-8 -2 -23.5 -4t-17.5 -2q-23 -4 -26 -2l-17 45q20 49 72 101q45 45 113 84q61 35 135 57.5t141 22.5q119 0 180.5 -61.5t61.5 -164.5v-536q0 -47 10 -62q10 -16 30.5 -16t35.5 4q29 8 59 22l18 -55q-94 -63 -151 -90q-72 -33 -98 -33q-37 0 -58 45q-25 51 -26 125 q-53 -53 -91 -78q-61 -41 -86 -53q-37 -18 -82 -28.5t-71 -10.5q-35 0 -76 13q-37 12 -70 41q-35 33 -53 67q-18 37 -18 100zM268 240q0 -39 13 -64q10 -20 26 -37q10 -10 35 -18q18 -6 31 -6q49 0 112 28q59 27 138 93v245q-74 -12 -125 -24q-53 -12 -84 -25 q-25 -8 -52 -26q-18 -12 -34 -29q-33 -37 -43 -60q-17 -36 -17 -77zM166 1434q6 8 11.5 17t11.5 15q10 14 27 23l276 -242l274 242q16 -8 27 -23q2 -2 7 -8t9.5 -12t8.5 -12l-269 -365h-116z" />
<glyph unicode="&#x1cf;" horiz-adv-x="628" d="M68 0v53q68 15 104 31q39 16 39 31v1030q0 10 -37 31q-23 12 -106 30v54h475v-54q-80 -18 -105 -30q-39 -20 -39 -31v-1030q0 -12 37 -31q27 -14 107 -31v-53h-475zM-21 1701l25 33q8 12 27 21l276 -203l272 203q18 -8 27 -21q16 -20 23 -33l-265 -313h-116z" />
<glyph unicode="&#x1d0;" horiz-adv-x="573" d="M68 0v53q70 16 102 31q35 16 35 31v549q0 18 -1 45.5t-1 35.5q0 31 -13 50q-10 14 -40 24q-23 8 -82 15v49q78 14 143 32q78 23 131 46h43v-846q0 -12 33 -31q27 -14 104 -31v-53h-454zM-31 1434q6 8 11.5 17t11.5 15q10 14 27 23l276 -242l274 242q16 -8 27 -23 q2 -2 7 -8t9.5 -12t8.5 -12l-269 -365h-116z" />
<glyph unicode="&#x1d1;" d="M66 612q0 135 43 258q43 121 122 217q76 92 183 148q104 55 227 55q125 0 223.5 -55t162 -143t97.5 -207q33 -113 33 -238q0 -137 -45 -258q-49 -129 -125 -217q-82 -94 -182 -147q-104 -55 -221 -56q-123 0 -219 54q-94 51 -164 143q-66 88 -101 205q-34 120 -34 241z M254 641q0 -109 29 -211q29 -98 77 -174q49 -74 117 -117q72 -45 139 -45q78 0 143.5 35t110.5 100q47 68 74 168q27 98 27 232q0 70 -13 137q-10 57 -34 127q-16 49 -54 111q-27 43 -73 88q-37 35 -90 57q-47 20 -103 20q-84 0 -149 -36q-65 -37 -111 -105 q-41 -59 -68 -168q-22 -90 -22 -219zM297 1753q6 8 11.5 17t11.5 15q10 14 27 23l276 -242l274 242q16 -8 27 -23q2 -2 7 -8t9.5 -12t8.5 -12l-269 -365h-116z" />
<glyph unicode="&#x1d2;" horiz-adv-x="1044" d="M76 444q0 59 16 129q16 68 45 123q27 51 74 104.5t94 84.5q53 35 112.5 55.5t125.5 20.5q96 0 176 -37q84 -39 135 -99q55 -63 86 -151q31 -86 31 -189q0 -96 -39 -192q-39 -100 -101 -166q-68 -74 -149 -115q-86 -43 -178 -43q-96 0 -176 37q-84 39 -135 98 q-55 63 -87 152q-30 86 -30 188zM262 473q0 -80 25 -149q25 -74 63 -123q43 -55 88 -84q49 -31 94 -31q70 0 115 25q47 25 78 71q25 37 43 117q14 63 14 152q0 76 -22 149q-20 70 -60 127q-37 55 -86 86q-53 33 -100 33q-70 0 -121 -29q-45 -25 -76 -80q-29 -51 -41 -116 q-14 -80 -14 -148zM217 1434q6 8 11.5 17t11.5 15q10 14 27 23l276 -242l274 242q16 -8 27 -23q2 -2 7 -8t9.5 -12t8.5 -12l-269 -365h-116z" />
<glyph unicode="&#x1d3;" horiz-adv-x="1347" d="M47 1206v54h475v-54q-80 -18 -104 -30q-37 -18 -37 -31v-645q0 -193 82 -299.5t256 -106.5q70 0 123 35q57 37 88 88q37 59 53 125q16 63 16 145v658q0 12 -34 31q-23 12 -107 30v54h430v-54q-82 -18 -106 -30q-37 -18 -37 -31v-621q0 -133 -33 -233.5t-96 -173.5 q-61 -72 -150 -109q-90 -39 -194 -39q-100 0 -193 29q-82 27 -151 88q-63 57 -100.5 147.5t-37.5 210.5v701q0 12 -34 31q-23 12 -109 30zM356 1701l25 33q8 12 27 21l276 -203l272 203q18 -8 27 -21q16 -20 23 -33l-265 -313h-116z" />
<glyph unicode="&#x1d4;" horiz-adv-x="1107" d="M39 848v49q33 2 76 10l67 13q12 2 35 9t29 9l69 23l29 -41v-582q0 -66 10 -113q10 -43 29 -69q23 -31 43 -37q31 -10 59 -10q33 0 60 8q41 12 63 24q37 20 72 49q49 41 80 72v443q0 35 -4 71q-2 25 -18.5 41.5t-41.5 22.5q-20 4 -73 8v49q88 10 151 27q78 20 133 37 l33 -41v-656q0 -51 4 -96q3 -34 19 -43q10 -8 38 -4q18 2 78 26l15 -55q-49 -33 -74 -47q-14 -8 -42 -22.5t-30 -16.5q-31 -16 -57.5 -26.5t-36.5 -10.5q-18 0 -35 11q-12 8 -26 32q-10 18 -21 58q-10 37 -12 86q-57 -57 -113 -97q-49 -35 -94 -57q-35 -18 -78 -25 q-49 -8 -67 -8q-39 0 -91 15q-43 12 -77 47q-31 31 -54 94q-20 59 -20 154v426q0 37 -4 73q-4 31 -15 41q-12 12 -36 19q-6 2 -72 10zM229 1434q6 8 11.5 17t11.5 15q10 14 27 23l276 -242l274 242q16 -8 27 -23q2 -2 7 -8t9.5 -12t8.5 -12l-269 -365h-116z" />
<glyph unicode="&#x1d5;" horiz-adv-x="1347" d="M47 1206v54h475v-54q-80 -18 -104 -30q-37 -18 -37 -31v-645q0 -193 82 -299.5t256 -106.5q70 0 123 35q57 37 88 88q37 59 53 125q16 63 16 145v658q0 12 -34 31q-23 12 -107 30v54h430v-54q-82 -18 -106 -30q-37 -18 -37 -31v-621q0 -133 -33 -233.5t-96 -173.5 q-61 -72 -150 -109q-90 -39 -194 -39q-100 0 -193 29q-82 27 -151 88q-63 57 -100.5 147.5t-37.5 210.5v701q0 12 -34 31q-23 12 -109 30zM365 1497q0 29 10 59q8 23 28 47q12 14 41 31q23 12 50 12q96 0 96 -104q0 -27 -10 -58q-8 -27 -27 -47t-41 -33q-25 -12 -51 -12 q-53 0 -74 27q-22 29 -22 78zM772 1497q0 29 10 59q8 23 29 47q16 18 41 30.5t49 12.5q96 0 96 -104q0 -27 -10 -58q-8 -27 -26.5 -47t-40.5 -33q-25 -12 -52 -12q-49 0 -73 27q-23 25 -23 78zM323 1804q4 16 9 27l12 33l7 14t7 16l7 14.5l5 10.5h664l25 -27q-4 -16 -9 -26 l-12 -33l-8 -16.5t-6 -14.5t-5 -13t-6 -11h-663z" />
<glyph unicode="&#x1d6;" horiz-adv-x="1107" d="M39 848v49q33 2 76 10l67 13q12 2 35 9t29 9l69 23l29 -41v-582q0 -66 10 -113q10 -43 29 -69q23 -31 43 -37q31 -10 59 -10q33 0 60 8q41 12 63 24q37 20 72 49q49 41 80 72v443q0 35 -4 71q-2 25 -18.5 41.5t-41.5 22.5q-20 4 -73 8v49q88 10 151 27q78 20 133 37 l33 -41v-656q0 -51 4 -96q3 -34 19 -43q10 -8 38 -4q18 2 78 26l15 -55q-49 -33 -74 -47q-14 -8 -42 -22.5t-30 -16.5q-31 -16 -57.5 -26.5t-36.5 -10.5q-18 0 -35 11q-12 8 -26 32q-10 18 -21 58q-10 37 -12 86q-57 -57 -113 -97q-49 -35 -94 -57q-35 -18 -78 -25 q-49 -8 -67 -8q-39 0 -91 15q-43 12 -77 47q-31 31 -54 94q-20 59 -20 154v426q0 37 -4 73q-4 31 -15 41q-12 12 -36 19q-6 2 -72 10zM240 1219q0 27 10 57q8 23 28 47q16 18 41 33q18 10 50 10q96 0 96 -102q0 -29 -10 -60q-8 -27 -27 -47q-18 -23 -41 -33q-25 -12 -51 -12 q-51 0 -73.5 29t-22.5 78zM647 1219q0 27 10 57q8 23 29 47q18 20 41 33q20 10 49 10q96 0 96 -102q0 -29 -10 -60q-8 -27 -27 -47q-18 -23 -40 -33q-25 -12 -52 -12q-49 0 -73 29q-23 25 -23 78zM198 1564q4 16 9 27q2 8 6 15t6 16q2 6 7 16l7 14l7 14.5t5 12.5h664l25 -27 q-4 -16 -9 -26l-12 -33q-2 -8 -4 -12.5t-5 -9.5t-5 -11q-6 -14 -11 -22h-663z" />
<glyph unicode="&#x1d7;" horiz-adv-x="1347" d="M47 1206v54h475v-54q-80 -18 -104 -30q-37 -18 -37 -31v-645q0 -193 82 -299.5t256 -106.5q70 0 123 35q57 37 88 88q37 59 53 125q16 63 16 145v658q0 12 -34 31q-23 12 -107 30v54h430v-54q-82 -18 -106 -30q-37 -18 -37 -31v-621q0 -133 -33 -233.5t-96 -173.5 q-61 -72 -150 -109q-90 -39 -194 -39q-100 0 -193 29q-82 27 -151 88q-63 57 -100.5 147.5t-37.5 210.5v701q0 12 -34 31q-23 12 -109 30zM365 1497q0 29 10 59q8 23 28 47q12 14 41 31q23 12 50 12q96 0 96 -104q0 -27 -10 -58q-8 -27 -27 -47t-41 -33q-25 -12 -51 -12 q-53 0 -74 27q-22 29 -22 78zM772 1497q0 29 10 59q8 23 29 47q16 18 41 30.5t49 12.5q96 0 96 -104q0 -27 -10 -58q-8 -27 -26.5 -47t-40.5 -33q-25 -12 -52 -12q-49 0 -73 27q-23 25 -23 78zM498 1741l379 323q4 -4 16.5 -9t18.5 -9l41 -25l36 -24q18 -12 25 -19l10 -47 l-475 -244q-12 6 -26 21q-4 4 -12.5 15.5t-12.5 17.5z" />
<glyph unicode="&#x1d8;" horiz-adv-x="1107" d="M39 848v49q33 2 76 10l67 13q12 2 35 9t29 9l69 23l29 -41v-582q0 -66 10 -113q10 -43 29 -69q23 -31 43 -37q31 -10 59 -10q33 0 60 8q41 12 63 24q37 20 72 49q49 41 80 72v443q0 35 -4 71q-2 25 -18.5 41.5t-41.5 22.5q-20 4 -73 8v49q88 10 151 27q78 20 133 37 l33 -41v-656q0 -51 4 -96q3 -34 19 -43q10 -8 38 -4q18 2 78 26l15 -55q-49 -33 -74 -47q-14 -8 -42 -22.5t-30 -16.5q-31 -16 -57.5 -26.5t-36.5 -10.5q-18 0 -35 11q-12 8 -26 32q-10 18 -21 58q-10 37 -12 86q-57 -57 -113 -97q-49 -35 -94 -57q-35 -18 -78 -25 q-49 -8 -67 -8q-39 0 -91 15q-43 12 -77 47q-31 31 -54 94q-20 59 -20 154v426q0 37 -4 73q-4 31 -15 41q-12 12 -36 19q-6 2 -72 10zM240 1219q0 27 10 57q8 23 28 47q16 18 41 33q18 10 50 10q96 0 96 -102q0 -29 -10 -60q-8 -27 -27 -47q-18 -23 -41 -33q-25 -12 -51 -12 q-51 0 -73.5 29t-22.5 78zM647 1219q0 27 10 57q8 23 29 47q18 20 41 33q20 10 49 10q96 0 96 -102q0 -29 -10 -60q-8 -27 -27 -47q-18 -23 -40 -33q-25 -12 -52 -12q-49 0 -73 29q-23 25 -23 78zM441 1439l225 420q4 0 37 -4q8 0 24.5 -3t26.5 -5l25.5 -5t23.5 -3l37 -9 l25 -43l-359 -381q-12 2 -37 15q-12 6 -28 18z" />
<glyph unicode="&#x1d9;" horiz-adv-x="1347" d="M47 1206v54h475v-54q-80 -18 -104 -30q-37 -18 -37 -31v-645q0 -193 82 -299.5t256 -106.5q70 0 123 35q57 37 88 88q37 59 53 125q16 63 16 145v658q0 12 -34 31q-23 12 -107 30v54h430v-54q-82 -18 -106 -30q-37 -18 -37 -31v-621q0 -133 -33 -233.5t-96 -173.5 q-61 -72 -150 -109q-90 -39 -194 -39q-100 0 -193 29q-82 27 -151 88q-63 57 -100.5 147.5t-37.5 210.5v701q0 12 -34 31q-23 12 -109 30zM365 1497q0 29 10 59q8 23 28 47q12 14 41 31q23 12 50 12q96 0 96 -104q0 -27 -10 -58q-8 -27 -27 -47t-41 -33q-25 -12 -51 -12 q-53 0 -74 27q-22 29 -22 78zM772 1497q0 29 10 59q8 23 29 47q16 18 41 30.5t49 12.5q96 0 96 -104q0 -27 -10 -58q-8 -27 -26.5 -47t-40.5 -33q-25 -12 -52 -12q-49 0 -73 27q-23 25 -23 78zM356 2025l25 33q8 12 27 21l276 -203l272 203q18 -8 27 -21q16 -20 23 -33 l-265 -313h-116z" />
</font>
</defs>
</svg>
